<?xml version="1.0" encoding="utf-8" standalone="no"?>
<!DOCTYPE svg PUBLIC "-//W3C//DTD SVG 1.1//EN"
  "http://www.w3.org/Graphics/SVG/1.1/DTD/svg11.dtd">
<!-- Created with matplotlib (https://matplotlib.org/) -->
<svg height="216pt" version="1.1" viewBox="0 0 308.25 216" width="308.25pt" xmlns="http://www.w3.org/2000/svg" xmlns:xlink="http://www.w3.org/1999/xlink">
 <metadata>
  <rdf:RDF xmlns:cc="http://creativecommons.org/ns#" xmlns:dc="http://purl.org/dc/elements/1.1/" xmlns:rdf="http://www.w3.org/1999/02/22-rdf-syntax-ns#">
   <cc:Work>
    <dc:type rdf:resource="http://purl.org/dc/dcmitype/StillImage"/>
    <dc:date>2021-06-08T11:23:01.109178</dc:date>
    <dc:format>image/svg+xml</dc:format>
    <dc:creator>
     <cc:Agent>
      <dc:title>Matplotlib v3.3.4, https://matplotlib.org/</dc:title>
     </cc:Agent>
    </dc:creator>
   </cc:Work>
  </rdf:RDF>
 </metadata>
 <defs>
  <style type="text/css">*{stroke-linecap:butt;stroke-linejoin:round;}</style>
 </defs>
 <g id="figure_1">
  <g id="patch_1">
   <path d="M 0 216 
L 308.25 216 
L 308.25 0 
L 0 0 
z
" style="fill:none;"/>
  </g>
  <g id="axes_1">
   <g id="patch_2">
    <path d="M 44.675 176.2 
L 202.1175 176.2 
L 202.1175 14.3 
L 44.675 14.3 
z
" style="fill:#ffffff;"/>
   </g>
   <g id="matplotlib.axis_1">
    <g id="xtick_1">
     <g id="line2d_1">
      <defs>
       <path d="M 0 0 
L 0 3.5 
" id="me2ef6cca95" style="stroke:#000000;stroke-width:0.8;"/>
      </defs>
      <g>
       <use style="stroke:#000000;stroke-width:0.8;" x="47.345471" xlink:href="#me2ef6cca95" y="176.2"/>
      </g>
     </g>
     <g id="text_1">
      <!-- 0 -->
      <g transform="translate(44.565003 190.357812)scale(0.1 -0.1)">
       <defs>
        <path d="M 4.15625 35.296875 
Q 4.15625 48 6.765625 55.734375 
Q 9.375 63.484375 14.515625 67.671875 
Q 19.671875 71.875 27.484375 71.875 
Q 33.25 71.875 37.59375 69.546875 
Q 41.9375 67.234375 44.765625 62.859375 
Q 47.609375 58.5 49.21875 52.21875 
Q 50.828125 45.953125 50.828125 35.296875 
Q 50.828125 22.703125 48.234375 14.96875 
Q 45.65625 7.234375 40.5 3 
Q 35.359375 -1.21875 27.484375 -1.21875 
Q 17.140625 -1.21875 11.234375 6.203125 
Q 4.15625 15.140625 4.15625 35.296875 
z
M 13.1875 35.296875 
Q 13.1875 17.671875 17.3125 11.828125 
Q 21.4375 6 27.484375 6 
Q 33.546875 6 37.671875 11.859375 
Q 41.796875 17.71875 41.796875 35.296875 
Q 41.796875 52.984375 37.671875 58.78125 
Q 33.546875 64.59375 27.390625 64.59375 
Q 21.34375 64.59375 17.71875 59.46875 
Q 13.1875 52.9375 13.1875 35.296875 
z
" id="ArialMT-48"/>
       </defs>
       <use xlink:href="#ArialMT-48"/>
      </g>
     </g>
    </g>
    <g id="xtick_2">
     <g id="line2d_2">
      <g>
       <use style="stroke:#000000;stroke-width:0.8;" x="100.016945" xlink:href="#me2ef6cca95" y="176.2"/>
      </g>
     </g>
     <g id="text_2">
      <!-- 1 -->
      <g transform="translate(97.236476 190.357812)scale(0.1 -0.1)">
       <defs>
        <path d="M 37.25 0 
L 28.46875 0 
L 28.46875 56 
Q 25.296875 52.984375 20.140625 49.953125 
Q 14.984375 46.921875 10.890625 45.40625 
L 10.890625 53.90625 
Q 18.265625 57.375 23.78125 62.296875 
Q 29.296875 67.234375 31.59375 71.875 
L 37.25 71.875 
z
" id="ArialMT-49"/>
       </defs>
       <use xlink:href="#ArialMT-49"/>
      </g>
     </g>
    </g>
    <g id="xtick_3">
     <g id="line2d_3">
      <g>
       <use style="stroke:#000000;stroke-width:0.8;" x="152.688418" xlink:href="#me2ef6cca95" y="176.2"/>
      </g>
     </g>
     <g id="text_3">
      <!-- 2 -->
      <g transform="translate(149.907949 190.357812)scale(0.1 -0.1)">
       <defs>
        <path d="M 50.34375 8.453125 
L 50.34375 0 
L 3.03125 0 
Q 2.9375 3.171875 4.046875 6.109375 
Q 5.859375 10.9375 9.828125 15.625 
Q 13.8125 20.3125 21.34375 26.46875 
Q 33.015625 36.03125 37.109375 41.625 
Q 41.21875 47.21875 41.21875 52.203125 
Q 41.21875 57.421875 37.46875 61 
Q 33.734375 64.59375 27.734375 64.59375 
Q 21.390625 64.59375 17.578125 60.78125 
Q 13.765625 56.984375 13.71875 50.25 
L 4.6875 51.171875 
Q 5.609375 61.28125 11.65625 66.578125 
Q 17.71875 71.875 27.9375 71.875 
Q 38.234375 71.875 44.234375 66.15625 
Q 50.25 60.453125 50.25 52 
Q 50.25 47.703125 48.484375 43.546875 
Q 46.734375 39.40625 42.65625 34.8125 
Q 38.578125 30.21875 29.109375 22.21875 
Q 21.1875 15.578125 18.9375 13.203125 
Q 16.703125 10.84375 15.234375 8.453125 
z
" id="ArialMT-50"/>
       </defs>
       <use xlink:href="#ArialMT-50"/>
      </g>
     </g>
    </g>
    <g id="text_4">
     <!-- entropy -->
     <g transform="translate(106.720469 203.385938)scale(0.1 -0.1)">
      <defs>
       <path d="M 42.09375 16.703125 
L 51.171875 15.578125 
Q 49.03125 7.625 43.21875 3.21875 
Q 37.40625 -1.171875 28.375 -1.171875 
Q 17 -1.171875 10.328125 5.828125 
Q 3.65625 12.84375 3.65625 25.484375 
Q 3.65625 38.578125 10.390625 45.796875 
Q 17.140625 53.03125 27.875 53.03125 
Q 38.28125 53.03125 44.875 45.953125 
Q 51.46875 38.875 51.46875 26.03125 
Q 51.46875 25.25 51.421875 23.6875 
L 12.75 23.6875 
Q 13.234375 15.140625 17.578125 10.59375 
Q 21.921875 6.0625 28.421875 6.0625 
Q 33.25 6.0625 36.671875 8.59375 
Q 40.09375 11.140625 42.09375 16.703125 
z
M 13.234375 30.90625 
L 42.1875 30.90625 
Q 41.609375 37.453125 38.875 40.71875 
Q 34.671875 45.796875 27.984375 45.796875 
Q 21.921875 45.796875 17.796875 41.75 
Q 13.671875 37.703125 13.234375 30.90625 
z
" id="ArialMT-101"/>
       <path d="M 6.59375 0 
L 6.59375 51.859375 
L 14.5 51.859375 
L 14.5 44.484375 
Q 20.21875 53.03125 31 53.03125 
Q 35.6875 53.03125 39.625 51.34375 
Q 43.5625 49.65625 45.515625 46.921875 
Q 47.46875 44.1875 48.25 40.4375 
Q 48.734375 37.984375 48.734375 31.890625 
L 48.734375 0 
L 39.9375 0 
L 39.9375 31.546875 
Q 39.9375 36.921875 38.90625 39.578125 
Q 37.890625 42.234375 35.28125 43.8125 
Q 32.671875 45.40625 29.15625 45.40625 
Q 23.53125 45.40625 19.453125 41.84375 
Q 15.375 38.28125 15.375 28.328125 
L 15.375 0 
z
" id="ArialMT-110"/>
       <path d="M 25.78125 7.859375 
L 27.046875 0.09375 
Q 23.34375 -0.6875 20.40625 -0.6875 
Q 15.625 -0.6875 12.984375 0.828125 
Q 10.359375 2.34375 9.28125 4.8125 
Q 8.203125 7.28125 8.203125 15.1875 
L 8.203125 45.015625 
L 1.765625 45.015625 
L 1.765625 51.859375 
L 8.203125 51.859375 
L 8.203125 64.703125 
L 16.9375 69.96875 
L 16.9375 51.859375 
L 25.78125 51.859375 
L 25.78125 45.015625 
L 16.9375 45.015625 
L 16.9375 14.703125 
Q 16.9375 10.9375 17.40625 9.859375 
Q 17.875 8.796875 18.921875 8.15625 
Q 19.96875 7.515625 21.921875 7.515625 
Q 23.390625 7.515625 25.78125 7.859375 
z
" id="ArialMT-116"/>
       <path d="M 6.5 0 
L 6.5 51.859375 
L 14.40625 51.859375 
L 14.40625 44 
Q 17.4375 49.515625 20 51.265625 
Q 22.5625 53.03125 25.640625 53.03125 
Q 30.078125 53.03125 34.671875 50.203125 
L 31.640625 42.046875 
Q 28.421875 43.953125 25.203125 43.953125 
Q 22.3125 43.953125 20.015625 42.21875 
Q 17.71875 40.484375 16.75 37.40625 
Q 15.28125 32.71875 15.28125 27.15625 
L 15.28125 0 
z
" id="ArialMT-114"/>
       <path d="M 3.328125 25.921875 
Q 3.328125 40.328125 11.328125 47.265625 
Q 18.015625 53.03125 27.640625 53.03125 
Q 38.328125 53.03125 45.109375 46.015625 
Q 51.90625 39.015625 51.90625 26.65625 
Q 51.90625 16.65625 48.90625 10.90625 
Q 45.90625 5.171875 40.15625 2 
Q 34.421875 -1.171875 27.640625 -1.171875 
Q 16.75 -1.171875 10.03125 5.8125 
Q 3.328125 12.796875 3.328125 25.921875 
z
M 12.359375 25.921875 
Q 12.359375 15.96875 16.703125 11.015625 
Q 21.046875 6.0625 27.640625 6.0625 
Q 34.1875 6.0625 38.53125 11.03125 
Q 42.875 16.015625 42.875 26.21875 
Q 42.875 35.84375 38.5 40.796875 
Q 34.125 45.75 27.640625 45.75 
Q 21.046875 45.75 16.703125 40.8125 
Q 12.359375 35.890625 12.359375 25.921875 
z
" id="ArialMT-111"/>
       <path d="M 6.59375 -19.875 
L 6.59375 51.859375 
L 14.59375 51.859375 
L 14.59375 45.125 
Q 17.4375 49.078125 21 51.046875 
Q 24.5625 53.03125 29.640625 53.03125 
Q 36.28125 53.03125 41.359375 49.609375 
Q 46.4375 46.1875 49.015625 39.953125 
Q 51.609375 33.734375 51.609375 26.3125 
Q 51.609375 18.359375 48.75 11.984375 
Q 45.90625 5.609375 40.453125 2.21875 
Q 35.015625 -1.171875 29 -1.171875 
Q 24.609375 -1.171875 21.109375 0.6875 
Q 17.625 2.546875 15.375 5.375 
L 15.375 -19.875 
z
M 14.546875 25.640625 
Q 14.546875 15.625 18.59375 10.84375 
Q 22.65625 6.0625 28.421875 6.0625 
Q 34.28125 6.0625 38.453125 11.015625 
Q 42.625 15.96875 42.625 26.375 
Q 42.625 36.28125 38.546875 41.203125 
Q 34.46875 46.140625 28.8125 46.140625 
Q 23.1875 46.140625 18.859375 40.890625 
Q 14.546875 35.640625 14.546875 25.640625 
z
" id="ArialMT-112"/>
       <path d="M 6.203125 -19.96875 
L 5.21875 -11.71875 
Q 8.109375 -12.5 10.25 -12.5 
Q 13.1875 -12.5 14.9375 -11.515625 
Q 16.703125 -10.546875 17.828125 -8.796875 
Q 18.65625 -7.46875 20.515625 -2.25 
Q 20.75 -1.515625 21.296875 -0.09375 
L 1.609375 51.859375 
L 11.078125 51.859375 
L 21.875 21.828125 
Q 23.96875 16.109375 25.640625 9.8125 
Q 27.15625 15.875 29.25 21.625 
L 40.328125 51.859375 
L 49.125 51.859375 
L 29.390625 -0.875 
Q 26.21875 -9.421875 24.46875 -12.640625 
Q 22.125 -17 19.09375 -19.015625 
Q 16.0625 -21.046875 11.859375 -21.046875 
Q 9.328125 -21.046875 6.203125 -19.96875 
z
" id="ArialMT-121"/>
      </defs>
      <use xlink:href="#ArialMT-101"/>
      <use x="55.615234" xlink:href="#ArialMT-110"/>
      <use x="111.230469" xlink:href="#ArialMT-116"/>
      <use x="139.013672" xlink:href="#ArialMT-114"/>
      <use x="172.314453" xlink:href="#ArialMT-111"/>
      <use x="227.929688" xlink:href="#ArialMT-112"/>
      <use x="283.544922" xlink:href="#ArialMT-121"/>
     </g>
    </g>
   </g>
   <g id="matplotlib.axis_2">
    <g id="ytick_1">
     <g id="line2d_4">
      <defs>
       <path d="M 0 0 
L -3.5 0 
" id="mf2a09bc496" style="stroke:#000000;stroke-width:0.8;"/>
      </defs>
      <g>
       <use style="stroke:#000000;stroke-width:0.8;" x="44.675" xlink:href="#mf2a09bc496" y="176.2"/>
      </g>
     </g>
     <g id="text_5">
      <!-- 0.0 -->
      <g transform="translate(23.775 179.778906)scale(0.1 -0.1)">
       <defs>
        <path d="M 9.078125 0 
L 9.078125 10.015625 
L 19.09375 10.015625 
L 19.09375 0 
z
" id="ArialMT-46"/>
       </defs>
       <use xlink:href="#ArialMT-48"/>
       <use x="55.615234" xlink:href="#ArialMT-46"/>
       <use x="83.398438" xlink:href="#ArialMT-48"/>
      </g>
     </g>
    </g>
    <g id="ytick_2">
     <g id="line2d_5">
      <g>
       <use style="stroke:#000000;stroke-width:0.8;" x="44.675" xlink:href="#mf2a09bc496" y="143.82"/>
      </g>
     </g>
     <g id="text_6">
      <!-- 0.2 -->
      <g transform="translate(23.775 147.398906)scale(0.1 -0.1)">
       <use xlink:href="#ArialMT-48"/>
       <use x="55.615234" xlink:href="#ArialMT-46"/>
       <use x="83.398438" xlink:href="#ArialMT-50"/>
      </g>
     </g>
    </g>
    <g id="ytick_3">
     <g id="line2d_6">
      <g>
       <use style="stroke:#000000;stroke-width:0.8;" x="44.675" xlink:href="#mf2a09bc496" y="111.44"/>
      </g>
     </g>
     <g id="text_7">
      <!-- 0.4 -->
      <g transform="translate(23.775 115.018906)scale(0.1 -0.1)">
       <defs>
        <path d="M 32.328125 0 
L 32.328125 17.140625 
L 1.265625 17.140625 
L 1.265625 25.203125 
L 33.9375 71.578125 
L 41.109375 71.578125 
L 41.109375 25.203125 
L 50.78125 25.203125 
L 50.78125 17.140625 
L 41.109375 17.140625 
L 41.109375 0 
z
M 32.328125 25.203125 
L 32.328125 57.46875 
L 9.90625 25.203125 
z
" id="ArialMT-52"/>
       </defs>
       <use xlink:href="#ArialMT-48"/>
       <use x="55.615234" xlink:href="#ArialMT-46"/>
       <use x="83.398438" xlink:href="#ArialMT-52"/>
      </g>
     </g>
    </g>
    <g id="ytick_4">
     <g id="line2d_7">
      <g>
       <use style="stroke:#000000;stroke-width:0.8;" x="44.675" xlink:href="#mf2a09bc496" y="79.06"/>
      </g>
     </g>
     <g id="text_8">
      <!-- 0.6 -->
      <g transform="translate(23.775 82.638906)scale(0.1 -0.1)">
       <defs>
        <path d="M 49.75 54.046875 
L 41.015625 53.375 
Q 39.84375 58.546875 37.703125 60.890625 
Q 34.125 64.65625 28.90625 64.65625 
Q 24.703125 64.65625 21.53125 62.3125 
Q 17.390625 59.28125 14.984375 53.46875 
Q 12.59375 47.65625 12.5 36.921875 
Q 15.671875 41.75 20.265625 44.09375 
Q 24.859375 46.4375 29.890625 46.4375 
Q 38.671875 46.4375 44.84375 39.96875 
Q 51.03125 33.5 51.03125 23.25 
Q 51.03125 16.5 48.125 10.71875 
Q 45.21875 4.9375 40.140625 1.859375 
Q 35.0625 -1.21875 28.609375 -1.21875 
Q 17.625 -1.21875 10.6875 6.859375 
Q 3.765625 14.9375 3.765625 33.5 
Q 3.765625 54.25 11.421875 63.671875 
Q 18.109375 71.875 29.4375 71.875 
Q 37.890625 71.875 43.28125 67.140625 
Q 48.6875 62.40625 49.75 54.046875 
z
M 13.875 23.1875 
Q 13.875 18.65625 15.796875 14.5 
Q 17.71875 10.359375 21.1875 8.171875 
Q 24.65625 6 28.46875 6 
Q 34.03125 6 38.03125 10.484375 
Q 42.046875 14.984375 42.046875 22.703125 
Q 42.046875 30.125 38.078125 34.390625 
Q 34.125 38.671875 28.125 38.671875 
Q 22.171875 38.671875 18.015625 34.390625 
Q 13.875 30.125 13.875 23.1875 
z
" id="ArialMT-54"/>
       </defs>
       <use xlink:href="#ArialMT-48"/>
       <use x="55.615234" xlink:href="#ArialMT-46"/>
       <use x="83.398438" xlink:href="#ArialMT-54"/>
      </g>
     </g>
    </g>
    <g id="ytick_5">
     <g id="line2d_8">
      <g>
       <use style="stroke:#000000;stroke-width:0.8;" x="44.675" xlink:href="#mf2a09bc496" y="46.68"/>
      </g>
     </g>
     <g id="text_9">
      <!-- 0.8 -->
      <g transform="translate(23.775 50.258906)scale(0.1 -0.1)">
       <defs>
        <path d="M 17.671875 38.8125 
Q 12.203125 40.828125 9.5625 44.53125 
Q 6.9375 48.25 6.9375 53.421875 
Q 6.9375 61.234375 12.546875 66.546875 
Q 18.171875 71.875 27.484375 71.875 
Q 36.859375 71.875 42.578125 66.421875 
Q 48.296875 60.984375 48.296875 53.171875 
Q 48.296875 48.1875 45.671875 44.5 
Q 43.0625 40.828125 37.75 38.8125 
Q 44.34375 36.671875 47.78125 31.875 
Q 51.21875 27.09375 51.21875 20.453125 
Q 51.21875 11.28125 44.71875 5.03125 
Q 38.234375 -1.21875 27.640625 -1.21875 
Q 17.046875 -1.21875 10.546875 5.046875 
Q 4.046875 11.328125 4.046875 20.703125 
Q 4.046875 27.6875 7.59375 32.390625 
Q 11.140625 37.109375 17.671875 38.8125 
z
M 15.921875 53.71875 
Q 15.921875 48.640625 19.1875 45.40625 
Q 22.46875 42.1875 27.6875 42.1875 
Q 32.765625 42.1875 36.015625 45.375 
Q 39.265625 48.578125 39.265625 53.21875 
Q 39.265625 58.0625 35.90625 61.359375 
Q 32.5625 64.65625 27.59375 64.65625 
Q 22.5625 64.65625 19.234375 61.421875 
Q 15.921875 58.203125 15.921875 53.71875 
z
M 13.09375 20.65625 
Q 13.09375 16.890625 14.875 13.375 
Q 16.65625 9.859375 20.171875 7.921875 
Q 23.6875 6 27.734375 6 
Q 34.03125 6 38.125 10.046875 
Q 42.234375 14.109375 42.234375 20.359375 
Q 42.234375 26.703125 38.015625 30.859375 
Q 33.796875 35.015625 27.4375 35.015625 
Q 21.234375 35.015625 17.15625 30.90625 
Q 13.09375 26.8125 13.09375 20.65625 
z
" id="ArialMT-56"/>
       </defs>
       <use xlink:href="#ArialMT-48"/>
       <use x="55.615234" xlink:href="#ArialMT-46"/>
       <use x="83.398438" xlink:href="#ArialMT-56"/>
      </g>
     </g>
    </g>
    <g id="ytick_6">
     <g id="line2d_9">
      <g>
       <use style="stroke:#000000;stroke-width:0.8;" x="44.675" xlink:href="#mf2a09bc496" y="14.3"/>
      </g>
     </g>
     <g id="text_10">
      <!-- 1.0 -->
      <g transform="translate(23.775 17.878906)scale(0.1 -0.1)">
       <use xlink:href="#ArialMT-49"/>
       <use x="55.615234" xlink:href="#ArialMT-46"/>
       <use x="83.398438" xlink:href="#ArialMT-48"/>
      </g>
     </g>
    </g>
    <g id="text_11">
     <!-- Proportion -->
     <g transform="translate(17.7875 118.317187)rotate(-90)scale(0.1 -0.1)">
      <defs>
       <path d="M 7.71875 0 
L 7.71875 71.578125 
L 34.71875 71.578125 
Q 41.84375 71.578125 45.609375 70.90625 
Q 50.875 70.015625 54.4375 67.546875 
Q 58.015625 65.09375 60.1875 60.640625 
Q 62.359375 56.203125 62.359375 50.875 
Q 62.359375 41.75 56.546875 35.421875 
Q 50.734375 29.109375 35.546875 29.109375 
L 17.1875 29.109375 
L 17.1875 0 
z
M 17.1875 37.546875 
L 35.6875 37.546875 
Q 44.875 37.546875 48.734375 40.96875 
Q 52.59375 44.390625 52.59375 50.59375 
Q 52.59375 55.078125 50.3125 58.265625 
Q 48.046875 61.46875 44.34375 62.5 
Q 41.9375 63.140625 35.5 63.140625 
L 17.1875 63.140625 
z
" id="ArialMT-80"/>
       <path d="M 6.640625 61.46875 
L 6.640625 71.578125 
L 15.4375 71.578125 
L 15.4375 61.46875 
z
M 6.640625 0 
L 6.640625 51.859375 
L 15.4375 51.859375 
L 15.4375 0 
z
" id="ArialMT-105"/>
      </defs>
      <use xlink:href="#ArialMT-80"/>
      <use x="66.699219" xlink:href="#ArialMT-114"/>
      <use x="100" xlink:href="#ArialMT-111"/>
      <use x="155.615234" xlink:href="#ArialMT-112"/>
      <use x="211.230469" xlink:href="#ArialMT-111"/>
      <use x="266.845703" xlink:href="#ArialMT-114"/>
      <use x="300.146484" xlink:href="#ArialMT-116"/>
      <use x="327.929688" xlink:href="#ArialMT-105"/>
      <use x="350.146484" xlink:href="#ArialMT-111"/>
      <use x="405.761719" xlink:href="#ArialMT-110"/>
     </g>
    </g>
   </g>
   <g id="line2d_10">
    <path clip-path="url(#p9f1e2636ac)" d="M 51.831477 176.2 
L 51.831477 171.574286 
L 52.982713 171.574286 
L 52.982713 166.948571 
L 53.605114 166.948571 
L 53.605114 162.322857 
L 53.895487 162.322857 
L 53.895487 157.697143 
L 53.967271 157.697143 
L 53.967271 153.071429 
L 56.509209 153.071429 
L 56.509209 148.445714 
L 57.127041 148.445714 
L 57.127041 143.82 
L 57.23076 143.82 
L 57.23076 139.194286 
L 58.519559 139.194286 
L 58.519559 134.568571 
L 61.32329 134.568571 
L 61.32329 129.942857 
L 61.499001 129.942857 
L 61.499001 125.317143 
L 62.275573 125.317143 
L 62.275573 120.691429 
L 63.146616 120.691429 
L 63.146616 116.065714 
L 65.0557 116.065714 
L 65.0557 111.44 
L 65.988141 111.44 
L 65.988141 106.814286 
L 67.272675 106.814286 
L 67.272675 102.188571 
L 68.364578 102.188571 
L 68.364578 97.562857 
L 68.47849 97.562857 
L 68.47849 92.937143 
L 70.084909 92.937143 
L 70.084909 88.311429 
L 70.680238 88.311429 
L 70.680238 83.685714 
L 76.58856 83.685714 
L 76.58856 79.06 
L 78.635192 79.06 
L 78.635192 74.434286 
L 80.118816 74.434286 
L 80.118816 69.808571 
L 80.934151 69.808571 
L 80.934151 65.182857 
L 87.462472 65.182857 
L 87.462472 60.557143 
L 89.924319 60.557143 
L 89.924319 55.931429 
L 96.491097 55.931429 
L 96.491097 51.305714 
L 98.349379 51.305714 
L 98.349379 46.68 
L 100.708098 46.68 
L 100.708098 42.054286 
L 123.991169 42.054286 
L 123.991169 37.428571 
L 127.556375 37.428571 
L 127.556375 32.802857 
L 134.942528 32.802857 
L 134.942528 28.177143 
L 136.48999 28.177143 
L 136.48999 23.551429 
L 146.83828 23.551429 
L 146.83828 18.925714 
L 149.103473 18.925714 
L 149.103473 14.3 
" style="fill:none;stroke:#ff7f0e;stroke-linecap:square;stroke-width:1.5;"/>
   </g>
   <g id="line2d_11">
    <path clip-path="url(#p9f1e2636ac)" d="M 51.831477 176.2 
L 51.831477 176.127991 
L 51.964942 176.127991 
L 51.964942 176.019978 
L 51.964942 175.95997 
L 52.193896 175.95997 
L 52.193896 175.851957 
L 52.193896 175.587924 
L 52.337787 175.503914 
L 52.337787 175.479911 
L 52.337787 175.431905 
L 52.518328 175.431905 
L 52.518328 175.323892 
L 52.556262 175.14387 
L 52.821264 175.059859 
L 52.821264 175.035856 
L 52.918576 174.711816 
L 53.109045 174.639807 
L 53.109045 174.603803 
L 53.204971 174.303766 
L 53.242904 174.267761 
L 53.242904 174.195752 
L 53.280838 173.967724 
L 53.385094 173.859711 
L 53.471255 173.60768 
L 53.545736 173.499666 
L 53.65156 173.163625 
L 53.747251 173.12762 
L 53.747251 173.055612 
L 53.833412 172.875589 
L 53.895487 172.791579 
L 53.895487 172.767576 
L 54.005205 172.299518 
L 54.093516 172.275515 
L 54.093516 172.191505 
L 54.195517 171.795456 
L 54.232064 171.711446 
L 54.232064 171.687443 
L 54.329376 171.363403 
L 54.380346 171.279392 
L 54.380346 171.255389 
L 54.473313 171.027361 
L 54.55757 170.919348 
L 54.661616 170.691319 
L 54.736096 170.583306 
L 54.843702 170.175256 
L 54.949636 170.067242 
L 55.06011 169.755204 
L 55.139513 169.647191 
L 55.247104 169.359155 
L 55.301574 169.251142 
L 55.394775 169.059118 
L 55.471619 168.951105 
L 55.582646 168.67507 
L 55.643825 168.59106 
L 55.643825 168.567057 
L 55.745913 168.279021 
L 55.823401 168.171008 
L 55.933783 167.954981 
L 55.965932 167.846968 
L 56.072166 167.61894 
L 56.2303 167.510927 
L 56.341272 167.37891 
L 56.469438 167.270897 
L 56.574555 167.090875 
L 56.631689 166.982861 
L 56.735671 166.766835 
L 56.802329 166.658821 
L 56.908317 166.538807 
L 57.013213 166.430793 
L 57.106506 166.286775 
L 57.176449 166.178762 
L 57.284624 165.950734 
L 57.317288 165.902728 
L 57.317288 165.842721 
L 57.409943 165.710704 
L 57.528181 165.602691 
L 57.638078 165.398666 
L 57.701698 165.290652 
L 57.796603 165.122632 
L 57.895514 165.014618 
L 57.996229 164.750586 
L 58.106782 164.642572 
L 58.209969 164.522557 
L 58.361356 164.414544 
L 58.470287 164.234522 
L 58.541867 164.126509 
L 58.601635 164.006494 
L 58.674936 163.970489 
L 58.674936 163.89848 
L 58.774685 163.646449 
L 58.852756 163.538436 
L 58.96008 163.442424 
L 59.079914 163.334411 
L 59.189355 163.202394 
L 59.248131 163.094381 
L 59.358077 162.854351 
L 59.430485 162.746338 
L 59.487519 162.638325 
L 59.67036 162.530311 
L 59.774842 162.410297 
L 59.851513 162.302283 
L 59.959681 162.158265 
L 60.077295 162.050252 
L 60.174577 161.894233 
L 60.306943 161.786219 
L 60.416028 161.654203 
L 60.474235 161.54619 
L 60.579489 161.378169 
L 60.66563 161.270156 
L 60.772279 161.150141 
L 60.858546 161.042128 
L 60.946348 160.874107 
L 61.091918 160.766093 
L 61.200351 160.694085 
L 61.270819 160.586071 
L 61.381252 160.346042 
L 61.548291 160.238028 
L 61.658004 160.106012 
L 61.792254 159.997999 
L 61.901919 159.853981 
L 61.970149 159.745967 
L 62.081149 159.589948 
L 62.193246 159.481935 
L 62.29655 159.373921 
L 62.382737 159.265908 
L 62.476748 159.157895 
L 62.618007 159.049881 
L 62.70446 158.905864 
L 62.803168 158.79785 
L 62.912577 158.605827 
L 62.995086 158.497813 
L 63.102298 158.377798 
L 63.276241 158.269785 
L 63.385597 158.185775 
L 63.47483 158.077761 
L 63.585338 157.909741 
L 63.734671 157.801727 
L 63.842325 157.681712 
L 63.955097 157.573699 
L 64.054299 157.429681 
L 64.174236 157.321668 
L 64.275718 157.09364 
L 64.438981 156.985626 
L 64.545942 156.889615 
L 64.635117 156.781601 
L 64.719548 156.685589 
L 64.84476 156.577576 
L 64.952893 156.469563 
L 65.094755 156.361549 
L 65.203914 156.229533 
L 65.363812 156.12152 
L 65.432587 156.037509 
L 65.59962 155.929496 
L 65.699176 155.809481 
L 65.803342 155.701468 
L 65.907804 155.605456 
L 66.085853 155.497443 
L 66.189625 155.377428 
L 66.313971 155.269414 
L 66.408649 155.161401 
L 66.521057 155.053388 
L 66.599716 154.99338 
L 66.736592 154.885367 
L 66.84418 154.801357 
L 67.004265 154.693343 
L 67.109577 154.573328 
L 67.332692 154.465315 
L 67.43726 154.369303 
L 67.580154 154.26129 
L 67.690966 154.201282 
L 67.850533 154.093269 
L 67.95707 153.961253 
L 68.143192 153.853239 
L 68.218793 153.661216 
L 68.360556 153.553202 
L 68.46468 153.445189 
L 68.661806 153.337176 
L 68.726706 153.265167 
L 68.859438 153.157153 
L 68.968759 153.061142 
L 69.073262 152.953128 
L 69.175675 152.833113 
L 69.360892 152.7251 
L 69.471017 152.581082 
L 69.613942 152.473069 
L 69.717749 152.341053 
L 69.809224 152.233039 
L 69.91859 152.149029 
L 70.040582 152.041016 
L 70.147284 151.884996 
L 70.288069 151.776983 
L 70.388011 151.716976 
L 70.529479 151.608962 
L 70.623011 151.536953 
L 70.772676 151.42894 
L 70.876246 151.224915 
L 71.064033 151.116901 
L 71.173548 151.056894 
L 71.253333 150.948881 
L 71.349845 150.876872 
L 71.500004 150.768858 
L 71.604516 150.684848 
L 71.764466 150.576835 
L 71.859729 150.45682 
L 72.096515 150.348807 
L 72.203985 150.168784 
L 72.321493 150.060771 
L 72.42306 150.000764 
L 72.531655 149.89275 
L 72.641803 149.748732 
L 72.748462 149.640719 
L 72.812073 149.592713 
L 73.017331 149.4847 
L 73.116443 149.388688 
L 73.260441 149.280675 
L 73.367365 149.208666 
L 73.590778 149.100652 
L 73.679149 149.00464 
L 73.836159 148.896627 
L 73.9439 148.788614 
L 74.03369 148.6806 
L 74.118266 148.548584 
L 74.315735 148.440571 
L 74.398702 148.35656 
L 74.560702 148.248547 
L 74.668756 148.116531 
L 74.781884 148.008517 
L 74.855125 147.960511 
L 75.002824 147.852498 
L 75.112411 147.70848 
L 75.356036 147.600467 
L 75.451285 147.54046 
L 75.591578 147.432446 
L 75.685177 147.312431 
L 75.827844 147.204418 
L 75.933035 147.096405 
L 76.087888 146.988391 
L 76.193519 146.880378 
L 76.32356 146.772365 
L 76.433223 146.65235 
L 76.601454 146.544337 
L 76.684089 146.424322 
L 76.893655 146.316308 
L 77.0042 146.232298 
L 77.075196 146.124285 
L 77.179295 145.968265 
L 77.298357 145.860252 
L 77.387859 145.76424 
L 77.552931 145.656227 
L 77.661017 145.524211 
L 77.823952 145.416197 
L 77.932813 145.320185 
L 78.109622 145.212172 
L 78.218389 145.044151 
L 78.379694 144.936138 
L 78.473956 144.768117 
L 78.601413 144.660104 
L 78.706741 144.540089 
L 78.845915 144.432076 
L 78.921955 144.372068 
L 79.049873 144.264055 
L 79.154924 144.156042 
L 79.258577 144.048028 
L 79.361631 143.952016 
L 79.638583 143.844003 
L 79.748899 143.747991 
L 79.799849 143.639978 
L 79.905654 143.531964 
L 80.027635 143.423951 
L 80.133321 143.303936 
L 80.284461 143.195923 
L 80.374924 143.051905 
L 80.473688 142.943892 
L 80.578932 142.84788 
L 80.734863 142.739867 
L 80.844492 142.535841 
L 80.92384 142.427828 
L 81.031844 142.307813 
L 81.141472 142.1998 
L 81.237464 142.163795 
L 81.329102 142.055782 
L 81.436276 141.923766 
L 81.568213 141.815752 
L 81.644362 141.743744 
L 81.821934 141.63573 
L 81.929612 141.539718 
L 82.057716 141.431705 
L 82.149749 141.299689 
L 82.386682 141.191675 
L 82.487316 141.023655 
L 82.605219 140.915641 
L 82.70143 140.783625 
L 82.910917 140.675612 
L 83.017918 140.5796 
L 83.163009 140.471586 
L 83.249261 140.33957 
L 83.376066 140.231557 
L 83.486373 140.111542 
L 83.596084 140.003529 
L 83.695614 139.919518 
L 83.840146 139.811505 
L 83.907799 139.739496 
L 84.022096 139.631483 
L 84.127292 139.535471 
L 84.283988 139.427457 
L 84.38985 139.307443 
L 84.517106 139.199429 
L 84.550741 139.12742 
L 84.740139 139.019407 
L 84.848146 138.875389 
L 84.990286 138.767376 
L 85.089742 138.707368 
L 85.244763 138.599355 
L 85.34184 138.491342 
L 85.524269 138.383328 
L 85.613622 138.287317 
L 85.880058 138.179303 
L 85.960896 138.131297 
L 86.142899 138.023284 
L 86.229088 137.891268 
L 86.400841 137.783254 
L 86.502446 137.639236 
L 86.619031 137.531223 
L 86.724836 137.399207 
L 86.866411 137.291193 
L 86.960441 137.135174 
L 87.099685 137.027161 
L 87.209307 136.871142 
L 87.294217 136.763128 
L 87.389806 136.643113 
L 87.473987 136.5351 
L 87.570587 136.367079 
L 87.666671 136.259066 
L 87.774318 136.079044 
L 87.892094 135.97103 
L 87.996559 135.755004 
L 88.130809 135.64699 
L 88.226317 135.526976 
L 88.311421 135.418962 
L 88.414693 135.226938 
L 88.523288 135.118925 
L 88.619169 134.974907 
L 88.737742 134.866894 
L 88.846812 134.722876 
L 88.916838 134.614863 
L 89.027854 134.434841 
L 89.128103 134.326827 
L 89.239165 134.098799 
L 89.345697 133.990786 
L 89.438016 133.858769 
L 89.538202 133.750756 
L 89.647507 133.570734 
L 89.758374 133.462721 
L 89.844973 133.342706 
L 89.914901 133.234692 
L 90.020395 133.05467 
L 90.083695 132.946657 
L 90.185649 132.838643 
L 90.289048 132.73063 
L 90.374673 132.550608 
L 90.531507 132.442595 
L 90.638943 132.346583 
L 90.776932 132.238569 
L 90.878733 132.070549 
L 90.935684 131.962535 
L 91.045058 131.794514 
L 91.158883 131.686501 
L 91.264835 131.554485 
L 91.394422 131.446471 
L 91.485391 131.338458 
L 91.599275 131.230445 
L 91.697341 131.074426 
L 91.780807 130.966412 
L 91.89079 130.738384 
L 91.934059 130.630371 
L 92.031237 130.426345 
L 92.138805 130.318332 
L 92.246388 130.198317 
L 92.31392 130.090304 
L 92.422363 129.922283 
L 92.498549 129.81427 
L 92.601567 129.622246 
L 92.759125 129.514233 
L 92.841898 129.394218 
L 92.938604 129.286205 
L 93.046871 129.154188 
L 93.091404 129.046175 
L 93.198542 128.92616 
L 93.307292 128.818147 
L 93.412694 128.638125 
L 93.533182 128.530111 
L 93.624976 128.398095 
L 93.752019 128.290082 
L 93.841233 128.170067 
L 93.949043 128.062053 
L 94.054376 127.882031 
L 94.240995 127.774018 
L 94.351209 127.642001 
L 94.454692 127.533988 
L 94.553439 127.449978 
L 94.738859 127.341964 
L 94.843862 127.197947 
L 94.948538 127.089933 
L 95.049643 126.98192 
L 95.155748 126.873907 
L 95.244116 126.753892 
L 95.340188 126.645878 
L 95.449986 126.477858 
L 95.521282 126.369844 
L 95.627192 126.213825 
L 95.739875 126.105812 
L 95.820942 125.973795 
L 95.958487 125.865782 
L 96.067908 125.697761 
L 96.165725 125.589748 
L 96.274844 125.469733 
L 96.415555 125.36172 
L 96.519155 125.169696 
L 96.718316 125.061683 
L 96.82905 124.965671 
L 96.904985 124.857658 
L 97.007099 124.737643 
L 97.07847 124.629629 
L 97.185482 124.461609 
L 97.275987 124.353595 
L 97.380298 124.137569 
L 97.503047 124.029555 
L 97.6138 123.861534 
L 97.679087 123.753521 
L 97.78235 123.573499 
L 97.885778 123.465486 
L 97.986452 123.321468 
L 98.055768 123.213454 
L 98.164019 123.069437 
L 98.298628 122.961423 
L 98.39633 122.781401 
L 98.535085 122.673388 
L 98.644716 122.553373 
L 98.746917 122.44536 
L 98.854444 122.241334 
L 98.898666 122.133321 
L 99.00839 121.893291 
L 99.082215 121.785278 
L 99.187591 121.521245 
L 99.297894 121.413232 
L 99.375348 121.305219 
L 99.468484 121.197205 
L 99.557288 121.077191 
L 99.641354 120.969177 
L 99.732226 120.75315 
L 99.882758 120.645137 
L 99.991596 120.477116 
L 100.13668 120.369103 
L 100.222194 120.237087 
L 100.327255 120.129073 
L 100.43368 119.961053 
L 100.526671 119.853039 
L 100.628937 119.685019 
L 100.778302 119.577005 
L 100.876422 119.432987 
L 100.971965 119.324974 
L 101.075844 119.204959 
L 101.184154 119.096946 
L 101.278464 118.952928 
L 101.389486 118.844915 
L 101.492536 118.700897 
L 101.61383 118.592884 
L 101.723031 118.460867 
L 101.845263 118.352854 
L 101.946946 118.220838 
L 101.998922 118.112824 
L 102.048551 118.040815 
L 102.195708 117.932802 
L 102.279932 117.83679 
L 102.419847 117.728777 
L 102.5106 117.620764 
L 102.625589 117.51275 
L 102.732262 117.332728 
L 102.790952 117.224715 
L 102.899601 116.972683 
L 103.036233 116.86467 
L 103.124193 116.732654 
L 103.253074 116.62464 
L 103.341799 116.492624 
L 103.446653 116.384611 
L 103.552586 116.120578 
L 103.61885 116.012565 
L 103.722244 115.856546 
L 103.809058 115.748532 
L 103.913187 115.628517 
L 103.941323 115.520504 
L 104.043363 115.364485 
L 104.118775 115.256471 
L 104.217734 115.136457 
L 104.344074 115.028443 
L 104.448418 114.872424 
L 104.535584 114.764411 
L 104.641159 114.608391 
L 104.732277 114.500378 
L 104.839844 114.368362 
L 104.897383 114.260348 
L 105.002288 114.128332 
L 105.046729 114.020319 
L 105.152605 113.840297 
L 105.225861 113.732283 
L 105.308682 113.576264 
L 105.42965 113.468251 
L 105.528181 113.372239 
L 105.722776 113.264225 
L 105.819129 113.072202 
L 105.920581 112.964188 
L 106.029285 112.82017 
L 106.082025 112.712157 
L 106.175143 112.568139 
L 106.293381 112.460126 
L 106.397067 112.196093 
L 106.523103 112.08808 
L 106.62071 112.028073 
L 106.729529 111.920059 
L 106.827272 111.716034 
L 106.970009 111.608021 
L 107.073135 111.415997 
L 107.161771 111.307984 
L 107.270403 111.139963 
L 107.368103 111.03195 
L 107.477649 110.863929 
L 107.554905 110.755915 
L 107.663821 110.575893 
L 107.745211 110.46788 
L 107.850847 110.251853 
L 107.933827 110.14384 
L 108.03766 110.023825 
L 108.131802 109.915812 
L 108.241006 109.771794 
L 108.326313 109.663781 
L 108.431299 109.507761 
L 108.551702 109.399748 
L 108.657258 109.231727 
L 108.728255 109.123714 
L 108.839079 108.943692 
L 108.912384 108.835678 
L 109.006079 108.643655 
L 109.08299 108.535641 
L 109.188276 108.319615 
L 109.298106 108.211601 
L 109.408827 107.971572 
L 109.495087 107.863558 
L 109.593031 107.695537 
L 109.670684 107.587524 
L 109.753379 107.443506 
L 109.866556 107.335493 
L 109.956924 107.263484 
L 110.102708 107.155471 
L 110.213463 106.951446 
L 110.297876 106.843432 
L 110.408763 106.675411 
L 110.511497 106.567398 
L 110.59089 106.447383 
L 110.745535 106.33937 
L 110.845657 106.219355 
L 110.957895 106.111342 
L 111.06091 105.991327 
L 111.156923 105.883314 
L 111.262666 105.703291 
L 111.318461 105.595278 
L 111.42883 105.45126 
L 111.495746 105.343247 
L 111.600922 105.259236 
L 111.759922 105.151223 
L 111.850618 104.935196 
L 111.999728 104.827183 
L 112.105407 104.635159 
L 112.206672 104.527146 
L 112.315504 104.419133 
L 112.390234 104.311119 
L 112.497133 104.047087 
L 112.607742 103.939073 
L 112.715799 103.795056 
L 112.796648 103.687042 
L 112.902056 103.531023 
L 112.984022 103.42301 
L 113.09431 103.230986 
L 113.1861 103.122973 
L 113.294869 102.906946 
L 113.326657 102.798933 
L 113.424106 102.594907 
L 113.523999 102.486894 
L 113.63326 102.270867 
L 113.71126 102.162854 
L 113.819962 101.982832 
L 113.909137 101.874818 
L 114.01749 101.718799 
L 114.053135 101.610786 
L 114.163355 101.394759 
L 114.253994 101.286746 
L 114.361075 101.106723 
L 114.407642 100.99871 
L 114.51306 100.710675 
L 114.565301 100.602661 
L 114.675485 100.446642 
L 114.747366 100.338629 
L 114.829589 100.242617 
L 114.91259 100.134603 
L 115.020726 99.966583 
L 115.118658 99.858569 
L 115.197647 99.726553 
L 115.334959 99.61854 
L 115.425814 99.486523 
L 115.530153 99.37851 
L 115.630978 99.210489 
L 115.749062 99.102476 
L 115.857953 98.958458 
L 115.971773 98.850445 
L 116.080742 98.694426 
L 116.182222 98.586412 
L 116.291662 98.358384 
L 116.376025 98.250371 
L 116.482828 98.094351 
L 116.611729 97.986338 
L 116.720771 97.854322 
L 116.830616 97.746308 
L 116.938383 97.638295 
L 117.030417 97.530282 
L 117.118853 97.410267 
L 117.237044 97.302254 
L 117.345131 97.122231 
L 117.49334 97.014218 
L 117.583255 96.858199 
L 117.696172 96.750185 
L 117.802324 96.558162 
L 117.890182 96.450148 
L 117.992842 96.22212 
L 118.046039 96.114107 
L 118.155056 95.934085 
L 118.243466 95.826071 
L 118.353184 95.670052 
L 118.448481 95.562039 
L 118.550232 95.322009 
L 118.656331 95.213996 
L 118.7668 95.045975 
L 118.878932 94.937961 
L 118.977987 94.805945 
L 119.050016 94.697932 
L 119.148064 94.577917 
L 119.241476 94.469904 
L 119.350228 94.253877 
L 119.436625 94.145864 
L 119.527666 94.073855 
L 119.661942 93.965841 
L 119.767984 93.809822 
L 119.845648 93.701809 
L 119.943168 93.449778 
L 120.02847 93.341764 
L 120.128049 93.161742 
L 120.263362 93.053729 
L 120.364745 92.873706 
L 120.450882 92.765693 
L 120.544914 92.597672 
L 120.620347 92.489659 
L 120.72899 92.261631 
L 120.785453 92.153617 
L 120.874101 92.069607 
L 120.971025 91.961594 
L 121.074113 91.817576 
L 121.164344 91.709563 
L 121.275137 91.505537 
L 121.3443 91.397524 
L 121.423836 91.253506 
L 121.539963 91.145493 
L 121.647553 90.977472 
L 121.708352 90.869459 
L 121.806464 90.725441 
L 121.963449 90.617428 
L 122.067694 90.401401 
L 122.154718 90.293388 
L 122.265772 90.101364 
L 122.345075 89.993351 
L 122.448083 89.82533 
L 122.530405 89.717317 
L 122.633968 89.465285 
L 122.75069 89.357272 
L 122.859115 89.165248 
L 122.951226 89.057235 
L 123.058081 88.865211 
L 123.123699 88.757198 
L 123.234328 88.505167 
L 123.340494 88.397153 
L 123.442757 88.28914 
L 123.495085 88.181127 
L 123.605572 88.04911 
L 123.70904 87.941097 
L 123.817526 87.773076 
L 123.904646 87.665063 
L 124.003623 87.521045 
L 124.074806 87.413032 
L 124.169678 87.257013 
L 124.260794 87.148999 
L 124.368552 87.064989 
L 124.468011 86.956976 
L 124.576035 86.788955 
L 124.667215 86.680941 
L 124.75582 86.464915 
L 124.878293 86.356901 
L 124.98449 86.176879 
L 125.080491 86.068866 
L 125.184245 85.924848 
L 125.257538 85.816835 
L 125.367868 85.624811 
L 125.475549 85.516798 
L 125.581823 85.408784 
L 125.645161 85.300771 
L 125.753509 85.084744 
L 125.824862 84.976731 
L 125.927031 84.772706 
L 126.018659 84.664692 
L 126.125616 84.48467 
L 126.226679 84.376657 
L 126.32336 84.16063 
L 126.395585 84.052617 
L 126.490274 83.932602 
L 126.593302 83.824589 
L 126.695784 83.656568 
L 126.813994 83.548554 
L 126.923629 83.368532 
L 127.004361 83.260519 
L 127.082589 83.128503 
L 127.218777 83.020489 
L 127.321057 82.888473 
L 127.433164 82.78046 
L 127.535643 82.552431 
L 127.661974 82.444418 
L 127.76737 82.324403 
L 127.813079 82.21639 
L 127.909421 82.096375 
L 127.972349 81.988362 
L 128.078704 81.844344 
L 128.221171 81.736331 
L 128.331082 81.592313 
L 128.40647 81.484299 
L 128.509066 81.292276 
L 128.575491 81.184262 
L 128.682608 80.980237 
L 128.776459 80.872224 
L 128.8852 80.728206 
L 128.967257 80.620193 
L 129.070892 80.44017 
L 129.187097 80.332157 
L 129.296105 80.176138 
L 129.43497 80.068125 
L 129.543281 79.936108 
L 129.592613 79.828095 
L 129.70005 79.564062 
L 129.788241 79.456049 
L 129.8992 79.276027 
L 129.929915 79.168013 
L 130.029297 78.97599 
L 130.153798 78.867976 
L 130.25896 78.759963 
L 130.357623 78.65195 
L 130.449625 78.519933 
L 130.575321 78.41192 
L 130.685699 78.231898 
L 130.7673 78.123884 
L 130.85722 77.931861 
L 130.93076 77.823847 
L 131.037748 77.691831 
L 131.127049 77.583818 
L 131.198524 77.427798 
L 131.338324 77.319785 
L 131.444944 77.187769 
L 131.529992 77.079755 
L 131.627164 76.923736 
L 131.712342 76.815723 
L 131.813701 76.635701 
L 131.903099 76.527687 
L 132.007493 76.323662 
L 132.133222 76.215649 
L 132.244218 76.083632 
L 132.346042 75.975619 
L 132.449881 75.831601 
L 132.558135 75.723588 
L 132.666966 75.507561 
L 132.792696 75.399548 
L 132.896331 75.207524 
L 132.9902 75.099511 
L 133.097444 74.955493 
L 133.174506 74.84748 
L 133.275588 74.655456 
L 133.379456 74.547443 
L 133.486308 74.295411 
L 133.589423 74.187398 
L 133.697115 74.019377 
L 133.765644 73.911364 
L 133.868713 73.743343 
L 133.973763 73.63533 
L 134.064703 73.467309 
L 134.192379 73.359296 
L 134.280831 73.263284 
L 134.417768 73.155271 
L 134.515964 72.963247 
L 134.615007 72.855234 
L 134.707227 72.735219 
L 134.812083 72.627205 
L 134.918898 72.399177 
L 135.05011 72.291164 
L 135.154128 72.159148 
L 135.219077 72.051134 
L 135.329082 71.799103 
L 135.439215 71.69109 
L 135.54334 71.547072 
L 135.58688 71.439059 
L 135.691197 71.21103 
L 135.802288 71.103017 
L 135.892783 70.958999 
L 136.007004 70.850986 
L 136.115994 70.598955 
L 136.206878 70.490941 
L 136.311633 70.358925 
L 136.393129 70.250912 
L 136.502621 70.130897 
L 136.592235 70.022884 
L 136.701186 69.878866 
L 136.772416 69.770852 
L 136.879089 69.542824 
L 136.994361 69.434811 
L 137.100643 69.194781 
L 137.154216 69.086768 
L 137.254897 68.822735 
L 137.305398 68.714722 
L 137.414275 68.546701 
L 137.46518 68.438688 
L 137.572862 68.306672 
L 137.672937 68.198658 
L 137.781292 68.006635 
L 137.945323 67.898621 
L 138.05382 67.742602 
L 138.107394 67.634589 
L 138.218118 67.490571 
L 138.265987 67.382557 
L 138.36984 67.226538 
L 138.445874 67.118525 
L 138.555712 66.962506 
L 138.629285 66.854492 
L 138.734399 66.710474 
L 138.813674 66.602461 
L 138.924566 66.446442 
L 139.044906 66.338428 
L 139.155085 66.170408 
L 139.267105 66.062394 
L 139.375679 65.846368 
L 139.429096 65.738354 
L 139.527065 65.570334 
L 139.638731 65.46232 
L 139.728027 65.366308 
L 139.836728 65.258295 
L 139.943232 65.018265 
L 140.003299 64.910252 
L 140.108275 64.742231 
L 140.164033 64.634218 
L 140.271403 64.454196 
L 140.385323 64.346182 
L 140.492593 64.142157 
L 140.534472 64.034144 
L 140.639106 63.878125 
L 140.762944 63.770111 
L 140.866955 63.60209 
L 140.976722 63.494077 
L 141.086493 63.362061 
L 141.16233 63.254047 
L 141.265103 63.086027 
L 141.343297 62.978013 
L 141.451972 62.749985 
L 141.490596 62.641972 
L 141.57285 62.473951 
L 141.692503 62.365938 
L 141.80163 62.149911 
L 141.919435 62.041898 
L 142.027442 61.909881 
L 142.123363 61.801868 
L 142.222421 61.65785 
L 142.284836 61.549837 
L 142.395313 61.393818 
L 142.487796 61.285804 
L 142.59498 61.057776 
L 142.662171 60.949763 
L 142.768773 60.733736 
L 142.829354 60.625723 
L 142.935698 60.505708 
L 143.021596 60.397695 
L 143.131115 60.241675 
L 143.211323 60.133662 
L 143.309403 59.977643 
L 143.392235 59.869629 
L 143.499298 59.677606 
L 143.568057 59.569592 
L 143.674444 59.413573 
L 143.728184 59.30556 
L 143.837959 59.089533 
L 143.889058 58.98152 
L 143.999582 58.837502 
L 144.092665 58.729489 
L 144.201023 58.585471 
L 144.249454 58.477457 
L 144.349909 58.261431 
L 144.439566 58.153417 
L 144.546854 57.973395 
L 144.619821 57.865382 
L 144.727121 57.565345 
L 144.802058 57.457331 
L 144.902575 57.253306 
L 144.979698 57.145293 
L 145.070249 56.977272 
L 145.203317 56.869259 
L 145.292533 56.785248 
L 145.435523 56.677235 
L 145.515272 56.509214 
L 145.608462 56.401201 
L 145.703716 56.341193 
L 145.827706 56.23318 
L 145.93665 56.065159 
L 146.043844 55.957146 
L 146.152562 55.801127 
L 146.29619 55.693113 
L 146.405339 55.489088 
L 146.487494 55.381075 
L 146.597881 55.129044 
L 146.717634 55.02103 
L 146.823086 54.877013 
L 146.855432 54.768999 
L 146.966482 54.576976 
L 147.12074 54.468962 
L 147.228515 54.28894 
L 147.316211 54.180927 
L 147.425532 53.988903 
L 147.498387 53.88089 
L 147.60894 53.712869 
L 147.655383 53.604855 
L 147.756597 53.352824 
L 147.801965 53.244811 
L 147.907404 53.040786 
L 147.995 52.932772 
L 148.103791 52.740749 
L 148.17137 52.632735 
L 148.26923 52.464715 
L 148.353591 52.356701 
L 148.463581 52.164678 
L 148.534779 52.056664 
L 148.636997 51.720623 
L 148.70707 51.612609 
L 148.815984 51.480593 
L 148.901207 51.37258 
L 149.002458 51.228562 
L 149.069088 51.120549 
L 149.165577 50.964529 
L 149.30079 50.856516 
L 149.411058 50.616486 
L 149.48974 50.508473 
L 149.594592 50.352454 
L 149.652032 50.24444 
L 149.756971 49.980408 
L 149.799162 49.872394 
L 149.910172 49.680371 
L 150.018375 49.572357 
L 150.12804 49.51235 
L 150.262326 49.404337 
L 150.370981 49.212313 
L 150.445777 49.104299 
L 150.518158 49.020289 
L 150.610437 48.912276 
L 150.708503 48.756256 
L 150.831737 48.648243 
L 150.926456 48.396212 
L 151.01053 48.288199 
L 151.120285 48.156182 
L 151.198278 48.048169 
L 151.289656 47.856145 
L 151.366968 47.748132 
L 151.475776 47.544107 
L 151.550503 47.436093 
L 151.660354 47.256071 
L 151.761795 47.148058 
L 151.864695 46.908028 
L 151.965552 46.800015 
L 152.055768 46.583988 
L 152.14879 46.475975 
L 152.255113 46.27195 
L 152.321531 46.163936 
L 152.430345 45.983914 
L 152.501722 45.875901 
L 152.601188 45.719881 
L 152.707534 45.611868 
L 152.816086 45.443847 
L 152.913035 45.335834 
L 153.021271 45.107806 
L 153.093981 44.999792 
L 153.200888 44.843773 
L 153.262887 44.73576 
L 153.357832 44.663751 
L 153.461026 44.555738 
L 153.566751 44.339711 
L 153.660037 44.231698 
L 153.76948 43.955663 
L 153.859513 43.84765 
L 153.964264 43.619622 
L 154.047861 43.511609 
L 154.154966 43.415597 
L 154.236057 43.307583 
L 154.346694 43.055552 
L 154.400706 42.947539 
L 154.509144 42.803521 
L 154.590714 42.695508 
L 154.690262 42.491483 
L 154.85874 42.383469 
L 154.957785 42.239451 
L 155.05212 42.131438 
L 155.159249 42.023425 
L 155.25952 41.915411 
L 155.363275 41.735389 
L 155.485008 41.627376 
L 155.595162 41.447354 
L 155.699733 41.33934 
L 155.800757 41.123314 
L 155.892469 41.0153 
L 155.987046 40.787272 
L 156.091422 40.679259 
L 156.19808 40.487235 
L 156.296756 40.379222 
L 156.402673 40.139192 
L 156.466444 40.031179 
L 156.571354 39.863158 
L 156.639638 39.755145 
L 156.736764 39.659133 
L 156.862236 39.551119 
L 156.938627 39.455107 
L 157.11297 39.347094 
L 157.21806 39.143069 
L 157.29064 39.035056 
L 157.395535 38.783024 
L 157.534373 38.675011 
L 157.60183 38.542995 
L 157.71924 38.434981 
L 157.814702 38.290964 
L 157.910104 38.18295 
L 158.008917 38.062936 
L 158.10781 37.954922 
L 158.215332 37.762898 
L 158.280669 37.654885 
L 158.379744 37.522869 
L 158.45345 37.414855 
L 158.539323 37.258836 
L 158.694472 37.150823 
L 158.785088 37.102817 
L 158.847579 36.994804 
L 158.941379 36.814781 
L 159.039257 36.706768 
L 159.148143 36.574752 
L 159.208845 36.466738 
L 159.317417 36.262713 
L 159.415312 36.1547 
L 159.51629 35.998681 
L 159.561067 35.890667 
L 159.662793 35.698643 
L 159.764231 35.59063 
L 159.870999 35.290593 
L 159.935913 35.18258 
L 160.037731 35.074566 
L 160.177931 34.966553 
L 160.286957 34.798532 
L 160.440429 34.690519 
L 160.545473 34.522498 
L 160.628046 34.414485 
L 160.708437 34.330474 
L 160.836225 34.222461 
L 160.931756 34.078443 
L 161.085442 33.97043 
L 161.180166 33.802409 
L 161.25487 33.694396 
L 161.35473 33.550378 
L 161.446624 33.442365 
L 161.550208 33.250341 
L 161.637364 33.142328 
L 161.736223 32.99831 
L 161.82899 32.890297 
L 161.927156 32.770282 
L 162.042924 32.662268 
L 162.13811 32.566256 
L 162.232558 32.458243 
L 162.34335 32.326227 
L 162.435714 32.218213 
L 162.533807 32.062194 
L 162.634889 31.954181 
L 162.695216 31.846168 
L 162.818134 31.738154 
L 162.918069 31.582135 
L 163.018226 31.474122 
L 163.103143 31.354107 
L 163.196367 31.246093 
L 163.301261 31.090074 
L 163.416107 30.982061 
L 163.520649 30.850044 
L 163.606664 30.742031 
L 163.712279 30.634018 
L 163.77457 30.526004 
L 163.88409 30.381987 
L 163.977668 30.273973 
L 164.0833 30.093951 
L 164.14623 29.985938 
L 164.250947 29.865923 
L 164.338574 29.75791 
L 164.447652 29.613892 
L 164.511834 29.505878 
L 164.59762 29.385864 
L 164.738425 29.27785 
L 164.83503 29.10983 
L 164.891844 29.001816 
L 165.002202 28.857798 
L 165.10684 28.749785 
L 165.216425 28.605767 
L 165.31465 28.497754 
L 165.423249 28.389741 
L 165.534019 28.281727 
L 165.64067 28.173714 
L 165.753359 28.065701 
L 165.856062 27.945686 
L 165.980004 27.837672 
L 166.081653 27.609644 
L 166.168885 27.501631 
L 166.264835 27.381616 
L 166.389341 27.273603 
L 166.496007 27.189592 
L 166.548071 27.081579 
L 166.642115 26.973566 
L 166.766183 26.865552 
L 166.872388 26.721534 
L 166.96617 26.613521 
L 167.06312 26.469503 
L 167.139418 26.36149 
L 167.24272 26.097457 
L 167.349429 25.989444 
L 167.439046 25.857428 
L 167.545364 25.749414 
L 167.649956 25.6294 
L 167.766404 25.521386 
L 167.870017 25.281357 
L 167.967485 25.173343 
L 168.072511 24.993321 
L 168.149279 24.885308 
L 168.242141 24.813299 
L 168.354316 24.705285 
L 168.459272 24.585271 
L 168.595138 24.477257 
L 168.704964 24.429251 
L 168.809664 24.321238 
L 168.910051 24.141216 
L 169.112398 24.033202 
L 169.211884 23.913188 
L 169.410169 23.805174 
L 169.515812 23.661156 
L 169.623046 23.553143 
L 169.727909 23.433128 
L 169.878115 23.325115 
L 169.968187 23.2051 
L 170.170312 23.097087 
L 170.264203 23.001075 
L 170.413903 22.893062 
L 170.506575 22.749044 
L 170.588839 22.64103 
L 170.693456 22.509014 
L 170.846498 22.401001 
L 170.951774 22.23298 
L 171.06522 22.124967 
L 171.171934 22.004952 
L 171.311751 21.896938 
L 171.416906 21.740919 
L 171.638127 21.632906 
L 171.748417 21.488888 
L 171.888206 21.380875 
L 171.967139 21.308866 
L 172.101843 21.200852 
L 172.212229 21.104841 
L 172.368767 20.996827 
L 172.453679 20.852809 
L 172.57957 20.744796 
L 172.687753 20.600778 
L 172.867905 20.492765 
L 172.962909 20.396753 
L 173.15876 20.28874 
L 173.220771 20.216731 
L 173.490988 20.108718 
L 173.593671 20.000704 
L 173.666825 19.892691 
L 173.724919 19.748673 
L 173.922403 19.64066 
L 173.989042 19.592654 
L 174.281442 19.48464 
L 174.390914 19.376627 
L 174.577168 19.268614 
L 174.622937 19.244611 
L 174.839124 19.136597 
L 174.917722 19.088592 
L 175.083235 18.980578 
L 175.182303 18.812557 
L 175.392894 18.704544 
L 175.482507 18.632535 
L 175.651388 18.524522 
L 175.732305 18.452513 
L 175.995374 18.3445 
L 176.089071 18.18848 
L 176.217634 18.080467 
L 176.323048 17.996457 
L 176.515683 17.888443 
L 176.602924 17.816434 
L 176.782644 17.708421 
L 176.867957 17.684418 
L 177.026066 17.576405 
L 177.09171 17.468391 
L 177.30997 17.360378 
L 177.382723 17.300371 
L 177.666401 17.192357 
L 177.763638 17.13235 
L 177.990825 17.024337 
L 178.065984 16.940326 
L 178.372384 16.832313 
L 178.46358 16.748302 
L 179.046204 16.640289 
L 179.130338 16.592283 
L 179.355825 16.48427 
L 179.453682 16.436264 
L 179.72215 16.328251 
L 179.824181 16.220237 
L 180.120504 16.112224 
L 180.212429 16.052216 
L 180.409628 15.944203 
L 180.503305 15.908199 
L 180.966584 15.800185 
L 181.056513 15.740178 
L 181.434747 15.632165 
L 181.522935 15.584159 
L 182.016215 15.476145 
L 182.071215 15.452142 
L 182.508592 15.344129 
L 182.594369 15.308125 
L 182.939013 15.200111 
L 182.973259 15.176108 
L 183.600391 15.068095 
L 183.675788 15.044092 
L 184.307263 14.936079 
L 184.406033 14.912076 
L 185.290062 14.804062 
L 185.393217 14.756056 
L 185.939771 14.648043 
L 185.939771 14.636042 
L 186.992291 14.528028 
L 186.992291 14.516027 
L 189.847324 14.408013 
L 189.847324 14.396012 
L 194.961023 14.312001 
L 194.961023 14.3 
" style="fill:none;stroke:#1f77b4;stroke-linecap:square;stroke-width:1.5;"/>
   </g>
   <g id="patch_3">
    <path d="M 44.675 176.2 
L 44.675 14.3 
" style="fill:none;stroke:#000000;stroke-linecap:square;stroke-linejoin:miter;stroke-width:0.8;"/>
   </g>
   <g id="patch_4">
    <path d="M 44.675 176.2 
L 202.1175 176.2 
" style="fill:none;stroke:#000000;stroke-linecap:square;stroke-linejoin:miter;stroke-width:0.8;"/>
   </g>
  </g>
  <g id="legend_1">
   <g id="text_12">
    <!-- coenzyme_residue -->
    <g transform="translate(215.320312 96.38125)scale(0.1 -0.1)">
     <defs>
      <path d="M 40.4375 19 
L 49.078125 17.875 
Q 47.65625 8.9375 41.8125 3.875 
Q 35.984375 -1.171875 27.484375 -1.171875 
Q 16.84375 -1.171875 10.375 5.78125 
Q 3.90625 12.75 3.90625 25.734375 
Q 3.90625 34.125 6.6875 40.421875 
Q 9.46875 46.734375 15.15625 49.875 
Q 20.84375 53.03125 27.546875 53.03125 
Q 35.984375 53.03125 41.359375 48.75 
Q 46.734375 44.484375 48.25 36.625 
L 39.703125 35.296875 
Q 38.484375 40.53125 35.375 43.15625 
Q 32.28125 45.796875 27.875 45.796875 
Q 21.234375 45.796875 17.078125 41.03125 
Q 12.9375 36.28125 12.9375 25.984375 
Q 12.9375 15.53125 16.9375 10.796875 
Q 20.953125 6.0625 27.390625 6.0625 
Q 32.5625 6.0625 36.03125 9.234375 
Q 39.5 12.40625 40.4375 19 
z
" id="ArialMT-99"/>
      <path d="M 1.953125 0 
L 1.953125 7.125 
L 34.96875 45.015625 
Q 29.34375 44.734375 25.046875 44.734375 
L 3.90625 44.734375 
L 3.90625 51.859375 
L 46.296875 51.859375 
L 46.296875 46.046875 
L 18.21875 13.140625 
L 12.796875 7.125 
Q 18.703125 7.5625 23.875 7.5625 
L 47.859375 7.5625 
L 47.859375 0 
z
" id="ArialMT-122"/>
      <path d="M 6.59375 0 
L 6.59375 51.859375 
L 14.453125 51.859375 
L 14.453125 44.578125 
Q 16.890625 48.390625 20.9375 50.703125 
Q 25 53.03125 30.171875 53.03125 
Q 35.9375 53.03125 39.625 50.640625 
Q 43.3125 48.25 44.828125 43.953125 
Q 50.984375 53.03125 60.84375 53.03125 
Q 68.5625 53.03125 72.703125 48.75 
Q 76.859375 44.484375 76.859375 35.59375 
L 76.859375 0 
L 68.109375 0 
L 68.109375 32.671875 
Q 68.109375 37.9375 67.25 40.25 
Q 66.40625 42.578125 64.15625 43.984375 
Q 61.921875 45.40625 58.890625 45.40625 
Q 53.421875 45.40625 49.796875 41.765625 
Q 46.1875 38.140625 46.1875 30.125 
L 46.1875 0 
L 37.40625 0 
L 37.40625 33.6875 
Q 37.40625 39.546875 35.25 42.46875 
Q 33.109375 45.40625 28.21875 45.40625 
Q 24.515625 45.40625 21.359375 43.453125 
Q 18.21875 41.5 16.796875 37.734375 
Q 15.375 33.984375 15.375 26.90625 
L 15.375 0 
z
" id="ArialMT-109"/>
      <path d="M -1.515625 -19.875 
L -1.515625 -13.53125 
L 56.734375 -13.53125 
L 56.734375 -19.875 
z
" id="ArialMT-95"/>
      <path d="M 3.078125 15.484375 
L 11.765625 16.84375 
Q 12.5 11.625 15.84375 8.84375 
Q 19.1875 6.0625 25.203125 6.0625 
Q 31.25 6.0625 34.171875 8.515625 
Q 37.109375 10.984375 37.109375 14.3125 
Q 37.109375 17.28125 34.515625 19 
Q 32.71875 20.171875 25.53125 21.96875 
Q 15.875 24.421875 12.140625 26.203125 
Q 8.40625 27.984375 6.46875 31.125 
Q 4.546875 34.28125 4.546875 38.09375 
Q 4.546875 41.546875 6.125 44.5 
Q 7.71875 47.46875 10.453125 49.421875 
Q 12.5 50.921875 16.03125 51.96875 
Q 19.578125 53.03125 23.640625 53.03125 
Q 29.734375 53.03125 34.34375 51.265625 
Q 38.96875 49.515625 41.15625 46.5 
Q 43.359375 43.5 44.1875 38.484375 
L 35.59375 37.3125 
Q 35.015625 41.3125 32.203125 43.546875 
Q 29.390625 45.796875 24.265625 45.796875 
Q 18.21875 45.796875 15.625 43.796875 
Q 13.03125 41.796875 13.03125 39.109375 
Q 13.03125 37.40625 14.109375 36.03125 
Q 15.1875 34.625 17.484375 33.6875 
Q 18.796875 33.203125 25.25 31.453125 
Q 34.578125 28.953125 38.25 27.359375 
Q 41.9375 25.78125 44.03125 22.75 
Q 46.140625 19.734375 46.140625 15.234375 
Q 46.140625 10.84375 43.578125 6.953125 
Q 41.015625 3.078125 36.171875 0.953125 
Q 31.34375 -1.171875 25.25 -1.171875 
Q 15.140625 -1.171875 9.84375 3.03125 
Q 4.546875 7.234375 3.078125 15.484375 
z
" id="ArialMT-115"/>
      <path d="M 40.234375 0 
L 40.234375 6.546875 
Q 35.296875 -1.171875 25.734375 -1.171875 
Q 19.53125 -1.171875 14.328125 2.25 
Q 9.125 5.671875 6.265625 11.796875 
Q 3.421875 17.921875 3.421875 25.875 
Q 3.421875 33.640625 6 39.96875 
Q 8.59375 46.296875 13.765625 49.65625 
Q 18.953125 53.03125 25.34375 53.03125 
Q 30.03125 53.03125 33.6875 51.046875 
Q 37.359375 49.078125 39.65625 45.90625 
L 39.65625 71.578125 
L 48.390625 71.578125 
L 48.390625 0 
z
M 12.453125 25.875 
Q 12.453125 15.921875 16.640625 10.984375 
Q 20.84375 6.0625 26.5625 6.0625 
Q 32.328125 6.0625 36.34375 10.765625 
Q 40.375 15.484375 40.375 25.140625 
Q 40.375 35.796875 36.265625 40.765625 
Q 32.171875 45.75 26.171875 45.75 
Q 20.3125 45.75 16.375 40.96875 
Q 12.453125 36.1875 12.453125 25.875 
z
" id="ArialMT-100"/>
      <path d="M 40.578125 0 
L 40.578125 7.625 
Q 34.515625 -1.171875 24.125 -1.171875 
Q 19.53125 -1.171875 15.546875 0.578125 
Q 11.578125 2.34375 9.640625 5 
Q 7.71875 7.671875 6.9375 11.53125 
Q 6.390625 14.109375 6.390625 19.734375 
L 6.390625 51.859375 
L 15.1875 51.859375 
L 15.1875 23.09375 
Q 15.1875 16.21875 15.71875 13.8125 
Q 16.546875 10.359375 19.234375 8.375 
Q 21.921875 6.390625 25.875 6.390625 
Q 29.828125 6.390625 33.296875 8.421875 
Q 36.765625 10.453125 38.203125 13.9375 
Q 39.65625 17.4375 39.65625 24.078125 
L 39.65625 51.859375 
L 48.4375 51.859375 
L 48.4375 0 
z
" id="ArialMT-117"/>
     </defs>
     <use xlink:href="#ArialMT-99"/>
     <use x="50" xlink:href="#ArialMT-111"/>
     <use x="105.615234" xlink:href="#ArialMT-101"/>
     <use x="161.230469" xlink:href="#ArialMT-110"/>
     <use x="216.845703" xlink:href="#ArialMT-122"/>
     <use x="266.845703" xlink:href="#ArialMT-121"/>
     <use x="316.845703" xlink:href="#ArialMT-109"/>
     <use x="400.146484" xlink:href="#ArialMT-101"/>
     <use x="455.761719" xlink:href="#ArialMT-95"/>
     <use x="511.376953" xlink:href="#ArialMT-114"/>
     <use x="544.677734" xlink:href="#ArialMT-101"/>
     <use x="600.292969" xlink:href="#ArialMT-115"/>
     <use x="650.292969" xlink:href="#ArialMT-105"/>
     <use x="672.509766" xlink:href="#ArialMT-100"/>
     <use x="728.125" xlink:href="#ArialMT-117"/>
     <use x="783.740234" xlink:href="#ArialMT-101"/>
    </g>
   </g>
   <g id="line2d_12">
    <path d="M 231.059375 107.14375 
L 251.059375 107.14375 
" style="fill:none;stroke:#1f77b4;stroke-linecap:square;stroke-width:1.5;"/>
   </g>
   <g id="line2d_13"/>
   <g id="text_13">
    <!-- False -->
    <g transform="translate(259.059375 110.64375)scale(0.1 -0.1)">
     <defs>
      <path d="M 8.203125 0 
L 8.203125 71.578125 
L 56.5 71.578125 
L 56.5 63.140625 
L 17.671875 63.140625 
L 17.671875 40.96875 
L 51.265625 40.96875 
L 51.265625 32.515625 
L 17.671875 32.515625 
L 17.671875 0 
z
" id="ArialMT-70"/>
      <path d="M 40.4375 6.390625 
Q 35.546875 2.25 31.03125 0.53125 
Q 26.515625 -1.171875 21.34375 -1.171875 
Q 12.796875 -1.171875 8.203125 3 
Q 3.609375 7.171875 3.609375 13.671875 
Q 3.609375 17.484375 5.34375 20.625 
Q 7.078125 23.78125 9.890625 25.6875 
Q 12.703125 27.59375 16.21875 28.5625 
Q 18.796875 29.25 24.03125 29.890625 
Q 34.671875 31.15625 39.703125 32.90625 
Q 39.75 34.71875 39.75 35.203125 
Q 39.75 40.578125 37.25 42.78125 
Q 33.890625 45.75 27.25 45.75 
Q 21.046875 45.75 18.09375 43.578125 
Q 15.140625 41.40625 13.71875 35.890625 
L 5.125 37.0625 
Q 6.296875 42.578125 8.984375 45.96875 
Q 11.671875 49.359375 16.75 51.1875 
Q 21.828125 53.03125 28.515625 53.03125 
Q 35.15625 53.03125 39.296875 51.46875 
Q 43.453125 49.90625 45.40625 47.53125 
Q 47.359375 45.171875 48.140625 41.546875 
Q 48.578125 39.3125 48.578125 33.453125 
L 48.578125 21.734375 
Q 48.578125 9.46875 49.140625 6.21875 
Q 49.703125 2.984375 51.375 0 
L 42.1875 0 
Q 40.828125 2.734375 40.4375 6.390625 
z
M 39.703125 26.03125 
Q 34.90625 24.078125 25.34375 22.703125 
Q 19.921875 21.921875 17.671875 20.9375 
Q 15.4375 19.96875 14.203125 18.09375 
Q 12.984375 16.21875 12.984375 13.921875 
Q 12.984375 10.40625 15.640625 8.0625 
Q 18.3125 5.71875 23.4375 5.71875 
Q 28.515625 5.71875 32.46875 7.9375 
Q 36.421875 10.15625 38.28125 14.015625 
Q 39.703125 17 39.703125 22.796875 
z
" id="ArialMT-97"/>
      <path d="M 6.390625 0 
L 6.390625 71.578125 
L 15.1875 71.578125 
L 15.1875 0 
z
" id="ArialMT-108"/>
     </defs>
     <use xlink:href="#ArialMT-70"/>
     <use x="61.083984" xlink:href="#ArialMT-97"/>
     <use x="116.699219" xlink:href="#ArialMT-108"/>
     <use x="138.916016" xlink:href="#ArialMT-115"/>
     <use x="188.916016" xlink:href="#ArialMT-101"/>
    </g>
   </g>
   <g id="line2d_14">
    <path d="M 231.059375 121.289062 
L 251.059375 121.289062 
" style="fill:none;stroke:#ff7f0e;stroke-linecap:square;stroke-width:1.5;"/>
   </g>
   <g id="line2d_15"/>
   <g id="text_14">
    <!-- True -->
    <g transform="translate(259.059375 124.789062)scale(0.1 -0.1)">
     <defs>
      <path d="M 25.921875 0 
L 25.921875 63.140625 
L 2.34375 63.140625 
L 2.34375 71.578125 
L 59.078125 71.578125 
L 59.078125 63.140625 
L 35.40625 63.140625 
L 35.40625 0 
z
" id="ArialMT-84"/>
     </defs>
     <use xlink:href="#ArialMT-84"/>
     <use x="57.333984" xlink:href="#ArialMT-114"/>
     <use x="90.634766" xlink:href="#ArialMT-117"/>
     <use x="146.25" xlink:href="#ArialMT-101"/>
    </g>
   </g>
  </g>
 </g>
 <defs>
  <clipPath id="p9f1e2636ac">
   <rect height="161.9" width="157.4425" x="44.675" y="14.3"/>
  </clipPath>
 </defs>
</svg>
