<?xml version="1.0" encoding="utf-8" standalone="no"?>
<!DOCTYPE svg PUBLIC "-//W3C//DTD SVG 1.1//EN"
  "http://www.w3.org/Graphics/SVG/1.1/DTD/svg11.dtd">
<!-- Created with matplotlib (https://matplotlib.org/) -->
<svg height="216pt" version="1.1" viewBox="0 0 281.75 216" width="281.75pt" xmlns="http://www.w3.org/2000/svg" xmlns:xlink="http://www.w3.org/1999/xlink">
 <metadata>
  <rdf:RDF xmlns:cc="http://creativecommons.org/ns#" xmlns:dc="http://purl.org/dc/elements/1.1/" xmlns:rdf="http://www.w3.org/1999/02/22-rdf-syntax-ns#">
   <cc:Work>
    <dc:type rdf:resource="http://purl.org/dc/dcmitype/StillImage"/>
    <dc:date>2021-11-29T19:35:04.780350</dc:date>
    <dc:format>image/svg+xml</dc:format>
    <dc:creator>
     <cc:Agent>
      <dc:title>Matplotlib v3.3.4, https://matplotlib.org/</dc:title>
     </cc:Agent>
    </dc:creator>
   </cc:Work>
  </rdf:RDF>
 </metadata>
 <defs>
  <style type="text/css">*{stroke-linecap:butt;stroke-linejoin:round;}</style>
 </defs>
 <g id="figure_1">
  <g id="patch_1">
   <path d="M 0 216 
L 281.75 216 
L 281.75 0 
L 0 0 
z
" style="fill:none;"/>
  </g>
  <g id="axes_1">
   <g id="patch_2">
    <path d="M 44.675 176.2 
L 202.3825 176.2 
L 202.3825 14.3 
L 44.675 14.3 
z
" style="fill:#ffffff;"/>
   </g>
   <g id="matplotlib.axis_1">
    <g id="xtick_1">
     <g id="line2d_1">
      <defs>
       <path d="M 0 0 
L 0 3.5 
" id="m750ee4657d" style="stroke:#000000;stroke-width:0.8;"/>
      </defs>
      <g>
       <use style="stroke:#000000;stroke-width:0.8;" x="44.675" xlink:href="#m750ee4657d" y="176.2"/>
      </g>
     </g>
     <g id="text_1">
      <!-- 0 -->
      <g transform="translate(41.894531 190.357812)scale(0.1 -0.1)">
       <defs>
        <path d="M 4.15625 35.296875 
Q 4.15625 48 6.765625 55.734375 
Q 9.375 63.484375 14.515625 67.671875 
Q 19.671875 71.875 27.484375 71.875 
Q 33.25 71.875 37.59375 69.546875 
Q 41.9375 67.234375 44.765625 62.859375 
Q 47.609375 58.5 49.21875 52.21875 
Q 50.828125 45.953125 50.828125 35.296875 
Q 50.828125 22.703125 48.234375 14.96875 
Q 45.65625 7.234375 40.5 3 
Q 35.359375 -1.21875 27.484375 -1.21875 
Q 17.140625 -1.21875 11.234375 6.203125 
Q 4.15625 15.140625 4.15625 35.296875 
z
M 13.1875 35.296875 
Q 13.1875 17.671875 17.3125 11.828125 
Q 21.4375 6 27.484375 6 
Q 33.546875 6 37.671875 11.859375 
Q 41.796875 17.71875 41.796875 35.296875 
Q 41.796875 52.984375 37.671875 58.78125 
Q 33.546875 64.59375 27.390625 64.59375 
Q 21.34375 64.59375 17.71875 59.46875 
Q 13.1875 52.9375 13.1875 35.296875 
z
" id="ArialMT-48"/>
       </defs>
       <use xlink:href="#ArialMT-48"/>
      </g>
     </g>
    </g>
    <g id="xtick_2">
     <g id="line2d_2">
      <g>
       <use style="stroke:#000000;stroke-width:0.8;" x="79.721111" xlink:href="#m750ee4657d" y="176.2"/>
      </g>
     </g>
     <g id="text_2">
      <!-- 1 -->
      <g transform="translate(76.940642 190.357812)scale(0.1 -0.1)">
       <defs>
        <path d="M 37.25 0 
L 28.46875 0 
L 28.46875 56 
Q 25.296875 52.984375 20.140625 49.953125 
Q 14.984375 46.921875 10.890625 45.40625 
L 10.890625 53.90625 
Q 18.265625 57.375 23.78125 62.296875 
Q 29.296875 67.234375 31.59375 71.875 
L 37.25 71.875 
z
" id="ArialMT-49"/>
       </defs>
       <use xlink:href="#ArialMT-49"/>
      </g>
     </g>
    </g>
    <g id="xtick_3">
     <g id="line2d_3">
      <g>
       <use style="stroke:#000000;stroke-width:0.8;" x="114.767222" xlink:href="#m750ee4657d" y="176.2"/>
      </g>
     </g>
     <g id="text_3">
      <!-- 2 -->
      <g transform="translate(111.986753 190.357812)scale(0.1 -0.1)">
       <defs>
        <path d="M 50.34375 8.453125 
L 50.34375 0 
L 3.03125 0 
Q 2.9375 3.171875 4.046875 6.109375 
Q 5.859375 10.9375 9.828125 15.625 
Q 13.8125 20.3125 21.34375 26.46875 
Q 33.015625 36.03125 37.109375 41.625 
Q 41.21875 47.21875 41.21875 52.203125 
Q 41.21875 57.421875 37.46875 61 
Q 33.734375 64.59375 27.734375 64.59375 
Q 21.390625 64.59375 17.578125 60.78125 
Q 13.765625 56.984375 13.71875 50.25 
L 4.6875 51.171875 
Q 5.609375 61.28125 11.65625 66.578125 
Q 17.71875 71.875 27.9375 71.875 
Q 38.234375 71.875 44.234375 66.15625 
Q 50.25 60.453125 50.25 52 
Q 50.25 47.703125 48.484375 43.546875 
Q 46.734375 39.40625 42.65625 34.8125 
Q 38.578125 30.21875 29.109375 22.21875 
Q 21.1875 15.578125 18.9375 13.203125 
Q 16.703125 10.84375 15.234375 8.453125 
z
" id="ArialMT-50"/>
       </defs>
       <use xlink:href="#ArialMT-50"/>
      </g>
     </g>
    </g>
    <g id="xtick_4">
     <g id="line2d_4">
      <g>
       <use style="stroke:#000000;stroke-width:0.8;" x="149.813333" xlink:href="#m750ee4657d" y="176.2"/>
      </g>
     </g>
     <g id="text_4">
      <!-- 3 -->
      <g transform="translate(147.032865 190.357812)scale(0.1 -0.1)">
       <defs>
        <path d="M 4.203125 18.890625 
L 12.984375 20.0625 
Q 14.5 12.59375 18.140625 9.296875 
Q 21.78125 6 27 6 
Q 33.203125 6 37.46875 10.296875 
Q 41.75 14.59375 41.75 20.953125 
Q 41.75 27 37.796875 30.921875 
Q 33.84375 34.859375 27.734375 34.859375 
Q 25.25 34.859375 21.53125 33.890625 
L 22.515625 41.609375 
Q 23.390625 41.5 23.921875 41.5 
Q 29.546875 41.5 34.03125 44.421875 
Q 38.53125 47.359375 38.53125 53.46875 
Q 38.53125 58.296875 35.25 61.46875 
Q 31.984375 64.65625 26.8125 64.65625 
Q 21.6875 64.65625 18.265625 61.421875 
Q 14.84375 58.203125 13.875 51.765625 
L 5.078125 53.328125 
Q 6.6875 62.15625 12.390625 67.015625 
Q 18.109375 71.875 26.609375 71.875 
Q 32.46875 71.875 37.390625 69.359375 
Q 42.328125 66.84375 44.9375 62.5 
Q 47.5625 58.15625 47.5625 53.265625 
Q 47.5625 48.640625 45.0625 44.828125 
Q 42.578125 41.015625 37.703125 38.765625 
Q 44.046875 37.3125 47.5625 32.6875 
Q 51.078125 28.078125 51.078125 21.140625 
Q 51.078125 11.765625 44.234375 5.25 
Q 37.40625 -1.265625 26.953125 -1.265625 
Q 17.53125 -1.265625 11.296875 4.34375 
Q 5.078125 9.96875 4.203125 18.890625 
z
" id="ArialMT-51"/>
       </defs>
       <use xlink:href="#ArialMT-51"/>
      </g>
     </g>
    </g>
    <g id="xtick_5">
     <g id="line2d_5">
      <g>
       <use style="stroke:#000000;stroke-width:0.8;" x="184.859444" xlink:href="#m750ee4657d" y="176.2"/>
      </g>
     </g>
     <g id="text_5">
      <!-- 4 -->
      <g transform="translate(182.078976 190.357812)scale(0.1 -0.1)">
       <defs>
        <path d="M 32.328125 0 
L 32.328125 17.140625 
L 1.265625 17.140625 
L 1.265625 25.203125 
L 33.9375 71.578125 
L 41.109375 71.578125 
L 41.109375 25.203125 
L 50.78125 25.203125 
L 50.78125 17.140625 
L 41.109375 17.140625 
L 41.109375 0 
z
M 32.328125 25.203125 
L 32.328125 57.46875 
L 9.90625 25.203125 
z
" id="ArialMT-52"/>
       </defs>
       <use xlink:href="#ArialMT-52"/>
      </g>
     </g>
    </g>
    <g id="text_6">
     <!-- Specificity -->
     <g transform="translate(101.021719 203.625)scale(0.1 -0.1)">
      <defs>
       <path d="M 4.5 23 
L 13.421875 23.78125 
Q 14.0625 18.40625 16.375 14.96875 
Q 18.703125 11.53125 23.578125 9.40625 
Q 28.46875 7.28125 34.578125 7.28125 
Q 39.984375 7.28125 44.140625 8.890625 
Q 48.296875 10.5 50.3125 13.296875 
Q 52.34375 16.109375 52.34375 19.4375 
Q 52.34375 22.796875 50.390625 25.3125 
Q 48.4375 27.828125 43.953125 29.546875 
Q 41.0625 30.671875 31.203125 33.03125 
Q 21.34375 35.40625 17.390625 37.5 
Q 12.25 40.1875 9.734375 44.15625 
Q 7.234375 48.140625 7.234375 53.078125 
Q 7.234375 58.5 10.296875 63.203125 
Q 13.375 67.921875 19.28125 70.359375 
Q 25.203125 72.796875 32.421875 72.796875 
Q 40.375 72.796875 46.453125 70.234375 
Q 52.546875 67.671875 55.8125 62.6875 
Q 59.078125 57.71875 59.328125 51.421875 
L 50.25 50.734375 
Q 49.515625 57.515625 45.28125 60.984375 
Q 41.0625 64.453125 32.8125 64.453125 
Q 24.21875 64.453125 20.28125 61.296875 
Q 16.359375 58.15625 16.359375 53.71875 
Q 16.359375 49.859375 19.140625 47.359375 
Q 21.875 44.875 33.421875 42.265625 
Q 44.96875 39.65625 49.265625 37.703125 
Q 55.515625 34.8125 58.484375 30.390625 
Q 61.46875 25.984375 61.46875 20.21875 
Q 61.46875 14.5 58.203125 9.4375 
Q 54.9375 4.390625 48.796875 1.578125 
Q 42.671875 -1.21875 35.015625 -1.21875 
Q 25.296875 -1.21875 18.71875 1.609375 
Q 12.15625 4.4375 8.421875 10.125 
Q 4.6875 15.828125 4.5 23 
z
" id="ArialMT-83"/>
       <path d="M 6.59375 -19.875 
L 6.59375 51.859375 
L 14.59375 51.859375 
L 14.59375 45.125 
Q 17.4375 49.078125 21 51.046875 
Q 24.5625 53.03125 29.640625 53.03125 
Q 36.28125 53.03125 41.359375 49.609375 
Q 46.4375 46.1875 49.015625 39.953125 
Q 51.609375 33.734375 51.609375 26.3125 
Q 51.609375 18.359375 48.75 11.984375 
Q 45.90625 5.609375 40.453125 2.21875 
Q 35.015625 -1.171875 29 -1.171875 
Q 24.609375 -1.171875 21.109375 0.6875 
Q 17.625 2.546875 15.375 5.375 
L 15.375 -19.875 
z
M 14.546875 25.640625 
Q 14.546875 15.625 18.59375 10.84375 
Q 22.65625 6.0625 28.421875 6.0625 
Q 34.28125 6.0625 38.453125 11.015625 
Q 42.625 15.96875 42.625 26.375 
Q 42.625 36.28125 38.546875 41.203125 
Q 34.46875 46.140625 28.8125 46.140625 
Q 23.1875 46.140625 18.859375 40.890625 
Q 14.546875 35.640625 14.546875 25.640625 
z
" id="ArialMT-112"/>
       <path d="M 42.09375 16.703125 
L 51.171875 15.578125 
Q 49.03125 7.625 43.21875 3.21875 
Q 37.40625 -1.171875 28.375 -1.171875 
Q 17 -1.171875 10.328125 5.828125 
Q 3.65625 12.84375 3.65625 25.484375 
Q 3.65625 38.578125 10.390625 45.796875 
Q 17.140625 53.03125 27.875 53.03125 
Q 38.28125 53.03125 44.875 45.953125 
Q 51.46875 38.875 51.46875 26.03125 
Q 51.46875 25.25 51.421875 23.6875 
L 12.75 23.6875 
Q 13.234375 15.140625 17.578125 10.59375 
Q 21.921875 6.0625 28.421875 6.0625 
Q 33.25 6.0625 36.671875 8.59375 
Q 40.09375 11.140625 42.09375 16.703125 
z
M 13.234375 30.90625 
L 42.1875 30.90625 
Q 41.609375 37.453125 38.875 40.71875 
Q 34.671875 45.796875 27.984375 45.796875 
Q 21.921875 45.796875 17.796875 41.75 
Q 13.671875 37.703125 13.234375 30.90625 
z
" id="ArialMT-101"/>
       <path d="M 40.4375 19 
L 49.078125 17.875 
Q 47.65625 8.9375 41.8125 3.875 
Q 35.984375 -1.171875 27.484375 -1.171875 
Q 16.84375 -1.171875 10.375 5.78125 
Q 3.90625 12.75 3.90625 25.734375 
Q 3.90625 34.125 6.6875 40.421875 
Q 9.46875 46.734375 15.15625 49.875 
Q 20.84375 53.03125 27.546875 53.03125 
Q 35.984375 53.03125 41.359375 48.75 
Q 46.734375 44.484375 48.25 36.625 
L 39.703125 35.296875 
Q 38.484375 40.53125 35.375 43.15625 
Q 32.28125 45.796875 27.875 45.796875 
Q 21.234375 45.796875 17.078125 41.03125 
Q 12.9375 36.28125 12.9375 25.984375 
Q 12.9375 15.53125 16.9375 10.796875 
Q 20.953125 6.0625 27.390625 6.0625 
Q 32.5625 6.0625 36.03125 9.234375 
Q 39.5 12.40625 40.4375 19 
z
" id="ArialMT-99"/>
       <path d="M 6.640625 61.46875 
L 6.640625 71.578125 
L 15.4375 71.578125 
L 15.4375 61.46875 
z
M 6.640625 0 
L 6.640625 51.859375 
L 15.4375 51.859375 
L 15.4375 0 
z
" id="ArialMT-105"/>
       <path d="M 8.6875 0 
L 8.6875 45.015625 
L 0.921875 45.015625 
L 0.921875 51.859375 
L 8.6875 51.859375 
L 8.6875 57.375 
Q 8.6875 62.59375 9.625 65.140625 
Q 10.890625 68.5625 14.078125 70.671875 
Q 17.28125 72.796875 23.046875 72.796875 
Q 26.765625 72.796875 31.25 71.921875 
L 29.9375 64.265625 
Q 27.203125 64.75 24.75 64.75 
Q 20.75 64.75 19.09375 63.03125 
Q 17.4375 61.328125 17.4375 56.640625 
L 17.4375 51.859375 
L 27.546875 51.859375 
L 27.546875 45.015625 
L 17.4375 45.015625 
L 17.4375 0 
z
" id="ArialMT-102"/>
       <path d="M 25.78125 7.859375 
L 27.046875 0.09375 
Q 23.34375 -0.6875 20.40625 -0.6875 
Q 15.625 -0.6875 12.984375 0.828125 
Q 10.359375 2.34375 9.28125 4.8125 
Q 8.203125 7.28125 8.203125 15.1875 
L 8.203125 45.015625 
L 1.765625 45.015625 
L 1.765625 51.859375 
L 8.203125 51.859375 
L 8.203125 64.703125 
L 16.9375 69.96875 
L 16.9375 51.859375 
L 25.78125 51.859375 
L 25.78125 45.015625 
L 16.9375 45.015625 
L 16.9375 14.703125 
Q 16.9375 10.9375 17.40625 9.859375 
Q 17.875 8.796875 18.921875 8.15625 
Q 19.96875 7.515625 21.921875 7.515625 
Q 23.390625 7.515625 25.78125 7.859375 
z
" id="ArialMT-116"/>
       <path d="M 6.203125 -19.96875 
L 5.21875 -11.71875 
Q 8.109375 -12.5 10.25 -12.5 
Q 13.1875 -12.5 14.9375 -11.515625 
Q 16.703125 -10.546875 17.828125 -8.796875 
Q 18.65625 -7.46875 20.515625 -2.25 
Q 20.75 -1.515625 21.296875 -0.09375 
L 1.609375 51.859375 
L 11.078125 51.859375 
L 21.875 21.828125 
Q 23.96875 16.109375 25.640625 9.8125 
Q 27.15625 15.875 29.25 21.625 
L 40.328125 51.859375 
L 49.125 51.859375 
L 29.390625 -0.875 
Q 26.21875 -9.421875 24.46875 -12.640625 
Q 22.125 -17 19.09375 -19.015625 
Q 16.0625 -21.046875 11.859375 -21.046875 
Q 9.328125 -21.046875 6.203125 -19.96875 
z
" id="ArialMT-121"/>
      </defs>
      <use xlink:href="#ArialMT-83"/>
      <use x="66.699219" xlink:href="#ArialMT-112"/>
      <use x="122.314453" xlink:href="#ArialMT-101"/>
      <use x="177.929688" xlink:href="#ArialMT-99"/>
      <use x="227.929688" xlink:href="#ArialMT-105"/>
      <use x="250.146484" xlink:href="#ArialMT-102"/>
      <use x="277.929688" xlink:href="#ArialMT-105"/>
      <use x="300.146484" xlink:href="#ArialMT-99"/>
      <use x="350.146484" xlink:href="#ArialMT-105"/>
      <use x="372.363281" xlink:href="#ArialMT-116"/>
      <use x="400.146484" xlink:href="#ArialMT-121"/>
     </g>
    </g>
   </g>
   <g id="matplotlib.axis_2">
    <g id="ytick_1">
     <g id="line2d_6">
      <defs>
       <path d="M 0 0 
L -3.5 0 
" id="mf88b193fd5" style="stroke:#000000;stroke-width:0.8;"/>
      </defs>
      <g>
       <use style="stroke:#000000;stroke-width:0.8;" x="44.675" xlink:href="#mf88b193fd5" y="176.2"/>
      </g>
     </g>
     <g id="text_7">
      <!-- 0.0 -->
      <g transform="translate(23.775 179.778906)scale(0.1 -0.1)">
       <defs>
        <path d="M 9.078125 0 
L 9.078125 10.015625 
L 19.09375 10.015625 
L 19.09375 0 
z
" id="ArialMT-46"/>
       </defs>
       <use xlink:href="#ArialMT-48"/>
       <use x="55.615234" xlink:href="#ArialMT-46"/>
       <use x="83.398438" xlink:href="#ArialMT-48"/>
      </g>
     </g>
    </g>
    <g id="ytick_2">
     <g id="line2d_7">
      <g>
       <use style="stroke:#000000;stroke-width:0.8;" x="44.675" xlink:href="#mf88b193fd5" y="143.82"/>
      </g>
     </g>
     <g id="text_8">
      <!-- 0.2 -->
      <g transform="translate(23.775 147.398906)scale(0.1 -0.1)">
       <use xlink:href="#ArialMT-48"/>
       <use x="55.615234" xlink:href="#ArialMT-46"/>
       <use x="83.398438" xlink:href="#ArialMT-50"/>
      </g>
     </g>
    </g>
    <g id="ytick_3">
     <g id="line2d_8">
      <g>
       <use style="stroke:#000000;stroke-width:0.8;" x="44.675" xlink:href="#mf88b193fd5" y="111.44"/>
      </g>
     </g>
     <g id="text_9">
      <!-- 0.4 -->
      <g transform="translate(23.775 115.018906)scale(0.1 -0.1)">
       <use xlink:href="#ArialMT-48"/>
       <use x="55.615234" xlink:href="#ArialMT-46"/>
       <use x="83.398438" xlink:href="#ArialMT-52"/>
      </g>
     </g>
    </g>
    <g id="ytick_4">
     <g id="line2d_9">
      <g>
       <use style="stroke:#000000;stroke-width:0.8;" x="44.675" xlink:href="#mf88b193fd5" y="79.06"/>
      </g>
     </g>
     <g id="text_10">
      <!-- 0.6 -->
      <g transform="translate(23.775 82.638906)scale(0.1 -0.1)">
       <defs>
        <path d="M 49.75 54.046875 
L 41.015625 53.375 
Q 39.84375 58.546875 37.703125 60.890625 
Q 34.125 64.65625 28.90625 64.65625 
Q 24.703125 64.65625 21.53125 62.3125 
Q 17.390625 59.28125 14.984375 53.46875 
Q 12.59375 47.65625 12.5 36.921875 
Q 15.671875 41.75 20.265625 44.09375 
Q 24.859375 46.4375 29.890625 46.4375 
Q 38.671875 46.4375 44.84375 39.96875 
Q 51.03125 33.5 51.03125 23.25 
Q 51.03125 16.5 48.125 10.71875 
Q 45.21875 4.9375 40.140625 1.859375 
Q 35.0625 -1.21875 28.609375 -1.21875 
Q 17.625 -1.21875 10.6875 6.859375 
Q 3.765625 14.9375 3.765625 33.5 
Q 3.765625 54.25 11.421875 63.671875 
Q 18.109375 71.875 29.4375 71.875 
Q 37.890625 71.875 43.28125 67.140625 
Q 48.6875 62.40625 49.75 54.046875 
z
M 13.875 23.1875 
Q 13.875 18.65625 15.796875 14.5 
Q 17.71875 10.359375 21.1875 8.171875 
Q 24.65625 6 28.46875 6 
Q 34.03125 6 38.03125 10.484375 
Q 42.046875 14.984375 42.046875 22.703125 
Q 42.046875 30.125 38.078125 34.390625 
Q 34.125 38.671875 28.125 38.671875 
Q 22.171875 38.671875 18.015625 34.390625 
Q 13.875 30.125 13.875 23.1875 
z
" id="ArialMT-54"/>
       </defs>
       <use xlink:href="#ArialMT-48"/>
       <use x="55.615234" xlink:href="#ArialMT-46"/>
       <use x="83.398438" xlink:href="#ArialMT-54"/>
      </g>
     </g>
    </g>
    <g id="ytick_5">
     <g id="line2d_10">
      <g>
       <use style="stroke:#000000;stroke-width:0.8;" x="44.675" xlink:href="#mf88b193fd5" y="46.68"/>
      </g>
     </g>
     <g id="text_11">
      <!-- 0.8 -->
      <g transform="translate(23.775 50.258906)scale(0.1 -0.1)">
       <defs>
        <path d="M 17.671875 38.8125 
Q 12.203125 40.828125 9.5625 44.53125 
Q 6.9375 48.25 6.9375 53.421875 
Q 6.9375 61.234375 12.546875 66.546875 
Q 18.171875 71.875 27.484375 71.875 
Q 36.859375 71.875 42.578125 66.421875 
Q 48.296875 60.984375 48.296875 53.171875 
Q 48.296875 48.1875 45.671875 44.5 
Q 43.0625 40.828125 37.75 38.8125 
Q 44.34375 36.671875 47.78125 31.875 
Q 51.21875 27.09375 51.21875 20.453125 
Q 51.21875 11.28125 44.71875 5.03125 
Q 38.234375 -1.21875 27.640625 -1.21875 
Q 17.046875 -1.21875 10.546875 5.046875 
Q 4.046875 11.328125 4.046875 20.703125 
Q 4.046875 27.6875 7.59375 32.390625 
Q 11.140625 37.109375 17.671875 38.8125 
z
M 15.921875 53.71875 
Q 15.921875 48.640625 19.1875 45.40625 
Q 22.46875 42.1875 27.6875 42.1875 
Q 32.765625 42.1875 36.015625 45.375 
Q 39.265625 48.578125 39.265625 53.21875 
Q 39.265625 58.0625 35.90625 61.359375 
Q 32.5625 64.65625 27.59375 64.65625 
Q 22.5625 64.65625 19.234375 61.421875 
Q 15.921875 58.203125 15.921875 53.71875 
z
M 13.09375 20.65625 
Q 13.09375 16.890625 14.875 13.375 
Q 16.65625 9.859375 20.171875 7.921875 
Q 23.6875 6 27.734375 6 
Q 34.03125 6 38.125 10.046875 
Q 42.234375 14.109375 42.234375 20.359375 
Q 42.234375 26.703125 38.015625 30.859375 
Q 33.796875 35.015625 27.4375 35.015625 
Q 21.234375 35.015625 17.15625 30.90625 
Q 13.09375 26.8125 13.09375 20.65625 
z
" id="ArialMT-56"/>
       </defs>
       <use xlink:href="#ArialMT-48"/>
       <use x="55.615234" xlink:href="#ArialMT-46"/>
       <use x="83.398438" xlink:href="#ArialMT-56"/>
      </g>
     </g>
    </g>
    <g id="ytick_6">
     <g id="line2d_11">
      <g>
       <use style="stroke:#000000;stroke-width:0.8;" x="44.675" xlink:href="#mf88b193fd5" y="14.3"/>
      </g>
     </g>
     <g id="text_12">
      <!-- 1.0 -->
      <g transform="translate(23.775 17.878906)scale(0.1 -0.1)">
       <use xlink:href="#ArialMT-49"/>
       <use x="55.615234" xlink:href="#ArialMT-46"/>
       <use x="83.398438" xlink:href="#ArialMT-48"/>
      </g>
     </g>
    </g>
    <g id="text_13">
     <!-- Proportion -->
     <g transform="translate(17.7875 118.317187)rotate(-90)scale(0.1 -0.1)">
      <defs>
       <path d="M 7.71875 0 
L 7.71875 71.578125 
L 34.71875 71.578125 
Q 41.84375 71.578125 45.609375 70.90625 
Q 50.875 70.015625 54.4375 67.546875 
Q 58.015625 65.09375 60.1875 60.640625 
Q 62.359375 56.203125 62.359375 50.875 
Q 62.359375 41.75 56.546875 35.421875 
Q 50.734375 29.109375 35.546875 29.109375 
L 17.1875 29.109375 
L 17.1875 0 
z
M 17.1875 37.546875 
L 35.6875 37.546875 
Q 44.875 37.546875 48.734375 40.96875 
Q 52.59375 44.390625 52.59375 50.59375 
Q 52.59375 55.078125 50.3125 58.265625 
Q 48.046875 61.46875 44.34375 62.5 
Q 41.9375 63.140625 35.5 63.140625 
L 17.1875 63.140625 
z
" id="ArialMT-80"/>
       <path d="M 6.5 0 
L 6.5 51.859375 
L 14.40625 51.859375 
L 14.40625 44 
Q 17.4375 49.515625 20 51.265625 
Q 22.5625 53.03125 25.640625 53.03125 
Q 30.078125 53.03125 34.671875 50.203125 
L 31.640625 42.046875 
Q 28.421875 43.953125 25.203125 43.953125 
Q 22.3125 43.953125 20.015625 42.21875 
Q 17.71875 40.484375 16.75 37.40625 
Q 15.28125 32.71875 15.28125 27.15625 
L 15.28125 0 
z
" id="ArialMT-114"/>
       <path d="M 3.328125 25.921875 
Q 3.328125 40.328125 11.328125 47.265625 
Q 18.015625 53.03125 27.640625 53.03125 
Q 38.328125 53.03125 45.109375 46.015625 
Q 51.90625 39.015625 51.90625 26.65625 
Q 51.90625 16.65625 48.90625 10.90625 
Q 45.90625 5.171875 40.15625 2 
Q 34.421875 -1.171875 27.640625 -1.171875 
Q 16.75 -1.171875 10.03125 5.8125 
Q 3.328125 12.796875 3.328125 25.921875 
z
M 12.359375 25.921875 
Q 12.359375 15.96875 16.703125 11.015625 
Q 21.046875 6.0625 27.640625 6.0625 
Q 34.1875 6.0625 38.53125 11.03125 
Q 42.875 16.015625 42.875 26.21875 
Q 42.875 35.84375 38.5 40.796875 
Q 34.125 45.75 27.640625 45.75 
Q 21.046875 45.75 16.703125 40.8125 
Q 12.359375 35.890625 12.359375 25.921875 
z
" id="ArialMT-111"/>
       <path d="M 6.59375 0 
L 6.59375 51.859375 
L 14.5 51.859375 
L 14.5 44.484375 
Q 20.21875 53.03125 31 53.03125 
Q 35.6875 53.03125 39.625 51.34375 
Q 43.5625 49.65625 45.515625 46.921875 
Q 47.46875 44.1875 48.25 40.4375 
Q 48.734375 37.984375 48.734375 31.890625 
L 48.734375 0 
L 39.9375 0 
L 39.9375 31.546875 
Q 39.9375 36.921875 38.90625 39.578125 
Q 37.890625 42.234375 35.28125 43.8125 
Q 32.671875 45.40625 29.15625 45.40625 
Q 23.53125 45.40625 19.453125 41.84375 
Q 15.375 38.28125 15.375 28.328125 
L 15.375 0 
z
" id="ArialMT-110"/>
      </defs>
      <use xlink:href="#ArialMT-80"/>
      <use x="66.699219" xlink:href="#ArialMT-114"/>
      <use x="100" xlink:href="#ArialMT-111"/>
      <use x="155.615234" xlink:href="#ArialMT-112"/>
      <use x="211.230469" xlink:href="#ArialMT-111"/>
      <use x="266.845703" xlink:href="#ArialMT-114"/>
      <use x="300.146484" xlink:href="#ArialMT-116"/>
      <use x="327.929688" xlink:href="#ArialMT-105"/>
      <use x="350.146484" xlink:href="#ArialMT-111"/>
      <use x="405.761719" xlink:href="#ArialMT-110"/>
     </g>
    </g>
   </g>
   <g id="line2d_12">
    <path clip-path="url(#pcdfaabc6e3)" d="M 44.752369 176.2 
L 44.851478 176.021352 
L 45.058039 175.97669 
L 45.058039 175.932028 
L 45.152744 175.753379 
L 45.389653 175.664055 
L 45.494722 175.530069 
L 45.681219 175.485407 
L 45.681219 175.440745 
L 45.769095 174.815476 
L 46.053235 174.726152 
L 46.147374 174.592166 
L 46.375256 174.502841 
L 46.453552 174.324193 
L 46.618263 174.234869 
L 46.725492 174.056221 
L 46.807936 173.966897 
L 46.893748 173.877572 
L 47.209607 173.788248 
L 47.230966 173.698924 
L 47.507514 173.6096 
L 47.617552 173.118317 
L 47.697465 173.028993 
L 47.805173 172.850345 
L 47.909123 172.805683 
L 47.909123 172.761021 
L 47.98929 172.627034 
L 48.105461 172.53771 
L 48.170231 172.269738 
L 48.294186 172.269738 
L 48.294186 172.180414 
L 48.307502 172.001766 
L 48.421962 171.957103 
L 48.421962 171.912441 
L 48.525783 171.644469 
L 48.635928 171.599807 
L 48.635928 171.555145 
L 48.730355 171.287172 
L 48.855963 171.197848 
L 48.953843 170.79589 
L 49.058467 170.706566 
L 49.127844 170.393931 
L 49.296074 170.304607 
L 49.406057 170.125959 
L 49.460155 170.036634 
L 49.53725 169.456028 
L 49.731634 169.366703 
L 49.839542 168.964745 
L 49.869586 168.920083 
L 49.869586 168.875421 
L 49.936835 168.607448 
L 50.015689 168.518124 
L 50.079843 168.250152 
L 50.167619 168.160828 
L 50.229094 167.1336 
L 50.314847 167.044276 
L 50.388116 166.508331 
L 50.499034 166.419007 
L 50.582172 166.195697 
L 50.63021 166.106372 
L 50.639113 166.017048 
L 50.835326 165.927724 
L 50.906781 164.409214 
L 50.984163 164.31989 
L 51.019257 163.828607 
L 51.127127 163.739283 
L 51.202348 163.515972 
L 51.353764 163.47131 
L 51.353764 163.426648 
L 51.409142 163.02469 
L 51.542886 162.935366 
L 51.614276 162.488745 
L 51.745942 162.399421 
L 51.851702 162.310097 
L 51.965039 162.220772 
L 51.997776 160.836248 
L 52.235452 160.746924 
L 52.273396 160.523614 
L 52.395977 160.43429 
L 52.505641 160.121655 
L 52.642738 160.032331 
L 52.749261 159.898345 
L 52.892095 159.809021 
L 52.996985 159.541048 
L 53.126717 159.451724 
L 53.219288 159.094428 
L 53.460922 159.005103 
L 53.561442 158.781793 
L 53.711225 158.692469 
L 53.79606 158.469159 
L 54.007081 158.379834 
L 54.116889 158.201186 
L 54.21033 158.111862 
L 54.320323 157.665241 
L 54.491693 157.575917 
L 54.60139 157.486593 
L 54.643985 157.397269 
L 54.675073 157.263283 
L 54.773575 157.263283 
L 54.773575 157.173959 
L 54.859054 157.039972 
L 54.91837 156.950648 
L 55.0078 156.593352 
L 55.086294 156.504028 
L 55.158409 156.236055 
L 55.321334 156.146731 
L 55.404908 155.789434 
L 55.469599 155.70011 
L 55.579065 154.851531 
L 55.700969 154.762207 
L 55.784994 154.583559 
L 55.905266 154.538897 
L 55.905266 154.494234 
L 55.905266 154.360248 
L 56.083572 154.315586 
L 56.083572 154.270924 
L 56.193636 153.824303 
L 56.268199 153.734979 
L 56.358814 153.467007 
L 56.4897 153.377683 
L 56.588436 153.243697 
L 56.699065 153.154372 
L 56.80711 152.797076 
L 56.86157 152.707752 
L 56.886293 152.395117 
L 57.042807 152.305793 
L 57.143737 151.993159 
L 57.182728 151.993159 
L 57.182728 151.903834 
L 57.290324 151.278566 
L 57.330105 151.233903 
L 57.330105 151.189241 
L 57.381671 150.921269 
L 57.509984 150.921269 
L 57.509984 150.831945 
L 57.595555 150.474648 
L 57.680407 150.385324 
L 57.763264 149.894041 
L 57.844406 149.849379 
L 57.844406 149.804717 
L 57.949554 149.670731 
L 58.082107 149.581407 
L 58.162119 149.492083 
L 58.361038 149.402759 
L 58.434107 149.22411 
L 58.517663 149.134786 
L 58.586514 148.866814 
L 58.690158 148.822152 
L 58.690158 148.77749 
L 58.742285 148.598841 
L 58.981802 148.509517 
L 59.075902 148.286207 
L 59.14858 148.196883 
L 59.22045 148.018234 
L 59.330246 147.92891 
L 59.440324 147.7056 
L 59.501045 147.616276 
L 59.604361 147.392966 
L 59.630326 147.392966 
L 59.630326 147.303641 
L 59.733763 147.080331 
L 59.743127 146.991007 
L 59.829431 146.857021 
L 59.893881 146.767697 
L 59.950329 146.63371 
L 60.038164 146.544386 
L 60.138571 146.276414 
L 60.202689 146.18709 
L 60.295652 146.008441 
L 60.363117 145.919117 
L 60.455586 145.740469 
L 60.572374 145.651145 
L 60.679771 145.517159 
L 60.783888 145.427834 
L 60.881737 141.408248 
L 60.932392 141.318924 
L 60.991292 141.095614 
L 61.075383 141.050952 
L 61.075383 141.00629 
L 61.080299 140.916966 
L 61.208825 140.872303 
L 61.208825 140.827641 
L 61.243154 140.693655 
L 61.354136 140.648993 
L 61.354136 140.604331 
L 61.463436 140.247034 
L 61.549408 140.202372 
L 61.549408 140.15771 
L 61.64299 139.800414 
L 61.687323 139.755752 
L 61.687323 139.71109 
L 61.797758 139.041159 
L 61.827531 138.951834 
L 61.916746 138.86251 
L 61.963406 138.773186 
L 62.054505 138.594538 
L 62.143857 138.505214 
L 62.253692 138.281903 
L 62.335394 138.192579 
L 62.432705 137.835283 
L 62.562646 137.745959 
L 62.672596 137.433324 
L 62.847268 137.344 
L 62.944673 136.986703 
L 63.012137 136.897379 
L 63.121252 136.450759 
L 63.128383 136.361434 
L 63.227366 136.0488 
L 63.300652 135.959476 
L 63.300652 135.780828 
L 63.450828 135.691503 
L 63.515836 135.468193 
L 63.61982 135.423531 
L 63.61982 135.378869 
L 63.691317 135.244883 
L 63.732553 135.244883 
L 63.732553 135.155559 
L 63.835363 134.619614 
L 63.923648 134.53029 
L 63.994831 134.351641 
L 64.051079 134.262317 
L 64.161512 133.860359 
L 64.174423 133.815697 
L 64.174423 133.771034 
L 64.276206 133.190428 
L 64.369434 133.101103 
L 64.479459 132.788469 
L 64.490358 132.699145 
L 64.599549 132.520497 
L 64.706959 132.431172 
L 64.811004 132.118538 
L 64.844113 132.029214 
L 64.948165 131.850566 
L 65.011768 131.761241 
L 65.118691 131.135972 
L 65.208376 131.046648 
L 65.31031 130.868 
L 65.351831 130.778676 
L 65.454234 130.421379 
L 65.558492 130.332055 
L 65.636205 130.242731 
L 65.832304 130.153407 
L 65.937483 129.751448 
L 66.12236 129.662124 
L 66.224085 129.215503 
L 66.247359 129.170841 
L 66.247359 129.126179 
L 66.351548 128.947531 
L 66.399415 128.947531 
L 66.399415 128.858207 
L 66.479764 128.545572 
L 66.577438 128.456248 
L 66.660313 128.143614 
L 66.723563 128.098952 
L 66.723563 128.05429 
L 66.829146 125.642538 
L 67.022042 125.553214 
L 67.102021 125.240579 
L 67.140558 125.240579 
L 67.140558 125.151255 
L 67.211943 124.972607 
L 67.323356 124.883283 
L 67.434034 124.61531 
L 67.564807 124.525986 
L 67.650176 124.392 
L 67.68629 124.392 
L 67.68629 124.302676 
L 67.763986 123.990041 
L 67.807675 123.900717 
L 67.902539 123.722069 
L 68.038989 123.632745 
L 68.133279 123.186124 
L 68.168645 123.0968 
L 68.245547 122.828828 
L 68.422236 122.739503 
L 68.422236 122.694841 
L 68.661355 122.650179 
L 68.661355 122.605517 
L 68.744767 122.337545 
L 68.813741 122.292883 
L 68.813741 122.248221 
L 68.915603 121.890924 
L 68.960893 121.8016 
L 69.060017 121.444303 
L 69.133293 121.354979 
L 69.213621 121.087007 
L 69.423726 120.997683 
L 69.531377 120.595724 
L 69.580432 120.551062 
L 69.580432 120.5064 
L 69.672036 119.702483 
L 69.748125 119.613159 
L 69.844191 119.43451 
L 69.913514 119.345186 
L 70.021815 119.032552 
L 70.053844 118.943228 
L 70.146714 118.675255 
L 70.235966 118.585931 
L 70.334762 117.782014 
L 70.375018 117.737352 
L 70.375018 117.69269 
L 70.435319 117.514041 
L 70.561028 117.424717 
L 70.624173 117.201407 
L 70.720841 117.112083 
L 70.813923 116.6208 
L 70.866527 116.531476 
L 70.937846 116.308166 
L 71.069903 116.218841 
L 71.1047 116.084855 
L 71.247216 115.995531 
L 71.324531 115.816883 
L 71.481074 115.727559 
L 71.575553 115.370262 
L 71.683045 115.3256 
L 71.683045 115.280938 
L 71.792809 114.834317 
L 71.831754 114.789655 
L 71.831754 114.744993 
L 71.887054 114.521683 
L 71.986264 114.432359 
L 72.089332 114.298372 
L 72.119247 114.209048 
L 72.185745 114.0304 
L 72.271115 113.941076 
L 72.356333 113.717766 
L 72.494589 113.628441 
L 72.511832 113.405131 
L 72.629172 113.360469 
L 72.629172 113.315807 
L 72.729911 113.047834 
L 72.775015 112.95851 
L 72.85487 112.7352 
L 73.028023 112.645876 
L 73.135251 112.333241 
L 73.212217 112.243917 
L 73.26876 112.065269 
L 73.339436 111.975945 
L 73.407409 111.618648 
L 73.658168 111.529324 
L 73.660248 111.261352 
L 73.814946 111.172028 
L 73.917001 110.100138 
L 74.101129 110.010814 
L 74.199902 109.832166 
L 74.310075 109.742841 
L 74.413633 109.474869 
L 74.482387 109.385545 
L 74.541617 109.206897 
L 74.683742 109.117572 
L 74.783101 108.804938 
L 74.827738 108.804938 
L 74.827738 108.715614 
L 74.919111 108.492303 
L 75.054278 108.402979 
L 75.089341 108.045683 
L 75.217814 107.956359 
L 75.321742 107.5544 
L 75.379165 107.465076 
L 75.479992 107.286428 
L 75.556363 107.197103 
L 75.616068 106.661159 
L 75.724099 106.571834 
L 75.782509 106.437848 
L 75.919597 106.348524 
L 75.990185 106.03589 
L 76.073776 105.991228 
L 76.073776 105.946566 
L 76.132971 105.812579 
L 76.263149 105.723255 
L 76.339994 105.589269 
L 76.506816 105.499945 
L 76.595072 105.365959 
L 76.66942 105.276634 
L 76.748219 104.830014 
L 76.817854 104.74069 
L 76.899571 104.160083 
L 76.934863 104.070759 
L 77.044651 103.89211 
L 77.133451 103.802786 
L 77.244439 103.534814 
L 77.276606 103.44549 
L 77.384192 103.222179 
L 77.487777 103.132855 
L 77.588373 102.686234 
L 77.61936 102.59691 
L 77.67856 102.418262 
L 77.762857 102.328938 
L 77.843927 102.239614 
L 77.919771 102.15029 
L 78.00702 101.837655 
L 78.084695 101.748331 
L 78.182184 101.569683 
L 78.280534 101.480359 
L 78.372742 101.212386 
L 78.438197 101.123062 
L 78.54738 100.765766 
L 78.708414 100.676441 
L 78.762233 100.453131 
L 78.995692 100.363807 
L 79.104508 100.051172 
L 79.225142 99.961848 
L 79.324553 99.827862 
L 79.381395 99.738538 
L 79.449521 99.55989 
L 79.721111 99.470566 
L 79.820543 99.157931 
L 79.922951 99.068607 
L 79.994414 98.621986 
L 80.057065 98.532662 
L 80.164908 98.130703 
L 80.227085 98.041379 
L 80.326638 97.818069 
L 80.376336 97.728745 
L 80.409876 97.594759 
L 80.58542 97.550097 
L 80.58542 97.505434 
L 80.680549 97.1928 
L 80.787086 97.103476 
L 80.881911 96.96949 
L 80.987993 96.880166 
L 81.034454 96.746179 
L 81.259202 96.701517 
L 81.259202 96.656855 
L 81.356797 96.076248 
L 81.378992 96.076248 
L 81.378992 95.986924 
L 81.482991 92.547945 
L 81.491217 92.547945 
L 81.491217 92.458621 
L 81.568288 91.967338 
L 81.690511 91.922676 
L 81.690511 91.878014 
L 81.75194 91.565379 
L 81.834409 91.476055 
L 81.85091 91.386731 
L 82.082621 91.297407 
L 82.114566 91.074097 
L 82.221883 90.984772 
L 82.332016 90.672138 
L 82.491487 90.582814 
L 82.599335 90.136193 
L 82.686852 90.046869 
L 82.793374 89.689572 
L 82.860379 89.600248 
L 82.958743 89.153628 
L 83.023719 89.064303 
L 83.122947 88.662345 
L 83.164185 88.573021 
L 83.257306 88.483697 
L 83.349018 88.439034 
L 83.349018 88.394372 
L 83.439057 88.1264 
L 83.500405 88.037076 
L 83.559885 87.90309 
L 83.754096 87.813766 
L 83.854494 87.367145 
L 83.895496 87.277821 
L 83.982669 87.05451 
L 84.111985 86.965186 
L 84.181803 86.741876 
L 84.275049 86.697214 
L 84.275049 86.652552 
L 84.373665 86.429241 
L 84.577892 86.339917 
L 84.68813 86.116607 
L 84.859489 86.027283 
L 84.9552 85.848634 
L 84.981657 85.848634 
L 84.981657 85.75931 
L 84.981657 85.714648 
L 85.104376 85.669986 
L 85.104376 85.625324 
L 85.171929 85.31269 
L 85.247837 85.223366 
L 85.35174 85.000055 
L 85.551326 84.910731 
L 85.643069 84.419448 
L 85.719188 84.330124 
L 85.810971 84.151476 
L 85.87355 84.062152 
L 85.983417 83.883503 
L 86.056957 83.794179 
L 86.165511 83.570869 
L 86.330026 83.481545 
L 86.433544 83.124248 
L 86.498467 83.034924 
L 86.596831 82.811614 
L 86.63775 82.72229 
L 86.736102 82.454317 
L 86.768801 82.364993 
L 86.856244 82.052359 
L 87.066606 82.007697 
L 87.066606 81.963034 
L 87.165801 81.739724 
L 87.27376 81.6504 
L 87.342317 81.203779 
L 87.408376 81.203779 
L 87.408376 81.114455 
L 87.515101 80.891145 
L 87.557949 80.846483 
L 87.557949 80.801821 
L 87.668548 80.13189 
L 87.758982 80.042566 
L 87.865445 79.863917 
L 87.932563 79.774593 
L 88.028413 79.595945 
L 88.055864 79.506621 
L 88.059672 79.372634 
L 88.336325 79.28331 
L 88.374513 79.193986 
L 88.540711 79.104662 
L 88.581399 78.970676 
L 88.788741 78.881352 
L 88.855106 78.747366 
L 88.952734 78.658041 
L 89.053192 78.345407 
L 89.223335 78.256083 
L 89.310349 78.122097 
L 89.389448 78.032772 
L 89.494048 77.809462 
L 89.527368 77.720138 
L 89.598465 77.586152 
L 89.71594 77.54149 
L 89.71594 77.496828 
L 89.738599 77.318179 
L 90.057739 77.228855 
L 90.159115 77.094869 
L 90.256124 77.005545 
L 90.334733 76.871559 
L 90.693385 76.782234 
L 90.799034 76.648248 
L 90.867523 76.558924 
L 90.887739 76.424938 
L 91.195947 76.335614 
L 91.301232 76.201628 
L 91.478936 76.156966 
L 91.478936 76.112303 
L 91.502986 75.755007 
L 91.686045 75.665683 
L 91.686045 75.621021 
L 91.91447 75.531697 
L 92.007517 75.219062 
L 92.17766 75.129738 
L 92.226144 74.95109 
L 92.379329 74.906428 
L 92.379329 74.861766 
L 92.47054 74.727779 
L 92.579705 74.638455 
L 92.636971 74.504469 
L 92.839954 74.415145 
L 92.95094 74.147172 
L 93.040649 74.057848 
L 93.102006 73.968524 
L 93.23991 73.8792 
L 93.325063 73.700552 
L 93.462715 73.611228 
L 93.462715 73.566566 
L 93.648342 73.477241 
L 93.730711 73.253931 
L 93.847769 73.164607 
L 93.920648 73.030621 
L 94.063912 72.941297 
L 94.156527 72.80731 
L 94.367582 72.717986 
L 94.459665 72.539338 
L 94.645864 72.450014 
L 94.744908 72.316028 
L 95.014772 72.226703 
L 95.062075 71.958731 
L 95.27658 71.958731 
L 95.27658 71.869407 
L 95.322233 71.690759 
L 95.442448 71.601434 
L 95.472499 71.422786 
L 95.668488 71.333462 
L 95.722381 71.154814 
L 96.031631 71.06549 
L 96.060617 70.976166 
L 96.432972 70.886841 
L 96.516613 70.618869 
L 96.668025 70.529545 
L 96.749065 70.440221 
L 96.82364 70.440221 
L 96.82364 70.350897 
L 96.841125 70.082924 
L 97.055289 69.9936 
L 97.06914 69.859614 
L 97.465588 69.77029 
L 97.531344 69.502317 
L 97.739435 69.412993 
L 97.764367 69.323669 
L 97.970403 69.279007 
L 97.970403 69.234345 
L 98.036434 69.100359 
L 98.220902 69.055697 
L 98.220902 69.011034 
L 98.299546 68.787724 
L 98.37223 68.787724 
L 98.37223 68.6984 
L 98.385896 68.564414 
L 98.532231 68.47509 
L 98.585979 68.341103 
L 98.732146 68.251779 
L 98.831012 68.117793 
L 98.986636 68.028469 
L 99.059402 67.715834 
L 99.216553 67.62651 
L 99.31726 67.492524 
L 99.400961 67.4032 
L 99.400961 67.313876 
L 99.590317 67.224552 
L 99.645808 67.135228 
L 99.83284 67.045903 
L 99.83284 67.001241 
L 100.290797 66.911917 
L 100.33438 66.777931 
L 100.47521 66.688607 
L 100.569869 66.554621 
L 100.803606 66.465297 
L 100.829377 66.33131 
L 101.153182 66.241986 
L 101.260285 65.974014 
L 101.353779 65.88469 
L 101.377499 65.795366 
L 101.496168 65.795366 
L 101.496168 65.706041 
L 101.496168 65.304083 
L 101.811242 65.214759 
L 101.847663 65.125434 
L 102.060551 65.03611 
L 102.146096 64.946786 
L 102.402632 64.857462 
L 102.489455 64.544828 
L 102.724961 64.455503 
L 102.777738 64.321517 
L 102.888885 64.232193 
L 102.997346 64.098207 
L 103.169873 64.008883 
L 103.228023 63.874897 
L 103.484894 63.785572 
L 103.585114 63.562262 
L 103.968734 63.472938 
L 104.02204 63.338952 
L 104.199547 63.29429 
L 104.199547 63.249628 
L 104.287229 62.936993 
L 104.359167 62.936993 
L 104.359167 62.847669 
L 104.374623 62.311724 
L 104.621141 62.267062 
L 104.621141 62.2224 
L 104.723388 61.954428 
L 105.237745 61.865103 
L 105.329774 61.731117 
L 105.46164 61.641793 
L 105.523853 61.418483 
L 105.821455 61.329159 
L 105.845435 61.239834 
L 106.091791 61.15051 
L 106.150601 60.971862 
L 106.36024 60.882538 
L 106.360663 60.748552 
L 106.565222 60.659228 
L 106.584301 60.569903 
L 106.804934 60.480579 
L 106.898824 60.346593 
L 107.058953 60.257269 
L 107.094163 59.989297 
L 107.305293 59.899972 
L 107.407234 59.632 
L 107.616595 59.542676 
L 107.704617 59.319366 
L 107.866099 59.230041 
L 107.866099 59.185379 
L 108.234167 59.096055 
L 108.339023 58.962069 
L 108.568345 58.872745 
L 108.568345 58.828083 
L 108.925699 58.738759 
L 108.96744 58.604772 
L 109.178131 58.515448 
L 109.178131 58.470786 
L 109.521067 58.381462 
L 109.562085 58.292138 
L 109.727383 58.202814 
L 109.727383 58.158152 
L 109.92695 58.11349 
L 109.92695 58.068828 
L 109.92695 58.024166 
L 110.145851 57.934841 
L 110.147448 57.845517 
L 110.580485 57.756193 
L 110.627807 57.622207 
L 110.796337 57.532883 
L 110.833602 57.443559 
L 111.128181 57.354234 
L 111.161777 57.26491 
L 111.44595 57.175586 
L 111.52054 57.086262 
L 111.664356 56.996938 
L 111.751861 56.862952 
L 111.809604 56.773628 
L 111.838604 56.594979 
L 112.259559 56.505655 
L 112.350886 56.327007 
L 112.568578 56.237683 
L 112.678867 55.389103 
L 112.794507 55.299779 
L 112.901296 55.121131 
L 113.007879 55.031807 
L 113.023572 54.942483 
L 113.193951 54.897821 
L 113.193951 54.853159 
L 113.271929 54.629848 
L 113.357323 54.540524 
L 113.411622 54.4512 
L 113.685665 54.361876 
L 113.779526 54.272552 
L 114.060066 54.183228 
L 114.164902 54.004579 
L 114.272332 53.915255 
L 114.321749 53.691945 
L 114.527028 53.602621 
L 114.593771 53.468634 
L 114.702024 53.37931 
L 114.767222 53.245324 
L 115.173336 53.156 
L 115.184508 53.066676 
L 115.435928 52.977352 
L 115.500591 52.888028 
L 115.676992 52.843366 
L 115.676992 52.798703 
L 115.690734 52.262759 
L 116.051959 52.173434 
L 116.051959 52.128772 
L 116.228398 52.128772 
L 116.228398 52.039448 
L 116.306586 51.8608 
L 116.440784 51.771476 
L 116.503961 51.682152 
L 116.86095 51.592828 
L 116.934448 51.458841 
L 117.31047 51.369517 
L 117.31047 51.324855 
L 117.500907 51.235531 
L 117.569345 51.146207 
L 118.119461 51.056883 
L 118.119461 51.012221 
L 118.72372 50.922897 
L 118.72372 50.878234 
L 119.036915 50.78891 
L 119.036915 50.744248 
L 119.345691 50.699586 
L 119.345691 50.654924 
L 119.382994 50.5656 
L 119.675359 50.476276 
L 119.777343 50.386952 
L 119.940468 50.297628 
L 120.032642 50.074317 
L 120.168639 49.984993 
L 120.225627 49.895669 
L 120.454205 49.806345 
L 120.549279 49.717021 
L 120.992916 49.627697 
L 121.075477 49.449048 
L 121.237757 49.359724 
L 121.328723 49.2704 
L 121.585401 49.225738 
L 121.585401 49.181076 
L 121.644541 48.868441 
L 122.075458 48.779117 
L 122.179619 48.645131 
L 122.40892 48.555807 
L 122.40892 48.466483 
L 122.697311 48.421821 
L 122.697311 48.377159 
L 122.76285 48.19851 
L 123.12457 48.109186 
L 123.145737 48.019862 
L 123.728316 47.930538 
L 123.791463 47.707228 
L 123.935766 47.617903 
L 124.000494 47.528579 
L 124.207726 47.439255 
L 124.303749 47.305269 
L 124.625207 47.215945 
L 124.734784 47.126621 
L 124.84188 47.037297 
L 124.898081 46.90331 
L 125.666511 46.813986 
L 125.666511 46.769324 
L 126.138959 46.68 
L 126.138959 46.635338 
L 126.397049 46.546014 
L 126.469145 46.45669 
L 126.542144 46.367366 
L 126.646732 46.233379 
L 126.750173 46.188717 
L 126.750173 46.144055 
L 126.8458 46.054731 
L 127.160822 45.965407 
L 127.197942 45.876083 
L 127.458021 45.786759 
L 127.553329 45.60811 
L 127.718836 45.518786 
L 127.816048 45.3848 
L 128.032583 45.295476 
L 128.113545 45.116828 
L 128.255462 45.027503 
L 128.336426 44.938179 
L 128.756617 44.848855 
L 128.859209 44.580883 
L 128.989599 44.491559 
L 128.989599 44.446897 
L 129.442625 44.357572 
L 129.442625 44.268248 
L 129.940766 44.178924 
L 130.003148 43.955614 
L 130.676632 43.86629 
L 130.750519 43.776966 
L 131.052038 43.687641 
L 131.146321 43.598317 
L 131.319665 43.508993 
L 131.429861 43.419669 
L 131.619288 43.330345 
L 131.697399 43.151697 
L 131.95502 43.062372 
L 131.95502 43.01771 
L 132.259979 42.928386 
L 132.273072 42.7944 
L 132.424355 42.705076 
L 132.510338 42.57109 
L 132.969267 42.481766 
L 132.969267 42.437103 
L 133.270606 42.392441 
L 133.270606 42.347779 
L 133.3597 41.990483 
L 133.662642 41.901159 
L 133.662642 41.856497 
L 134.014984 41.767172 
L 134.062893 41.588524 
L 134.406519 41.4992 
L 134.432147 41.409876 
L 135.335253 41.320552 
L 135.434476 41.186566 
L 136.064133 41.097241 
L 136.132192 41.007917 
L 136.273102 40.963255 
L 136.273102 40.918593 
L 136.274818 40.829269 
L 136.686517 40.739945 
L 136.686517 40.695283 
L 137.070243 40.695283 
L 137.070243 40.605959 
L 137.155115 40.516634 
L 137.31185 40.471972 
L 137.31185 40.42731 
L 137.412711 40.248662 
L 137.958972 40.159338 
L 138.066431 40.070014 
L 138.668878 39.98069 
L 138.670814 39.846703 
L 138.980438 39.757379 
L 139.06452 39.668055 
L 139.216766 39.578731 
L 139.229672 39.489407 
L 139.693645 39.400083 
L 139.745218 39.310759 
L 139.922421 39.221434 
L 139.950904 38.998124 
L 140.141537 38.9088 
L 140.171894 38.774814 
L 140.344077 38.68549 
L 140.344077 38.596166 
L 140.83906 38.506841 
L 140.946047 38.328193 
L 141.469818 38.238869 
L 141.513555 38.060221 
L 141.615801 38.060221 
L 141.615801 37.970897 
L 141.715747 37.792248 
L 141.908343 37.702924 
L 141.913899 37.6136 
L 142.199202 37.568938 
L 142.199202 37.524276 
L 142.199202 37.345628 
L 142.582619 37.256303 
L 142.649801 37.166979 
L 142.992373 37.077655 
L 142.992373 37.032993 
L 143.450804 36.943669 
L 143.450804 36.899007 
L 144.037353 36.809683 
L 144.065595 36.675697 
L 144.313443 36.586372 
L 144.313443 36.54171 
L 144.46113 36.54171 
L 144.46113 36.452386 
L 144.537573 36.139752 
L 145.196685 36.050428 
L 145.284685 35.961103 
L 145.436714 35.871779 
L 145.464449 35.737793 
L 146.12036 35.648469 
L 146.216789 35.380497 
L 146.484075 35.291172 
L 146.550211 34.129959 
L 146.793878 34.040634 
L 146.808835 33.95131 
L 147.193014 33.861986 
L 147.260204 33.728 
L 147.718549 33.638676 
L 147.804029 33.50469 
L 147.974554 33.415366 
L 148.059602 33.281379 
L 148.426208 33.192055 
L 148.426208 33.147393 
L 148.704927 33.102731 
L 148.704927 33.058069 
L 148.781443 32.834759 
L 149.017083 32.745434 
L 149.028076 32.611448 
L 149.428838 32.566786 
L 149.428838 32.522124 
L 149.475132 32.4328 
L 149.933573 32.343476 
L 149.933573 32.120166 
L 150.53989 32.030841 
L 150.53989 31.986179 
L 150.759784 31.896855 
L 150.759784 31.852193 
L 150.94958 31.807531 
L 150.94958 31.762869 
L 151.022017 31.673545 
L 151.333531 31.584221 
L 151.415582 31.36091 
L 151.596211 31.271586 
L 151.704386 31.092938 
L 152.136974 31.003614 
L 152.136974 30.91429 
L 152.411703 30.824966 
L 152.411703 30.735641 
L 152.576909 30.690979 
L 152.576909 30.646317 
L 152.686319 30.423007 
L 152.751847 30.423007 
L 152.751847 30.333683 
L 152.796642 30.199697 
L 153.114062 30.199697 
L 153.114062 30.110372 
L 153.175111 30.021048 
L 153.607176 29.931724 
L 153.665521 29.708414 
L 153.927373 29.61909 
L 154.018859 29.440441 
L 154.704066 29.351117 
L 154.736654 29.217131 
L 155.197874 29.127807 
L 155.197874 29.083145 
L 155.466687 28.993821 
L 155.466687 28.949159 
L 156.141688 28.859834 
L 156.251723 28.725848 
L 156.372263 28.636524 
L 156.372263 28.502538 
L 156.666629 28.413214 
L 156.666629 28.368552 
L 157.001796 28.279228 
L 157.106716 28.189903 
L 157.636439 28.100579 
L 157.639558 27.296662 
L 158.131274 27.207338 
L 158.131274 27.162676 
L 158.502229 27.073352 
L 158.600692 26.805379 
L 159.046094 26.716055 
L 159.140516 26.626731 
L 159.495767 26.537407 
L 159.495767 26.492745 
L 159.888352 26.403421 
L 159.888352 26.358759 
L 160.35483 26.314097 
L 160.35483 26.269434 
L 160.378474 26.18011 
L 160.719742 26.090786 
L 160.719742 26.046124 
L 161.261163 25.9568 
L 161.332111 24.304303 
L 161.431615 24.214979 
L 161.527193 24.125655 
L 161.882616 24.036331 
L 161.882616 23.947007 
L 161.999291 23.947007 
L 161.999291 23.857683 
L 162.045594 23.58971 
L 162.227668 23.500386 
L 162.227668 23.3664 
L 163.095749 23.277076 
L 163.128532 23.187752 
L 163.524302 23.14309 
L 163.524302 23.098428 
L 163.524302 22.919779 
L 163.637717 22.919779 
L 163.637717 22.830455 
L 163.7474 22.696469 
L 163.922399 22.651807 
L 163.922399 22.607145 
L 163.944914 22.473159 
L 165.417185 22.383834 
L 165.49503 22.29451 
L 165.991174 22.205186 
L 165.991174 22.160524 
L 166.399791 22.0712 
L 166.399791 22.026538 
L 166.812938 21.937214 
L 166.85678 21.758566 
L 168.010309 21.713903 
L 168.010309 21.669241 
L 168.074135 21.401269 
L 168.405811 21.311945 
L 168.511388 21.222621 
L 169.196582 21.133297 
L 169.196582 21.088634 
L 169.739433 20.99931 
L 169.85013 20.820662 
L 170.788747 20.731338 
L 170.788747 20.686676 
L 171.493917 20.597352 
L 171.515021 20.508028 
L 171.919235 20.418703 
L 171.919235 20.374041 
L 172.794702 20.284717 
L 172.794702 20.240055 
L 173.173047 20.150731 
L 173.173047 19.972083 
L 173.609573 19.927421 
L 173.609573 19.882759 
L 173.632204 19.748772 
L 173.880059 19.70411 
L 173.880059 19.659448 
L 173.880059 19.614786 
L 174.888618 19.525462 
L 174.888618 19.4808 
L 175.972659 19.391476 
L 175.972659 19.346814 
L 177.563337 19.25749 
L 177.563337 19.212828 
L 178.297706 19.168166 
L 178.297706 19.123503 
L 178.297706 18.989517 
L 179.07324 18.900193 
L 179.07324 18.855531 
L 179.297706 18.766207 
L 179.297706 18.721545 
L 180.499013 18.676883 
L 180.499013 18.632221 
L 180.499013 18.587559 
L 181.220403 18.498234 
L 181.220403 18.453572 
L 181.596322 18.453572 
L 181.596322 18.364248 
L 181.596322 18.319586 
L 182.663609 18.230262 
L 182.729572 18.096276 
L 183.389937 18.006952 
L 183.445722 17.828303 
L 184.152288 17.738979 
L 184.152288 17.649655 
L 184.766416 17.560331 
L 184.859444 17.426345 
L 185.822537 17.337021 
L 185.822537 17.292359 
L 186.415286 17.292359 
L 186.415286 17.203034 
L 186.415286 17.11371 
L 186.831427 17.024386 
L 186.831427 16.711752 
L 187.151264 16.622428 
L 187.238461 16.533103 
L 188.551657 16.443779 
L 188.551657 16.399117 
L 188.984198 16.309793 
L 188.984198 16.265131 
L 190.495658 16.175807 
L 190.532978 15.997159 
L 192.377897 15.907834 
L 192.377897 15.863172 
L 196.201928 15.773848 
L 196.262012 15.550538 
L 198.466819 15.461214 
L 198.508226 15.37189 
L 198.793511 15.327228 
L 198.793511 15.282566 
L 198.793511 15.237903 
L 199.905148 15.148579 
L 199.905148 15.103917 
L 201.313078 15.014593 
L 201.313078 14.969931 
L 202.537677 14.969931 
L 202.537677 14.925269 
" style="fill:none;stroke:#fc8d62;stroke-linecap:square;stroke-width:1.5;"/>
   </g>
   <g id="line2d_13">
    <path clip-path="url(#pcdfaabc6e3)" d="M 44.675 176.2 
L 44.773655 176.002276 
L 44.8867 175.894427 
L 44.988459 175.660753 
L 45.022499 175.588853 
L 45.022499 175.552903 
L 45.124433 175.373154 
L 45.21867 175.265305 
L 45.299216 175.031631 
L 45.445955 174.923782 
L 45.548815 174.762007 
L 45.687516 174.654158 
L 45.781978 174.546308 
L 45.886096 174.438459 
L 45.962762 174.25871 
L 46.154935 174.15086 
L 46.2621 173.989086 
L 46.417537 173.881237 
L 46.526607 173.647563 
L 46.660629 173.539714 
L 46.762236 173.413889 
L 46.875725 173.30604 
L 46.951436 173.23414 
L 47.086705 173.126291 
L 47.190325 173.000466 
L 47.345286 172.892617 
L 47.423932 172.676918 
L 47.594434 172.569069 
L 47.687457 172.479194 
L 47.840206 172.371345 
L 47.933646 172.119696 
L 48.04918 172.011846 
L 48.155196 171.886022 
L 48.24191 171.778173 
L 48.352463 171.634373 
L 48.432092 171.526524 
L 48.528266 171.274875 
L 48.606372 171.167026 
L 48.699798 170.951327 
L 48.811754 170.843477 
L 48.874918 170.699678 
L 49.01622 170.591829 
L 49.11301 170.483979 
L 49.304715 170.37613 
L 49.413772 170.23233 
L 49.459305 170.160431 
L 49.459305 170.124481 
L 49.552113 170.016632 
L 49.687808 169.926757 
L 49.687808 169.908782 
L 49.759558 169.800933 
L 49.88177 169.693083 
L 49.991336 169.513334 
L 50.127579 169.405485 
L 50.232091 169.225736 
L 50.356576 169.117886 
L 50.443953 168.938137 
L 50.587697 168.848262 
L 50.587697 168.830288 
L 50.681323 168.380915 
L 50.897023 168.273065 
L 50.995882 168.057366 
L 51.135551 167.949517 
L 51.237448 167.895592 
L 51.46932 167.787743 
L 51.521174 167.518119 
L 51.645814 167.41027 
L 51.747891 167.176596 
L 51.839474 167.068747 
L 51.933595 166.817098 
L 52.021407 166.709248 
L 52.125127 166.655324 
L 52.243074 166.565449 
L 52.243074 166.547474 
L 52.332523 166.241901 
L 52.449776 166.152026 
L 52.449776 166.134051 
L 52.524951 165.954302 
L 52.708048 165.846453 
L 52.819044 165.630754 
L 52.830719 165.576829 
L 52.830719 165.522904 
L 52.914462 165.307206 
L 53.068363 165.199356 
L 53.150719 164.965682 
L 53.321094 164.857833 
L 53.368236 164.785933 
L 53.452101 164.678084 
L 53.525616 164.570234 
L 53.631894 164.462385 
L 53.738863 164.33656 
L 53.956653 164.228711 
L 54.065017 164.174786 
L 54.249146 164.066937 
L 54.34569 163.923138 
L 54.62469 163.815288 
L 54.71579 163.671489 
L 54.872412 163.563639 
L 54.960477 163.437815 
L 55.121592 163.365915 
L 55.121592 163.329966 
L 55.218001 163.078317 
L 55.538268 162.970467 
L 55.638331 162.826668 
L 55.739057 162.718819 
L 55.841628 162.107672 
L 55.957328 161.999822 
L 56.052764 161.909948 
L 56.220198 161.802098 
L 56.273758 161.352726 
L 56.534373 161.244876 
L 56.640422 161.101077 
L 56.81931 160.993227 
L 56.892879 160.795503 
L 57.101696 160.687654 
L 57.179185 160.615754 
L 57.414072 160.507905 
L 57.50516 160.41803 
L 57.676488 160.310181 
L 57.724798 160.238281 
L 57.99361 160.130432 
L 58.065283 159.950683 
L 58.38689 159.842833 
L 58.488429 159.770934 
L 58.58124 159.681059 
L 58.58124 159.663084 
L 58.639761 159.53726 
L 58.858616 159.42941 
L 58.963578 159.303586 
L 59.038249 159.249661 
L 59.038249 159.195737 
L 59.122559 159.141812 
L 59.22045 159.051937 
L 59.22045 159.033962 
L 59.309388 158.926113 
L 59.572792 158.818264 
L 59.585235 158.764339 
L 59.856673 158.674464 
L 59.856673 158.656489 
L 59.962773 158.54864 
L 60.12821 158.44079 
L 60.235715 158.261041 
L 60.336629 158.153192 
L 60.447716 158.045343 
L 60.54973 157.937493 
L 60.641548 157.829644 
L 60.768241 157.739769 
L 60.768241 157.721794 
L 60.878332 157.542045 
L 61.028215 157.434196 
L 61.058567 157.362296 
L 61.508662 157.254447 
L 61.586553 157.128622 
L 61.753748 157.020773 
L 61.835913 156.984823 
L 62.002174 156.876973 
L 62.089921 156.697224 
L 62.279231 156.589375 
L 62.389568 156.4995 
L 62.470294 156.391651 
L 62.576025 156.247852 
L 62.738522 156.140002 
L 62.843438 156.068103 
L 62.93919 155.978228 
L 62.93919 155.960253 
L 63.02381 155.852404 
L 63.100058 155.780504 
L 63.100058 155.744554 
L 63.180588 155.564805 
L 63.30433 155.456956 
L 63.30433 155.421006 
L 63.504888 155.385056 
L 63.504888 155.313156 
L 63.604947 154.504286 
L 63.823612 154.396436 
L 63.920135 154.234662 
L 64.039414 154.144787 
L 64.039414 154.126812 
L 64.124462 153.875164 
L 64.409267 153.767314 
L 64.479459 153.695415 
L 64.581627 153.587565 
L 64.653986 153.246042 
L 64.741659 153.228067 
L 64.741659 153.138193 
L 64.80705 152.868569 
L 65.009615 152.760719 
L 65.118303 152.61692 
L 65.244686 152.509071 
L 65.335917 152.401221 
L 65.497194 152.293372 
L 65.513862 152.221472 
L 65.724714 152.113623 
L 65.830055 151.933874 
L 65.982807 151.826024 
L 66.086692 151.682225 
L 66.201734 151.59235 
L 66.201734 151.574375 
L 66.311084 151.304752 
L 66.558062 151.196902 
L 66.667808 151.053103 
L 66.747627 150.999178 
L 66.747627 150.945254 
L 66.838215 150.765505 
L 66.965612 150.657655 
L 67.055463 150.585756 
L 67.158693 150.477906 
L 67.256095 150.352082 
L 67.310985 150.280182 
L 67.310985 150.244232 
L 67.395545 150.028533 
L 67.527752 149.920684 
L 67.638656 149.669035 
L 67.723346 149.561186 
L 67.825462 149.435361 
L 67.897411 149.363462 
L 67.897411 149.327512 
L 68.001024 149.147763 
L 68.104065 149.039913 
L 68.207232 148.824214 
L 68.273772 148.788265 
L 68.273772 148.716365 
L 68.358863 148.644465 
L 68.473948 148.536616 
L 68.582974 148.356867 
L 68.648282 148.249017 
L 68.736753 148.015344 
L 68.939282 147.907494 
L 69.000377 147.727745 
L 69.179359 147.619896 
L 69.272987 147.476096 
L 69.426975 147.368247 
L 69.516477 147.206473 
L 69.676631 147.098623 
L 69.769816 146.864949 
L 69.872448 146.7571 
L 69.978827 146.541401 
L 70.030243 146.469501 
L 70.030243 146.433552 
L 70.132158 146.253803 
L 70.281867 146.145953 
L 70.31942 145.966204 
L 70.545248 145.858355 
L 70.652525 145.714555 
L 70.781351 145.624681 
L 70.781351 145.606706 
L 70.882937 145.319107 
L 70.960345 145.301132 
L 70.960345 145.211258 
L 71.06771 144.761885 
L 71.137832 144.654036 
L 71.226721 144.582136 
L 71.423233 144.474287 
L 71.504016 144.294538 
L 71.59015 144.186688 
L 71.678665 144.024914 
L 71.825492 143.917065 
L 71.927122 143.719341 
L 72.015644 143.629466 
L 72.015644 143.611491 
L 72.113499 143.449717 
L 72.273142 143.359842 
L 72.273142 143.341867 
L 72.343586 143.198068 
L 72.467109 143.126169 
L 72.467109 143.090219 
L 72.49886 142.91047 
L 72.633697 142.820595 
L 72.633697 142.80262 
L 72.725591 142.622871 
L 72.906251 142.515022 
L 73.006302 142.371222 
L 73.218107 142.263373 
L 73.316091 142.173498 
L 73.379938 142.065649 
L 73.480826 141.939825 
L 73.565109 141.831975 
L 73.619449 141.724126 
L 73.699629 141.706151 
L 73.699629 141.616276 
L 73.789478 141.454502 
L 74.006552 141.346653 
L 74.105897 141.220828 
L 74.176133 141.112979 
L 74.286532 140.951205 
L 74.461906 140.843355 
L 74.566226 140.699556 
L 74.622113 140.609681 
L 74.622113 140.591706 
L 74.732791 140.393982 
L 74.833362 140.286133 
L 74.943574 140.160309 
L 75.066573 140.052459 
L 75.165025 139.818785 
L 75.340576 139.728911 
L 75.340576 139.710936 
L 75.432378 139.459287 
L 75.601239 139.351438 
L 75.681607 139.225613 
L 75.839434 139.135739 
L 75.839434 139.117764 
L 75.948722 138.95599 
L 76.067555 138.84814 
L 76.17492 138.650416 
L 76.269827 138.542567 
L 76.329171 138.488642 
L 76.44816 138.380793 
L 76.518298 138.201044 
L 76.565833 138.201044 
L 76.565833 138.093194 
L 76.675527 137.877495 
L 76.741121 137.823571 
L 76.741121 137.769646 
L 76.823603 137.643821 
L 76.983196 137.571922 
L 76.983196 137.535972 
L 77.089097 137.302298 
L 77.232441 137.194449 
L 77.339469 135.828356 
L 77.397471 135.720506 
L 77.508498 135.666582 
L 77.623606 135.558732 
L 77.728885 135.253159 
L 77.796161 135.181259 
L 77.796161 135.145309 
L 77.901794 134.947585 
L 78.075682 134.839736 
L 78.178219 134.713911 
L 78.270965 134.659987 
L 78.270965 134.606062 
L 78.375862 134.264539 
L 78.441021 134.156689 
L 78.499037 134.01289 
L 78.659825 133.923015 
L 78.659825 133.905041 
L 78.748207 133.707317 
L 78.812599 133.653392 
L 78.812599 133.599467 
L 78.909523 133.455668 
L 78.991505 133.347818 
L 79.025081 133.311869 
L 79.168528 133.257944 
L 79.168528 133.204019 
L 79.260766 133.02427 
L 79.361246 132.916421 
L 79.463147 132.862496 
L 79.625982 132.754646 
L 79.721111 132.574897 
L 79.820153 132.467048 
L 79.91926 132.305274 
L 80.011525 132.233374 
L 80.011525 132.197424 
L 80.113362 131.981725 
L 80.215598 131.873876 
L 80.325979 131.801976 
L 80.499446 131.694127 
L 80.608166 131.460453 
L 80.684204 131.352604 
L 80.783105 131.172854 
L 80.929795 131.08298 
L 80.929795 131.065005 
L 81.030674 130.97513 
L 81.193067 130.867281 
L 81.289015 130.471833 
L 81.420267 130.381958 
L 81.420267 130.363984 
L 81.523932 130.184234 
L 81.586438 130.076385 
L 81.679994 129.860686 
L 81.824746 129.752837 
L 81.933908 129.662962 
L 82.10425 129.555113 
L 82.203615 129.285489 
L 82.336911 129.17764 
L 82.43644 128.979916 
L 82.523689 128.890041 
L 82.523689 128.872066 
L 82.615125 128.764217 
L 82.713751 128.656367 
L 82.807736 128.512568 
L 82.97645 128.404719 
L 83.080055 128.171045 
L 83.279624 128.063195 
L 83.389502 127.829521 
L 83.477677 127.775597 
L 83.477677 127.721672 
L 83.579596 127.23635 
L 83.703275 127.1285 
L 83.81366 126.966726 
L 83.913637 126.858876 
L 84.020313 126.607228 
L 84.174164 126.517353 
L 84.174164 126.499378 
L 84.280455 126.373554 
L 84.423081 126.265704 
L 84.528166 126.06798 
L 84.627432 125.960131 
L 84.733466 125.708482 
L 84.887972 125.600633 
L 84.998756 125.456834 
L 85.066412 125.348984 
L 85.176069 125.07936 
L 85.383214 124.971511 
L 85.493701 124.791762 
L 85.548804 124.683913 
L 85.620668 124.504163 
L 85.864131 124.414289 
L 85.864131 124.396314 
L 85.971138 124.27049 
L 86.218284 124.16264 
L 86.322663 123.982891 
L 86.394965 123.910991 
L 86.394965 123.875042 
L 86.484963 123.785167 
L 86.626486 123.677318 
L 86.737226 123.335794 
L 86.874951 123.227945 
L 86.943139 123.084146 
L 87.078098 122.994271 
L 87.078098 122.976296 
L 87.12969 122.850472 
L 87.329556 122.778572 
L 87.329556 122.742622 
L 87.424278 122.508949 
L 87.628187 122.419074 
L 87.628187 122.401099 
L 87.713768 122.311225 
L 87.900916 122.22135 
L 87.900916 122.203375 
L 87.998125 122.041601 
L 88.15467 121.933752 
L 88.25225 121.394504 
L 88.333918 121.34058 
L 88.333918 121.286655 
L 88.437061 121.088931 
L 88.54987 120.981081 
L 88.619438 120.927157 
L 88.806564 120.819307 
L 88.901299 120.621583 
L 88.998753 120.513734 
L 89.098524 120.387909 
L 89.426289 120.28006 
L 89.527368 120.100311 
L 89.65955 120.010436 
L 89.65955 119.992461 
L 89.76262 119.686888 
L 89.897324 119.579039 
L 90.008042 119.471189 
L 90.214642 119.36334 
L 90.302353 119.111691 
L 90.353826 119.003841 
L 90.440925 118.931942 
L 90.527874 118.824092 
L 90.599819 118.410669 
L 90.679181 118.30282 
L 90.77947 118.141046 
L 90.864726 118.033196 
L 90.966384 117.871422 
L 91.087637 117.763573 
L 91.196788 116.28963 
L 91.287933 116.199756 
L 91.287933 116.181781 
L 91.387485 115.984057 
L 91.498329 115.894182 
L 91.498329 115.876207 
L 91.583493 115.44481 
L 91.644811 115.33696 
L 91.732945 115.193161 
L 91.84692 115.085311 
L 91.920371 114.977462 
L 92.019042 114.869613 
L 92.125433 114.564039 
L 92.186972 114.492139 
L 92.186972 114.45619 
L 92.265272 114.168591 
L 92.499525 114.060742 
L 92.602463 113.755168 
L 92.72135 113.647319 
L 92.831986 113.485545 
L 92.870816 113.39567 
L 92.870816 113.377695 
L 92.970723 113.161996 
L 93.078365 113.072122 
L 93.078365 113.054147 
L 93.162949 112.856423 
L 93.25359 112.748573 
L 93.359747 112.586799 
L 93.470311 112.496925 
L 93.470311 112.47895 
L 93.574884 112.317176 
L 93.651209 112.245276 
L 93.651209 112.209326 
L 93.755473 112.083502 
L 93.808617 112.029577 
L 93.808617 111.975652 
L 93.897772 111.903753 
L 94.036215 111.795903 
L 94.145458 111.634129 
L 94.319422 111.52628 
L 94.391557 111.292606 
L 94.484779 111.202731 
L 94.484779 111.184756 
L 94.556309 110.987032 
L 94.673243 110.879183 
L 94.783129 110.681459 
L 94.894655 110.591584 
L 94.894655 110.573609 
L 95.004689 110.339936 
L 95.112884 110.250061 
L 95.112884 110.232086 
L 95.217577 110.052337 
L 95.446484 109.944488 
L 95.551298 109.045742 
L 95.71017 108.937893 
L 95.804923 108.758144 
L 95.866159 108.740169 
L 95.866159 108.650294 
L 95.970458 106.870778 
L 96.044049 106.762929 
L 96.1394 106.403431 
L 96.203996 106.313556 
L 96.203996 106.295581 
L 96.300362 106.169757 
L 96.468022 106.061907 
L 96.552536 105.828234 
L 96.744683 105.720384 
L 96.843869 105.612535 
L 96.977689 105.504685 
L 97.019727 105.414811 
L 97.102493 105.414811 
L 97.102493 105.306961 
L 97.210253 104.659865 
L 97.321209 104.552015 
L 97.415504 104.49809 
L 97.549507 104.390241 
L 97.650327 104.228467 
L 97.815055 104.120617 
L 97.923156 103.922893 
L 98.009382 103.815044 
L 98.105946 103.743144 
L 98.254981 103.635295 
L 98.293115 103.563395 
L 98.473483 103.455546 
L 98.547419 103.383646 
L 98.70252 103.275797 
L 98.81068 103.203897 
L 98.914422 103.096048 
L 98.927343 103.060098 
L 99.079602 102.952248 
L 99.180506 102.808449 
L 99.353753 102.736549 
L 99.353753 102.7006 
L 99.45423 101.424381 
L 99.608906 101.316532 
L 99.675163 101.118808 
L 99.754046 101.100833 
L 99.754046 101.010958 
L 99.838733 100.795259 
L 99.97453 100.68741 
L 100.082868 100.453736 
L 100.151791 100.345887 
L 100.221772 100.202087 
L 100.458591 100.094238 
L 100.564559 99.680815 
L 100.649893 99.572965 
L 100.752321 99.375241 
L 100.997657 99.267392 
L 101.10399 99.141568 
L 101.175779 99.033718 
L 101.259714 98.728145 
L 101.350215 98.620295 
L 101.452024 98.530421 
L 101.568346 98.422571 
L 101.652835 98.206872 
L 101.837816 98.099023 
L 101.94603 97.469901 
L 102.124431 97.362052 
L 102.209678 97.272177 
L 102.328779 97.200278 
L 102.328779 97.164328 
L 102.427611 97.110403 
L 102.504593 97.020528 
L 102.504593 97.002554 
L 102.573863 96.948629 
L 102.740395 96.840779 
L 102.842091 96.679005 
L 103.116105 96.571156 
L 103.226271 96.355457 
L 103.387354 96.265582 
L 103.387354 96.247607 
L 103.484894 96.013934 
L 103.55876 95.906084 
L 103.642651 95.81621 
L 103.834798 95.74431 
L 103.834798 95.70836 
L 103.945726 95.564561 
L 104.030865 95.474686 
L 104.030865 95.456711 
L 104.104195 95.276962 
L 104.249446 95.258987 
L 104.249446 95.169113 
L 104.334677 95.115188 
L 104.39147 95.097213 
L 104.39147 95.007339 
L 104.469837 94.270367 
L 104.67352 94.162518 
L 104.782936 93.982769 
L 104.880761 93.892894 
L 104.880761 93.87492 
L 104.962103 93.623271 
L 105.125783 93.515421 
L 105.231892 93.317697 
L 105.579156 93.227823 
L 105.579156 93.209848 
L 105.654998 93.084024 
L 105.746228 92.976174 
L 105.845435 92.868325 
L 106.032729 92.760475 
L 106.134978 92.652626 
L 106.313215 92.544776 
L 106.416494 92.418952 
L 106.486468 92.365027 
L 106.486468 92.311102 
L 106.590484 91.933629 
L 106.671376 91.843755 
L 106.671376 91.82578 
L 106.778393 91.592106 
L 106.885009 91.484257 
L 106.942242 91.376407 
L 107.113485 91.304508 
L 107.113485 91.268558 
L 107.220475 91.142733 
L 107.463642 91.034884 
L 107.562298 90.962984 
L 107.747533 90.855135 
L 107.826324 90.693361 
L 107.906755 90.603486 
L 107.906755 90.585511 
L 108.015761 90.315888 
L 108.073054 90.208038 
L 108.129084 90.136139 
L 108.451634 90.028289 
L 108.557297 89.92044 
L 108.659857 89.81259 
L 108.763184 89.704741 
L 108.858462 89.596891 
L 108.949219 89.524992 
L 109.062984 89.417142 
L 109.143559 89.165494 
L 109.303375 89.057644 
L 109.402387 89.003719 
L 109.557825 88.89587 
L 109.655717 88.752071 
L 109.812073 88.644221 
L 109.922587 88.554347 
L 110.019756 88.446497 
L 110.101462 87.493827 
L 110.141756 87.493827 
L 110.141756 87.385978 
L 110.237948 87.242178 
L 110.367853 87.224203 
L 110.367853 87.134329 
L 110.46933 86.99053 
L 110.561945 86.88268 
L 110.665446 86.756856 
L 110.76945 86.666981 
L 110.76945 86.649006 
L 110.85719 86.505207 
L 111.145934 86.397358 
L 111.244146 86.109759 
L 111.373282 86.00191 
L 111.473166 85.85811 
L 111.654803 85.768236 
L 111.654803 85.750261 
L 111.707292 85.552537 
L 111.787581 85.552537 
L 111.787581 85.444687 
L 111.894533 84.384168 
L 111.978699 84.330243 
L 111.978699 84.276318 
L 112.087527 84.096569 
L 112.283032 84.006695 
L 112.283032 83.98872 
L 112.362477 83.91682 
L 112.530751 83.808971 
L 112.634484 83.593272 
L 112.765344 83.485422 
L 112.837618 83.395548 
L 113.023572 83.287698 
L 113.120143 83.125924 
L 113.293041 83.018075 
L 113.399657 82.946175 
L 113.503822 82.838326 
L 113.613693 82.730476 
L 113.759331 82.622627 
L 113.835529 81.813756 
L 114.101938 81.705907 
L 114.199117 81.544132 
L 114.234062 81.436283 
L 114.299372 81.364383 
L 114.50181 81.256534 
L 114.585457 81.166659 
L 114.767222 81.05881 
L 114.866654 80.825136 
L 114.985943 80.717287 
L 115.085416 80.483613 
L 115.325911 80.375763 
L 115.428158 80.196014 
L 115.529635 80.088165 
L 115.640058 79.854491 
L 115.667925 79.854491 
L 115.667925 79.746642 
L 115.759392 79.584867 
L 115.850359 79.477018 
L 115.956944 79.207394 
L 116.023977 79.099545 
L 116.109275 78.937771 
L 116.335126 78.829921 
L 116.442452 78.704097 
L 116.681689 78.596247 
L 116.784162 78.236749 
L 116.933633 78.146875 
L 116.933633 78.1289 
L 117.031063 77.967126 
L 117.119314 77.859276 
L 117.197602 77.787376 
L 117.298544 77.679527 
L 117.397987 77.571678 
L 117.53416 77.481803 
L 117.53416 77.463828 
L 117.642257 77.266104 
L 117.746423 77.158255 
L 117.832455 77.03243 
L 117.959156 76.960531 
L 117.959156 76.924581 
L 118.015366 76.744832 
L 118.246827 76.636982 
L 118.320969 76.601033 
L 118.459435 76.493183 
L 118.503105 76.385334 
L 118.66444 76.277484 
L 118.753443 76.025835 
L 118.833126 75.917986 
L 118.941607 75.684312 
L 119.077246 75.576463 
L 119.183309 75.414689 
L 119.240272 75.306839 
L 119.247554 75.270889 
L 119.509884 75.16304 
L 119.586186 74.803542 
L 119.66087 74.695692 
L 119.754069 74.587843 
L 119.926182 74.479993 
L 120.032642 74.282269 
L 120.129684 74.17442 
L 120.19536 74.120495 
L 120.361381 74.012646 
L 120.443553 73.940746 
L 120.575667 73.832897 
L 120.683674 73.671122 
L 120.765299 73.563273 
L 120.868774 73.347574 
L 120.978808 73.239725 
L 121.068741 73.07795 
L 121.110299 73.042001 
L 121.110299 72.970101 
L 121.217784 72.592628 
L 121.387526 72.484779 
L 121.425655 72.305029 
L 121.66576 72.215155 
L 121.66576 72.19718 
L 121.774257 71.819707 
L 121.952392 71.711857 
L 122.063071 71.568058 
L 122.123453 71.460209 
L 122.201543 71.352359 
L 122.528369 71.24451 
L 122.626833 71.046786 
L 122.763698 70.938936 
L 122.856811 70.885012 
L 122.921077 70.849062 
L 122.921077 70.777162 
L 122.993821 70.309815 
L 123.115639 70.21994 
L 123.115639 70.201965 
L 123.213619 69.950316 
L 123.390097 69.842467 
L 123.498791 69.644743 
L 123.622163 69.536894 
L 123.647354 69.464994 
L 123.805594 69.393094 
L 123.805594 69.357144 
L 123.903409 69.285245 
L 123.946527 69.285245 
L 123.946527 69.177395 
L 124.039087 68.853847 
L 124.097622 68.745998 
L 124.166453 68.602198 
L 124.275303 68.494349 
L 124.374623 68.404474 
L 124.469395 68.3146 
L 124.469395 68.296625 
L 124.555672 68.224725 
L 124.646491 68.116876 
L 124.742995 67.973076 
L 124.797433 67.865227 
L 124.903396 67.793327 
L 124.956647 67.703453 
L 124.956647 67.685478 
L 125.061359 67.29003 
L 125.301339 67.182181 
L 125.399937 67.074331 
L 125.574797 66.984457 
L 125.574797 66.966482 
L 125.574797 66.948507 
L 125.751255 66.840657 
L 125.844157 66.642933 
L 126.04955 66.571034 
L 126.04955 66.535084 
L 126.131034 66.445209 
L 126.335609 66.33736 
L 126.446108 66.085711 
L 126.469145 66.013811 
L 126.469145 65.977862 
L 126.575545 65.780138 
L 126.603864 65.744188 
L 126.603864 65.672288 
L 126.674116 65.618363 
L 126.79008 65.510514 
L 126.900922 65.402665 
L 127.01599 65.294815 
L 127.050788 65.186966 
L 127.209868 65.079116 
L 127.271785 64.935317 
L 127.462833 64.845442 
L 127.462833 64.827468 
L 127.544068 64.485944 
L 127.786544 64.378095 
L 127.847038 63.695048 
L 128.05042 63.587199 
L 128.130537 63.461374 
L 128.265404 63.353525 
L 128.358666 63.209726 
L 128.516422 63.101876 
L 128.624113 62.976052 
L 128.729985 62.868203 
L 128.838809 62.526679 
L 128.969886 62.41883 
L 129.054049 62.275031 
L 129.195498 62.167181 
L 129.281983 62.059332 
L 129.379863 61.951482 
L 129.457422 61.825658 
L 129.5809 61.753758 
L 129.5809 61.717808 
L 129.683083 61.250461 
L 129.862679 61.142611 
L 129.960067 60.962862 
L 130.11945 60.855013 
L 130.197936 60.747163 
L 130.316248 60.639314 
L 130.425827 60.423615 
L 130.513699 60.315766 
L 130.584862 60.189941 
L 130.769213 60.100067 
L 130.769213 60.082092 
L 130.868514 59.578794 
L 130.950527 59.470945 
L 131.052038 58.823848 
L 131.156976 58.715999 
L 131.266633 58.5003 
L 131.40399 58.39245 
L 131.487454 58.122827 
L 131.667726 58.014977 
L 131.768397 57.763329 
L 131.974384 57.673454 
L 131.974384 57.655479 
L 132.076865 57.188131 
L 132.180882 57.080282 
L 132.283097 56.864583 
L 132.403761 56.756734 
L 132.485941 56.720784 
L 132.647563 56.612934 
L 132.744169 56.253436 
L 132.954925 56.145587 
L 133.048555 55.156967 
L 133.306829 55.049117 
L 133.409795 54.959243 
L 133.553792 54.851393 
L 133.650559 54.707594 
L 133.733831 54.61772 
L 133.733831 54.599745 
L 133.834888 54.50987 
L 133.865096 54.50987 
L 133.865096 54.402021 
L 133.972889 53.467325 
L 134.04949 53.377451 
L 134.04949 53.359476 
L 134.109319 53.215677 
L 134.328987 53.107827 
L 134.436727 52.910103 
L 134.615476 52.802254 
L 134.676521 52.56858 
L 134.814419 52.460731 
L 134.922756 52.280981 
L 135.169802 52.173132 
L 135.267883 51.975408 
L 135.388123 51.867559 
L 135.448781 51.741734 
L 135.687478 51.633885 
L 135.766024 51.57996 
L 135.866243 51.472111 
L 135.937573 51.112612 
L 136.109181 51.004763 
L 136.205011 50.69919 
L 136.350598 50.59134 
L 136.445726 50.195892 
L 136.541523 50.177917 
L 136.541523 50.088043 
L 136.601606 49.962218 
L 136.71949 49.854369 
L 136.786341 49.818419 
L 137.007248 49.71057 
L 137.097157 49.476896 
L 137.317532 49.369046 
L 137.400004 49.297147 
L 137.540663 49.189297 
L 137.640675 49.099423 
L 137.93149 48.991573 
L 138.028714 48.811824 
L 138.134448 48.703975 
L 138.225501 48.57815 
L 138.477718 48.470301 
L 138.587404 48.380426 
L 138.642601 48.272577 
L 138.728124 48.110803 
L 138.838367 48.002953 
L 138.917834 47.769279 
L 139.124832 47.66143 
L 139.232092 47.499656 
L 139.31491 47.409781 
L 139.31491 47.391806 
L 139.394222 47.265982 
L 139.523581 47.158133 
L 139.625101 46.798634 
L 139.698875 46.690785 
L 139.782873 46.618885 
L 139.932108 46.511036 
L 140.038945 46.313312 
L 140.23527 46.205462 
L 140.338346 46.097613 
L 140.37024 46.043688 
L 140.37024 45.989764 
L 140.47728 45.845964 
L 140.566587 45.738115 
L 140.595 45.68419 
L 140.835195 45.64824 
L 140.835195 45.576341 
L 140.944213 45.396592 
L 141.085886 45.288742 
L 141.187749 45.126968 
L 141.26469 45.055068 
L 141.26469 45.019118 
L 141.372021 44.749495 
L 141.440373 44.69557 
L 141.440373 44.641645 
L 141.534238 44.497846 
L 141.674445 44.389997 
L 141.770887 44.228222 
L 141.92428 44.120373 
L 142.019344 43.904674 
L 142.150842 43.8148 
L 142.150842 43.796825 
L 142.259792 43.653025 
L 142.4205 43.581126 
L 142.4205 43.545176 
L 142.523986 43.221628 
L 142.555416 43.221628 
L 142.555416 43.113778 
L 142.590659 42.969979 
L 142.768198 42.952004 
L 142.768198 42.862129 
L 142.78596 42.808205 
L 142.971505 42.700355 
L 143.061873 42.592506 
L 143.355832 42.484656 
L 143.461565 42.412757 
L 143.563307 42.304907 
L 143.660233 42.179083 
L 143.734532 42.071233 
L 143.808723 42.017309 
L 143.904573 41.909459 
L 143.974168 40.471467 
L 144.181347 40.363617 
L 144.286682 40.022094 
L 144.329923 39.968169 
L 144.329923 39.914244 
L 144.432169 39.770445 
L 144.650302 39.662596 
L 144.744274 39.321072 
L 144.864693 39.249173 
L 144.864693 39.213223 
L 144.970056 38.90765 
L 145.131318 38.7998 
L 145.236868 38.673976 
L 145.355001 38.566126 
L 145.445012 38.440302 
L 145.562019 38.332453 
L 145.665199 38.098779 
L 145.721326 37.990929 
L 145.816102 37.829155 
L 145.965686 37.721306 
L 146.074406 37.649406 
L 146.14111 37.541557 
L 146.225953 37.433707 
L 146.415202 37.325858 
L 146.523238 37.128134 
L 146.69164 37.020284 
L 146.770246 36.85851 
L 146.877997 36.750661 
L 146.980519 36.570912 
L 147.141573 36.463062 
L 147.219901 36.355213 
L 147.376194 36.247363 
L 147.485313 36.085589 
L 147.629145 35.97774 
L 147.724253 35.708116 
L 147.974554 35.600266 
L 147.998557 35.546342 
L 148.282174 35.438492 
L 148.380491 35.258743 
L 148.485791 35.168869 
L 148.485791 35.150894 
L 148.550299 34.935195 
L 148.758723 34.827345 
L 148.859327 34.773421 
L 149.096146 34.665571 
L 149.184372 34.539747 
L 149.308082 34.431897 
L 149.411736 34.270123 
L 149.525237 34.162274 
L 149.623374 33.96455 
L 149.728995 33.874675 
L 149.728995 33.8567 
L 149.813333 33.587077 
L 150.068048 33.479227 
L 150.177644 33.353403 
L 150.497018 33.245553 
L 150.606178 33.155679 
L 150.796865 33.047829 
L 150.882313 32.886055 
L 151.046586 32.778206 
L 151.149821 32.652381 
L 151.264941 32.580482 
L 151.264941 32.544532 
L 151.271283 32.472632 
L 151.610516 32.364783 
L 151.703679 32.256933 
L 151.812046 32.149084 
L 151.900839 32.077184 
L 152.032661 31.969335 
L 152.109464 31.87946 
L 152.256362 31.825536 
L 152.256362 31.771611 
L 152.334895 31.501987 
L 152.572599 31.412113 
L 152.572599 31.394138 
L 152.580271 31.340213 
L 152.810926 31.232364 
L 152.878566 31.142489 
L 153.137779 31.03464 
L 153.237792 30.782991 
L 153.282516 30.675142 
L 153.38587 30.459443 
L 153.616694 30.405518 
L 153.616694 30.351593 
L 153.689113 30.171844 
L 153.902618 30.063995 
L 154.003148 29.93817 
L 154.137407 29.830321 
L 154.243314 29.686522 
L 154.391802 29.578672 
L 154.465887 29.488798 
L 154.767306 29.380948 
L 154.858774 29.291074 
L 155.071142 29.219174 
L 155.071142 29.183224 
L 155.140451 29.003475 
L 155.360793 28.895626 
L 155.446499 28.805751 
L 155.618512 28.697902 
L 155.700813 28.590052 
L 155.924355 28.482203 
L 155.989817 28.392328 
L 156.189636 28.284479 
L 156.282509 28.086755 
L 156.456457 27.978905 
L 156.546418 27.871056 
L 156.831301 27.763206 
L 156.922622 27.691307 
L 157.112433 27.583457 
L 157.184217 27.493583 
L 157.397803 27.385733 
L 157.504032 27.241934 
L 157.560399 27.170034 
L 157.560399 27.134085 
L 157.667479 26.97231 
L 157.936876 26.864461 
L 158.041324 26.774586 
L 158.103021 26.720662 
L 158.103021 26.666737 
L 158.205683 26.540913 
L 158.403573 26.433063 
L 158.468533 26.307239 
L 158.696569 26.199389 
L 158.75676 25.965716 
L 158.954533 25.857866 
L 159.06133 25.714067 
L 159.271103 25.606217 
L 159.316955 25.534318 
L 159.555618 25.426468 
L 159.630027 25.282669 
L 159.77627 25.17482 
L 159.86956 25.06697 
L 160.297477 24.959121 
L 160.406305 24.887221 
L 160.479058 24.815321 
L 160.479058 24.779372 
L 160.587508 24.671522 
L 160.710189 24.581648 
L 160.710189 24.563673 
L 160.786419 24.455823 
L 161.095661 24.347974 
L 161.174601 24.294049 
L 161.460723 24.1862 
L 161.536144 24.15025 
L 161.708527 24.0424 
L 161.812848 23.826701 
L 161.98013 23.718852 
L 162.058754 23.682902 
L 162.177218 23.664927 
L 162.177218 23.575053 
L 162.259605 23.395304 
L 162.473784 23.305429 
L 162.473784 23.287454 
L 162.529623 22.820107 
L 162.647523 22.730232 
L 162.647523 22.712257 
L 162.753542 22.604408 
L 163.125531 22.496558 
L 163.196414 22.190985 
L 163.596433 22.083135 
L 163.679844 22.029211 
L 163.962226 21.921361 
L 163.962226 21.885411 
L 164.153168 21.849462 
L 164.153168 21.777562 
L 164.153168 21.507938 
L 164.461279 21.400089 
L 164.521971 21.364139 
L 164.752255 21.274264 
L 164.752255 21.25629 
L 164.787874 21.22034 
L 165.223093 21.11249 
L 165.327555 21.022616 
L 165.589891 20.932741 
L 165.589891 20.914766 
L 165.697858 20.842867 
L 165.968672 20.735017 
L 166.001276 20.699067 
L 166.439353 20.591218 
L 166.531981 20.501343 
L 166.85431 20.411469 
L 166.85431 20.393494 
L 166.939975 20.303619 
L 167.446889 20.19577 
L 167.449215 20.016021 
L 167.954331 19.908171 
L 167.954331 19.890197 
L 168.224913 19.818297 
L 168.224913 19.782347 
L 168.266716 19.692473 
L 169.118155 19.584623 
L 169.202722 19.548673 
L 169.606838 19.440824 
L 169.700452 19.386899 
L 169.88551 19.27905 
L 169.94085 19.2431 
L 170.376842 19.13525 
L 170.473744 19.027401 
L 171.512623 18.919551 
L 171.587635 18.883602 
L 171.939885 18.775752 
L 172.033385 18.685878 
L 173.028108 18.596003 
L 173.028108 18.578028 
L 173.097863 18.524103 
L 173.654763 18.452204 
L 173.654763 18.416254 
L 173.718414 17.859032 
L 174.117354 17.751182 
L 174.117354 17.733208 
L 174.480551 17.625358 
L 174.555113 17.553458 
L 175.079483 17.481559 
L 175.079483 17.445609 
L 175.153942 17.211935 
L 176.889591 17.104086 
L 176.889591 17.086111 
L 177.855389 16.996236 
L 177.855389 16.978261 
L 177.890829 16.942312 
L 178.768919 16.834462 
L 178.791249 16.798512 
L 179.79914 16.690663 
L 179.841668 16.654713 
L 180.240722 16.582813 
L 180.240722 16.546864 
L 180.240722 16.528889 
L 180.566856 16.421039 
L 180.566856 16.385089 
L 181.988052 16.27724 
L 182.066035 16.24129 
L 183.866633 16.133441 
L 183.866633 16.115466 
L 185.643349 16.007616 
L 185.643349 15.989641 
L 188.587977 15.881792 
L 188.587977 15.863817 
L 191.240305 15.755968 
L 191.317752 15.720018 
L 193.700174 15.612168 
L 193.700174 15.594193 
L 196.299529 15.486344 
L 196.299529 15.468369 
L 197.74137 15.36052 
L 197.768279 15.32457 
L 201.477044 15.21672 
L 201.477044 15.198745 
L 202.055352 15.180771 
L 202.055352 15.090896 
L 202.055352 15.072921 
L 204.581686 15.072921 
L 204.581686 15.054946 
" style="fill:none;stroke:#66c2a5;stroke-linecap:square;stroke-width:1.5;"/>
   </g>
   <g id="patch_3">
    <path d="M 44.675 176.2 
L 44.675 14.3 
" style="fill:none;stroke:#000000;stroke-linecap:square;stroke-linejoin:miter;stroke-width:0.8;"/>
   </g>
   <g id="patch_4">
    <path d="M 44.675 176.2 
L 202.3825 176.2 
" style="fill:none;stroke:#000000;stroke-linecap:square;stroke-linejoin:miter;stroke-width:0.8;"/>
   </g>
  </g>
  <g id="legend_1">
   <g id="text_14">
    <!-- farFromEquil -->
    <g transform="translate(215.517188 96.500781)scale(0.1 -0.1)">
     <defs>
      <path d="M 40.4375 6.390625 
Q 35.546875 2.25 31.03125 0.53125 
Q 26.515625 -1.171875 21.34375 -1.171875 
Q 12.796875 -1.171875 8.203125 3 
Q 3.609375 7.171875 3.609375 13.671875 
Q 3.609375 17.484375 5.34375 20.625 
Q 7.078125 23.78125 9.890625 25.6875 
Q 12.703125 27.59375 16.21875 28.5625 
Q 18.796875 29.25 24.03125 29.890625 
Q 34.671875 31.15625 39.703125 32.90625 
Q 39.75 34.71875 39.75 35.203125 
Q 39.75 40.578125 37.25 42.78125 
Q 33.890625 45.75 27.25 45.75 
Q 21.046875 45.75 18.09375 43.578125 
Q 15.140625 41.40625 13.71875 35.890625 
L 5.125 37.0625 
Q 6.296875 42.578125 8.984375 45.96875 
Q 11.671875 49.359375 16.75 51.1875 
Q 21.828125 53.03125 28.515625 53.03125 
Q 35.15625 53.03125 39.296875 51.46875 
Q 43.453125 49.90625 45.40625 47.53125 
Q 47.359375 45.171875 48.140625 41.546875 
Q 48.578125 39.3125 48.578125 33.453125 
L 48.578125 21.734375 
Q 48.578125 9.46875 49.140625 6.21875 
Q 49.703125 2.984375 51.375 0 
L 42.1875 0 
Q 40.828125 2.734375 40.4375 6.390625 
z
M 39.703125 26.03125 
Q 34.90625 24.078125 25.34375 22.703125 
Q 19.921875 21.921875 17.671875 20.9375 
Q 15.4375 19.96875 14.203125 18.09375 
Q 12.984375 16.21875 12.984375 13.921875 
Q 12.984375 10.40625 15.640625 8.0625 
Q 18.3125 5.71875 23.4375 5.71875 
Q 28.515625 5.71875 32.46875 7.9375 
Q 36.421875 10.15625 38.28125 14.015625 
Q 39.703125 17 39.703125 22.796875 
z
" id="ArialMT-97"/>
      <path d="M 8.203125 0 
L 8.203125 71.578125 
L 56.5 71.578125 
L 56.5 63.140625 
L 17.671875 63.140625 
L 17.671875 40.96875 
L 51.265625 40.96875 
L 51.265625 32.515625 
L 17.671875 32.515625 
L 17.671875 0 
z
" id="ArialMT-70"/>
      <path d="M 6.59375 0 
L 6.59375 51.859375 
L 14.453125 51.859375 
L 14.453125 44.578125 
Q 16.890625 48.390625 20.9375 50.703125 
Q 25 53.03125 30.171875 53.03125 
Q 35.9375 53.03125 39.625 50.640625 
Q 43.3125 48.25 44.828125 43.953125 
Q 50.984375 53.03125 60.84375 53.03125 
Q 68.5625 53.03125 72.703125 48.75 
Q 76.859375 44.484375 76.859375 35.59375 
L 76.859375 0 
L 68.109375 0 
L 68.109375 32.671875 
Q 68.109375 37.9375 67.25 40.25 
Q 66.40625 42.578125 64.15625 43.984375 
Q 61.921875 45.40625 58.890625 45.40625 
Q 53.421875 45.40625 49.796875 41.765625 
Q 46.1875 38.140625 46.1875 30.125 
L 46.1875 0 
L 37.40625 0 
L 37.40625 33.6875 
Q 37.40625 39.546875 35.25 42.46875 
Q 33.109375 45.40625 28.21875 45.40625 
Q 24.515625 45.40625 21.359375 43.453125 
Q 18.21875 41.5 16.796875 37.734375 
Q 15.375 33.984375 15.375 26.90625 
L 15.375 0 
z
" id="ArialMT-109"/>
      <path d="M 7.90625 0 
L 7.90625 71.578125 
L 59.671875 71.578125 
L 59.671875 63.140625 
L 17.390625 63.140625 
L 17.390625 41.21875 
L 56.984375 41.21875 
L 56.984375 32.8125 
L 17.390625 32.8125 
L 17.390625 8.453125 
L 61.328125 8.453125 
L 61.328125 0 
z
" id="ArialMT-69"/>
      <path d="M 39.65625 -19.875 
L 39.65625 5.515625 
Q 37.59375 2.640625 33.90625 0.734375 
Q 30.21875 -1.171875 26.078125 -1.171875 
Q 16.84375 -1.171875 10.171875 6.203125 
Q 3.515625 13.578125 3.515625 26.421875 
Q 3.515625 34.234375 6.21875 40.421875 
Q 8.9375 46.625 14.078125 49.828125 
Q 19.234375 53.03125 25.390625 53.03125 
Q 35.015625 53.03125 40.53125 44.921875 
L 40.53125 51.859375 
L 48.4375 51.859375 
L 48.4375 -19.875 
z
M 12.546875 26.078125 
Q 12.546875 16.0625 16.75 11.0625 
Q 20.953125 6.0625 26.8125 6.0625 
Q 32.421875 6.0625 36.46875 10.8125 
Q 40.53125 15.578125 40.53125 25.296875 
Q 40.53125 35.640625 36.25 40.859375 
Q 31.984375 46.09375 26.21875 46.09375 
Q 20.515625 46.09375 16.53125 41.234375 
Q 12.546875 36.375 12.546875 26.078125 
z
" id="ArialMT-113"/>
      <path d="M 40.578125 0 
L 40.578125 7.625 
Q 34.515625 -1.171875 24.125 -1.171875 
Q 19.53125 -1.171875 15.546875 0.578125 
Q 11.578125 2.34375 9.640625 5 
Q 7.71875 7.671875 6.9375 11.53125 
Q 6.390625 14.109375 6.390625 19.734375 
L 6.390625 51.859375 
L 15.1875 51.859375 
L 15.1875 23.09375 
Q 15.1875 16.21875 15.71875 13.8125 
Q 16.546875 10.359375 19.234375 8.375 
Q 21.921875 6.390625 25.875 6.390625 
Q 29.828125 6.390625 33.296875 8.421875 
Q 36.765625 10.453125 38.203125 13.9375 
Q 39.65625 17.4375 39.65625 24.078125 
L 39.65625 51.859375 
L 48.4375 51.859375 
L 48.4375 0 
z
" id="ArialMT-117"/>
      <path d="M 6.390625 0 
L 6.390625 71.578125 
L 15.1875 71.578125 
L 15.1875 0 
z
" id="ArialMT-108"/>
     </defs>
     <use xlink:href="#ArialMT-102"/>
     <use x="27.783203" xlink:href="#ArialMT-97"/>
     <use x="83.398438" xlink:href="#ArialMT-114"/>
     <use x="116.699219" xlink:href="#ArialMT-70"/>
     <use x="177.783203" xlink:href="#ArialMT-114"/>
     <use x="211.083984" xlink:href="#ArialMT-111"/>
     <use x="266.699219" xlink:href="#ArialMT-109"/>
     <use x="350" xlink:href="#ArialMT-69"/>
     <use x="416.699219" xlink:href="#ArialMT-113"/>
     <use x="472.314453" xlink:href="#ArialMT-117"/>
     <use x="527.929688" xlink:href="#ArialMT-105"/>
     <use x="550.146484" xlink:href="#ArialMT-108"/>
    </g>
   </g>
   <g id="line2d_14">
    <path d="M 217.907813 107.146094 
L 237.907813 107.146094 
" style="fill:none;stroke:#66c2a5;stroke-linecap:square;stroke-width:1.5;"/>
   </g>
   <g id="line2d_15"/>
   <g id="text_15">
    <!-- False -->
    <g transform="translate(245.907813 110.646094)scale(0.1 -0.1)">
     <defs>
      <path d="M 3.078125 15.484375 
L 11.765625 16.84375 
Q 12.5 11.625 15.84375 8.84375 
Q 19.1875 6.0625 25.203125 6.0625 
Q 31.25 6.0625 34.171875 8.515625 
Q 37.109375 10.984375 37.109375 14.3125 
Q 37.109375 17.28125 34.515625 19 
Q 32.71875 20.171875 25.53125 21.96875 
Q 15.875 24.421875 12.140625 26.203125 
Q 8.40625 27.984375 6.46875 31.125 
Q 4.546875 34.28125 4.546875 38.09375 
Q 4.546875 41.546875 6.125 44.5 
Q 7.71875 47.46875 10.453125 49.421875 
Q 12.5 50.921875 16.03125 51.96875 
Q 19.578125 53.03125 23.640625 53.03125 
Q 29.734375 53.03125 34.34375 51.265625 
Q 38.96875 49.515625 41.15625 46.5 
Q 43.359375 43.5 44.1875 38.484375 
L 35.59375 37.3125 
Q 35.015625 41.3125 32.203125 43.546875 
Q 29.390625 45.796875 24.265625 45.796875 
Q 18.21875 45.796875 15.625 43.796875 
Q 13.03125 41.796875 13.03125 39.109375 
Q 13.03125 37.40625 14.109375 36.03125 
Q 15.1875 34.625 17.484375 33.6875 
Q 18.796875 33.203125 25.25 31.453125 
Q 34.578125 28.953125 38.25 27.359375 
Q 41.9375 25.78125 44.03125 22.75 
Q 46.140625 19.734375 46.140625 15.234375 
Q 46.140625 10.84375 43.578125 6.953125 
Q 41.015625 3.078125 36.171875 0.953125 
Q 31.34375 -1.171875 25.25 -1.171875 
Q 15.140625 -1.171875 9.84375 3.03125 
Q 4.546875 7.234375 3.078125 15.484375 
z
" id="ArialMT-115"/>
     </defs>
     <use xlink:href="#ArialMT-70"/>
     <use x="61.083984" xlink:href="#ArialMT-97"/>
     <use x="116.699219" xlink:href="#ArialMT-108"/>
     <use x="138.916016" xlink:href="#ArialMT-115"/>
     <use x="188.916016" xlink:href="#ArialMT-101"/>
    </g>
   </g>
   <g id="line2d_16">
    <path d="M 217.907813 121.291406 
L 237.907813 121.291406 
" style="fill:none;stroke:#fc8d62;stroke-linecap:square;stroke-width:1.5;"/>
   </g>
   <g id="line2d_17"/>
   <g id="text_16">
    <!-- True -->
    <g transform="translate(245.907813 124.791406)scale(0.1 -0.1)">
     <defs>
      <path d="M 25.921875 0 
L 25.921875 63.140625 
L 2.34375 63.140625 
L 2.34375 71.578125 
L 59.078125 71.578125 
L 59.078125 63.140625 
L 35.40625 63.140625 
L 35.40625 0 
z
" id="ArialMT-84"/>
     </defs>
     <use xlink:href="#ArialMT-84"/>
     <use x="57.333984" xlink:href="#ArialMT-114"/>
     <use x="90.634766" xlink:href="#ArialMT-117"/>
     <use x="146.25" xlink:href="#ArialMT-101"/>
    </g>
   </g>
  </g>
 </g>
 <defs>
  <clipPath id="pcdfaabc6e3">
   <rect height="161.9" width="157.7075" x="44.675" y="14.3"/>
  </clipPath>
 </defs>
</svg>
