<?xml version="1.0" encoding="utf-8" standalone="no"?>
<!DOCTYPE svg PUBLIC "-//W3C//DTD SVG 1.1//EN"
  "http://www.w3.org/Graphics/SVG/1.1/DTD/svg11.dtd">
<!-- Created with matplotlib (https://matplotlib.org/) -->
<svg height="216pt" version="1.1" viewBox="0 0 276.625 216" width="276.625pt" xmlns="http://www.w3.org/2000/svg" xmlns:xlink="http://www.w3.org/1999/xlink">
 <metadata>
  <rdf:RDF xmlns:cc="http://creativecommons.org/ns#" xmlns:dc="http://purl.org/dc/elements/1.1/" xmlns:rdf="http://www.w3.org/1999/02/22-rdf-syntax-ns#">
   <cc:Work>
    <dc:type rdf:resource="http://purl.org/dc/dcmitype/StillImage"/>
    <dc:date>2021-11-29T18:06:11.215213</dc:date>
    <dc:format>image/svg+xml</dc:format>
    <dc:creator>
     <cc:Agent>
      <dc:title>Matplotlib v3.3.4, https://matplotlib.org/</dc:title>
     </cc:Agent>
    </dc:creator>
   </cc:Work>
  </rdf:RDF>
 </metadata>
 <defs>
  <style type="text/css">*{stroke-linecap:butt;stroke-linejoin:round;}</style>
 </defs>
 <g id="figure_1">
  <g id="patch_1">
   <path d="M 0 216 
L 276.625 216 
L 276.625 0 
L 0 0 
z
" style="fill:none;"/>
  </g>
  <g id="axes_1">
   <g id="patch_2">
    <path d="M 44.675 176.2 
L 202.43375 176.2 
L 202.43375 14.3 
L 44.675 14.3 
z
" style="fill:#ffffff;"/>
   </g>
   <g id="matplotlib.axis_1">
    <g id="xtick_1">
     <g id="line2d_1">
      <defs>
       <path d="M 0 0 
L 0 3.5 
" id="mab449b2589" style="stroke:#000000;stroke-width:0.8;"/>
      </defs>
      <g>
       <use style="stroke:#000000;stroke-width:0.8;" x="44.675" xlink:href="#mab449b2589" y="176.2"/>
      </g>
     </g>
     <g id="text_1">
      <!-- 0 -->
      <g transform="translate(41.894531 190.357812)scale(0.1 -0.1)">
       <defs>
        <path d="M 4.15625 35.296875 
Q 4.15625 48 6.765625 55.734375 
Q 9.375 63.484375 14.515625 67.671875 
Q 19.671875 71.875 27.484375 71.875 
Q 33.25 71.875 37.59375 69.546875 
Q 41.9375 67.234375 44.765625 62.859375 
Q 47.609375 58.5 49.21875 52.21875 
Q 50.828125 45.953125 50.828125 35.296875 
Q 50.828125 22.703125 48.234375 14.96875 
Q 45.65625 7.234375 40.5 3 
Q 35.359375 -1.21875 27.484375 -1.21875 
Q 17.140625 -1.21875 11.234375 6.203125 
Q 4.15625 15.140625 4.15625 35.296875 
z
M 13.1875 35.296875 
Q 13.1875 17.671875 17.3125 11.828125 
Q 21.4375 6 27.484375 6 
Q 33.546875 6 37.671875 11.859375 
Q 41.796875 17.71875 41.796875 35.296875 
Q 41.796875 52.984375 37.671875 58.78125 
Q 33.546875 64.59375 27.390625 64.59375 
Q 21.34375 64.59375 17.71875 59.46875 
Q 13.1875 52.9375 13.1875 35.296875 
z
" id="ArialMT-48"/>
       </defs>
       <use xlink:href="#ArialMT-48"/>
      </g>
     </g>
    </g>
    <g id="xtick_2">
     <g id="line2d_2">
      <g>
       <use style="stroke:#000000;stroke-width:0.8;" x="79.7325" xlink:href="#mab449b2589" y="176.2"/>
      </g>
     </g>
     <g id="text_2">
      <!-- 1 -->
      <g transform="translate(76.952031 190.357812)scale(0.1 -0.1)">
       <defs>
        <path d="M 37.25 0 
L 28.46875 0 
L 28.46875 56 
Q 25.296875 52.984375 20.140625 49.953125 
Q 14.984375 46.921875 10.890625 45.40625 
L 10.890625 53.90625 
Q 18.265625 57.375 23.78125 62.296875 
Q 29.296875 67.234375 31.59375 71.875 
L 37.25 71.875 
z
" id="ArialMT-49"/>
       </defs>
       <use xlink:href="#ArialMT-49"/>
      </g>
     </g>
    </g>
    <g id="xtick_3">
     <g id="line2d_3">
      <g>
       <use style="stroke:#000000;stroke-width:0.8;" x="114.79" xlink:href="#mab449b2589" y="176.2"/>
      </g>
     </g>
     <g id="text_3">
      <!-- 2 -->
      <g transform="translate(112.009531 190.357812)scale(0.1 -0.1)">
       <defs>
        <path d="M 50.34375 8.453125 
L 50.34375 0 
L 3.03125 0 
Q 2.9375 3.171875 4.046875 6.109375 
Q 5.859375 10.9375 9.828125 15.625 
Q 13.8125 20.3125 21.34375 26.46875 
Q 33.015625 36.03125 37.109375 41.625 
Q 41.21875 47.21875 41.21875 52.203125 
Q 41.21875 57.421875 37.46875 61 
Q 33.734375 64.59375 27.734375 64.59375 
Q 21.390625 64.59375 17.578125 60.78125 
Q 13.765625 56.984375 13.71875 50.25 
L 4.6875 51.171875 
Q 5.609375 61.28125 11.65625 66.578125 
Q 17.71875 71.875 27.9375 71.875 
Q 38.234375 71.875 44.234375 66.15625 
Q 50.25 60.453125 50.25 52 
Q 50.25 47.703125 48.484375 43.546875 
Q 46.734375 39.40625 42.65625 34.8125 
Q 38.578125 30.21875 29.109375 22.21875 
Q 21.1875 15.578125 18.9375 13.203125 
Q 16.703125 10.84375 15.234375 8.453125 
z
" id="ArialMT-50"/>
       </defs>
       <use xlink:href="#ArialMT-50"/>
      </g>
     </g>
    </g>
    <g id="xtick_4">
     <g id="line2d_4">
      <g>
       <use style="stroke:#000000;stroke-width:0.8;" x="149.8475" xlink:href="#mab449b2589" y="176.2"/>
      </g>
     </g>
     <g id="text_4">
      <!-- 3 -->
      <g transform="translate(147.067031 190.357812)scale(0.1 -0.1)">
       <defs>
        <path d="M 4.203125 18.890625 
L 12.984375 20.0625 
Q 14.5 12.59375 18.140625 9.296875 
Q 21.78125 6 27 6 
Q 33.203125 6 37.46875 10.296875 
Q 41.75 14.59375 41.75 20.953125 
Q 41.75 27 37.796875 30.921875 
Q 33.84375 34.859375 27.734375 34.859375 
Q 25.25 34.859375 21.53125 33.890625 
L 22.515625 41.609375 
Q 23.390625 41.5 23.921875 41.5 
Q 29.546875 41.5 34.03125 44.421875 
Q 38.53125 47.359375 38.53125 53.46875 
Q 38.53125 58.296875 35.25 61.46875 
Q 31.984375 64.65625 26.8125 64.65625 
Q 21.6875 64.65625 18.265625 61.421875 
Q 14.84375 58.203125 13.875 51.765625 
L 5.078125 53.328125 
Q 6.6875 62.15625 12.390625 67.015625 
Q 18.109375 71.875 26.609375 71.875 
Q 32.46875 71.875 37.390625 69.359375 
Q 42.328125 66.84375 44.9375 62.5 
Q 47.5625 58.15625 47.5625 53.265625 
Q 47.5625 48.640625 45.0625 44.828125 
Q 42.578125 41.015625 37.703125 38.765625 
Q 44.046875 37.3125 47.5625 32.6875 
Q 51.078125 28.078125 51.078125 21.140625 
Q 51.078125 11.765625 44.234375 5.25 
Q 37.40625 -1.265625 26.953125 -1.265625 
Q 17.53125 -1.265625 11.296875 4.34375 
Q 5.078125 9.96875 4.203125 18.890625 
z
" id="ArialMT-51"/>
       </defs>
       <use xlink:href="#ArialMT-51"/>
      </g>
     </g>
    </g>
    <g id="xtick_5">
     <g id="line2d_5">
      <g>
       <use style="stroke:#000000;stroke-width:0.8;" x="184.905" xlink:href="#mab449b2589" y="176.2"/>
      </g>
     </g>
     <g id="text_5">
      <!-- 4 -->
      <g transform="translate(182.124531 190.357812)scale(0.1 -0.1)">
       <defs>
        <path d="M 32.328125 0 
L 32.328125 17.140625 
L 1.265625 17.140625 
L 1.265625 25.203125 
L 33.9375 71.578125 
L 41.109375 71.578125 
L 41.109375 25.203125 
L 50.78125 25.203125 
L 50.78125 17.140625 
L 41.109375 17.140625 
L 41.109375 0 
z
M 32.328125 25.203125 
L 32.328125 57.46875 
L 9.90625 25.203125 
z
" id="ArialMT-52"/>
       </defs>
       <use xlink:href="#ArialMT-52"/>
      </g>
     </g>
    </g>
    <g id="text_6">
     <!-- Specificity -->
     <g transform="translate(101.047344 203.625)scale(0.1 -0.1)">
      <defs>
       <path d="M 4.5 23 
L 13.421875 23.78125 
Q 14.0625 18.40625 16.375 14.96875 
Q 18.703125 11.53125 23.578125 9.40625 
Q 28.46875 7.28125 34.578125 7.28125 
Q 39.984375 7.28125 44.140625 8.890625 
Q 48.296875 10.5 50.3125 13.296875 
Q 52.34375 16.109375 52.34375 19.4375 
Q 52.34375 22.796875 50.390625 25.3125 
Q 48.4375 27.828125 43.953125 29.546875 
Q 41.0625 30.671875 31.203125 33.03125 
Q 21.34375 35.40625 17.390625 37.5 
Q 12.25 40.1875 9.734375 44.15625 
Q 7.234375 48.140625 7.234375 53.078125 
Q 7.234375 58.5 10.296875 63.203125 
Q 13.375 67.921875 19.28125 70.359375 
Q 25.203125 72.796875 32.421875 72.796875 
Q 40.375 72.796875 46.453125 70.234375 
Q 52.546875 67.671875 55.8125 62.6875 
Q 59.078125 57.71875 59.328125 51.421875 
L 50.25 50.734375 
Q 49.515625 57.515625 45.28125 60.984375 
Q 41.0625 64.453125 32.8125 64.453125 
Q 24.21875 64.453125 20.28125 61.296875 
Q 16.359375 58.15625 16.359375 53.71875 
Q 16.359375 49.859375 19.140625 47.359375 
Q 21.875 44.875 33.421875 42.265625 
Q 44.96875 39.65625 49.265625 37.703125 
Q 55.515625 34.8125 58.484375 30.390625 
Q 61.46875 25.984375 61.46875 20.21875 
Q 61.46875 14.5 58.203125 9.4375 
Q 54.9375 4.390625 48.796875 1.578125 
Q 42.671875 -1.21875 35.015625 -1.21875 
Q 25.296875 -1.21875 18.71875 1.609375 
Q 12.15625 4.4375 8.421875 10.125 
Q 4.6875 15.828125 4.5 23 
z
" id="ArialMT-83"/>
       <path d="M 6.59375 -19.875 
L 6.59375 51.859375 
L 14.59375 51.859375 
L 14.59375 45.125 
Q 17.4375 49.078125 21 51.046875 
Q 24.5625 53.03125 29.640625 53.03125 
Q 36.28125 53.03125 41.359375 49.609375 
Q 46.4375 46.1875 49.015625 39.953125 
Q 51.609375 33.734375 51.609375 26.3125 
Q 51.609375 18.359375 48.75 11.984375 
Q 45.90625 5.609375 40.453125 2.21875 
Q 35.015625 -1.171875 29 -1.171875 
Q 24.609375 -1.171875 21.109375 0.6875 
Q 17.625 2.546875 15.375 5.375 
L 15.375 -19.875 
z
M 14.546875 25.640625 
Q 14.546875 15.625 18.59375 10.84375 
Q 22.65625 6.0625 28.421875 6.0625 
Q 34.28125 6.0625 38.453125 11.015625 
Q 42.625 15.96875 42.625 26.375 
Q 42.625 36.28125 38.546875 41.203125 
Q 34.46875 46.140625 28.8125 46.140625 
Q 23.1875 46.140625 18.859375 40.890625 
Q 14.546875 35.640625 14.546875 25.640625 
z
" id="ArialMT-112"/>
       <path d="M 42.09375 16.703125 
L 51.171875 15.578125 
Q 49.03125 7.625 43.21875 3.21875 
Q 37.40625 -1.171875 28.375 -1.171875 
Q 17 -1.171875 10.328125 5.828125 
Q 3.65625 12.84375 3.65625 25.484375 
Q 3.65625 38.578125 10.390625 45.796875 
Q 17.140625 53.03125 27.875 53.03125 
Q 38.28125 53.03125 44.875 45.953125 
Q 51.46875 38.875 51.46875 26.03125 
Q 51.46875 25.25 51.421875 23.6875 
L 12.75 23.6875 
Q 13.234375 15.140625 17.578125 10.59375 
Q 21.921875 6.0625 28.421875 6.0625 
Q 33.25 6.0625 36.671875 8.59375 
Q 40.09375 11.140625 42.09375 16.703125 
z
M 13.234375 30.90625 
L 42.1875 30.90625 
Q 41.609375 37.453125 38.875 40.71875 
Q 34.671875 45.796875 27.984375 45.796875 
Q 21.921875 45.796875 17.796875 41.75 
Q 13.671875 37.703125 13.234375 30.90625 
z
" id="ArialMT-101"/>
       <path d="M 40.4375 19 
L 49.078125 17.875 
Q 47.65625 8.9375 41.8125 3.875 
Q 35.984375 -1.171875 27.484375 -1.171875 
Q 16.84375 -1.171875 10.375 5.78125 
Q 3.90625 12.75 3.90625 25.734375 
Q 3.90625 34.125 6.6875 40.421875 
Q 9.46875 46.734375 15.15625 49.875 
Q 20.84375 53.03125 27.546875 53.03125 
Q 35.984375 53.03125 41.359375 48.75 
Q 46.734375 44.484375 48.25 36.625 
L 39.703125 35.296875 
Q 38.484375 40.53125 35.375 43.15625 
Q 32.28125 45.796875 27.875 45.796875 
Q 21.234375 45.796875 17.078125 41.03125 
Q 12.9375 36.28125 12.9375 25.984375 
Q 12.9375 15.53125 16.9375 10.796875 
Q 20.953125 6.0625 27.390625 6.0625 
Q 32.5625 6.0625 36.03125 9.234375 
Q 39.5 12.40625 40.4375 19 
z
" id="ArialMT-99"/>
       <path d="M 6.640625 61.46875 
L 6.640625 71.578125 
L 15.4375 71.578125 
L 15.4375 61.46875 
z
M 6.640625 0 
L 6.640625 51.859375 
L 15.4375 51.859375 
L 15.4375 0 
z
" id="ArialMT-105"/>
       <path d="M 8.6875 0 
L 8.6875 45.015625 
L 0.921875 45.015625 
L 0.921875 51.859375 
L 8.6875 51.859375 
L 8.6875 57.375 
Q 8.6875 62.59375 9.625 65.140625 
Q 10.890625 68.5625 14.078125 70.671875 
Q 17.28125 72.796875 23.046875 72.796875 
Q 26.765625 72.796875 31.25 71.921875 
L 29.9375 64.265625 
Q 27.203125 64.75 24.75 64.75 
Q 20.75 64.75 19.09375 63.03125 
Q 17.4375 61.328125 17.4375 56.640625 
L 17.4375 51.859375 
L 27.546875 51.859375 
L 27.546875 45.015625 
L 17.4375 45.015625 
L 17.4375 0 
z
" id="ArialMT-102"/>
       <path d="M 25.78125 7.859375 
L 27.046875 0.09375 
Q 23.34375 -0.6875 20.40625 -0.6875 
Q 15.625 -0.6875 12.984375 0.828125 
Q 10.359375 2.34375 9.28125 4.8125 
Q 8.203125 7.28125 8.203125 15.1875 
L 8.203125 45.015625 
L 1.765625 45.015625 
L 1.765625 51.859375 
L 8.203125 51.859375 
L 8.203125 64.703125 
L 16.9375 69.96875 
L 16.9375 51.859375 
L 25.78125 51.859375 
L 25.78125 45.015625 
L 16.9375 45.015625 
L 16.9375 14.703125 
Q 16.9375 10.9375 17.40625 9.859375 
Q 17.875 8.796875 18.921875 8.15625 
Q 19.96875 7.515625 21.921875 7.515625 
Q 23.390625 7.515625 25.78125 7.859375 
z
" id="ArialMT-116"/>
       <path d="M 6.203125 -19.96875 
L 5.21875 -11.71875 
Q 8.109375 -12.5 10.25 -12.5 
Q 13.1875 -12.5 14.9375 -11.515625 
Q 16.703125 -10.546875 17.828125 -8.796875 
Q 18.65625 -7.46875 20.515625 -2.25 
Q 20.75 -1.515625 21.296875 -0.09375 
L 1.609375 51.859375 
L 11.078125 51.859375 
L 21.875 21.828125 
Q 23.96875 16.109375 25.640625 9.8125 
Q 27.15625 15.875 29.25 21.625 
L 40.328125 51.859375 
L 49.125 51.859375 
L 29.390625 -0.875 
Q 26.21875 -9.421875 24.46875 -12.640625 
Q 22.125 -17 19.09375 -19.015625 
Q 16.0625 -21.046875 11.859375 -21.046875 
Q 9.328125 -21.046875 6.203125 -19.96875 
z
" id="ArialMT-121"/>
      </defs>
      <use xlink:href="#ArialMT-83"/>
      <use x="66.699219" xlink:href="#ArialMT-112"/>
      <use x="122.314453" xlink:href="#ArialMT-101"/>
      <use x="177.929688" xlink:href="#ArialMT-99"/>
      <use x="227.929688" xlink:href="#ArialMT-105"/>
      <use x="250.146484" xlink:href="#ArialMT-102"/>
      <use x="277.929688" xlink:href="#ArialMT-105"/>
      <use x="300.146484" xlink:href="#ArialMT-99"/>
      <use x="350.146484" xlink:href="#ArialMT-105"/>
      <use x="372.363281" xlink:href="#ArialMT-116"/>
      <use x="400.146484" xlink:href="#ArialMT-121"/>
     </g>
    </g>
   </g>
   <g id="matplotlib.axis_2">
    <g id="ytick_1">
     <g id="line2d_6">
      <defs>
       <path d="M 0 0 
L -3.5 0 
" id="mad8f856b62" style="stroke:#000000;stroke-width:0.8;"/>
      </defs>
      <g>
       <use style="stroke:#000000;stroke-width:0.8;" x="44.675" xlink:href="#mad8f856b62" y="176.2"/>
      </g>
     </g>
     <g id="text_7">
      <!-- 0.0 -->
      <g transform="translate(23.775 179.778906)scale(0.1 -0.1)">
       <defs>
        <path d="M 9.078125 0 
L 9.078125 10.015625 
L 19.09375 10.015625 
L 19.09375 0 
z
" id="ArialMT-46"/>
       </defs>
       <use xlink:href="#ArialMT-48"/>
       <use x="55.615234" xlink:href="#ArialMT-46"/>
       <use x="83.398438" xlink:href="#ArialMT-48"/>
      </g>
     </g>
    </g>
    <g id="ytick_2">
     <g id="line2d_7">
      <g>
       <use style="stroke:#000000;stroke-width:0.8;" x="44.675" xlink:href="#mad8f856b62" y="143.82"/>
      </g>
     </g>
     <g id="text_8">
      <!-- 0.2 -->
      <g transform="translate(23.775 147.398906)scale(0.1 -0.1)">
       <use xlink:href="#ArialMT-48"/>
       <use x="55.615234" xlink:href="#ArialMT-46"/>
       <use x="83.398438" xlink:href="#ArialMT-50"/>
      </g>
     </g>
    </g>
    <g id="ytick_3">
     <g id="line2d_8">
      <g>
       <use style="stroke:#000000;stroke-width:0.8;" x="44.675" xlink:href="#mad8f856b62" y="111.44"/>
      </g>
     </g>
     <g id="text_9">
      <!-- 0.4 -->
      <g transform="translate(23.775 115.018906)scale(0.1 -0.1)">
       <use xlink:href="#ArialMT-48"/>
       <use x="55.615234" xlink:href="#ArialMT-46"/>
       <use x="83.398438" xlink:href="#ArialMT-52"/>
      </g>
     </g>
    </g>
    <g id="ytick_4">
     <g id="line2d_9">
      <g>
       <use style="stroke:#000000;stroke-width:0.8;" x="44.675" xlink:href="#mad8f856b62" y="79.06"/>
      </g>
     </g>
     <g id="text_10">
      <!-- 0.6 -->
      <g transform="translate(23.775 82.638906)scale(0.1 -0.1)">
       <defs>
        <path d="M 49.75 54.046875 
L 41.015625 53.375 
Q 39.84375 58.546875 37.703125 60.890625 
Q 34.125 64.65625 28.90625 64.65625 
Q 24.703125 64.65625 21.53125 62.3125 
Q 17.390625 59.28125 14.984375 53.46875 
Q 12.59375 47.65625 12.5 36.921875 
Q 15.671875 41.75 20.265625 44.09375 
Q 24.859375 46.4375 29.890625 46.4375 
Q 38.671875 46.4375 44.84375 39.96875 
Q 51.03125 33.5 51.03125 23.25 
Q 51.03125 16.5 48.125 10.71875 
Q 45.21875 4.9375 40.140625 1.859375 
Q 35.0625 -1.21875 28.609375 -1.21875 
Q 17.625 -1.21875 10.6875 6.859375 
Q 3.765625 14.9375 3.765625 33.5 
Q 3.765625 54.25 11.421875 63.671875 
Q 18.109375 71.875 29.4375 71.875 
Q 37.890625 71.875 43.28125 67.140625 
Q 48.6875 62.40625 49.75 54.046875 
z
M 13.875 23.1875 
Q 13.875 18.65625 15.796875 14.5 
Q 17.71875 10.359375 21.1875 8.171875 
Q 24.65625 6 28.46875 6 
Q 34.03125 6 38.03125 10.484375 
Q 42.046875 14.984375 42.046875 22.703125 
Q 42.046875 30.125 38.078125 34.390625 
Q 34.125 38.671875 28.125 38.671875 
Q 22.171875 38.671875 18.015625 34.390625 
Q 13.875 30.125 13.875 23.1875 
z
" id="ArialMT-54"/>
       </defs>
       <use xlink:href="#ArialMT-48"/>
       <use x="55.615234" xlink:href="#ArialMT-46"/>
       <use x="83.398438" xlink:href="#ArialMT-54"/>
      </g>
     </g>
    </g>
    <g id="ytick_5">
     <g id="line2d_10">
      <g>
       <use style="stroke:#000000;stroke-width:0.8;" x="44.675" xlink:href="#mad8f856b62" y="46.68"/>
      </g>
     </g>
     <g id="text_11">
      <!-- 0.8 -->
      <g transform="translate(23.775 50.258906)scale(0.1 -0.1)">
       <defs>
        <path d="M 17.671875 38.8125 
Q 12.203125 40.828125 9.5625 44.53125 
Q 6.9375 48.25 6.9375 53.421875 
Q 6.9375 61.234375 12.546875 66.546875 
Q 18.171875 71.875 27.484375 71.875 
Q 36.859375 71.875 42.578125 66.421875 
Q 48.296875 60.984375 48.296875 53.171875 
Q 48.296875 48.1875 45.671875 44.5 
Q 43.0625 40.828125 37.75 38.8125 
Q 44.34375 36.671875 47.78125 31.875 
Q 51.21875 27.09375 51.21875 20.453125 
Q 51.21875 11.28125 44.71875 5.03125 
Q 38.234375 -1.21875 27.640625 -1.21875 
Q 17.046875 -1.21875 10.546875 5.046875 
Q 4.046875 11.328125 4.046875 20.703125 
Q 4.046875 27.6875 7.59375 32.390625 
Q 11.140625 37.109375 17.671875 38.8125 
z
M 15.921875 53.71875 
Q 15.921875 48.640625 19.1875 45.40625 
Q 22.46875 42.1875 27.6875 42.1875 
Q 32.765625 42.1875 36.015625 45.375 
Q 39.265625 48.578125 39.265625 53.21875 
Q 39.265625 58.0625 35.90625 61.359375 
Q 32.5625 64.65625 27.59375 64.65625 
Q 22.5625 64.65625 19.234375 61.421875 
Q 15.921875 58.203125 15.921875 53.71875 
z
M 13.09375 20.65625 
Q 13.09375 16.890625 14.875 13.375 
Q 16.65625 9.859375 20.171875 7.921875 
Q 23.6875 6 27.734375 6 
Q 34.03125 6 38.125 10.046875 
Q 42.234375 14.109375 42.234375 20.359375 
Q 42.234375 26.703125 38.015625 30.859375 
Q 33.796875 35.015625 27.4375 35.015625 
Q 21.234375 35.015625 17.15625 30.90625 
Q 13.09375 26.8125 13.09375 20.65625 
z
" id="ArialMT-56"/>
       </defs>
       <use xlink:href="#ArialMT-48"/>
       <use x="55.615234" xlink:href="#ArialMT-46"/>
       <use x="83.398438" xlink:href="#ArialMT-56"/>
      </g>
     </g>
    </g>
    <g id="ytick_6">
     <g id="line2d_11">
      <g>
       <use style="stroke:#000000;stroke-width:0.8;" x="44.675" xlink:href="#mad8f856b62" y="14.3"/>
      </g>
     </g>
     <g id="text_12">
      <!-- 1.0 -->
      <g transform="translate(23.775 17.878906)scale(0.1 -0.1)">
       <use xlink:href="#ArialMT-49"/>
       <use x="55.615234" xlink:href="#ArialMT-46"/>
       <use x="83.398438" xlink:href="#ArialMT-48"/>
      </g>
     </g>
    </g>
    <g id="text_13">
     <!-- Proportion -->
     <g transform="translate(17.7875 118.317187)rotate(-90)scale(0.1 -0.1)">
      <defs>
       <path d="M 7.71875 0 
L 7.71875 71.578125 
L 34.71875 71.578125 
Q 41.84375 71.578125 45.609375 70.90625 
Q 50.875 70.015625 54.4375 67.546875 
Q 58.015625 65.09375 60.1875 60.640625 
Q 62.359375 56.203125 62.359375 50.875 
Q 62.359375 41.75 56.546875 35.421875 
Q 50.734375 29.109375 35.546875 29.109375 
L 17.1875 29.109375 
L 17.1875 0 
z
M 17.1875 37.546875 
L 35.6875 37.546875 
Q 44.875 37.546875 48.734375 40.96875 
Q 52.59375 44.390625 52.59375 50.59375 
Q 52.59375 55.078125 50.3125 58.265625 
Q 48.046875 61.46875 44.34375 62.5 
Q 41.9375 63.140625 35.5 63.140625 
L 17.1875 63.140625 
z
" id="ArialMT-80"/>
       <path d="M 6.5 0 
L 6.5 51.859375 
L 14.40625 51.859375 
L 14.40625 44 
Q 17.4375 49.515625 20 51.265625 
Q 22.5625 53.03125 25.640625 53.03125 
Q 30.078125 53.03125 34.671875 50.203125 
L 31.640625 42.046875 
Q 28.421875 43.953125 25.203125 43.953125 
Q 22.3125 43.953125 20.015625 42.21875 
Q 17.71875 40.484375 16.75 37.40625 
Q 15.28125 32.71875 15.28125 27.15625 
L 15.28125 0 
z
" id="ArialMT-114"/>
       <path d="M 3.328125 25.921875 
Q 3.328125 40.328125 11.328125 47.265625 
Q 18.015625 53.03125 27.640625 53.03125 
Q 38.328125 53.03125 45.109375 46.015625 
Q 51.90625 39.015625 51.90625 26.65625 
Q 51.90625 16.65625 48.90625 10.90625 
Q 45.90625 5.171875 40.15625 2 
Q 34.421875 -1.171875 27.640625 -1.171875 
Q 16.75 -1.171875 10.03125 5.8125 
Q 3.328125 12.796875 3.328125 25.921875 
z
M 12.359375 25.921875 
Q 12.359375 15.96875 16.703125 11.015625 
Q 21.046875 6.0625 27.640625 6.0625 
Q 34.1875 6.0625 38.53125 11.03125 
Q 42.875 16.015625 42.875 26.21875 
Q 42.875 35.84375 38.5 40.796875 
Q 34.125 45.75 27.640625 45.75 
Q 21.046875 45.75 16.703125 40.8125 
Q 12.359375 35.890625 12.359375 25.921875 
z
" id="ArialMT-111"/>
       <path d="M 6.59375 0 
L 6.59375 51.859375 
L 14.5 51.859375 
L 14.5 44.484375 
Q 20.21875 53.03125 31 53.03125 
Q 35.6875 53.03125 39.625 51.34375 
Q 43.5625 49.65625 45.515625 46.921875 
Q 47.46875 44.1875 48.25 40.4375 
Q 48.734375 37.984375 48.734375 31.890625 
L 48.734375 0 
L 39.9375 0 
L 39.9375 31.546875 
Q 39.9375 36.921875 38.90625 39.578125 
Q 37.890625 42.234375 35.28125 43.8125 
Q 32.671875 45.40625 29.15625 45.40625 
Q 23.53125 45.40625 19.453125 41.84375 
Q 15.375 38.28125 15.375 28.328125 
L 15.375 0 
z
" id="ArialMT-110"/>
      </defs>
      <use xlink:href="#ArialMT-80"/>
      <use x="66.699219" xlink:href="#ArialMT-114"/>
      <use x="100" xlink:href="#ArialMT-111"/>
      <use x="155.615234" xlink:href="#ArialMT-112"/>
      <use x="211.230469" xlink:href="#ArialMT-111"/>
      <use x="266.845703" xlink:href="#ArialMT-114"/>
      <use x="300.146484" xlink:href="#ArialMT-116"/>
      <use x="327.929688" xlink:href="#ArialMT-105"/>
      <use x="350.146484" xlink:href="#ArialMT-111"/>
      <use x="405.761719" xlink:href="#ArialMT-110"/>
     </g>
    </g>
   </g>
   <g id="line2d_12">
    <path clip-path="url(#p81992ab09c)" d="M 44.755859 176.2 
L 44.756249 176.014813 
L 45.225756 175.922219 
L 45.225756 175.875922 
L 45.486852 175.875922 
L 45.486852 175.783329 
L 45.564472 175.135173 
L 45.696798 175.042579 
L 45.804364 174.903689 
L 45.828904 174.903689 
L 45.828904 174.811095 
L 45.878176 174.579611 
L 46.234346 174.487017 
L 46.234346 174.440721 
L 46.62052 174.348127 
L 46.684958 174.209236 
L 46.823739 174.116643 
L 46.823739 174.070346 
L 47.073319 173.977752 
L 47.142674 173.838862 
L 47.418565 173.746268 
L 47.515172 173.653675 
L 47.688179 173.561081 
L 47.69428 173.468487 
L 48.058819 173.375894 
L 48.152471 173.144409 
L 48.614358 173.051816 
L 48.620176 172.959222 
L 49.089526 172.866629 
L 49.191846 172.774035 
L 49.564997 172.681441 
L 49.628148 172.588848 
L 49.836374 172.496254 
L 49.836374 172.449957 
L 50.012784 172.357363 
L 50.012784 172.311067 
L 50.354472 172.218473 
L 50.354472 172.172176 
L 50.54792 172.079582 
L 50.60525 171.986989 
L 50.670361 171.986989 
L 50.670361 171.894395 
L 50.737274 171.801802 
L 50.803636 171.755505 
L 50.803636 171.709208 
L 50.803636 171.570317 
L 51.037052 171.477724 
L 51.037052 171.431427 
L 51.384884 171.338833 
L 51.454559 171.199943 
L 51.554688 171.107349 
L 51.554688 171.061052 
L 51.864717 170.968459 
L 51.965492 170.783271 
L 52.153879 170.690678 
L 52.184965 170.598084 
L 52.323851 170.50549 
L 52.42974 170.320303 
L 52.575698 170.227709 
L 52.683109 170.042522 
L 52.905665 169.949929 
L 52.971673 169.718444 
L 53.277383 169.625851 
L 53.277383 169.579554 
L 53.509633 169.579554 
L 53.509633 169.48696 
L 53.582601 169.255476 
L 53.70131 169.162882 
L 53.800603 168.931398 
L 53.864924 168.838805 
L 53.949317 168.653617 
L 54.195523 168.561024 
L 54.288455 168.422133 
L 54.362482 168.375836 
L 54.362482 168.32954 
L 54.462298 168.098055 
L 54.512625 168.005462 
L 54.595521 166.153589 
L 54.719053 166.060995 
L 54.824378 165.922105 
L 54.950538 165.829511 
L 55.022818 165.690621 
L 55.351339 165.598027 
L 55.362439 165.505433 
L 55.630962 165.41284 
L 55.641584 165.320246 
L 55.813107 165.227652 
L 55.914358 164.996168 
L 56.305226 164.903574 
L 56.315009 164.764684 
L 56.613033 164.67209 
L 56.681823 164.5332 
L 56.818573 164.440606 
L 56.897003 164.070232 
L 57.115574 163.977638 
L 57.194943 163.838747 
L 57.261379 163.746154 
L 57.338475 163.144295 
L 57.403867 163.051701 
L 57.403867 163.005405 
L 57.715295 162.912811 
L 57.7237 162.820217 
L 57.891138 162.727624 
L 57.979868 162.449843 
L 58.050942 162.357249 
L 58.101691 162.172062 
L 58.168443 162.172062 
L 58.168443 162.079468 
L 58.206545 161.940578 
L 58.320372 161.894281 
L 58.320372 161.847984 
L 58.332968 161.662797 
L 58.486175 161.570203 
L 58.55527 161.385016 
L 58.744329 161.292422 
L 58.838879 161.060938 
L 58.968439 160.968344 
L 59.039669 160.73686 
L 59.225177 160.690563 
L 59.225177 160.644267 
L 59.320158 160.366486 
L 59.48049 160.320189 
L 59.48049 160.273892 
L 59.553146 159.949814 
L 59.632801 159.85722 
L 59.698972 159.440549 
L 59.774604 159.347955 
L 59.83639 158.977581 
L 59.97404 158.884987 
L 59.994653 158.792393 
L 60.22674 158.6998 
L 60.316882 157.403489 
L 60.426594 157.310895 
L 60.517259 157.033114 
L 60.607719 156.986817 
L 60.607719 156.94052 
L 60.677988 156.570146 
L 60.829297 156.477552 
L 60.936541 155.92199 
L 60.976213 155.829397 
L 61.065771 155.227538 
L 61.214198 155.134944 
L 61.303419 154.996054 
L 61.460424 154.90346 
L 61.557933 154.76457 
L 61.639169 154.671976 
L 61.727744 154.02382 
L 61.789281 153.931227 
L 61.842377 153.746039 
L 62.000833 153.653446 
L 62.067777 153.329368 
L 62.213052 153.236774 
L 62.298788 153.051587 
L 62.477011 153.051587 
L 62.477011 152.958993 
L 62.555517 152.820103 
L 62.782221 152.727509 
L 62.827231 152.449728 
L 63.023648 152.357135 
L 63.085808 152.218244 
L 63.204613 152.125651 
L 63.262651 152.033057 
L 63.463609 151.940463 
L 63.56341 151.755276 
L 63.640955 151.755276 
L 63.640955 151.662682 
L 63.742303 151.338605 
L 63.772052 151.246011 
L 63.879529 150.597855 
L 64.011161 150.505262 
L 64.076765 150.273778 
L 64.207779 150.181184 
L 64.283307 149.903403 
L 64.405689 149.810809 
L 64.487433 149.671919 
L 64.651602 149.579325 
L 64.730064 149.440435 
L 64.864559 149.347841 
L 64.895765 149.116357 
L 64.976807 149.116357 
L 64.976807 149.023763 
L 64.985906 148.792279 
L 65.258208 148.699685 
L 65.353192 148.468201 
L 65.451659 148.375608 
L 65.460221 148.236717 
L 65.65369 148.144124 
L 65.76342 147.634858 
L 65.855574 147.542265 
L 65.932938 147.403374 
L 66.040869 147.357077 
L 66.040869 147.310781 
L 66.140923 146.894109 
L 66.178952 146.801516 
L 66.287619 146.570031 
L 66.342936 146.477438 
L 66.359033 146.107063 
L 66.513381 146.01447 
L 66.583445 145.412611 
L 66.692205 145.320017 
L 66.798096 145.227424 
L 66.931864 145.181127 
L 66.931864 145.13483 
L 67.032918 144.857049 
L 67.202011 144.764455 
L 67.307731 144.579268 
L 67.46036 144.532971 
L 67.46036 144.486674 
L 67.524799 144.023706 
L 67.624597 143.931112 
L 67.731115 143.699628 
L 67.803494 143.607035 
L 67.878525 143.37555 
L 68.049819 143.282957 
L 68.150375 142.866285 
L 68.201711 142.773692 
L 68.28506 142.634801 
L 68.390026 142.542208 
L 68.419248 142.310723 
L 68.560291 142.21813 
L 68.614444 141.523677 
L 68.711565 141.431084 
L 68.822547 141.245896 
L 68.879112 141.153303 
L 68.977399 140.644038 
L 69.144135 140.551444 
L 69.248427 140.042179 
L 69.274361 140.042179 
L 69.274361 139.949585 
L 69.339224 139.625508 
L 69.448765 139.532914 
L 69.507123 139.394023 
L 69.64287 139.30143 
L 69.748511 139.023649 
L 69.944926 138.931055 
L 70.043169 138.329196 
L 70.090635 138.236603 
L 70.145525 138.051415 
L 70.288364 137.958822 
L 70.352159 137.727338 
L 70.536265 137.634744 
L 70.644974 137.40326 
L 70.728575 137.310666 
L 70.817617 136.893995 
L 70.91418 136.801401 
L 70.991921 136.338433 
L 71.040781 136.292136 
L 71.040781 136.245839 
L 71.096769 135.921762 
L 71.237473 135.829168 
L 71.330255 135.319903 
L 71.403101 135.227309 
L 71.497317 134.903231 
L 71.681921 134.810638 
L 71.700684 134.718044 
L 71.854859 134.62545 
L 71.883266 134.532857 
L 72.110804 134.440263 
L 72.208555 133.977295 
L 72.252885 133.884701 
L 72.336751 133.514327 
L 72.486045 133.421733 
L 72.597128 132.912468 
L 72.612607 132.866171 
L 72.612607 132.819874 
L 72.685075 132.542093 
L 72.853395 132.4495 
L 72.957272 132.125422 
L 72.978845 132.125422 
L 72.978845 132.032828 
L 73.075091 131.70875 
L 73.094981 131.70875 
L 73.094981 131.616157 
L 73.197322 131.199485 
L 73.23837 131.153188 
L 73.23837 131.106892 
L 73.23837 131.060595 
L 73.353771 131.060595 
L 73.353771 130.968001 
L 73.464702 130.597627 
L 73.475336 130.55133 
L 73.475336 130.505033 
L 73.581942 130.134658 
L 73.665789 130.042065 
L 73.775354 129.81058 
L 73.863699 129.717987 
L 73.966573 129.301315 
L 73.994779 129.208722 
L 74.100042 128.977238 
L 74.179006 128.884644 
L 74.245844 128.606863 
L 74.347564 128.514269 
L 74.417664 128.097598 
L 74.578126 128.005004 
L 74.648727 127.727223 
L 74.743587 127.63463 
L 74.80453 127.542036 
L 74.918437 127.449442 
L 75.012755 127.264255 
L 75.10128 127.171661 
L 75.200161 126.847584 
L 75.258665 126.75499 
L 75.258665 126.708693 
L 75.438517 126.6161 
L 75.52292 126.430912 
L 75.597976 126.338319 
L 75.63231 126.153131 
L 75.853596 126.060538 
L 75.946897 125.829053 
L 76.018738 125.73646 
L 76.110035 125.458679 
L 76.278784 125.366085 
L 76.3849 125.134601 
L 76.515785 125.042007 
L 76.612726 124.71793 
L 76.680509 124.625336 
L 76.769921 124.486446 
L 76.969659 124.393852 
L 77.05517 124.116071 
L 77.171909 124.116071 
L 77.171909 124.023477 
L 77.274055 123.653103 
L 77.342578 123.606806 
L 77.342578 123.560509 
L 77.450431 123.143838 
L 77.545656 123.097541 
L 77.545656 123.051244 
L 77.632911 122.912353 
L 77.693175 122.81976 
L 77.773414 122.588276 
L 77.812548 122.495682 
L 77.921355 122.217901 
L 77.970047 122.125307 
L 78.071712 121.847526 
L 78.115327 121.754933 
L 78.218688 121.569745 
L 78.246283 121.523449 
L 78.246283 121.477152 
L 78.336669 120.967887 
L 78.394399 120.875293 
L 78.481238 120.643809 
L 78.509783 120.643809 
L 78.509783 120.551215 
L 78.573851 120.227138 
L 78.681506 120.180841 
L 78.681506 120.134544 
L 78.684646 119.995653 
L 78.817877 119.949357 
L 78.817877 119.90306 
L 78.913048 119.532685 
L 78.983193 119.532685 
L 78.983193 119.440092 
L 79.087281 119.116014 
L 79.224181 119.02342 
L 79.318947 118.699342 
L 79.375062 118.653045 
L 79.375062 118.606749 
L 79.422399 118.514155 
L 79.50821 118.421561 
L 79.614467 117.912296 
L 79.805116 117.819703 
L 79.867914 117.403031 
L 80.009636 117.310438 
L 80.109663 116.708579 
L 80.158118 116.662282 
L 80.158118 116.615985 
L 80.243386 116.245611 
L 80.277323 116.245611 
L 80.277323 116.153017 
L 80.365289 115.782642 
L 80.550479 115.690049 
L 80.63301 115.319674 
L 80.778449 115.22708 
L 80.87703 114.810409 
L 80.962403 114.764112 
L 80.962403 114.717815 
L 81.058426 114.532628 
L 81.07772 114.532628 
L 81.07772 114.440034 
L 81.185135 113.930769 
L 81.226166 113.838176 
L 81.323112 113.652988 
L 81.369448 113.560395 
L 81.474406 113.282614 
L 81.631417 113.19002 
L 81.727356 112.773349 
L 81.860348 112.680755 
L 81.923451 112.588161 
L 82.036626 112.495568 
L 82.145228 112.078896 
L 82.168886 111.986303 
L 82.261891 111.754818 
L 82.357858 111.662225 
L 82.438518 111.199257 
L 82.504552 111.15296 
L 82.504552 111.106663 
L 82.594955 110.458507 
L 82.655247 110.365914 
L 82.754037 109.856649 
L 82.807826 109.764055 
L 82.89461 109.25479 
L 82.938307 109.162196 
L 83.01386 108.838118 
L 83.105568 108.745525 
L 83.187288 106.662168 
L 83.310626 106.569574 
L 83.402083 106.384387 
L 83.539762 106.291793 
L 83.539762 106.245496 
L 83.792053 106.152902 
L 83.893814 105.875122 
L 83.963291 105.782528 
L 84.068214 105.041779 
L 84.154298 104.949185 
L 84.252557 104.43992 
L 84.327629 104.347326 
L 84.435374 103.791764 
L 84.526522 103.699171 
L 84.63656 103.42139 
L 84.67526 103.328796 
L 84.781141 103.143609 
L 84.8219 103.051015 
L 84.910709 102.773234 
L 84.962358 102.680641 
L 84.999631 102.54175 
L 85.18923 102.449156 
L 85.291919 102.217672 
L 85.372261 102.125079 
L 85.468301 101.708407 
L 85.521335 101.615814 
L 85.626464 101.106548 
L 85.644668 101.060252 
L 85.644668 101.013955 
L 85.742139 100.597283 
L 85.838622 100.550987 
L 85.838622 100.50469 
L 85.948354 100.319502 
L 86.034018 100.226909 
L 86.11665 99.856534 
L 86.210973 99.763941 
L 86.215253 99.48616 
L 86.356242 99.393566 
L 86.443419 98.884301 
L 86.543079 98.791707 
L 86.649395 98.513926 
L 86.737076 98.467629 
L 86.737076 98.421333 
L 86.842753 98.004661 
L 86.965307 97.912067 
L 87.06005 97.680583 
L 87.177057 97.58799 
L 87.276346 97.263912 
L 87.393025 97.171318 
L 87.45148 96.986131 
L 87.549662 96.893537 
L 87.649804 95.504633 
L 87.767707 95.412039 
L 87.839504 95.226852 
L 88.032283 95.134258 
L 88.127577 94.949071 
L 88.288023 94.856477 
L 88.322168 94.624993 
L 88.447771 94.532399 
L 88.557586 94.347212 
L 88.621829 94.300915 
L 88.621829 94.254618 
L 88.698197 93.606463 
L 88.775784 93.513869 
L 88.883141 92.91201 
L 88.925342 92.819417 
L 88.979444 92.680526 
L 89.164749 92.587933 
L 89.256688 91.800886 
L 89.364329 91.75459 
L 89.364329 91.708293 
L 89.455275 91.569402 
L 89.552383 91.476809 
L 89.646002 91.060137 
L 89.753996 90.967544 
L 89.849025 90.550872 
L 89.992551 90.504575 
L 89.992551 90.458279 
L 90.051886 90.087904 
L 90.278927 89.99531 
L 90.312519 89.717529 
L 90.478081 89.624936 
L 90.550773 89.532342 
L 90.671148 89.439748 
L 90.75507 89.347155 
L 90.822331 89.254561 
L 90.900277 88.930483 
L 91.068299 88.83789 
L 91.13035 88.467515 
L 91.236344 88.374921 
L 91.313898 88.143437 
L 91.384395 88.09714 
L 91.384395 88.050844 
L 91.397352 87.95825 
L 91.555603 87.865656 
L 91.637184 87.587875 
L 91.73892 87.495282 
L 91.767801 87.356391 
L 92.181242 87.263798 
L 92.228078 86.93972 
L 92.339446 86.847126 
L 92.443301 86.754532 
L 92.548429 86.661939 
L 92.631753 86.384158 
L 92.744849 86.291564 
L 92.793318 86.152674 
L 92.912136 86.06008 
L 93.016686 85.967486 
L 93.047216 85.874893 
L 93.124028 85.782299 
L 93.238307 85.689705 
L 93.339991 85.504518 
L 93.405823 85.411925 
L 93.515177 85.226737 
L 93.608108 85.134144 
L 93.686474 84.902659 
L 93.93266 84.810066 
L 93.93266 84.763769 
L 94.129843 84.671175 
L 94.216084 84.347098 
L 94.309573 84.254504 
L 94.407714 84.069317 
L 94.477831 83.976723 
L 94.480742 83.837832 
L 94.788454 83.745239 
L 94.871103 83.374864 
L 94.971856 83.282271 
L 95.072434 83.050786 
L 95.219777 82.958193 
L 95.320025 82.680412 
L 95.430761 82.587818 
L 95.508282 82.402631 
L 95.596447 82.310037 
L 95.675381 81.847069 
L 95.924099 81.754475 
L 96.029363 81.430397 
L 96.074731 81.430397 
L 96.074731 81.337804 
L 96.175204 81.24521 
L 96.603431 81.152617 
L 96.680829 80.967429 
L 96.750351 80.874836 
L 96.850603 80.689648 
L 96.942893 80.597055 
L 97.047768 80.180383 
L 97.173594 80.08779 
L 97.179054 79.995196 
L 97.413541 79.902602 
L 97.413541 79.810009 
L 97.674163 79.717415 
L 97.674163 79.671118 
L 97.859276 79.578524 
L 97.919357 79.485931 
L 98.007453 79.393337 
L 98.102437 79.115556 
L 98.395821 79.022963 
L 98.503987 78.745182 
L 98.683476 78.652588 
L 98.788348 78.559994 
L 99.012159 78.467401 
L 99.012159 78.421104 
L 99.165303 78.374807 
L 99.165303 78.32851 
L 99.241965 78.097026 
L 99.396308 78.004432 
L 99.493281 77.819245 
L 99.57759 77.726651 
L 99.57759 77.680355 
L 99.76745 77.587761 
L 99.865452 77.30998 
L 100.005125 77.217386 
L 100.025057 77.124793 
L 100.335523 77.032199 
L 100.420779 76.800715 
L 100.527195 76.708121 
L 100.615864 76.106263 
L 100.763944 76.013669 
L 100.821177 75.782185 
L 100.89668 75.735888 
L 100.89668 75.689591 
L 100.946221 75.596997 
L 101.182702 75.504404 
L 101.28269 75.319216 
L 101.409292 75.226623 
L 101.476958 75.134029 
L 101.600729 75.041436 
L 101.684986 74.856248 
L 101.74262 74.763655 
L 101.852903 74.53217 
L 101.909572 74.439577 
L 102.017931 74.300686 
L 102.205972 74.208093 
L 102.274582 74.022905 
L 102.353019 73.930312 
L 102.383249 73.745124 
L 102.579615 73.698828 
L 102.579615 73.652531 
L 102.686601 73.328453 
L 102.79662 73.282156 
L 102.79662 73.235859 
L 102.854738 73.143266 
L 103.011874 73.050672 
L 103.120447 72.772891 
L 103.153719 72.680297 
L 103.262915 72.402516 
L 103.568477 72.309923 
L 103.673531 72.171032 
L 103.973041 72.078439 
L 104.021845 71.893251 
L 104.387825 71.846955 
L 104.387825 71.800658 
L 104.475066 71.522877 
L 104.58964 71.430283 
L 104.670761 71.291393 
L 104.82008 71.198799 
L 104.908753 71.059908 
L 105.060353 70.967315 
L 105.109243 70.782128 
L 105.226546 70.689534 
L 105.331033 70.319159 
L 105.417015 70.226566 
L 105.417015 70.180269 
L 105.598948 70.087675 
L 105.651517 69.948785 
L 105.74979 69.856191 
L 105.855229 69.671004 
L 105.889507 69.57841 
L 105.968494 69.346926 
L 106.01222 69.254332 
L 106.068109 69.022848 
L 106.317978 68.930255 
L 106.423266 68.69877 
L 106.610153 68.606177 
L 106.686447 68.328396 
L 106.823403 68.235802 
L 106.886043 67.958021 
L 107.076596 67.865428 
L 107.133155 67.726537 
L 107.286385 67.633943 
L 107.322973 67.54135 
L 107.533993 67.448756 
L 107.574832 67.217272 
L 107.802731 67.124678 
L 107.824281 67.032085 
L 108.196654 66.939491 
L 108.268885 66.569116 
L 108.523358 66.476523 
L 108.584692 66.245039 
L 108.65897 66.152445 
L 108.721994 65.967258 
L 108.993672 65.874664 
L 109.101169 65.64318 
L 109.205064 65.550586 
L 109.303344 65.319102 
L 109.3607 65.272805 
L 109.3607 65.226508 
L 109.3607 65.180212 
L 109.497162 65.180212 
L 109.497162 65.087618 
L 109.509574 64.76354 
L 109.832874 64.670947 
L 109.938621 64.578353 
L 110.252984 64.532056 
L 110.252984 64.485759 
L 110.29332 64.393166 
L 110.474276 64.300572 
L 110.526677 64.161681 
L 110.826811 64.069088 
L 110.826811 63.976494 
L 111.000706 63.8839 
L 111.022556 63.74501 
L 111.169638 63.698713 
L 111.169638 63.652416 
L 111.269375 63.143151 
L 111.599384 63.050558 
L 111.616865 62.957964 
L 111.971848 62.86537 
L 111.971848 62.819073 
L 112.114995 62.819073 
L 112.114995 62.72648 
L 112.178436 62.448699 
L 112.444186 62.356105 
L 112.444186 62.309808 
L 112.753056 62.217215 
L 112.838793 62.124621 
L 113.445411 62.032027 
L 113.450126 61.939434 
L 113.708618 61.84684 
L 113.795005 61.70795 
L 114.062257 61.661653 
L 114.062257 61.615356 
L 114.140732 61.522762 
L 114.180103 61.522762 
L 114.180103 61.430169 
L 114.257914 61.198685 
L 114.600926 61.106091 
L 114.600926 61.059794 
L 115.079842 60.9672 
L 115.105124 60.874607 
L 115.281523 60.782013 
L 115.297299 60.68942 
L 115.641359 60.596826 
L 115.721156 60.504232 
L 115.786629 60.411639 
L 115.873489 60.272748 
L 116.209095 60.180154 
L 116.209095 60.133858 
L 116.371743 60.087561 
L 116.371743 60.041264 
L 116.444081 59.856077 
L 117.056571 59.763483 
L 117.056571 59.717186 
L 117.289147 59.624593 
L 117.374077 59.254218 
L 117.482963 59.161624 
L 117.482963 59.069031 
L 118.089688 58.976437 
L 118.1088 58.883843 
L 118.349669 58.79125 
L 118.457344 58.559766 
L 118.657062 58.467172 
L 118.70724 58.281985 
L 119.002929 58.189391 
L 119.094431 58.004204 
L 119.322339 57.91161 
L 119.410223 57.633829 
L 119.706229 57.541235 
L 119.706229 57.494939 
L 120.118848 57.402345 
L 120.202567 57.217158 
L 120.401907 57.124564 
L 120.401907 57.078267 
L 120.604674 56.985673 
L 120.704229 56.89308 
L 121.055948 56.800486 
L 121.120412 56.615299 
L 121.361275 56.522705 
L 121.45737 56.383815 
L 121.543655 56.337518 
L 121.543655 56.291221 
L 121.600579 56.198627 
L 121.959782 56.106034 
L 122.067776 55.920846 
L 122.11755 55.828253 
L 122.204805 55.596769 
L 122.336757 55.504175 
L 122.419875 55.272691 
L 122.558291 55.180097 
L 122.647203 55.087504 
L 122.909384 54.99491 
L 122.956561 54.856019 
L 123.059653 54.856019 
L 123.059653 54.763426 
L 123.059653 54.717129 
L 123.423817 54.624535 
L 123.481719 54.531942 
L 124.031206 54.439348 
L 124.031206 54.393051 
L 124.142869 54.393051 
L 124.142869 54.300458 
L 124.202547 54.161567 
L 124.330193 54.161567 
L 124.330193 54.068973 
L 124.330193 53.652302 
L 124.514589 53.559708 
L 124.622278 53.420818 
L 124.980415 53.328224 
L 125.089372 53.050443 
L 125.403542 52.95785 
L 125.467146 52.818959 
L 125.697609 52.726365 
L 125.799363 52.633772 
L 125.871916 52.541178 
L 125.920132 52.170804 
L 126.075994 52.07821 
L 126.075994 52.031913 
L 126.479003 51.939319 
L 126.479003 51.893023 
L 126.685366 51.846726 
L 126.685366 51.800429 
L 126.685366 51.337461 
L 126.951469 51.244867 
L 127.004044 51.152273 
L 127.313961 51.05968 
L 127.313961 51.013383 
L 127.67281 50.920789 
L 127.679635 50.828196 
L 128.04423 50.735602 
L 128.04423 50.689305 
L 128.180032 50.643008 
L 128.180032 50.596711 
L 128.283094 50.457821 
L 128.543668 50.365227 
L 128.65204 50.226337 
L 128.666578 50.133743 
L 128.754495 49.994853 
L 128.85958 49.902259 
L 128.877914 49.717072 
L 129.053851 49.624478 
L 129.152784 49.531884 
L 129.340177 49.439291 
L 129.340177 49.392994 
L 129.817722 49.3004 
L 129.890363 49.16151 
L 130.306121 49.115213 
L 130.306121 49.068916 
L 130.306121 49.022619 
L 130.553367 48.930026 
L 130.602184 48.791135 
L 131.038529 48.698542 
L 131.142244 48.605948 
L 131.790139 48.513354 
L 131.869568 48.328167 
L 132.129386 48.28187 
L 132.129386 48.235573 
L 132.129386 48.14298 
L 132.485156 48.096683 
L 132.485156 48.050386 
L 132.592011 47.865199 
L 132.614237 47.865199 
L 132.614237 47.772605 
L 132.684558 47.309637 
L 132.936016 47.217043 
L 132.936016 47.170746 
L 133.430791 47.078153 
L 133.430791 46.939262 
L 133.597086 46.846669 
L 133.680149 46.661481 
L 133.809649 46.568888 
L 133.916287 46.337403 
L 134.291162 46.24481 
L 134.392517 46.152216 
L 134.517996 46.059623 
L 134.517996 46.013326 
L 134.721172 45.967029 
L 134.721172 45.920732 
L 134.807297 45.411467 
L 135.140979 45.318873 
L 135.179289 45.22628 
L 135.488542 45.133686 
L 135.570714 45.041092 
L 135.637912 44.948499 
L 135.739049 44.763311 
L 135.927858 44.670718 
L 135.927858 44.624421 
L 136.930043 44.531827 
L 136.974071 44.439234 
L 137.377429 44.392937 
L 137.377429 44.34664 
L 137.434709 44.207749 
L 137.650179 44.115156 
L 137.747913 43.929969 
L 137.945953 43.883672 
L 137.945953 43.837375 
L 137.972041 43.513297 
L 138.260856 43.420703 
L 138.326808 43.281813 
L 138.462625 43.189219 
L 138.54246 42.957735 
L 139.220008 42.865142 
L 139.303814 42.772548 
L 139.537902 42.679954 
L 139.537902 42.633657 
L 139.705363 42.541064 
L 139.81378 42.355876 
L 139.945798 42.30958 
L 139.945798 42.263283 
L 139.945798 41.892908 
L 140.133489 41.892908 
L 140.133489 41.800315 
L 140.151526 41.707721 
L 140.526512 41.661424 
L 140.526512 41.615127 
L 140.526512 41.522534 
L 140.862698 41.42994 
L 140.862698 41.383643 
L 141.194006 41.291049 
L 141.239717 41.198456 
L 141.506977 41.152159 
L 141.506977 41.105862 
L 141.506977 40.920675 
L 141.863526 40.828081 
L 141.900226 40.735488 
L 142.263935 40.642894 
L 142.263935 40.596597 
L 142.5887 40.5503 
L 142.5887 40.504003 
L 142.5887 40.457707 
L 142.867548 40.365113 
L 142.872177 40.133629 
L 143.180822 40.041035 
L 143.180822 39.994738 
L 143.294152 39.994738 
L 143.294152 39.902145 
L 143.297923 39.763254 
L 143.612591 39.670661 
L 143.612591 39.624364 
L 143.785511 39.53177 
L 143.827453 39.39288 
L 144.252154 39.300286 
L 144.300517 39.115099 
L 144.435941 39.115099 
L 144.435941 39.022505 
L 144.502313 38.744724 
L 144.771684 38.65213 
L 144.818814 38.559537 
L 145.161758 38.466943 
L 145.21628 38.189162 
L 145.585841 38.096568 
L 145.585841 37.957678 
L 146.207276 37.865084 
L 146.207276 37.818788 
L 146.532966 37.726194 
L 146.535804 37.6336 
L 146.975898 37.541007 
L 146.975898 37.49471 
L 147.282468 37.402116 
L 147.345387 37.309522 
L 147.606913 37.216929 
L 147.606913 37.170632 
L 147.843314 37.078038 
L 147.843314 36.985445 
L 148.093199 36.939148 
L 148.093199 36.892851 
L 148.093199 36.846554 
L 148.673961 36.753961 
L 148.673961 36.707664 
L 148.795334 36.707664 
L 148.795334 36.61507 
L 148.831566 36.522476 
L 149.177592 36.429883 
L 149.177592 36.383586 
L 149.366266 36.290992 
L 149.37701 36.198399 
L 149.571874 36.198399 
L 149.571874 36.105805 
L 149.571874 36.059508 
L 149.8475 36.059508 
L 149.8475 35.966914 
L 149.8475 34.763197 
L 149.97904 34.763197 
L 149.97904 34.670603 
L 150.020414 34.207635 
L 150.39093 34.115041 
L 150.494159 33.883557 
L 150.606001 33.837261 
L 150.606001 33.790964 
L 150.679277 33.374292 
L 150.956917 33.281699 
L 150.956917 33.235402 
L 151.292663 33.142808 
L 151.292663 33.096511 
L 151.673593 33.003918 
L 151.76319 32.865027 
L 152.026983 32.772434 
L 152.026983 32.170575 
L 152.229085 32.124278 
L 152.229085 32.077981 
L 152.229085 32.031684 
L 152.629586 31.985387 
L 152.629586 31.939091 
L 152.677054 31.846497 
L 152.913729 31.846497 
L 152.913729 31.753903 
L 152.958114 31.522419 
L 153.652096 31.429826 
L 153.673035 31.337232 
L 154.21374 31.244638 
L 154.21374 31.198341 
L 154.73185 31.105748 
L 154.778702 29.994624 
L 155.121818 29.90203 
L 155.219931 29.76314 
L 155.422207 29.670546 
L 155.518088 29.577953 
L 155.804646 29.485359 
L 155.804646 29.346468 
L 156.075838 29.253875 
L 156.134141 29.161281 
L 156.414018 29.068687 
L 156.414018 29.022391 
L 157.057952 28.929797 
L 157.070361 28.837203 
L 157.314527 28.74461 
L 157.358005 28.605719 
L 157.93453 28.513126 
L 157.93453 28.420532 
L 158.193551 28.327938 
L 158.193551 28.281641 
L 158.539219 28.189048 
L 158.539219 28.142751 
L 158.689672 28.050157 
L 158.689672 28.00386 
L 158.98771 27.911267 
L 159.068829 27.726079 
L 159.24414 27.633486 
L 159.24414 27.587189 
L 159.46795 27.540892 
L 159.46795 27.494595 
L 159.545527 27.309408 
L 159.653078 27.263111 
L 159.653078 27.216814 
L 159.74079 27.124221 
L 159.978335 27.031627 
L 160.072731 26.84644 
L 160.250454 26.753846 
L 160.253867 26.661253 
L 160.703047 26.568659 
L 160.750331 26.105691 
L 161.198295 26.013097 
L 161.234548 25.874206 
L 161.475234 25.781613 
L 161.481106 25.689019 
L 161.822971 25.596426 
L 161.858829 25.364941 
L 162.005538 25.272348 
L 162.005538 25.226051 
L 162.254605 25.133457 
L 162.319615 25.040864 
L 162.536344 24.994567 
L 162.536344 24.94827 
L 162.636292 24.855676 
L 163.098816 24.763083 
L 163.117171 24.670489 
L 163.39665 24.577895 
L 163.39665 24.531599 
L 163.70142 24.439005 
L 163.808878 24.253818 
L 164.000991 24.207521 
L 164.000991 24.161224 
L 164.008504 23.837146 
L 164.309793 23.744552 
L 164.309793 23.698256 
L 164.700717 23.651959 
L 164.700717 23.605662 
L 164.755621 23.513068 
L 164.881674 23.420475 
L 164.921799 23.281584 
L 165.074397 23.188991 
L 165.074397 23.096397 
L 165.209619 23.096397 
L 165.209619 23.003803 
L 165.27105 21.614898 
L 165.612284 21.522305 
L 165.618518 21.15193 
L 165.954024 21.059337 
L 165.954024 21.01304 
L 166.218596 20.966743 
L 166.218596 20.920446 
L 166.29347 20.781556 
L 166.56922 20.688962 
L 166.639054 20.596368 
L 166.880657 20.503775 
L 166.880657 20.457478 
L 167.330912 20.411181 
L 167.330912 20.364884 
L 167.438251 20.225994 
L 167.986223 20.1334 
L 167.986223 20.087103 
L 168.640175 20.040806 
L 168.640175 19.99451 
L 168.736973 19.763025 
L 169.418968 19.670432 
L 169.516837 19.438948 
L 170.058181 19.346354 
L 170.058181 19.300057 
L 170.783084 19.207464 
L 170.804402 19.068573 
L 171.250019 18.975979 
L 171.250019 18.929683 
L 171.939028 18.837089 
L 172.013243 18.698198 
L 172.376426 18.605605 
L 172.376426 18.559308 
L 172.533874 18.466714 
L 172.533874 18.420418 
L 172.719906 18.327824 
L 172.719906 18.281527 
L 173.139597 18.188933 
L 173.139597 18.142637 
L 173.978501 18.050043 
L 173.978501 17.818559 
L 174.169191 17.725965 
L 174.250364 17.448184 
L 174.91442 17.355591 
L 174.987037 17.170403 
L 175.511932 17.07781 
L 175.511932 17.031513 
L 175.918369 16.938919 
L 175.918369 16.846325 
L 176.141387 16.753732 
L 176.181109 16.661138 
L 177.165402 16.568544 
L 177.269674 16.475951 
L 177.606522 16.383357 
L 177.606522 16.33706 
L 178.29282 16.244467 
L 178.29282 16.19817 
L 180.060148 16.105576 
L 180.060148 16.059279 
L 181.183101 15.966686 
L 181.183101 15.920389 
L 182.667802 15.827795 
L 182.667802 15.781498 
L 185.611288 15.688905 
L 185.611288 15.642608 
L 187.790595 15.550014 
L 187.790595 15.503717 
L 191.133338 15.411124 
L 191.133338 15.364827 
L 198.918372 15.272233 
L 198.918372 15.225937 
L 204.546387 15.17964 
L 204.546387 15.133343 
" style="fill:none;stroke:#8da0cb;stroke-linecap:square;stroke-width:1.5;"/>
   </g>
   <g id="line2d_13">
    <path clip-path="url(#p81992ab09c)" d="M 44.675 176.2 
L 44.775451 176.037434 
L 44.90754 175.927351 
L 45.016509 175.792946 
L 45.124579 175.684142 
L 45.124579 175.682862 
L 45.234902 175.553578 
L 45.345796 175.443494 
L 45.456736 175.286048 
L 45.544998 175.178525 
L 45.544998 175.175965 
L 45.654578 175.03772 
L 45.741227 174.928916 
L 45.741227 174.927636 
L 45.852322 174.785551 
L 45.937244 174.675467 
L 46.045742 174.570504 
L 46.132217 174.46042 
L 46.241829 174.329855 
L 46.326357 174.221052 
L 46.326357 174.219772 
L 46.436089 174.063606 
L 46.531805 173.953522 
L 46.642142 173.802477 
L 46.731793 173.693673 
L 46.731793 173.692393 
L 46.840719 173.540068 
L 46.957069 173.429984 
L 47.064922 173.30454 
L 47.168485 173.194456 
L 47.279172 173.040851 
L 47.36285 172.930767 
L 47.472613 172.72596 
L 47.560917 172.615876 
L 47.671743 172.45075 
L 47.785614 172.340667 
L 47.896639 172.100018 
L 47.999073 171.991214 
L 47.999073 171.989934 
L 48.110138 171.87601 
L 48.182629 171.765927 
L 48.292695 171.607201 
L 48.37147 171.498397 
L 48.37147 171.497117 
L 48.481415 171.312791 
L 48.542663 171.203987 
L 48.542663 171.202707 
L 48.653404 171.024781 
L 48.733343 170.915977 
L 48.733343 170.914697 
L 48.844324 170.770052 
L 48.923157 170.659968 
L 49.033634 170.467962 
L 49.129292 170.362998 
L 49.129292 170.357878 
L 49.240088 170.186352 
L 49.294659 170.076268 
L 49.405294 169.921383 
L 49.469644 169.811299 
L 49.580605 169.598812 
L 49.651152 169.488728 
L 49.76121 169.330002 
L 49.825106 169.219919 
L 49.936187 169.061193 
L 50.014473 168.956229 
L 50.014473 168.951109 
L 50.124348 168.802624 
L 50.177264 168.69254 
L 50.286291 168.439092 
L 50.382873 168.329008 
L 50.491848 168.140841 
L 50.557446 168.030757 
L 50.667477 167.80419 
L 50.728612 167.694106 
L 50.838529 167.5341 
L 50.910371 167.424016 
L 51.021319 167.261451 
L 51.115482 167.151367 
L 51.225533 166.999042 
L 51.316469 166.888958 
L 51.4206 166.717432 
L 51.512632 166.607348 
L 51.622653 166.406381 
L 51.708862 166.296297 
L 51.81955 166.119651 
L 51.912652 166.009568 
L 52.021596 165.827801 
L 52.089805 165.718997 
L 52.089805 165.717717 
L 52.20033 165.525711 
L 52.275865 165.415627 
L 52.384395 165.290183 
L 52.480942 165.180099 
L 52.588735 165.035454 
L 52.665325 164.92537 
L 52.776206 164.669361 
L 52.851376 164.559277 
L 52.960598 164.35319 
L 53.037611 164.243106 
L 53.148604 164.07158 
L 53.236582 163.961497 
L 53.346394 163.833492 
L 53.428587 163.723408 
L 53.538891 163.592844 
L 53.611385 163.48276 
L 53.722224 163.332995 
L 53.81547 163.222911 
L 53.926001 163.069306 
L 54.004055 162.959222 
L 54.11512 162.799216 
L 54.200097 162.689133 
L 54.309207 162.511207 
L 54.376496 162.401123 
L 54.486158 162.246237 
L 54.535622 162.136154 
L 54.642806 161.954387 
L 54.730933 161.844303 
L 54.83802 161.672778 
L 54.907455 161.562694 
L 55.018533 161.382207 
L 55.112187 161.273404 
L 55.112187 161.272124 
L 55.221427 161.085237 
L 55.286034 160.976433 
L 55.286034 160.975153 
L 55.39678 160.798507 
L 55.473107 160.697384 
L 55.473107 160.688423 
L 55.583734 160.533538 
L 55.665508 160.423454 
L 55.773323 160.262169 
L 55.845257 160.164885 
L 55.845257 160.152085 
L 55.947192 160.01256 
L 56.030389 159.902476 
L 56.140567 159.73351 
L 56.235292 159.623427 
L 56.346102 159.43526 
L 56.410003 159.325176 
L 56.521011 159.14597 
L 56.600983 159.035886 
L 56.711949 158.86692 
L 56.788236 158.756837 
L 56.8979 158.56867 
L 56.990631 158.458586 
L 57.098956 158.28066 
L 57.195133 158.170576 
L 57.305583 157.98753 
L 57.377655 157.877446 
L 57.488447 157.713601 
L 57.553525 157.607357 
L 57.553525 157.603517 
L 57.662133 157.430711 
L 57.73635 157.320627 
L 57.844347 157.158061 
L 57.924578 157.047978 
L 58.035069 156.864931 
L 58.106165 156.754847 
L 58.216349 156.523159 
L 58.309726 156.413076 
L 58.420447 156.273551 
L 58.478263 156.163467 
L 58.588977 155.97402 
L 58.641212 155.866497 
L 58.641212 155.863937 
L 58.75116 155.706491 
L 58.837784 155.596407 
L 58.948257 155.438962 
L 59.023003 155.328878 
L 59.131706 155.121511 
L 59.201929 155.011427 
L 59.312304 154.8143 
L 59.333364 154.781019 
L 59.333364 154.704216 
L 59.443654 154.51477 
L 59.520335 154.404686 
L 59.63083 154.258761 
L 59.688484 154.148677 
L 59.799036 153.92979 
L 59.861606 153.819706 
L 59.971719 153.623859 
L 60.037551 153.513775 
L 60.148387 153.316648 
L 60.214742 153.206565 
L 60.324727 152.915995 
L 60.391756 152.807191 
L 60.391756 152.805911 
L 60.500872 152.633105 
L 60.576453 152.523021 
L 60.685928 152.382216 
L 60.758869 152.272132 
L 60.869306 152.007163 
L 60.939825 151.898359 
L 60.939825 151.897079 
L 61.049474 151.729394 
L 61.117285 151.658991 
L 61.117285 151.61931 
L 61.224539 151.449064 
L 61.286184 151.33898 
L 61.396852 151.203295 
L 61.459237 151.093212 
L 61.569308 150.864084 
L 61.634666 150.754 
L 61.745563 150.518472 
L 61.824582 150.408388 
L 61.93427 150.18182 
L 61.997229 150.074296 
L 61.997229 150.071736 
L 62.107988 149.90405 
L 62.173121 149.793967 
L 62.283254 149.60324 
L 62.356367 149.493156 
L 62.467327 149.338271 
L 62.541932 149.228187 
L 62.652169 148.970898 
L 62.740187 148.862094 
L 62.740187 148.860814 
L 62.85116 148.663688 
L 62.93154 148.553604 
L 63.041658 148.341116 
L 63.106045 148.242553 
L 63.106045 148.231033 
L 63.214537 148.072307 
L 63.285791 147.963503 
L 63.285791 147.962223 
L 63.394388 147.795818 
L 63.464609 147.685734 
L 63.573264 147.463006 
L 63.641779 147.354202 
L 63.641779 147.352922 
L 63.749443 147.181396 
L 63.80983 147.071312 
L 63.920608 146.894666 
L 63.98789 146.784583 
L 64.098834 146.575935 
L 64.166273 146.465852 
L 64.275571 146.296886 
L 64.345251 146.186802 
L 64.455886 145.979435 
L 64.518279 145.877031 
L 64.518279 145.869351 
L 64.625211 145.587741 
L 64.682885 145.481497 
L 64.682885 145.477657 
L 64.793265 145.235729 
L 64.844012 145.137166 
L 64.844012 145.125645 
L 64.954753 144.957959 
L 65.031301 144.847876 
L 65.142262 144.67891 
L 65.214548 144.568826 
L 65.324754 144.343538 
L 65.386676 144.233454 
L 65.497269 144.063208 
L 65.562319 143.953125 
L 65.672453 143.773918 
L 65.740106 143.663835 
L 65.847823 143.494869 
L 65.910066 143.398865 
L 65.910066 143.384785 
L 66.020776 143.179978 
L 66.076886 143.069894 
L 66.187869 142.867647 
L 66.249715 142.757563 
L 66.358592 142.552756 
L 66.414522 142.442672 
L 66.525161 142.303148 
L 66.552004 142.203304 
L 66.552004 142.193064 
L 66.662083 141.995937 
L 66.743728 141.885853 
L 66.853389 141.608083 
L 66.914849 141.498 
L 67.021699 141.343114 
L 67.104316 141.233031 
L 67.215423 141.057664 
L 67.278644 140.947581 
L 67.387009 140.745334 
L 67.472498 140.63525 
L 67.583051 140.407402 
L 67.635398 140.298598 
L 67.635398 140.297318 
L 67.745655 140.002908 
L 67.826579 139.896664 
L 67.826579 139.892824 
L 67.935906 139.728978 
L 67.978764 139.618895 
L 68.089698 139.408967 
L 68.143517 139.298884 
L 68.254561 139.095357 
L 68.327079 138.985273 
L 68.435825 138.834228 
L 68.524981 138.731824 
L 68.524981 138.724144 
L 68.635816 138.551338 
L 68.681083 138.441254 
L 68.792174 138.239007 
L 68.834923 138.130203 
L 68.834923 138.128923 
L 68.945792 137.942037 
L 69.003837 137.831953 
L 69.11392 137.671947 
L 69.169839 137.561864 
L 69.279889 137.404418 
L 69.348424 137.294334 
L 69.459006 137.147129 
L 69.527755 137.037045 
L 69.638187 136.856559 
L 69.711146 136.750315 
L 69.711146 136.746475 
L 69.822219 136.493027 
L 69.901799 136.382943 
L 70.012255 136.211417 
L 70.081507 136.101333 
L 70.190524 135.954128 
L 70.269174 135.844044 
L 70.37877 135.668678 
L 70.463434 135.558594 
L 70.572813 135.371708 
L 70.637682 135.261624 
L 70.745869 135.079858 
L 70.820368 134.969774 
L 70.929393 134.812328 
L 70.98369 134.704805 
L 70.98369 134.702245 
L 71.094201 134.56656 
L 71.148262 134.456476 
L 71.258199 134.29263 
L 71.315881 134.185107 
L 71.315881 134.182547 
L 71.42684 134.066063 
L 71.512734 133.961099 
L 71.512734 133.955979 
L 71.622805 133.639808 
L 71.698739 133.529724 
L 71.809376 133.351798 
L 71.880853 133.241714 
L 71.991846 133.054828 
L 72.040196 132.944744 
L 72.150661 132.754017 
L 72.219613 132.643933 
L 72.329577 132.492888 
L 72.419975 132.387925 
L 72.419975 132.382804 
L 72.530205 132.165197 
L 72.594117 132.055113 
L 72.703719 131.731262 
L 72.794958 131.621178 
L 72.905809 131.456052 
L 72.978845 131.362609 
L 72.978845 131.345969 
L 73.089882 131.177003 
L 73.154766 131.066919 
L 73.260613 130.913314 
L 73.340465 130.80579 
L 73.340465 130.80323 
L 73.45074 130.634264 
L 73.520556 130.52418 
L 73.628855 130.333454 
L 73.710801 130.22337 
L 73.821819 130.045444 
L 73.89208 129.93536 
L 74.000643 129.716472 
L 74.069176 129.607668 
L 74.069176 129.606388 
L 74.175752 129.447663 
L 74.234537 129.338859 
L 74.234537 129.337579 
L 74.345079 129.113571 
L 74.425387 129.003488 
L 74.536488 128.844762 
L 74.601469 128.734678 
L 74.708295 128.543952 
L 74.781344 128.433868 
L 74.892325 128.235461 
L 74.958022 128.125377 
L 75.067695 127.946171 
L 75.13626 127.836087 
L 75.247006 127.63512 
L 75.310008 127.557037 
L 75.310008 127.525036 
L 75.420046 127.212706 
L 75.499231 127.109022 
L 75.499231 127.102622 
L 75.60987 126.886294 
L 75.684157 126.780051 
L 75.684157 126.77621 
L 75.792618 126.630285 
L 75.854948 126.520202 
L 75.966008 126.312834 
L 76.043987 126.202751 
L 76.154496 126.033785 
L 76.22822 125.923701 
L 76.337747 125.679213 
L 76.427013 125.572969 
L 76.427013 125.569129 
L 76.537083 125.31696 
L 76.607969 125.206876 
L 76.718009 125.03663 
L 76.799662 124.932947 
L 76.799662 124.926546 
L 76.910043 124.771661 
L 76.986503 124.661577 
L 77.097074 124.333886 
L 77.143876 124.223802 
L 77.25431 123.911471 
L 77.333455 123.801388 
L 77.439819 123.620901 
L 77.525141 123.510818 
L 77.635732 123.247128 
L 77.689285 123.140885 
L 77.689285 123.137045 
L 77.799375 122.946318 
L 77.851663 122.836234 
L 77.961819 122.667268 
L 78.041575 122.558465 
L 78.041575 122.557185 
L 78.151831 122.409979 
L 78.191956 122.302456 
L 78.191956 122.299896 
L 78.301242 122.101489 
L 78.397049 121.991405 
L 78.508091 121.83524 
L 78.577341 121.726436 
L 78.577341 121.725156 
L 78.688366 121.608672 
L 78.774462 121.498588 
L 78.882442 121.356503 
L 78.972963 121.246419 
L 79.084064 121.095374 
L 79.172746 120.98657 
L 79.172746 120.98529 
L 79.282921 120.790723 
L 79.356858 120.68064 
L 79.467002 120.477113 
L 79.538593 120.367029 
L 79.64897 120.237744 
L 79.7325 120.153261 
L 79.7325 120.12766 
L 79.84281 119.954855 
L 79.911535 119.844771 
L 80.022342 119.670685 
L 80.108541 119.561881 
L 80.108541 119.560601 
L 80.211909 119.447957 
L 80.297615 119.350674 
L 80.297615 119.337873 
L 80.406874 119.152267 
L 80.484847 119.043463 
L 80.484847 119.042183 
L 80.595246 118.857857 
L 80.681026 118.747773 
L 80.791457 118.572407 
L 80.857447 118.462323 
L 80.968307 118.340719 
L 81.042687 118.231915 
L 81.042687 118.230635 
L 81.153667 118.09623 
L 81.22383 117.989987 
L 81.22383 117.986146 
L 81.332168 117.79926 
L 81.421694 117.703257 
L 81.421694 117.689176 
L 81.531374 117.452368 
L 81.611219 117.342284 
L 81.721052 117.197639 
L 81.801732 117.115716 
L 81.801732 117.087555 
L 81.911551 116.894269 
L 81.964656 116.788025 
L 81.964656 116.784185 
L 82.075446 116.624179 
L 82.171322 116.515376 
L 82.171322 116.514096 
L 82.281292 116.35921 
L 82.352515 116.249126 
L 82.460925 116.012318 
L 82.517274 115.903514 
L 82.517274 115.902234 
L 82.628147 115.723028 
L 82.699205 115.612944 
L 82.807402 115.446539 
L 82.900217 115.336455 
L 83.011282 115.19053 
L 83.107866 115.080446 
L 83.214343 114.924281 
L 83.285551 114.814197 
L 83.39404 114.655471 
L 83.475444 114.546667 
L 83.475444 114.545387 
L 83.583967 114.282978 
L 83.677968 114.174175 
L 83.677968 114.172895 
L 83.780843 114.04489 
L 83.854196 113.934806 
L 83.964848 113.75944 
L 84.050301 113.649356 
L 84.1597 113.518792 
L 84.245568 113.409988 
L 84.245568 113.408708 
L 84.353448 113.228222 
L 84.388551 113.119418 
L 84.388551 113.118138 
L 84.498907 112.961973 
L 84.584585 112.851889 
L 84.695034 112.702124 
L 84.782406 112.59204 
L 84.891341 112.483236 
L 84.972927 112.373152 
L 85.080798 112.190106 
L 85.138775 112.088982 
L 85.138775 112.080022 
L 85.249318 111.969938 
L 85.343117 111.859855 
L 85.451635 111.681928 
L 85.516732 111.573125 
L 85.516732 111.571845 
L 85.627397 111.306875 
L 85.689646 111.231353 
L 85.689646 111.196792 
L 85.799716 111.067507 
L 85.870602 110.976624 
L 85.870602 110.957423 
L 85.981158 110.764137 
L 86.062912 110.678374 
L 86.062912 110.654053 
L 86.173802 110.468446 
L 86.274976 110.368603 
L 86.274976 110.358363 
L 86.385266 110.216278 
L 86.470882 110.106194 
L 86.581566 109.955149 
L 86.679715 109.845065 
L 86.790115 109.683779 
L 86.877804 109.573695 
L 86.988084 109.450811 
L 87.079262 109.340727 
L 87.188568 109.219123 
L 87.264219 109.12184 
L 87.264219 109.109039 
L 87.374233 108.900392 
L 87.446143 108.790308 
L 87.555289 108.681505 
L 87.599809 108.571421 
L 87.710629 108.379414 
L 87.806159 108.26933 
L 87.915997 108.114445 
L 88.015223 108.010761 
L 88.015223 108.004361 
L 88.125429 107.852036 
L 88.219037 107.757313 
L 88.219037 107.741952 
L 88.329059 107.500024 
L 88.424219 107.3925 
L 88.424219 107.38994 
L 88.532754 107.252975 
L 88.638311 107.144171 
L 88.638311 107.142891 
L 88.749281 107.018727 
L 88.820153 106.940644 
L 88.820153 106.908643 
L 88.931102 106.747358 
L 89.024616 106.637274 
L 89.127783 106.478548 
L 89.237812 106.368465 
L 89.3479 106.23918 
L 89.427466 106.129096 
L 89.536763 106.001092 
L 89.619955 105.891008 
L 89.730577 105.760444 
L 89.819706 105.65036 
L 89.930769 105.544116 
L 90.026488 105.435312 
L 90.026488 105.434032 
L 90.135797 105.266346 
L 90.246307 105.157543 
L 90.246307 105.156263 
L 90.355081 105.009058 
L 90.442656 104.898974 
L 90.553056 104.758169 
L 90.614743 104.649365 
L 90.614743 104.648085 
L 90.72405 104.51368 
L 90.794453 104.404877 
L 90.794453 104.403597 
L 90.903415 104.187269 
L 90.985318 104.115587 
L 90.985318 104.077185 
L 91.095068 103.92742 
L 91.190819 103.817336 
L 91.298701 103.579248 
L 91.387569 103.469164 
L 91.497903 103.247717 
L 91.583609 103.138913 
L 91.583609 103.137633 
L 91.69437 102.966107 
L 91.781718 102.858583 
L 91.781718 102.856023 
L 91.890538 102.678097 
L 91.979286 102.569293 
L 91.979286 102.568013 
L 92.089539 102.342725 
L 92.187213 102.232642 
L 92.296059 102.085436 
L 92.411269 101.976633 
L 92.411269 101.975353 
L 92.520224 101.842228 
L 92.61531 101.732144 
L 92.72633 101.574699 
L 92.799899 101.464615 
L 92.909454 101.299489 
L 92.964014 101.191966 
L 92.964014 101.189405 
L 93.074167 101.074201 
L 93.179947 100.965398 
L 93.179947 100.964118 
L 93.290049 100.815633 
L 93.389739 100.706829 
L 93.389739 100.705549 
L 93.498031 100.560904 
L 93.589395 100.45082 
L 93.697962 100.310015 
L 93.829066 100.199931 
L 93.939779 100.061686 
L 94.054337 99.951603 
L 94.164368 99.814638 
L 94.263969 99.704554 
L 94.37389 99.512547 
L 94.478637 99.406304 
L 94.478637 99.402464 
L 94.588423 99.268059 
L 94.69155 99.161815 
L 94.69155 99.157975 
L 94.802015 99.00693 
L 94.895743 98.896846 
L 95.005222 98.750921 
L 95.111281 98.640837 
L 95.221209 98.475712 
L 95.299733 98.378428 
L 95.299733 98.365628 
L 95.409166 98.238903 
L 95.472786 98.12882 
L 95.583772 97.985455 
L 95.683799 97.876651 
L 95.683799 97.875371 
L 95.794364 97.735846 
L 95.887063 97.627042 
L 95.887063 97.625762 
L 95.997325 97.408155 
L 96.098617 97.307031 
L 96.098617 97.298071 
L 96.209412 97.067663 
L 96.294354 96.957579 
L 96.405112 96.791173 
L 96.491643 96.68749 
L 96.491643 96.68109 
L 96.60198 96.533884 
L 96.668178 96.425081 
L 96.668178 96.423801 
L 96.778457 96.271475 
L 96.907705 96.161392 
L 97.01725 96.048748 
L 97.108959 95.938664 
L 97.219386 95.778658 
L 97.316557 95.668574 
L 97.427656 95.580251 
L 97.52123 95.470168 
L 97.631895 95.342163 
L 97.749831 95.232079 
L 97.857407 95.104075 
L 97.932591 94.993991 
L 98.043449 94.858306 
L 98.160521 94.748223 
L 98.269471 94.631739 
L 98.389679 94.524215 
L 98.389679 94.521655 
L 98.499892 94.38213 
L 98.569229 94.275886 
L 98.569229 94.272046 
L 98.678136 94.117161 
L 98.799134 94.007077 
L 98.907734 93.904673 
L 99.011165 93.79459 
L 99.122047 93.644824 
L 99.220965 93.534741 
L 99.330424 93.434897 
L 99.408811 93.324813 
L 99.518683 93.149447 
L 99.617325 93.039364 
L 99.728075 92.907519 
L 99.81658 92.797435 
L 99.92665 92.692472 
L 100.028644 92.582388 
L 100.13368 92.419822 
L 100.239823 92.334059 
L 100.239823 92.309738 
L 100.348474 92.154853 
L 100.451887 92.046049 
L 100.451887 92.044769 
L 100.561767 91.883484 
L 100.639645 91.7734 
L 100.748142 91.615954 
L 100.817855 91.510991 
L 100.817855 91.50587 
L 100.92711 91.379146 
L 101.044478 91.269062 
L 101.152795 91.148738 
L 101.237793 91.039934 
L 101.237793 91.038654 
L 101.347803 90.92089 
L 101.483368 90.810806 
L 101.593789 90.678962 
L 101.734827 90.570158 
L 101.734827 90.568878 
L 101.845586 90.425513 
L 101.936171 90.317989 
L 101.936171 90.315429 
L 102.045234 90.140063 
L 102.164772 90.029979 
L 102.27516 89.891735 
L 102.360654 89.785491 
L 102.360654 89.781651 
L 102.469809 89.638286 
L 102.575059 89.528202 
L 102.682403 89.407878 
L 102.783177 89.299074 
L 102.783177 89.297794 
L 102.893666 89.18131 
L 102.994712 89.071226 
L 103.105805 88.935542 
L 103.178749 88.828018 
L 103.178749 88.825458 
L 103.287194 88.714094 
L 103.379278 88.60401 
L 103.4897 88.496486 
L 103.556085 88.427364 
L 103.556085 88.386403 
L 103.667046 88.181596 
L 103.778138 88.074072 
L 103.778138 88.071512 
L 103.887169 87.916626 
L 103.988003 87.809103 
L 103.988003 87.806543 
L 104.09854 87.668298 
L 104.212808 87.558214 
L 104.323846 87.418689 
L 104.410876 87.311165 
L 104.410876 87.308605 
L 104.519906 87.15628 
L 104.60117 87.046196 
L 104.711409 86.920752 
L 104.779808 86.810668 
L 104.889771 86.682664 
L 104.981694 86.57258 
L 105.092273 86.448416 
L 105.178111 86.344732 
L 105.178111 86.338332 
L 105.286903 86.242328 
L 105.375891 86.132245 
L 105.486698 85.981199 
L 105.568671 85.872396 
L 105.568671 85.871116 
L 105.679708 85.731591 
L 105.767404 85.621507 
L 105.875434 85.507583 
L 105.910411 85.470462 
L 105.910411 85.397499 
L 106.020257 85.160691 
L 106.121434 85.050607 
L 106.2323 84.969964 
L 106.336351 84.859881 
L 106.443474 84.767717 
L 106.548273 84.661474 
L 106.548273 84.657634 
L 106.658528 84.524509 
L 106.753929 84.414425 
L 106.863225 84.26466 
L 106.945009 84.157136 
L 106.945009 84.154576 
L 107.050402 84.036812 
L 107.150255 83.928008 
L 107.150255 83.926728 
L 107.254052 83.808964 
L 107.337288 83.69888 
L 107.447089 83.524794 
L 107.56032 83.414711 
L 107.670725 83.199663 
L 107.75158 83.089579 
L 107.861236 82.966695 
L 107.98199 82.857891 
L 107.98199 82.856611 
L 108.092762 82.714526 
L 108.181613 82.604443 
L 108.291464 82.445717 
L 108.384325 82.335633 
L 108.493685 82.182028 
L 108.613644 82.071944 
L 108.723734 81.913219 
L 108.808532 81.803135 
L 108.908617 81.707132 
L 109.006682 81.616248 
L 109.006682 81.597048 
L 109.117611 81.463923 
L 109.180944 81.353839 
L 109.292037 81.218155 
L 109.379641 81.108071 
L 109.489815 80.989027 
L 109.57891 80.878943 
L 109.689345 80.745818 
L 109.759192 80.635735 
L 109.869923 80.535891 
L 109.96947 80.432207 
L 109.96947 80.425807 
L 110.080449 80.260682 
L 110.122724 80.21204 
L 110.122724 80.150598 
L 110.230403 80.011073 
L 110.307028 79.900989 
L 110.416892 79.752504 
L 110.499874 79.64242 
L 110.610685 79.484975 
L 110.700721 79.377451 
L 110.700721 79.374891 
L 110.809281 79.223846 
L 110.913114 79.117602 
L 110.913114 79.113762 
L 111.018188 78.975517 
L 111.139434 78.865433 
L 111.24938 78.722068 
L 111.33356 78.611985 
L 111.443511 78.509581 
L 111.55236 78.399497 
L 111.663255 78.295814 
L 111.730643 78.18573 
L 111.836541 78.002683 
L 111.911741 77.8926 
L 112.022163 77.736434 
L 112.154114 77.62635 
L 112.264819 77.477865 
L 112.350669 77.374182 
L 112.350669 77.367781 
L 112.461223 77.216736 
L 112.531363 77.106652 
L 112.63745 76.979928 
L 112.703246 76.873684 
L 112.703246 76.869844 
L 112.813066 76.75464 
L 112.939857 76.644556 
L 113.049697 76.522952 
L 113.157484 76.412868 
L 113.264941 76.251583 
L 113.3532 76.141499 
L 113.462739 76.014775 
L 113.576528 75.904691 
L 113.685304 75.779247 
L 113.792388 75.679403 
L 113.792388 75.669163 
L 113.903255 75.539878 
L 113.986744 75.429794 
L 114.09715 75.30051 
L 114.205285 75.201947 
L 114.205285 75.190426 
L 114.315983 75.052181 
L 114.396838 74.944658 
L 114.396838 74.942098 
L 114.506653 74.832014 
L 114.615696 74.72321 
L 114.615696 74.72193 
L 114.726421 74.579845 
L 114.79 74.549124 
L 114.79 74.469761 
L 114.900794 74.302075 
L 115.009425 74.191992 
L 115.119925 73.961584 
L 115.221672 73.8515 
L 115.331582 73.742696 
L 115.421148 73.636452 
L 115.421148 73.632612 
L 115.531978 73.459806 
L 115.63721 73.349722 
L 115.746778 73.211478 
L 115.82836 73.101394 
L 115.936926 72.98619 
L 116.033303 72.876106 
L 116.143516 72.726341 
L 116.234078 72.616257 
L 116.338721 72.517694 
L 116.407616 72.40761 
L 116.51817 72.256565 
L 116.591443 72.179762 
L 116.591443 72.146481 
L 116.698803 72.018476 
L 116.807595 71.908393 
L 116.918705 71.734307 
L 117.012909 71.624223 
L 117.122756 71.512859 
L 117.239962 71.405335 
L 117.239962 71.402775 
L 117.348477 71.272211 
L 117.48122 71.162127 
L 117.59042 71.013642 
L 117.676685 70.903558 
L 117.787631 70.811395 
L 117.896599 70.720512 
L 117.896599 70.701311 
L 118.002335 70.579707 
L 118.084569 70.476023 
L 118.084569 70.469623 
L 118.194721 70.341618 
L 118.301846 70.231535 
L 118.411012 69.980646 
L 118.505126 69.870562 
L 118.615535 69.683676 
L 118.708491 69.577432 
L 118.708491 69.573592 
L 118.819079 69.432787 
L 118.914571 69.322703 
L 119.025493 69.206219 
L 119.127853 69.096135 
L 119.237264 68.924609 
L 119.314611 68.817086 
L 119.314611 68.814526 
L 119.424413 68.680121 
L 119.547934 68.571317 
L 119.547934 68.570037 
L 119.655809 68.454833 
L 119.729675 68.35883 
L 119.729675 68.344749 
L 119.838641 68.197544 
L 119.925436 68.090021 
L 119.925436 68.08746 
L 120.03618 67.958176 
L 120.126157 67.848092 
L 120.233666 67.627925 
L 120.313003 67.525521 
L 120.313003 67.517841 
L 120.422458 67.406477 
L 120.512448 67.297673 
L 120.512448 67.296393 
L 120.622109 67.183749 
L 120.689178 67.073665 
L 120.799639 66.884219 
L 120.891036 66.776695 
L 120.891036 66.774135 
L 121.001944 66.588529 
L 121.076641 66.479725 
L 121.076641 66.478445 
L 121.187224 66.33764 
L 121.255464 66.227556 
L 121.361831 66.084191 
L 121.434114 65.980508 
L 121.434114 65.974107 
L 121.543655 65.862744 
L 121.583153 65.814102 
L 121.583153 65.75266 
L 121.690779 65.582414 
L 121.802363 65.47233 
L 121.912385 65.353286 
L 121.994491 65.243202 
L 122.102525 65.110077 
L 122.204805 65.001274 
L 122.204805 64.999994 
L 122.31533 64.89759 
L 122.424985 64.787506 
L 122.534515 64.663342 
L 122.652164 64.559658 
L 122.652164 64.553258 
L 122.756245 64.436774 
L 122.826795 64.331811 
L 122.826795 64.32669 
L 122.937755 64.202526 
L 123.016637 64.092442 
L 123.127692 63.982358 
L 123.207957 63.874835 
L 123.207957 63.872275 
L 123.316015 63.766031 
L 123.449637 63.668748 
L 123.449637 63.655947 
L 123.560725 63.513862 
L 123.601794 63.470341 
L 123.601794 63.403778 
L 123.711243 63.286014 
L 123.81803 63.177211 
L 123.81803 63.175931 
L 123.927799 63.058167 
L 123.998073 62.948083 
L 124.109 62.786797 
L 124.210773 62.676713 
L 124.321693 62.546149 
L 124.434572 62.436065 
L 124.545165 62.244058 
L 124.637681 62.144215 
L 124.637681 62.133975 
L 124.74843 61.972689 
L 124.842341 61.862605 
L 124.952665 61.70516 
L 125.041907 61.597636 
L 125.041907 61.595076 
L 125.147945 61.473472 
L 125.276337 61.367228 
L 125.276337 61.363388 
L 125.386815 61.14962 
L 125.500156 61.039537 
L 125.611065 60.879531 
L 125.716651 60.769447 
L 125.827151 60.651683 
L 125.908056 60.541599 
L 126.018812 60.443036 
L 126.171333 60.332952 
L 126.270149 60.207508 
L 126.348649 60.098704 
L 126.348649 60.097424 
L 126.459365 59.883657 
L 126.498228 59.773573 
L 126.609093 59.641728 
L 126.667548 59.532925 
L 126.667548 59.531645 
L 126.776845 59.445882 
L 126.900642 59.335798 
L 127.009755 59.183472 
L 127.111743 59.073389 
L 127.221189 58.954345 
L 127.310364 58.845541 
L 127.310364 58.844261 
L 127.421026 58.702176 
L 127.517725 58.603612 
L 127.517725 58.592092 
L 127.626834 58.365524 
L 127.743233 58.25544 
L 127.852766 58.094155 
L 127.930603 57.985351 
L 127.930603 57.984071 
L 128.041316 57.866307 
L 128.137944 57.758783 
L 128.137944 57.756223 
L 128.245116 57.592377 
L 128.321545 57.482294 
L 128.431895 57.333809 
L 128.500384 57.231405 
L 128.500384 57.223725 
L 128.609912 57.107241 
L 128.715408 56.997157 
L 128.826223 56.828191 
L 128.886566 56.721947 
L 128.886566 56.718107 
L 128.997279 56.569622 
L 129.11388 56.460818 
L 129.11388 56.459538 
L 129.222964 56.340494 
L 129.340177 56.240651 
L 129.340177 56.23041 
L 129.449063 56.135687 
L 129.565466 56.025603 
L 129.675897 55.887358 
L 129.784264 55.777275 
L 129.893916 55.65439 
L 129.945199 55.545587 
L 129.945199 55.544307 
L 130.056035 55.36766 
L 130.143786 55.257577 
L 130.2548 55.091171 
L 130.339103 54.981087 
L 130.449594 54.832602 
L 130.554784 54.722518 
L 130.664442 54.572753 
L 130.766472 54.462669 
L 130.870243 54.330825 
L 130.987791 54.222021 
L 130.987791 54.220741 
L 131.098545 54.046655 
L 131.190946 53.940411 
L 131.190946 53.936571 
L 131.299532 53.823927 
L 131.385753 53.713843 
L 131.495079 53.6268 
L 131.557299 53.517997 
L 131.557299 53.516716 
L 131.666902 53.308069 
L 131.76799 53.199265 
L 131.76799 53.197985 
L 131.876399 53.098142 
L 132.002754 53.000859 
L 132.002754 52.988058 
L 132.112229 52.848533 
L 132.234471 52.74741 
L 132.234471 52.73845 
L 132.343065 52.655247 
L 132.491949 52.545163 
L 132.601994 52.427399 
L 132.738061 52.318595 
L 132.738061 52.317315 
L 132.845962 52.17523 
L 132.944467 52.070266 
L 132.944467 52.065146 
L 133.054322 51.850099 
L 133.158778 51.745135 
L 133.158778 51.740015 
L 133.26755 51.620971 
L 133.372955 51.510887 
L 133.483322 51.367522 
L 133.559871 51.257438 
L 133.669802 51.160155 
L 133.771168 51.050071 
L 133.88172 50.884945 
L 133.930286 50.790222 
L 133.930286 50.774862 
L 134.040269 50.644297 
L 134.134576 50.535493 
L 134.134576 50.534213 
L 134.239182 50.44461 
L 134.358506 50.353727 
L 134.358506 50.334526 
L 134.468169 50.210362 
L 134.566952 50.101558 
L 134.566952 50.100278 
L 134.673674 49.958193 
L 134.746066 49.85323 
L 134.746066 49.84811 
L 134.856367 49.726505 
L 134.93476 49.645863 
L 134.93476 49.616422 
L 135.045067 49.430815 
L 135.155451 49.320731 
L 135.244279 49.165846 
L 135.407393 49.055762 
L 135.514393 48.914957 
L 135.597486 48.813834 
L 135.597486 48.804873 
L 135.708284 48.683269 
L 135.790764 48.583426 
L 135.790764 48.573185 
L 135.901238 48.42086 
L 135.96723 48.314617 
L 135.96723 48.310776 
L 136.07346 48.161011 
L 136.202378 48.050927 
L 136.311242 47.931883 
L 136.46007 47.821799 
L 136.57039 47.673314 
L 136.703187 47.563231 
L 136.813107 47.431386 
L 136.882363 47.354583 
L 136.882363 47.321302 
L 136.9902 47.222739 
L 137.063596 47.135696 
L 137.063596 47.112655 
L 137.172813 46.97825 
L 137.247344 46.869447 
L 137.247344 46.868167 
L 137.348409 46.773443 
L 137.441575 46.663359 
L 137.551298 46.558396 
L 137.665923 46.448312 
L 137.776801 46.375349 
L 137.885824 46.265266 
L 137.994652 46.146222 
L 138.110128 46.046378 
L 138.110128 46.036138 
L 138.213894 45.932454 
L 138.329343 45.82237 
L 138.439779 45.740448 
L 138.584242 45.636764 
L 138.584242 45.630364 
L 138.693046 45.52796 
L 138.8032 45.417876 
L 138.911523 45.287312 
L 139.045503 45.177228 
L 139.15645 45.008262 
L 139.26831 44.898178 
L 139.378907 44.785534 
L 139.526299 44.684411 
L 139.526299 44.675451 
L 139.633037 44.537206 
L 139.749317 44.428402 
L 139.749317 44.427122 
L 139.859969 44.324719 
L 139.967101 44.215915 
L 139.967101 44.214635 
L 140.072308 44.07895 
L 140.181673 43.970146 
L 140.181673 43.968866 
L 140.286524 43.737178 
L 140.363886 43.627094 
L 140.47383 43.546452 
L 140.596757 43.436368 
L 140.707682 43.253321 
L 140.802297 43.159878 
L 140.802297 43.143238 
L 140.912729 42.971712 
L 140.986153 42.868028 
L 140.986153 42.861628 
L 141.096661 42.761784 
L 141.238725 42.651701 
L 141.348044 42.556977 
L 141.471819 42.452014 
L 141.471819 42.446894 
L 141.582292 42.33681 
L 141.70966 42.226726 
L 141.818953 42.106402 
L 141.933765 41.996318 
L 142.042547 41.899035 
L 142.173589 41.788951 
L 142.284591 41.701908 
L 142.382633 41.591824 
L 142.493158 41.457419 
L 142.606219 41.347336 
L 142.716119 41.239812 
L 142.84408 41.129728 
L 142.954705 40.996603 
L 143.093845 40.91212 
L 143.093845 40.88652 
L 143.203202 40.753395 
L 143.287011 40.643311 
L 143.394008 40.567789 
L 143.513576 40.457705 
L 143.621384 40.364262 
L 143.751414 40.254178 
L 143.862122 40.127453 
L 143.936819 40.078812 
L 143.936819 40.01737 
L 144.043338 39.894485 
L 144.155689 39.786962 
L 144.155689 39.784401 
L 144.265572 39.697358 
L 144.365408 39.587275 
L 144.473311 39.486151 
L 144.598543 39.378627 
L 144.598543 39.376067 
L 144.706591 39.273664 
L 144.848146 39.16358 
L 144.957271 39.066297 
L 145.104961 38.956213 
L 145.210825 38.889651 
L 145.334432 38.782127 
L 145.334432 38.779567 
L 145.427698 38.689964 
L 145.561519 38.58244 
L 145.561519 38.57988 
L 145.67199 38.478756 
L 145.789309 38.368673 
L 145.893737 38.29315 
L 146.00044 38.189466 
L 146.00044 38.183066 
L 146.109778 38.084503 
L 146.207276 37.974419 
L 146.316418 37.861775 
L 146.417217 37.761932 
L 146.417217 37.751691 
L 146.527089 37.656968 
L 146.618797 37.548164 
L 146.618797 37.546884 
L 146.729706 37.450881 
L 146.850216 37.340797 
L 146.956583 37.246074 
L 147.062726 37.13855 
L 147.062726 37.13599 
L 147.171432 37.068148 
L 147.265002 36.958064 
L 147.374078 36.867181 
L 147.542314 36.757097 
L 147.652233 36.640613 
L 147.788439 36.530529 
L 147.896293 36.439646 
L 148.048392 36.332122 
L 148.048392 36.329562 
L 148.15871 36.196437 
L 148.321913 36.086354 
L 148.430299 35.98907 
L 148.519526 35.885387 
L 148.519526 35.878986 
L 148.628711 35.745862 
L 148.715374 35.635778 
L 148.825702 35.494973 
L 148.990237 35.384889 
L 149.098193 35.291446 
L 149.269468 35.182642 
L 149.269468 35.181362 
L 149.379498 35.039277 
L 149.504602 34.943274 
L 149.504602 34.929194 
L 149.615671 34.83191 
L 149.757103 34.724386 
L 149.757103 34.721826 
L 149.8475 34.611743 
L 150.042654 34.501659 
L 150.15054 34.418456 
L 150.302471 34.309652 
L 150.302471 34.308372 
L 150.411715 34.231569 
L 150.574293 34.121486 
L 150.683507 33.990921 
L 150.791293 33.880837 
L 150.900586 33.746433 
L 151.056576 33.637629 
L 151.056576 33.636349 
L 151.167504 33.482744 
L 151.305924 33.37522 
L 151.305924 33.37266 
L 151.403847 33.298417 
L 151.54823 33.189613 
L 151.54823 33.188333 
L 151.658645 32.975846 
L 151.746745 32.865762 
L 151.857458 32.732638 
L 151.993024 32.622554 
L 152.103178 32.52399 
L 152.262789 32.417747 
L 152.262789 32.413907 
L 152.372485 32.311503 
L 152.465478 32.202699 
L 152.465478 32.201419 
L 152.575212 32.111816 
L 152.692867 32.003012 
L 152.692867 32.001732 
L 152.801335 31.901889 
L 152.913729 31.807166 
L 152.913729 31.791805 
L 153.023799 31.720123 
L 153.170188 31.610039 
L 153.280744 31.519156 
L 153.372577 31.410352 
L 153.372577 31.409072 
L 153.482658 31.322029 
L 153.578743 31.211945 
L 153.685916 31.122342 
L 153.795471 31.013538 
L 153.795471 31.012258 
L 153.895843 30.927775 
L 154.022002 30.817691 
L 154.132517 30.719128 
L 154.300956 30.611604 
L 154.300956 30.609044 
L 154.411942 30.529681 
L 154.590477 30.419598 
L 154.701499 30.341515 
L 154.84775 30.237831 
L 154.84775 30.231431 
L 154.957258 30.152068 
L 155.107017 30.052225 
L 155.107017 30.041985 
L 155.215847 29.91526 
L 155.324098 29.809016 
L 155.324098 29.805176 
L 155.434792 29.702773 
L 155.579357 29.593969 
L 155.579357 29.592689 
L 155.689828 29.536367 
L 155.867048 29.428843 
L 155.867048 29.426283 
L 155.977265 29.350761 
L 156.082086 29.275238 
L 156.082086 29.240677 
L 156.192638 29.122913 
L 156.348075 29.012829 
L 156.458031 28.938586 
L 156.573897 28.828503 
L 156.684273 28.76962 
L 156.843732 28.659537 
L 156.95212 28.575054 
L 157.13262 28.46497 
L 157.243641 28.392007 
L 157.434434 28.284484 
L 157.434434 28.281924 
L 157.544948 28.203841 
L 157.673148 28.095037 
L 157.673148 28.093757 
L 157.781274 28.005434 
L 157.977427 27.89535 
L 158.087788 27.813427 
L 158.280951 27.709744 
L 158.280951 27.703344 
L 158.391115 27.638061 
L 158.539219 27.533098 
L 158.539219 27.527978 
L 158.650012 27.437094 
L 158.828308 27.327011 
L 158.93045 27.252768 
L 159.124256 27.147804 
L 159.124256 27.142684 
L 159.234928 27.036441 
L 159.400484 26.936597 
L 159.400484 26.926357 
L 159.510554 26.832914 
L 159.667383 26.72411 
L 159.667383 26.72283 
L 159.776645 26.635787 
L 159.852988 26.528263 
L 159.852988 26.525703 
L 159.964025 26.404099 
L 160.205445 26.294015 
L 160.315176 26.183931 
L 160.568379 26.075127 
L 160.568379 26.073847 
L 160.678523 25.993204 
L 160.872112 25.883121 
L 160.979997 25.830639 
L 161.243325 25.720555 
L 161.352919 25.656553 
L 161.421685 25.546469 
L 161.529737 25.435105 
L 161.771702 25.325021 
L 161.879786 25.205977 
L 162.078891 25.095893 
L 162.187226 25.054932 
L 162.382379 24.944848 
L 162.482302 24.887246 
L 162.578658 24.787403 
L 162.578658 24.777162 
L 162.686545 24.723401 
L 162.945237 24.613317 
L 163.050811 24.553155 
L 163.255929 24.443071 
L 163.364493 24.373948 
L 163.56167 24.263865 
L 163.669934 24.201142 
L 163.881894 24.093619 
L 163.881894 24.091059 
L 163.983673 24.034737 
L 164.191995 23.941293 
L 164.191995 23.924653 
L 164.301211 23.859371 
L 164.519111 23.749287 
L 164.622966 23.681444 
L 164.847256 23.571361 
L 164.954789 23.507358 
L 165.256395 23.397275 
L 165.366763 23.324312 
L 165.629185 23.215508 
L 165.629185 23.214228 
L 165.737186 23.145106 
L 165.954024 23.064463 
L 165.954024 23.035022 
L 166.06338 22.994061 
L 166.320528 22.886537 
L 166.320528 22.883977 
L 166.42949 22.834055 
L 166.674853 22.723971 
L 166.783178 22.67149 
L 167.031451 22.562686 
L 167.031451 22.561406 
L 167.142487 22.502524 
L 167.425253 22.39372 
L 167.425253 22.39244 
L 167.534693 22.309237 
L 167.714432 22.199153 
L 167.825432 22.130031 
L 168.111822 22.021227 
L 168.111822 22.019947 
L 168.202273 21.961065 
L 168.362921 21.868902 
L 168.362921 21.850981 
L 168.469737 21.771618 
L 168.699596 21.661535 
L 168.798476 21.586012 
L 168.9816 21.477208 
L 168.9816 21.475928 
L 169.087824 21.410646 
L 169.368677 21.300562 
L 169.472405 21.269841 
L 169.75862 21.161037 
L 169.75862 21.159757 
L 169.868833 21.095755 
L 170.073055 20.994632 
L 170.073055 20.985671 
L 170.183664 20.890948 
L 170.426209 20.782144 
L 170.426209 20.780864 
L 170.532599 20.747583 
L 170.81462 20.637499 
L 170.919037 20.609338 
L 171.201324 20.500534 
L 171.201324 20.499254 
L 171.307066 20.444213 
L 171.544931 20.334129 
L 171.655082 20.291887 
L 171.91117 20.184364 
L 171.91117 20.181803 
L 172.013243 20.149802 
L 172.385187 20.039719 
L 172.49169 20.000037 
L 172.800794 19.892513 
L 172.800794 19.889953 
L 172.893284 19.859232 
L 173.222319 19.749148 
L 173.330815 19.727388 
L 173.696678 19.640345 
L 173.696678 19.617304 
L 173.801048 19.567382 
L 174.116283 19.457298 
L 174.220466 19.425297 
L 174.701557 19.316494 
L 174.701557 19.315213 
L 174.790733 19.274252 
L 175.123372 19.164168 
L 175.23006 19.119367 
L 175.604583 19.009283 
L 175.714502 18.973442 
L 176.003484 18.863358 
L 176.110866 18.837757 
L 176.481976 18.731513 
L 176.481976 18.727673 
L 176.587595 18.686712 
L 176.844366 18.577908 
L 176.844366 18.576628 
L 176.950965 18.536947 
L 177.412978 18.426863 
L 177.509764 18.392302 
L 178.017366 18.282218 
L 178.097396 18.259177 
L 178.469109 18.155493 
L 178.469109 18.149093 
L 178.569687 18.122212 
L 178.935505 18.013408 
L 178.935505 18.012128 
L 179.046542 17.995488 
L 179.303497 17.893084 
L 179.303497 17.885404 
L 179.397433 17.830362 
L 179.830949 17.749719 
L 179.830949 17.720278 
L 179.926169 17.686997 
L 180.399594 17.576913 
L 180.504201 17.534672 
L 180.82031 17.424588 
L 180.930118 17.407948 
L 181.326183 17.297864 
L 181.419229 17.278663 
L 181.97688 17.173699 
L 181.97688 17.168579 
L 182.068147 17.159619 
L 182.630135 17.049535 
L 182.734423 17.021374 
L 183.456881 16.918971 
L 183.456881 16.91129 
L 183.556193 16.88953 
L 184.357028 16.780726 
L 184.357028 16.779446 
L 184.431996 16.774326 
L 185.483978 16.665522 
L 185.483978 16.664242 
L 185.594179 16.639921 
L 186.431286 16.529837 
L 186.489205 16.518317 
L 187.28479 16.408233 
L 187.387357 16.400553 
L 188.526012 16.291749 
L 188.526012 16.290469 
L 188.634744 16.275108 
L 189.821229 16.165025 
L 189.916748 16.147104 
L 191.062452 16.03702 
L 191.173392 16.0255 
L 191.658655 15.961497 
L 191.658655 15.915416 
L 191.760522 15.74773 
L 192.911126 15.637646 
L 192.99203 15.629966 
L 194.175696 15.521162 
L 194.175696 15.519882 
L 194.276633 15.508362 
L 196.670403 15.398278 
L 196.771237 15.377797 
L 198.397623 15.279234 
L 198.397623 15.267713 
L 198.492295 15.265153 
L 200.715922 15.15891 
L 200.715922 15.15507 
L 200.768947 15.143549 
L 202.545393 15.061626 
L 202.545393 15.060346 
" style="fill:none;stroke:#ffd92f;stroke-linecap:square;stroke-width:1.5;"/>
   </g>
   <g id="patch_3">
    <path d="M 44.675 176.2 
L 44.675 14.3 
" style="fill:none;stroke:#000000;stroke-linecap:square;stroke-linejoin:miter;stroke-width:0.8;"/>
   </g>
   <g id="patch_4">
    <path d="M 44.675 176.2 
L 202.43375 176.2 
" style="fill:none;stroke:#000000;stroke-linecap:square;stroke-linejoin:miter;stroke-width:0.8;"/>
   </g>
  </g>
  <g id="legend_1">
   <g id="text_14">
    <!-- oxygen -->
    <g transform="translate(225.277344 96.38125)scale(0.1 -0.1)">
     <defs>
      <path d="M 0.734375 0 
L 19.671875 26.953125 
L 2.15625 51.859375 
L 13.140625 51.859375 
L 21.09375 39.703125 
Q 23.34375 36.234375 24.703125 33.890625 
Q 26.859375 37.109375 28.65625 39.59375 
L 37.40625 51.859375 
L 47.90625 51.859375 
L 29.984375 27.4375 
L 49.265625 0 
L 38.484375 0 
L 27.828125 16.109375 
L 25 20.453125 
L 11.375 0 
z
" id="ArialMT-120"/>
      <path d="M 4.984375 -4.296875 
L 13.53125 -5.5625 
Q 14.0625 -9.515625 16.5 -11.328125 
Q 19.78125 -13.765625 25.4375 -13.765625 
Q 31.546875 -13.765625 34.859375 -11.328125 
Q 38.1875 -8.890625 39.359375 -4.5 
Q 40.046875 -1.8125 39.984375 6.78125 
Q 34.234375 0 25.640625 0 
Q 14.9375 0 9.078125 7.71875 
Q 3.21875 15.4375 3.21875 26.21875 
Q 3.21875 33.640625 5.90625 39.90625 
Q 8.59375 46.1875 13.6875 49.609375 
Q 18.796875 53.03125 25.6875 53.03125 
Q 34.859375 53.03125 40.828125 45.609375 
L 40.828125 51.859375 
L 48.921875 51.859375 
L 48.921875 7.03125 
Q 48.921875 -5.078125 46.453125 -10.125 
Q 44 -15.1875 38.640625 -18.109375 
Q 33.296875 -21.046875 25.484375 -21.046875 
Q 16.21875 -21.046875 10.5 -16.875 
Q 4.78125 -12.703125 4.984375 -4.296875 
z
M 12.25 26.859375 
Q 12.25 16.65625 16.296875 11.96875 
Q 20.359375 7.28125 26.46875 7.28125 
Q 32.515625 7.28125 36.609375 11.9375 
Q 40.71875 16.609375 40.71875 26.5625 
Q 40.71875 36.078125 36.5 40.90625 
Q 32.28125 45.75 26.3125 45.75 
Q 20.453125 45.75 16.34375 40.984375 
Q 12.25 36.234375 12.25 26.859375 
z
" id="ArialMT-103"/>
     </defs>
     <use xlink:href="#ArialMT-111"/>
     <use x="55.615234" xlink:href="#ArialMT-120"/>
     <use x="105.615234" xlink:href="#ArialMT-121"/>
     <use x="155.615234" xlink:href="#ArialMT-103"/>
     <use x="211.230469" xlink:href="#ArialMT-101"/>
     <use x="266.845703" xlink:href="#ArialMT-110"/>
    </g>
   </g>
   <g id="line2d_14">
    <path d="M 215.173438 107.14375 
L 235.173438 107.14375 
" style="fill:none;stroke:#ffd92f;stroke-linecap:square;stroke-width:1.5;"/>
   </g>
   <g id="line2d_15"/>
   <g id="text_15">
    <!-- False -->
    <g transform="translate(243.173438 110.64375)scale(0.1 -0.1)">
     <defs>
      <path d="M 8.203125 0 
L 8.203125 71.578125 
L 56.5 71.578125 
L 56.5 63.140625 
L 17.671875 63.140625 
L 17.671875 40.96875 
L 51.265625 40.96875 
L 51.265625 32.515625 
L 17.671875 32.515625 
L 17.671875 0 
z
" id="ArialMT-70"/>
      <path d="M 40.4375 6.390625 
Q 35.546875 2.25 31.03125 0.53125 
Q 26.515625 -1.171875 21.34375 -1.171875 
Q 12.796875 -1.171875 8.203125 3 
Q 3.609375 7.171875 3.609375 13.671875 
Q 3.609375 17.484375 5.34375 20.625 
Q 7.078125 23.78125 9.890625 25.6875 
Q 12.703125 27.59375 16.21875 28.5625 
Q 18.796875 29.25 24.03125 29.890625 
Q 34.671875 31.15625 39.703125 32.90625 
Q 39.75 34.71875 39.75 35.203125 
Q 39.75 40.578125 37.25 42.78125 
Q 33.890625 45.75 27.25 45.75 
Q 21.046875 45.75 18.09375 43.578125 
Q 15.140625 41.40625 13.71875 35.890625 
L 5.125 37.0625 
Q 6.296875 42.578125 8.984375 45.96875 
Q 11.671875 49.359375 16.75 51.1875 
Q 21.828125 53.03125 28.515625 53.03125 
Q 35.15625 53.03125 39.296875 51.46875 
Q 43.453125 49.90625 45.40625 47.53125 
Q 47.359375 45.171875 48.140625 41.546875 
Q 48.578125 39.3125 48.578125 33.453125 
L 48.578125 21.734375 
Q 48.578125 9.46875 49.140625 6.21875 
Q 49.703125 2.984375 51.375 0 
L 42.1875 0 
Q 40.828125 2.734375 40.4375 6.390625 
z
M 39.703125 26.03125 
Q 34.90625 24.078125 25.34375 22.703125 
Q 19.921875 21.921875 17.671875 20.9375 
Q 15.4375 19.96875 14.203125 18.09375 
Q 12.984375 16.21875 12.984375 13.921875 
Q 12.984375 10.40625 15.640625 8.0625 
Q 18.3125 5.71875 23.4375 5.71875 
Q 28.515625 5.71875 32.46875 7.9375 
Q 36.421875 10.15625 38.28125 14.015625 
Q 39.703125 17 39.703125 22.796875 
z
" id="ArialMT-97"/>
      <path d="M 6.390625 0 
L 6.390625 71.578125 
L 15.1875 71.578125 
L 15.1875 0 
z
" id="ArialMT-108"/>
      <path d="M 3.078125 15.484375 
L 11.765625 16.84375 
Q 12.5 11.625 15.84375 8.84375 
Q 19.1875 6.0625 25.203125 6.0625 
Q 31.25 6.0625 34.171875 8.515625 
Q 37.109375 10.984375 37.109375 14.3125 
Q 37.109375 17.28125 34.515625 19 
Q 32.71875 20.171875 25.53125 21.96875 
Q 15.875 24.421875 12.140625 26.203125 
Q 8.40625 27.984375 6.46875 31.125 
Q 4.546875 34.28125 4.546875 38.09375 
Q 4.546875 41.546875 6.125 44.5 
Q 7.71875 47.46875 10.453125 49.421875 
Q 12.5 50.921875 16.03125 51.96875 
Q 19.578125 53.03125 23.640625 53.03125 
Q 29.734375 53.03125 34.34375 51.265625 
Q 38.96875 49.515625 41.15625 46.5 
Q 43.359375 43.5 44.1875 38.484375 
L 35.59375 37.3125 
Q 35.015625 41.3125 32.203125 43.546875 
Q 29.390625 45.796875 24.265625 45.796875 
Q 18.21875 45.796875 15.625 43.796875 
Q 13.03125 41.796875 13.03125 39.109375 
Q 13.03125 37.40625 14.109375 36.03125 
Q 15.1875 34.625 17.484375 33.6875 
Q 18.796875 33.203125 25.25 31.453125 
Q 34.578125 28.953125 38.25 27.359375 
Q 41.9375 25.78125 44.03125 22.75 
Q 46.140625 19.734375 46.140625 15.234375 
Q 46.140625 10.84375 43.578125 6.953125 
Q 41.015625 3.078125 36.171875 0.953125 
Q 31.34375 -1.171875 25.25 -1.171875 
Q 15.140625 -1.171875 9.84375 3.03125 
Q 4.546875 7.234375 3.078125 15.484375 
z
" id="ArialMT-115"/>
     </defs>
     <use xlink:href="#ArialMT-70"/>
     <use x="61.083984" xlink:href="#ArialMT-97"/>
     <use x="116.699219" xlink:href="#ArialMT-108"/>
     <use x="138.916016" xlink:href="#ArialMT-115"/>
     <use x="188.916016" xlink:href="#ArialMT-101"/>
    </g>
   </g>
   <g id="line2d_16">
    <path d="M 215.173438 121.289062 
L 235.173438 121.289062 
" style="fill:none;stroke:#8da0cb;stroke-linecap:square;stroke-width:1.5;"/>
   </g>
   <g id="line2d_17"/>
   <g id="text_16">
    <!-- True -->
    <g transform="translate(243.173438 124.789062)scale(0.1 -0.1)">
     <defs>
      <path d="M 25.921875 0 
L 25.921875 63.140625 
L 2.34375 63.140625 
L 2.34375 71.578125 
L 59.078125 71.578125 
L 59.078125 63.140625 
L 35.40625 63.140625 
L 35.40625 0 
z
" id="ArialMT-84"/>
      <path d="M 40.578125 0 
L 40.578125 7.625 
Q 34.515625 -1.171875 24.125 -1.171875 
Q 19.53125 -1.171875 15.546875 0.578125 
Q 11.578125 2.34375 9.640625 5 
Q 7.71875 7.671875 6.9375 11.53125 
Q 6.390625 14.109375 6.390625 19.734375 
L 6.390625 51.859375 
L 15.1875 51.859375 
L 15.1875 23.09375 
Q 15.1875 16.21875 15.71875 13.8125 
Q 16.546875 10.359375 19.234375 8.375 
Q 21.921875 6.390625 25.875 6.390625 
Q 29.828125 6.390625 33.296875 8.421875 
Q 36.765625 10.453125 38.203125 13.9375 
Q 39.65625 17.4375 39.65625 24.078125 
L 39.65625 51.859375 
L 48.4375 51.859375 
L 48.4375 0 
z
" id="ArialMT-117"/>
     </defs>
     <use xlink:href="#ArialMT-84"/>
     <use x="57.333984" xlink:href="#ArialMT-114"/>
     <use x="90.634766" xlink:href="#ArialMT-117"/>
     <use x="146.25" xlink:href="#ArialMT-101"/>
    </g>
   </g>
  </g>
 </g>
 <defs>
  <clipPath id="p81992ab09c">
   <rect height="161.9" width="157.75875" x="44.675" y="14.3"/>
  </clipPath>
 </defs>
</svg>
