<?xml version="1.0" encoding="utf-8" standalone="no"?>
<!DOCTYPE svg PUBLIC "-//W3C//DTD SVG 1.1//EN"
  "http://www.w3.org/Graphics/SVG/1.1/DTD/svg11.dtd">
<!-- Created with matplotlib (https://matplotlib.org/) -->
<svg height="216pt" version="1.1" viewBox="0 0 308.25 216" width="308.25pt" xmlns="http://www.w3.org/2000/svg" xmlns:xlink="http://www.w3.org/1999/xlink">
 <metadata>
  <rdf:RDF xmlns:cc="http://creativecommons.org/ns#" xmlns:dc="http://purl.org/dc/elements/1.1/" xmlns:rdf="http://www.w3.org/1999/02/22-rdf-syntax-ns#">
   <cc:Work>
    <dc:type rdf:resource="http://purl.org/dc/dcmitype/StillImage"/>
    <dc:date>2021-06-08T11:23:34.908697</dc:date>
    <dc:format>image/svg+xml</dc:format>
    <dc:creator>
     <cc:Agent>
      <dc:title>Matplotlib v3.3.4, https://matplotlib.org/</dc:title>
     </cc:Agent>
    </dc:creator>
   </cc:Work>
  </rdf:RDF>
 </metadata>
 <defs>
  <style type="text/css">*{stroke-linecap:butt;stroke-linejoin:round;}</style>
 </defs>
 <g id="figure_1">
  <g id="patch_1">
   <path d="M 0 216 
L 308.25 216 
L 308.25 0 
L 0 0 
z
" style="fill:none;"/>
  </g>
  <g id="axes_1">
   <g id="patch_2">
    <path d="M 44.675 176.2 
L 200.673246 176.2 
L 200.673246 14.3 
L 44.675 14.3 
z
" style="fill:#ffffff;"/>
   </g>
   <g id="matplotlib.axis_1">
    <g id="xtick_1">
     <g id="line2d_1">
      <defs>
       <path d="M 0 0 
L 0 3.5 
" id="m2e9b3d6df2" style="stroke:#000000;stroke-width:0.8;"/>
      </defs>
      <g>
       <use style="stroke:#000000;stroke-width:0.8;" x="47.452033" xlink:href="#m2e9b3d6df2" y="176.2"/>
      </g>
     </g>
     <g id="text_1">
      <!-- 0 -->
      <g transform="translate(44.671564 190.357812)scale(0.1 -0.1)">
       <defs>
        <path d="M 4.15625 35.296875 
Q 4.15625 48 6.765625 55.734375 
Q 9.375 63.484375 14.515625 67.671875 
Q 19.671875 71.875 27.484375 71.875 
Q 33.25 71.875 37.59375 69.546875 
Q 41.9375 67.234375 44.765625 62.859375 
Q 47.609375 58.5 49.21875 52.21875 
Q 50.828125 45.953125 50.828125 35.296875 
Q 50.828125 22.703125 48.234375 14.96875 
Q 45.65625 7.234375 40.5 3 
Q 35.359375 -1.21875 27.484375 -1.21875 
Q 17.140625 -1.21875 11.234375 6.203125 
Q 4.15625 15.140625 4.15625 35.296875 
z
M 13.1875 35.296875 
Q 13.1875 17.671875 17.3125 11.828125 
Q 21.4375 6 27.484375 6 
Q 33.546875 6 37.671875 11.859375 
Q 41.796875 17.71875 41.796875 35.296875 
Q 41.796875 52.984375 37.671875 58.78125 
Q 33.546875 64.59375 27.390625 64.59375 
Q 21.34375 64.59375 17.71875 59.46875 
Q 13.1875 52.9375 13.1875 35.296875 
z
" id="ArialMT-48"/>
       </defs>
       <use xlink:href="#ArialMT-48"/>
      </g>
     </g>
    </g>
    <g id="xtick_2">
     <g id="line2d_2">
      <g>
       <use style="stroke:#000000;stroke-width:0.8;" x="98.10155" xlink:href="#m2e9b3d6df2" y="176.2"/>
      </g>
     </g>
     <g id="text_2">
      <!-- 1 -->
      <g transform="translate(95.321081 190.357812)scale(0.1 -0.1)">
       <defs>
        <path d="M 37.25 0 
L 28.46875 0 
L 28.46875 56 
Q 25.296875 52.984375 20.140625 49.953125 
Q 14.984375 46.921875 10.890625 45.40625 
L 10.890625 53.90625 
Q 18.265625 57.375 23.78125 62.296875 
Q 29.296875 67.234375 31.59375 71.875 
L 37.25 71.875 
z
" id="ArialMT-49"/>
       </defs>
       <use xlink:href="#ArialMT-49"/>
      </g>
     </g>
    </g>
    <g id="xtick_3">
     <g id="line2d_3">
      <g>
       <use style="stroke:#000000;stroke-width:0.8;" x="148.751067" xlink:href="#m2e9b3d6df2" y="176.2"/>
      </g>
     </g>
     <g id="text_3">
      <!-- 2 -->
      <g transform="translate(145.970598 190.357812)scale(0.1 -0.1)">
       <defs>
        <path d="M 50.34375 8.453125 
L 50.34375 0 
L 3.03125 0 
Q 2.9375 3.171875 4.046875 6.109375 
Q 5.859375 10.9375 9.828125 15.625 
Q 13.8125 20.3125 21.34375 26.46875 
Q 33.015625 36.03125 37.109375 41.625 
Q 41.21875 47.21875 41.21875 52.203125 
Q 41.21875 57.421875 37.46875 61 
Q 33.734375 64.59375 27.734375 64.59375 
Q 21.390625 64.59375 17.578125 60.78125 
Q 13.765625 56.984375 13.71875 50.25 
L 4.6875 51.171875 
Q 5.609375 61.28125 11.65625 66.578125 
Q 17.71875 71.875 27.9375 71.875 
Q 38.234375 71.875 44.234375 66.15625 
Q 50.25 60.453125 50.25 52 
Q 50.25 47.703125 48.484375 43.546875 
Q 46.734375 39.40625 42.65625 34.8125 
Q 38.578125 30.21875 29.109375 22.21875 
Q 21.1875 15.578125 18.9375 13.203125 
Q 16.703125 10.84375 15.234375 8.453125 
z
" id="ArialMT-50"/>
       </defs>
       <use xlink:href="#ArialMT-50"/>
      </g>
     </g>
    </g>
    <g id="xtick_4">
     <g id="line2d_4">
      <g>
       <use style="stroke:#000000;stroke-width:0.8;" x="199.400584" xlink:href="#m2e9b3d6df2" y="176.2"/>
      </g>
     </g>
     <g id="text_4">
      <!-- 3 -->
      <g transform="translate(196.620116 190.357812)scale(0.1 -0.1)">
       <defs>
        <path d="M 4.203125 18.890625 
L 12.984375 20.0625 
Q 14.5 12.59375 18.140625 9.296875 
Q 21.78125 6 27 6 
Q 33.203125 6 37.46875 10.296875 
Q 41.75 14.59375 41.75 20.953125 
Q 41.75 27 37.796875 30.921875 
Q 33.84375 34.859375 27.734375 34.859375 
Q 25.25 34.859375 21.53125 33.890625 
L 22.515625 41.609375 
Q 23.390625 41.5 23.921875 41.5 
Q 29.546875 41.5 34.03125 44.421875 
Q 38.53125 47.359375 38.53125 53.46875 
Q 38.53125 58.296875 35.25 61.46875 
Q 31.984375 64.65625 26.8125 64.65625 
Q 21.6875 64.65625 18.265625 61.421875 
Q 14.84375 58.203125 13.875 51.765625 
L 5.078125 53.328125 
Q 6.6875 62.15625 12.390625 67.015625 
Q 18.109375 71.875 26.609375 71.875 
Q 32.46875 71.875 37.390625 69.359375 
Q 42.328125 66.84375 44.9375 62.5 
Q 47.5625 58.15625 47.5625 53.265625 
Q 47.5625 48.640625 45.0625 44.828125 
Q 42.578125 41.015625 37.703125 38.765625 
Q 44.046875 37.3125 47.5625 32.6875 
Q 51.078125 28.078125 51.078125 21.140625 
Q 51.078125 11.765625 44.234375 5.25 
Q 37.40625 -1.265625 26.953125 -1.265625 
Q 17.53125 -1.265625 11.296875 4.34375 
Q 5.078125 9.96875 4.203125 18.890625 
z
" id="ArialMT-51"/>
       </defs>
       <use xlink:href="#ArialMT-51"/>
      </g>
     </g>
    </g>
    <g id="text_5">
     <!-- entropy -->
     <g transform="translate(105.998342 203.385938)scale(0.1 -0.1)">
      <defs>
       <path d="M 42.09375 16.703125 
L 51.171875 15.578125 
Q 49.03125 7.625 43.21875 3.21875 
Q 37.40625 -1.171875 28.375 -1.171875 
Q 17 -1.171875 10.328125 5.828125 
Q 3.65625 12.84375 3.65625 25.484375 
Q 3.65625 38.578125 10.390625 45.796875 
Q 17.140625 53.03125 27.875 53.03125 
Q 38.28125 53.03125 44.875 45.953125 
Q 51.46875 38.875 51.46875 26.03125 
Q 51.46875 25.25 51.421875 23.6875 
L 12.75 23.6875 
Q 13.234375 15.140625 17.578125 10.59375 
Q 21.921875 6.0625 28.421875 6.0625 
Q 33.25 6.0625 36.671875 8.59375 
Q 40.09375 11.140625 42.09375 16.703125 
z
M 13.234375 30.90625 
L 42.1875 30.90625 
Q 41.609375 37.453125 38.875 40.71875 
Q 34.671875 45.796875 27.984375 45.796875 
Q 21.921875 45.796875 17.796875 41.75 
Q 13.671875 37.703125 13.234375 30.90625 
z
" id="ArialMT-101"/>
       <path d="M 6.59375 0 
L 6.59375 51.859375 
L 14.5 51.859375 
L 14.5 44.484375 
Q 20.21875 53.03125 31 53.03125 
Q 35.6875 53.03125 39.625 51.34375 
Q 43.5625 49.65625 45.515625 46.921875 
Q 47.46875 44.1875 48.25 40.4375 
Q 48.734375 37.984375 48.734375 31.890625 
L 48.734375 0 
L 39.9375 0 
L 39.9375 31.546875 
Q 39.9375 36.921875 38.90625 39.578125 
Q 37.890625 42.234375 35.28125 43.8125 
Q 32.671875 45.40625 29.15625 45.40625 
Q 23.53125 45.40625 19.453125 41.84375 
Q 15.375 38.28125 15.375 28.328125 
L 15.375 0 
z
" id="ArialMT-110"/>
       <path d="M 25.78125 7.859375 
L 27.046875 0.09375 
Q 23.34375 -0.6875 20.40625 -0.6875 
Q 15.625 -0.6875 12.984375 0.828125 
Q 10.359375 2.34375 9.28125 4.8125 
Q 8.203125 7.28125 8.203125 15.1875 
L 8.203125 45.015625 
L 1.765625 45.015625 
L 1.765625 51.859375 
L 8.203125 51.859375 
L 8.203125 64.703125 
L 16.9375 69.96875 
L 16.9375 51.859375 
L 25.78125 51.859375 
L 25.78125 45.015625 
L 16.9375 45.015625 
L 16.9375 14.703125 
Q 16.9375 10.9375 17.40625 9.859375 
Q 17.875 8.796875 18.921875 8.15625 
Q 19.96875 7.515625 21.921875 7.515625 
Q 23.390625 7.515625 25.78125 7.859375 
z
" id="ArialMT-116"/>
       <path d="M 6.5 0 
L 6.5 51.859375 
L 14.40625 51.859375 
L 14.40625 44 
Q 17.4375 49.515625 20 51.265625 
Q 22.5625 53.03125 25.640625 53.03125 
Q 30.078125 53.03125 34.671875 50.203125 
L 31.640625 42.046875 
Q 28.421875 43.953125 25.203125 43.953125 
Q 22.3125 43.953125 20.015625 42.21875 
Q 17.71875 40.484375 16.75 37.40625 
Q 15.28125 32.71875 15.28125 27.15625 
L 15.28125 0 
z
" id="ArialMT-114"/>
       <path d="M 3.328125 25.921875 
Q 3.328125 40.328125 11.328125 47.265625 
Q 18.015625 53.03125 27.640625 53.03125 
Q 38.328125 53.03125 45.109375 46.015625 
Q 51.90625 39.015625 51.90625 26.65625 
Q 51.90625 16.65625 48.90625 10.90625 
Q 45.90625 5.171875 40.15625 2 
Q 34.421875 -1.171875 27.640625 -1.171875 
Q 16.75 -1.171875 10.03125 5.8125 
Q 3.328125 12.796875 3.328125 25.921875 
z
M 12.359375 25.921875 
Q 12.359375 15.96875 16.703125 11.015625 
Q 21.046875 6.0625 27.640625 6.0625 
Q 34.1875 6.0625 38.53125 11.03125 
Q 42.875 16.015625 42.875 26.21875 
Q 42.875 35.84375 38.5 40.796875 
Q 34.125 45.75 27.640625 45.75 
Q 21.046875 45.75 16.703125 40.8125 
Q 12.359375 35.890625 12.359375 25.921875 
z
" id="ArialMT-111"/>
       <path d="M 6.59375 -19.875 
L 6.59375 51.859375 
L 14.59375 51.859375 
L 14.59375 45.125 
Q 17.4375 49.078125 21 51.046875 
Q 24.5625 53.03125 29.640625 53.03125 
Q 36.28125 53.03125 41.359375 49.609375 
Q 46.4375 46.1875 49.015625 39.953125 
Q 51.609375 33.734375 51.609375 26.3125 
Q 51.609375 18.359375 48.75 11.984375 
Q 45.90625 5.609375 40.453125 2.21875 
Q 35.015625 -1.171875 29 -1.171875 
Q 24.609375 -1.171875 21.109375 0.6875 
Q 17.625 2.546875 15.375 5.375 
L 15.375 -19.875 
z
M 14.546875 25.640625 
Q 14.546875 15.625 18.59375 10.84375 
Q 22.65625 6.0625 28.421875 6.0625 
Q 34.28125 6.0625 38.453125 11.015625 
Q 42.625 15.96875 42.625 26.375 
Q 42.625 36.28125 38.546875 41.203125 
Q 34.46875 46.140625 28.8125 46.140625 
Q 23.1875 46.140625 18.859375 40.890625 
Q 14.546875 35.640625 14.546875 25.640625 
z
" id="ArialMT-112"/>
       <path d="M 6.203125 -19.96875 
L 5.21875 -11.71875 
Q 8.109375 -12.5 10.25 -12.5 
Q 13.1875 -12.5 14.9375 -11.515625 
Q 16.703125 -10.546875 17.828125 -8.796875 
Q 18.65625 -7.46875 20.515625 -2.25 
Q 20.75 -1.515625 21.296875 -0.09375 
L 1.609375 51.859375 
L 11.078125 51.859375 
L 21.875 21.828125 
Q 23.96875 16.109375 25.640625 9.8125 
Q 27.15625 15.875 29.25 21.625 
L 40.328125 51.859375 
L 49.125 51.859375 
L 29.390625 -0.875 
Q 26.21875 -9.421875 24.46875 -12.640625 
Q 22.125 -17 19.09375 -19.015625 
Q 16.0625 -21.046875 11.859375 -21.046875 
Q 9.328125 -21.046875 6.203125 -19.96875 
z
" id="ArialMT-121"/>
      </defs>
      <use xlink:href="#ArialMT-101"/>
      <use x="55.615234" xlink:href="#ArialMT-110"/>
      <use x="111.230469" xlink:href="#ArialMT-116"/>
      <use x="139.013672" xlink:href="#ArialMT-114"/>
      <use x="172.314453" xlink:href="#ArialMT-111"/>
      <use x="227.929688" xlink:href="#ArialMT-112"/>
      <use x="283.544922" xlink:href="#ArialMT-121"/>
     </g>
    </g>
   </g>
   <g id="matplotlib.axis_2">
    <g id="ytick_1">
     <g id="line2d_5">
      <defs>
       <path d="M 0 0 
L -3.5 0 
" id="mb7eae08f2b" style="stroke:#000000;stroke-width:0.8;"/>
      </defs>
      <g>
       <use style="stroke:#000000;stroke-width:0.8;" x="44.675" xlink:href="#mb7eae08f2b" y="176.2"/>
      </g>
     </g>
     <g id="text_6">
      <!-- 0.0 -->
      <g transform="translate(23.775 179.778906)scale(0.1 -0.1)">
       <defs>
        <path d="M 9.078125 0 
L 9.078125 10.015625 
L 19.09375 10.015625 
L 19.09375 0 
z
" id="ArialMT-46"/>
       </defs>
       <use xlink:href="#ArialMT-48"/>
       <use x="55.615234" xlink:href="#ArialMT-46"/>
       <use x="83.398438" xlink:href="#ArialMT-48"/>
      </g>
     </g>
    </g>
    <g id="ytick_2">
     <g id="line2d_6">
      <g>
       <use style="stroke:#000000;stroke-width:0.8;" x="44.675" xlink:href="#mb7eae08f2b" y="143.82"/>
      </g>
     </g>
     <g id="text_7">
      <!-- 0.2 -->
      <g transform="translate(23.775 147.398906)scale(0.1 -0.1)">
       <use xlink:href="#ArialMT-48"/>
       <use x="55.615234" xlink:href="#ArialMT-46"/>
       <use x="83.398438" xlink:href="#ArialMT-50"/>
      </g>
     </g>
    </g>
    <g id="ytick_3">
     <g id="line2d_7">
      <g>
       <use style="stroke:#000000;stroke-width:0.8;" x="44.675" xlink:href="#mb7eae08f2b" y="111.44"/>
      </g>
     </g>
     <g id="text_8">
      <!-- 0.4 -->
      <g transform="translate(23.775 115.018906)scale(0.1 -0.1)">
       <defs>
        <path d="M 32.328125 0 
L 32.328125 17.140625 
L 1.265625 17.140625 
L 1.265625 25.203125 
L 33.9375 71.578125 
L 41.109375 71.578125 
L 41.109375 25.203125 
L 50.78125 25.203125 
L 50.78125 17.140625 
L 41.109375 17.140625 
L 41.109375 0 
z
M 32.328125 25.203125 
L 32.328125 57.46875 
L 9.90625 25.203125 
z
" id="ArialMT-52"/>
       </defs>
       <use xlink:href="#ArialMT-48"/>
       <use x="55.615234" xlink:href="#ArialMT-46"/>
       <use x="83.398438" xlink:href="#ArialMT-52"/>
      </g>
     </g>
    </g>
    <g id="ytick_4">
     <g id="line2d_8">
      <g>
       <use style="stroke:#000000;stroke-width:0.8;" x="44.675" xlink:href="#mb7eae08f2b" y="79.06"/>
      </g>
     </g>
     <g id="text_9">
      <!-- 0.6 -->
      <g transform="translate(23.775 82.638906)scale(0.1 -0.1)">
       <defs>
        <path d="M 49.75 54.046875 
L 41.015625 53.375 
Q 39.84375 58.546875 37.703125 60.890625 
Q 34.125 64.65625 28.90625 64.65625 
Q 24.703125 64.65625 21.53125 62.3125 
Q 17.390625 59.28125 14.984375 53.46875 
Q 12.59375 47.65625 12.5 36.921875 
Q 15.671875 41.75 20.265625 44.09375 
Q 24.859375 46.4375 29.890625 46.4375 
Q 38.671875 46.4375 44.84375 39.96875 
Q 51.03125 33.5 51.03125 23.25 
Q 51.03125 16.5 48.125 10.71875 
Q 45.21875 4.9375 40.140625 1.859375 
Q 35.0625 -1.21875 28.609375 -1.21875 
Q 17.625 -1.21875 10.6875 6.859375 
Q 3.765625 14.9375 3.765625 33.5 
Q 3.765625 54.25 11.421875 63.671875 
Q 18.109375 71.875 29.4375 71.875 
Q 37.890625 71.875 43.28125 67.140625 
Q 48.6875 62.40625 49.75 54.046875 
z
M 13.875 23.1875 
Q 13.875 18.65625 15.796875 14.5 
Q 17.71875 10.359375 21.1875 8.171875 
Q 24.65625 6 28.46875 6 
Q 34.03125 6 38.03125 10.484375 
Q 42.046875 14.984375 42.046875 22.703125 
Q 42.046875 30.125 38.078125 34.390625 
Q 34.125 38.671875 28.125 38.671875 
Q 22.171875 38.671875 18.015625 34.390625 
Q 13.875 30.125 13.875 23.1875 
z
" id="ArialMT-54"/>
       </defs>
       <use xlink:href="#ArialMT-48"/>
       <use x="55.615234" xlink:href="#ArialMT-46"/>
       <use x="83.398438" xlink:href="#ArialMT-54"/>
      </g>
     </g>
    </g>
    <g id="ytick_5">
     <g id="line2d_9">
      <g>
       <use style="stroke:#000000;stroke-width:0.8;" x="44.675" xlink:href="#mb7eae08f2b" y="46.68"/>
      </g>
     </g>
     <g id="text_10">
      <!-- 0.8 -->
      <g transform="translate(23.775 50.258906)scale(0.1 -0.1)">
       <defs>
        <path d="M 17.671875 38.8125 
Q 12.203125 40.828125 9.5625 44.53125 
Q 6.9375 48.25 6.9375 53.421875 
Q 6.9375 61.234375 12.546875 66.546875 
Q 18.171875 71.875 27.484375 71.875 
Q 36.859375 71.875 42.578125 66.421875 
Q 48.296875 60.984375 48.296875 53.171875 
Q 48.296875 48.1875 45.671875 44.5 
Q 43.0625 40.828125 37.75 38.8125 
Q 44.34375 36.671875 47.78125 31.875 
Q 51.21875 27.09375 51.21875 20.453125 
Q 51.21875 11.28125 44.71875 5.03125 
Q 38.234375 -1.21875 27.640625 -1.21875 
Q 17.046875 -1.21875 10.546875 5.046875 
Q 4.046875 11.328125 4.046875 20.703125 
Q 4.046875 27.6875 7.59375 32.390625 
Q 11.140625 37.109375 17.671875 38.8125 
z
M 15.921875 53.71875 
Q 15.921875 48.640625 19.1875 45.40625 
Q 22.46875 42.1875 27.6875 42.1875 
Q 32.765625 42.1875 36.015625 45.375 
Q 39.265625 48.578125 39.265625 53.21875 
Q 39.265625 58.0625 35.90625 61.359375 
Q 32.5625 64.65625 27.59375 64.65625 
Q 22.5625 64.65625 19.234375 61.421875 
Q 15.921875 58.203125 15.921875 53.71875 
z
M 13.09375 20.65625 
Q 13.09375 16.890625 14.875 13.375 
Q 16.65625 9.859375 20.171875 7.921875 
Q 23.6875 6 27.734375 6 
Q 34.03125 6 38.125 10.046875 
Q 42.234375 14.109375 42.234375 20.359375 
Q 42.234375 26.703125 38.015625 30.859375 
Q 33.796875 35.015625 27.4375 35.015625 
Q 21.234375 35.015625 17.15625 30.90625 
Q 13.09375 26.8125 13.09375 20.65625 
z
" id="ArialMT-56"/>
       </defs>
       <use xlink:href="#ArialMT-48"/>
       <use x="55.615234" xlink:href="#ArialMT-46"/>
       <use x="83.398438" xlink:href="#ArialMT-56"/>
      </g>
     </g>
    </g>
    <g id="ytick_6">
     <g id="line2d_10">
      <g>
       <use style="stroke:#000000;stroke-width:0.8;" x="44.675" xlink:href="#mb7eae08f2b" y="14.3"/>
      </g>
     </g>
     <g id="text_11">
      <!-- 1.0 -->
      <g transform="translate(23.775 17.878906)scale(0.1 -0.1)">
       <use xlink:href="#ArialMT-49"/>
       <use x="55.615234" xlink:href="#ArialMT-46"/>
       <use x="83.398438" xlink:href="#ArialMT-48"/>
      </g>
     </g>
    </g>
    <g id="text_12">
     <!-- Proportion -->
     <g transform="translate(17.7875 118.317187)rotate(-90)scale(0.1 -0.1)">
      <defs>
       <path d="M 7.71875 0 
L 7.71875 71.578125 
L 34.71875 71.578125 
Q 41.84375 71.578125 45.609375 70.90625 
Q 50.875 70.015625 54.4375 67.546875 
Q 58.015625 65.09375 60.1875 60.640625 
Q 62.359375 56.203125 62.359375 50.875 
Q 62.359375 41.75 56.546875 35.421875 
Q 50.734375 29.109375 35.546875 29.109375 
L 17.1875 29.109375 
L 17.1875 0 
z
M 17.1875 37.546875 
L 35.6875 37.546875 
Q 44.875 37.546875 48.734375 40.96875 
Q 52.59375 44.390625 52.59375 50.59375 
Q 52.59375 55.078125 50.3125 58.265625 
Q 48.046875 61.46875 44.34375 62.5 
Q 41.9375 63.140625 35.5 63.140625 
L 17.1875 63.140625 
z
" id="ArialMT-80"/>
       <path d="M 6.640625 61.46875 
L 6.640625 71.578125 
L 15.4375 71.578125 
L 15.4375 61.46875 
z
M 6.640625 0 
L 6.640625 51.859375 
L 15.4375 51.859375 
L 15.4375 0 
z
" id="ArialMT-105"/>
      </defs>
      <use xlink:href="#ArialMT-80"/>
      <use x="66.699219" xlink:href="#ArialMT-114"/>
      <use x="100" xlink:href="#ArialMT-111"/>
      <use x="155.615234" xlink:href="#ArialMT-112"/>
      <use x="211.230469" xlink:href="#ArialMT-111"/>
      <use x="266.845703" xlink:href="#ArialMT-114"/>
      <use x="300.146484" xlink:href="#ArialMT-116"/>
      <use x="327.929688" xlink:href="#ArialMT-105"/>
      <use x="350.146484" xlink:href="#ArialMT-111"/>
      <use x="405.761719" xlink:href="#ArialMT-110"/>
     </g>
    </g>
   </g>
   <g id="line2d_11">
    <path clip-path="url(#pf641e17452)" d="M 54.964097 176.2 
L 54.964097 173.919718 
L 55.516157 173.919718 
L 55.516157 171.639437 
L 57.706885 171.639437 
L 57.706885 169.359155 
L 60.318769 169.359155 
L 60.318769 167.078873 
L 62.636956 167.078873 
L 62.695347 162.51831 
L 63.088283 162.51831 
L 63.088283 160.238028 
L 63.396793 160.238028 
L 63.396793 157.957746 
L 64.987571 157.957746 
L 64.987571 155.677465 
L 65.430068 155.677465 
L 65.430068 153.397183 
L 68.328801 153.397183 
L 68.328801 151.116901 
L 70.787621 151.116901 
L 70.787621 148.83662 
L 78.971055 148.83662 
L 78.971055 146.556338 
L 80.349385 146.556338 
L 80.349385 144.276056 
L 80.742875 144.276056 
L 80.742875 141.995775 
L 82.023429 141.995775 
L 82.023429 139.715493 
L 84.883508 139.715493 
L 84.883508 137.435211 
L 86.817798 137.435211 
L 86.817798 135.15493 
L 92.538998 135.15493 
L 92.538998 132.874648 
L 93.08282 132.874648 
L 93.08282 130.594366 
L 93.33045 130.594366 
L 93.33045 128.314085 
L 97.766107 128.314085 
L 97.859972 123.753521 
L 101.011229 123.753521 
L 101.08223 116.912676 
L 102.094174 116.912676 
L 102.094174 114.632394 
L 103.934242 114.632394 
L 103.934242 112.352113 
L 105.716894 112.352113 
L 105.716894 110.071831 
L 106.918227 110.071831 
L 106.918227 107.791549 
L 108.13903 107.791549 
L 108.13903 105.511268 
L 108.565754 105.511268 
L 108.634122 100.950704 
L 109.566135 100.950704 
L 109.566135 98.670423 
L 110.152063 98.670423 
L 110.152063 96.390141 
L 113.331892 96.390141 
L 113.331892 94.109859 
L 114.385422 94.109859 
L 114.385422 91.829577 
L 114.61711 91.829577 
L 114.61711 89.549296 
L 115.884956 89.549296 
L 115.884956 87.269014 
L 116.477918 87.269014 
L 116.477918 84.988732 
L 117.249689 84.988732 
L 117.249689 82.708451 
L 118.39389 82.708451 
L 118.39389 80.428169 
L 118.716458 80.428169 
L 118.716458 78.147887 
L 119.075034 78.147887 
L 119.075034 75.867606 
L 121.468082 75.867606 
L 121.468082 73.587324 
L 124.370832 73.587324 
L 124.370832 71.307042 
L 126.593044 71.307042 
L 126.610956 66.746479 
L 128.269216 66.746479 
L 128.269216 64.466197 
L 129.967402 64.466197 
L 129.967402 62.185915 
L 130.647173 62.185915 
L 130.647173 59.905634 
L 131.45709 59.905634 
L 131.45709 57.625352 
L 132.190746 57.625352 
L 132.190746 55.34507 
L 134.60875 55.34507 
L 134.60875 53.064789 
L 136.452583 53.064789 
L 136.452583 50.784507 
L 138.118471 50.784507 
L 138.118471 48.504225 
L 139.212187 48.504225 
L 139.212187 46.223944 
L 141.393331 46.223944 
L 141.393331 43.943662 
L 143.625717 43.943662 
L 143.625717 41.66338 
L 146.0537 41.66338 
L 146.0537 39.383099 
L 147.118391 39.383099 
L 147.118391 37.102817 
L 147.828576 37.102817 
L 147.828576 34.822535 
L 148.298533 34.822535 
L 148.298533 32.542254 
L 148.498818 32.542254 
L 148.498818 30.261972 
L 151.950495 30.261972 
L 151.950495 27.98169 
L 154.337172 27.98169 
L 154.337172 25.701408 
L 158.064399 25.701408 
L 158.064399 23.421127 
L 160.032382 23.421127 
L 160.032382 21.140845 
L 164.857369 21.140845 
L 164.857369 18.860563 
L 178.960506 18.860563 
L 178.960506 16.580282 
L 180.207043 16.580282 
L 180.207043 14.3 
L 180.207043 14.3 
" style="fill:none;stroke:#ff7f0e;stroke-linecap:square;stroke-width:1.5;"/>
   </g>
   <g id="line2d_12">
    <path clip-path="url(#pf641e17452)" d="M 51.765829 176.2 
L 51.765829 175.822331 
L 52.114335 175.822331 
L 52.114335 175.71933 
L 52.118404 175.204326 
L 52.426314 175.204326 
L 52.426314 175.101325 
L 52.462791 174.689322 
L 52.71762 174.586322 
L 52.811197 174.088485 
L 53.065976 174.036984 
L 53.065976 173.985484 
L 53.159552 173.298812 
L 53.342659 173.195812 
L 53.434902 172.818142 
L 53.507857 172.715142 
L 53.608061 172.388973 
L 53.690914 172.303139 
L 53.690914 172.285972 
L 53.783157 172.062804 
L 53.864247 171.959803 
L 53.961856 171.753801 
L 54.002641 171.667967 
L 54.002641 171.650801 
L 54.112642 171.393299 
L 54.210842 171.290298 
L 54.304419 171.101463 
L 54.424267 170.998463 
L 54.524027 170.758127 
L 54.652522 170.655127 
L 54.761364 170.449125 
L 54.808798 170.363291 
L 54.808798 170.346124 
L 54.91823 170.122956 
L 55.002847 170.019955 
L 55.100526 169.642286 
L 55.168257 169.539285 
L 55.266913 169.384784 
L 55.328783 169.350451 
L 55.328783 169.281783 
L 55.437754 168.904114 
L 55.468274 168.801113 
L 55.568034 168.543611 
L 55.70509 168.440611 
L 55.785655 168.183109 
L 55.903745 168.080108 
L 55.963986 167.874107 
L 56.190829 167.771106 
L 56.289527 167.599438 
L 56.461079 167.496437 
L 56.565831 167.410603 
L 56.75311 167.307603 
L 56.856328 167.221769 
L 56.912079 167.118768 
L 57.013111 166.929933 
L 57.138427 166.826932 
L 57.244088 166.552264 
L 57.306905 166.449263 
L 57.369107 166.414929 
L 57.64053 166.311929 
L 57.7211 166.191761 
L 57.837074 166.08876 
L 57.944137 166.054427 
L 58.033943 165.951426 
L 58.140824 165.814092 
L 58.205146 165.711091 
L 58.298205 165.625257 
L 58.456676 165.522256 
L 58.544237 165.419256 
L 58.69354 165.316255 
L 58.795851 165.196087 
L 58.936865 165.093087 
L 59.021 164.990086 
L 59.284809 164.887085 
L 59.393187 164.818418 
L 59.511009 164.715417 
L 59.613723 164.59525 
L 59.693602 164.492249 
L 59.780031 164.389248 
L 59.953698 164.286247 
L 60.056836 164.183247 
L 60.158248 164.080246 
L 60.25889 163.908578 
L 60.403195 163.805577 
L 60.477242 163.771244 
L 60.657759 163.668243 
L 60.763463 163.565242 
L 61.032951 163.462242 
L 61.135333 163.342074 
L 61.254897 163.239073 
L 61.361005 163.118906 
L 61.485691 163.015905 
L 61.533923 162.964405 
L 61.677815 162.861404 
L 61.769796 162.792737 
L 61.994672 162.689736 
L 62.054962 162.638236 
L 62.295359 162.535235 
L 62.376471 162.466568 
L 62.598719 162.363567 
L 62.706107 162.191899 
L 62.893738 162.088898 
L 63.004249 161.900064 
L 63.19498 161.797063 
L 63.301202 161.694062 
L 63.601279 161.591061 
L 63.638826 161.522394 
L 63.849504 161.419393 
L 63.952108 161.282059 
L 64.067426 161.179058 
L 64.159519 161.024557 
L 64.304634 160.921557 
L 64.372716 160.801389 
L 64.611147 160.698388 
L 64.711096 160.629721 
L 64.933861 160.52672 
L 64.933861 160.509554 
L 65.194724 160.406553 
L 65.260504 160.355052 
L 65.597829 160.252052 
L 65.702749 160.149051 
L 65.905323 160.04605 
L 66.002743 159.960216 
L 66.119894 159.857216 
L 66.220347 159.771382 
L 66.358433 159.668381 
L 66.399943 159.599714 
L 66.581833 159.496713 
L 66.690826 159.445213 
L 66.846383 159.342212 
L 66.943767 159.222044 
L 67.065074 159.119044 
L 67.120867 159.016043 
L 67.376258 158.913042 
L 67.461441 158.792875 
L 67.7221 158.689874 
L 67.828127 158.621207 
L 68.042056 158.518206 
L 68.13597 158.449539 
L 68.343423 158.346538 
L 68.411393 158.277871 
L 68.600217 158.17487 
L 68.69126 158.140537 
L 68.889031 158.037536 
L 68.995369 157.968869 
L 69.152171 157.865868 
L 69.242291 157.762867 
L 69.430876 157.659866 
L 69.533342 157.505365 
L 69.673418 157.402365 
L 69.777024 157.26503 
L 69.978488 157.162029 
L 70.078914 157.059029 
L 70.362005 156.956028 
L 70.459525 156.904528 
L 70.675595 156.801527 
L 70.766512 156.681359 
L 71.017314 156.578359 
L 71.127715 156.458191 
L 71.353488 156.35519 
L 71.460724 156.217856 
L 71.697916 156.114855 
L 71.788872 156.046188 
L 72.046834 155.943187 
L 72.136255 155.87452 
L 72.276494 155.771519 
L 72.360892 155.668519 
L 72.543702 155.565518 
L 72.64131 155.479684 
L 72.88246 155.376683 
L 72.990913 155.273683 
L 73.186828 155.170682 
L 73.28271 155.050514 
L 73.499307 154.947514 
L 73.594944 154.827346 
L 73.741223 154.724345 
L 73.850496 154.672845 
L 74.091105 154.569844 
L 74.175093 154.449677 
L 74.484581 154.346676 
L 74.580652 154.175008 
L 74.779177 154.072007 
L 74.784213 154.037674 
L 75.017122 153.934673 
L 75.11096 153.814505 
L 75.330523 153.711505 
L 75.435826 153.642837 
L 75.617621 153.539837 
L 75.727772 153.402502 
L 76.08348 153.299502 
L 76.170546 153.230834 
L 76.293762 153.127834 
L 76.362723 153.076333 
L 76.496881 152.973333 
L 76.602687 152.887499 
L 76.782148 152.784498 
L 76.861892 152.681497 
L 77.242677 152.578496 
L 77.348377 152.458329 
L 77.491188 152.355328 
L 77.568593 152.303828 
L 77.952472 152.200827 
L 78.06264 152.046326 
L 78.223354 151.943325 
L 78.317911 151.857491 
L 78.55295 151.754491 
L 78.653994 151.668657 
L 78.968143 151.565656 
L 79.072087 151.479822 
L 79.257457 151.376821 
L 79.366825 151.256654 
L 79.602838 151.153653 
L 79.627373 151.119319 
L 79.869194 151.016319 
L 79.974711 150.896151 
L 80.108068 150.79315 
L 80.173499 150.74165 
L 80.408492 150.638649 
L 80.519079 150.552815 
L 80.593641 150.449814 
L 80.701655 150.346814 
L 80.897902 150.243813 
L 80.919219 150.123645 
L 81.184145 150.020645 
L 81.267299 149.88331 
L 81.427587 149.78031 
L 81.53459 149.711642 
L 81.660148 149.608642 
L 81.750015 149.505641 
L 81.87326 149.40264 
L 81.955817 149.265306 
L 82.082884 149.162305 
L 82.166725 149.059304 
L 82.456873 148.956304 
L 82.549264 148.87047 
L 82.67136 148.767469 
L 82.754172 148.612968 
L 82.856907 148.509967 
L 82.937698 148.406966 
L 83.219388 148.303966 
L 83.322435 148.235298 
L 83.505646 148.132298 
L 83.612673 147.994963 
L 83.656934 147.891963 
L 83.74522 147.788962 
L 83.895441 147.685961 
L 83.992914 147.600127 
L 84.153757 147.497126 
L 84.256945 147.342625 
L 84.377604 147.239625 
L 84.488362 147.016456 
L 84.597127 146.913456 
L 84.705696 146.793288 
L 84.847623 146.690287 
L 84.950101 146.552953 
L 85.12215 146.449952 
L 85.200758 146.346952 
L 85.433428 146.243951 
L 85.534916 146.08945 
L 85.679238 145.986449 
L 85.743397 145.934949 
L 85.903651 145.831948 
L 86.009464 145.71178 
L 86.164058 145.60878 
L 86.248633 145.488612 
L 86.326994 145.385611 
L 86.433738 145.265444 
L 86.562821 145.162443 
L 86.633188 145.025109 
L 86.761211 144.922108 
L 86.829386 144.836274 
L 86.938372 144.733273 
L 87.042196 144.561605 
L 87.093018 144.458605 
L 87.192568 144.26977 
L 87.369572 144.166769 
L 87.466379 143.977934 
L 87.588063 143.874934 
L 87.694462 143.720433 
L 87.792249 143.617432 
L 87.877444 143.480098 
L 87.968697 143.377097 
L 88.074846 143.222596 
L 88.281724 143.119595 
L 88.391896 142.999427 
L 88.444753 142.896427 
L 88.552124 142.741926 
L 88.715611 142.638925 
L 88.82651 142.432923 
L 88.949742 142.329923 
L 89.046855 142.141088 
L 89.129521 142.038087 
L 89.17875 141.900753 
L 89.296936 141.797752 
L 89.388308 141.660418 
L 89.539944 141.557417 
L 89.56827 141.505917 
L 89.756827 141.402916 
L 89.834702 141.265582 
L 89.993398 141.162581 
L 90.102133 140.956579 
L 90.335107 140.853579 
L 90.408921 140.647577 
L 90.529576 140.544576 
L 90.633757 140.407242 
L 90.754769 140.304241 
L 90.851881 140.132573 
L 90.992728 140.029573 
L 91.017888 139.978072 
L 91.232269 139.875072 
L 91.326414 139.686237 
L 91.380215 139.583236 
L 91.482209 139.445902 
L 91.599075 139.342901 
L 91.6498 139.205567 
L 91.837181 139.102566 
L 91.925347 138.982398 
L 92.000732 138.879398 
L 92.084678 138.810731 
L 92.223933 138.70773 
L 92.313234 138.587562 
L 92.387227 138.484562 
L 92.496887 138.295727 
L 92.58868 138.192726 
L 92.68532 137.969558 
L 92.880071 137.866557 
L 92.987137 137.74639 
L 93.167194 137.643389 
L 93.269439 137.557555 
L 93.453116 137.454554 
L 93.531696 137.36872 
L 93.664378 137.265719 
L 93.736804 137.197052 
L 93.856801 137.094052 
L 93.965483 137.008218 
L 94.105346 136.905217 
L 94.195859 136.767883 
L 94.390818 136.664882 
L 94.460081 136.579048 
L 94.635942 136.476047 
L 94.733619 136.321546 
L 94.846757 136.218545 
L 94.940881 136.012544 
L 95.034805 135.909543 
L 95.131257 135.806542 
L 95.307084 135.703542 
L 95.408797 135.44604 
L 95.563579 135.343039 
L 95.668543 135.119871 
L 95.850102 135.01687 
L 95.943954 134.931036 
L 96.031038 134.828035 
L 96.115524 134.622034 
L 96.344391 134.519033 
L 96.454517 134.416032 
L 96.496658 134.313031 
L 96.577057 134.244364 
L 96.711577 134.141364 
L 96.758071 134.038363 
L 96.958793 133.935362 
L 97.062766 133.832361 
L 97.161427 133.729361 
L 97.231524 133.62636 
L 97.432381 133.523359 
L 97.505351 133.403192 
L 97.674692 133.300191 
L 97.784049 133.128523 
L 97.829397 133.025522 
L 97.920274 132.888188 
L 98.0081 132.785187 
L 98.111611 132.647853 
L 98.200905 132.544852 
L 98.299191 132.424685 
L 98.491643 132.321684 
L 98.592949 132.218683 
L 98.687366 132.115682 
L 98.789571 131.926848 
L 98.927742 131.823847 
L 99.034593 131.652179 
L 99.090984 131.549178 
L 99.190555 131.360344 
L 99.276944 131.257343 
L 99.364211 131.051341 
L 99.476053 130.948341 
L 99.541734 130.84534 
L 99.682373 130.742339 
L 99.78038 130.536338 
L 99.872931 130.433337 
L 99.982901 130.347503 
L 100.115652 130.244502 
L 100.202952 130.072834 
L 100.321217 129.969834 
L 100.423564 129.780999 
L 100.520298 129.677998 
L 100.620558 129.557831 
L 100.800684 129.45483 
L 100.885613 129.351829 
L 101.014586 129.248828 
L 101.094369 129.128661 
L 101.173093 129.02566 
L 101.265591 128.836825 
L 101.374019 128.733825 
L 101.482775 128.527823 
L 101.560193 128.424822 
L 101.658964 128.253154 
L 101.765801 128.150154 
L 101.86448 127.978486 
L 101.979655 127.875485 
L 102.086706 127.789651 
L 102.172097 127.68665 
L 102.268911 127.566483 
L 102.372681 127.463482 
L 102.453865 127.394815 
L 102.595081 127.291814 
L 102.694714 127.15448 
L 102.787259 127.051479 
L 102.89345 126.828311 
L 102.988543 126.72531 
L 103.095451 126.605143 
L 103.133524 126.502142 
L 103.229762 126.381974 
L 103.30896 126.278974 
L 103.409854 126.158806 
L 103.535199 126.055805 
L 103.642363 125.952805 
L 103.770178 125.849804 
L 103.870638 125.729636 
L 103.997225 125.626636 
L 104.108212 125.420634 
L 104.194723 125.317633 
L 104.298262 125.128799 
L 104.443578 125.025798 
L 104.533422 124.939964 
L 104.72835 124.836963 
L 104.805877 124.768296 
L 104.88961 124.665295 
L 104.972567 124.579461 
L 105.099182 124.476461 
L 105.190796 124.253292 
L 105.291706 124.150292 
L 105.397496 123.978624 
L 105.426156 123.875623 
L 105.53539 123.652455 
L 105.606292 123.549454 
L 105.715124 123.360619 
L 105.768585 123.257618 
L 105.871138 123.051617 
L 105.979211 122.948616 
L 106.082221 122.776948 
L 106.185475 122.673948 
L 106.289392 122.382112 
L 106.356188 122.279111 
L 106.450615 122.12461 
L 106.561729 122.02161 
L 106.646348 121.935776 
L 106.772426 121.832775 
L 106.883485 121.609607 
L 106.951217 121.506606 
L 107.055853 121.334938 
L 107.1139 121.231937 
L 107.220819 121.043103 
L 107.324416 120.940102 
L 107.424559 120.802767 
L 107.531418 120.699767 
L 107.626044 120.476598 
L 107.727578 120.373598 
L 107.832994 120.150429 
L 107.920502 120.047429 
L 108.025257 119.858594 
L 108.089995 119.755593 
L 108.198529 119.618259 
L 108.300109 119.515258 
L 108.394079 119.360757 
L 108.48876 119.257756 
L 108.581911 119.034588 
L 108.759184 118.931587 
L 108.864333 118.777086 
L 108.986639 118.674085 
L 109.078528 118.571085 
L 109.169447 118.468084 
L 109.279077 118.262082 
L 109.46308 118.159082 
L 109.562881 118.038914 
L 109.658366 117.935913 
L 109.755311 117.798579 
L 109.827044 117.695578 
L 109.916506 117.592578 
L 109.986448 117.489577 
L 110.094588 117.266409 
L 110.242388 117.163408 
L 110.316255 117.04324 
L 110.486271 116.94024 
L 110.595212 116.682738 
L 110.664385 116.579737 
L 110.774746 116.45957 
L 110.863182 116.356569 
L 110.969111 116.184901 
L 111.083528 116.0819 
L 111.184521 115.961733 
L 111.257621 115.858732 
L 111.366659 115.635564 
L 111.454684 115.532563 
L 111.563078 115.257894 
L 111.650347 115.154893 
L 111.737417 115.000392 
L 111.798105 114.897392 
L 111.897238 114.69139 
L 111.949839 114.588389 
L 112.050327 114.348054 
L 112.165698 114.245054 
L 112.249081 114.056219 
L 112.354981 113.953218 
L 112.44604 113.867384 
L 112.591219 113.764383 
L 112.692529 113.678549 
L 112.788417 113.575549 
L 112.887232 113.438214 
L 112.984755 113.335214 
L 113.087903 113.112045 
L 113.150711 113.009045 
L 113.253733 112.837377 
L 113.326968 112.734376 
L 113.42959 112.528375 
L 113.498678 112.425374 
L 113.585049 112.305206 
L 113.684961 112.202205 
L 113.791448 112.013371 
L 113.894432 111.91037 
L 114.000774 111.721535 
L 114.11241 111.618535 
L 114.20725 111.515534 
L 114.310049 111.412533 
L 114.414203 111.275199 
L 114.503973 111.172198 
L 114.612026 110.914696 
L 114.69671 110.811695 
L 114.791499 110.588527 
L 114.914329 110.485526 
L 115.020608 110.348192 
L 115.107263 110.245191 
L 115.21171 110.073523 
L 115.287165 109.970523 
L 115.38659 109.798855 
L 115.466069 109.695854 
L 115.573892 109.524186 
L 115.665333 109.421185 
L 115.766172 109.266684 
L 115.827224 109.163684 
L 115.934465 109.043516 
L 116.076391 108.940515 
L 116.184014 108.734514 
L 116.244851 108.631513 
L 116.349542 108.459845 
L 116.39728 108.356844 
L 116.500897 108.16801 
L 116.596624 108.065009 
L 116.705418 107.893341 
L 116.793752 107.79034 
L 116.903793 107.567172 
L 116.978214 107.464171 
L 117.072629 107.275337 
L 117.241633 107.172336 
L 117.345897 106.949168 
L 117.413011 106.846167 
L 117.516731 106.622999 
L 117.632899 106.519998 
L 117.740985 106.29683 
L 117.848298 106.193829 
L 117.958975 105.970661 
L 118.032497 105.86766 
L 118.13668 105.678825 
L 118.2343 105.575824 
L 118.335988 105.43849 
L 118.444319 105.335489 
L 118.551916 105.146655 
L 118.658167 105.043654 
L 118.75377 104.803319 
L 118.833738 104.700318 
L 118.925301 104.511483 
L 119.025647 104.408483 
L 119.113817 104.219648 
L 119.229744 104.116647 
L 119.337611 103.979313 
L 119.403236 103.876312 
L 119.507917 103.687477 
L 119.606034 103.584477 
L 119.703265 103.378475 
L 119.784669 103.275474 
L 119.856907 103.189641 
L 119.962424 103.08664 
L 120.07323 102.966472 
L 120.199424 102.863472 
L 120.300774 102.623136 
L 120.400453 102.520136 
L 120.502232 102.365635 
L 120.553468 102.262634 
L 120.643262 102.039466 
L 120.753167 101.936465 
L 120.854415 101.713297 
L 120.921028 101.610296 
L 121.031985 101.369961 
L 121.119558 101.26696 
L 121.223876 101.009458 
L 121.339141 100.906457 
L 121.446668 100.78629 
L 121.528002 100.683289 
L 121.607359 100.494454 
L 121.679753 100.391454 
L 121.759473 100.322787 
L 121.868443 100.219786 
L 121.978869 100.030951 
L 122.084821 99.92795 
L 122.174358 99.721949 
L 122.268654 99.618948 
L 122.350824 99.430113 
L 122.445333 99.327113 
L 122.548405 99.069611 
L 122.605848 98.96661 
L 122.695626 98.726275 
L 122.825983 98.623274 
L 122.934544 98.348606 
L 122.979902 98.245605 
L 123.077113 98.022437 
L 123.170053 97.919436 
L 123.276747 97.764935 
L 123.347792 97.661934 
L 123.447091 97.438766 
L 123.519653 97.335765 
L 123.620876 97.14693 
L 123.751392 97.04393 
L 123.852585 96.872262 
L 124.020296 96.769261 
L 124.080844 96.61476 
L 124.207132 96.511759 
L 124.313592 96.254257 
L 124.431129 96.151256 
L 124.531617 95.996755 
L 124.646603 95.893755 
L 124.752979 95.773587 
L 124.858636 95.670586 
L 124.941562 95.481752 
L 125.072703 95.378751 
L 125.169579 95.086915 
L 125.245367 94.983915 
L 125.353494 94.760746 
L 125.439875 94.657746 
L 125.526104 94.554745 
L 125.616561 94.451744 
L 125.653038 94.383077 
L 125.785613 94.280076 
L 125.858418 94.108408 
L 125.938422 94.005408 
L 126.03384 93.902407 
L 126.083309 93.799406 
L 126.189082 93.662072 
L 126.239829 93.559071 
L 126.323366 93.421737 
L 126.464399 93.318736 
L 126.574006 93.232902 
L 126.627772 93.129901 
L 126.691531 92.958233 
L 126.833237 92.855233 
L 126.929899 92.683565 
L 127.000958 92.580564 
L 127.11136 92.426063 
L 127.161244 92.323062 
L 127.271427 92.082727 
L 127.324005 91.979726 
L 127.432232 91.687891 
L 127.53613 91.58489 
L 127.619652 91.327388 
L 127.706777 91.224388 
L 127.816169 91.069887 
L 127.910733 90.966886 
L 128.014425 90.812385 
L 128.084083 90.709384 
L 128.18308 90.537716 
L 128.267525 90.434715 
L 128.375828 90.245881 
L 128.469725 90.14288 
L 128.574603 89.885378 
L 128.658566 89.782377 
L 128.756552 89.593543 
L 128.90572 89.490542 
L 129.011547 89.250207 
L 129.084436 89.147206 
L 129.193656 88.975538 
L 129.242188 88.872537 
L 129.350164 88.735203 
L 129.457695 88.632202 
L 129.49271 88.546368 
L 129.654996 88.443368 
L 129.754212 88.3232 
L 129.848985 88.220199 
L 129.943981 87.979864 
L 130.047478 87.876864 
L 130.15738 87.653695 
L 130.216583 87.550695 
L 130.319789 87.310359 
L 130.448083 87.207359 
L 130.536322 87.001357 
L 130.694786 86.898356 
L 130.799062 86.675188 
L 130.915221 86.572187 
L 131.009006 86.366186 
L 131.102368 86.263185 
L 131.211537 86.108684 
L 131.287467 86.005683 
L 131.392461 85.679514 
L 131.467527 85.576514 
L 131.564871 85.422013 
L 131.661592 85.319012 
L 131.758862 85.147344 
L 131.885547 85.044343 
L 131.981818 84.907009 
L 132.147803 84.804008 
L 132.25297 84.701007 
L 132.307142 84.598007 
L 132.414723 84.392005 
L 132.538186 84.289004 
L 132.639321 84.117336 
L 132.716697 84.014336 
L 132.82342 83.791167 
L 132.907942 83.688167 
L 133.017315 83.430665 
L 133.119959 83.327664 
L 133.230105 83.018662 
L 133.299818 82.915661 
L 133.401215 82.726826 
L 133.525855 82.623826 
L 133.609143 82.469325 
L 133.727625 82.366324 
L 133.816231 82.22899 
L 133.947873 82.125989 
L 134.05623 81.954321 
L 134.129355 81.85132 
L 134.225862 81.748319 
L 134.306895 81.645319 
L 134.408319 81.42215 
L 134.465934 81.31915 
L 134.567243 81.130315 
L 134.643732 81.027314 
L 134.750153 80.872813 
L 134.850224 80.769812 
L 134.954435 80.580978 
L 135.044758 80.477977 
L 135.148027 80.306309 
L 135.224332 80.203308 
L 135.334798 79.997307 
L 135.410088 79.894306 
L 135.516993 79.688305 
L 135.577827 79.585304 
L 135.672892 79.413636 
L 135.790966 79.310635 
L 135.9011 79.035966 
L 135.952789 78.932966 
L 136.063502 78.744131 
L 136.13753 78.64113 
L 136.244008 78.366462 
L 136.317766 78.263461 
L 136.404313 78.040293 
L 136.533324 77.937292 
L 136.641576 77.714124 
L 136.765115 77.611123 
L 136.874853 77.422288 
L 136.973901 77.319287 
L 137.07907 77.113286 
L 137.12993 77.010285 
L 137.224927 76.838617 
L 137.332308 76.735617 
L 137.435032 76.615449 
L 137.487484 76.512448 
L 137.593926 76.392281 
L 137.634994 76.28928 
L 137.746002 75.997445 
L 137.808162 75.894444 
L 137.915102 75.722776 
L 137.971793 75.619775 
L 138.077485 75.413774 
L 138.127007 75.310773 
L 138.219812 75.139105 
L 138.312594 75.036104 
L 138.42321 74.881603 
L 138.493511 74.778602 
L 138.603655 74.709935 
L 138.728924 74.606935 
L 138.833071 74.400933 
L 138.933796 74.297932 
L 139.026305 74.074764 
L 139.137235 73.971763 
L 139.246422 73.731428 
L 139.417129 73.628428 
L 139.528007 73.439593 
L 139.6333 73.336592 
L 139.742294 73.130591 
L 139.889463 73.02759 
L 139.996944 72.787255 
L 140.082426 72.684254 
L 140.186908 72.461086 
L 140.274211 72.358085 
L 140.373064 72.134917 
L 140.443799 72.031916 
L 140.550513 71.757247 
L 140.655821 71.654247 
L 140.764918 71.448245 
L 140.892835 71.345244 
L 140.987834 71.173577 
L 141.079958 71.070576 
L 141.140961 70.933241 
L 141.27781 70.830241 
L 141.375996 70.710073 
L 141.417979 70.607072 
L 141.528471 70.24657 
L 141.600289 70.143569 
L 141.709612 70.006235 
L 141.75766 69.903234 
L 141.854266 69.748733 
L 141.923029 69.645732 
L 142.01641 69.508398 
L 142.080587 69.405397 
L 142.185875 69.250896 
L 142.259318 69.147895 
L 142.348848 68.976227 
L 142.415017 68.873227 
L 142.506908 68.701559 
L 142.600302 68.598558 
L 142.701256 68.512724 
L 142.787526 68.409723 
L 142.898459 68.152221 
L 142.962852 68.049221 
L 143.069507 67.826052 
L 143.12825 67.723052 
L 143.238534 67.46555 
L 143.28864 67.362549 
L 143.384593 67.156548 
L 143.480042 67.053547 
L 143.587372 66.847545 
L 143.663895 66.744545 
L 143.771748 66.487043 
L 143.836393 66.384042 
L 143.938639 66.12654 
L 144.029075 66.023539 
L 144.121727 65.817538 
L 144.222449 65.714537 
L 144.332491 65.439869 
L 144.371297 65.336868 
L 144.477555 65.148033 
L 144.59841 65.045032 
L 144.709141 64.856198 
L 144.745056 64.753197 
L 144.827829 64.564362 
L 144.905924 64.461361 
L 145.012111 64.221026 
L 145.079481 64.118026 
L 145.187642 63.894857 
L 145.267094 63.791857 
L 145.373366 63.551522 
L 145.45478 63.448521 
L 145.537813 63.156685 
L 145.627478 63.053685 
L 145.729875 62.830516 
L 145.789672 62.727516 
L 145.863692 62.504347 
L 145.982781 62.401347 
L 146.090985 62.281179 
L 146.139202 62.178178 
L 146.248251 61.937843 
L 146.368291 61.834843 
L 146.475405 61.611674 
L 146.535661 61.508674 
L 146.642087 61.405673 
L 146.71602 61.302672 
L 146.810056 61.096671 
L 146.918795 60.99367 
L 147.024355 60.719001 
L 147.061325 60.616 
L 147.166864 60.392832 
L 147.230391 60.289831 
L 147.341114 60.015163 
L 147.390022 59.912162 
L 147.498397 59.706161 
L 147.630982 59.60316 
L 147.721039 59.328491 
L 147.778437 59.22549 
L 147.889129 59.019489 
L 147.923687 58.916488 
L 148.027947 58.710487 
L 148.118326 58.607486 
L 148.227571 58.332817 
L 148.297117 58.229817 
L 148.400035 58.023815 
L 148.463772 57.920814 
L 148.571117 57.714813 
L 148.650494 57.611812 
L 148.759618 57.405811 
L 148.873302 57.30281 
L 148.970648 57.165476 
L 149.029247 57.062475 
L 149.124696 56.856473 
L 149.157511 56.753473 
L 149.258714 56.616138 
L 149.323852 56.513138 
L 149.385343 56.44447 
L 149.499782 56.34147 
L 149.609119 56.101135 
L 149.659071 55.998134 
L 149.769758 55.706298 
L 149.837128 55.603298 
L 149.945728 55.294295 
L 150.050133 55.191295 
L 150.160135 54.916626 
L 150.21696 54.813625 
L 150.320307 54.659124 
L 150.412282 54.556123 
L 150.503396 54.367289 
L 150.591154 54.264288 
L 150.671985 54.075453 
L 150.791644 53.972453 
L 150.892132 53.680617 
L 151.008003 53.577616 
L 151.109502 53.337281 
L 151.180575 53.234281 
L 151.284617 53.062613 
L 151.346311 52.959612 
L 151.456837 52.770777 
L 151.477649 52.667776 
L 151.579058 52.410275 
L 151.656472 52.307274 
L 151.765861 52.101272 
L 151.858887 51.998272 
L 151.917971 51.878104 
L 152.011737 51.775103 
L 152.104982 51.517602 
L 152.203045 51.414601 
L 152.31158 51.105599 
L 152.442125 51.002598 
L 152.544104 50.77943 
L 152.599905 50.676429 
L 152.703801 50.453261 
L 152.776415 50.35026 
L 152.872037 50.178592 
L 152.945638 50.075591 
L 153.053459 49.818089 
L 153.099167 49.715089 
L 153.208424 49.423253 
L 153.282969 49.320252 
L 153.392137 49.114251 
L 153.426831 49.01125 
L 153.50965 48.805249 
L 153.568632 48.702248 
L 153.66724 48.47908 
L 153.752569 48.376079 
L 153.85799 48.187244 
L 153.914992 48.084243 
L 154.023489 47.861075 
L 154.128891 47.758074 
L 154.238278 47.706574 
L 154.290303 47.603573 
L 154.394371 47.466239 
L 154.457649 47.363238 
L 154.562148 47.105736 
L 154.58558 47.002736 
L 154.684467 46.831068 
L 154.742103 46.728067 
L 154.84528 46.590733 
L 154.931058 46.487732 
L 155.028381 46.298897 
L 155.087365 46.195897 
L 155.190421 45.989895 
L 155.268642 45.886894 
L 155.376099 45.69806 
L 155.441119 45.595059 
L 155.551551 45.457725 
L 155.649853 45.354724 
L 155.729396 45.200223 
L 155.835432 45.097222 
L 155.943792 44.874054 
L 155.986722 44.771053 
L 156.077745 44.599385 
L 156.235738 44.496384 
L 156.339578 44.290383 
L 156.470417 44.187382 
L 156.56804 43.912713 
L 156.629663 43.809713 
L 156.733528 43.466377 
L 156.827192 43.363376 
L 156.93595 43.174541 
L 156.966958 43.071541 
L 157.070631 42.934206 
L 157.129138 42.831206 
L 157.234839 42.659538 
L 157.311891 42.556537 
L 157.420241 42.281868 
L 157.526583 42.178868 
L 157.61711 41.955699 
L 157.686644 41.852699 
L 157.789756 41.681031 
L 157.901416 41.57803 
L 158.012392 41.286194 
L 158.082971 41.183194 
L 158.190815 41.011526 
L 158.244692 40.908525 
L 158.341942 40.771191 
L 158.42892 40.66819 
L 158.536021 40.462189 
L 158.609119 40.359188 
L 158.719956 40.153186 
L 158.786215 40.050186 
L 158.889008 39.895684 
L 158.975175 39.792684 
L 159.084654 39.552349 
L 159.14344 39.449348 
L 159.244247 39.32918 
L 159.349356 39.22618 
L 159.435165 39.054512 
L 159.507014 38.951511 
L 159.606287 38.831343 
L 159.664832 38.728343 
L 159.765281 38.41934 
L 159.904922 38.31634 
L 160.013171 38.161839 
L 160.055184 38.058838 
L 160.159458 37.801336 
L 160.343177 37.698335 
L 160.451413 37.543834 
L 160.536539 37.440833 
L 160.634085 37.234832 
L 160.704605 37.131831 
L 160.788516 36.908663 
L 160.858729 36.805662 
L 160.957586 36.479493 
L 161.041893 36.376492 
L 161.144173 36.239158 
L 161.260265 36.136157 
L 161.363675 35.912989 
L 161.424692 35.809988 
L 161.531817 35.53532 
L 161.634278 35.432319 
L 161.719164 35.294985 
L 161.845149 35.191984 
L 161.941202 35.10615 
L 162.057239 35.003149 
L 162.146363 34.659813 
L 162.253425 34.556813 
L 162.34544 34.453812 
L 162.523677 34.350811 
L 162.623879 34.179143 
L 162.726023 34.076143 
L 162.816484 33.852974 
L 162.891752 33.749973 
L 163.000354 33.578306 
L 163.048012 33.475305 
L 163.143372 33.320804 
L 163.241038 33.217803 
L 163.343954 33.028968 
L 163.43785 32.925968 
L 163.536362 32.651299 
L 163.659723 32.548298 
L 163.770543 32.445297 
L 163.870315 32.342297 
L 163.975767 32.170629 
L 164.064778 32.067628 
L 164.163323 31.89596 
L 164.295532 31.792959 
L 164.406475 31.552624 
L 164.516818 31.449624 
L 164.613467 31.295122 
L 164.740493 31.192122 
L 164.828895 30.968953 
L 164.992928 30.865953 
L 165.100728 30.677118 
L 165.168039 30.574117 
L 165.26955 30.350949 
L 165.346108 30.247948 
L 165.446282 30.041947 
L 165.54491 29.938946 
L 165.655661 29.750111 
L 165.753456 29.647111 
L 165.860404 29.54411 
L 165.91263 29.441109 
L 166.023213 29.200774 
L 166.105814 29.097773 
L 166.202011 28.926105 
L 166.3461 28.823105 
L 166.44037 28.617103 
L 166.542588 28.514102 
L 166.647432 28.273767 
L 166.77694 28.170767 
L 166.882966 27.930432 
L 166.997696 27.827431 
L 167.103324 27.690096 
L 167.253269 27.587096 
L 167.324029 27.398261 
L 167.401954 27.29526 
L 167.504569 27.123592 
L 167.636243 27.020592 
L 167.736996 26.866091 
L 167.80093 26.76309 
L 167.898932 26.574255 
L 167.971653 26.471254 
L 168.082663 26.28242 
L 168.198877 26.179419 
L 168.30037 26.042085 
L 168.444271 25.939084 
L 168.554675 25.784583 
L 168.627492 25.681582 
L 168.703393 25.561414 
L 168.807935 25.458414 
L 168.914607 25.338246 
L 169.000436 25.235245 
L 169.110763 25.097911 
L 169.15041 24.99491 
L 169.242774 24.89191 
L 169.443771 24.788909 
L 169.512646 24.651575 
L 169.676615 24.548574 
L 169.784192 24.41124 
L 169.906781 24.308239 
L 169.990219 24.188071 
L 170.056314 24.085071 
L 170.14868 23.913403 
L 170.23955 23.810402 
L 170.325996 23.690234 
L 170.4411 23.587234 
L 170.541728 23.5014 
L 170.632278 23.398399 
L 170.73117 23.295398 
L 170.910153 23.192397 
L 171.009877 23.02073 
L 171.121737 22.917729 
L 171.212186 22.763228 
L 171.351807 22.660227 
L 171.462337 22.505726 
L 171.523082 22.402725 
L 171.633088 22.265391 
L 171.72198 22.16239 
L 171.780714 22.093723 
L 171.971208 21.990722 
L 171.995999 21.939222 
L 172.148784 21.836221 
L 172.253885 21.698887 
L 172.396274 21.595886 
L 172.495412 21.424218 
L 172.643228 21.321217 
L 172.739272 21.183883 
L 172.861384 21.080882 
L 172.949045 20.892048 
L 173.034223 20.789047 
L 173.130936 20.634546 
L 173.242246 20.531545 
L 173.342431 20.377044 
L 173.478902 20.274043 
L 173.587262 20.171042 
L 173.755142 20.068042 
L 173.855309 19.930707 
L 173.933965 19.827706 
L 174.013933 19.707539 
L 174.304662 19.604538 
L 174.403918 19.501537 
L 174.531443 19.398537 
L 174.618516 19.278369 
L 174.771758 19.175368 
L 174.850955 19.089535 
L 175.062568 18.986534 
L 175.127966 18.849199 
L 175.412702 18.746199 
L 175.523757 18.608864 
L 175.753564 18.505864 
L 175.857889 18.437196 
L 176.133693 18.334196 
L 176.229201 18.231195 
L 176.361683 18.128194 
L 176.456928 18.059527 
L 176.71193 17.956526 
L 176.740251 17.905026 
L 176.907139 17.802025 
L 177.003343 17.716191 
L 177.337376 17.613191 
L 177.37181 17.51019 
L 177.530027 17.407189 
L 177.641113 17.355689 
L 177.862871 17.252688 
L 177.920386 17.218354 
L 178.110908 17.115354 
L 178.174142 17.02952 
L 178.267937 16.926519 
L 178.313806 16.892185 
L 178.725104 16.789185 
L 178.744998 16.737684 
L 179.184511 16.634683 
L 179.256101 16.54885 
L 179.583585 16.445849 
L 179.692844 16.377182 
L 179.920077 16.274181 
L 179.920077 16.257014 
L 180.557577 16.154013 
L 180.664181 16.051013 
L 181.081814 15.948012 
L 181.176551 15.879345 
L 181.454872 15.776344 
L 181.553162 15.69051 
L 181.829371 15.587509 
L 181.829371 15.570342 
L 182.147801 15.467342 
L 182.248136 15.433008 
L 182.655452 15.330007 
L 182.688209 15.295674 
L 183.104272 15.192673 
L 183.104272 15.175506 
L 183.694186 15.072506 
L 183.694186 15.055339 
L 184.48641 14.952338 
L 184.587195 14.918004 
L 185.65635 14.815004 
L 185.65635 14.797837 
L 186.492246 14.694836 
L 186.54286 14.609002 
L 187.653124 14.506001 
L 187.760614 14.454501 
L 190.138854 14.3515 
L 190.138854 14.334334 
L 193.582417 14.317167 
L 193.582417 14.3 
" style="fill:none;stroke:#1f77b4;stroke-linecap:square;stroke-width:1.5;"/>
   </g>
   <g id="patch_3">
    <path d="M 44.675 176.2 
L 44.675 14.3 
" style="fill:none;stroke:#000000;stroke-linecap:square;stroke-linejoin:miter;stroke-width:0.8;"/>
   </g>
   <g id="patch_4">
    <path d="M 44.675 176.2 
L 200.673246 176.2 
" style="fill:none;stroke:#000000;stroke-linecap:square;stroke-linejoin:miter;stroke-width:0.8;"/>
   </g>
  </g>
  <g id="legend_1">
   <g id="text_13">
    <!-- coenzyme_residue -->
    <g transform="translate(215.320312 96.38125)scale(0.1 -0.1)">
     <defs>
      <path d="M 40.4375 19 
L 49.078125 17.875 
Q 47.65625 8.9375 41.8125 3.875 
Q 35.984375 -1.171875 27.484375 -1.171875 
Q 16.84375 -1.171875 10.375 5.78125 
Q 3.90625 12.75 3.90625 25.734375 
Q 3.90625 34.125 6.6875 40.421875 
Q 9.46875 46.734375 15.15625 49.875 
Q 20.84375 53.03125 27.546875 53.03125 
Q 35.984375 53.03125 41.359375 48.75 
Q 46.734375 44.484375 48.25 36.625 
L 39.703125 35.296875 
Q 38.484375 40.53125 35.375 43.15625 
Q 32.28125 45.796875 27.875 45.796875 
Q 21.234375 45.796875 17.078125 41.03125 
Q 12.9375 36.28125 12.9375 25.984375 
Q 12.9375 15.53125 16.9375 10.796875 
Q 20.953125 6.0625 27.390625 6.0625 
Q 32.5625 6.0625 36.03125 9.234375 
Q 39.5 12.40625 40.4375 19 
z
" id="ArialMT-99"/>
      <path d="M 1.953125 0 
L 1.953125 7.125 
L 34.96875 45.015625 
Q 29.34375 44.734375 25.046875 44.734375 
L 3.90625 44.734375 
L 3.90625 51.859375 
L 46.296875 51.859375 
L 46.296875 46.046875 
L 18.21875 13.140625 
L 12.796875 7.125 
Q 18.703125 7.5625 23.875 7.5625 
L 47.859375 7.5625 
L 47.859375 0 
z
" id="ArialMT-122"/>
      <path d="M 6.59375 0 
L 6.59375 51.859375 
L 14.453125 51.859375 
L 14.453125 44.578125 
Q 16.890625 48.390625 20.9375 50.703125 
Q 25 53.03125 30.171875 53.03125 
Q 35.9375 53.03125 39.625 50.640625 
Q 43.3125 48.25 44.828125 43.953125 
Q 50.984375 53.03125 60.84375 53.03125 
Q 68.5625 53.03125 72.703125 48.75 
Q 76.859375 44.484375 76.859375 35.59375 
L 76.859375 0 
L 68.109375 0 
L 68.109375 32.671875 
Q 68.109375 37.9375 67.25 40.25 
Q 66.40625 42.578125 64.15625 43.984375 
Q 61.921875 45.40625 58.890625 45.40625 
Q 53.421875 45.40625 49.796875 41.765625 
Q 46.1875 38.140625 46.1875 30.125 
L 46.1875 0 
L 37.40625 0 
L 37.40625 33.6875 
Q 37.40625 39.546875 35.25 42.46875 
Q 33.109375 45.40625 28.21875 45.40625 
Q 24.515625 45.40625 21.359375 43.453125 
Q 18.21875 41.5 16.796875 37.734375 
Q 15.375 33.984375 15.375 26.90625 
L 15.375 0 
z
" id="ArialMT-109"/>
      <path d="M -1.515625 -19.875 
L -1.515625 -13.53125 
L 56.734375 -13.53125 
L 56.734375 -19.875 
z
" id="ArialMT-95"/>
      <path d="M 3.078125 15.484375 
L 11.765625 16.84375 
Q 12.5 11.625 15.84375 8.84375 
Q 19.1875 6.0625 25.203125 6.0625 
Q 31.25 6.0625 34.171875 8.515625 
Q 37.109375 10.984375 37.109375 14.3125 
Q 37.109375 17.28125 34.515625 19 
Q 32.71875 20.171875 25.53125 21.96875 
Q 15.875 24.421875 12.140625 26.203125 
Q 8.40625 27.984375 6.46875 31.125 
Q 4.546875 34.28125 4.546875 38.09375 
Q 4.546875 41.546875 6.125 44.5 
Q 7.71875 47.46875 10.453125 49.421875 
Q 12.5 50.921875 16.03125 51.96875 
Q 19.578125 53.03125 23.640625 53.03125 
Q 29.734375 53.03125 34.34375 51.265625 
Q 38.96875 49.515625 41.15625 46.5 
Q 43.359375 43.5 44.1875 38.484375 
L 35.59375 37.3125 
Q 35.015625 41.3125 32.203125 43.546875 
Q 29.390625 45.796875 24.265625 45.796875 
Q 18.21875 45.796875 15.625 43.796875 
Q 13.03125 41.796875 13.03125 39.109375 
Q 13.03125 37.40625 14.109375 36.03125 
Q 15.1875 34.625 17.484375 33.6875 
Q 18.796875 33.203125 25.25 31.453125 
Q 34.578125 28.953125 38.25 27.359375 
Q 41.9375 25.78125 44.03125 22.75 
Q 46.140625 19.734375 46.140625 15.234375 
Q 46.140625 10.84375 43.578125 6.953125 
Q 41.015625 3.078125 36.171875 0.953125 
Q 31.34375 -1.171875 25.25 -1.171875 
Q 15.140625 -1.171875 9.84375 3.03125 
Q 4.546875 7.234375 3.078125 15.484375 
z
" id="ArialMT-115"/>
      <path d="M 40.234375 0 
L 40.234375 6.546875 
Q 35.296875 -1.171875 25.734375 -1.171875 
Q 19.53125 -1.171875 14.328125 2.25 
Q 9.125 5.671875 6.265625 11.796875 
Q 3.421875 17.921875 3.421875 25.875 
Q 3.421875 33.640625 6 39.96875 
Q 8.59375 46.296875 13.765625 49.65625 
Q 18.953125 53.03125 25.34375 53.03125 
Q 30.03125 53.03125 33.6875 51.046875 
Q 37.359375 49.078125 39.65625 45.90625 
L 39.65625 71.578125 
L 48.390625 71.578125 
L 48.390625 0 
z
M 12.453125 25.875 
Q 12.453125 15.921875 16.640625 10.984375 
Q 20.84375 6.0625 26.5625 6.0625 
Q 32.328125 6.0625 36.34375 10.765625 
Q 40.375 15.484375 40.375 25.140625 
Q 40.375 35.796875 36.265625 40.765625 
Q 32.171875 45.75 26.171875 45.75 
Q 20.3125 45.75 16.375 40.96875 
Q 12.453125 36.1875 12.453125 25.875 
z
" id="ArialMT-100"/>
      <path d="M 40.578125 0 
L 40.578125 7.625 
Q 34.515625 -1.171875 24.125 -1.171875 
Q 19.53125 -1.171875 15.546875 0.578125 
Q 11.578125 2.34375 9.640625 5 
Q 7.71875 7.671875 6.9375 11.53125 
Q 6.390625 14.109375 6.390625 19.734375 
L 6.390625 51.859375 
L 15.1875 51.859375 
L 15.1875 23.09375 
Q 15.1875 16.21875 15.71875 13.8125 
Q 16.546875 10.359375 19.234375 8.375 
Q 21.921875 6.390625 25.875 6.390625 
Q 29.828125 6.390625 33.296875 8.421875 
Q 36.765625 10.453125 38.203125 13.9375 
Q 39.65625 17.4375 39.65625 24.078125 
L 39.65625 51.859375 
L 48.4375 51.859375 
L 48.4375 0 
z
" id="ArialMT-117"/>
     </defs>
     <use xlink:href="#ArialMT-99"/>
     <use x="50" xlink:href="#ArialMT-111"/>
     <use x="105.615234" xlink:href="#ArialMT-101"/>
     <use x="161.230469" xlink:href="#ArialMT-110"/>
     <use x="216.845703" xlink:href="#ArialMT-122"/>
     <use x="266.845703" xlink:href="#ArialMT-121"/>
     <use x="316.845703" xlink:href="#ArialMT-109"/>
     <use x="400.146484" xlink:href="#ArialMT-101"/>
     <use x="455.761719" xlink:href="#ArialMT-95"/>
     <use x="511.376953" xlink:href="#ArialMT-114"/>
     <use x="544.677734" xlink:href="#ArialMT-101"/>
     <use x="600.292969" xlink:href="#ArialMT-115"/>
     <use x="650.292969" xlink:href="#ArialMT-105"/>
     <use x="672.509766" xlink:href="#ArialMT-100"/>
     <use x="728.125" xlink:href="#ArialMT-117"/>
     <use x="783.740234" xlink:href="#ArialMT-101"/>
    </g>
   </g>
   <g id="line2d_13">
    <path d="M 231.059375 107.14375 
L 251.059375 107.14375 
" style="fill:none;stroke:#1f77b4;stroke-linecap:square;stroke-width:1.5;"/>
   </g>
   <g id="line2d_14"/>
   <g id="text_14">
    <!-- False -->
    <g transform="translate(259.059375 110.64375)scale(0.1 -0.1)">
     <defs>
      <path d="M 8.203125 0 
L 8.203125 71.578125 
L 56.5 71.578125 
L 56.5 63.140625 
L 17.671875 63.140625 
L 17.671875 40.96875 
L 51.265625 40.96875 
L 51.265625 32.515625 
L 17.671875 32.515625 
L 17.671875 0 
z
" id="ArialMT-70"/>
      <path d="M 40.4375 6.390625 
Q 35.546875 2.25 31.03125 0.53125 
Q 26.515625 -1.171875 21.34375 -1.171875 
Q 12.796875 -1.171875 8.203125 3 
Q 3.609375 7.171875 3.609375 13.671875 
Q 3.609375 17.484375 5.34375 20.625 
Q 7.078125 23.78125 9.890625 25.6875 
Q 12.703125 27.59375 16.21875 28.5625 
Q 18.796875 29.25 24.03125 29.890625 
Q 34.671875 31.15625 39.703125 32.90625 
Q 39.75 34.71875 39.75 35.203125 
Q 39.75 40.578125 37.25 42.78125 
Q 33.890625 45.75 27.25 45.75 
Q 21.046875 45.75 18.09375 43.578125 
Q 15.140625 41.40625 13.71875 35.890625 
L 5.125 37.0625 
Q 6.296875 42.578125 8.984375 45.96875 
Q 11.671875 49.359375 16.75 51.1875 
Q 21.828125 53.03125 28.515625 53.03125 
Q 35.15625 53.03125 39.296875 51.46875 
Q 43.453125 49.90625 45.40625 47.53125 
Q 47.359375 45.171875 48.140625 41.546875 
Q 48.578125 39.3125 48.578125 33.453125 
L 48.578125 21.734375 
Q 48.578125 9.46875 49.140625 6.21875 
Q 49.703125 2.984375 51.375 0 
L 42.1875 0 
Q 40.828125 2.734375 40.4375 6.390625 
z
M 39.703125 26.03125 
Q 34.90625 24.078125 25.34375 22.703125 
Q 19.921875 21.921875 17.671875 20.9375 
Q 15.4375 19.96875 14.203125 18.09375 
Q 12.984375 16.21875 12.984375 13.921875 
Q 12.984375 10.40625 15.640625 8.0625 
Q 18.3125 5.71875 23.4375 5.71875 
Q 28.515625 5.71875 32.46875 7.9375 
Q 36.421875 10.15625 38.28125 14.015625 
Q 39.703125 17 39.703125 22.796875 
z
" id="ArialMT-97"/>
      <path d="M 6.390625 0 
L 6.390625 71.578125 
L 15.1875 71.578125 
L 15.1875 0 
z
" id="ArialMT-108"/>
     </defs>
     <use xlink:href="#ArialMT-70"/>
     <use x="61.083984" xlink:href="#ArialMT-97"/>
     <use x="116.699219" xlink:href="#ArialMT-108"/>
     <use x="138.916016" xlink:href="#ArialMT-115"/>
     <use x="188.916016" xlink:href="#ArialMT-101"/>
    </g>
   </g>
   <g id="line2d_15">
    <path d="M 231.059375 121.289062 
L 251.059375 121.289062 
" style="fill:none;stroke:#ff7f0e;stroke-linecap:square;stroke-width:1.5;"/>
   </g>
   <g id="line2d_16"/>
   <g id="text_15">
    <!-- True -->
    <g transform="translate(259.059375 124.789062)scale(0.1 -0.1)">
     <defs>
      <path d="M 25.921875 0 
L 25.921875 63.140625 
L 2.34375 63.140625 
L 2.34375 71.578125 
L 59.078125 71.578125 
L 59.078125 63.140625 
L 35.40625 63.140625 
L 35.40625 0 
z
" id="ArialMT-84"/>
     </defs>
     <use xlink:href="#ArialMT-84"/>
     <use x="57.333984" xlink:href="#ArialMT-114"/>
     <use x="90.634766" xlink:href="#ArialMT-117"/>
     <use x="146.25" xlink:href="#ArialMT-101"/>
    </g>
   </g>
  </g>
 </g>
 <defs>
  <clipPath id="pf641e17452">
   <rect height="161.9" width="155.998246" x="44.675" y="14.3"/>
  </clipPath>
 </defs>
</svg>
