<?xml version="1.0" encoding="utf-8" standalone="no"?>
<!DOCTYPE svg PUBLIC "-//W3C//DTD SVG 1.1//EN"
  "http://www.w3.org/Graphics/SVG/1.1/DTD/svg11.dtd">
<!-- Created with matplotlib (https://matplotlib.org/) -->
<svg height="216pt" version="1.1" viewBox="0 0 281.75 216" width="281.75pt" xmlns="http://www.w3.org/2000/svg" xmlns:xlink="http://www.w3.org/1999/xlink">
 <metadata>
  <rdf:RDF xmlns:cc="http://creativecommons.org/ns#" xmlns:dc="http://purl.org/dc/elements/1.1/" xmlns:rdf="http://www.w3.org/1999/02/22-rdf-syntax-ns#">
   <cc:Work>
    <dc:type rdf:resource="http://purl.org/dc/dcmitype/StillImage"/>
    <dc:date>2021-11-29T18:06:24.021261</dc:date>
    <dc:format>image/svg+xml</dc:format>
    <dc:creator>
     <cc:Agent>
      <dc:title>Matplotlib v3.3.4, https://matplotlib.org/</dc:title>
     </cc:Agent>
    </dc:creator>
   </cc:Work>
  </rdf:RDF>
 </metadata>
 <defs>
  <style type="text/css">*{stroke-linecap:butt;stroke-linejoin:round;}</style>
 </defs>
 <g id="figure_1">
  <g id="patch_1">
   <path d="M 0 216 
L 281.75 216 
L 281.75 0 
L 0 0 
z
" style="fill:none;"/>
  </g>
  <g id="axes_1">
   <g id="patch_2">
    <path d="M 44.675 176.2 
L 202.3825 176.2 
L 202.3825 14.3 
L 44.675 14.3 
z
" style="fill:#ffffff;"/>
   </g>
   <g id="matplotlib.axis_1">
    <g id="xtick_1">
     <g id="line2d_1">
      <defs>
       <path d="M 0 0 
L 0 3.5 
" id="mbf3dca5fbe" style="stroke:#000000;stroke-width:0.8;"/>
      </defs>
      <g>
       <use style="stroke:#000000;stroke-width:0.8;" x="44.675" xlink:href="#mbf3dca5fbe" y="176.2"/>
      </g>
     </g>
     <g id="text_1">
      <!-- 0 -->
      <g transform="translate(41.894531 190.357812)scale(0.1 -0.1)">
       <defs>
        <path d="M 4.15625 35.296875 
Q 4.15625 48 6.765625 55.734375 
Q 9.375 63.484375 14.515625 67.671875 
Q 19.671875 71.875 27.484375 71.875 
Q 33.25 71.875 37.59375 69.546875 
Q 41.9375 67.234375 44.765625 62.859375 
Q 47.609375 58.5 49.21875 52.21875 
Q 50.828125 45.953125 50.828125 35.296875 
Q 50.828125 22.703125 48.234375 14.96875 
Q 45.65625 7.234375 40.5 3 
Q 35.359375 -1.21875 27.484375 -1.21875 
Q 17.140625 -1.21875 11.234375 6.203125 
Q 4.15625 15.140625 4.15625 35.296875 
z
M 13.1875 35.296875 
Q 13.1875 17.671875 17.3125 11.828125 
Q 21.4375 6 27.484375 6 
Q 33.546875 6 37.671875 11.859375 
Q 41.796875 17.71875 41.796875 35.296875 
Q 41.796875 52.984375 37.671875 58.78125 
Q 33.546875 64.59375 27.390625 64.59375 
Q 21.34375 64.59375 17.71875 59.46875 
Q 13.1875 52.9375 13.1875 35.296875 
z
" id="ArialMT-48"/>
       </defs>
       <use xlink:href="#ArialMT-48"/>
      </g>
     </g>
    </g>
    <g id="xtick_2">
     <g id="line2d_2">
      <g>
       <use style="stroke:#000000;stroke-width:0.8;" x="79.721111" xlink:href="#mbf3dca5fbe" y="176.2"/>
      </g>
     </g>
     <g id="text_2">
      <!-- 1 -->
      <g transform="translate(76.940642 190.357812)scale(0.1 -0.1)">
       <defs>
        <path d="M 37.25 0 
L 28.46875 0 
L 28.46875 56 
Q 25.296875 52.984375 20.140625 49.953125 
Q 14.984375 46.921875 10.890625 45.40625 
L 10.890625 53.90625 
Q 18.265625 57.375 23.78125 62.296875 
Q 29.296875 67.234375 31.59375 71.875 
L 37.25 71.875 
z
" id="ArialMT-49"/>
       </defs>
       <use xlink:href="#ArialMT-49"/>
      </g>
     </g>
    </g>
    <g id="xtick_3">
     <g id="line2d_3">
      <g>
       <use style="stroke:#000000;stroke-width:0.8;" x="114.767222" xlink:href="#mbf3dca5fbe" y="176.2"/>
      </g>
     </g>
     <g id="text_3">
      <!-- 2 -->
      <g transform="translate(111.986753 190.357812)scale(0.1 -0.1)">
       <defs>
        <path d="M 50.34375 8.453125 
L 50.34375 0 
L 3.03125 0 
Q 2.9375 3.171875 4.046875 6.109375 
Q 5.859375 10.9375 9.828125 15.625 
Q 13.8125 20.3125 21.34375 26.46875 
Q 33.015625 36.03125 37.109375 41.625 
Q 41.21875 47.21875 41.21875 52.203125 
Q 41.21875 57.421875 37.46875 61 
Q 33.734375 64.59375 27.734375 64.59375 
Q 21.390625 64.59375 17.578125 60.78125 
Q 13.765625 56.984375 13.71875 50.25 
L 4.6875 51.171875 
Q 5.609375 61.28125 11.65625 66.578125 
Q 17.71875 71.875 27.9375 71.875 
Q 38.234375 71.875 44.234375 66.15625 
Q 50.25 60.453125 50.25 52 
Q 50.25 47.703125 48.484375 43.546875 
Q 46.734375 39.40625 42.65625 34.8125 
Q 38.578125 30.21875 29.109375 22.21875 
Q 21.1875 15.578125 18.9375 13.203125 
Q 16.703125 10.84375 15.234375 8.453125 
z
" id="ArialMT-50"/>
       </defs>
       <use xlink:href="#ArialMT-50"/>
      </g>
     </g>
    </g>
    <g id="xtick_4">
     <g id="line2d_4">
      <g>
       <use style="stroke:#000000;stroke-width:0.8;" x="149.813333" xlink:href="#mbf3dca5fbe" y="176.2"/>
      </g>
     </g>
     <g id="text_4">
      <!-- 3 -->
      <g transform="translate(147.032865 190.357812)scale(0.1 -0.1)">
       <defs>
        <path d="M 4.203125 18.890625 
L 12.984375 20.0625 
Q 14.5 12.59375 18.140625 9.296875 
Q 21.78125 6 27 6 
Q 33.203125 6 37.46875 10.296875 
Q 41.75 14.59375 41.75 20.953125 
Q 41.75 27 37.796875 30.921875 
Q 33.84375 34.859375 27.734375 34.859375 
Q 25.25 34.859375 21.53125 33.890625 
L 22.515625 41.609375 
Q 23.390625 41.5 23.921875 41.5 
Q 29.546875 41.5 34.03125 44.421875 
Q 38.53125 47.359375 38.53125 53.46875 
Q 38.53125 58.296875 35.25 61.46875 
Q 31.984375 64.65625 26.8125 64.65625 
Q 21.6875 64.65625 18.265625 61.421875 
Q 14.84375 58.203125 13.875 51.765625 
L 5.078125 53.328125 
Q 6.6875 62.15625 12.390625 67.015625 
Q 18.109375 71.875 26.609375 71.875 
Q 32.46875 71.875 37.390625 69.359375 
Q 42.328125 66.84375 44.9375 62.5 
Q 47.5625 58.15625 47.5625 53.265625 
Q 47.5625 48.640625 45.0625 44.828125 
Q 42.578125 41.015625 37.703125 38.765625 
Q 44.046875 37.3125 47.5625 32.6875 
Q 51.078125 28.078125 51.078125 21.140625 
Q 51.078125 11.765625 44.234375 5.25 
Q 37.40625 -1.265625 26.953125 -1.265625 
Q 17.53125 -1.265625 11.296875 4.34375 
Q 5.078125 9.96875 4.203125 18.890625 
z
" id="ArialMT-51"/>
       </defs>
       <use xlink:href="#ArialMT-51"/>
      </g>
     </g>
    </g>
    <g id="xtick_5">
     <g id="line2d_5">
      <g>
       <use style="stroke:#000000;stroke-width:0.8;" x="184.859444" xlink:href="#mbf3dca5fbe" y="176.2"/>
      </g>
     </g>
     <g id="text_5">
      <!-- 4 -->
      <g transform="translate(182.078976 190.357812)scale(0.1 -0.1)">
       <defs>
        <path d="M 32.328125 0 
L 32.328125 17.140625 
L 1.265625 17.140625 
L 1.265625 25.203125 
L 33.9375 71.578125 
L 41.109375 71.578125 
L 41.109375 25.203125 
L 50.78125 25.203125 
L 50.78125 17.140625 
L 41.109375 17.140625 
L 41.109375 0 
z
M 32.328125 25.203125 
L 32.328125 57.46875 
L 9.90625 25.203125 
z
" id="ArialMT-52"/>
       </defs>
       <use xlink:href="#ArialMT-52"/>
      </g>
     </g>
    </g>
    <g id="text_6">
     <!-- Specificity -->
     <g transform="translate(101.021719 203.625)scale(0.1 -0.1)">
      <defs>
       <path d="M 4.5 23 
L 13.421875 23.78125 
Q 14.0625 18.40625 16.375 14.96875 
Q 18.703125 11.53125 23.578125 9.40625 
Q 28.46875 7.28125 34.578125 7.28125 
Q 39.984375 7.28125 44.140625 8.890625 
Q 48.296875 10.5 50.3125 13.296875 
Q 52.34375 16.109375 52.34375 19.4375 
Q 52.34375 22.796875 50.390625 25.3125 
Q 48.4375 27.828125 43.953125 29.546875 
Q 41.0625 30.671875 31.203125 33.03125 
Q 21.34375 35.40625 17.390625 37.5 
Q 12.25 40.1875 9.734375 44.15625 
Q 7.234375 48.140625 7.234375 53.078125 
Q 7.234375 58.5 10.296875 63.203125 
Q 13.375 67.921875 19.28125 70.359375 
Q 25.203125 72.796875 32.421875 72.796875 
Q 40.375 72.796875 46.453125 70.234375 
Q 52.546875 67.671875 55.8125 62.6875 
Q 59.078125 57.71875 59.328125 51.421875 
L 50.25 50.734375 
Q 49.515625 57.515625 45.28125 60.984375 
Q 41.0625 64.453125 32.8125 64.453125 
Q 24.21875 64.453125 20.28125 61.296875 
Q 16.359375 58.15625 16.359375 53.71875 
Q 16.359375 49.859375 19.140625 47.359375 
Q 21.875 44.875 33.421875 42.265625 
Q 44.96875 39.65625 49.265625 37.703125 
Q 55.515625 34.8125 58.484375 30.390625 
Q 61.46875 25.984375 61.46875 20.21875 
Q 61.46875 14.5 58.203125 9.4375 
Q 54.9375 4.390625 48.796875 1.578125 
Q 42.671875 -1.21875 35.015625 -1.21875 
Q 25.296875 -1.21875 18.71875 1.609375 
Q 12.15625 4.4375 8.421875 10.125 
Q 4.6875 15.828125 4.5 23 
z
" id="ArialMT-83"/>
       <path d="M 6.59375 -19.875 
L 6.59375 51.859375 
L 14.59375 51.859375 
L 14.59375 45.125 
Q 17.4375 49.078125 21 51.046875 
Q 24.5625 53.03125 29.640625 53.03125 
Q 36.28125 53.03125 41.359375 49.609375 
Q 46.4375 46.1875 49.015625 39.953125 
Q 51.609375 33.734375 51.609375 26.3125 
Q 51.609375 18.359375 48.75 11.984375 
Q 45.90625 5.609375 40.453125 2.21875 
Q 35.015625 -1.171875 29 -1.171875 
Q 24.609375 -1.171875 21.109375 0.6875 
Q 17.625 2.546875 15.375 5.375 
L 15.375 -19.875 
z
M 14.546875 25.640625 
Q 14.546875 15.625 18.59375 10.84375 
Q 22.65625 6.0625 28.421875 6.0625 
Q 34.28125 6.0625 38.453125 11.015625 
Q 42.625 15.96875 42.625 26.375 
Q 42.625 36.28125 38.546875 41.203125 
Q 34.46875 46.140625 28.8125 46.140625 
Q 23.1875 46.140625 18.859375 40.890625 
Q 14.546875 35.640625 14.546875 25.640625 
z
" id="ArialMT-112"/>
       <path d="M 42.09375 16.703125 
L 51.171875 15.578125 
Q 49.03125 7.625 43.21875 3.21875 
Q 37.40625 -1.171875 28.375 -1.171875 
Q 17 -1.171875 10.328125 5.828125 
Q 3.65625 12.84375 3.65625 25.484375 
Q 3.65625 38.578125 10.390625 45.796875 
Q 17.140625 53.03125 27.875 53.03125 
Q 38.28125 53.03125 44.875 45.953125 
Q 51.46875 38.875 51.46875 26.03125 
Q 51.46875 25.25 51.421875 23.6875 
L 12.75 23.6875 
Q 13.234375 15.140625 17.578125 10.59375 
Q 21.921875 6.0625 28.421875 6.0625 
Q 33.25 6.0625 36.671875 8.59375 
Q 40.09375 11.140625 42.09375 16.703125 
z
M 13.234375 30.90625 
L 42.1875 30.90625 
Q 41.609375 37.453125 38.875 40.71875 
Q 34.671875 45.796875 27.984375 45.796875 
Q 21.921875 45.796875 17.796875 41.75 
Q 13.671875 37.703125 13.234375 30.90625 
z
" id="ArialMT-101"/>
       <path d="M 40.4375 19 
L 49.078125 17.875 
Q 47.65625 8.9375 41.8125 3.875 
Q 35.984375 -1.171875 27.484375 -1.171875 
Q 16.84375 -1.171875 10.375 5.78125 
Q 3.90625 12.75 3.90625 25.734375 
Q 3.90625 34.125 6.6875 40.421875 
Q 9.46875 46.734375 15.15625 49.875 
Q 20.84375 53.03125 27.546875 53.03125 
Q 35.984375 53.03125 41.359375 48.75 
Q 46.734375 44.484375 48.25 36.625 
L 39.703125 35.296875 
Q 38.484375 40.53125 35.375 43.15625 
Q 32.28125 45.796875 27.875 45.796875 
Q 21.234375 45.796875 17.078125 41.03125 
Q 12.9375 36.28125 12.9375 25.984375 
Q 12.9375 15.53125 16.9375 10.796875 
Q 20.953125 6.0625 27.390625 6.0625 
Q 32.5625 6.0625 36.03125 9.234375 
Q 39.5 12.40625 40.4375 19 
z
" id="ArialMT-99"/>
       <path d="M 6.640625 61.46875 
L 6.640625 71.578125 
L 15.4375 71.578125 
L 15.4375 61.46875 
z
M 6.640625 0 
L 6.640625 51.859375 
L 15.4375 51.859375 
L 15.4375 0 
z
" id="ArialMT-105"/>
       <path d="M 8.6875 0 
L 8.6875 45.015625 
L 0.921875 45.015625 
L 0.921875 51.859375 
L 8.6875 51.859375 
L 8.6875 57.375 
Q 8.6875 62.59375 9.625 65.140625 
Q 10.890625 68.5625 14.078125 70.671875 
Q 17.28125 72.796875 23.046875 72.796875 
Q 26.765625 72.796875 31.25 71.921875 
L 29.9375 64.265625 
Q 27.203125 64.75 24.75 64.75 
Q 20.75 64.75 19.09375 63.03125 
Q 17.4375 61.328125 17.4375 56.640625 
L 17.4375 51.859375 
L 27.546875 51.859375 
L 27.546875 45.015625 
L 17.4375 45.015625 
L 17.4375 0 
z
" id="ArialMT-102"/>
       <path d="M 25.78125 7.859375 
L 27.046875 0.09375 
Q 23.34375 -0.6875 20.40625 -0.6875 
Q 15.625 -0.6875 12.984375 0.828125 
Q 10.359375 2.34375 9.28125 4.8125 
Q 8.203125 7.28125 8.203125 15.1875 
L 8.203125 45.015625 
L 1.765625 45.015625 
L 1.765625 51.859375 
L 8.203125 51.859375 
L 8.203125 64.703125 
L 16.9375 69.96875 
L 16.9375 51.859375 
L 25.78125 51.859375 
L 25.78125 45.015625 
L 16.9375 45.015625 
L 16.9375 14.703125 
Q 16.9375 10.9375 17.40625 9.859375 
Q 17.875 8.796875 18.921875 8.15625 
Q 19.96875 7.515625 21.921875 7.515625 
Q 23.390625 7.515625 25.78125 7.859375 
z
" id="ArialMT-116"/>
       <path d="M 6.203125 -19.96875 
L 5.21875 -11.71875 
Q 8.109375 -12.5 10.25 -12.5 
Q 13.1875 -12.5 14.9375 -11.515625 
Q 16.703125 -10.546875 17.828125 -8.796875 
Q 18.65625 -7.46875 20.515625 -2.25 
Q 20.75 -1.515625 21.296875 -0.09375 
L 1.609375 51.859375 
L 11.078125 51.859375 
L 21.875 21.828125 
Q 23.96875 16.109375 25.640625 9.8125 
Q 27.15625 15.875 29.25 21.625 
L 40.328125 51.859375 
L 49.125 51.859375 
L 29.390625 -0.875 
Q 26.21875 -9.421875 24.46875 -12.640625 
Q 22.125 -17 19.09375 -19.015625 
Q 16.0625 -21.046875 11.859375 -21.046875 
Q 9.328125 -21.046875 6.203125 -19.96875 
z
" id="ArialMT-121"/>
      </defs>
      <use xlink:href="#ArialMT-83"/>
      <use x="66.699219" xlink:href="#ArialMT-112"/>
      <use x="122.314453" xlink:href="#ArialMT-101"/>
      <use x="177.929688" xlink:href="#ArialMT-99"/>
      <use x="227.929688" xlink:href="#ArialMT-105"/>
      <use x="250.146484" xlink:href="#ArialMT-102"/>
      <use x="277.929688" xlink:href="#ArialMT-105"/>
      <use x="300.146484" xlink:href="#ArialMT-99"/>
      <use x="350.146484" xlink:href="#ArialMT-105"/>
      <use x="372.363281" xlink:href="#ArialMT-116"/>
      <use x="400.146484" xlink:href="#ArialMT-121"/>
     </g>
    </g>
   </g>
   <g id="matplotlib.axis_2">
    <g id="ytick_1">
     <g id="line2d_6">
      <defs>
       <path d="M 0 0 
L -3.5 0 
" id="m618c9cbd58" style="stroke:#000000;stroke-width:0.8;"/>
      </defs>
      <g>
       <use style="stroke:#000000;stroke-width:0.8;" x="44.675" xlink:href="#m618c9cbd58" y="176.2"/>
      </g>
     </g>
     <g id="text_7">
      <!-- 0.0 -->
      <g transform="translate(23.775 179.778906)scale(0.1 -0.1)">
       <defs>
        <path d="M 9.078125 0 
L 9.078125 10.015625 
L 19.09375 10.015625 
L 19.09375 0 
z
" id="ArialMT-46"/>
       </defs>
       <use xlink:href="#ArialMT-48"/>
       <use x="55.615234" xlink:href="#ArialMT-46"/>
       <use x="83.398438" xlink:href="#ArialMT-48"/>
      </g>
     </g>
    </g>
    <g id="ytick_2">
     <g id="line2d_7">
      <g>
       <use style="stroke:#000000;stroke-width:0.8;" x="44.675" xlink:href="#m618c9cbd58" y="143.82"/>
      </g>
     </g>
     <g id="text_8">
      <!-- 0.2 -->
      <g transform="translate(23.775 147.398906)scale(0.1 -0.1)">
       <use xlink:href="#ArialMT-48"/>
       <use x="55.615234" xlink:href="#ArialMT-46"/>
       <use x="83.398438" xlink:href="#ArialMT-50"/>
      </g>
     </g>
    </g>
    <g id="ytick_3">
     <g id="line2d_8">
      <g>
       <use style="stroke:#000000;stroke-width:0.8;" x="44.675" xlink:href="#m618c9cbd58" y="111.44"/>
      </g>
     </g>
     <g id="text_9">
      <!-- 0.4 -->
      <g transform="translate(23.775 115.018906)scale(0.1 -0.1)">
       <use xlink:href="#ArialMT-48"/>
       <use x="55.615234" xlink:href="#ArialMT-46"/>
       <use x="83.398438" xlink:href="#ArialMT-52"/>
      </g>
     </g>
    </g>
    <g id="ytick_4">
     <g id="line2d_9">
      <g>
       <use style="stroke:#000000;stroke-width:0.8;" x="44.675" xlink:href="#m618c9cbd58" y="79.06"/>
      </g>
     </g>
     <g id="text_10">
      <!-- 0.6 -->
      <g transform="translate(23.775 82.638906)scale(0.1 -0.1)">
       <defs>
        <path d="M 49.75 54.046875 
L 41.015625 53.375 
Q 39.84375 58.546875 37.703125 60.890625 
Q 34.125 64.65625 28.90625 64.65625 
Q 24.703125 64.65625 21.53125 62.3125 
Q 17.390625 59.28125 14.984375 53.46875 
Q 12.59375 47.65625 12.5 36.921875 
Q 15.671875 41.75 20.265625 44.09375 
Q 24.859375 46.4375 29.890625 46.4375 
Q 38.671875 46.4375 44.84375 39.96875 
Q 51.03125 33.5 51.03125 23.25 
Q 51.03125 16.5 48.125 10.71875 
Q 45.21875 4.9375 40.140625 1.859375 
Q 35.0625 -1.21875 28.609375 -1.21875 
Q 17.625 -1.21875 10.6875 6.859375 
Q 3.765625 14.9375 3.765625 33.5 
Q 3.765625 54.25 11.421875 63.671875 
Q 18.109375 71.875 29.4375 71.875 
Q 37.890625 71.875 43.28125 67.140625 
Q 48.6875 62.40625 49.75 54.046875 
z
M 13.875 23.1875 
Q 13.875 18.65625 15.796875 14.5 
Q 17.71875 10.359375 21.1875 8.171875 
Q 24.65625 6 28.46875 6 
Q 34.03125 6 38.03125 10.484375 
Q 42.046875 14.984375 42.046875 22.703125 
Q 42.046875 30.125 38.078125 34.390625 
Q 34.125 38.671875 28.125 38.671875 
Q 22.171875 38.671875 18.015625 34.390625 
Q 13.875 30.125 13.875 23.1875 
z
" id="ArialMT-54"/>
       </defs>
       <use xlink:href="#ArialMT-48"/>
       <use x="55.615234" xlink:href="#ArialMT-46"/>
       <use x="83.398438" xlink:href="#ArialMT-54"/>
      </g>
     </g>
    </g>
    <g id="ytick_5">
     <g id="line2d_10">
      <g>
       <use style="stroke:#000000;stroke-width:0.8;" x="44.675" xlink:href="#m618c9cbd58" y="46.68"/>
      </g>
     </g>
     <g id="text_11">
      <!-- 0.8 -->
      <g transform="translate(23.775 50.258906)scale(0.1 -0.1)">
       <defs>
        <path d="M 17.671875 38.8125 
Q 12.203125 40.828125 9.5625 44.53125 
Q 6.9375 48.25 6.9375 53.421875 
Q 6.9375 61.234375 12.546875 66.546875 
Q 18.171875 71.875 27.484375 71.875 
Q 36.859375 71.875 42.578125 66.421875 
Q 48.296875 60.984375 48.296875 53.171875 
Q 48.296875 48.1875 45.671875 44.5 
Q 43.0625 40.828125 37.75 38.8125 
Q 44.34375 36.671875 47.78125 31.875 
Q 51.21875 27.09375 51.21875 20.453125 
Q 51.21875 11.28125 44.71875 5.03125 
Q 38.234375 -1.21875 27.640625 -1.21875 
Q 17.046875 -1.21875 10.546875 5.046875 
Q 4.046875 11.328125 4.046875 20.703125 
Q 4.046875 27.6875 7.59375 32.390625 
Q 11.140625 37.109375 17.671875 38.8125 
z
M 15.921875 53.71875 
Q 15.921875 48.640625 19.1875 45.40625 
Q 22.46875 42.1875 27.6875 42.1875 
Q 32.765625 42.1875 36.015625 45.375 
Q 39.265625 48.578125 39.265625 53.21875 
Q 39.265625 58.0625 35.90625 61.359375 
Q 32.5625 64.65625 27.59375 64.65625 
Q 22.5625 64.65625 19.234375 61.421875 
Q 15.921875 58.203125 15.921875 53.71875 
z
M 13.09375 20.65625 
Q 13.09375 16.890625 14.875 13.375 
Q 16.65625 9.859375 20.171875 7.921875 
Q 23.6875 6 27.734375 6 
Q 34.03125 6 38.125 10.046875 
Q 42.234375 14.109375 42.234375 20.359375 
Q 42.234375 26.703125 38.015625 30.859375 
Q 33.796875 35.015625 27.4375 35.015625 
Q 21.234375 35.015625 17.15625 30.90625 
Q 13.09375 26.8125 13.09375 20.65625 
z
" id="ArialMT-56"/>
       </defs>
       <use xlink:href="#ArialMT-48"/>
       <use x="55.615234" xlink:href="#ArialMT-46"/>
       <use x="83.398438" xlink:href="#ArialMT-56"/>
      </g>
     </g>
    </g>
    <g id="ytick_6">
     <g id="line2d_11">
      <g>
       <use style="stroke:#000000;stroke-width:0.8;" x="44.675" xlink:href="#m618c9cbd58" y="14.3"/>
      </g>
     </g>
     <g id="text_12">
      <!-- 1.0 -->
      <g transform="translate(23.775 17.878906)scale(0.1 -0.1)">
       <use xlink:href="#ArialMT-49"/>
       <use x="55.615234" xlink:href="#ArialMT-46"/>
       <use x="83.398438" xlink:href="#ArialMT-48"/>
      </g>
     </g>
    </g>
    <g id="text_13">
     <!-- Proportion -->
     <g transform="translate(17.7875 118.317187)rotate(-90)scale(0.1 -0.1)">
      <defs>
       <path d="M 7.71875 0 
L 7.71875 71.578125 
L 34.71875 71.578125 
Q 41.84375 71.578125 45.609375 70.90625 
Q 50.875 70.015625 54.4375 67.546875 
Q 58.015625 65.09375 60.1875 60.640625 
Q 62.359375 56.203125 62.359375 50.875 
Q 62.359375 41.75 56.546875 35.421875 
Q 50.734375 29.109375 35.546875 29.109375 
L 17.1875 29.109375 
L 17.1875 0 
z
M 17.1875 37.546875 
L 35.6875 37.546875 
Q 44.875 37.546875 48.734375 40.96875 
Q 52.59375 44.390625 52.59375 50.59375 
Q 52.59375 55.078125 50.3125 58.265625 
Q 48.046875 61.46875 44.34375 62.5 
Q 41.9375 63.140625 35.5 63.140625 
L 17.1875 63.140625 
z
" id="ArialMT-80"/>
       <path d="M 6.5 0 
L 6.5 51.859375 
L 14.40625 51.859375 
L 14.40625 44 
Q 17.4375 49.515625 20 51.265625 
Q 22.5625 53.03125 25.640625 53.03125 
Q 30.078125 53.03125 34.671875 50.203125 
L 31.640625 42.046875 
Q 28.421875 43.953125 25.203125 43.953125 
Q 22.3125 43.953125 20.015625 42.21875 
Q 17.71875 40.484375 16.75 37.40625 
Q 15.28125 32.71875 15.28125 27.15625 
L 15.28125 0 
z
" id="ArialMT-114"/>
       <path d="M 3.328125 25.921875 
Q 3.328125 40.328125 11.328125 47.265625 
Q 18.015625 53.03125 27.640625 53.03125 
Q 38.328125 53.03125 45.109375 46.015625 
Q 51.90625 39.015625 51.90625 26.65625 
Q 51.90625 16.65625 48.90625 10.90625 
Q 45.90625 5.171875 40.15625 2 
Q 34.421875 -1.171875 27.640625 -1.171875 
Q 16.75 -1.171875 10.03125 5.8125 
Q 3.328125 12.796875 3.328125 25.921875 
z
M 12.359375 25.921875 
Q 12.359375 15.96875 16.703125 11.015625 
Q 21.046875 6.0625 27.640625 6.0625 
Q 34.1875 6.0625 38.53125 11.03125 
Q 42.875 16.015625 42.875 26.21875 
Q 42.875 35.84375 38.5 40.796875 
Q 34.125 45.75 27.640625 45.75 
Q 21.046875 45.75 16.703125 40.8125 
Q 12.359375 35.890625 12.359375 25.921875 
z
" id="ArialMT-111"/>
       <path d="M 6.59375 0 
L 6.59375 51.859375 
L 14.5 51.859375 
L 14.5 44.484375 
Q 20.21875 53.03125 31 53.03125 
Q 35.6875 53.03125 39.625 51.34375 
Q 43.5625 49.65625 45.515625 46.921875 
Q 47.46875 44.1875 48.25 40.4375 
Q 48.734375 37.984375 48.734375 31.890625 
L 48.734375 0 
L 39.9375 0 
L 39.9375 31.546875 
Q 39.9375 36.921875 38.90625 39.578125 
Q 37.890625 42.234375 35.28125 43.8125 
Q 32.671875 45.40625 29.15625 45.40625 
Q 23.53125 45.40625 19.453125 41.84375 
Q 15.375 38.28125 15.375 28.328125 
L 15.375 0 
z
" id="ArialMT-110"/>
      </defs>
      <use xlink:href="#ArialMT-80"/>
      <use x="66.699219" xlink:href="#ArialMT-114"/>
      <use x="100" xlink:href="#ArialMT-111"/>
      <use x="155.615234" xlink:href="#ArialMT-112"/>
      <use x="211.230469" xlink:href="#ArialMT-111"/>
      <use x="266.845703" xlink:href="#ArialMT-114"/>
      <use x="300.146484" xlink:href="#ArialMT-116"/>
      <use x="327.929688" xlink:href="#ArialMT-105"/>
      <use x="350.146484" xlink:href="#ArialMT-111"/>
      <use x="405.761719" xlink:href="#ArialMT-110"/>
     </g>
    </g>
   </g>
   <g id="line2d_12">
    <path clip-path="url(#p6d4ed6449e)" d="M 44.752369 176.2 
L 44.851478 176.070134 
L 45.058039 176.026845 
L 45.058039 175.983556 
L 45.152744 175.85369 
L 45.389653 175.767112 
L 45.494722 175.637246 
L 45.681219 175.637246 
L 45.681219 175.550668 
L 45.750803 175.031203 
L 46.358359 174.944626 
L 46.453552 174.771471 
L 46.556249 174.684893 
L 46.623295 174.511738 
L 46.75055 174.42516 
L 46.807936 174.208717 
L 47.021346 174.122139 
L 47.021346 174.07885 
L 47.426723 173.992273 
L 47.507514 173.862406 
L 47.575794 173.819118 
L 47.575794 173.775829 
L 47.64393 173.429519 
L 47.768371 173.342941 
L 47.867609 173.169786 
L 48.043935 173.083209 
L 48.064561 172.996631 
L 48.163338 172.996631 
L 48.163338 172.910053 
L 48.170231 172.780187 
L 48.294186 172.780187 
L 48.294186 172.69361 
L 48.307502 172.520455 
L 48.421962 172.477166 
L 48.421962 172.433877 
L 48.525783 172.217433 
L 48.653748 172.130856 
L 48.730355 171.914412 
L 48.873894 171.827834 
L 48.953843 171.351658 
L 49.011443 171.26508 
L 49.117345 171.048636 
L 49.127844 171.048636 
L 49.127844 170.962059 
L 49.233116 170.745615 
L 49.405338 170.659037 
L 49.471464 170.399305 
L 49.80057 170.356016 
L 49.80057 170.312727 
L 49.874429 169.749973 
L 49.974519 169.663396 
L 50.079843 169.360374 
L 50.213758 169.273797 
L 50.311214 168.711043 
L 50.388116 168.711043 
L 50.388116 168.624465 
L 50.499034 168.148289 
L 50.575283 168.061711 
L 50.63021 167.888556 
L 50.893758 167.801979 
L 50.988702 167.109358 
L 51.055506 167.022781 
L 51.164918 166.849626 
L 51.256127 166.763048 
L 51.326241 166.243583 
L 51.39792 166.157005 
L 51.409142 166.070428 
L 51.542886 165.98385 
L 51.614276 165.594251 
L 51.716209 165.507674 
L 51.745942 165.421096 
L 51.956977 165.334519 
L 52.03123 165.204652 
L 52.131453 165.118075 
L 52.235452 164.901631 
L 52.268246 164.815053 
L 52.369126 164.685187 
L 52.477984 164.59861 
L 52.582312 164.468743 
L 52.749261 164.382166 
L 52.749261 164.338877 
L 52.980078 164.252299 
L 53.07028 164.079144 
L 53.186177 163.992567 
L 53.219288 163.776123 
L 53.435766 163.732834 
L 53.435766 163.689545 
L 53.519084 163.473102 
L 53.644876 163.386524 
L 53.718464 163.299947 
L 53.845769 163.213369 
L 53.881396 163.083503 
L 54.034255 162.996925 
L 54.118549 162.780481 
L 54.21033 162.737193 
L 54.21033 162.693904 
L 54.320323 162.304305 
L 54.491693 162.217727 
L 54.491693 162.174439 
L 54.643985 162.087861 
L 54.675073 161.957995 
L 54.773575 161.957995 
L 54.773575 161.871417 
L 54.821081 161.78484 
L 54.91837 161.698262 
L 54.975533 161.395241 
L 55.144622 161.308663 
L 55.234157 161.04893 
L 55.358968 160.962353 
L 55.469599 160.139866 
L 55.518483 160.096578 
L 55.518483 160.053289 
L 55.600006 159.793556 
L 55.764715 159.706979 
L 55.784994 159.620401 
L 56.082634 159.533824 
L 56.193636 159.403957 
L 56.334597 159.31738 
L 56.423582 159.144225 
L 56.486766 159.057647 
L 56.580774 158.884492 
L 56.69609 158.797914 
L 56.750134 158.365027 
L 56.99527 158.278449 
L 57.093574 158.105294 
L 57.143737 158.018717 
L 57.185775 157.802273 
L 57.300187 157.715695 
L 57.381671 157.282807 
L 57.565761 157.19623 
L 57.621976 156.979786 
L 57.763264 156.893209 
L 57.863494 156.546898 
L 57.954349 156.460321 
L 58.050254 156.157299 
L 58.295382 156.070722 
L 58.404935 155.810989 
L 58.517663 155.724412 
L 58.615776 155.378102 
L 58.690158 155.334813 
L 58.690158 155.291524 
L 58.742285 155.118369 
L 58.981802 155.031791 
L 59.075902 154.858636 
L 59.184832 154.772059 
L 59.277228 154.295882 
L 59.330246 154.209305 
L 59.440324 153.862995 
L 59.536685 153.776417 
L 59.634546 153.603262 
L 59.715663 153.516684 
L 59.784482 153.256952 
L 59.879819 153.170374 
L 59.950329 152.997219 
L 60.038164 152.910642 
L 60.105198 152.737487 
L 60.18608 152.650909 
L 60.221688 152.477754 
L 60.363117 152.391176 
L 60.455586 152.218021 
L 60.580152 152.131444 
L 60.580152 152.088155 
L 60.768127 152.001578 
L 60.839713 151.915 
L 60.900367 151.828422 
L 60.991292 151.525401 
L 61.075383 151.482112 
L 61.075383 151.438824 
L 61.099289 151.308957 
L 61.223857 151.22238 
L 61.320938 151.049225 
L 61.354136 151.049225 
L 61.354136 150.962647 
L 61.465158 150.616337 
L 61.569017 150.529759 
L 61.672669 150.399893 
L 61.74492 150.313316 
L 61.827531 149.707273 
L 61.916746 149.620695 
L 61.963406 149.44754 
L 62.087015 149.360963 
L 62.146512 149.187807 
L 62.335394 149.10123 
L 62.432705 148.798209 
L 62.558698 148.711631 
L 62.665556 148.495187 
L 62.697961 148.40861 
L 62.757948 148.322032 
L 62.847268 148.235455 
L 62.921347 147.932433 
L 63.012137 147.845856 
L 63.121252 147.456257 
L 63.128383 147.369679 
L 63.227366 147.066658 
L 63.257133 146.98008 
L 63.308144 146.677059 
L 63.455536 146.590481 
L 63.532393 146.417326 
L 63.691317 146.330749 
L 63.764569 146.200882 
L 63.803312 146.200882 
L 63.803312 146.114305 
L 63.912788 145.248529 
L 63.994831 145.161952 
L 64.102142 144.85893 
L 64.161394 144.772353 
L 64.262802 144.555909 
L 64.335653 144.469332 
L 64.432526 144.339465 
L 64.479459 144.252888 
L 64.479459 144.16631 
L 64.68312 144.079733 
L 64.77848 143.82 
L 64.844113 143.733422 
L 64.933935 143.516979 
L 65.023598 143.430401 
L 65.127894 142.997513 
L 65.208376 142.910936 
L 65.31031 142.737781 
L 65.353379 142.651203 
L 65.454234 142.521337 
L 65.550465 142.434759 
L 65.615323 142.304893 
L 65.746596 142.218316 
L 65.832304 141.958583 
L 65.87721 141.872005 
L 65.937483 141.655561 
L 66.047095 141.568984 
L 66.157456 141.35254 
L 66.245007 141.265963 
L 66.351548 140.962941 
L 66.399415 140.962941 
L 66.399415 140.876364 
L 66.451137 140.703209 
L 66.578448 140.616631 
L 66.670954 140.31361 
L 66.723563 140.227032 
L 66.829146 139.880722 
L 67.040698 139.794144 
L 67.095532 139.664278 
L 67.276414 139.577701 
L 67.369005 139.361257 
L 67.464748 139.274679 
L 67.564807 139.058235 
L 67.722725 138.971658 
L 67.807675 138.711925 
L 67.942188 138.625348 
L 68.04633 138.365615 
L 68.154999 138.279037 
L 68.265068 137.889439 
L 68.424482 137.802861 
L 68.424482 137.759572 
L 68.614038 137.672995 
L 68.716168 137.543128 
L 68.829936 137.456551 
L 68.929095 137.196818 
L 68.98879 137.110241 
L 69.077236 136.807219 
L 69.140569 136.720642 
L 69.245427 136.504198 
L 69.357955 136.41762 
L 69.461747 136.244465 
L 69.485684 136.157888 
L 69.586494 135.941444 
L 69.639037 135.854866 
L 69.749249 135.421979 
L 69.863127 135.335401 
L 69.958981 135.205535 
L 70.020296 135.118957 
L 70.114711 134.772647 
L 70.188246 134.68607 
L 70.267063 134.383048 
L 70.36501 134.296471 
L 70.395544 134.080027 
L 70.522563 133.993449 
L 70.624173 133.777005 
L 70.775344 133.690428 
L 70.862643 133.387406 
L 70.925884 133.344118 
L 70.925884 133.300829 
L 71.025646 132.954519 
L 71.092416 132.867941 
L 71.145237 132.738075 
L 71.247216 132.651497 
L 71.324531 132.521631 
L 71.40837 132.435053 
L 71.516563 132.175321 
L 71.571347 132.088743 
L 71.674947 131.915588 
L 71.761619 131.829011 
L 71.870724 131.396123 
L 71.952121 131.309545 
L 72.048052 131.179679 
L 72.102376 131.093102 
L 72.185745 130.79008 
L 72.219137 130.703503 
L 72.308715 130.530348 
L 72.441595 130.44377 
L 72.504284 130.357193 
L 72.629172 130.313904 
L 72.629172 130.270615 
L 72.733334 129.881016 
L 72.788753 129.794439 
L 72.887317 129.621283 
L 72.984065 129.534706 
L 73.091926 129.231684 
L 73.129907 129.145107 
L 73.176674 128.928663 
L 73.32414 128.842086 
L 73.407409 128.452487 
L 73.589546 128.365909 
L 73.658168 128.106176 
L 73.780495 128.019599 
L 73.882413 127.673289 
L 74.083804 127.586711 
L 74.162594 127.456845 
L 74.282993 127.370267 
L 74.393994 127.110535 
L 74.413633 127.067246 
L 74.413633 127.023957 
L 74.517896 126.764225 
L 74.670175 126.677647 
L 74.739756 126.417914 
L 74.827738 126.374626 
L 74.827738 126.331337 
L 74.919111 125.638717 
L 75.025474 125.552139 
L 75.089341 125.249118 
L 75.229729 125.16254 
L 75.335379 124.859519 
L 75.436523 124.772941 
L 75.546428 124.599786 
L 75.586228 124.599786 
L 75.586228 124.513209 
L 75.69657 123.907166 
L 75.744848 123.820588 
L 75.782509 123.127968 
L 75.930916 123.04139 
L 75.998863 122.738369 
L 76.058997 122.69508 
L 76.058997 122.651791 
L 76.150627 122.34877 
L 76.204769 122.305481 
L 76.204769 122.262193 
L 76.248237 122.089037 
L 76.457989 122.00246 
L 76.544748 121.872594 
L 76.647406 121.786016 
L 76.748219 121.179973 
L 76.899571 121.093396 
L 76.974695 120.790374 
L 77.02716 120.790374 
L 77.02716 120.703797 
L 77.133451 120.314198 
L 77.215815 120.22762 
L 77.302328 119.967888 
L 77.355679 119.88131 
L 77.426312 119.621578 
L 77.491088 119.535 
L 77.584419 119.318556 
L 77.61936 119.231979 
L 77.67856 119.058824 
L 77.762857 118.972246 
L 77.870091 118.799091 
L 77.919771 118.755802 
L 77.919771 118.712513 
L 78.00702 118.49607 
L 78.066422 118.409492 
L 78.147428 118.279626 
L 78.280534 118.193048 
L 78.338952 118.019893 
L 78.430126 117.933316 
L 78.537815 117.630294 
L 78.674987 117.543717 
L 78.762233 117.110829 
L 78.830148 117.024251 
L 78.906034 116.894385 
L 79.021076 116.807807 
L 79.104508 116.37492 
L 79.178691 116.288342 
L 79.222971 116.201765 
L 79.309487 116.115187 
L 79.398037 115.639011 
L 79.477444 115.552433 
L 79.578485 115.335989 
L 79.661872 115.249412 
L 79.721111 114.989679 
L 79.857578 114.903102 
L 79.951983 114.686658 
L 79.994414 114.60008 
L 80.070209 114.297059 
L 80.161156 114.25377 
L 80.161156 114.210481 
L 80.269202 113.820882 
L 80.352691 113.734305 
L 80.409876 113.517861 
L 80.518503 113.431283 
L 80.613146 113.258128 
L 80.680549 113.21484 
L 80.680549 113.171551 
L 80.787086 112.565508 
L 80.960844 112.47893 
L 81.058624 112.13262 
L 81.098876 112.046043 
L 81.155073 111.872888 
L 81.259202 111.829599 
L 81.259202 111.78631 
L 81.362431 111.44 
L 81.408109 111.353422 
L 81.474842 108.106765 
L 81.566602 108.020187 
L 81.671358 107.847032 
L 81.715319 107.760455 
L 81.816211 107.587299 
L 81.897667 107.500722 
L 81.973637 107.284278 
L 82.082621 107.197701 
L 82.175037 106.981257 
L 82.195085 106.981257 
L 82.195085 106.894679 
L 82.305074 106.375214 
L 82.317504 106.288636 
L 82.384948 106.115481 
L 82.532774 106.028904 
L 82.63591 105.682594 
L 82.66397 105.596016 
L 82.774398 105.336283 
L 82.778775 105.249706 
L 82.886497 104.773529 
L 82.924197 104.686952 
L 83.023719 104.210775 
L 83.097589 104.124198 
L 83.198287 103.648021 
L 83.242978 103.561444 
L 83.319844 103.388289 
L 83.377705 103.301711 
L 83.477056 103.085267 
L 83.48892 103.085267 
L 83.48892 102.99869 
L 83.569024 102.782246 
L 83.750212 102.695668 
L 83.850822 102.349358 
L 83.894068 102.262781 
L 83.950121 102.046337 
L 84.111985 101.959759 
L 84.222488 101.700027 
L 84.275049 101.656738 
L 84.275049 101.613449 
L 84.373665 101.483583 
L 84.457929 101.440294 
L 84.457929 101.397005 
L 84.49154 101.310428 
L 84.584252 101.22385 
L 84.694242 100.574519 
L 84.759786 100.487941 
L 84.837882 100.141631 
L 84.970841 100.055053 
L 84.989403 99.83861 
L 85.105838 99.752032 
L 85.171929 99.232567 
L 85.247837 99.145989 
L 85.35174 98.75639 
L 85.395473 98.669813 
L 85.4866 98.323503 
L 85.579923 98.236925 
L 85.690542 97.760749 
L 85.711203 97.674171 
L 85.810971 97.501016 
L 85.898567 97.414439 
L 86.005709 97.154706 
L 86.089372 97.068128 
L 86.165511 96.851684 
L 86.229685 96.851684 
L 86.229685 96.765107 
L 86.293214 96.635241 
L 86.405292 96.591952 
L 86.405292 96.548663 
L 86.515842 95.553021 
L 86.595787 95.509733 
L 86.595787 95.466444 
L 86.684212 95.033556 
L 86.757744 94.946979 
L 86.856244 94.600668 
L 86.993643 94.514091 
L 87.076224 94.297647 
L 87.165801 94.21107 
L 87.185713 94.124492 
L 87.285278 94.037914 
L 87.36518 93.518449 
L 87.408376 93.518449 
L 87.408376 93.431872 
L 87.515101 93.12885 
L 87.557949 93.042273 
L 87.668548 92.263075 
L 87.758982 92.176497 
L 87.865445 91.916765 
L 87.938206 91.830187 
L 88.028413 91.700321 
L 88.059672 91.613743 
L 88.093979 91.483877 
L 88.336325 91.397299 
L 88.374513 91.180856 
L 88.518506 91.094278 
L 88.619658 90.834545 
L 88.751094 90.747968 
L 88.809634 90.574813 
L 88.939444 90.488235 
L 88.987851 90.228503 
L 89.165721 90.141925 
L 89.272082 89.925481 
L 89.334612 89.838904 
L 89.443976 89.62246 
L 89.477071 89.535882 
L 89.527618 89.232861 
L 89.634959 89.146283 
L 89.727491 88.756684 
L 89.89824 88.670107 
L 90.00073 88.496952 
L 90.013405 88.496952 
L 90.013405 88.410374 
L 90.114527 87.068422 
L 90.243111 86.981845 
L 90.334733 86.722112 
L 90.405079 86.635535 
L 90.498107 86.202647 
L 90.580333 86.159358 
L 90.580333 86.11607 
L 90.625176 86.029492 
L 90.740481 85.942914 
L 90.824673 85.726471 
L 90.875274 85.639893 
L 90.969149 85.38016 
L 91.143046 85.293583 
L 91.23102 85.207005 
L 91.386685 85.120428 
L 91.491953 84.68754 
L 91.584078 84.600963 
L 91.686045 84.211364 
L 91.822828 84.124786 
L 91.91447 83.908342 
L 91.981881 83.821765 
L 92.075441 83.735187 
L 92.224507 83.64861 
L 92.297572 83.475455 
L 92.379329 83.432166 
L 92.379329 83.388877 
L 92.47054 83.259011 
L 92.579705 83.172433 
L 92.687368 82.912701 
L 92.71753 82.826123 
L 92.809376 82.652968 
L 92.893784 82.56639 
L 92.95094 82.349947 
L 93.032387 82.263369 
L 93.107523 82.046925 
L 93.229863 81.960348 
L 93.31911 81.700615 
L 93.462715 81.614037 
L 93.559405 80.704973 
L 93.648342 80.618396 
L 93.730711 80.401952 
L 93.762748 80.401952 
L 93.762748 80.315374 
L 93.847769 80.09893 
L 93.994582 80.012353 
L 94.063912 79.75262 
L 94.150463 79.666043 
L 94.239075 79.492888 
L 94.367582 79.40631 
L 94.459665 79.189866 
L 94.48335 79.189866 
L 94.48335 79.103289 
L 94.555481 78.843556 
L 94.647478 78.756979 
L 94.744908 78.627112 
L 94.918204 78.540535 
L 95.025688 78.107647 
L 95.170396 78.02107 
L 95.27658 77.718048 
L 95.360657 77.631471 
L 95.470448 76.93885 
L 95.585779 76.852273 
L 95.632109 76.635829 
L 95.722381 76.549251 
L 95.822403 76.419385 
L 95.969108 76.332807 
L 96.079366 76.116364 
L 96.242548 76.029786 
L 96.267117 75.856631 
L 96.37812 75.770053 
L 96.485264 75.55361 
L 96.608746 75.467032 
L 96.70919 75.337166 
L 96.82364 75.293877 
L 96.82364 75.250588 
L 96.841125 74.904278 
L 97.055289 74.817701 
L 97.077079 74.644545 
L 97.360111 74.557968 
L 97.453539 74.12508 
L 97.488087 74.038503 
L 97.58817 73.865348 
L 97.79354 73.77877 
L 97.79354 73.735481 
L 97.970403 73.648904 
L 98.069922 73.43246 
L 98.220902 73.345882 
L 98.299546 73.08615 
L 98.37223 73.08615 
L 98.37223 72.999572 
L 98.433799 72.696551 
L 98.563891 72.609973 
L 98.665931 72.480107 
L 98.734581 72.393529 
L 98.844007 71.874064 
L 98.992268 71.787487 
L 99.096901 70.835134 
L 99.19338 70.748556 
L 99.225467 70.575401 
L 99.363333 70.488824 
L 99.400961 70.315668 
L 99.583772 70.229091 
L 99.694405 69.882781 
L 99.83284 69.796203 
L 99.83284 69.752914 
L 100.290797 69.666337 
L 100.397026 69.276738 
L 100.466323 69.19016 
L 100.574606 68.887139 
L 100.604603 68.84385 
L 100.604603 68.800561 
L 100.707938 68.713984 
L 101.112735 68.627406 
L 101.216946 68.454251 
L 101.353779 68.367674 
L 101.403907 68.194519 
L 101.496168 68.194519 
L 101.496168 68.107941 
L 101.496168 67.718342 
L 101.747237 67.631765 
L 101.847663 67.501898 
L 101.929053 67.415321 
L 101.929053 67.372032 
L 102.194133 67.285455 
L 102.209678 67.198877 
L 102.486652 67.112299 
L 102.535115 66.809278 
L 102.724961 66.722701 
L 102.777738 66.592834 
L 102.888885 66.506257 
L 102.997346 66.289813 
L 103.169873 66.203235 
L 103.228023 66.073369 
L 103.472047 65.986791 
L 103.57056 65.813636 
L 103.59649 65.727059 
L 103.693584 65.553904 
L 103.859968 65.467326 
L 103.968734 65.250882 
L 104.02204 65.164305 
L 104.074708 65.077727 
L 104.224075 65.034439 
L 104.224075 64.99115 
L 104.287229 64.774706 
L 104.359167 64.774706 
L 104.359167 64.688128 
L 104.374623 64.168663 
L 104.621141 64.125374 
L 104.621141 64.082086 
L 104.723388 63.822353 
L 104.776953 63.735775 
L 104.776953 63.692487 
L 105.288421 63.605909 
L 105.385526 63.476043 
L 105.475559 63.389465 
L 105.523853 63.21631 
L 105.610889 63.21631 
L 105.610889 63.129733 
L 105.672058 62.913289 
L 106.057312 62.826711 
L 106.096768 62.653556 
L 106.36024 62.566979 
L 106.360663 62.437112 
L 106.565222 62.350535 
L 106.584301 62.263957 
L 106.826039 62.17738 
L 106.898824 62.090802 
L 107.058953 62.004225 
L 107.094163 61.744492 
L 107.187579 61.744492 
L 107.187579 61.657914 
L 107.243825 61.484759 
L 107.332768 61.398182 
L 107.407234 61.138449 
L 107.585698 61.051872 
L 107.695663 60.575695 
L 107.825325 60.532406 
L 107.825325 60.489118 
L 107.892141 60.40254 
L 108.234167 60.315963 
L 108.339023 60.186096 
L 108.697491 60.099519 
L 108.80333 59.969652 
L 109.087763 59.883075 
L 109.159989 59.796497 
L 109.562085 59.70992 
L 109.66284 59.493476 
L 109.88928 59.406898 
L 109.92695 59.277032 
L 110.117217 59.190455 
L 110.147448 59.060588 
L 110.367853 58.974011 
L 110.367853 58.930722 
L 110.627807 58.844144 
L 110.736072 58.714278 
L 110.939168 58.627701 
L 111.037022 58.541123 
L 111.273276 58.454545 
L 111.278884 58.367968 
L 111.532417 58.28139 
L 111.641895 58.151524 
L 111.751861 58.064947 
L 111.838604 57.848503 
L 112.081944 57.761925 
L 112.081944 57.718636 
L 112.283974 57.632059 
L 112.364311 57.502193 
L 112.568578 57.415615 
L 112.678867 56.593128 
L 112.794507 56.506551 
L 112.901296 56.290107 
L 113.007879 56.203529 
L 113.007879 56.160241 
L 113.26679 56.073663 
L 113.357323 55.857219 
L 113.611495 55.770642 
L 113.685665 55.684064 
L 113.779526 55.597487 
L 113.779526 55.554198 
L 114.060066 55.46762 
L 114.164902 55.294465 
L 114.290978 55.207888 
L 114.290978 55.164599 
L 114.527028 55.078021 
L 114.593771 54.948155 
L 114.702024 54.861578 
L 114.767222 54.731711 
L 114.958379 54.688422 
L 114.958379 54.645134 
L 115.017731 54.558556 
L 115.303524 54.471979 
L 115.303524 54.42869 
L 115.608012 54.342112 
L 115.690734 53.73607 
L 115.890011 53.649492 
L 115.890011 53.606203 
L 116.228398 53.562914 
L 116.228398 53.519626 
L 116.306586 53.303182 
L 116.503961 53.216604 
L 116.503961 53.173316 
L 116.907191 53.086738 
L 116.963353 52.956872 
L 117.422579 52.870294 
L 117.500907 52.740428 
L 117.957968 52.65385 
L 118.015713 52.523984 
L 118.519064 52.437406 
L 118.549879 52.350829 
L 119.002699 52.264251 
L 119.036915 52.177674 
L 119.345691 52.134385 
L 119.345691 52.091096 
L 119.382994 52.004519 
L 119.777343 51.917941 
L 119.801798 51.831364 
L 119.947767 51.744786 
L 120.032642 51.528342 
L 120.168639 51.441765 
L 120.225627 51.355187 
L 120.549279 51.26861 
L 120.636809 51.182032 
L 120.920323 51.095455 
L 120.997969 50.922299 
L 121.212842 50.835722 
L 121.237757 50.749144 
L 121.585401 50.662567 
L 121.644541 50.359545 
L 122.013121 50.272968 
L 122.114755 50.143102 
L 122.20389 50.056524 
L 122.298557 49.969947 
L 122.702089 49.883369 
L 122.76285 49.753503 
L 123.027719 49.666925 
L 123.12457 49.580348 
L 123.62701 49.49377 
L 123.730657 49.363904 
L 123.791463 49.277326 
L 123.791463 49.234037 
L 124.000494 49.14746 
L 124.091368 49.060882 
L 124.303749 48.974305 
L 124.322731 48.887727 
L 124.734784 48.80115 
L 124.84188 48.714572 
L 125.051353 48.627995 
L 125.051353 48.584706 
L 125.821798 48.498128 
L 125.871832 48.238396 
L 126.287858 48.151818 
L 126.397049 48.021952 
L 126.536496 47.935374 
L 126.646732 47.762219 
L 126.89225 47.675642 
L 126.89225 47.632353 
L 127.197942 47.545775 
L 127.291062 47.459198 
L 127.458021 47.37262 
L 127.553329 47.199465 
L 127.718836 47.112888 
L 127.749234 47.02631 
L 128.072254 46.939733 
L 128.166008 46.723289 
L 128.756617 46.636711 
L 128.767345 46.506845 
L 128.989599 46.420267 
L 128.989599 46.376979 
L 129.590735 46.290401 
L 129.590735 46.247112 
L 129.940766 46.160535 
L 129.96979 46.030668 
L 130.676632 45.944091 
L 130.750519 45.857513 
L 131.052038 45.770936 
L 131.146321 45.684358 
L 131.435134 45.597781 
L 131.531375 45.251471 
L 131.66915 45.164893 
L 131.697399 45.078316 
L 131.95502 44.991738 
L 132.063861 44.90516 
L 132.259979 44.818583 
L 132.273072 44.688717 
L 132.424355 44.602139 
L 132.510338 44.472273 
L 132.969267 44.385695 
L 132.969267 44.342406 
L 133.270606 44.299118 
L 133.270606 44.255829 
L 133.3597 43.909519 
L 133.662642 43.822941 
L 133.662642 43.779652 
L 134.014984 43.693075 
L 134.062893 43.606497 
L 134.406519 43.51992 
L 134.432147 43.433342 
L 135.335253 43.346765 
L 135.434476 43.216898 
L 136.091943 43.130321 
L 136.132192 43.043743 
L 136.273102 43.000455 
L 136.273102 42.957166 
L 136.338803 42.827299 
L 136.507616 42.740722 
L 136.507616 42.697433 
L 137.070243 42.654144 
L 137.070243 42.610856 
L 137.155115 42.524278 
L 137.31185 42.480989 
L 137.31185 42.437701 
L 137.412711 42.264545 
L 138.066431 42.177968 
L 138.066431 42.134679 
L 138.57099 42.048102 
L 138.670814 41.874947 
L 138.943138 41.788369 
L 138.980438 41.658503 
L 139.129366 41.571925 
L 139.229672 41.442059 
L 139.584282 41.39877 
L 139.584282 41.355481 
L 139.693645 41.225615 
L 139.842507 41.182326 
L 139.842507 41.139037 
L 139.950904 41.05246 
L 140.176019 40.965882 
L 140.176019 40.922594 
L 140.344077 40.879305 
L 140.344077 40.836016 
L 140.344077 40.792727 
L 140.83906 40.70615 
L 140.946047 40.532995 
L 141.513555 40.446417 
L 141.615801 40.273262 
L 141.820207 40.186684 
L 141.908343 40.056818 
L 142.199202 40.013529 
L 142.199202 39.970241 
L 142.199202 39.797086 
L 142.649801 39.710508 
L 142.649801 39.667219 
L 143.2047 39.580642 
L 143.25327 39.494064 
L 144.037353 39.407487 
L 144.065595 39.27762 
L 144.313443 39.191043 
L 144.313443 39.147754 
L 144.46113 39.147754 
L 144.46113 39.061176 
L 144.466431 38.801444 
L 145.284685 38.714866 
L 145.284685 38.671578 
L 145.436714 38.628289 
L 145.436714 38.585 
L 145.464449 38.498422 
L 146.164739 38.411845 
L 146.216789 38.281979 
L 146.484075 38.195401 
L 146.550211 37.069893 
L 146.793878 36.983316 
L 146.808835 36.896738 
L 147.193014 36.81016 
L 147.193014 36.766872 
L 147.718549 36.680294 
L 147.804029 36.593717 
L 148.059602 36.550428 
L 148.059602 36.507139 
L 148.109744 36.247406 
L 148.426208 36.160829 
L 148.426208 36.11754 
L 148.913116 36.030963 
L 149.017083 35.901096 
L 149.368979 35.814519 
L 149.475132 35.641364 
L 149.933573 35.554786 
L 149.933573 35.338342 
L 150.53989 35.251765 
L 150.53989 35.208476 
L 150.923321 35.121898 
L 151.022017 34.948743 
L 151.333531 34.862166 
L 151.415582 34.645722 
L 151.596211 34.559144 
L 151.704386 33.520214 
L 152.136974 33.433636 
L 152.136974 33.347059 
L 152.411703 33.260481 
L 152.411703 33.173904 
L 152.576909 33.130615 
L 152.576909 33.087326 
L 152.686319 32.870882 
L 153.114062 32.827594 
L 153.114062 32.784305 
L 153.175111 32.654439 
L 153.248977 32.654439 
L 153.248977 32.567861 
L 153.248977 31.312487 
L 153.665521 31.225909 
L 153.730551 31.139332 
L 153.926238 31.096043 
L 153.926238 31.052754 
L 154.036839 30.057112 
L 154.592657 29.970535 
L 154.592657 29.840668 
L 154.736654 29.754091 
L 154.736654 29.710802 
L 155.197874 29.624225 
L 155.197874 29.580936 
L 155.466687 29.494358 
L 155.466687 29.45107 
L 155.669888 29.45107 
L 155.669888 29.364492 
L 155.669888 29.234626 
L 156.258954 29.148048 
L 156.261824 29.061471 
L 156.895743 28.974893 
L 157.001796 28.845027 
L 157.636439 28.758449 
L 157.639558 27.979251 
L 158.463647 27.892674 
L 158.570416 27.719519 
L 158.600692 27.632941 
L 158.600692 27.589652 
L 159.140516 27.503075 
L 159.163164 27.416497 
L 159.888352 27.32992 
L 159.981508 27.243342 
L 160.35483 27.200053 
L 160.35483 27.156765 
L 160.378474 27.070187 
L 160.719742 26.98361 
L 160.719742 26.940321 
L 161.332111 26.853743 
L 161.426125 25.165481 
L 161.483102 25.165481 
L 161.483102 25.078904 
L 161.527193 24.992326 
L 161.754444 24.905749 
L 161.754444 24.86246 
L 161.999291 24.819171 
L 161.999291 24.775882 
L 162.045594 24.472861 
L 162.227668 24.386283 
L 162.276831 24.213128 
L 162.781179 24.126551 
L 162.781179 24.083262 
L 163.518739 23.996684 
L 163.524302 23.736952 
L 163.637717 23.736952 
L 163.637717 23.650374 
L 163.7474 23.520508 
L 163.893538 23.477219 
L 163.893538 23.43393 
L 163.893538 23.347353 
L 165.417185 23.260775 
L 165.49503 23.174198 
L 165.991174 23.08762 
L 165.991174 23.044332 
L 166.399791 22.957754 
L 166.399791 22.914465 
L 166.66123 22.871176 
L 166.66123 22.827888 
L 166.66123 22.784599 
L 166.85678 22.698021 
L 166.85678 22.611444 
L 167.628716 22.524866 
L 167.628716 22.395 
L 168.010309 22.395 
L 168.010309 22.308422 
L 168.074135 22.091979 
L 168.350219 22.005401 
L 168.350219 21.962112 
L 169.651326 21.875535 
L 169.739433 21.745668 
L 169.983746 21.659091 
L 170.012137 21.572513 
L 170.39343 21.572513 
L 170.39343 21.485936 
L 170.443471 21.399358 
L 170.709931 21.399358 
L 170.709931 21.312781 
L 170.788747 21.096337 
L 171.493917 21.009759 
L 171.515021 20.923182 
L 171.919235 20.836604 
L 171.919235 20.793316 
L 172.794702 20.706738 
L 172.794702 20.663449 
L 173.173047 20.576872 
L 173.173047 20.403717 
L 173.880059 20.317139 
L 173.978273 20.187273 
L 174.888618 20.100695 
L 174.888618 20.057406 
L 175.972659 19.970829 
L 175.972659 19.92754 
L 177.563337 19.840963 
L 177.563337 19.797674 
L 178.297706 19.754385 
L 178.297706 19.711096 
L 178.297706 19.58123 
L 178.646826 19.494652 
L 178.646826 19.408075 
L 179.297706 19.321497 
L 179.297706 19.278209 
L 180.499013 19.23492 
L 180.499013 19.191631 
L 180.499013 19.148342 
L 181.03139 19.061765 
L 181.09654 18.975187 
L 181.596322 18.931898 
L 181.596322 18.88861 
L 181.596322 18.802032 
L 182.663609 18.715455 
L 182.729572 18.585588 
L 183.389937 18.499011 
L 183.445722 18.325856 
L 184.110381 18.239278 
L 184.152288 18.109412 
L 184.766416 18.022834 
L 184.766416 17.936257 
L 185.44851 17.849679 
L 185.44851 17.80639 
L 186.415286 17.763102 
L 186.415286 17.719813 
L 186.415286 17.589947 
L 186.831427 17.503369 
L 186.831427 17.200348 
L 187.238461 17.11377 
L 187.238461 17.070481 
L 188.551657 16.983904 
L 188.551657 16.940615 
L 188.984198 16.854037 
L 188.984198 16.810749 
L 190.495658 16.724171 
L 190.495658 16.637594 
L 192.259349 16.551016 
L 192.259349 16.507727 
L 193.738062 16.42115 
L 193.738062 16.377861 
L 195.159977 16.291283 
L 195.159977 16.247995 
L 196.262012 16.204706 
L 196.262012 16.161417 
L 196.262012 16.031551 
L 198.466819 15.944973 
L 198.508226 15.858396 
L 198.793511 15.815107 
L 198.793511 15.771818 
L 198.793511 15.728529 
L 199.905148 15.641952 
L 199.905148 15.598663 
L 201.215451 15.598663 
L 201.215451 15.512086 
L 201.313078 15.252353 
L 202.537677 15.209064 
L 202.537677 15.165775 
" style="fill:none;stroke:#fc8d62;stroke-linecap:square;stroke-width:1.5;"/>
   </g>
   <g id="line2d_13">
    <path clip-path="url(#p6d4ed6449e)" d="M 44.675 176.2 
L 44.774431 176.066083 
L 44.90224 175.959683 
L 44.90224 175.956014 
L 45.00962 175.809256 
L 45.119913 175.699188 
L 45.228928 175.565271 
L 45.343804 175.458871 
L 45.343804 175.455202 
L 45.45451 175.312113 
L 45.537834 175.202044 
L 45.645022 175.0773 
L 45.740881 174.969065 
L 45.740881 174.967231 
L 45.85194 174.860831 
L 45.909411 174.750763 
L 46.017997 174.644363 
L 46.129138 174.545301 
L 46.129138 174.534294 
L 46.23854 174.394874 
L 46.32582 174.288474 
L 46.32582 174.284805 
L 46.434993 174.117868 
L 46.544256 174.007799 
L 46.655258 173.837193 
L 46.752041 173.730793 
L 46.752041 173.727124 
L 46.860241 173.584035 
L 46.992585 173.475801 
L 46.992585 173.473966 
L 47.103641 173.30336 
L 47.203569 173.193291 
L 47.313556 173.042864 
L 47.39642 172.932795 
L 47.507148 172.708989 
L 47.587687 172.600755 
L 47.587687 172.59892 
L 47.695458 172.450327 
L 47.789703 172.351266 
L 47.789703 172.340259 
L 47.895593 172.136632 
L 48.004258 172.026563 
L 48.114885 171.916494 
L 48.195308 171.806426 
L 48.302433 171.648661 
L 48.377149 171.538592 
L 48.488129 171.402841 
L 48.53867 171.292772 
L 48.644953 171.122166 
L 48.732025 171.012097 
L 48.842397 170.852497 
L 48.930292 170.742429 
L 49.040333 170.582829 
L 49.164161 170.47276 
L 49.27461 170.223271 
L 49.358593 170.116872 
L 49.358593 170.113203 
L 49.468207 169.926086 
L 49.555009 169.817852 
L 49.555009 169.816017 
L 49.664819 169.656418 
L 49.735305 169.548184 
L 49.735305 169.546349 
L 49.846306 169.395922 
L 49.910105 169.287688 
L 49.910105 169.285853 
L 50.020301 169.161109 
L 50.100557 169.05104 
L 50.210616 168.847413 
L 50.334557 168.737344 
L 50.443953 168.574076 
L 50.54476 168.464007 
L 50.655396 168.249373 
L 50.703498 168.139305 
L 50.813157 168.012726 
L 50.881814 167.902657 
L 50.992655 167.724713 
L 51.101801 167.614644 
L 51.206152 167.464217 
L 51.32021 167.354148 
L 51.426461 167.218397 
L 51.51356 167.108328 
L 51.624196 166.979915 
L 51.72269 166.869846 
L 51.833343 166.702909 
L 51.938188 166.59284 
L 52.045441 166.464427 
L 52.12713 166.354358 
L 52.237493 166.145227 
L 52.332052 166.035159 
L 52.442031 165.888401 
L 52.521227 165.778332 
L 52.630681 165.637077 
L 52.702762 165.528843 
L 52.702762 165.527008 
L 52.813032 165.312375 
L 52.887766 165.202306 
L 52.997672 165.029865 
L 53.074516 164.921631 
L 53.074516 164.919796 
L 53.180037 164.767535 
L 53.282933 164.657466 
L 53.391484 164.530887 
L 53.474299 164.420818 
L 53.584237 164.307081 
L 53.656883 164.198847 
L 53.656883 164.197012 
L 53.755 164.057592 
L 53.857988 163.947523 
L 53.967198 163.795261 
L 54.061216 163.692531 
L 54.061216 163.685193 
L 54.171141 163.547607 
L 54.251197 163.437538 
L 54.361763 163.257759 
L 54.459 163.147691 
L 54.567897 162.909209 
L 54.652204 162.79914 
L 54.762865 162.648713 
L 54.827429 162.540479 
L 54.827429 162.538644 
L 54.934272 162.346024 
L 55.022986 162.235955 
L 55.133797 162.102038 
L 55.200253 161.99197 
L 55.31063 161.825032 
L 55.41709 161.714964 
L 55.522774 161.606729 
L 55.613906 161.496661 
L 55.72379 161.364578 
L 55.823036 161.25451 
L 55.933529 161.0784 
L 56.002251 160.968331 
L 56.111982 160.839918 
L 56.199993 160.729849 
L 56.309224 160.553739 
L 56.372103 160.443671 
L 56.479925 160.256554 
L 56.571465 160.146485 
L 56.681212 159.990555 
L 56.735747 159.880486 
L 56.845887 159.709879 
L 56.912788 159.599811 
L 57.020385 159.487908 
L 57.101696 159.377839 
L 57.21091 159.265936 
L 57.286093 159.155867 
L 57.395174 158.96875 
L 57.479705 158.86602 
L 57.479705 158.858682 
L 57.583411 158.682572 
L 57.67558 158.572503 
L 57.784549 158.418407 
L 57.864468 158.308338 
L 57.975282 158.154242 
L 58.05091 158.046008 
L 58.05091 158.044174 
L 58.161546 157.864395 
L 58.210412 157.754326 
L 58.320698 157.620409 
L 58.418135 157.51401 
L 58.418135 157.510341 
L 58.524742 157.310383 
L 58.591489 157.200314 
L 58.700688 157.048052 
L 58.798431 156.937984 
L 58.906235 156.778384 
L 59.007562 156.668315 
L 59.117412 156.516054 
L 59.192601 156.418826 
L 59.192601 156.405985 
L 59.30233 156.239048 
L 59.328602 156.19502 
L 59.328602 156.128979 
L 59.438856 155.877655 
L 59.529422 155.767587 
L 59.63944 155.611656 
L 59.701223 155.503422 
L 59.701223 155.501587 
L 59.807886 155.279616 
L 59.860862 155.169547 
L 59.965635 154.993437 
L 60.037556 154.883368 
L 60.148198 154.716431 
L 60.221688 154.610031 
L 60.221688 154.606362 
L 60.331723 154.36788 
L 60.400596 154.272487 
L 60.400596 154.257812 
L 60.509295 154.109219 
L 60.621117 153.99915 
L 60.728289 153.815702 
L 60.812471 153.705634 
L 60.922997 153.525855 
L 60.999409 153.415786 
L 61.107884 153.296545 
L 61.153895 153.186477 
L 61.264806 153.021374 
L 61.343893 152.911305 
L 61.454203 152.748036 
L 61.510227 152.656312 
L 61.510227 152.637968 
L 61.617711 152.456354 
L 61.687323 152.349955 
L 61.687323 152.346286 
L 61.796368 152.162838 
L 61.837862 152.054604 
L 61.837862 152.052769 
L 61.947276 151.883997 
L 62.007667 151.773929 
L 62.118577 151.603322 
L 62.190875 151.493254 
L 62.301932 151.337323 
L 62.389568 151.227254 
L 62.500462 151.086 
L 62.56308 150.975931 
L 62.671183 150.779642 
L 62.741189 150.669573 
L 62.851476 150.493463 
L 62.937618 150.383395 
L 63.046468 150.187105 
L 63.115578 150.077037 
L 63.226273 149.95963 
L 63.305971 149.849561 
L 63.415144 149.669783 
L 63.504075 149.565217 
L 63.504075 149.559714 
L 63.615017 149.304722 
L 63.679036 149.194653 
L 63.788728 149.018543 
L 63.862318 148.910309 
L 63.862318 148.908474 
L 63.973365 148.745206 
L 64.039414 148.635137 
L 64.149316 148.43151 
L 64.228962 148.321442 
L 64.339925 148.171014 
L 64.429847 148.060946 
L 64.540808 147.840808 
L 64.602186 147.732574 
L 64.602186 147.73074 
L 64.711797 147.466575 
L 64.786384 147.356506 
L 64.895987 147.141872 
L 64.983048 147.031804 
L 65.09257 146.87037 
L 65.175661 146.78048 
L 65.175661 146.760301 
L 65.286662 146.573184 
L 65.346302 146.470453 
L 65.346302 146.463116 
L 65.457338 146.30535 
L 65.525564 146.197116 
L 65.525564 146.195282 
L 65.636205 146.035682 
L 65.711268 145.925614 
L 65.822228 145.756842 
L 65.903168 145.670621 
L 65.903168 145.646773 
L 66.013841 145.474332 
L 66.057879 145.367932 
L 66.057879 145.364263 
L 66.168298 145.188154 
L 66.228696 145.078085 
L 66.339703 144.885465 
L 66.388351 144.775396 
L 66.495862 144.630472 
L 66.541168 144.533245 
L 66.541168 144.520404 
L 66.65059 144.336956 
L 66.738903 144.226887 
L 66.850014 144.019591 
L 66.910029 143.909523 
L 67.020935 143.762764 
L 67.099985 143.65453 
L 67.099985 143.652696 
L 67.210673 143.458241 
L 67.274715 143.348172 
L 67.385394 143.142711 
L 67.472343 143.032642 
L 67.582836 142.81067 
L 67.661688 142.702436 
L 67.661688 142.700602 
L 67.769093 142.386906 
L 67.870987 142.276837 
L 67.981216 142.045693 
L 68.057884 141.935624 
L 68.168645 141.731997 
L 68.229998 141.621929 
L 68.340702 141.453157 
L 68.427435 141.343088 
L 68.537881 141.211006 
L 68.611937 141.108275 
L 68.611937 141.100937 
L 68.722282 140.840441 
L 68.792949 140.732207 
L 68.792949 140.730373 
L 68.899422 140.488221 
L 68.981312 140.381822 
L 68.981312 140.378153 
L 69.090675 140.209381 
L 69.155355 140.099312 
L 69.266369 139.969064 
L 69.339991 139.862665 
L 69.339991 139.858996 
L 69.450954 139.734251 
L 69.550056 139.624182 
L 69.658454 139.431562 
L 69.730204 139.323328 
L 69.730204 139.321494 
L 69.839886 139.097687 
L 69.933302 138.987619 
L 70.038802 138.82435 
L 70.128997 138.714282 
L 70.235966 138.573027 
L 70.30411 138.462958 
L 70.41477 138.303358 
L 70.502778 138.235483 
L 70.502778 138.19329 
L 70.612873 138.052035 
L 70.688323 137.941966 
L 70.799324 137.760353 
L 70.879191 137.652119 
L 70.879191 137.650284 
L 70.986618 137.487016 
L 71.091386 137.376947 
L 71.201557 137.221017 
L 71.274714 137.123789 
L 71.274714 137.110948 
L 71.383776 137.002714 
L 71.475817 136.892645 
L 71.586819 136.64866 
L 71.601208 136.538591 
L 71.710587 136.36615 
L 71.778059 136.256081 
L 71.888919 136.089144 
L 71.968987 135.979075 
L 72.07888 135.815807 
L 72.165528 135.705738 
L 72.273142 135.553476 
L 72.38241 135.443408 
L 72.493318 135.19025 
L 72.569254 135.098526 
L 72.569254 135.080181 
L 72.678791 134.711451 
L 72.749267 134.601382 
L 72.857716 134.472969 
L 72.930451 134.3629 
L 73.041114 134.195963 
L 73.136643 134.087729 
L 73.136643 134.085894 
L 73.244065 133.944639 
L 73.339159 133.841909 
L 73.339159 133.834571 
L 73.448904 133.663964 
L 73.527928 133.559399 
L 73.527928 133.553896 
L 73.636224 133.39613 
L 73.712312 133.286062 
L 73.821554 133.155814 
L 73.886478 133.045745 
L 73.996037 132.825608 
L 74.077394 132.715539 
L 74.188043 132.559609 
L 74.258442 132.460547 
L 74.258442 132.44954 
L 74.366106 132.308285 
L 74.461906 132.200051 
L 74.461906 132.198217 
L 74.569248 132.055127 
L 74.62578 131.946893 
L 74.62578 131.945059 
L 74.73654 131.730425 
L 74.800107 131.620356 
L 74.910198 131.42957 
L 74.998151 131.319502 
L 75.108854 131.148895 
L 75.180949 131.040661 
L 75.180949 131.038827 
L 75.290464 130.855379 
L 75.308937 130.765489 
L 75.308937 130.74531 
L 75.414048 130.427945 
L 75.489218 130.341725 
L 75.489218 130.317877 
L 75.596602 130.106912 
L 75.674084 130.006016 
L 75.674084 129.996843 
L 75.782509 129.883106 
L 75.848079 129.776706 
L 75.848079 129.773037 
L 75.956975 129.567575 
L 76.032338 129.457507 
L 76.1433 129.312583 
L 76.220055 129.202514 
L 76.329171 128.936515 
L 76.417361 128.826446 
L 76.528373 128.551275 
L 76.602351 128.441206 
L 76.710163 128.323799 
L 76.789226 128.219234 
L 76.789226 128.213731 
L 76.897183 128.072476 
L 76.983196 127.962407 
L 77.093107 127.560657 
L 77.134851 127.450588 
L 77.243726 127.201099 
L 77.341338 127.09103 
L 77.451442 126.900245 
L 77.538289 126.792011 
L 77.538289 126.790176 
L 77.647711 126.49666 
L 77.732507 126.386591 
L 77.843304 126.157281 
L 77.939918 126.049047 
L 77.939918 126.047213 
L 78.050002 125.871103 
L 78.151469 125.781213 
L 78.151469 125.761034 
L 78.261984 125.507876 
L 78.343346 125.397807 
L 78.451734 125.269394 
L 78.525135 125.16116 
L 78.525135 125.159325 
L 78.632178 125.043753 
L 78.721396 124.933685 
L 78.831454 124.794264 
L 78.949175 124.687865 
L 78.949175 124.684196 
L 79.057283 124.544775 
L 79.152549 124.434707 
L 79.262714 124.253093 
L 79.34332 124.143025 
L 79.454299 123.94857 
L 79.544015 123.838501 
L 79.655062 123.722929 
L 79.721111 123.664226 
L 79.721111 123.612861 
L 79.831386 123.480778 
L 79.904413 123.37071 
L 80.014218 123.214779 
L 80.121709 123.10471 
L 80.226724 122.989138 
L 80.297638 122.87907 
L 80.404376 122.695622 
L 80.501294 122.591056 
L 80.501294 122.585553 
L 80.610116 122.435126 
L 80.692746 122.325057 
L 80.800291 122.19114 
L 80.892457 122.081072 
L 80.999297 121.930645 
L 81.137474 121.820576 
L 81.245674 121.604107 
L 81.367424 121.494039 
L 81.477098 121.369294 
L 81.55383 121.259226 
L 81.661132 121.134481 
L 81.767205 121.026247 
L 81.767205 121.024412 
L 81.878062 120.877654 
L 81.93962 120.771255 
L 81.93962 120.767586 
L 82.049422 120.626331 
L 82.166921 120.516262 
L 82.275232 120.389683 
L 82.34514 120.279615 
L 82.454796 120.020953 
L 82.50498 119.920057 
L 82.50498 119.910884 
L 82.615125 119.756788 
L 82.696137 119.652223 
L 82.696137 119.64672 
L 82.805528 119.468775 
L 82.949496 119.358707 
L 83.058533 119.215617 
L 83.164185 119.109218 
L 83.164185 119.105549 
L 83.273981 118.94228 
L 83.373608 118.832212 
L 83.484486 118.62675 
L 83.500657 118.602902 
L 83.500657 118.516681 
L 83.609605 118.351578 
L 83.729616 118.24151 
L 83.838077 118.085579 
L 83.920606 117.97551 
L 84.029243 117.830587 
L 84.130583 117.722353 
L 84.130583 117.720518 
L 84.239415 117.555415 
L 84.329111 117.445346 
L 84.435161 117.217871 
L 84.517202 117.107802 
L 84.627432 116.968382 
L 84.731231 116.860148 
L 84.731231 116.858314 
L 84.839522 116.726231 
L 84.938194 116.617997 
L 84.938194 116.616162 
L 85.048228 116.399694 
L 85.123189 116.296963 
L 85.123189 116.289625 
L 85.226889 116.196067 
L 85.334693 116.093336 
L 85.334693 116.085998 
L 85.444921 115.928233 
L 85.503464 115.843847 
L 85.503464 115.818165 
L 85.614093 115.526483 
L 85.691795 115.420083 
L 85.691795 115.416414 
L 85.801805 115.291669 
L 85.890758 115.187104 
L 85.890758 115.181601 
L 86.000747 115.022001 
L 86.063493 114.911933 
L 86.174182 114.756002 
L 86.261462 114.671616 
L 86.261462 114.645933 
L 86.370942 114.513851 
L 86.455254 114.405617 
L 86.455254 114.403782 
L 86.563066 114.290045 
L 86.658117 114.179976 
L 86.766384 114.027714 
L 86.874951 113.917646 
L 86.985108 113.772722 
L 87.077105 113.671826 
L 87.077105 113.662653 
L 87.185713 113.539743 
L 87.250384 113.468199 
L 87.250384 113.429675 
L 87.360362 113.262737 
L 87.454873 113.152668 
L 87.561679 113.060945 
L 87.579839 113.046269 
L 87.579839 112.950876 
L 87.689148 112.772932 
L 87.792147 112.664697 
L 87.792147 112.662863 
L 87.901949 112.501429 
L 87.995629 112.39136 
L 88.106701 112.250105 
L 88.204891 112.154713 
L 88.204891 112.140037 
L 88.314878 111.833679 
L 88.416709 111.72361 
L 88.524669 111.6007 
L 88.642899 111.492466 
L 88.642899 111.490632 
L 88.748585 111.389735 
L 88.805811 111.342039 
L 88.805811 111.279667 
L 88.916725 111.154922 
L 89.033286 111.044853 
L 89.140748 110.887088 
L 89.252239 110.77702 
L 89.36194 110.639434 
L 89.454659 110.529365 
L 89.565 110.3716 
L 89.65955 110.270704 
L 89.65955 110.261531 
L 89.769301 110.153297 
L 89.874653 110.043229 
L 89.981973 109.918484 
L 90.084125 109.81025 
L 90.084125 109.808415 
L 90.193368 109.713023 
L 90.268377 109.602954 
L 90.378996 109.459865 
L 90.472412 109.355299 
L 90.472412 109.349796 
L 90.58151 109.17919 
L 90.670302 109.069121 
L 90.77947 108.88017 
L 90.869325 108.77377 
L 90.869325 108.770101 
L 90.974784 108.593991 
L 91.078847 108.483923 
L 91.189863 108.344502 
L 91.196788 108.326157 
L 91.196788 108.234434 
L 91.307274 108.050986 
L 91.404036 107.948255 
L 91.404036 107.940917 
L 91.51502 107.66758 
L 91.591673 107.557511 
L 91.70277 107.366726 
L 91.798726 107.258491 
L 91.798726 107.256657 
L 91.909369 107.073209 
L 92.001489 106.977816 
L 92.001489 106.96314 
L 92.101663 106.724658 
L 92.200201 106.61459 
L 92.309511 106.465997 
L 92.427782 106.357763 
L 92.427782 106.355928 
L 92.537983 106.179818 
L 92.631657 106.06975 
L 92.74008 105.937667 
L 92.835768 105.842275 
L 92.835768 105.827599 
L 92.943398 105.572606 
L 93.076839 105.466207 
L 93.076839 105.462538 
L 93.187425 105.368979 
L 93.27375 105.266249 
L 93.27375 105.258911 
L 93.383534 105.126828 
L 93.479606 105.018594 
L 93.479606 105.01676 
L 93.576109 104.895684 
L 93.675753 104.792953 
L 93.675753 104.785615 
L 93.785484 104.701229 
L 93.919744 104.591161 
L 94.027154 104.475589 
L 94.122718 104.36552 
L 94.227653 104.244444 
L 94.327884 104.149052 
L 94.327884 104.134376 
L 94.43883 103.945425 
L 94.508217 103.835356 
L 94.613266 103.728956 
L 94.717276 103.620722 
L 94.717276 103.618888 
L 94.826626 103.483136 
L 94.906581 103.373068 
L 95.015942 103.226309 
L 95.134489 103.116241 
L 95.244558 102.965813 
L 95.362058 102.855745 
L 95.470178 102.64478 
L 95.592057 102.534711 
L 95.699682 102.419139 
L 95.822403 102.310905 
L 95.822403 102.30907 
L 95.933039 102.15314 
L 95.946478 102.143967 
L 95.946478 102.043071 
L 96.051704 101.890809 
L 96.081911 101.866961 
L 96.081911 101.780741 
L 96.192671 101.569776 
L 96.267876 101.461542 
L 96.267876 101.459707 
L 96.377787 101.331294 
L 96.454861 101.224894 
L 96.454861 101.221225 
L 96.562972 101.067129 
L 96.662104 100.95706 
L 96.771039 100.815806 
L 96.915288 100.705737 
L 97.026098 100.547972 
L 97.102493 100.487434 
L 97.102493 100.437903 
L 97.210253 100.331503 
L 97.302338 100.221435 
L 97.412113 100.140718 
L 97.543789 100.030649 
L 97.650327 99.92058 
L 97.7549 99.812346 
L 97.7549 99.810512 
L 97.865765 99.680264 
L 97.946667 99.570195 
L 98.055737 99.427106 
L 98.168257 99.317037 
L 98.274681 99.205134 
L 98.377834 99.117079 
L 98.377834 99.095065 
L 98.484885 98.997838 
L 98.556087 98.893273 
L 98.556087 98.887769 
L 98.665931 98.742846 
L 98.797428 98.634611 
L 98.797428 98.632777 
L 98.904151 98.528212 
L 99.012124 98.418143 
L 99.12258 98.298902 
L 99.271839 98.188833 
L 99.381073 98.036572 
L 99.412781 98.005386 
L 99.412781 97.926503 
L 99.523629 97.801759 
L 99.626932 97.697193 
L 99.626932 97.69169 
L 99.737932 97.550435 
L 99.831339 97.444035 
L 99.831339 97.440366 
L 99.938199 97.343139 
L 100.050088 97.234905 
L 100.050088 97.23307 
L 100.160225 97.080809 
L 100.221772 96.97074 
L 100.330388 96.86434 
L 100.441602 96.754272 
L 100.55116 96.587334 
L 100.629194 96.477266 
L 100.739685 96.332342 
L 100.801423 96.224108 
L 100.801423 96.222273 
L 100.912033 96.095694 
L 101.03336 95.98746 
L 101.03336 95.985626 
L 101.14276 95.84804 
L 101.213193 95.754481 
L 101.213193 95.737971 
L 101.319473 95.629737 
L 101.464913 95.519668 
L 101.575298 95.391255 
L 101.720425 95.283021 
L 101.720425 95.281186 
L 101.828835 95.145435 
L 101.918939 95.062883 
L 101.918939 95.035366 
L 102.02875 94.851918 
L 102.16666 94.743684 
L 102.16666 94.74185 
L 102.274833 94.593257 
L 102.370672 94.486857 
L 102.370672 94.483188 
L 102.481543 94.33643 
L 102.620038 94.226361 
L 102.728471 94.066762 
L 102.818535 93.956693 
L 102.926835 93.852128 
L 103.028914 93.742059 
L 103.138278 93.619149 
L 103.236725 93.509081 
L 103.347811 93.391674 
L 103.462478 93.285274 
L 103.462478 93.281605 
L 103.572903 93.178875 
L 103.63646 93.076144 
L 103.63646 93.068806 
L 103.745486 92.938558 
L 103.815844 92.830324 
L 103.815844 92.828489 
L 103.925053 92.694572 
L 104.017252 92.584504 
L 104.122373 92.47627 
L 104.249446 92.368035 
L 104.249446 92.366201 
L 104.359167 92.217608 
L 104.39147 92.182753 
L 104.39147 92.10754 
L 104.500465 91.999305 
L 104.593156 91.889237 
L 104.702663 91.775499 
L 104.763244 91.667265 
L 104.763244 91.66543 
L 104.873448 91.520507 
L 104.947293 91.415941 
L 104.947293 91.410438 
L 105.057208 91.293031 
L 105.158456 91.184797 
L 105.158456 91.182963 
L 105.267212 91.08757 
L 105.32858 90.977501 
L 105.438855 90.845419 
L 105.523475 90.740854 
L 105.523475 90.73535 
L 105.62845 90.597764 
L 105.712782 90.487696 
L 105.821455 90.351944 
L 105.890518 90.274896 
L 105.890518 90.241876 
L 105.999264 89.878649 
L 106.099191 89.774084 
L 106.099191 89.76858 
L 106.209825 89.691532 
L 106.338038 89.586967 
L 106.338038 89.581464 
L 106.437769 89.508085 
L 106.550127 89.398016 
L 106.660161 89.245754 
L 106.749916 89.146693 
L 106.749916 89.135686 
L 106.859228 88.959576 
L 106.941423 88.849507 
L 107.051199 88.755949 
L 107.147856 88.64588 
L 107.258405 88.515632 
L 107.366148 88.405563 
L 107.473839 88.291826 
L 107.569305 88.183592 
L 107.569305 88.181757 
L 107.678688 87.96162 
L 107.749511 87.851551 
L 107.860524 87.734145 
L 107.980168 87.627745 
L 107.980168 87.624076 
L 108.088668 87.458973 
L 108.173682 87.348904 
L 108.282574 87.156284 
L 108.371536 87.046215 
L 108.482624 86.85543 
L 108.614122 86.758202 
L 108.614122 86.745361 
L 108.723779 86.605941 
L 108.793636 86.495872 
L 108.903336 86.387638 
L 108.985784 86.305086 
L 108.985784 86.277569 
L 109.089058 86.154659 
L 109.175325 86.044591 
L 109.285138 85.90517 
L 109.390801 85.795102 
L 109.501132 85.663019 
L 109.595917 85.560288 
L 109.595917 85.552951 
L 109.703934 85.386013 
L 109.829085 85.275944 
L 109.938459 85.164041 
L 110.004268 85.057642 
L 110.004268 85.053973 
L 110.113618 84.806318 
L 110.190757 84.699918 
L 110.190757 84.696249 
L 110.297897 84.56967 
L 110.388187 84.461436 
L 110.388187 84.459602 
L 110.497165 84.281657 
L 110.559735 84.171589 
L 110.670484 84.039506 
L 110.783994 83.933107 
L 110.783994 83.929438 
L 110.891596 83.797355 
L 110.975277 83.687287 
L 111.08504 83.573549 
L 111.157197 83.474487 
L 111.157197 83.46348 
L 111.267736 83.335067 
L 111.391078 83.224998 
L 111.490226 83.122268 
L 111.615101 83.012199 
L 111.725637 82.859937 
L 111.787581 82.810406 
L 111.787581 82.749869 
L 111.894533 82.520559 
L 111.996071 82.412325 
L 111.996071 82.41049 
L 112.10551 82.305925 
L 112.18483 82.199525 
L 112.18483 82.195856 
L 112.293998 82.028919 
L 112.395063 81.939029 
L 112.395063 81.91885 
L 112.505337 81.750078 
L 112.585656 81.641844 
L 112.585656 81.64001 
L 112.694766 81.484079 
L 112.810654 81.37401 
L 112.920768 81.282286 
L 113.053131 81.172218 
L 113.161981 81.051142 
L 113.227179 80.985101 
L 113.227179 80.941073 
L 113.336678 80.781474 
L 113.458735 80.671405 
L 113.568094 80.542992 
L 113.662885 80.438427 
L 113.662885 80.432923 
L 113.77255 80.271489 
L 113.883489 80.166924 
L 113.883489 80.16142 
L 113.993137 80.029338 
L 114.111997 79.919269 
L 114.222576 79.768842 
L 114.306678 79.658774 
L 114.41488 79.534029 
L 114.543005 79.42396 
L 114.65373 79.32123 
L 114.767222 79.222168 
L 114.767222 79.211161 
L 114.872888 79.016706 
L 114.986575 78.906638 
L 115.09704 78.690169 
L 115.184836 78.580101 
L 115.293598 78.457191 
L 115.398166 78.348956 
L 115.398166 78.347122 
L 115.508959 78.143495 
L 115.62317 78.033426 
L 115.730315 77.906847 
L 115.784577 77.800448 
L 115.784577 77.796779 
L 115.893824 77.668365 
L 115.984072 77.558297 
L 116.094355 77.426214 
L 116.183585 77.31798 
L 116.183585 77.316145 
L 116.293012 77.224422 
L 116.36682 77.114353 
L 116.475323 76.963926 
L 116.560113 76.855692 
L 116.560113 76.853857 
L 116.67105 76.729113 
L 116.756945 76.619044 
L 116.863309 76.516313 
L 116.956858 76.406244 
L 117.065839 76.266824 
L 117.209645 76.156756 
L 117.317049 76.008163 
L 117.440391 75.899929 
L 117.440391 75.898094 
L 117.549049 75.755005 
L 117.624528 75.654109 
L 117.624528 75.644936 
L 117.733218 75.56055 
L 117.832455 75.459654 
L 117.832455 75.450482 
L 117.942489 75.311061 
L 118.015366 75.213834 
L 118.015366 75.200993 
L 118.123202 75.070745 
L 118.200453 74.960676 
L 118.299893 74.883628 
L 118.322484 74.835932 
L 118.322484 74.773559 
L 118.433375 74.56076 
L 118.508283 74.450691 
L 118.618429 74.318609 
L 118.710705 74.20854 
L 118.81425 74.008582 
L 118.914908 73.898513 
L 119.025949 73.803121 
L 119.12444 73.70039 
L 119.12444 73.693052 
L 119.232383 73.584818 
L 119.311845 73.478418 
L 119.311845 73.474749 
L 119.42176 73.31148 
L 119.564902 73.201412 
L 119.675981 73.052819 
L 119.74911 72.946419 
L 119.74911 72.94275 
L 119.859046 72.746461 
L 119.981354 72.640062 
L 119.981354 72.636393 
L 120.088433 72.469455 
L 120.135363 72.432766 
L 120.135363 72.359387 
L 120.241106 72.17227 
L 120.362567 72.062201 
L 120.470258 71.966808 
L 120.573593 71.85674 
L 120.683674 71.660451 
L 120.765299 71.550382 
L 120.87404 71.39812 
L 120.960207 71.288052 
L 121.068741 71.121114 
L 121.139948 71.01288 
L 121.139948 71.011045 
L 121.246384 70.83677 
L 121.350115 70.726701 
L 121.46013 70.552426 
L 121.561953 70.442357 
L 121.672597 70.288261 
L 121.774257 70.187365 
L 121.774257 70.178192 
L 121.884802 70.047945 
L 121.975332 69.937876 
L 122.08628 69.811297 
L 122.175544 69.703063 
L 122.175544 69.701228 
L 122.284771 69.594829 
L 122.399244 69.490263 
L 122.399244 69.48476 
L 122.509221 69.363684 
L 122.638404 69.259119 
L 122.638404 69.253616 
L 122.74799 69.121533 
L 122.809668 69.011465 
L 122.91233 68.901396 
L 122.993821 68.791327 
L 123.102206 68.675755 
L 123.178157 68.567521 
L 123.178157 68.565687 
L 123.282269 68.453783 
L 123.425521 68.343715 
L 123.535098 68.196957 
L 123.641435 68.086888 
L 123.750934 67.954805 
L 123.853715 67.844737 
L 123.963719 67.675965 
L 124.044041 67.565896 
L 124.153811 67.433814 
L 124.245509 67.336586 
L 124.245509 67.323745 
L 124.35343 67.200835 
L 124.464441 67.090766 
L 124.575368 66.975194 
L 124.682957 66.86696 
L 124.682957 66.865126 
L 124.793915 66.734878 
L 124.87261 66.626644 
L 124.87261 66.624809 
L 124.983201 66.457872 
L 125.073586 66.35881 
L 125.073586 66.347803 
L 125.181531 66.223058 
L 125.279423 66.116659 
L 125.279423 66.11299 
L 125.389846 65.947887 
L 125.48983 65.837818 
L 125.598111 65.676384 
L 125.728528 65.566315 
L 125.835082 65.441571 
L 125.954955 65.331502 
L 126.04955 65.19942 
L 126.217806 65.089351 
L 126.325839 64.902234 
L 126.355055 64.794 
L 126.355055 64.792166 
L 126.46342 64.526167 
L 126.549881 64.419767 
L 126.549881 64.416098 
L 126.657061 64.219809 
L 126.786333 64.10974 
L 126.89401 63.997837 
L 126.950435 63.915285 
L 126.950435 63.887768 
L 127.060801 63.742845 
L 127.200775 63.647452 
L 127.200775 63.632776 
L 127.307163 63.509866 
L 127.410014 63.399797 
L 127.519921 63.12646 
L 127.625228 63.018226 
L 127.625228 63.016391 
L 127.733731 62.913661 
L 127.803281 62.854957 
L 127.803281 62.803592 
L 127.910896 62.592627 
L 128.015816 62.484393 
L 128.015816 62.482558 
L 128.122951 62.332131 
L 128.214565 62.222062 
L 128.325528 62.022104 
L 128.427171 61.912036 
L 128.535993 61.772615 
L 128.628283 61.664381 
L 128.628283 61.662547 
L 128.729985 61.51212 
L 128.804519 61.409389 
L 128.804519 61.402051 
L 128.910172 61.214934 
L 129.003431 61.104866 
L 129.110994 61.002135 
L 129.201672 60.892066 
L 129.312673 60.780163 
L 129.44149 60.671929 
L 129.44149 60.670094 
L 129.550606 60.56186 
L 129.637824 60.451791 
L 129.744556 60.327047 
L 129.846458 60.227985 
L 129.846458 60.216978 
L 129.957483 60.114248 
L 130.01228 60.006013 
L 130.01228 60.004179 
L 130.11945 59.785876 
L 130.21574 59.675807 
L 130.324843 59.512539 
L 130.396224 59.40247 
L 130.506717 59.272222 
L 130.57676 59.171326 
L 130.57676 59.162154 
L 130.687227 59.024568 
L 130.769213 58.920002 
L 130.769213 58.914499 
L 130.868514 58.751231 
L 130.959751 58.672348 
L 130.959751 58.641162 
L 131.067965 58.492569 
L 131.156976 58.382501 
L 131.267963 58.261425 
L 131.348374 58.151356 
L 131.458151 58.044957 
L 131.520921 57.999095 
L 131.520921 57.934888 
L 131.628842 57.654213 
L 131.739696 57.547813 
L 131.739696 57.544144 
L 131.848071 57.428572 
L 131.963129 57.320338 
L 131.963129 57.318503 
L 132.068319 57.180918 
L 132.179237 57.072683 
L 132.179237 57.070849 
L 132.289835 56.969953 
L 132.448669 56.859884 
L 132.556041 56.758988 
L 132.660369 56.648919 
L 132.769662 56.527843 
L 132.827156 56.425113 
L 132.827156 56.417775 
L 132.932509 56.316879 
L 133.0002 56.20681 
L 133.102544 56.012355 
L 133.178802 55.90779 
L 133.178802 55.902287 
L 133.2897 55.799556 
L 133.379143 55.693156 
L 133.379143 55.689487 
L 133.487957 55.496867 
L 133.599057 55.386798 
L 133.706704 55.278564 
L 133.762088 55.179502 
L 133.762088 55.168495 
L 133.865096 54.948358 
L 133.937258 54.838289 
L 134.04143 54.711711 
L 134.151445 54.601642 
L 134.25325 54.489739 
L 134.331544 54.381505 
L 134.331544 54.37967 
L 134.438998 54.265932 
L 134.532234 54.155864 
L 134.643116 53.983423 
L 134.711244 53.884361 
L 134.711244 53.873354 
L 134.815578 53.715589 
L 134.905438 53.6257 
L 134.905438 53.60552 
L 135.015709 53.427576 
L 135.106604 53.317507 
L 135.214856 53.207439 
L 135.377918 53.099205 
L 135.377918 53.09737 
L 135.484883 52.994639 
L 135.58488 52.884571 
L 135.693533 52.724971 
L 135.761164 52.646089 
L 135.761164 52.614902 
L 135.866243 52.442462 
L 135.957136 52.332393 
L 136.067568 52.156283 
L 136.183037 52.048049 
L 136.183037 52.046214 
L 136.292306 51.919635 
L 136.430253 51.809567 
L 136.540537 51.657305 
L 136.679986 51.547236 
L 136.787746 51.426161 
L 136.852408 51.330768 
L 136.852408 51.316092 
L 136.96021 51.163831 
L 137.033583 51.068438 
L 137.033583 51.053762 
L 137.142764 50.886824 
L 137.202621 50.77859 
L 137.202621 50.776756 
L 137.31332 50.657515 
L 137.377476 50.551115 
L 137.377476 50.547446 
L 137.487211 50.415364 
L 137.611135 50.312633 
L 137.611135 50.305295 
L 137.720673 50.208068 
L 137.831424 50.097999 
L 137.942398 49.997103 
L 138.001568 49.890703 
L 138.001568 49.887034 
L 138.112325 49.754952 
L 138.242909 49.644883 
L 138.346694 49.540318 
L 138.506877 49.430249 
L 138.617508 49.325684 
L 138.736677 49.215615 
L 138.846027 49.067022 
L 138.952754 48.956954 
L 139.062456 48.837713 
L 139.13284 48.727644 
L 139.240061 48.623079 
L 139.343291 48.516679 
L 139.343291 48.51301 
L 139.451994 48.413948 
L 139.523581 48.30388 
L 139.634195 48.188308 
L 139.751661 48.080073 
L 139.751661 48.078239 
L 139.858409 47.96817 
L 139.968852 47.858102 
L 140.076056 47.753536 
L 140.150646 47.659978 
L 140.150646 47.643468 
L 140.255463 47.362793 
L 140.308767 47.252724 
L 140.414103 47.162835 
L 140.53879 47.0546 
L 140.53879 47.052766 
L 140.64764 46.887663 
L 140.689242 46.784932 
L 140.689242 46.777594 
L 140.798465 46.559291 
L 140.886877 46.47674 
L 140.886877 46.449223 
L 140.997878 46.289623 
L 141.112819 46.179554 
L 141.223093 46.080493 
L 141.336459 45.970424 
L 141.445942 45.834673 
L 141.552481 45.730107 
L 141.552481 45.724604 
L 141.663029 45.610866 
L 141.778533 45.500798 
L 141.885986 45.388895 
L 142.010416 45.28066 
L 142.010416 45.278826 
L 142.121178 45.139406 
L 142.252882 45.033006 
L 142.252882 45.029337 
L 142.363668 44.908261 
L 142.4205 44.807365 
L 142.4205 44.798193 
L 142.528947 44.678952 
L 142.642278 44.568883 
L 142.746851 44.467987 
L 142.835649 44.357918 
L 142.940332 44.225836 
L 143.061873 44.145119 
L 143.061873 44.115767 
L 143.171193 43.983685 
L 143.3248 43.873616 
L 143.434101 43.781892 
L 143.522043 43.68283 
L 143.522043 43.671823 
L 143.631899 43.558086 
L 143.725173 43.457189 
L 143.725173 43.448017 
L 143.827961 43.328776 
L 143.904573 43.270073 
L 143.904573 43.218707 
L 144.011057 43.042598 
L 144.12981 42.932529 
L 144.240806 42.826129 
L 144.335513 42.71606 
L 144.444274 42.618833 
L 144.586436 42.508764 
L 144.697067 42.378517 
L 144.857121 42.268448 
L 144.965101 42.163883 
L 145.106602 42.055648 
L 145.106602 42.053814 
L 145.217393 41.949249 
L 145.355001 41.83918 
L 145.462839 41.705263 
L 145.599964 41.595195 
L 145.71051 41.496133 
L 145.815149 41.386064 
L 145.925444 41.272326 
L 146.02683 41.162258 
L 146.132925 41.046686 
L 146.200307 40.936617 
L 146.311313 40.806369 
L 146.395354 40.6963 
L 146.496679 40.588066 
L 146.591808 40.479832 
L 146.591808 40.477998 
L 146.699138 40.40095 
L 146.815623 40.290881 
L 146.923355 40.175309 
L 147.046052 40.06524 
L 147.157001 39.975351 
L 147.235018 39.867117 
L 147.235018 39.865282 
L 147.343783 39.782731 
L 147.508896 39.674496 
L 147.508896 39.672662 
L 147.619989 39.547917 
L 147.751497 39.439683 
L 147.751497 39.437849 
L 147.859303 39.335118 
L 148.019549 39.225049 
L 148.127816 39.096636 
L 148.275444 38.986567 
L 148.381977 38.896678 
L 148.452151 38.790278 
L 148.452151 38.786609 
L 148.558657 38.588486 
L 148.689055 38.480251 
L 148.689055 38.478417 
L 148.791867 38.311479 
L 148.936764 38.201411 
L 149.043534 38.124363 
L 149.188767 38.014294 
L 149.298278 37.913398 
L 149.383026 37.803329 
L 149.492311 37.687757 
L 149.630693 37.581357 
L 149.630693 37.577688 
L 149.741463 37.465785 
L 149.869233 37.355716 
L 149.979379 37.267662 
L 150.095534 37.157593 
L 150.201966 37.084214 
L 150.332502 36.974145 
L 150.435246 36.911773 
L 150.563407 36.801704 
L 150.665161 36.664118 
L 150.739083 36.55405 
L 150.846395 36.387112 
L 151.003055 36.277044 
L 151.110629 36.060575 
L 151.25118 35.954175 
L 151.25118 35.950506 
L 151.354581 35.856948 
L 151.502875 35.748714 
L 151.502875 35.746879 
L 151.613726 35.532246 
L 151.711961 35.424011 
L 151.711961 35.422177 
L 151.822638 35.282757 
L 151.932707 35.172688 
L 152.041677 35.064454 
L 152.195656 34.954385 
L 152.29817 34.838813 
L 152.403175 34.728744 
L 152.513064 34.615007 
L 152.6441 34.504938 
L 152.751847 34.394869 
L 152.850232 34.297642 
L 152.850232 34.284801 
L 152.960357 34.185739 
L 153.087582 34.07567 
L 153.196227 33.978443 
L 153.301672 33.879381 
L 153.301672 33.868374 
L 153.411102 33.798664 
L 153.560295 33.688595 
L 153.669007 33.571189 
L 153.766556 33.46112 
L 153.860361 33.384072 
L 153.994297 33.286845 
L 153.994297 33.274003 
L 154.102859 33.173107 
L 154.247802 33.064873 
L 154.247802 33.063039 
L 154.3442 32.980487 
L 154.504457 32.872253 
L 154.504457 32.870418 
L 154.614339 32.775025 
L 154.757293 32.666791 
L 154.757293 32.664957 
L 154.866798 32.54755 
L 155.023893 32.437482 
L 155.127418 32.257703 
L 155.248442 32.147634 
L 155.352891 32.008214 
L 155.492405 31.89998 
L 155.492405 31.898145 
L 155.598018 31.811925 
L 155.768544 31.742215 
L 155.768544 31.701856 
L 155.877511 31.657829 
L 156.007039 31.54776 
L 156.114142 31.377153 
L 156.213457 31.268919 
L 156.213457 31.267085 
L 156.31368 31.197375 
L 156.48068 31.08914 
L 156.48068 31.087306 
L 156.575188 30.958893 
L 156.785899 30.848824 
L 156.893727 30.775445 
L 157.04442 30.665376 
L 157.153859 30.58099 
L 157.271815 30.470921 
L 157.378229 30.414053 
L 157.527887 30.303984 
L 157.637919 30.179239 
L 157.807564 30.069171 
L 157.913371 29.995792 
L 158.043195 29.885723 
L 158.150866 29.792165 
L 158.345451 29.685765 
L 158.345451 29.682096 
L 158.453822 29.595876 
L 158.565548 29.487641 
L 158.565548 29.485807 
L 158.658522 29.399586 
L 158.805443 29.291352 
L 158.805443 29.289518 
L 158.912839 29.206966 
L 159.087076 29.098732 
L 159.087076 29.096898 
L 159.197712 28.961146 
L 159.344461 28.851078 
L 159.454163 28.706154 
L 159.622664 28.599754 
L 159.622664 28.596085 
L 159.733452 28.476844 
L 159.765036 28.45483 
L 159.765036 28.366775 
L 159.873587 28.225521 
L 159.987096 28.117286 
L 159.987096 28.115452 
L 160.096622 28.056749 
L 160.219092 27.950349 
L 160.219092 27.94668 
L 160.323725 27.867797 
L 160.557457 27.757729 
L 160.667436 27.66417 
L 160.862661 27.554102 
L 160.967497 27.497233 
L 161.204277 27.388999 
L 161.204277 27.387164 
L 161.315014 27.319289 
L 161.410683 27.223896 
L 161.410683 27.20922 
L 161.498539 27.121165 
L 161.708527 27.0166 
L 161.708527 27.011096 
L 161.812848 26.866173 
L 162.012197 26.756104 
L 162.119425 26.702904 
L 162.274813 26.592835 
L 162.383905 26.515787 
L 162.495359 26.438739 
L 162.495359 26.405719 
L 162.59944 26.297485 
L 162.860731 26.187416 
L 162.968499 26.11954 
L 163.159656 26.009472 
L 163.264824 25.923251 
L 163.376989 25.816851 
L 163.376989 25.813182 
L 163.479442 25.747141 
L 163.699927 25.637073 
L 163.80542 25.578369 
L 164.020344 25.470135 
L 164.020344 25.468301 
L 164.129577 25.411432 
L 164.254728 25.301363 
L 164.358784 25.246329 
L 164.544328 25.138095 
L 164.544328 25.13626 
L 164.655329 25.035364 
L 164.859036 24.930799 
L 164.859036 24.925295 
L 164.967765 24.862923 
L 165.217223 24.752854 
L 165.327555 24.66113 
L 165.589891 24.551062 
L 165.697858 24.450165 
L 165.914625 24.354773 
L 165.914625 24.340097 
L 166.021406 24.272221 
L 166.247811 24.163987 
L 166.247811 24.162152 
L 166.35467 24.112622 
L 166.551955 24.002553 
L 166.654553 23.942015 
L 166.89642 23.831946 
L 167.005909 23.762236 
L 167.196067 23.652168 
L 167.304909 23.60814 
L 167.449215 23.498071 
L 167.559025 23.43203 
L 167.731378 23.331134 
L 167.731378 23.321962 
L 167.838694 23.274265 
L 168.108498 23.164197 
L 168.217071 23.08348 
L 168.32274 23.002762 
L 168.32274 22.973411 
L 168.429521 22.872515 
L 168.64831 22.777122 
L 168.64831 22.762446 
L 168.758153 22.652377 
L 168.927159 22.544143 
L 168.927159 22.542309 
L 169.027044 22.456088 
L 169.235897 22.346019 
L 169.34164 22.298323 
L 169.633206 22.190089 
L 169.633206 22.188254 
L 169.73615 22.125882 
L 169.94085 22.017648 
L 169.94085 22.015813 
L 170.049968 21.933262 
L 170.147401 21.832366 
L 170.147401 21.823193 
L 170.257784 21.777331 
L 170.541234 21.667263 
L 170.649948 21.619566 
L 170.931853 21.509498 
L 171.041501 21.421443 
L 171.284482 21.318712 
L 171.284482 21.311374 
L 171.392091 21.241664 
L 171.621163 21.131595 
L 171.728376 21.069223 
L 171.971875 20.962823 
L 171.971875 20.959154 
L 172.080492 20.913292 
L 172.377989 20.805058 
L 172.377989 20.803224 
L 172.488183 20.761031 
L 172.746944 20.652796 
L 172.746944 20.650962 
L 172.85163 20.606935 
L 173.097863 20.496866 
L 173.197378 20.471183 
L 173.63785 20.361115 
L 173.739873 20.276729 
L 174.109474 20.168494 
L 174.109474 20.16666 
L 174.20521 20.135474 
L 174.565308 20.030909 
L 174.565308 20.025405 
L 174.659316 20.003391 
L 174.971421 19.893323 
L 175.080994 19.825447 
L 175.337549 19.715378 
L 175.441134 19.673185 
L 175.735353 19.563117 
L 175.840301 19.491572 
L 176.173897 19.381503 
L 176.269205 19.337476 
L 176.591044 19.229242 
L 176.591044 19.227407 
L 176.699512 19.177876 
L 176.907205 19.067808 
L 177.01276 19.049463 
L 177.328109 18.939394 
L 177.436812 18.902705 
L 177.853908 18.792636 
L 177.947218 18.765119 
L 178.267064 18.664223 
L 178.267064 18.65505 
L 178.369011 18.614692 
L 178.665304 18.51563 
L 178.665304 18.504623 
L 178.768919 18.467933 
L 179.094568 18.390885 
L 179.094568 18.357865 
L 179.202791 18.313837 
L 179.430287 18.212941 
L 179.430287 18.203769 
L 179.511043 18.154238 
L 179.851634 18.044169 
L 179.954823 18.016652 
L 180.345033 17.906583 
L 180.441538 17.849714 
L 180.76558 17.74148 
L 180.76558 17.739646 
L 180.81994 17.715798 
L 181.220403 17.605729 
L 181.328094 17.550695 
L 181.854946 17.440626 
L 181.962706 17.411274 
L 182.487285 17.301206 
L 182.591762 17.275523 
L 183.254203 17.169123 
L 183.254203 17.165454 
L 183.36282 17.152613 
L 183.866633 17.044379 
L 183.866633 17.042544 
L 183.964539 17.022365 
L 184.972178 16.912296 
L 185.079434 16.886614 
L 185.770475 16.782048 
L 185.770475 16.776545 
L 185.837441 16.74169 
L 186.571386 16.633456 
L 186.571386 16.631621 
L 186.65306 16.605939 
L 188.059686 16.49587 
L 188.165252 16.450008 
L 189.175843 16.343608 
L 189.175843 16.339939 
L 189.279066 16.325263 
L 190.005664 16.259222 
L 190.005664 16.215195 
L 190.089236 16.202353 
L 191.491064 16.097788 
L 191.491064 16.092285 
L 191.581271 16.070271 
L 191.610905 16.070271 
L 191.610905 15.960202 
L 191.71274 15.767582 
L 192.82396 15.659348 
L 192.82396 15.657514 
L 192.934797 15.648341 
L 194.002482 15.538272 
L 194.060785 15.527266 
L 196.371074 15.419031 
L 196.371074 15.417197 
L 196.447277 15.411694 
L 197.971046 15.301625 
L 198.062035 15.296121 
L 199.798366 15.186053 
L 199.863648 15.182384 
L 202.055352 15.077819 
L 202.055352 15.072315 
L 202.14581 15.063143 
L 202.494107 15.061308 
L 202.494107 15.059474 
" style="fill:none;stroke:#66c2a5;stroke-linecap:square;stroke-width:1.5;"/>
   </g>
   <g id="patch_3">
    <path d="M 44.675 176.2 
L 44.675 14.3 
" style="fill:none;stroke:#000000;stroke-linecap:square;stroke-linejoin:miter;stroke-width:0.8;"/>
   </g>
   <g id="patch_4">
    <path d="M 44.675 176.2 
L 202.3825 176.2 
" style="fill:none;stroke:#000000;stroke-linecap:square;stroke-linejoin:miter;stroke-width:0.8;"/>
   </g>
  </g>
  <g id="legend_1">
   <g id="text_14">
    <!-- farFromEquil -->
    <g transform="translate(215.517188 96.500781)scale(0.1 -0.1)">
     <defs>
      <path d="M 40.4375 6.390625 
Q 35.546875 2.25 31.03125 0.53125 
Q 26.515625 -1.171875 21.34375 -1.171875 
Q 12.796875 -1.171875 8.203125 3 
Q 3.609375 7.171875 3.609375 13.671875 
Q 3.609375 17.484375 5.34375 20.625 
Q 7.078125 23.78125 9.890625 25.6875 
Q 12.703125 27.59375 16.21875 28.5625 
Q 18.796875 29.25 24.03125 29.890625 
Q 34.671875 31.15625 39.703125 32.90625 
Q 39.75 34.71875 39.75 35.203125 
Q 39.75 40.578125 37.25 42.78125 
Q 33.890625 45.75 27.25 45.75 
Q 21.046875 45.75 18.09375 43.578125 
Q 15.140625 41.40625 13.71875 35.890625 
L 5.125 37.0625 
Q 6.296875 42.578125 8.984375 45.96875 
Q 11.671875 49.359375 16.75 51.1875 
Q 21.828125 53.03125 28.515625 53.03125 
Q 35.15625 53.03125 39.296875 51.46875 
Q 43.453125 49.90625 45.40625 47.53125 
Q 47.359375 45.171875 48.140625 41.546875 
Q 48.578125 39.3125 48.578125 33.453125 
L 48.578125 21.734375 
Q 48.578125 9.46875 49.140625 6.21875 
Q 49.703125 2.984375 51.375 0 
L 42.1875 0 
Q 40.828125 2.734375 40.4375 6.390625 
z
M 39.703125 26.03125 
Q 34.90625 24.078125 25.34375 22.703125 
Q 19.921875 21.921875 17.671875 20.9375 
Q 15.4375 19.96875 14.203125 18.09375 
Q 12.984375 16.21875 12.984375 13.921875 
Q 12.984375 10.40625 15.640625 8.0625 
Q 18.3125 5.71875 23.4375 5.71875 
Q 28.515625 5.71875 32.46875 7.9375 
Q 36.421875 10.15625 38.28125 14.015625 
Q 39.703125 17 39.703125 22.796875 
z
" id="ArialMT-97"/>
      <path d="M 8.203125 0 
L 8.203125 71.578125 
L 56.5 71.578125 
L 56.5 63.140625 
L 17.671875 63.140625 
L 17.671875 40.96875 
L 51.265625 40.96875 
L 51.265625 32.515625 
L 17.671875 32.515625 
L 17.671875 0 
z
" id="ArialMT-70"/>
      <path d="M 6.59375 0 
L 6.59375 51.859375 
L 14.453125 51.859375 
L 14.453125 44.578125 
Q 16.890625 48.390625 20.9375 50.703125 
Q 25 53.03125 30.171875 53.03125 
Q 35.9375 53.03125 39.625 50.640625 
Q 43.3125 48.25 44.828125 43.953125 
Q 50.984375 53.03125 60.84375 53.03125 
Q 68.5625 53.03125 72.703125 48.75 
Q 76.859375 44.484375 76.859375 35.59375 
L 76.859375 0 
L 68.109375 0 
L 68.109375 32.671875 
Q 68.109375 37.9375 67.25 40.25 
Q 66.40625 42.578125 64.15625 43.984375 
Q 61.921875 45.40625 58.890625 45.40625 
Q 53.421875 45.40625 49.796875 41.765625 
Q 46.1875 38.140625 46.1875 30.125 
L 46.1875 0 
L 37.40625 0 
L 37.40625 33.6875 
Q 37.40625 39.546875 35.25 42.46875 
Q 33.109375 45.40625 28.21875 45.40625 
Q 24.515625 45.40625 21.359375 43.453125 
Q 18.21875 41.5 16.796875 37.734375 
Q 15.375 33.984375 15.375 26.90625 
L 15.375 0 
z
" id="ArialMT-109"/>
      <path d="M 7.90625 0 
L 7.90625 71.578125 
L 59.671875 71.578125 
L 59.671875 63.140625 
L 17.390625 63.140625 
L 17.390625 41.21875 
L 56.984375 41.21875 
L 56.984375 32.8125 
L 17.390625 32.8125 
L 17.390625 8.453125 
L 61.328125 8.453125 
L 61.328125 0 
z
" id="ArialMT-69"/>
      <path d="M 39.65625 -19.875 
L 39.65625 5.515625 
Q 37.59375 2.640625 33.90625 0.734375 
Q 30.21875 -1.171875 26.078125 -1.171875 
Q 16.84375 -1.171875 10.171875 6.203125 
Q 3.515625 13.578125 3.515625 26.421875 
Q 3.515625 34.234375 6.21875 40.421875 
Q 8.9375 46.625 14.078125 49.828125 
Q 19.234375 53.03125 25.390625 53.03125 
Q 35.015625 53.03125 40.53125 44.921875 
L 40.53125 51.859375 
L 48.4375 51.859375 
L 48.4375 -19.875 
z
M 12.546875 26.078125 
Q 12.546875 16.0625 16.75 11.0625 
Q 20.953125 6.0625 26.8125 6.0625 
Q 32.421875 6.0625 36.46875 10.8125 
Q 40.53125 15.578125 40.53125 25.296875 
Q 40.53125 35.640625 36.25 40.859375 
Q 31.984375 46.09375 26.21875 46.09375 
Q 20.515625 46.09375 16.53125 41.234375 
Q 12.546875 36.375 12.546875 26.078125 
z
" id="ArialMT-113"/>
      <path d="M 40.578125 0 
L 40.578125 7.625 
Q 34.515625 -1.171875 24.125 -1.171875 
Q 19.53125 -1.171875 15.546875 0.578125 
Q 11.578125 2.34375 9.640625 5 
Q 7.71875 7.671875 6.9375 11.53125 
Q 6.390625 14.109375 6.390625 19.734375 
L 6.390625 51.859375 
L 15.1875 51.859375 
L 15.1875 23.09375 
Q 15.1875 16.21875 15.71875 13.8125 
Q 16.546875 10.359375 19.234375 8.375 
Q 21.921875 6.390625 25.875 6.390625 
Q 29.828125 6.390625 33.296875 8.421875 
Q 36.765625 10.453125 38.203125 13.9375 
Q 39.65625 17.4375 39.65625 24.078125 
L 39.65625 51.859375 
L 48.4375 51.859375 
L 48.4375 0 
z
" id="ArialMT-117"/>
      <path d="M 6.390625 0 
L 6.390625 71.578125 
L 15.1875 71.578125 
L 15.1875 0 
z
" id="ArialMT-108"/>
     </defs>
     <use xlink:href="#ArialMT-102"/>
     <use x="27.783203" xlink:href="#ArialMT-97"/>
     <use x="83.398438" xlink:href="#ArialMT-114"/>
     <use x="116.699219" xlink:href="#ArialMT-70"/>
     <use x="177.783203" xlink:href="#ArialMT-114"/>
     <use x="211.083984" xlink:href="#ArialMT-111"/>
     <use x="266.699219" xlink:href="#ArialMT-109"/>
     <use x="350" xlink:href="#ArialMT-69"/>
     <use x="416.699219" xlink:href="#ArialMT-113"/>
     <use x="472.314453" xlink:href="#ArialMT-117"/>
     <use x="527.929688" xlink:href="#ArialMT-105"/>
     <use x="550.146484" xlink:href="#ArialMT-108"/>
    </g>
   </g>
   <g id="line2d_14">
    <path d="M 217.907813 107.146094 
L 237.907813 107.146094 
" style="fill:none;stroke:#66c2a5;stroke-linecap:square;stroke-width:1.5;"/>
   </g>
   <g id="line2d_15"/>
   <g id="text_15">
    <!-- False -->
    <g transform="translate(245.907813 110.646094)scale(0.1 -0.1)">
     <defs>
      <path d="M 3.078125 15.484375 
L 11.765625 16.84375 
Q 12.5 11.625 15.84375 8.84375 
Q 19.1875 6.0625 25.203125 6.0625 
Q 31.25 6.0625 34.171875 8.515625 
Q 37.109375 10.984375 37.109375 14.3125 
Q 37.109375 17.28125 34.515625 19 
Q 32.71875 20.171875 25.53125 21.96875 
Q 15.875 24.421875 12.140625 26.203125 
Q 8.40625 27.984375 6.46875 31.125 
Q 4.546875 34.28125 4.546875 38.09375 
Q 4.546875 41.546875 6.125 44.5 
Q 7.71875 47.46875 10.453125 49.421875 
Q 12.5 50.921875 16.03125 51.96875 
Q 19.578125 53.03125 23.640625 53.03125 
Q 29.734375 53.03125 34.34375 51.265625 
Q 38.96875 49.515625 41.15625 46.5 
Q 43.359375 43.5 44.1875 38.484375 
L 35.59375 37.3125 
Q 35.015625 41.3125 32.203125 43.546875 
Q 29.390625 45.796875 24.265625 45.796875 
Q 18.21875 45.796875 15.625 43.796875 
Q 13.03125 41.796875 13.03125 39.109375 
Q 13.03125 37.40625 14.109375 36.03125 
Q 15.1875 34.625 17.484375 33.6875 
Q 18.796875 33.203125 25.25 31.453125 
Q 34.578125 28.953125 38.25 27.359375 
Q 41.9375 25.78125 44.03125 22.75 
Q 46.140625 19.734375 46.140625 15.234375 
Q 46.140625 10.84375 43.578125 6.953125 
Q 41.015625 3.078125 36.171875 0.953125 
Q 31.34375 -1.171875 25.25 -1.171875 
Q 15.140625 -1.171875 9.84375 3.03125 
Q 4.546875 7.234375 3.078125 15.484375 
z
" id="ArialMT-115"/>
     </defs>
     <use xlink:href="#ArialMT-70"/>
     <use x="61.083984" xlink:href="#ArialMT-97"/>
     <use x="116.699219" xlink:href="#ArialMT-108"/>
     <use x="138.916016" xlink:href="#ArialMT-115"/>
     <use x="188.916016" xlink:href="#ArialMT-101"/>
    </g>
   </g>
   <g id="line2d_16">
    <path d="M 217.907813 121.291406 
L 237.907813 121.291406 
" style="fill:none;stroke:#fc8d62;stroke-linecap:square;stroke-width:1.5;"/>
   </g>
   <g id="line2d_17"/>
   <g id="text_16">
    <!-- True -->
    <g transform="translate(245.907813 124.791406)scale(0.1 -0.1)">
     <defs>
      <path d="M 25.921875 0 
L 25.921875 63.140625 
L 2.34375 63.140625 
L 2.34375 71.578125 
L 59.078125 71.578125 
L 59.078125 63.140625 
L 35.40625 63.140625 
L 35.40625 0 
z
" id="ArialMT-84"/>
     </defs>
     <use xlink:href="#ArialMT-84"/>
     <use x="57.333984" xlink:href="#ArialMT-114"/>
     <use x="90.634766" xlink:href="#ArialMT-117"/>
     <use x="146.25" xlink:href="#ArialMT-101"/>
    </g>
   </g>
  </g>
 </g>
 <defs>
  <clipPath id="p6d4ed6449e">
   <rect height="161.9" width="157.7075" x="44.675" y="14.3"/>
  </clipPath>
 </defs>
</svg>
