<?xml version="1.0" encoding="utf-8" standalone="no"?>
<!DOCTYPE svg PUBLIC "-//W3C//DTD SVG 1.1//EN"
  "http://www.w3.org/Graphics/SVG/1.1/DTD/svg11.dtd">
<!-- Created with matplotlib (https://matplotlib.org/) -->
<svg height="288pt" version="1.1" viewBox="0 0 432 288" width="432pt" xmlns="http://www.w3.org/2000/svg" xmlns:xlink="http://www.w3.org/1999/xlink">
 <metadata>
  <rdf:RDF xmlns:cc="http://creativecommons.org/ns#" xmlns:dc="http://purl.org/dc/elements/1.1/" xmlns:rdf="http://www.w3.org/1999/02/22-rdf-syntax-ns#">
   <cc:Work>
    <dc:type rdf:resource="http://purl.org/dc/dcmitype/StillImage"/>
    <dc:date>2021-11-02T20:20:14.153298</dc:date>
    <dc:format>image/svg+xml</dc:format>
    <dc:creator>
     <cc:Agent>
      <dc:title>Matplotlib v3.3.4, https://matplotlib.org/</dc:title>
     </cc:Agent>
    </dc:creator>
   </cc:Work>
  </rdf:RDF>
 </metadata>
 <defs>
  <style type="text/css">*{stroke-linecap:butt;stroke-linejoin:round;}</style>
 </defs>
 <g id="figure_1">
  <g id="patch_1">
   <path d="M 0 288 
L 432 288 
L 432 0 
L 0 0 
z
" style="fill:none;"/>
  </g>
  <g id="axes_1">
   <g id="patch_2">
    <path d="M 40.335 174.04 
L 419.04 174.04 
L 419.04 16.96 
L 40.335 16.96 
z
" style="fill:#ffffff;"/>
   </g>
   <g id="patch_3">
    <path clip-path="url(#p1134486e30)" d="M 46.252266 122.694337 
L 58.086797 122.694337 
L 58.086797 167.297112 
L 46.252266 167.297112 
z
" style="fill:#e41a1c;"/>
   </g>
   <g id="patch_4">
    <path clip-path="url(#p1134486e30)" d="M 69.921328 93.420258 
L 81.755859 93.420258 
L 81.755859 151.707445 
L 69.921328 151.707445 
z
" style="fill:#377eb8;"/>
   </g>
   <g id="patch_5">
    <path clip-path="url(#p1134486e30)" d="M 93.590391 22.349255 
L 105.424922 22.349255 
L 105.424922 51.349086 
L 93.590391 51.349086 
z
" style="fill:#377eb8;"/>
   </g>
   <g id="patch_6">
    <path clip-path="url(#p1134486e30)" d="M 117.259453 51.623334 
L 129.093984 51.623334 
L 129.093984 66.938753 
L 117.259453 66.938753 
z
" style="fill:#e41a1c;"/>
   </g>
   <g id="patch_7">
    <path clip-path="url(#p1134486e30)" d="M 140.928516 122.021808 
L 152.763047 122.021808 
L 152.763047 146.448505 
L 140.928516 146.448505 
z
" style="fill:#377eb8;"/>
   </g>
   <g id="patch_8">
    <path clip-path="url(#p1134486e30)" d="M 164.597578 106.432141 
L 176.432109 106.432141 
L 176.432109 117.174426 
L 164.597578 117.174426 
z
" style="fill:#e41a1c;"/>
   </g>
   <g id="patch_9">
    <path clip-path="url(#p1134486e30)" d="M 188.266641 133.302381 
L 200.101172 133.302381 
L 200.101172 156.019695 
L 188.266641 156.019695 
z
" style="fill:#377eb8;"/>
   </g>
   <g id="patch_10">
    <path clip-path="url(#p1134486e30)" d="M 211.935703 117.712714 
L 223.770234 117.712714 
L 223.770234 126.745615 
L 211.935703 126.745615 
z
" style="fill:#e41a1c;"/>
   </g>
   <g id="patch_11">
    <path clip-path="url(#p1134486e30)" d="M 235.604766 114.430675 
L 247.439297 114.430675 
L 247.439297 133.886649 
L 235.604766 133.886649 
z
" style="fill:#e41a1c;"/>
   </g>
   <g id="patch_12">
    <path clip-path="url(#p1134486e30)" d="M 259.273828 55.882516 
L 271.108359 55.882516 
L 271.108359 102.707314 
L 259.273828 102.707314 
z
" style="fill:#377eb8;"/>
   </g>
   <g id="patch_13">
    <path clip-path="url(#p1134486e30)" d="M 282.942891 122.313044 
L 294.777422 122.313044 
L 294.777422 142.661151 
L 282.942891 142.661151 
z
" style="fill:#e41a1c;"/>
   </g>
   <g id="patch_14">
    <path clip-path="url(#p1134486e30)" d="M 306.611953 93.038965 
L 318.446484 93.038965 
L 318.446484 127.071484 
L 306.611953 127.071484 
z
" style="fill:#377eb8;"/>
   </g>
   <g id="patch_15">
    <path clip-path="url(#p1134486e30)" d="M 330.281016 93.010564 
L 342.115547 93.010564 
L 342.115547 127.133828 
L 330.281016 127.133828 
z
" style="fill:#377eb8;"/>
   </g>
   <g id="patch_16">
    <path clip-path="url(#p1134486e30)" d="M 353.950078 122.284643 
L 365.784609 122.284643 
L 365.784609 142.723495 
L 353.950078 142.723495 
z
" style="fill:#e41a1c;"/>
   </g>
   <g id="patch_17">
    <path clip-path="url(#p1134486e30)" d="M 377.619141 136.685855 
L 389.453672 136.685855 
L 389.453672 174.70486 
L 377.619141 174.70486 
z
" style="fill:#e41a1c;"/>
   </g>
   <g id="patch_18">
    <path clip-path="url(#p1134486e30)" d="M 401.288203 107.411776 
L 413.122734 107.411776 
L 413.122734 159.115193 
L 401.288203 159.115193 
z
" style="fill:#377eb8;"/>
   </g>
   <g id="matplotlib.axis_1">
    <g id="xtick_1">
     <g id="line2d_1">
      <defs>
       <path d="M 0 0 
L 0 3.5 
" id="mb6bbcc76d1" style="stroke:#000000;stroke-width:0.8;"/>
      </defs>
      <g>
       <use style="stroke:#000000;stroke-width:0.8;" x="52.169531" xlink:href="#mb6bbcc76d1" y="174.04"/>
      </g>
     </g>
     <g id="text_1">
      <!-- AKGDH (WT) -->
      <g transform="translate(55.274531 253.69625)rotate(-90)scale(0.12 -0.12)">
       <defs>
        <path d="M -0.140625 0 
L 27.34375 71.578125 
L 37.546875 71.578125 
L 66.84375 0 
L 56.0625 0 
L 47.703125 21.6875 
L 17.78125 21.6875 
L 9.90625 0 
z
M 20.515625 29.390625 
L 44.78125 29.390625 
L 37.3125 49.21875 
Q 33.890625 58.25 32.234375 64.0625 
Q 30.859375 57.171875 28.375 50.390625 
z
" id="ArialMT-65"/>
        <path d="M 7.328125 0 
L 7.328125 71.578125 
L 16.796875 71.578125 
L 16.796875 36.078125 
L 52.34375 71.578125 
L 65.1875 71.578125 
L 35.15625 42.578125 
L 66.5 0 
L 54 0 
L 28.515625 36.234375 
L 16.796875 24.8125 
L 16.796875 0 
z
" id="ArialMT-75"/>
        <path d="M 41.21875 28.078125 
L 41.21875 36.46875 
L 71.53125 36.53125 
L 71.53125 9.96875 
Q 64.546875 4.390625 57.125 1.578125 
Q 49.703125 -1.21875 41.890625 -1.21875 
Q 31.34375 -1.21875 22.71875 3.296875 
Q 14.109375 7.8125 9.71875 16.359375 
Q 5.328125 24.90625 5.328125 35.453125 
Q 5.328125 45.90625 9.6875 54.953125 
Q 14.0625 64.015625 22.265625 68.40625 
Q 30.46875 72.796875 41.15625 72.796875 
Q 48.921875 72.796875 55.1875 70.28125 
Q 61.46875 67.78125 65.03125 63.28125 
Q 68.609375 58.796875 70.453125 51.5625 
L 61.921875 49.21875 
Q 60.296875 54.6875 57.90625 57.8125 
Q 55.515625 60.9375 51.0625 62.8125 
Q 46.625 64.703125 41.21875 64.703125 
Q 34.71875 64.703125 29.984375 62.71875 
Q 25.25 60.75 22.34375 57.515625 
Q 19.4375 54.296875 17.828125 50.4375 
Q 15.09375 43.796875 15.09375 36.03125 
Q 15.09375 26.46875 18.390625 20.015625 
Q 21.6875 13.578125 27.984375 10.453125 
Q 34.28125 7.328125 41.359375 7.328125 
Q 47.515625 7.328125 53.375 9.6875 
Q 59.234375 12.0625 62.25 14.75 
L 62.25 28.078125 
z
" id="ArialMT-71"/>
        <path d="M 7.71875 0 
L 7.71875 71.578125 
L 32.375 71.578125 
Q 40.71875 71.578125 45.125 70.5625 
Q 51.265625 69.140625 55.609375 65.4375 
Q 61.28125 60.640625 64.078125 53.1875 
Q 66.890625 45.75 66.890625 36.1875 
Q 66.890625 28.03125 64.984375 21.734375 
Q 63.09375 15.4375 60.109375 11.296875 
Q 57.125 7.171875 53.578125 4.796875 
Q 50.046875 2.4375 45.046875 1.21875 
Q 40.046875 0 33.546875 0 
z
M 17.1875 8.453125 
L 32.46875 8.453125 
Q 39.546875 8.453125 43.578125 9.765625 
Q 47.609375 11.078125 50 13.484375 
Q 53.375 16.84375 55.25 22.53125 
Q 57.125 28.21875 57.125 36.328125 
Q 57.125 47.5625 53.4375 53.59375 
Q 49.75 59.625 44.484375 61.671875 
Q 40.671875 63.140625 32.234375 63.140625 
L 17.1875 63.140625 
z
" id="ArialMT-68"/>
        <path d="M 8.015625 0 
L 8.015625 71.578125 
L 17.484375 71.578125 
L 17.484375 42.1875 
L 54.6875 42.1875 
L 54.6875 71.578125 
L 64.15625 71.578125 
L 64.15625 0 
L 54.6875 0 
L 54.6875 33.734375 
L 17.484375 33.734375 
L 17.484375 0 
z
" id="ArialMT-72"/>
        <path id="ArialMT-32"/>
        <path d="M 23.390625 -21.046875 
Q 16.109375 -11.859375 11.078125 0.4375 
Q 6.0625 12.75 6.0625 25.921875 
Q 6.0625 37.546875 9.8125 48.1875 
Q 14.203125 60.546875 23.390625 72.796875 
L 29.6875 72.796875 
Q 23.78125 62.640625 21.875 58.296875 
Q 18.890625 51.5625 17.1875 44.234375 
Q 15.09375 35.109375 15.09375 25.875 
Q 15.09375 2.390625 29.6875 -21.046875 
z
" id="ArialMT-40"/>
        <path d="M 20.21875 0 
L 1.21875 71.578125 
L 10.9375 71.578125 
L 21.828125 24.65625 
Q 23.578125 17.28125 24.859375 10.015625 
Q 27.59375 21.484375 28.078125 23.25 
L 41.703125 71.578125 
L 53.125 71.578125 
L 63.375 35.359375 
Q 67.234375 21.875 68.953125 10.015625 
Q 70.3125 16.796875 72.515625 25.59375 
L 83.734375 71.578125 
L 93.265625 71.578125 
L 73.640625 0 
L 64.5 0 
L 49.421875 54.546875 
Q 47.515625 61.375 47.171875 62.9375 
Q 46.046875 58.015625 45.0625 54.546875 
L 29.890625 0 
z
" id="ArialMT-87"/>
        <path d="M 25.921875 0 
L 25.921875 63.140625 
L 2.34375 63.140625 
L 2.34375 71.578125 
L 59.078125 71.578125 
L 59.078125 63.140625 
L 35.40625 63.140625 
L 35.40625 0 
z
" id="ArialMT-84"/>
        <path d="M 12.359375 -21.046875 
L 6.0625 -21.046875 
Q 20.65625 2.390625 20.65625 25.875 
Q 20.65625 35.0625 18.5625 44.09375 
Q 16.890625 51.421875 13.921875 58.15625 
Q 12.015625 62.546875 6.0625 72.796875 
L 12.359375 72.796875 
Q 21.53125 60.546875 25.921875 48.1875 
Q 29.6875 37.546875 29.6875 25.921875 
Q 29.6875 12.75 24.625 0.4375 
Q 19.578125 -11.859375 12.359375 -21.046875 
z
" id="ArialMT-41"/>
       </defs>
       <use xlink:href="#ArialMT-65"/>
       <use x="66.699219" xlink:href="#ArialMT-75"/>
       <use x="133.398438" xlink:href="#ArialMT-71"/>
       <use x="211.181641" xlink:href="#ArialMT-68"/>
       <use x="283.398438" xlink:href="#ArialMT-72"/>
       <use x="355.615234" xlink:href="#ArialMT-32"/>
       <use x="383.398438" xlink:href="#ArialMT-40"/>
       <use x="416.699219" xlink:href="#ArialMT-87"/>
       <use x="511.083984" xlink:href="#ArialMT-84"/>
       <use x="572.167969" xlink:href="#ArialMT-41"/>
      </g>
     </g>
    </g>
    <g id="xtick_2">
     <g id="line2d_2">
      <g>
       <use style="stroke:#000000;stroke-width:0.8;" x="75.838594" xlink:href="#mb6bbcc76d1" y="174.04"/>
      </g>
     </g>
     <g id="text_2">
      <!-- AKGDH (MUT) -->
      <g transform="translate(78.943594 261.03125)rotate(-90)scale(0.12 -0.12)">
       <defs>
        <path d="M 7.421875 0 
L 7.421875 71.578125 
L 21.6875 71.578125 
L 38.625 20.90625 
Q 40.96875 13.8125 42.046875 10.296875 
Q 43.265625 14.203125 45.84375 21.78125 
L 62.984375 71.578125 
L 75.734375 71.578125 
L 75.734375 0 
L 66.609375 0 
L 66.609375 59.90625 
L 45.796875 0 
L 37.25 0 
L 16.546875 60.9375 
L 16.546875 0 
z
" id="ArialMT-77"/>
        <path d="M 54.6875 71.578125 
L 64.15625 71.578125 
L 64.15625 30.21875 
Q 64.15625 19.4375 61.71875 13.078125 
Q 59.28125 6.734375 52.90625 2.75 
Q 46.53125 -1.21875 36.1875 -1.21875 
Q 26.125 -1.21875 19.71875 2.25 
Q 13.328125 5.71875 10.59375 12.28125 
Q 7.859375 18.84375 7.859375 30.21875 
L 7.859375 71.578125 
L 17.328125 71.578125 
L 17.328125 30.28125 
Q 17.328125 20.953125 19.0625 16.53125 
Q 20.796875 12.109375 25.015625 9.71875 
Q 29.25 7.328125 35.359375 7.328125 
Q 45.796875 7.328125 50.234375 12.0625 
Q 54.6875 16.796875 54.6875 30.28125 
z
" id="ArialMT-85"/>
       </defs>
       <use xlink:href="#ArialMT-65"/>
       <use x="66.699219" xlink:href="#ArialMT-75"/>
       <use x="133.398438" xlink:href="#ArialMT-71"/>
       <use x="211.181641" xlink:href="#ArialMT-68"/>
       <use x="283.398438" xlink:href="#ArialMT-72"/>
       <use x="355.615234" xlink:href="#ArialMT-32"/>
       <use x="383.398438" xlink:href="#ArialMT-40"/>
       <use x="416.699219" xlink:href="#ArialMT-77"/>
       <use x="500" xlink:href="#ArialMT-85"/>
       <use x="572.216797" xlink:href="#ArialMT-84"/>
       <use x="633.300781" xlink:href="#ArialMT-41"/>
      </g>
     </g>
    </g>
    <g id="xtick_3">
     <g id="line2d_3">
      <g>
       <use style="stroke:#000000;stroke-width:0.8;" x="99.507656" xlink:href="#mb6bbcc76d1" y="174.04"/>
      </g>
     </g>
     <g id="text_3">
      <!-- G3PD2 (WT) -->
      <g transform="translate(102.612656 250.371875)rotate(-90)scale(0.12 -0.12)">
       <defs>
        <path d="M 4.203125 18.890625 
L 12.984375 20.0625 
Q 14.5 12.59375 18.140625 9.296875 
Q 21.78125 6 27 6 
Q 33.203125 6 37.46875 10.296875 
Q 41.75 14.59375 41.75 20.953125 
Q 41.75 27 37.796875 30.921875 
Q 33.84375 34.859375 27.734375 34.859375 
Q 25.25 34.859375 21.53125 33.890625 
L 22.515625 41.609375 
Q 23.390625 41.5 23.921875 41.5 
Q 29.546875 41.5 34.03125 44.421875 
Q 38.53125 47.359375 38.53125 53.46875 
Q 38.53125 58.296875 35.25 61.46875 
Q 31.984375 64.65625 26.8125 64.65625 
Q 21.6875 64.65625 18.265625 61.421875 
Q 14.84375 58.203125 13.875 51.765625 
L 5.078125 53.328125 
Q 6.6875 62.15625 12.390625 67.015625 
Q 18.109375 71.875 26.609375 71.875 
Q 32.46875 71.875 37.390625 69.359375 
Q 42.328125 66.84375 44.9375 62.5 
Q 47.5625 58.15625 47.5625 53.265625 
Q 47.5625 48.640625 45.0625 44.828125 
Q 42.578125 41.015625 37.703125 38.765625 
Q 44.046875 37.3125 47.5625 32.6875 
Q 51.078125 28.078125 51.078125 21.140625 
Q 51.078125 11.765625 44.234375 5.25 
Q 37.40625 -1.265625 26.953125 -1.265625 
Q 17.53125 -1.265625 11.296875 4.34375 
Q 5.078125 9.96875 4.203125 18.890625 
z
" id="ArialMT-51"/>
        <path d="M 7.71875 0 
L 7.71875 71.578125 
L 34.71875 71.578125 
Q 41.84375 71.578125 45.609375 70.90625 
Q 50.875 70.015625 54.4375 67.546875 
Q 58.015625 65.09375 60.1875 60.640625 
Q 62.359375 56.203125 62.359375 50.875 
Q 62.359375 41.75 56.546875 35.421875 
Q 50.734375 29.109375 35.546875 29.109375 
L 17.1875 29.109375 
L 17.1875 0 
z
M 17.1875 37.546875 
L 35.6875 37.546875 
Q 44.875 37.546875 48.734375 40.96875 
Q 52.59375 44.390625 52.59375 50.59375 
Q 52.59375 55.078125 50.3125 58.265625 
Q 48.046875 61.46875 44.34375 62.5 
Q 41.9375 63.140625 35.5 63.140625 
L 17.1875 63.140625 
z
" id="ArialMT-80"/>
        <path d="M 50.34375 8.453125 
L 50.34375 0 
L 3.03125 0 
Q 2.9375 3.171875 4.046875 6.109375 
Q 5.859375 10.9375 9.828125 15.625 
Q 13.8125 20.3125 21.34375 26.46875 
Q 33.015625 36.03125 37.109375 41.625 
Q 41.21875 47.21875 41.21875 52.203125 
Q 41.21875 57.421875 37.46875 61 
Q 33.734375 64.59375 27.734375 64.59375 
Q 21.390625 64.59375 17.578125 60.78125 
Q 13.765625 56.984375 13.71875 50.25 
L 4.6875 51.171875 
Q 5.609375 61.28125 11.65625 66.578125 
Q 17.71875 71.875 27.9375 71.875 
Q 38.234375 71.875 44.234375 66.15625 
Q 50.25 60.453125 50.25 52 
Q 50.25 47.703125 48.484375 43.546875 
Q 46.734375 39.40625 42.65625 34.8125 
Q 38.578125 30.21875 29.109375 22.21875 
Q 21.1875 15.578125 18.9375 13.203125 
Q 16.703125 10.84375 15.234375 8.453125 
z
" id="ArialMT-50"/>
       </defs>
       <use xlink:href="#ArialMT-71"/>
       <use x="77.783203" xlink:href="#ArialMT-51"/>
       <use x="133.398438" xlink:href="#ArialMT-80"/>
       <use x="200.097656" xlink:href="#ArialMT-68"/>
       <use x="272.314453" xlink:href="#ArialMT-50"/>
       <use x="327.929688" xlink:href="#ArialMT-32"/>
       <use x="355.712891" xlink:href="#ArialMT-40"/>
       <use x="389.013672" xlink:href="#ArialMT-87"/>
       <use x="483.398438" xlink:href="#ArialMT-84"/>
       <use x="544.482422" xlink:href="#ArialMT-41"/>
      </g>
     </g>
    </g>
    <g id="xtick_4">
     <g id="line2d_4">
      <g>
       <use style="stroke:#000000;stroke-width:0.8;" x="123.176719" xlink:href="#mb6bbcc76d1" y="174.04"/>
      </g>
     </g>
     <g id="text_4">
      <!-- G3PD2 (MUT) -->
      <g transform="translate(126.281719 257.706875)rotate(-90)scale(0.12 -0.12)">
       <use xlink:href="#ArialMT-71"/>
       <use x="77.783203" xlink:href="#ArialMT-51"/>
       <use x="133.398438" xlink:href="#ArialMT-80"/>
       <use x="200.097656" xlink:href="#ArialMT-68"/>
       <use x="272.314453" xlink:href="#ArialMT-50"/>
       <use x="327.929688" xlink:href="#ArialMT-32"/>
       <use x="355.712891" xlink:href="#ArialMT-40"/>
       <use x="389.013672" xlink:href="#ArialMT-77"/>
       <use x="472.314453" xlink:href="#ArialMT-85"/>
       <use x="544.53125" xlink:href="#ArialMT-84"/>
       <use x="605.615234" xlink:href="#ArialMT-41"/>
      </g>
     </g>
    </g>
    <g id="xtick_5">
     <g id="line2d_5">
      <g>
       <use style="stroke:#000000;stroke-width:0.8;" x="146.845781" xlink:href="#mb6bbcc76d1" y="174.04"/>
      </g>
     </g>
     <g id="text_5">
      <!-- GLUSy (WT) -->
      <g transform="translate(149.950781 249.69875)rotate(-90)scale(0.12 -0.12)">
       <defs>
        <path d="M 7.328125 0 
L 7.328125 71.578125 
L 16.796875 71.578125 
L 16.796875 8.453125 
L 52.046875 8.453125 
L 52.046875 0 
z
" id="ArialMT-76"/>
        <path d="M 4.5 23 
L 13.421875 23.78125 
Q 14.0625 18.40625 16.375 14.96875 
Q 18.703125 11.53125 23.578125 9.40625 
Q 28.46875 7.28125 34.578125 7.28125 
Q 39.984375 7.28125 44.140625 8.890625 
Q 48.296875 10.5 50.3125 13.296875 
Q 52.34375 16.109375 52.34375 19.4375 
Q 52.34375 22.796875 50.390625 25.3125 
Q 48.4375 27.828125 43.953125 29.546875 
Q 41.0625 30.671875 31.203125 33.03125 
Q 21.34375 35.40625 17.390625 37.5 
Q 12.25 40.1875 9.734375 44.15625 
Q 7.234375 48.140625 7.234375 53.078125 
Q 7.234375 58.5 10.296875 63.203125 
Q 13.375 67.921875 19.28125 70.359375 
Q 25.203125 72.796875 32.421875 72.796875 
Q 40.375 72.796875 46.453125 70.234375 
Q 52.546875 67.671875 55.8125 62.6875 
Q 59.078125 57.71875 59.328125 51.421875 
L 50.25 50.734375 
Q 49.515625 57.515625 45.28125 60.984375 
Q 41.0625 64.453125 32.8125 64.453125 
Q 24.21875 64.453125 20.28125 61.296875 
Q 16.359375 58.15625 16.359375 53.71875 
Q 16.359375 49.859375 19.140625 47.359375 
Q 21.875 44.875 33.421875 42.265625 
Q 44.96875 39.65625 49.265625 37.703125 
Q 55.515625 34.8125 58.484375 30.390625 
Q 61.46875 25.984375 61.46875 20.21875 
Q 61.46875 14.5 58.203125 9.4375 
Q 54.9375 4.390625 48.796875 1.578125 
Q 42.671875 -1.21875 35.015625 -1.21875 
Q 25.296875 -1.21875 18.71875 1.609375 
Q 12.15625 4.4375 8.421875 10.125 
Q 4.6875 15.828125 4.5 23 
z
" id="ArialMT-83"/>
        <path d="M 6.203125 -19.96875 
L 5.21875 -11.71875 
Q 8.109375 -12.5 10.25 -12.5 
Q 13.1875 -12.5 14.9375 -11.515625 
Q 16.703125 -10.546875 17.828125 -8.796875 
Q 18.65625 -7.46875 20.515625 -2.25 
Q 20.75 -1.515625 21.296875 -0.09375 
L 1.609375 51.859375 
L 11.078125 51.859375 
L 21.875 21.828125 
Q 23.96875 16.109375 25.640625 9.8125 
Q 27.15625 15.875 29.25 21.625 
L 40.328125 51.859375 
L 49.125 51.859375 
L 29.390625 -0.875 
Q 26.21875 -9.421875 24.46875 -12.640625 
Q 22.125 -17 19.09375 -19.015625 
Q 16.0625 -21.046875 11.859375 -21.046875 
Q 9.328125 -21.046875 6.203125 -19.96875 
z
" id="ArialMT-121"/>
       </defs>
       <use xlink:href="#ArialMT-71"/>
       <use x="77.783203" xlink:href="#ArialMT-76"/>
       <use x="133.398438" xlink:href="#ArialMT-85"/>
       <use x="205.615234" xlink:href="#ArialMT-83"/>
       <use x="272.314453" xlink:href="#ArialMT-121"/>
       <use x="322.314453" xlink:href="#ArialMT-32"/>
       <use x="350.097656" xlink:href="#ArialMT-40"/>
       <use x="383.398438" xlink:href="#ArialMT-87"/>
       <use x="477.783203" xlink:href="#ArialMT-84"/>
       <use x="538.867188" xlink:href="#ArialMT-41"/>
      </g>
     </g>
    </g>
    <g id="xtick_6">
     <g id="line2d_6">
      <g>
       <use style="stroke:#000000;stroke-width:0.8;" x="170.514844" xlink:href="#mb6bbcc76d1" y="174.04"/>
      </g>
     </g>
     <g id="text_6">
      <!-- GLUSy (MUT) -->
      <g transform="translate(173.619844 257.03375)rotate(-90)scale(0.12 -0.12)">
       <use xlink:href="#ArialMT-71"/>
       <use x="77.783203" xlink:href="#ArialMT-76"/>
       <use x="133.398438" xlink:href="#ArialMT-85"/>
       <use x="205.615234" xlink:href="#ArialMT-83"/>
       <use x="272.314453" xlink:href="#ArialMT-121"/>
       <use x="322.314453" xlink:href="#ArialMT-32"/>
       <use x="350.097656" xlink:href="#ArialMT-40"/>
       <use x="383.398438" xlink:href="#ArialMT-77"/>
       <use x="466.699219" xlink:href="#ArialMT-85"/>
       <use x="538.916016" xlink:href="#ArialMT-84"/>
       <use x="600" xlink:href="#ArialMT-41"/>
      </g>
     </g>
    </g>
    <g id="xtick_7">
     <g id="line2d_7">
      <g>
       <use style="stroke:#000000;stroke-width:0.8;" x="194.183906" xlink:href="#mb6bbcc76d1" y="174.04"/>
      </g>
     </g>
     <g id="text_7">
      <!-- GTHOr (WT) -->
      <g transform="translate(197.292656 249.68)rotate(-90)scale(0.12 -0.12)">
       <defs>
        <path d="M 4.828125 34.859375 
Q 4.828125 52.6875 14.390625 62.765625 
Q 23.96875 72.859375 39.109375 72.859375 
Q 49.03125 72.859375 56.984375 68.109375 
Q 64.9375 63.375 69.109375 54.90625 
Q 73.296875 46.4375 73.296875 35.6875 
Q 73.296875 24.8125 68.890625 16.21875 
Q 64.5 7.625 56.4375 3.203125 
Q 48.390625 -1.21875 39.0625 -1.21875 
Q 28.953125 -1.21875 20.984375 3.65625 
Q 13.03125 8.546875 8.921875 16.984375 
Q 4.828125 25.4375 4.828125 34.859375 
z
M 14.59375 34.71875 
Q 14.59375 21.78125 21.546875 14.328125 
Q 28.515625 6.890625 39.015625 6.890625 
Q 49.703125 6.890625 56.609375 14.40625 
Q 63.53125 21.921875 63.53125 35.75 
Q 63.53125 44.484375 60.578125 51 
Q 57.625 57.515625 51.921875 61.109375 
Q 46.234375 64.703125 39.15625 64.703125 
Q 29.109375 64.703125 21.84375 57.78125 
Q 14.59375 50.875 14.59375 34.71875 
z
" id="ArialMT-79"/>
        <path d="M 6.5 0 
L 6.5 51.859375 
L 14.40625 51.859375 
L 14.40625 44 
Q 17.4375 49.515625 20 51.265625 
Q 22.5625 53.03125 25.640625 53.03125 
Q 30.078125 53.03125 34.671875 50.203125 
L 31.640625 42.046875 
Q 28.421875 43.953125 25.203125 43.953125 
Q 22.3125 43.953125 20.015625 42.21875 
Q 17.71875 40.484375 16.75 37.40625 
Q 15.28125 32.71875 15.28125 27.15625 
L 15.28125 0 
z
" id="ArialMT-114"/>
       </defs>
       <use xlink:href="#ArialMT-71"/>
       <use x="77.783203" xlink:href="#ArialMT-84"/>
       <use x="138.867188" xlink:href="#ArialMT-72"/>
       <use x="211.083984" xlink:href="#ArialMT-79"/>
       <use x="288.867188" xlink:href="#ArialMT-114"/>
       <use x="322.167969" xlink:href="#ArialMT-32"/>
       <use x="349.951172" xlink:href="#ArialMT-40"/>
       <use x="383.251953" xlink:href="#ArialMT-87"/>
       <use x="477.636719" xlink:href="#ArialMT-84"/>
       <use x="538.720703" xlink:href="#ArialMT-41"/>
      </g>
     </g>
    </g>
    <g id="xtick_8">
     <g id="line2d_8">
      <g>
       <use style="stroke:#000000;stroke-width:0.8;" x="217.852969" xlink:href="#mb6bbcc76d1" y="174.04"/>
      </g>
     </g>
     <g id="text_8">
      <!-- GTHOr (MUT) -->
      <g transform="translate(220.961719 257.015)rotate(-90)scale(0.12 -0.12)">
       <use xlink:href="#ArialMT-71"/>
       <use x="77.783203" xlink:href="#ArialMT-84"/>
       <use x="138.867188" xlink:href="#ArialMT-72"/>
       <use x="211.083984" xlink:href="#ArialMT-79"/>
       <use x="288.867188" xlink:href="#ArialMT-114"/>
       <use x="322.167969" xlink:href="#ArialMT-32"/>
       <use x="349.951172" xlink:href="#ArialMT-40"/>
       <use x="383.251953" xlink:href="#ArialMT-77"/>
       <use x="466.552734" xlink:href="#ArialMT-85"/>
       <use x="538.769531" xlink:href="#ArialMT-84"/>
       <use x="599.853516" xlink:href="#ArialMT-41"/>
      </g>
     </g>
    </g>
    <g id="xtick_9">
     <g id="line2d_9">
      <g>
       <use style="stroke:#000000;stroke-width:0.8;" x="241.522031" xlink:href="#mb6bbcc76d1" y="174.04"/>
      </g>
     </g>
     <g id="text_9">
      <!-- HISTD (WT) -->
      <g transform="translate(244.627031 247.02125)rotate(-90)scale(0.12 -0.12)">
       <defs>
        <path d="M 9.328125 0 
L 9.328125 71.578125 
L 18.796875 71.578125 
L 18.796875 0 
z
" id="ArialMT-73"/>
       </defs>
       <use xlink:href="#ArialMT-72"/>
       <use x="72.216797" xlink:href="#ArialMT-73"/>
       <use x="100" xlink:href="#ArialMT-83"/>
       <use x="166.699219" xlink:href="#ArialMT-84"/>
       <use x="227.783203" xlink:href="#ArialMT-68"/>
       <use x="300" xlink:href="#ArialMT-32"/>
       <use x="327.783203" xlink:href="#ArialMT-40"/>
       <use x="361.083984" xlink:href="#ArialMT-87"/>
       <use x="455.46875" xlink:href="#ArialMT-84"/>
       <use x="516.552734" xlink:href="#ArialMT-41"/>
      </g>
     </g>
    </g>
    <g id="xtick_10">
     <g id="line2d_10">
      <g>
       <use style="stroke:#000000;stroke-width:0.8;" x="265.191094" xlink:href="#mb6bbcc76d1" y="174.04"/>
      </g>
     </g>
     <g id="text_10">
      <!-- HISTD (MUT) -->
      <g transform="translate(268.296094 254.35625)rotate(-90)scale(0.12 -0.12)">
       <use xlink:href="#ArialMT-72"/>
       <use x="72.216797" xlink:href="#ArialMT-73"/>
       <use x="100" xlink:href="#ArialMT-83"/>
       <use x="166.699219" xlink:href="#ArialMT-84"/>
       <use x="227.783203" xlink:href="#ArialMT-68"/>
       <use x="300" xlink:href="#ArialMT-32"/>
       <use x="327.783203" xlink:href="#ArialMT-40"/>
       <use x="361.083984" xlink:href="#ArialMT-77"/>
       <use x="444.384766" xlink:href="#ArialMT-85"/>
       <use x="516.601562" xlink:href="#ArialMT-84"/>
       <use x="577.685547" xlink:href="#ArialMT-41"/>
      </g>
     </g>
    </g>
    <g id="xtick_11">
     <g id="line2d_11">
      <g>
       <use style="stroke:#000000;stroke-width:0.8;" x="288.860156" xlink:href="#mb6bbcc76d1" y="174.04"/>
      </g>
     </g>
     <g id="text_11">
      <!-- ME1 (WT) -->
      <g transform="translate(291.965156 235.694375)rotate(-90)scale(0.12 -0.12)">
       <defs>
        <path d="M 7.90625 0 
L 7.90625 71.578125 
L 59.671875 71.578125 
L 59.671875 63.140625 
L 17.390625 63.140625 
L 17.390625 41.21875 
L 56.984375 41.21875 
L 56.984375 32.8125 
L 17.390625 32.8125 
L 17.390625 8.453125 
L 61.328125 8.453125 
L 61.328125 0 
z
" id="ArialMT-69"/>
        <path d="M 37.25 0 
L 28.46875 0 
L 28.46875 56 
Q 25.296875 52.984375 20.140625 49.953125 
Q 14.984375 46.921875 10.890625 45.40625 
L 10.890625 53.90625 
Q 18.265625 57.375 23.78125 62.296875 
Q 29.296875 67.234375 31.59375 71.875 
L 37.25 71.875 
z
" id="ArialMT-49"/>
       </defs>
       <use xlink:href="#ArialMT-77"/>
       <use x="83.300781" xlink:href="#ArialMT-69"/>
       <use x="150" xlink:href="#ArialMT-49"/>
       <use x="205.615234" xlink:href="#ArialMT-32"/>
       <use x="233.398438" xlink:href="#ArialMT-40"/>
       <use x="266.699219" xlink:href="#ArialMT-87"/>
       <use x="361.083984" xlink:href="#ArialMT-84"/>
       <use x="422.167969" xlink:href="#ArialMT-41"/>
      </g>
     </g>
    </g>
    <g id="xtick_12">
     <g id="line2d_12">
      <g>
       <use style="stroke:#000000;stroke-width:0.8;" x="312.529219" xlink:href="#mb6bbcc76d1" y="174.04"/>
      </g>
     </g>
     <g id="text_12">
      <!-- ME1 (MUT) -->
      <g transform="translate(315.634219 243.029375)rotate(-90)scale(0.12 -0.12)">
       <use xlink:href="#ArialMT-77"/>
       <use x="83.300781" xlink:href="#ArialMT-69"/>
       <use x="150" xlink:href="#ArialMT-49"/>
       <use x="205.615234" xlink:href="#ArialMT-32"/>
       <use x="233.398438" xlink:href="#ArialMT-40"/>
       <use x="266.699219" xlink:href="#ArialMT-77"/>
       <use x="350" xlink:href="#ArialMT-85"/>
       <use x="422.216797" xlink:href="#ArialMT-84"/>
       <use x="483.300781" xlink:href="#ArialMT-41"/>
      </g>
     </g>
    </g>
    <g id="xtick_13">
     <g id="line2d_13">
      <g>
       <use style="stroke:#000000;stroke-width:0.8;" x="336.198281" xlink:href="#mb6bbcc76d1" y="174.04"/>
      </g>
     </g>
     <g id="text_13">
      <!-- ME2 (WT) -->
      <g transform="translate(339.303281 235.694375)rotate(-90)scale(0.12 -0.12)">
       <use xlink:href="#ArialMT-77"/>
       <use x="83.300781" xlink:href="#ArialMT-69"/>
       <use x="150" xlink:href="#ArialMT-50"/>
       <use x="205.615234" xlink:href="#ArialMT-32"/>
       <use x="233.398438" xlink:href="#ArialMT-40"/>
       <use x="266.699219" xlink:href="#ArialMT-87"/>
       <use x="361.083984" xlink:href="#ArialMT-84"/>
       <use x="422.167969" xlink:href="#ArialMT-41"/>
      </g>
     </g>
    </g>
    <g id="xtick_14">
     <g id="line2d_14">
      <g>
       <use style="stroke:#000000;stroke-width:0.8;" x="359.867344" xlink:href="#mb6bbcc76d1" y="174.04"/>
      </g>
     </g>
     <g id="text_14">
      <!-- ME2 (MUT) -->
      <g transform="translate(362.972344 243.029375)rotate(-90)scale(0.12 -0.12)">
       <use xlink:href="#ArialMT-77"/>
       <use x="83.300781" xlink:href="#ArialMT-69"/>
       <use x="150" xlink:href="#ArialMT-50"/>
       <use x="205.615234" xlink:href="#ArialMT-32"/>
       <use x="233.398438" xlink:href="#ArialMT-40"/>
       <use x="266.699219" xlink:href="#ArialMT-77"/>
       <use x="350" xlink:href="#ArialMT-85"/>
       <use x="422.216797" xlink:href="#ArialMT-84"/>
       <use x="483.300781" xlink:href="#ArialMT-41"/>
      </g>
     </g>
    </g>
    <g id="xtick_15">
     <g id="line2d_15">
      <g>
       <use style="stroke:#000000;stroke-width:0.8;" x="383.536406" xlink:href="#mb6bbcc76d1" y="174.04"/>
      </g>
     </g>
     <g id="text_15">
      <!-- PDH (WT) -->
      <g transform="translate(386.641406 236.358125)rotate(-90)scale(0.12 -0.12)">
       <use xlink:href="#ArialMT-80"/>
       <use x="66.699219" xlink:href="#ArialMT-68"/>
       <use x="138.916016" xlink:href="#ArialMT-72"/>
       <use x="211.132812" xlink:href="#ArialMT-32"/>
       <use x="238.916016" xlink:href="#ArialMT-40"/>
       <use x="272.216797" xlink:href="#ArialMT-87"/>
       <use x="366.601562" xlink:href="#ArialMT-84"/>
       <use x="427.685547" xlink:href="#ArialMT-41"/>
      </g>
     </g>
    </g>
    <g id="xtick_16">
     <g id="line2d_16">
      <g>
       <use style="stroke:#000000;stroke-width:0.8;" x="407.205469" xlink:href="#mb6bbcc76d1" y="174.04"/>
      </g>
     </g>
     <g id="text_16">
      <!-- PDH (MUT) -->
      <g transform="translate(410.310469 243.693125)rotate(-90)scale(0.12 -0.12)">
       <use xlink:href="#ArialMT-80"/>
       <use x="66.699219" xlink:href="#ArialMT-68"/>
       <use x="138.916016" xlink:href="#ArialMT-72"/>
       <use x="211.132812" xlink:href="#ArialMT-32"/>
       <use x="238.916016" xlink:href="#ArialMT-40"/>
       <use x="272.216797" xlink:href="#ArialMT-77"/>
       <use x="355.517578" xlink:href="#ArialMT-85"/>
       <use x="427.734375" xlink:href="#ArialMT-84"/>
       <use x="488.818359" xlink:href="#ArialMT-41"/>
      </g>
     </g>
    </g>
    <g id="text_17">
     <!-- rxn_label -->
     <g transform="translate(205.340625 273.620625)scale(0.12 -0.12)">
      <defs>
       <path d="M 0.734375 0 
L 19.671875 26.953125 
L 2.15625 51.859375 
L 13.140625 51.859375 
L 21.09375 39.703125 
Q 23.34375 36.234375 24.703125 33.890625 
Q 26.859375 37.109375 28.65625 39.59375 
L 37.40625 51.859375 
L 47.90625 51.859375 
L 29.984375 27.4375 
L 49.265625 0 
L 38.484375 0 
L 27.828125 16.109375 
L 25 20.453125 
L 11.375 0 
z
" id="ArialMT-120"/>
       <path d="M 6.59375 0 
L 6.59375 51.859375 
L 14.5 51.859375 
L 14.5 44.484375 
Q 20.21875 53.03125 31 53.03125 
Q 35.6875 53.03125 39.625 51.34375 
Q 43.5625 49.65625 45.515625 46.921875 
Q 47.46875 44.1875 48.25 40.4375 
Q 48.734375 37.984375 48.734375 31.890625 
L 48.734375 0 
L 39.9375 0 
L 39.9375 31.546875 
Q 39.9375 36.921875 38.90625 39.578125 
Q 37.890625 42.234375 35.28125 43.8125 
Q 32.671875 45.40625 29.15625 45.40625 
Q 23.53125 45.40625 19.453125 41.84375 
Q 15.375 38.28125 15.375 28.328125 
L 15.375 0 
z
" id="ArialMT-110"/>
       <path d="M -1.515625 -19.875 
L -1.515625 -13.53125 
L 56.734375 -13.53125 
L 56.734375 -19.875 
z
" id="ArialMT-95"/>
       <path d="M 6.390625 0 
L 6.390625 71.578125 
L 15.1875 71.578125 
L 15.1875 0 
z
" id="ArialMT-108"/>
       <path d="M 40.4375 6.390625 
Q 35.546875 2.25 31.03125 0.53125 
Q 26.515625 -1.171875 21.34375 -1.171875 
Q 12.796875 -1.171875 8.203125 3 
Q 3.609375 7.171875 3.609375 13.671875 
Q 3.609375 17.484375 5.34375 20.625 
Q 7.078125 23.78125 9.890625 25.6875 
Q 12.703125 27.59375 16.21875 28.5625 
Q 18.796875 29.25 24.03125 29.890625 
Q 34.671875 31.15625 39.703125 32.90625 
Q 39.75 34.71875 39.75 35.203125 
Q 39.75 40.578125 37.25 42.78125 
Q 33.890625 45.75 27.25 45.75 
Q 21.046875 45.75 18.09375 43.578125 
Q 15.140625 41.40625 13.71875 35.890625 
L 5.125 37.0625 
Q 6.296875 42.578125 8.984375 45.96875 
Q 11.671875 49.359375 16.75 51.1875 
Q 21.828125 53.03125 28.515625 53.03125 
Q 35.15625 53.03125 39.296875 51.46875 
Q 43.453125 49.90625 45.40625 47.53125 
Q 47.359375 45.171875 48.140625 41.546875 
Q 48.578125 39.3125 48.578125 33.453125 
L 48.578125 21.734375 
Q 48.578125 9.46875 49.140625 6.21875 
Q 49.703125 2.984375 51.375 0 
L 42.1875 0 
Q 40.828125 2.734375 40.4375 6.390625 
z
M 39.703125 26.03125 
Q 34.90625 24.078125 25.34375 22.703125 
Q 19.921875 21.921875 17.671875 20.9375 
Q 15.4375 19.96875 14.203125 18.09375 
Q 12.984375 16.21875 12.984375 13.921875 
Q 12.984375 10.40625 15.640625 8.0625 
Q 18.3125 5.71875 23.4375 5.71875 
Q 28.515625 5.71875 32.46875 7.9375 
Q 36.421875 10.15625 38.28125 14.015625 
Q 39.703125 17 39.703125 22.796875 
z
" id="ArialMT-97"/>
       <path d="M 14.703125 0 
L 6.546875 0 
L 6.546875 71.578125 
L 15.328125 71.578125 
L 15.328125 46.046875 
Q 20.90625 53.03125 29.546875 53.03125 
Q 34.328125 53.03125 38.59375 51.09375 
Q 42.875 49.171875 45.625 45.671875 
Q 48.390625 42.1875 49.953125 37.25 
Q 51.515625 32.328125 51.515625 26.703125 
Q 51.515625 13.375 44.921875 6.09375 
Q 38.328125 -1.171875 29.109375 -1.171875 
Q 19.921875 -1.171875 14.703125 6.5 
z
M 14.59375 26.3125 
Q 14.59375 17 17.140625 12.84375 
Q 21.296875 6.0625 28.375 6.0625 
Q 34.125 6.0625 38.328125 11.0625 
Q 42.53125 16.0625 42.53125 25.984375 
Q 42.53125 36.140625 38.5 40.96875 
Q 34.46875 45.796875 28.765625 45.796875 
Q 23 45.796875 18.796875 40.796875 
Q 14.59375 35.796875 14.59375 26.3125 
z
" id="ArialMT-98"/>
       <path d="M 42.09375 16.703125 
L 51.171875 15.578125 
Q 49.03125 7.625 43.21875 3.21875 
Q 37.40625 -1.171875 28.375 -1.171875 
Q 17 -1.171875 10.328125 5.828125 
Q 3.65625 12.84375 3.65625 25.484375 
Q 3.65625 38.578125 10.390625 45.796875 
Q 17.140625 53.03125 27.875 53.03125 
Q 38.28125 53.03125 44.875 45.953125 
Q 51.46875 38.875 51.46875 26.03125 
Q 51.46875 25.25 51.421875 23.6875 
L 12.75 23.6875 
Q 13.234375 15.140625 17.578125 10.59375 
Q 21.921875 6.0625 28.421875 6.0625 
Q 33.25 6.0625 36.671875 8.59375 
Q 40.09375 11.140625 42.09375 16.703125 
z
M 13.234375 30.90625 
L 42.1875 30.90625 
Q 41.609375 37.453125 38.875 40.71875 
Q 34.671875 45.796875 27.984375 45.796875 
Q 21.921875 45.796875 17.796875 41.75 
Q 13.671875 37.703125 13.234375 30.90625 
z
" id="ArialMT-101"/>
      </defs>
      <use xlink:href="#ArialMT-114"/>
      <use x="33.300781" xlink:href="#ArialMT-120"/>
      <use x="83.300781" xlink:href="#ArialMT-110"/>
      <use x="138.916016" xlink:href="#ArialMT-95"/>
      <use x="194.53125" xlink:href="#ArialMT-108"/>
      <use x="216.748047" xlink:href="#ArialMT-97"/>
      <use x="272.363281" xlink:href="#ArialMT-98"/>
      <use x="327.978516" xlink:href="#ArialMT-101"/>
      <use x="383.59375" xlink:href="#ArialMT-108"/>
     </g>
    </g>
   </g>
   <g id="matplotlib.axis_2">
    <g id="ytick_1">
     <g id="line2d_17">
      <defs>
       <path d="M 0 0 
L -3.5 0 
" id="m1a20ab8267" style="stroke:#000000;stroke-width:0.8;"/>
      </defs>
      <g>
       <use style="stroke:#000000;stroke-width:0.8;" x="40.335" xlink:href="#m1a20ab8267" y="149.873846"/>
      </g>
     </g>
     <g id="text_18">
      <!-- −50 -->
      <g transform="translate(12.98 154.168534)scale(0.12 -0.12)">
       <defs>
        <path d="M 52.828125 31.203125 
L 5.5625 31.203125 
L 5.5625 39.40625 
L 52.828125 39.40625 
z
" id="ArialMT-8722"/>
        <path d="M 4.15625 18.75 
L 13.375 19.53125 
Q 14.40625 12.796875 18.140625 9.390625 
Q 21.875 6 27.15625 6 
Q 33.5 6 37.890625 10.78125 
Q 42.28125 15.578125 42.28125 23.484375 
Q 42.28125 31 38.0625 35.34375 
Q 33.84375 39.703125 27 39.703125 
Q 22.75 39.703125 19.328125 37.765625 
Q 15.921875 35.84375 13.96875 32.765625 
L 5.71875 33.84375 
L 12.640625 70.609375 
L 48.25 70.609375 
L 48.25 62.203125 
L 19.671875 62.203125 
L 15.828125 42.96875 
Q 22.265625 47.46875 29.34375 47.46875 
Q 38.71875 47.46875 45.15625 40.96875 
Q 51.609375 34.46875 51.609375 24.265625 
Q 51.609375 14.546875 45.953125 7.46875 
Q 39.0625 -1.21875 27.15625 -1.21875 
Q 17.390625 -1.21875 11.203125 4.25 
Q 5.03125 9.71875 4.15625 18.75 
z
" id="ArialMT-53"/>
        <path d="M 4.15625 35.296875 
Q 4.15625 48 6.765625 55.734375 
Q 9.375 63.484375 14.515625 67.671875 
Q 19.671875 71.875 27.484375 71.875 
Q 33.25 71.875 37.59375 69.546875 
Q 41.9375 67.234375 44.765625 62.859375 
Q 47.609375 58.5 49.21875 52.21875 
Q 50.828125 45.953125 50.828125 35.296875 
Q 50.828125 22.703125 48.234375 14.96875 
Q 45.65625 7.234375 40.5 3 
Q 35.359375 -1.21875 27.484375 -1.21875 
Q 17.140625 -1.21875 11.234375 6.203125 
Q 4.15625 15.140625 4.15625 35.296875 
z
M 13.1875 35.296875 
Q 13.1875 17.671875 17.3125 11.828125 
Q 21.4375 6 27.484375 6 
Q 33.546875 6 37.671875 11.859375 
Q 41.796875 17.71875 41.796875 35.296875 
Q 41.796875 52.984375 37.671875 58.78125 
Q 33.546875 64.59375 27.390625 64.59375 
Q 21.34375 64.59375 17.71875 59.46875 
Q 13.1875 52.9375 13.1875 35.296875 
z
" id="ArialMT-48"/>
       </defs>
       <use xlink:href="#ArialMT-8722"/>
       <use x="58.398438" xlink:href="#ArialMT-53"/>
       <use x="114.013672" xlink:href="#ArialMT-48"/>
      </g>
     </g>
    </g>
    <g id="ytick_2">
     <g id="line2d_18">
      <g>
       <use style="stroke:#000000;stroke-width:0.8;" x="40.335" xlink:href="#m1a20ab8267" y="119.666154"/>
      </g>
     </g>
     <g id="text_19">
      <!-- −25 -->
      <g transform="translate(12.98 123.960841)scale(0.12 -0.12)">
       <use xlink:href="#ArialMT-8722"/>
       <use x="58.398438" xlink:href="#ArialMT-50"/>
       <use x="114.013672" xlink:href="#ArialMT-53"/>
      </g>
     </g>
    </g>
    <g id="ytick_3">
     <g id="line2d_19">
      <g>
       <use style="stroke:#000000;stroke-width:0.8;" x="40.335" xlink:href="#m1a20ab8267" y="89.458462"/>
      </g>
     </g>
     <g id="text_20">
      <!-- 0 -->
      <g transform="translate(26.661875 93.753149)scale(0.12 -0.12)">
       <use xlink:href="#ArialMT-48"/>
      </g>
     </g>
    </g>
    <g id="ytick_4">
     <g id="line2d_20">
      <g>
       <use style="stroke:#000000;stroke-width:0.8;" x="40.335" xlink:href="#m1a20ab8267" y="59.250769"/>
      </g>
     </g>
     <g id="text_21">
      <!-- 25 -->
      <g transform="translate(19.98875 63.545457)scale(0.12 -0.12)">
       <use xlink:href="#ArialMT-50"/>
       <use x="55.615234" xlink:href="#ArialMT-53"/>
      </g>
     </g>
    </g>
    <g id="ytick_5">
     <g id="line2d_21">
      <g>
       <use style="stroke:#000000;stroke-width:0.8;" x="40.335" xlink:href="#m1a20ab8267" y="29.043077"/>
      </g>
     </g>
     <g id="text_22">
      <!-- 50 -->
      <g transform="translate(19.98875 33.337764)scale(0.12 -0.12)">
       <use xlink:href="#ArialMT-53"/>
       <use x="55.615234" xlink:href="#ArialMT-48"/>
      </g>
     </g>
    </g>
   </g>
   <g id="LineCollection_1">
    <path clip-path="url(#p1134486e30)" d="M 46.252266 133.087403 
L 58.086797 133.087403 
" style="fill:none;stroke:#000000;stroke-width:1.5;"/>
   </g>
   <g id="LineCollection_2">
    <path clip-path="url(#p1134486e30)" d="M 69.921328 117.983951 
L 81.755859 117.983951 
" style="fill:none;stroke:#000000;stroke-width:1.5;"/>
   </g>
   <g id="LineCollection_3">
    <path clip-path="url(#p1134486e30)" d="M 93.590391 45.176814 
L 105.424922 45.176814 
" style="fill:none;stroke:#000000;stroke-width:1.5;"/>
   </g>
   <g id="LineCollection_4">
    <path clip-path="url(#p1134486e30)" d="M 117.259453 60.280266 
L 129.093984 60.280266 
" style="fill:none;stroke:#000000;stroke-width:1.5;"/>
   </g>
   <g id="LineCollection_5">
    <path clip-path="url(#p1134486e30)" d="M 140.928516 127.035319 
L 152.763047 127.035319 
" style="fill:none;stroke:#000000;stroke-width:1.5;"/>
   </g>
   <g id="LineCollection_6">
    <path clip-path="url(#p1134486e30)" d="M 164.597578 111.931867 
L 176.432109 111.931867 
" style="fill:none;stroke:#000000;stroke-width:1.5;"/>
   </g>
   <g id="LineCollection_7">
    <path clip-path="url(#p1134486e30)" d="M 188.266641 138.965529 
L 200.101172 138.965529 
" style="fill:none;stroke:#000000;stroke-width:1.5;"/>
   </g>
   <g id="LineCollection_8">
    <path clip-path="url(#p1134486e30)" d="M 211.935703 123.862078 
L 223.770234 123.862078 
" style="fill:none;stroke:#000000;stroke-width:1.5;"/>
   </g>
   <g id="LineCollection_9">
    <path clip-path="url(#p1134486e30)" d="M 235.604766 121.589107 
L 247.439297 121.589107 
" style="fill:none;stroke:#000000;stroke-width:1.5;"/>
   </g>
   <g id="LineCollection_10">
    <path clip-path="url(#p1134486e30)" d="M 259.273828 91.382204 
L 271.108359 91.382204 
" style="fill:none;stroke:#000000;stroke-width:1.5;"/>
   </g>
   <g id="LineCollection_11">
    <path clip-path="url(#p1134486e30)" d="M 282.942891 131.238927 
L 294.777422 131.238927 
" style="fill:none;stroke:#000000;stroke-width:1.5;"/>
   </g>
   <g id="LineCollection_12">
    <path clip-path="url(#p1134486e30)" d="M 306.611953 116.135476 
L 318.446484 116.135476 
" style="fill:none;stroke:#000000;stroke-width:1.5;"/>
   </g>
   <g id="LineCollection_13">
    <path clip-path="url(#p1134486e30)" d="M 330.281016 116.152447 
L 342.115547 116.152447 
" style="fill:none;stroke:#000000;stroke-width:1.5;"/>
   </g>
   <g id="LineCollection_14">
    <path clip-path="url(#p1134486e30)" d="M 353.950078 131.255899 
L 365.784609 131.255899 
" style="fill:none;stroke:#000000;stroke-width:1.5;"/>
   </g>
   <g id="LineCollection_15">
    <path clip-path="url(#p1134486e30)" d="M 377.619141 146.273413 
L 389.453672 146.273413 
" style="fill:none;stroke:#000000;stroke-width:1.5;"/>
   </g>
   <g id="LineCollection_16">
    <path clip-path="url(#p1134486e30)" d="M 401.288203 131.169961 
L 413.122734 131.169961 
" style="fill:none;stroke:#000000;stroke-width:1.5;"/>
   </g>
   <g id="line2d_22">
    <path clip-path="url(#p1134486e30)" d="M 40.335 89.458462 
L 419.04 89.458462 
" style="fill:none;stroke:#000000;stroke-linecap:square;stroke-width:1.5;"/>
   </g>
   <g id="patch_19">
    <path d="M 40.335 174.04 
L 40.335 16.96 
" style="fill:none;stroke:#000000;stroke-linecap:square;stroke-linejoin:miter;stroke-width:0.8;"/>
   </g>
   <g id="patch_20">
    <path d="M 419.04 174.04 
L 419.04 16.96 
" style="fill:none;stroke:#000000;stroke-linecap:square;stroke-linejoin:miter;stroke-width:0.8;"/>
   </g>
   <g id="patch_21">
    <path d="M 40.335 174.04 
L 419.04 174.04 
" style="fill:none;stroke:#000000;stroke-linecap:square;stroke-linejoin:miter;stroke-width:0.8;"/>
   </g>
   <g id="patch_22">
    <path d="M 40.335 16.96 
L 419.04 16.96 
" style="fill:none;stroke:#000000;stroke-linecap:square;stroke-linejoin:miter;stroke-width:0.8;"/>
   </g>
  </g>
 </g>
 <defs>
  <clipPath id="p1134486e30">
   <rect height="157.08" width="378.705" x="40.335" y="16.96"/>
  </clipPath>
 </defs>
</svg>
