<?xml version="1.0" encoding="utf-8" standalone="no"?>
<!DOCTYPE svg PUBLIC "-//W3C//DTD SVG 1.1//EN"
  "http://www.w3.org/Graphics/SVG/1.1/DTD/svg11.dtd">
<!-- Created with matplotlib (https://matplotlib.org/) -->
<svg height="288pt" version="1.1" viewBox="0 0 491.625 288" width="491.625pt" xmlns="http://www.w3.org/2000/svg" xmlns:xlink="http://www.w3.org/1999/xlink">
 <metadata>
  <rdf:RDF xmlns:cc="http://creativecommons.org/ns#" xmlns:dc="http://purl.org/dc/elements/1.1/" xmlns:rdf="http://www.w3.org/1999/02/22-rdf-syntax-ns#">
   <cc:Work>
    <dc:type rdf:resource="http://purl.org/dc/dcmitype/StillImage"/>
    <dc:date>2021-01-14T12:08:06.698313</dc:date>
    <dc:format>image/svg+xml</dc:format>
    <dc:creator>
     <cc:Agent>
      <dc:title>Matplotlib v3.3.3, https://matplotlib.org/</dc:title>
     </cc:Agent>
    </dc:creator>
   </cc:Work>
  </rdf:RDF>
 </metadata>
 <defs>
  <style type="text/css">*{stroke-linecap:butt;stroke-linejoin:round;}</style>
 </defs>
 <g id="figure_1">
  <g id="patch_1">
   <path d="M 0 288 
L 491.625 288 
L 491.625 0 
L 0 0 
z
" style="fill:none;"/>
  </g>
  <g id="axes_1">
   <g id="patch_2">
    <path d="M 44.675 248.2 
L 272.28375 248.2 
L 272.28375 14.3 
L 44.675 14.3 
z
" style="fill:#ffffff;"/>
   </g>
   <g id="matplotlib.axis_1">
    <g id="xtick_1">
     <g id="line2d_1">
      <defs>
       <path d="M 0 0 
L 0 3.5 
" id="mb0625e3c17" style="stroke:#000000;stroke-width:0.8;"/>
      </defs>
      <g>
       <use style="stroke:#000000;stroke-width:0.8;" x="67.435875" xlink:href="#mb0625e3c17" y="248.2"/>
      </g>
     </g>
     <g id="text_1">
      <!-- −200 -->
      <g transform="translate(56.174156 262.357812)scale(0.1 -0.1)">
       <defs>
        <path d="M 52.828125 31.203125 
L 5.5625 31.203125 
L 5.5625 39.40625 
L 52.828125 39.40625 
z
" id="ArialMT-8722"/>
        <path d="M 50.34375 8.453125 
L 50.34375 0 
L 3.03125 0 
Q 2.9375 3.171875 4.046875 6.109375 
Q 5.859375 10.9375 9.828125 15.625 
Q 13.8125 20.3125 21.34375 26.46875 
Q 33.015625 36.03125 37.109375 41.625 
Q 41.21875 47.21875 41.21875 52.203125 
Q 41.21875 57.421875 37.46875 61 
Q 33.734375 64.59375 27.734375 64.59375 
Q 21.390625 64.59375 17.578125 60.78125 
Q 13.765625 56.984375 13.71875 50.25 
L 4.6875 51.171875 
Q 5.609375 61.28125 11.65625 66.578125 
Q 17.71875 71.875 27.9375 71.875 
Q 38.234375 71.875 44.234375 66.15625 
Q 50.25 60.453125 50.25 52 
Q 50.25 47.703125 48.484375 43.546875 
Q 46.734375 39.40625 42.65625 34.8125 
Q 38.578125 30.21875 29.109375 22.21875 
Q 21.1875 15.578125 18.9375 13.203125 
Q 16.703125 10.84375 15.234375 8.453125 
z
" id="ArialMT-50"/>
        <path d="M 4.15625 35.296875 
Q 4.15625 48 6.765625 55.734375 
Q 9.375 63.484375 14.515625 67.671875 
Q 19.671875 71.875 27.484375 71.875 
Q 33.25 71.875 37.59375 69.546875 
Q 41.9375 67.234375 44.765625 62.859375 
Q 47.609375 58.5 49.21875 52.21875 
Q 50.828125 45.953125 50.828125 35.296875 
Q 50.828125 22.703125 48.234375 14.96875 
Q 45.65625 7.234375 40.5 3 
Q 35.359375 -1.21875 27.484375 -1.21875 
Q 17.140625 -1.21875 11.234375 6.203125 
Q 4.15625 15.140625 4.15625 35.296875 
z
M 13.1875 35.296875 
Q 13.1875 17.671875 17.3125 11.828125 
Q 21.4375 6 27.484375 6 
Q 33.546875 6 37.671875 11.859375 
Q 41.796875 17.71875 41.796875 35.296875 
Q 41.796875 52.984375 37.671875 58.78125 
Q 33.546875 64.59375 27.390625 64.59375 
Q 21.34375 64.59375 17.71875 59.46875 
Q 13.1875 52.9375 13.1875 35.296875 
z
" id="ArialMT-48"/>
       </defs>
       <use xlink:href="#ArialMT-8722"/>
       <use x="58.398438" xlink:href="#ArialMT-50"/>
       <use x="114.013672" xlink:href="#ArialMT-48"/>
       <use x="169.628906" xlink:href="#ArialMT-48"/>
      </g>
     </g>
    </g>
    <g id="xtick_2">
     <g id="line2d_2">
      <g>
       <use style="stroke:#000000;stroke-width:0.8;" x="112.957625" xlink:href="#mb0625e3c17" y="248.2"/>
      </g>
     </g>
     <g id="text_2">
      <!-- −100 -->
      <g transform="translate(101.695906 262.357812)scale(0.1 -0.1)">
       <defs>
        <path d="M 37.25 0 
L 28.46875 0 
L 28.46875 56 
Q 25.296875 52.984375 20.140625 49.953125 
Q 14.984375 46.921875 10.890625 45.40625 
L 10.890625 53.90625 
Q 18.265625 57.375 23.78125 62.296875 
Q 29.296875 67.234375 31.59375 71.875 
L 37.25 71.875 
z
" id="ArialMT-49"/>
       </defs>
       <use xlink:href="#ArialMT-8722"/>
       <use x="58.398438" xlink:href="#ArialMT-49"/>
       <use x="114.013672" xlink:href="#ArialMT-48"/>
       <use x="169.628906" xlink:href="#ArialMT-48"/>
      </g>
     </g>
    </g>
    <g id="xtick_3">
     <g id="line2d_3">
      <g>
       <use style="stroke:#000000;stroke-width:0.8;" x="158.479375" xlink:href="#mb0625e3c17" y="248.2"/>
      </g>
     </g>
     <g id="text_3">
      <!-- 0 -->
      <g transform="translate(155.698906 262.357812)scale(0.1 -0.1)">
       <use xlink:href="#ArialMT-48"/>
      </g>
     </g>
    </g>
    <g id="xtick_4">
     <g id="line2d_4">
      <g>
       <use style="stroke:#000000;stroke-width:0.8;" x="204.001125" xlink:href="#mb0625e3c17" y="248.2"/>
      </g>
     </g>
     <g id="text_4">
      <!-- 100 -->
      <g transform="translate(195.659719 262.357812)scale(0.1 -0.1)">
       <use xlink:href="#ArialMT-49"/>
       <use x="55.615234" xlink:href="#ArialMT-48"/>
       <use x="111.230469" xlink:href="#ArialMT-48"/>
      </g>
     </g>
    </g>
    <g id="xtick_5">
     <g id="line2d_5">
      <g>
       <use style="stroke:#000000;stroke-width:0.8;" x="249.522875" xlink:href="#mb0625e3c17" y="248.2"/>
      </g>
     </g>
     <g id="text_5">
      <!-- 200 -->
      <g transform="translate(241.181469 262.357812)scale(0.1 -0.1)">
       <use xlink:href="#ArialMT-50"/>
       <use x="55.615234" xlink:href="#ArialMT-48"/>
       <use x="111.230469" xlink:href="#ArialMT-48"/>
      </g>
     </g>
    </g>
    <g id="text_6">
     <!-- standard molar free energy (kJ/mol) -->
     <g transform="translate(79.28875 275.625)scale(0.1 -0.1)">
      <defs>
       <path d="M 3.078125 15.484375 
L 11.765625 16.84375 
Q 12.5 11.625 15.84375 8.84375 
Q 19.1875 6.0625 25.203125 6.0625 
Q 31.25 6.0625 34.171875 8.515625 
Q 37.109375 10.984375 37.109375 14.3125 
Q 37.109375 17.28125 34.515625 19 
Q 32.71875 20.171875 25.53125 21.96875 
Q 15.875 24.421875 12.140625 26.203125 
Q 8.40625 27.984375 6.46875 31.125 
Q 4.546875 34.28125 4.546875 38.09375 
Q 4.546875 41.546875 6.125 44.5 
Q 7.71875 47.46875 10.453125 49.421875 
Q 12.5 50.921875 16.03125 51.96875 
Q 19.578125 53.03125 23.640625 53.03125 
Q 29.734375 53.03125 34.34375 51.265625 
Q 38.96875 49.515625 41.15625 46.5 
Q 43.359375 43.5 44.1875 38.484375 
L 35.59375 37.3125 
Q 35.015625 41.3125 32.203125 43.546875 
Q 29.390625 45.796875 24.265625 45.796875 
Q 18.21875 45.796875 15.625 43.796875 
Q 13.03125 41.796875 13.03125 39.109375 
Q 13.03125 37.40625 14.109375 36.03125 
Q 15.1875 34.625 17.484375 33.6875 
Q 18.796875 33.203125 25.25 31.453125 
Q 34.578125 28.953125 38.25 27.359375 
Q 41.9375 25.78125 44.03125 22.75 
Q 46.140625 19.734375 46.140625 15.234375 
Q 46.140625 10.84375 43.578125 6.953125 
Q 41.015625 3.078125 36.171875 0.953125 
Q 31.34375 -1.171875 25.25 -1.171875 
Q 15.140625 -1.171875 9.84375 3.03125 
Q 4.546875 7.234375 3.078125 15.484375 
z
" id="ArialMT-115"/>
       <path d="M 25.78125 7.859375 
L 27.046875 0.09375 
Q 23.34375 -0.6875 20.40625 -0.6875 
Q 15.625 -0.6875 12.984375 0.828125 
Q 10.359375 2.34375 9.28125 4.8125 
Q 8.203125 7.28125 8.203125 15.1875 
L 8.203125 45.015625 
L 1.765625 45.015625 
L 1.765625 51.859375 
L 8.203125 51.859375 
L 8.203125 64.703125 
L 16.9375 69.96875 
L 16.9375 51.859375 
L 25.78125 51.859375 
L 25.78125 45.015625 
L 16.9375 45.015625 
L 16.9375 14.703125 
Q 16.9375 10.9375 17.40625 9.859375 
Q 17.875 8.796875 18.921875 8.15625 
Q 19.96875 7.515625 21.921875 7.515625 
Q 23.390625 7.515625 25.78125 7.859375 
z
" id="ArialMT-116"/>
       <path d="M 40.4375 6.390625 
Q 35.546875 2.25 31.03125 0.53125 
Q 26.515625 -1.171875 21.34375 -1.171875 
Q 12.796875 -1.171875 8.203125 3 
Q 3.609375 7.171875 3.609375 13.671875 
Q 3.609375 17.484375 5.34375 20.625 
Q 7.078125 23.78125 9.890625 25.6875 
Q 12.703125 27.59375 16.21875 28.5625 
Q 18.796875 29.25 24.03125 29.890625 
Q 34.671875 31.15625 39.703125 32.90625 
Q 39.75 34.71875 39.75 35.203125 
Q 39.75 40.578125 37.25 42.78125 
Q 33.890625 45.75 27.25 45.75 
Q 21.046875 45.75 18.09375 43.578125 
Q 15.140625 41.40625 13.71875 35.890625 
L 5.125 37.0625 
Q 6.296875 42.578125 8.984375 45.96875 
Q 11.671875 49.359375 16.75 51.1875 
Q 21.828125 53.03125 28.515625 53.03125 
Q 35.15625 53.03125 39.296875 51.46875 
Q 43.453125 49.90625 45.40625 47.53125 
Q 47.359375 45.171875 48.140625 41.546875 
Q 48.578125 39.3125 48.578125 33.453125 
L 48.578125 21.734375 
Q 48.578125 9.46875 49.140625 6.21875 
Q 49.703125 2.984375 51.375 0 
L 42.1875 0 
Q 40.828125 2.734375 40.4375 6.390625 
z
M 39.703125 26.03125 
Q 34.90625 24.078125 25.34375 22.703125 
Q 19.921875 21.921875 17.671875 20.9375 
Q 15.4375 19.96875 14.203125 18.09375 
Q 12.984375 16.21875 12.984375 13.921875 
Q 12.984375 10.40625 15.640625 8.0625 
Q 18.3125 5.71875 23.4375 5.71875 
Q 28.515625 5.71875 32.46875 7.9375 
Q 36.421875 10.15625 38.28125 14.015625 
Q 39.703125 17 39.703125 22.796875 
z
" id="ArialMT-97"/>
       <path d="M 6.59375 0 
L 6.59375 51.859375 
L 14.5 51.859375 
L 14.5 44.484375 
Q 20.21875 53.03125 31 53.03125 
Q 35.6875 53.03125 39.625 51.34375 
Q 43.5625 49.65625 45.515625 46.921875 
Q 47.46875 44.1875 48.25 40.4375 
Q 48.734375 37.984375 48.734375 31.890625 
L 48.734375 0 
L 39.9375 0 
L 39.9375 31.546875 
Q 39.9375 36.921875 38.90625 39.578125 
Q 37.890625 42.234375 35.28125 43.8125 
Q 32.671875 45.40625 29.15625 45.40625 
Q 23.53125 45.40625 19.453125 41.84375 
Q 15.375 38.28125 15.375 28.328125 
L 15.375 0 
z
" id="ArialMT-110"/>
       <path d="M 40.234375 0 
L 40.234375 6.546875 
Q 35.296875 -1.171875 25.734375 -1.171875 
Q 19.53125 -1.171875 14.328125 2.25 
Q 9.125 5.671875 6.265625 11.796875 
Q 3.421875 17.921875 3.421875 25.875 
Q 3.421875 33.640625 6 39.96875 
Q 8.59375 46.296875 13.765625 49.65625 
Q 18.953125 53.03125 25.34375 53.03125 
Q 30.03125 53.03125 33.6875 51.046875 
Q 37.359375 49.078125 39.65625 45.90625 
L 39.65625 71.578125 
L 48.390625 71.578125 
L 48.390625 0 
z
M 12.453125 25.875 
Q 12.453125 15.921875 16.640625 10.984375 
Q 20.84375 6.0625 26.5625 6.0625 
Q 32.328125 6.0625 36.34375 10.765625 
Q 40.375 15.484375 40.375 25.140625 
Q 40.375 35.796875 36.265625 40.765625 
Q 32.171875 45.75 26.171875 45.75 
Q 20.3125 45.75 16.375 40.96875 
Q 12.453125 36.1875 12.453125 25.875 
z
" id="ArialMT-100"/>
       <path d="M 6.5 0 
L 6.5 51.859375 
L 14.40625 51.859375 
L 14.40625 44 
Q 17.4375 49.515625 20 51.265625 
Q 22.5625 53.03125 25.640625 53.03125 
Q 30.078125 53.03125 34.671875 50.203125 
L 31.640625 42.046875 
Q 28.421875 43.953125 25.203125 43.953125 
Q 22.3125 43.953125 20.015625 42.21875 
Q 17.71875 40.484375 16.75 37.40625 
Q 15.28125 32.71875 15.28125 27.15625 
L 15.28125 0 
z
" id="ArialMT-114"/>
       <path id="ArialMT-32"/>
       <path d="M 6.59375 0 
L 6.59375 51.859375 
L 14.453125 51.859375 
L 14.453125 44.578125 
Q 16.890625 48.390625 20.9375 50.703125 
Q 25 53.03125 30.171875 53.03125 
Q 35.9375 53.03125 39.625 50.640625 
Q 43.3125 48.25 44.828125 43.953125 
Q 50.984375 53.03125 60.84375 53.03125 
Q 68.5625 53.03125 72.703125 48.75 
Q 76.859375 44.484375 76.859375 35.59375 
L 76.859375 0 
L 68.109375 0 
L 68.109375 32.671875 
Q 68.109375 37.9375 67.25 40.25 
Q 66.40625 42.578125 64.15625 43.984375 
Q 61.921875 45.40625 58.890625 45.40625 
Q 53.421875 45.40625 49.796875 41.765625 
Q 46.1875 38.140625 46.1875 30.125 
L 46.1875 0 
L 37.40625 0 
L 37.40625 33.6875 
Q 37.40625 39.546875 35.25 42.46875 
Q 33.109375 45.40625 28.21875 45.40625 
Q 24.515625 45.40625 21.359375 43.453125 
Q 18.21875 41.5 16.796875 37.734375 
Q 15.375 33.984375 15.375 26.90625 
L 15.375 0 
z
" id="ArialMT-109"/>
       <path d="M 3.328125 25.921875 
Q 3.328125 40.328125 11.328125 47.265625 
Q 18.015625 53.03125 27.640625 53.03125 
Q 38.328125 53.03125 45.109375 46.015625 
Q 51.90625 39.015625 51.90625 26.65625 
Q 51.90625 16.65625 48.90625 10.90625 
Q 45.90625 5.171875 40.15625 2 
Q 34.421875 -1.171875 27.640625 -1.171875 
Q 16.75 -1.171875 10.03125 5.8125 
Q 3.328125 12.796875 3.328125 25.921875 
z
M 12.359375 25.921875 
Q 12.359375 15.96875 16.703125 11.015625 
Q 21.046875 6.0625 27.640625 6.0625 
Q 34.1875 6.0625 38.53125 11.03125 
Q 42.875 16.015625 42.875 26.21875 
Q 42.875 35.84375 38.5 40.796875 
Q 34.125 45.75 27.640625 45.75 
Q 21.046875 45.75 16.703125 40.8125 
Q 12.359375 35.890625 12.359375 25.921875 
z
" id="ArialMT-111"/>
       <path d="M 6.390625 0 
L 6.390625 71.578125 
L 15.1875 71.578125 
L 15.1875 0 
z
" id="ArialMT-108"/>
       <path d="M 8.6875 0 
L 8.6875 45.015625 
L 0.921875 45.015625 
L 0.921875 51.859375 
L 8.6875 51.859375 
L 8.6875 57.375 
Q 8.6875 62.59375 9.625 65.140625 
Q 10.890625 68.5625 14.078125 70.671875 
Q 17.28125 72.796875 23.046875 72.796875 
Q 26.765625 72.796875 31.25 71.921875 
L 29.9375 64.265625 
Q 27.203125 64.75 24.75 64.75 
Q 20.75 64.75 19.09375 63.03125 
Q 17.4375 61.328125 17.4375 56.640625 
L 17.4375 51.859375 
L 27.546875 51.859375 
L 27.546875 45.015625 
L 17.4375 45.015625 
L 17.4375 0 
z
" id="ArialMT-102"/>
       <path d="M 42.09375 16.703125 
L 51.171875 15.578125 
Q 49.03125 7.625 43.21875 3.21875 
Q 37.40625 -1.171875 28.375 -1.171875 
Q 17 -1.171875 10.328125 5.828125 
Q 3.65625 12.84375 3.65625 25.484375 
Q 3.65625 38.578125 10.390625 45.796875 
Q 17.140625 53.03125 27.875 53.03125 
Q 38.28125 53.03125 44.875 45.953125 
Q 51.46875 38.875 51.46875 26.03125 
Q 51.46875 25.25 51.421875 23.6875 
L 12.75 23.6875 
Q 13.234375 15.140625 17.578125 10.59375 
Q 21.921875 6.0625 28.421875 6.0625 
Q 33.25 6.0625 36.671875 8.59375 
Q 40.09375 11.140625 42.09375 16.703125 
z
M 13.234375 30.90625 
L 42.1875 30.90625 
Q 41.609375 37.453125 38.875 40.71875 
Q 34.671875 45.796875 27.984375 45.796875 
Q 21.921875 45.796875 17.796875 41.75 
Q 13.671875 37.703125 13.234375 30.90625 
z
" id="ArialMT-101"/>
       <path d="M 4.984375 -4.296875 
L 13.53125 -5.5625 
Q 14.0625 -9.515625 16.5 -11.328125 
Q 19.78125 -13.765625 25.4375 -13.765625 
Q 31.546875 -13.765625 34.859375 -11.328125 
Q 38.1875 -8.890625 39.359375 -4.5 
Q 40.046875 -1.8125 39.984375 6.78125 
Q 34.234375 0 25.640625 0 
Q 14.9375 0 9.078125 7.71875 
Q 3.21875 15.4375 3.21875 26.21875 
Q 3.21875 33.640625 5.90625 39.90625 
Q 8.59375 46.1875 13.6875 49.609375 
Q 18.796875 53.03125 25.6875 53.03125 
Q 34.859375 53.03125 40.828125 45.609375 
L 40.828125 51.859375 
L 48.921875 51.859375 
L 48.921875 7.03125 
Q 48.921875 -5.078125 46.453125 -10.125 
Q 44 -15.1875 38.640625 -18.109375 
Q 33.296875 -21.046875 25.484375 -21.046875 
Q 16.21875 -21.046875 10.5 -16.875 
Q 4.78125 -12.703125 4.984375 -4.296875 
z
M 12.25 26.859375 
Q 12.25 16.65625 16.296875 11.96875 
Q 20.359375 7.28125 26.46875 7.28125 
Q 32.515625 7.28125 36.609375 11.9375 
Q 40.71875 16.609375 40.71875 26.5625 
Q 40.71875 36.078125 36.5 40.90625 
Q 32.28125 45.75 26.3125 45.75 
Q 20.453125 45.75 16.34375 40.984375 
Q 12.25 36.234375 12.25 26.859375 
z
" id="ArialMT-103"/>
       <path d="M 6.203125 -19.96875 
L 5.21875 -11.71875 
Q 8.109375 -12.5 10.25 -12.5 
Q 13.1875 -12.5 14.9375 -11.515625 
Q 16.703125 -10.546875 17.828125 -8.796875 
Q 18.65625 -7.46875 20.515625 -2.25 
Q 20.75 -1.515625 21.296875 -0.09375 
L 1.609375 51.859375 
L 11.078125 51.859375 
L 21.875 21.828125 
Q 23.96875 16.109375 25.640625 9.8125 
Q 27.15625 15.875 29.25 21.625 
L 40.328125 51.859375 
L 49.125 51.859375 
L 29.390625 -0.875 
Q 26.21875 -9.421875 24.46875 -12.640625 
Q 22.125 -17 19.09375 -19.015625 
Q 16.0625 -21.046875 11.859375 -21.046875 
Q 9.328125 -21.046875 6.203125 -19.96875 
z
" id="ArialMT-121"/>
       <path d="M 23.390625 -21.046875 
Q 16.109375 -11.859375 11.078125 0.4375 
Q 6.0625 12.75 6.0625 25.921875 
Q 6.0625 37.546875 9.8125 48.1875 
Q 14.203125 60.546875 23.390625 72.796875 
L 29.6875 72.796875 
Q 23.78125 62.640625 21.875 58.296875 
Q 18.890625 51.5625 17.1875 44.234375 
Q 15.09375 35.109375 15.09375 25.875 
Q 15.09375 2.390625 29.6875 -21.046875 
z
" id="ArialMT-40"/>
       <path d="M 6.640625 0 
L 6.640625 71.578125 
L 15.4375 71.578125 
L 15.4375 30.765625 
L 36.234375 51.859375 
L 47.609375 51.859375 
L 27.78125 32.625 
L 49.609375 0 
L 38.765625 0 
L 21.625 26.515625 
L 15.4375 20.5625 
L 15.4375 0 
z
" id="ArialMT-107"/>
       <path d="M 2.875 20.3125 
L 11.421875 21.484375 
Q 11.765625 13.28125 14.5 10.25 
Q 17.234375 7.234375 22.078125 7.234375 
Q 25.640625 7.234375 28.21875 8.859375 
Q 30.8125 10.5 31.78125 13.296875 
Q 32.765625 16.109375 32.765625 22.265625 
L 32.765625 71.578125 
L 42.234375 71.578125 
L 42.234375 22.796875 
Q 42.234375 13.8125 40.0625 8.875 
Q 37.890625 3.953125 33.171875 1.359375 
Q 28.46875 -1.21875 22.125 -1.21875 
Q 12.703125 -1.21875 7.6875 4.203125 
Q 2.6875 9.625 2.875 20.3125 
z
" id="ArialMT-74"/>
       <path d="M 0 -1.21875 
L 20.75 72.796875 
L 27.78125 72.796875 
L 7.078125 -1.21875 
z
" id="ArialMT-47"/>
       <path d="M 12.359375 -21.046875 
L 6.0625 -21.046875 
Q 20.65625 2.390625 20.65625 25.875 
Q 20.65625 35.0625 18.5625 44.09375 
Q 16.890625 51.421875 13.921875 58.15625 
Q 12.015625 62.546875 6.0625 72.796875 
L 12.359375 72.796875 
Q 21.53125 60.546875 25.921875 48.1875 
Q 29.6875 37.546875 29.6875 25.921875 
Q 29.6875 12.75 24.625 0.4375 
Q 19.578125 -11.859375 12.359375 -21.046875 
z
" id="ArialMT-41"/>
      </defs>
      <use xlink:href="#ArialMT-115"/>
      <use x="50" xlink:href="#ArialMT-116"/>
      <use x="77.783203" xlink:href="#ArialMT-97"/>
      <use x="133.398438" xlink:href="#ArialMT-110"/>
      <use x="189.013672" xlink:href="#ArialMT-100"/>
      <use x="244.628906" xlink:href="#ArialMT-97"/>
      <use x="300.244141" xlink:href="#ArialMT-114"/>
      <use x="333.544922" xlink:href="#ArialMT-100"/>
      <use x="389.160156" xlink:href="#ArialMT-32"/>
      <use x="416.943359" xlink:href="#ArialMT-109"/>
      <use x="500.244141" xlink:href="#ArialMT-111"/>
      <use x="555.859375" xlink:href="#ArialMT-108"/>
      <use x="578.076172" xlink:href="#ArialMT-97"/>
      <use x="633.691406" xlink:href="#ArialMT-114"/>
      <use x="666.992188" xlink:href="#ArialMT-32"/>
      <use x="694.775391" xlink:href="#ArialMT-102"/>
      <use x="722.558594" xlink:href="#ArialMT-114"/>
      <use x="755.859375" xlink:href="#ArialMT-101"/>
      <use x="811.474609" xlink:href="#ArialMT-101"/>
      <use x="867.089844" xlink:href="#ArialMT-32"/>
      <use x="894.873047" xlink:href="#ArialMT-101"/>
      <use x="950.488281" xlink:href="#ArialMT-110"/>
      <use x="1006.103516" xlink:href="#ArialMT-101"/>
      <use x="1061.71875" xlink:href="#ArialMT-114"/>
      <use x="1095.019531" xlink:href="#ArialMT-103"/>
      <use x="1150.634766" xlink:href="#ArialMT-121"/>
      <use x="1200.634766" xlink:href="#ArialMT-32"/>
      <use x="1228.417969" xlink:href="#ArialMT-40"/>
      <use x="1261.71875" xlink:href="#ArialMT-107"/>
      <use x="1311.71875" xlink:href="#ArialMT-74"/>
      <use x="1361.71875" xlink:href="#ArialMT-47"/>
      <use x="1389.501953" xlink:href="#ArialMT-109"/>
      <use x="1472.802734" xlink:href="#ArialMT-111"/>
      <use x="1528.417969" xlink:href="#ArialMT-108"/>
      <use x="1550.634766" xlink:href="#ArialMT-41"/>
     </g>
    </g>
   </g>
   <g id="matplotlib.axis_2">
    <g id="ytick_1">
     <g id="line2d_6">
      <defs>
       <path d="M 0 0 
L -3.5 0 
" id="m9231a59eab" style="stroke:#000000;stroke-width:0.8;"/>
      </defs>
      <g>
       <use style="stroke:#000000;stroke-width:0.8;" x="44.675" xlink:href="#m9231a59eab" y="248.2"/>
      </g>
     </g>
     <g id="text_7">
      <!-- 0.0 -->
      <g transform="translate(23.775 251.778906)scale(0.1 -0.1)">
       <defs>
        <path d="M 9.078125 0 
L 9.078125 10.015625 
L 19.09375 10.015625 
L 19.09375 0 
z
" id="ArialMT-46"/>
       </defs>
       <use xlink:href="#ArialMT-48"/>
       <use x="55.615234" xlink:href="#ArialMT-46"/>
       <use x="83.398438" xlink:href="#ArialMT-48"/>
      </g>
     </g>
    </g>
    <g id="ytick_2">
     <g id="line2d_7">
      <g>
       <use style="stroke:#000000;stroke-width:0.8;" x="44.675" xlink:href="#m9231a59eab" y="201.42"/>
      </g>
     </g>
     <g id="text_8">
      <!-- 0.2 -->
      <g transform="translate(23.775 204.998906)scale(0.1 -0.1)">
       <use xlink:href="#ArialMT-48"/>
       <use x="55.615234" xlink:href="#ArialMT-46"/>
       <use x="83.398438" xlink:href="#ArialMT-50"/>
      </g>
     </g>
    </g>
    <g id="ytick_3">
     <g id="line2d_8">
      <g>
       <use style="stroke:#000000;stroke-width:0.8;" x="44.675" xlink:href="#m9231a59eab" y="154.64"/>
      </g>
     </g>
     <g id="text_9">
      <!-- 0.4 -->
      <g transform="translate(23.775 158.218906)scale(0.1 -0.1)">
       <defs>
        <path d="M 32.328125 0 
L 32.328125 17.140625 
L 1.265625 17.140625 
L 1.265625 25.203125 
L 33.9375 71.578125 
L 41.109375 71.578125 
L 41.109375 25.203125 
L 50.78125 25.203125 
L 50.78125 17.140625 
L 41.109375 17.140625 
L 41.109375 0 
z
M 32.328125 25.203125 
L 32.328125 57.46875 
L 9.90625 25.203125 
z
" id="ArialMT-52"/>
       </defs>
       <use xlink:href="#ArialMT-48"/>
       <use x="55.615234" xlink:href="#ArialMT-46"/>
       <use x="83.398438" xlink:href="#ArialMT-52"/>
      </g>
     </g>
    </g>
    <g id="ytick_4">
     <g id="line2d_9">
      <g>
       <use style="stroke:#000000;stroke-width:0.8;" x="44.675" xlink:href="#m9231a59eab" y="107.86"/>
      </g>
     </g>
     <g id="text_10">
      <!-- 0.6 -->
      <g transform="translate(23.775 111.438906)scale(0.1 -0.1)">
       <defs>
        <path d="M 49.75 54.046875 
L 41.015625 53.375 
Q 39.84375 58.546875 37.703125 60.890625 
Q 34.125 64.65625 28.90625 64.65625 
Q 24.703125 64.65625 21.53125 62.3125 
Q 17.390625 59.28125 14.984375 53.46875 
Q 12.59375 47.65625 12.5 36.921875 
Q 15.671875 41.75 20.265625 44.09375 
Q 24.859375 46.4375 29.890625 46.4375 
Q 38.671875 46.4375 44.84375 39.96875 
Q 51.03125 33.5 51.03125 23.25 
Q 51.03125 16.5 48.125 10.71875 
Q 45.21875 4.9375 40.140625 1.859375 
Q 35.0625 -1.21875 28.609375 -1.21875 
Q 17.625 -1.21875 10.6875 6.859375 
Q 3.765625 14.9375 3.765625 33.5 
Q 3.765625 54.25 11.421875 63.671875 
Q 18.109375 71.875 29.4375 71.875 
Q 37.890625 71.875 43.28125 67.140625 
Q 48.6875 62.40625 49.75 54.046875 
z
M 13.875 23.1875 
Q 13.875 18.65625 15.796875 14.5 
Q 17.71875 10.359375 21.1875 8.171875 
Q 24.65625 6 28.46875 6 
Q 34.03125 6 38.03125 10.484375 
Q 42.046875 14.984375 42.046875 22.703125 
Q 42.046875 30.125 38.078125 34.390625 
Q 34.125 38.671875 28.125 38.671875 
Q 22.171875 38.671875 18.015625 34.390625 
Q 13.875 30.125 13.875 23.1875 
z
" id="ArialMT-54"/>
       </defs>
       <use xlink:href="#ArialMT-48"/>
       <use x="55.615234" xlink:href="#ArialMT-46"/>
       <use x="83.398438" xlink:href="#ArialMT-54"/>
      </g>
     </g>
    </g>
    <g id="ytick_5">
     <g id="line2d_10">
      <g>
       <use style="stroke:#000000;stroke-width:0.8;" x="44.675" xlink:href="#m9231a59eab" y="61.08"/>
      </g>
     </g>
     <g id="text_11">
      <!-- 0.8 -->
      <g transform="translate(23.775 64.658906)scale(0.1 -0.1)">
       <defs>
        <path d="M 17.671875 38.8125 
Q 12.203125 40.828125 9.5625 44.53125 
Q 6.9375 48.25 6.9375 53.421875 
Q 6.9375 61.234375 12.546875 66.546875 
Q 18.171875 71.875 27.484375 71.875 
Q 36.859375 71.875 42.578125 66.421875 
Q 48.296875 60.984375 48.296875 53.171875 
Q 48.296875 48.1875 45.671875 44.5 
Q 43.0625 40.828125 37.75 38.8125 
Q 44.34375 36.671875 47.78125 31.875 
Q 51.21875 27.09375 51.21875 20.453125 
Q 51.21875 11.28125 44.71875 5.03125 
Q 38.234375 -1.21875 27.640625 -1.21875 
Q 17.046875 -1.21875 10.546875 5.046875 
Q 4.046875 11.328125 4.046875 20.703125 
Q 4.046875 27.6875 7.59375 32.390625 
Q 11.140625 37.109375 17.671875 38.8125 
z
M 15.921875 53.71875 
Q 15.921875 48.640625 19.1875 45.40625 
Q 22.46875 42.1875 27.6875 42.1875 
Q 32.765625 42.1875 36.015625 45.375 
Q 39.265625 48.578125 39.265625 53.21875 
Q 39.265625 58.0625 35.90625 61.359375 
Q 32.5625 64.65625 27.59375 64.65625 
Q 22.5625 64.65625 19.234375 61.421875 
Q 15.921875 58.203125 15.921875 53.71875 
z
M 13.09375 20.65625 
Q 13.09375 16.890625 14.875 13.375 
Q 16.65625 9.859375 20.171875 7.921875 
Q 23.6875 6 27.734375 6 
Q 34.03125 6 38.125 10.046875 
Q 42.234375 14.109375 42.234375 20.359375 
Q 42.234375 26.703125 38.015625 30.859375 
Q 33.796875 35.015625 27.4375 35.015625 
Q 21.234375 35.015625 17.15625 30.90625 
Q 13.09375 26.8125 13.09375 20.65625 
z
" id="ArialMT-56"/>
       </defs>
       <use xlink:href="#ArialMT-48"/>
       <use x="55.615234" xlink:href="#ArialMT-46"/>
       <use x="83.398438" xlink:href="#ArialMT-56"/>
      </g>
     </g>
    </g>
    <g id="ytick_6">
     <g id="line2d_11">
      <g>
       <use style="stroke:#000000;stroke-width:0.8;" x="44.675" xlink:href="#m9231a59eab" y="14.3"/>
      </g>
     </g>
     <g id="text_12">
      <!-- 1.0 -->
      <g transform="translate(23.775 17.878906)scale(0.1 -0.1)">
       <use xlink:href="#ArialMT-49"/>
       <use x="55.615234" xlink:href="#ArialMT-46"/>
       <use x="83.398438" xlink:href="#ArialMT-48"/>
      </g>
     </g>
    </g>
    <g id="text_13">
     <!-- Proportion -->
     <g transform="translate(17.7875 154.317187)rotate(-90)scale(0.1 -0.1)">
      <defs>
       <path d="M 7.71875 0 
L 7.71875 71.578125 
L 34.71875 71.578125 
Q 41.84375 71.578125 45.609375 70.90625 
Q 50.875 70.015625 54.4375 67.546875 
Q 58.015625 65.09375 60.1875 60.640625 
Q 62.359375 56.203125 62.359375 50.875 
Q 62.359375 41.75 56.546875 35.421875 
Q 50.734375 29.109375 35.546875 29.109375 
L 17.1875 29.109375 
L 17.1875 0 
z
M 17.1875 37.546875 
L 35.6875 37.546875 
Q 44.875 37.546875 48.734375 40.96875 
Q 52.59375 44.390625 52.59375 50.59375 
Q 52.59375 55.078125 50.3125 58.265625 
Q 48.046875 61.46875 44.34375 62.5 
Q 41.9375 63.140625 35.5 63.140625 
L 17.1875 63.140625 
z
" id="ArialMT-80"/>
       <path d="M 6.59375 -19.875 
L 6.59375 51.859375 
L 14.59375 51.859375 
L 14.59375 45.125 
Q 17.4375 49.078125 21 51.046875 
Q 24.5625 53.03125 29.640625 53.03125 
Q 36.28125 53.03125 41.359375 49.609375 
Q 46.4375 46.1875 49.015625 39.953125 
Q 51.609375 33.734375 51.609375 26.3125 
Q 51.609375 18.359375 48.75 11.984375 
Q 45.90625 5.609375 40.453125 2.21875 
Q 35.015625 -1.171875 29 -1.171875 
Q 24.609375 -1.171875 21.109375 0.6875 
Q 17.625 2.546875 15.375 5.375 
L 15.375 -19.875 
z
M 14.546875 25.640625 
Q 14.546875 15.625 18.59375 10.84375 
Q 22.65625 6.0625 28.421875 6.0625 
Q 34.28125 6.0625 38.453125 11.015625 
Q 42.625 15.96875 42.625 26.375 
Q 42.625 36.28125 38.546875 41.203125 
Q 34.46875 46.140625 28.8125 46.140625 
Q 23.1875 46.140625 18.859375 40.890625 
Q 14.546875 35.640625 14.546875 25.640625 
z
" id="ArialMT-112"/>
       <path d="M 6.640625 61.46875 
L 6.640625 71.578125 
L 15.4375 71.578125 
L 15.4375 61.46875 
z
M 6.640625 0 
L 6.640625 51.859375 
L 15.4375 51.859375 
L 15.4375 0 
z
" id="ArialMT-105"/>
      </defs>
      <use xlink:href="#ArialMT-80"/>
      <use x="66.699219" xlink:href="#ArialMT-114"/>
      <use x="100" xlink:href="#ArialMT-111"/>
      <use x="155.615234" xlink:href="#ArialMT-112"/>
      <use x="211.230469" xlink:href="#ArialMT-111"/>
      <use x="266.845703" xlink:href="#ArialMT-114"/>
      <use x="300.146484" xlink:href="#ArialMT-116"/>
      <use x="327.929688" xlink:href="#ArialMT-105"/>
      <use x="350.146484" xlink:href="#ArialMT-111"/>
      <use x="405.761719" xlink:href="#ArialMT-110"/>
     </g>
    </g>
   </g>
   <g id="line2d_12">
    <path clip-path="url(#pc31463a130)" d="M 144.777328 248.2 
L 144.777328 224.81 
L 148.965329 224.81 
L 148.965329 201.42 
L 152.652591 201.42 
L 152.652591 178.03 
L 153.244374 178.03 
L 153.244374 154.64 
L 157.341331 154.64 
L 157.341331 131.25 
L 158.206244 131.25 
L 158.206244 107.86 
L 159.66294 107.86 
L 159.66294 84.47 
L 162.439767 84.47 
L 162.439767 61.08 
L 164.897942 61.08 
L 164.897942 37.69 
L 169.359073 37.69 
L 169.359073 14.3 
" style="fill:none;stroke:#1b9e77;stroke-linecap:square;stroke-width:1.5;"/>
   </g>
   <g id="line2d_13">
    <path clip-path="url(#pc31463a130)" d="M 145.642242 248.2 
L 145.642242 214.785714 
L 157.523418 214.785714 
L 157.523418 181.371429 
L 158.251766 181.371429 
L 158.251766 147.957143 
L 163.987507 147.957143 
L 163.987507 114.542857 
L 165.034507 114.542857 
L 165.034507 81.128571 
L 165.944942 81.128571 
L 165.944942 47.714286 
L 170.269508 47.714286 
L 170.269508 14.3 
" style="fill:none;stroke:#666666;stroke-linecap:square;stroke-width:1.5;"/>
   </g>
   <g id="line2d_14">
    <path clip-path="url(#pc31463a130)" d="M -1 247.279134 
L 64.112787 247.279134 
L 64.112787 246.358268 
L 143.821371 246.358268 
L 143.821371 245.437402 
L 144.913894 245.437402 
L 144.913894 244.516535 
L 145.323589 244.516535 
L 145.323589 243.595669 
L 145.86985 243.595669 
L 145.86985 242.674803 
L 146.006416 242.674803 
L 146.006416 241.753937 
L 146.461633 241.753937 
L 146.461633 239.912205 
L 149.466069 239.912205 
L 149.466069 238.991339 
L 150.103373 238.991339 
L 150.103373 237.149606 
L 150.922764 237.149606 
L 150.922764 236.22874 
L 152.015287 236.22874 
L 152.015287 235.307874 
L 152.37946 235.307874 
L 152.470504 233.466142 
L 153.790635 233.466142 
L 153.790635 232.545276 
L 154.063765 232.545276 
L 154.109287 230.703543 
L 154.200331 230.703543 
L 154.200331 229.782677 
L 154.336896 229.782677 
L 154.336896 228.861811 
L 154.746591 228.861811 
L 154.746591 227.940945 
L 155.611505 227.940945 
L 155.611505 227.020079 
L 155.975679 227.020079 
L 155.975679 226.099213 
L 156.248809 226.099213 
L 156.294331 224.25748 
L 156.476418 224.25748 
L 156.52194 222.415748 
L 156.79507 222.415748 
L 156.840592 219.65315 
L 157.068201 219.65315 
L 157.068201 218.732283 
L 157.204766 218.732283 
L 157.29581 214.127953 
L 157.432375 214.127953 
L 157.477897 210.444488 
L 157.659984 210.444488 
L 157.751027 208.602756 
L 157.978636 208.602756 
L 157.978636 207.68189 
L 158.433853 207.68189 
L 158.479375 202.156693 
L 158.61594 202.156693 
L 158.706984 198.473228 
L 158.752506 198.473228 
L 158.752506 197.552362 
L 158.980114 197.552362 
L 158.980114 196.631496 
L 159.11668 196.631496 
L 159.162201 194.789764 
L 159.344288 194.789764 
L 159.435332 191.106299 
L 159.526375 191.106299 
L 159.617419 186.501969 
L 159.66294 186.501969 
L 159.708462 184.660236 
L 159.890549 184.660236 
L 159.981593 180.055906 
L 160.027115 180.055906 
L 160.027115 179.135039 
L 160.16368 179.135039 
L 160.16368 178.214173 
L 160.300245 178.214173 
L 160.391289 175.451575 
L 160.573375 175.451575 
L 160.573375 173.609843 
L 160.709941 173.609843 
L 160.800984 170.847244 
L 160.846506 170.847244 
L 160.846506 167.16378 
L 160.983071 167.16378 
L 161.074115 165.322047 
L 161.21068 165.322047 
L 161.21068 164.401181 
L 161.392767 164.401181 
L 161.483811 160.717717 
L 161.529332 160.717717 
L 161.620376 157.034252 
L 161.756941 157.034252 
L 161.756941 156.113386 
L 161.939028 156.113386 
L 161.98455 154.271654 
L 162.166637 154.271654 
L 162.25768 152.429921 
L 162.576333 152.429921 
L 162.621854 146.904724 
L 162.712898 146.904724 
L 162.803941 144.142126 
L 162.986028 144.142126 
L 163.077072 137.696063 
L 163.168115 137.696063 
L 163.259159 135.854331 
L 163.441246 135.854331 
L 163.532289 131.25 
L 163.577811 131.25 
L 163.623333 129.408268 
L 163.714376 129.408268 
L 163.80542 127.566535 
L 163.850942 127.566535 
L 163.941985 125.724803 
L 163.987507 125.724803 
L 164.07855 119.27874 
L 164.124072 119.27874 
L 164.215115 117.437008 
L 164.306159 117.437008 
L 164.397202 113.753543 
L 164.442724 113.753543 
L 164.442724 112.832677 
L 164.624811 112.832677 
L 164.715855 109.149213 
L 164.897942 109.149213 
L 164.897942 107.30748 
L 165.125551 107.30748 
L 165.216594 101.782283 
L 165.262116 101.782283 
L 165.307637 99.019685 
L 165.535246 99.019685 
L 165.580768 96.257087 
L 165.762855 96.257087 
L 165.762855 95.33622 
L 165.89942 95.33622 
L 165.990464 93.494488 
L 166.127029 93.494488 
L 166.172551 91.652756 
L 166.354638 91.652756 
L 166.354638 88.890157 
L 166.536725 88.890157 
L 166.536725 87.969291 
L 166.67329 87.969291 
L 166.764333 86.127559 
L 166.809855 86.127559 
L 166.809855 85.206693 
L 167.082986 85.206693 
L 167.128508 83.364961 
L 167.219551 83.364961 
L 167.219551 79.681496 
L 167.811334 79.681496 
L 167.811334 77.839764 
L 167.947899 77.839764 
L 168.038943 75.998031 
L 168.266551 75.998031 
L 168.312073 74.156299 
L 168.539682 74.156299 
L 168.630725 72.314567 
L 168.721769 72.314567 
L 168.812812 69.551969 
L 168.858334 69.551969 
L 168.858334 67.710236 
L 168.994899 67.710236 
L 169.085943 62.185039 
L 169.131464 62.185039 
L 169.131464 61.264173 
L 169.26803 61.264173 
L 169.26803 59.422441 
L 169.450117 59.422441 
L 169.54116 54.81811 
L 169.632204 54.81811 
L 169.677726 52.055512 
L 169.768769 52.055512 
L 169.859813 49.292913 
L 169.950856 49.292913 
L 170.041899 47.451181 
L 170.223986 47.451181 
L 170.223986 46.530315 
L 170.360552 46.530315 
L 170.360552 45.609449 
L 170.497117 45.609449 
L 170.588161 43.767717 
L 170.770248 43.767717 
L 170.770248 42.84685 
L 170.906813 42.84685 
L 170.997856 41.005118 
L 171.453074 41.005118 
L 171.453074 39.163386 
L 171.635161 39.163386 
L 171.680683 37.321654 
L 171.999335 37.321654 
L 171.999335 36.400787 
L 172.454552 36.400787 
L 172.545596 34.559055 
L 172.591117 34.559055 
L 172.682161 31.796457 
L 172.773204 31.796457 
L 172.773204 30.875591 
L 173.046335 30.875591 
L 173.046335 29.954724 
L 173.592596 29.954724 
L 173.638118 28.112992 
L 173.774683 28.112992 
L 173.865726 26.27126 
L 174.366466 26.27126 
L 174.366466 25.350394 
L 175.185857 25.350394 
L 175.185857 24.429528 
L 182.378294 24.429528 
L 182.378294 23.508661 
L 183.698425 23.508661 
L 183.698425 22.587795 
L 185.155121 22.587795 
L 185.155121 21.666929 
L 186.42973 21.666929 
L 186.42973 20.746063 
L 187.613295 20.746063 
L 187.613295 19.825197 
L 209.463735 19.825197 
L 209.463735 18.904331 
L 230.904479 18.904331 
L 230.904479 17.062598 
L 399.289432 17.062598 
L 399.289432 16.141732 
L 492.625 16.141732 
L 492.625 16.141732 
" style="fill:none;stroke:#a6761d;stroke-linecap:square;stroke-width:1.5;"/>
   </g>
   <g id="line2d_15">
    <path clip-path="url(#pc31463a130)" d="M 14.585123 248.2 
L 14.585123 245.62967 
L 105.446536 245.62967 
L 105.446536 243.059341 
L 139.36024 243.059341 
L 139.36024 240.489011 
L 139.952023 240.489011 
L 139.952023 237.918681 
L 140.953501 237.918681 
L 140.953501 235.348352 
L 142.410197 235.348352 
L 142.455719 230.207692 
L 142.683328 230.207692 
L 142.683328 227.637363 
L 142.819893 227.637363 
L 142.819893 225.067033 
L 143.593763 225.067033 
L 143.639285 189.082418 
L 143.866893 189.082418 
L 143.866893 186.512088 
L 146.598198 186.512088 
L 146.598198 183.941758 
L 147.281025 183.941758 
L 147.281025 181.371429 
L 147.736242 181.371429 
L 147.736242 178.801099 
L 148.828764 178.801099 
L 148.828764 173.66044 
L 149.51159 173.66044 
L 149.51159 171.09011 
L 150.740678 171.09011 
L 150.740678 168.51978 
L 152.424982 168.51978 
L 152.516026 163.379121 
L 154.018244 163.379121 
L 154.018244 160.808791 
L 154.70107 160.808791 
L 154.792113 155.668132 
L 154.883157 155.668132 
L 154.928679 150.527473 
L 156.0212 150.527473 
L 156.066722 142.816484 
L 156.430896 142.816484 
L 156.430896 140.246154 
L 158.206244 140.246154 
L 158.206244 137.675824 
L 158.798027 137.675824 
L 158.798027 135.105495 
L 159.708462 135.105495 
L 159.708462 132.535165 
L 160.118158 132.535165 
L 160.118158 129.964835 
L 161.529332 129.964835 
L 161.529332 127.394505 
L 162.212159 127.394505 
L 162.212159 124.824176 
L 162.803941 124.824176 
L 162.849463 119.683516 
L 164.397202 119.683516 
L 164.397202 117.113187 
L 165.262116 117.113187 
L 165.262116 114.542857 
L 165.944942 114.542857 
L 165.944942 111.972527 
L 166.081507 111.972527 
L 166.172551 106.831868 
L 166.354638 106.831868 
L 166.354638 104.261538 
L 166.67329 104.261538 
L 166.67329 101.691209 
L 166.946421 101.691209 
L 166.946421 99.120879 
L 167.674768 99.120879 
L 167.765812 93.98022 
L 167.811334 93.98022 
L 167.902377 86.269231 
L 167.947899 86.269231 
L 168.038943 81.128571 
L 168.129986 81.128571 
L 168.129986 78.558242 
L 168.448638 78.558242 
L 168.448638 73.417582 
L 168.858334 73.417582 
L 168.949377 68.276923 
L 169.040421 68.276923 
L 169.040421 65.706593 
L 169.677726 65.706593 
L 169.677726 63.136264 
L 169.950856 63.136264 
L 169.996378 42.573626 
L 170.542639 42.573626 
L 170.542639 40.003297 
L 170.952335 40.003297 
L 170.952335 34.862637 
L 171.407552 34.862637 
L 171.407552 32.292308 
L 172.1359 32.292308 
L 172.181422 27.151648 
L 172.727683 27.151648 
L 172.727683 24.581319 
L 173.364987 24.581319 
L 173.364987 22.010989 
L 174.229901 22.010989 
L 174.229901 19.440659 
L 177.917162 19.440659 
L 177.917162 16.87033 
L 237.823785 16.87033 
L 237.823785 14.3 
L 237.823785 14.3 
" style="fill:none;stroke:#e6ab02;stroke-linecap:square;stroke-width:1.5;"/>
   </g>
   <g id="line2d_16">
    <path clip-path="url(#pc31463a130)" d="M 148.373547 248.2 
L 148.373547 222.211111 
L 150.558591 222.211111 
L 150.558591 196.222222 
L 150.968286 196.222222 
L 150.968286 170.233333 
L 158.752506 170.233333 
L 158.752506 144.244444 
L 159.11668 144.244444 
L 159.11668 118.255556 
L 159.11668 118.255556 
L 159.11668 92.266667 
L 160.573375 92.266667 
L 160.573375 66.277778 
L 170.724726 66.277778 
L 170.724726 40.288889 
L 299.5968 40.288889 
L 299.5968 14.3 
" style="fill:none;stroke:#66a61e;stroke-linecap:square;stroke-width:1.5;"/>
   </g>
   <g id="line2d_17">
    <path clip-path="url(#pc31463a130)" d="M 127.296976 248.2 
L 127.296976 189.725 
L 148.19146 189.725 
L 148.19146 131.25 
L 148.601155 131.25 
L 148.601155 72.775 
L 157.978636 72.775 
L 157.978636 14.3 
" style="fill:none;stroke:#e7298a;stroke-linecap:square;stroke-width:1.5;"/>
   </g>
   <g id="line2d_18">
    <path clip-path="url(#pc31463a130)" d="M 14.585123 248.2 
L 14.585123 239.537037 
L 150.28546 239.537037 
L 150.28546 230.874074 
L 154.109287 230.874074 
L 154.109287 222.211111 
L 157.204766 222.211111 
L 157.204766 213.548148 
L 157.614462 213.548148 
L 157.614462 204.885185 
L 159.071158 204.885185 
L 159.071158 196.222222 
L 161.028593 196.222222 
L 161.028593 187.559259 
L 162.75842 187.559259 
L 162.75842 178.896296 
L 164.57929 178.896296 
L 164.57929 170.233333 
L 170.497117 170.233333 
L 170.497117 161.57037 
L 171.043378 161.57037 
L 171.043378 152.907407 
L 174.002292 152.907407 
L 174.002292 144.244444 
L 176.688075 144.244444 
L 176.688075 135.581481 
L 177.735075 135.581481 
L 177.735075 126.918519 
L 179.009684 126.918519 
L 179.009684 118.255556 
L 179.510424 118.255556 
L 179.510424 109.592593 
L 179.510424 109.592593 
L 179.510424 100.92963 
L 179.510424 100.92963 
L 179.510424 92.266667 
L 179.510424 92.266667 
L 179.510424 83.603704 
L 179.510424 83.603704 
L 179.510424 74.940741 
L 179.510424 74.940741 
L 179.510424 66.277778 
L 179.510424 66.277778 
L 179.510424 57.614815 
L 179.510424 57.614815 
L 179.510424 48.951852 
L 179.510424 48.951852 
L 179.510424 40.288889 
L 179.510424 40.288889 
L 179.510424 31.625926 
L 179.510424 31.625926 
L 179.510424 22.962963 
L 180.46638 22.962963 
L 180.46638 14.3 
" style="fill:none;stroke:#7570b3;stroke-linecap:square;stroke-width:1.5;"/>
   </g>
   <g id="line2d_19">
    <path clip-path="url(#pc31463a130)" d="M 111.910625 248.2 
L 111.910625 247.497598 
L 115.68893 247.497598 
L 115.68893 246.795195 
L 120.605279 246.795195 
L 120.605279 246.092793 
L 123.200019 246.092793 
L 123.200019 245.39039 
L 127.752194 245.39039 
L 127.752194 244.687988 
L 131.894673 244.687988 
L 131.894673 243.985586 
L 134.307326 243.985586 
L 134.307326 243.283183 
L 137.311761 243.283183 
L 137.402805 241.878378 
L 137.53937 241.878378 
L 137.53937 241.175976 
L 139.906501 241.175976 
L 139.952023 239.771171 
L 140.680371 239.771171 
L 140.680371 239.068769 
L 140.816936 239.068769 
L 140.816936 238.366366 
L 140.999023 238.366366 
L 140.999023 237.663964 
L 141.226632 237.663964 
L 141.226632 236.961562 
L 141.45424 236.961562 
L 141.545284 234.854354 
L 142.046023 234.854354 
L 142.091545 228.532733 
L 142.22811 228.532733 
L 142.22811 227.83033 
L 142.455719 227.83033 
L 142.455719 227.127928 
L 142.637806 227.127928 
L 142.683328 225.020721 
L 142.774371 225.020721 
L 142.819893 222.211111 
L 143.184067 222.211111 
L 143.184067 221.508709 
L 143.77585 221.508709 
L 143.77585 220.806306 
L 143.957937 220.806306 
L 143.957937 220.103904 
L 144.367633 220.103904 
L 144.367633 219.401502 
L 144.959415 219.401502 
L 144.959415 218.699099 
L 145.232546 218.699099 
L 145.232546 217.996697 
L 145.733285 217.996697 
L 145.733285 217.294294 
L 146.142981 217.294294 
L 146.142981 216.591892 
L 146.507155 216.591892 
L 146.507155 215.889489 
L 147.736242 215.889489 
L 147.736242 215.187087 
L 148.145938 215.187087 
L 148.145938 214.484685 
L 148.919807 214.484685 
L 148.919807 213.782282 
L 149.329503 213.782282 
L 149.329503 213.07988 
L 149.739199 213.07988 
L 149.739199 212.377477 
L 150.831721 212.377477 
L 150.922764 210.972673 
L 151.560069 210.972673 
L 151.605591 209.567868 
L 151.742156 209.567868 
L 151.742156 208.163063 
L 151.924243 208.163063 
L 151.924243 207.460661 
L 152.197373 207.460661 
L 152.197373 206.758258 
L 152.516026 206.758258 
L 152.516026 206.055856 
L 153.426461 206.055856 
L 153.471982 202.543844 
L 153.654069 202.543844 
L 153.654069 201.139039 
L 154.837635 201.139039 
L 154.837635 200.436637 
L 155.110766 200.436637 
L 155.110766 199.031832 
L 155.429418 199.031832 
L 155.429418 198.329429 
L 155.565983 198.329429 
L 155.565983 197.627027 
L 155.839113 197.627027 
L 155.839113 196.924625 
L 156.066722 196.924625 
L 156.066722 196.222222 
L 156.294331 196.222222 
L 156.385375 194.817417 
L 157.386853 194.817417 
L 157.432375 192.007808 
L 157.796549 192.007808 
L 157.796549 191.305405 
L 158.934593 191.305405 
L 159.025636 189.900601 
L 159.435332 189.900601 
L 159.435332 189.198198 
L 159.708462 189.198198 
L 159.753984 187.793393 
L 160.345767 187.793393 
L 160.345767 187.090991 
L 160.983071 187.090991 
L 160.983071 186.388589 
L 161.119637 186.388589 
L 161.165158 183.578979 
L 161.256202 183.578979 
L 161.256202 182.876577 
L 161.392767 182.876577 
L 161.483811 180.769369 
L 161.529332 180.769369 
L 161.574854 176.554955 
L 161.665897 176.554955 
L 161.665897 175.852553 
L 161.802463 175.852553 
L 161.802463 159.697297 
L 162.075593 159.697297 
L 162.075593 158.994895 
L 162.212159 158.994895 
L 162.212159 158.292492 
L 162.348724 158.292492 
L 162.348724 157.59009 
L 162.485289 157.59009 
L 162.485289 156.887688 
L 162.849463 156.887688 
L 162.849463 156.185285 
L 162.986028 156.185285 
L 162.986028 154.78048 
L 163.122593 154.78048 
L 163.168115 153.375676 
L 163.395724 153.375676 
L 163.395724 152.673273 
L 163.577811 152.673273 
L 163.668855 151.268468 
L 163.759898 151.268468 
L 163.80542 149.863664 
L 164.124072 149.863664 
L 164.124072 149.161261 
L 164.351681 149.161261 
L 164.397202 147.756456 
L 164.488246 147.756456 
L 164.488246 147.054054 
L 164.624811 147.054054 
L 164.670333 145.649249 
L 164.761377 145.649249 
L 164.85242 144.244444 
L 164.897942 144.244444 
L 164.943464 142.137237 
L 165.034507 142.137237 
L 165.080029 140.03003 
L 165.535246 140.03003 
L 165.535246 139.327628 
L 165.717333 139.327628 
L 165.808377 137.922823 
L 165.990464 137.922823 
L 165.990464 137.22042 
L 166.40016 137.22042 
L 166.491203 135.113213 
L 166.536725 135.113213 
L 166.536725 134.410811 
L 166.67329 134.410811 
L 166.718812 133.006006 
L 166.900899 133.006006 
L 166.900899 132.303604 
L 167.082986 132.303604 
L 167.128508 130.898799 
L 167.219551 130.898799 
L 167.310595 128.791592 
L 167.401638 128.791592 
L 167.492682 125.981982 
L 167.629247 125.981982 
L 167.72029 124.577177 
L 167.856855 124.577177 
L 167.902377 122.46997 
L 168.038943 122.46997 
L 168.084464 121.065165 
L 168.22103 121.065165 
L 168.312073 108.421922 
L 168.357595 108.421922 
L 168.448638 105.612312 
L 168.721769 105.612312 
L 168.812812 103.505105 
L 168.994899 103.505105 
L 169.085943 102.1003 
L 169.176986 102.1003 
L 169.26803 100.695495 
L 169.359073 100.695495 
L 169.450117 85.945045 
L 169.768769 85.945045 
L 169.814291 83.837838 
L 169.950856 83.837838 
L 170.041899 82.433033 
L 170.132943 82.433033 
L 170.132943 81.730631 
L 170.406073 81.730631 
L 170.451595 79.623423 
L 170.633682 79.623423 
L 170.633682 78.921021 
L 170.770248 78.921021 
L 170.770248 78.218619 
L 170.906813 78.218619 
L 170.952335 76.111411 
L 171.407552 76.111411 
L 171.407552 75.409009 
L 171.999335 75.409009 
L 171.999335 74.706607 
L 172.727683 74.706607 
L 172.727683 74.004204 
L 172.90977 74.004204 
L 172.90977 73.301802 
L 173.046335 73.301802 
L 173.046335 72.599399 
L 173.1829 72.599399 
L 173.1829 71.194595 
L 173.364987 71.194595 
L 173.456031 69.087387 
L 173.592596 69.087387 
L 173.592596 68.384985 
L 173.729161 68.384985 
L 173.729161 67.682583 
L 173.865726 67.682583 
L 173.865726 66.98018 
L 174.093335 66.98018 
L 174.093335 66.277778 
L 175.231379 66.277778 
L 175.231379 65.575375 
L 175.413466 65.575375 
L 175.413466 64.872973 
L 176.187336 64.872973 
L 176.278379 62.765766 
L 176.414944 62.765766 
L 176.414944 62.063363 
L 176.961206 62.063363 
L 176.961206 61.360961 
L 177.507466 61.360961 
L 177.507466 60.658559 
L 177.644032 60.658559 
L 177.644032 59.956156 
L 177.962684 59.956156 
L 177.962684 59.253754 
L 178.144771 59.253754 
L 178.144771 58.551351 
L 178.64551 58.551351 
L 178.64551 57.848949 
L 179.237293 57.848949 
L 179.237293 57.146547 
L 180.284293 57.146547 
L 180.375337 55.741742 
L 181.376815 55.741742 
L 181.376815 55.039339 
L 182.150685 55.039339 
L 182.150685 54.336937 
L 182.332772 54.336937 
L 182.332772 51.527327 
L 182.651424 51.527327 
L 182.651424 50.824925 
L 182.78799 50.824925 
L 182.78799 50.122523 
L 184.517816 50.122523 
L 184.517816 49.42012 
L 184.927512 49.42012 
L 184.927512 48.717718 
L 185.291686 48.717718 
L 185.291686 48.015315 
L 185.883468 48.015315 
L 185.883468 44.503303 
L 186.520773 44.503303 
L 186.520773 43.800901 
L 186.748382 43.800901 
L 186.748382 43.098498 
L 186.884947 43.098498 
L 186.884947 42.396096 
L 187.203599 42.396096 
L 187.203599 41.693694 
L 187.704339 41.693694 
L 187.74986 34.66967 
L 188.114034 34.66967 
L 188.114034 33.967267 
L 188.660295 33.967267 
L 188.660295 33.264865 
L 190.481165 33.264865 
L 190.481165 32.562462 
L 193.940818 32.562462 
L 193.98634 31.157658 
L 198.538515 31.157658 
L 198.538515 28.348048 
L 198.993733 28.348048 
L 198.993733 27.645646 
L 199.813124 27.645646 
L 199.813124 26.943243 
L 200.450429 26.943243 
L 200.450429 26.240841 
L 200.905646 26.240841 
L 200.905646 25.538438 
L 203.545907 25.538438 
L 203.545907 24.836036 
L 215.745736 24.836036 
L 215.745736 24.133634 
L 216.246476 24.133634 
L 216.246476 23.431231 
L 217.293476 23.431231 
L 217.293476 22.728829 
L 225.21426 22.728829 
L 225.21426 22.026426 
L 231.359697 22.026426 
L 231.359697 21.324024 
L 236.458133 21.324024 
L 236.458133 20.621622 
L 237.823785 20.621622 
L 237.823785 19.919219 
L 240.691655 19.919219 
L 240.691655 19.216817 
L 253.073572 19.216817 
L 253.073572 18.514414 
L 261.267487 18.514414 
L 261.267487 17.812012 
L 263.862226 17.812012 
L 263.862226 17.10961 
L 272.056141 17.10961 
L 272.056141 16.407207 
L 291.175276 16.407207 
L 291.175276 15.704805 
L 307.563106 15.704805 
L 307.563106 15.002402 
L 309.383976 15.002402 
L 309.383976 14.3 
L 309.383976 14.3 
" style="fill:none;stroke:#d95f02;stroke-linecap:square;stroke-width:1.5;"/>
   </g>
   <g id="line2d_20">
    <path clip-path="url(#pc31463a130)" d="M 14.585123 248.2 
L 14.585123 247.648349 
L 111.500929 247.648349 
L 111.500929 247.096698 
L 113.412843 247.096698 
L 113.412843 245.993396 
L 118.010539 245.993396 
L 118.010539 245.441745 
L 122.744801 245.441745 
L 122.744801 244.890094 
L 126.887281 244.890094 
L 126.887281 244.338443 
L 127.205933 244.338443 
L 127.296976 241.028538 
L 131.30289 241.028538 
L 131.30289 240.476887 
L 131.530499 240.476887 
L 131.530499 239.925236 
L 131.712586 239.925236 
L 131.712586 239.373585 
L 133.852108 239.373585 
L 133.852108 238.821934 
L 135.809544 238.821934 
L 135.809544 238.270283 
L 136.037152 238.270283 
L 136.128196 237.166981 
L 136.856544 237.166981 
L 136.856544 236.61533 
L 136.993109 236.61533 
L 137.084153 235.512028 
L 137.630414 235.512028 
L 137.630414 234.960377 
L 138.631892 234.960377 
L 138.631892 234.408726 
L 138.905023 234.408726 
L 138.905023 233.857075 
L 139.087109 233.857075 
L 139.087109 233.305425 
L 139.587849 233.305425 
L 139.678892 232.202123 
L 139.952023 232.202123 
L 139.952023 231.650472 
L 140.270675 231.650472 
L 140.361718 230.54717 
L 140.543806 230.54717 
L 140.543806 229.995519 
L 140.999023 229.995519 
L 141.090067 226.133962 
L 141.135588 226.133962 
L 141.135588 225.582311 
L 141.636327 225.582311 
L 141.727371 211.791038 
L 141.772893 211.791038 
L 141.863936 208.481132 
L 141.909458 208.481132 
L 142.000502 207.37783 
L 142.091545 207.37783 
L 142.182589 206.274528 
L 142.22811 206.274528 
L 142.319154 202.964623 
L 142.364676 202.964623 
L 142.410197 201.30967 
L 142.728849 201.30967 
L 142.774371 200.206368 
L 143.366154 200.206368 
L 143.457198 199.103066 
L 143.502719 199.103066 
L 143.502719 198.551415 
L 143.912415 198.551415 
L 143.912415 197.999764 
L 144.504198 197.999764 
L 144.504198 197.448113 
L 144.82285 197.448113 
L 144.82285 196.896462 
L 145.050459 196.896462 
L 145.141502 195.79316 
L 145.278067 195.79316 
L 145.278067 195.241509 
L 145.460155 195.241509 
L 145.460155 194.138208 
L 145.687763 194.138208 
L 145.687763 193.034906 
L 145.824329 193.034906 
L 145.824329 192.483255 
L 146.097459 192.483255 
L 146.097459 191.931604 
L 146.916851 191.931604 
L 146.962372 188.621698 
L 147.281025 188.621698 
L 147.281025 186.415094 
L 147.645198 186.415094 
L 147.736242 185.311792 
L 148.828764 185.311792 
L 148.874286 184.208491 
L 149.283982 184.208491 
L 149.283982 183.105189 
L 149.557112 183.105189 
L 149.557112 182.553538 
L 150.376504 182.553538 
L 150.467547 181.450236 
L 150.740678 181.450236 
L 150.786199 178.14033 
L 151.787678 178.14033 
L 151.787678 177.588679 
L 152.060808 177.588679 
L 152.060808 176.485377 
L 152.516026 176.485377 
L 152.516026 175.933726 
L 152.652591 175.933726 
L 152.652591 175.382075 
L 152.834678 175.382075 
L 152.834678 174.830425 
L 153.198852 174.830425 
L 153.198852 173.727123 
L 154.291374 173.727123 
L 154.382418 172.07217 
L 154.518983 172.07217 
L 154.518983 171.520519 
L 154.883157 171.520519 
L 154.9742 169.865566 
L 155.110766 169.865566 
L 155.110766 169.313915 
L 155.611505 169.313915 
L 155.611505 167.658962 
L 155.839113 167.658962 
L 155.839113 167.107311 
L 155.975679 167.107311 
L 155.975679 166.55566 
L 156.704027 166.55566 
L 156.704027 166.004009 
L 156.931635 166.004009 
L 157.022679 164.349057 
L 158.024158 164.349057 
L 158.024158 163.797406 
L 158.570419 163.797406 
L 158.570419 163.245755 
L 158.980114 163.245755 
L 159.071158 162.142453 
L 159.11668 162.142453 
L 159.11668 161.590802 
L 159.298766 161.590802 
L 159.298766 161.039151 
L 159.890549 161.039151 
L 159.936071 159.384198 
L 160.118158 159.384198 
L 160.118158 158.832547 
L 160.527854 158.832547 
L 160.527854 158.280896 
L 160.755462 158.280896 
L 160.846506 156.625943 
L 160.892028 156.625943 
L 160.983071 154.970991 
L 161.301724 154.970991 
L 161.392767 140.628066 
L 162.030071 140.628066 
L 162.121115 139.524764 
L 162.394246 139.524764 
L 162.394246 138.421462 
L 162.530811 138.421462 
L 162.530811 137.869811 
L 162.849463 137.869811 
L 162.849463 137.31816 
L 163.213637 137.31816 
L 163.213637 136.766509 
L 163.623333 136.766509 
L 163.714376 134.559906 
L 163.759898 134.559906 
L 163.759898 134.008255 
L 164.033029 134.008255 
L 164.124072 132.904953 
L 164.169594 132.904953 
L 164.169594 132.353302 
L 164.306159 132.353302 
L 164.397202 130.698349 
L 164.488246 130.698349 
L 164.488246 130.146698 
L 164.624811 130.146698 
L 164.624811 129.595047 
L 164.897942 129.595047 
L 164.943464 127.940094 
L 165.080029 127.940094 
L 165.080029 127.388443 
L 165.262116 127.388443 
L 165.262116 126.836792 
L 165.62629 126.836792 
L 165.671812 125.18184 
L 165.808377 125.18184 
L 165.808377 124.630189 
L 165.990464 124.630189 
L 166.081507 122.975236 
L 166.127029 122.975236 
L 166.127029 122.423585 
L 166.627768 122.423585 
L 166.67329 119.113679 
L 166.855377 119.113679 
L 166.900899 117.458726 
L 167.037464 117.458726 
L 167.082986 116.355425 
L 167.174029 116.355425 
L 167.265073 113.59717 
L 167.310595 113.59717 
L 167.401638 112.493868 
L 167.44716 112.493868 
L 167.492682 110.838915 
L 167.583725 110.838915 
L 167.674768 109.735613 
L 167.72029 109.735613 
L 167.811334 108.08066 
L 167.856855 108.08066 
L 167.947899 84.911321 
L 167.993421 84.911321 
L 168.084464 83.808019 
L 168.22103 83.808019 
L 168.22103 82.704717 
L 168.357595 82.704717 
L 168.448638 81.049764 
L 168.630725 81.049764 
L 168.630725 79.394811 
L 168.767291 79.394811 
L 168.812812 77.739858 
L 168.903856 77.739858 
L 168.994899 62.293632 
L 169.313552 62.293632 
L 169.359073 61.19033 
L 169.54116 61.19033 
L 169.586682 59.535377 
L 169.677726 59.535377 
L 169.723247 58.432075 
L 169.905334 58.432075 
L 169.905334 57.880425 
L 170.041899 57.880425 
L 170.041899 56.777123 
L 170.31503 56.777123 
L 170.31503 56.225472 
L 170.497117 56.225472 
L 170.588161 54.570519 
L 170.679204 54.570519 
L 170.679204 54.018868 
L 170.997856 54.018868 
L 171.0889 52.915566 
L 171.134422 52.915566 
L 171.179943 51.260613 
L 171.544117 51.260613 
L 171.544117 50.708962 
L 171.726204 50.708962 
L 171.726204 50.157311 
L 172.044857 50.157311 
L 172.044857 49.60566 
L 172.272465 49.60566 
L 172.272465 48.502358 
L 172.409031 48.502358 
L 172.409031 47.950708 
L 172.727683 47.950708 
L 172.727683 46.847406 
L 172.90977 46.847406 
L 173.000813 45.192453 
L 173.137379 45.192453 
L 173.137379 44.640802 
L 173.273944 44.640802 
L 173.364987 42.985849 
L 173.638118 42.985849 
L 173.638118 41.882547 
L 174.047814 41.882547 
L 174.047814 41.330896 
L 174.229901 41.330896 
L 174.229901 40.779245 
L 174.411988 40.779245 
L 174.411988 40.227594 
L 174.776162 40.227594 
L 174.776162 39.675943 
L 174.912727 39.675943 
L 175.00377 38.572642 
L 175.185857 38.572642 
L 175.231379 37.46934 
L 175.550031 37.46934 
L 175.641075 36.366038 
L 175.732118 36.366038 
L 175.823162 34.711085 
L 176.505988 34.711085 
L 176.505988 34.159434 
L 176.779119 34.159434 
L 176.779119 33.607783 
L 177.052249 33.607783 
L 177.052249 33.056132 
L 177.188814 33.056132 
L 177.188814 32.504481 
L 177.461945 32.504481 
L 177.461945 31.95283 
L 178.190293 31.95283 
L 178.190293 31.401179 
L 178.782076 31.401179 
L 178.782076 30.849528 
L 179.41938 30.849528 
L 179.41938 29.746226 
L 180.602946 29.746226 
L 180.602946 29.194575 
L 180.967119 29.194575 
L 180.967119 28.642925 
L 181.740989 28.642925 
L 181.740989 28.091274 
L 181.877555 28.091274 
L 181.877555 27.539623 
L 182.196207 27.539623 
L 182.196207 26.987972 
L 182.469337 26.987972 
L 182.469337 26.436321 
L 184.426772 26.436321 
L 184.426772 25.88467 
L 184.699903 25.88467 
L 184.790947 24.781368 
L 186.111077 24.781368 
L 186.111077 24.229717 
L 187.249121 24.229717 
L 187.249121 20.919811 
L 187.704339 20.919811 
L 187.704339 20.36816 
L 191.346079 20.36816 
L 191.3916 19.264858 
L 193.485601 19.264858 
L 193.576644 18.161557 
L 197.036297 18.161557 
L 197.036297 17.609906 
L 198.584037 17.609906 
L 198.584037 17.058255 
L 199.403428 17.058255 
L 199.403428 16.506604 
L 224.804565 16.506604 
L 224.804565 15.954953 
L 252.663876 15.954953 
L 252.663876 15.403302 
L 290.765581 15.403302 
L 290.765581 14.851651 
L 307.107889 14.851651 
L 307.107889 14.3 
L 307.107889 14.3 
" style="fill:none;stroke:#1b9e77;stroke-linecap:square;stroke-width:1.5;"/>
   </g>
   <g id="patch_3">
    <path d="M 44.675 248.2 
L 44.675 14.3 
" style="fill:none;stroke:#000000;stroke-linecap:square;stroke-linejoin:miter;stroke-width:0.8;"/>
   </g>
   <g id="patch_4">
    <path d="M 44.675 248.2 
L 272.28375 248.2 
" style="fill:none;stroke:#000000;stroke-linecap:square;stroke-linejoin:miter;stroke-width:0.8;"/>
   </g>
  </g>
  <g id="legend_1">
   <g id="text_14">
    <!-- coenzyme_pair -->
    <g transform="translate(351.079688 82.633594)scale(0.1 -0.1)">
     <defs>
      <path d="M 40.4375 19 
L 49.078125 17.875 
Q 47.65625 8.9375 41.8125 3.875 
Q 35.984375 -1.171875 27.484375 -1.171875 
Q 16.84375 -1.171875 10.375 5.78125 
Q 3.90625 12.75 3.90625 25.734375 
Q 3.90625 34.125 6.6875 40.421875 
Q 9.46875 46.734375 15.15625 49.875 
Q 20.84375 53.03125 27.546875 53.03125 
Q 35.984375 53.03125 41.359375 48.75 
Q 46.734375 44.484375 48.25 36.625 
L 39.703125 35.296875 
Q 38.484375 40.53125 35.375 43.15625 
Q 32.28125 45.796875 27.875 45.796875 
Q 21.234375 45.796875 17.078125 41.03125 
Q 12.9375 36.28125 12.9375 25.984375 
Q 12.9375 15.53125 16.9375 10.796875 
Q 20.953125 6.0625 27.390625 6.0625 
Q 32.5625 6.0625 36.03125 9.234375 
Q 39.5 12.40625 40.4375 19 
z
" id="ArialMT-99"/>
      <path d="M 1.953125 0 
L 1.953125 7.125 
L 34.96875 45.015625 
Q 29.34375 44.734375 25.046875 44.734375 
L 3.90625 44.734375 
L 3.90625 51.859375 
L 46.296875 51.859375 
L 46.296875 46.046875 
L 18.21875 13.140625 
L 12.796875 7.125 
Q 18.703125 7.5625 23.875 7.5625 
L 47.859375 7.5625 
L 47.859375 0 
z
" id="ArialMT-122"/>
      <path d="M -1.515625 -19.875 
L -1.515625 -13.53125 
L 56.734375 -13.53125 
L 56.734375 -19.875 
z
" id="ArialMT-95"/>
     </defs>
     <use xlink:href="#ArialMT-99"/>
     <use x="50" xlink:href="#ArialMT-111"/>
     <use x="105.615234" xlink:href="#ArialMT-101"/>
     <use x="161.230469" xlink:href="#ArialMT-110"/>
     <use x="216.845703" xlink:href="#ArialMT-122"/>
     <use x="266.845703" xlink:href="#ArialMT-121"/>
     <use x="316.845703" xlink:href="#ArialMT-109"/>
     <use x="400.146484" xlink:href="#ArialMT-101"/>
     <use x="455.761719" xlink:href="#ArialMT-95"/>
     <use x="511.376953" xlink:href="#ArialMT-112"/>
     <use x="566.992188" xlink:href="#ArialMT-97"/>
     <use x="622.607422" xlink:href="#ArialMT-105"/>
     <use x="644.824219" xlink:href="#ArialMT-114"/>
    </g>
   </g>
   <g id="line2d_21">
    <path d="M 287.342188 93.396094 
L 307.342188 93.396094 
" style="fill:none;stroke:#1b9e77;stroke-linecap:square;stroke-width:1.5;"/>
   </g>
   <g id="line2d_22"/>
   <g id="text_15">
    <!-- NAD/NADH -->
    <g transform="translate(315.342188 96.896094)scale(0.1 -0.1)">
     <defs>
      <path d="M 7.625 0 
L 7.625 71.578125 
L 17.328125 71.578125 
L 54.9375 15.375 
L 54.9375 71.578125 
L 64.015625 71.578125 
L 64.015625 0 
L 54.296875 0 
L 16.703125 56.25 
L 16.703125 0 
z
" id="ArialMT-78"/>
      <path d="M -0.140625 0 
L 27.34375 71.578125 
L 37.546875 71.578125 
L 66.84375 0 
L 56.0625 0 
L 47.703125 21.6875 
L 17.78125 21.6875 
L 9.90625 0 
z
M 20.515625 29.390625 
L 44.78125 29.390625 
L 37.3125 49.21875 
Q 33.890625 58.25 32.234375 64.0625 
Q 30.859375 57.171875 28.375 50.390625 
z
" id="ArialMT-65"/>
      <path d="M 7.71875 0 
L 7.71875 71.578125 
L 32.375 71.578125 
Q 40.71875 71.578125 45.125 70.5625 
Q 51.265625 69.140625 55.609375 65.4375 
Q 61.28125 60.640625 64.078125 53.1875 
Q 66.890625 45.75 66.890625 36.1875 
Q 66.890625 28.03125 64.984375 21.734375 
Q 63.09375 15.4375 60.109375 11.296875 
Q 57.125 7.171875 53.578125 4.796875 
Q 50.046875 2.4375 45.046875 1.21875 
Q 40.046875 0 33.546875 0 
z
M 17.1875 8.453125 
L 32.46875 8.453125 
Q 39.546875 8.453125 43.578125 9.765625 
Q 47.609375 11.078125 50 13.484375 
Q 53.375 16.84375 55.25 22.53125 
Q 57.125 28.21875 57.125 36.328125 
Q 57.125 47.5625 53.4375 53.59375 
Q 49.75 59.625 44.484375 61.671875 
Q 40.671875 63.140625 32.234375 63.140625 
L 17.1875 63.140625 
z
" id="ArialMT-68"/>
      <path d="M 8.015625 0 
L 8.015625 71.578125 
L 17.484375 71.578125 
L 17.484375 42.1875 
L 54.6875 42.1875 
L 54.6875 71.578125 
L 64.15625 71.578125 
L 64.15625 0 
L 54.6875 0 
L 54.6875 33.734375 
L 17.484375 33.734375 
L 17.484375 0 
z
" id="ArialMT-72"/>
     </defs>
     <use xlink:href="#ArialMT-78"/>
     <use x="72.216797" xlink:href="#ArialMT-65"/>
     <use x="138.916016" xlink:href="#ArialMT-68"/>
     <use x="211.132812" xlink:href="#ArialMT-47"/>
     <use x="238.916016" xlink:href="#ArialMT-78"/>
     <use x="311.132812" xlink:href="#ArialMT-65"/>
     <use x="377.832031" xlink:href="#ArialMT-68"/>
     <use x="450.048828" xlink:href="#ArialMT-72"/>
    </g>
   </g>
   <g id="line2d_23">
    <path d="M 287.342188 107.541406 
L 307.342188 107.541406 
" style="fill:none;stroke:#d95f02;stroke-linecap:square;stroke-width:1.5;"/>
   </g>
   <g id="line2d_24"/>
   <g id="text_16">
    <!-- NADP/NADPH -->
    <g transform="translate(315.342188 111.041406)scale(0.1 -0.1)">
     <use xlink:href="#ArialMT-78"/>
     <use x="72.216797" xlink:href="#ArialMT-65"/>
     <use x="138.916016" xlink:href="#ArialMT-68"/>
     <use x="211.132812" xlink:href="#ArialMT-80"/>
     <use x="277.832031" xlink:href="#ArialMT-47"/>
     <use x="305.615234" xlink:href="#ArialMT-78"/>
     <use x="377.832031" xlink:href="#ArialMT-65"/>
     <use x="444.53125" xlink:href="#ArialMT-68"/>
     <use x="516.748047" xlink:href="#ArialMT-80"/>
     <use x="583.447266" xlink:href="#ArialMT-72"/>
    </g>
   </g>
   <g id="line2d_25">
    <path d="M 287.342188 121.686719 
L 307.342188 121.686719 
" style="fill:none;stroke:#7570b3;stroke-linecap:square;stroke-width:1.5;"/>
   </g>
   <g id="line2d_26"/>
   <g id="text_17">
    <!-- FAD/FADH2 -->
    <g transform="translate(315.342188 125.186719)scale(0.1 -0.1)">
     <defs>
      <path d="M 8.203125 0 
L 8.203125 71.578125 
L 56.5 71.578125 
L 56.5 63.140625 
L 17.671875 63.140625 
L 17.671875 40.96875 
L 51.265625 40.96875 
L 51.265625 32.515625 
L 17.671875 32.515625 
L 17.671875 0 
z
" id="ArialMT-70"/>
     </defs>
     <use xlink:href="#ArialMT-70"/>
     <use x="55.583984" xlink:href="#ArialMT-65"/>
     <use x="122.283203" xlink:href="#ArialMT-68"/>
     <use x="194.5" xlink:href="#ArialMT-47"/>
     <use x="222.283203" xlink:href="#ArialMT-70"/>
     <use x="277.867188" xlink:href="#ArialMT-65"/>
     <use x="344.566406" xlink:href="#ArialMT-68"/>
     <use x="416.783203" xlink:href="#ArialMT-72"/>
     <use x="489" xlink:href="#ArialMT-50"/>
    </g>
   </g>
   <g id="line2d_27">
    <path d="M 287.342188 135.832031 
L 307.342188 135.832031 
" style="fill:none;stroke:#e7298a;stroke-linecap:square;stroke-width:1.5;"/>
   </g>
   <g id="line2d_28"/>
   <g id="text_18">
    <!-- FMN/FMNH2 -->
    <g transform="translate(315.342188 139.332031)scale(0.1 -0.1)">
     <defs>
      <path d="M 7.421875 0 
L 7.421875 71.578125 
L 21.6875 71.578125 
L 38.625 20.90625 
Q 40.96875 13.8125 42.046875 10.296875 
Q 43.265625 14.203125 45.84375 21.78125 
L 62.984375 71.578125 
L 75.734375 71.578125 
L 75.734375 0 
L 66.609375 0 
L 66.609375 59.90625 
L 45.796875 0 
L 37.25 0 
L 16.546875 60.9375 
L 16.546875 0 
z
" id="ArialMT-77"/>
     </defs>
     <use xlink:href="#ArialMT-70"/>
     <use x="61.083984" xlink:href="#ArialMT-77"/>
     <use x="144.384766" xlink:href="#ArialMT-78"/>
     <use x="216.601562" xlink:href="#ArialMT-47"/>
     <use x="244.384766" xlink:href="#ArialMT-70"/>
     <use x="305.46875" xlink:href="#ArialMT-77"/>
     <use x="388.769531" xlink:href="#ArialMT-78"/>
     <use x="460.986328" xlink:href="#ArialMT-72"/>
     <use x="533.203125" xlink:href="#ArialMT-50"/>
    </g>
   </g>
   <g id="line2d_29">
    <path d="M 287.342188 150.099219 
L 307.342188 150.099219 
" style="fill:none;stroke:#66a61e;stroke-linecap:square;stroke-width:1.5;"/>
   </g>
   <g id="line2d_30"/>
   <g id="text_19">
    <!-- Glutathione(RSSR)/Glutathione(RSH) -->
    <g transform="translate(315.342188 153.599219)scale(0.1 -0.1)">
     <defs>
      <path d="M 41.21875 28.078125 
L 41.21875 36.46875 
L 71.53125 36.53125 
L 71.53125 9.96875 
Q 64.546875 4.390625 57.125 1.578125 
Q 49.703125 -1.21875 41.890625 -1.21875 
Q 31.34375 -1.21875 22.71875 3.296875 
Q 14.109375 7.8125 9.71875 16.359375 
Q 5.328125 24.90625 5.328125 35.453125 
Q 5.328125 45.90625 9.6875 54.953125 
Q 14.0625 64.015625 22.265625 68.40625 
Q 30.46875 72.796875 41.15625 72.796875 
Q 48.921875 72.796875 55.1875 70.28125 
Q 61.46875 67.78125 65.03125 63.28125 
Q 68.609375 58.796875 70.453125 51.5625 
L 61.921875 49.21875 
Q 60.296875 54.6875 57.90625 57.8125 
Q 55.515625 60.9375 51.0625 62.8125 
Q 46.625 64.703125 41.21875 64.703125 
Q 34.71875 64.703125 29.984375 62.71875 
Q 25.25 60.75 22.34375 57.515625 
Q 19.4375 54.296875 17.828125 50.4375 
Q 15.09375 43.796875 15.09375 36.03125 
Q 15.09375 26.46875 18.390625 20.015625 
Q 21.6875 13.578125 27.984375 10.453125 
Q 34.28125 7.328125 41.359375 7.328125 
Q 47.515625 7.328125 53.375 9.6875 
Q 59.234375 12.0625 62.25 14.75 
L 62.25 28.078125 
z
" id="ArialMT-71"/>
      <path d="M 40.578125 0 
L 40.578125 7.625 
Q 34.515625 -1.171875 24.125 -1.171875 
Q 19.53125 -1.171875 15.546875 0.578125 
Q 11.578125 2.34375 9.640625 5 
Q 7.71875 7.671875 6.9375 11.53125 
Q 6.390625 14.109375 6.390625 19.734375 
L 6.390625 51.859375 
L 15.1875 51.859375 
L 15.1875 23.09375 
Q 15.1875 16.21875 15.71875 13.8125 
Q 16.546875 10.359375 19.234375 8.375 
Q 21.921875 6.390625 25.875 6.390625 
Q 29.828125 6.390625 33.296875 8.421875 
Q 36.765625 10.453125 38.203125 13.9375 
Q 39.65625 17.4375 39.65625 24.078125 
L 39.65625 51.859375 
L 48.4375 51.859375 
L 48.4375 0 
z
" id="ArialMT-117"/>
      <path d="M 6.59375 0 
L 6.59375 71.578125 
L 15.375 71.578125 
L 15.375 45.90625 
Q 21.53125 53.03125 30.90625 53.03125 
Q 36.671875 53.03125 40.921875 50.75 
Q 45.171875 48.484375 47 44.484375 
Q 48.828125 40.484375 48.828125 32.859375 
L 48.828125 0 
L 40.046875 0 
L 40.046875 32.859375 
Q 40.046875 39.453125 37.1875 42.453125 
Q 34.328125 45.453125 29.109375 45.453125 
Q 25.203125 45.453125 21.75 43.421875 
Q 18.3125 41.40625 16.84375 37.9375 
Q 15.375 34.46875 15.375 28.375 
L 15.375 0 
z
" id="ArialMT-104"/>
      <path d="M 7.859375 0 
L 7.859375 71.578125 
L 39.59375 71.578125 
Q 49.171875 71.578125 54.140625 69.640625 
Q 59.125 67.71875 62.109375 62.828125 
Q 65.09375 57.953125 65.09375 52.046875 
Q 65.09375 44.4375 60.15625 39.203125 
Q 55.21875 33.984375 44.921875 32.5625 
Q 48.6875 30.765625 50.640625 29 
Q 54.78125 25.203125 58.5 19.484375 
L 70.953125 0 
L 59.03125 0 
L 49.5625 14.890625 
Q 45.40625 21.34375 42.71875 24.75 
Q 40.046875 28.171875 37.921875 29.53125 
Q 35.796875 30.90625 33.59375 31.453125 
Q 31.984375 31.78125 28.328125 31.78125 
L 17.328125 31.78125 
L 17.328125 0 
z
M 17.328125 39.984375 
L 37.703125 39.984375 
Q 44.1875 39.984375 47.84375 41.328125 
Q 51.515625 42.671875 53.421875 45.625 
Q 55.328125 48.578125 55.328125 52.046875 
Q 55.328125 57.125 51.640625 60.390625 
Q 47.953125 63.671875 39.984375 63.671875 
L 17.328125 63.671875 
z
" id="ArialMT-82"/>
      <path d="M 4.5 23 
L 13.421875 23.78125 
Q 14.0625 18.40625 16.375 14.96875 
Q 18.703125 11.53125 23.578125 9.40625 
Q 28.46875 7.28125 34.578125 7.28125 
Q 39.984375 7.28125 44.140625 8.890625 
Q 48.296875 10.5 50.3125 13.296875 
Q 52.34375 16.109375 52.34375 19.4375 
Q 52.34375 22.796875 50.390625 25.3125 
Q 48.4375 27.828125 43.953125 29.546875 
Q 41.0625 30.671875 31.203125 33.03125 
Q 21.34375 35.40625 17.390625 37.5 
Q 12.25 40.1875 9.734375 44.15625 
Q 7.234375 48.140625 7.234375 53.078125 
Q 7.234375 58.5 10.296875 63.203125 
Q 13.375 67.921875 19.28125 70.359375 
Q 25.203125 72.796875 32.421875 72.796875 
Q 40.375 72.796875 46.453125 70.234375 
Q 52.546875 67.671875 55.8125 62.6875 
Q 59.078125 57.71875 59.328125 51.421875 
L 50.25 50.734375 
Q 49.515625 57.515625 45.28125 60.984375 
Q 41.0625 64.453125 32.8125 64.453125 
Q 24.21875 64.453125 20.28125 61.296875 
Q 16.359375 58.15625 16.359375 53.71875 
Q 16.359375 49.859375 19.140625 47.359375 
Q 21.875 44.875 33.421875 42.265625 
Q 44.96875 39.65625 49.265625 37.703125 
Q 55.515625 34.8125 58.484375 30.390625 
Q 61.46875 25.984375 61.46875 20.21875 
Q 61.46875 14.5 58.203125 9.4375 
Q 54.9375 4.390625 48.796875 1.578125 
Q 42.671875 -1.21875 35.015625 -1.21875 
Q 25.296875 -1.21875 18.71875 1.609375 
Q 12.15625 4.4375 8.421875 10.125 
Q 4.6875 15.828125 4.5 23 
z
" id="ArialMT-83"/>
     </defs>
     <use xlink:href="#ArialMT-71"/>
     <use x="77.783203" xlink:href="#ArialMT-108"/>
     <use x="100" xlink:href="#ArialMT-117"/>
     <use x="155.615234" xlink:href="#ArialMT-116"/>
     <use x="183.398438" xlink:href="#ArialMT-97"/>
     <use x="239.013672" xlink:href="#ArialMT-116"/>
     <use x="266.796875" xlink:href="#ArialMT-104"/>
     <use x="322.412109" xlink:href="#ArialMT-105"/>
     <use x="344.628906" xlink:href="#ArialMT-111"/>
     <use x="400.244141" xlink:href="#ArialMT-110"/>
     <use x="455.859375" xlink:href="#ArialMT-101"/>
     <use x="511.474609" xlink:href="#ArialMT-40"/>
     <use x="544.775391" xlink:href="#ArialMT-82"/>
     <use x="616.992188" xlink:href="#ArialMT-83"/>
     <use x="683.691406" xlink:href="#ArialMT-83"/>
     <use x="750.390625" xlink:href="#ArialMT-82"/>
     <use x="822.607422" xlink:href="#ArialMT-41"/>
     <use x="855.908203" xlink:href="#ArialMT-47"/>
     <use x="883.691406" xlink:href="#ArialMT-71"/>
     <use x="961.474609" xlink:href="#ArialMT-108"/>
     <use x="983.691406" xlink:href="#ArialMT-117"/>
     <use x="1039.306641" xlink:href="#ArialMT-116"/>
     <use x="1067.089844" xlink:href="#ArialMT-97"/>
     <use x="1122.705078" xlink:href="#ArialMT-116"/>
     <use x="1150.488281" xlink:href="#ArialMT-104"/>
     <use x="1206.103516" xlink:href="#ArialMT-105"/>
     <use x="1228.320312" xlink:href="#ArialMT-111"/>
     <use x="1283.935547" xlink:href="#ArialMT-110"/>
     <use x="1339.550781" xlink:href="#ArialMT-101"/>
     <use x="1395.166016" xlink:href="#ArialMT-40"/>
     <use x="1428.466797" xlink:href="#ArialMT-82"/>
     <use x="1500.683594" xlink:href="#ArialMT-83"/>
     <use x="1567.382812" xlink:href="#ArialMT-72"/>
     <use x="1639.599609" xlink:href="#ArialMT-41"/>
    </g>
   </g>
   <g id="line2d_31">
    <path d="M 287.342188 164.483594 
L 307.342188 164.483594 
" style="fill:none;stroke:#e6ab02;stroke-linecap:square;stroke-width:1.5;"/>
   </g>
   <g id="line2d_32"/>
   <g id="text_20">
    <!-- CoA/Acetyl-CoA -->
    <g transform="translate(315.342188 167.983594)scale(0.1 -0.1)">
     <defs>
      <path d="M 58.796875 25.09375 
L 68.265625 22.703125 
Q 65.28125 11.03125 57.546875 4.90625 
Q 49.8125 -1.21875 38.625 -1.21875 
Q 27.046875 -1.21875 19.796875 3.484375 
Q 12.546875 8.203125 8.765625 17.140625 
Q 4.984375 26.078125 4.984375 36.328125 
Q 4.984375 47.515625 9.25 55.828125 
Q 13.53125 64.15625 21.40625 68.46875 
Q 29.296875 72.796875 38.765625 72.796875 
Q 49.515625 72.796875 56.828125 67.328125 
Q 64.15625 61.859375 67.046875 51.953125 
L 57.71875 49.75 
Q 55.21875 57.5625 50.484375 61.125 
Q 45.75 64.703125 38.578125 64.703125 
Q 30.328125 64.703125 24.78125 60.734375 
Q 19.234375 56.78125 16.984375 50.109375 
Q 14.75 43.453125 14.75 36.375 
Q 14.75 27.25 17.40625 20.4375 
Q 20.0625 13.625 25.671875 10.25 
Q 31.296875 6.890625 37.84375 6.890625 
Q 45.796875 6.890625 51.3125 11.46875 
Q 56.84375 16.0625 58.796875 25.09375 
z
" id="ArialMT-67"/>
      <path d="M 3.171875 21.484375 
L 3.171875 30.328125 
L 30.171875 30.328125 
L 30.171875 21.484375 
z
" id="ArialMT-45"/>
     </defs>
     <use xlink:href="#ArialMT-67"/>
     <use x="72.216797" xlink:href="#ArialMT-111"/>
     <use x="127.832031" xlink:href="#ArialMT-65"/>
     <use x="194.53125" xlink:href="#ArialMT-47"/>
     <use x="222.314453" xlink:href="#ArialMT-65"/>
     <use x="289.013672" xlink:href="#ArialMT-99"/>
     <use x="339.013672" xlink:href="#ArialMT-101"/>
     <use x="394.628906" xlink:href="#ArialMT-116"/>
     <use x="422.412109" xlink:href="#ArialMT-121"/>
     <use x="472.412109" xlink:href="#ArialMT-108"/>
     <use x="494.628906" xlink:href="#ArialMT-45"/>
     <use x="527.929688" xlink:href="#ArialMT-67"/>
     <use x="600.146484" xlink:href="#ArialMT-111"/>
     <use x="655.761719" xlink:href="#ArialMT-65"/>
    </g>
   </g>
   <g id="line2d_33">
    <path d="M 287.342188 178.746094 
L 307.342188 178.746094 
" style="fill:none;stroke:#a6761d;stroke-linecap:square;stroke-width:1.5;"/>
   </g>
   <g id="line2d_34"/>
   <g id="text_21">
    <!-- ADP/ATP -->
    <g transform="translate(315.342188 182.246094)scale(0.1 -0.1)">
     <defs>
      <path d="M 25.921875 0 
L 25.921875 63.140625 
L 2.34375 63.140625 
L 2.34375 71.578125 
L 59.078125 71.578125 
L 59.078125 63.140625 
L 35.40625 63.140625 
L 35.40625 0 
z
" id="ArialMT-84"/>
     </defs>
     <use xlink:href="#ArialMT-65"/>
     <use x="66.699219" xlink:href="#ArialMT-68"/>
     <use x="138.916016" xlink:href="#ArialMT-80"/>
     <use x="205.615234" xlink:href="#ArialMT-47"/>
     <use x="233.398438" xlink:href="#ArialMT-65"/>
     <use x="292.722656" xlink:href="#ArialMT-84"/>
     <use x="353.806641" xlink:href="#ArialMT-80"/>
    </g>
   </g>
   <g id="line2d_35">
    <path d="M 287.342188 192.891406 
L 307.342188 192.891406 
" style="fill:none;stroke:#666666;stroke-linecap:square;stroke-width:1.5;"/>
   </g>
   <g id="line2d_36"/>
   <g id="text_22">
    <!-- CDP/CTP -->
    <g transform="translate(315.342188 196.391406)scale(0.1 -0.1)">
     <use xlink:href="#ArialMT-67"/>
     <use x="72.216797" xlink:href="#ArialMT-68"/>
     <use x="144.433594" xlink:href="#ArialMT-80"/>
     <use x="211.132812" xlink:href="#ArialMT-47"/>
     <use x="238.916016" xlink:href="#ArialMT-67"/>
     <use x="311.132812" xlink:href="#ArialMT-84"/>
     <use x="372.216797" xlink:href="#ArialMT-80"/>
    </g>
   </g>
   <g id="line2d_37">
    <path d="M 287.342188 207.036719 
L 307.342188 207.036719 
" style="fill:none;stroke:#1b9e77;stroke-linecap:square;stroke-width:1.5;"/>
   </g>
   <g id="line2d_38"/>
   <g id="text_23">
    <!-- GDP/GTP -->
    <g transform="translate(315.342188 210.536719)scale(0.1 -0.1)">
     <use xlink:href="#ArialMT-71"/>
     <use x="77.783203" xlink:href="#ArialMT-68"/>
     <use x="150" xlink:href="#ArialMT-80"/>
     <use x="216.699219" xlink:href="#ArialMT-47"/>
     <use x="244.482422" xlink:href="#ArialMT-71"/>
     <use x="322.265625" xlink:href="#ArialMT-84"/>
     <use x="383.349609" xlink:href="#ArialMT-80"/>
    </g>
   </g>
  </g>
 </g>
 <defs>
  <clipPath id="pc31463a130">
   <rect height="233.9" width="227.60875" x="44.675" y="14.3"/>
  </clipPath>
 </defs>
</svg>
