<?xml version="1.0" encoding="UTF-8" standalone="no"?>
<svg
   xmlns:dc="http://purl.org/dc/elements/1.1/"
   xmlns:cc="http://creativecommons.org/ns#"
   xmlns:rdf="http://www.w3.org/1999/02/22-rdf-syntax-ns#"
   xmlns:svg="http://www.w3.org/2000/svg"
   xmlns="http://www.w3.org/2000/svg"
   xmlns:xlink="http://www.w3.org/1999/xlink"
   xmlns:sodipodi="http://sodipodi.sourceforge.net/DTD/sodipodi-0.dtd"
   xmlns:inkscape="http://www.inkscape.org/namespaces/inkscape"
   height="288pt"
   version="1.1"
   viewBox="0 0 432 288"
   width="432pt"
   id="svg38467"
   sodipodi:docname="minGrowthRate.vs.ConservationDE.labeled.relabeld.svg"
   inkscape:version="1.0.2 (e86c8708, 2021-01-15)">
  <sodipodi:namedview
     pagecolor="#ffffff"
     bordercolor="#666666"
     borderopacity="1"
     objecttolerance="10"
     gridtolerance="10"
     guidetolerance="10"
     inkscape:pageopacity="0"
     inkscape:pageshadow="2"
     inkscape:window-width="1412"
     inkscape:window-height="730"
     id="namedview38469"
     showgrid="false"
     inkscape:zoom="1.0729879"
     inkscape:cx="299.81866"
     inkscape:cy="185.68971"
     inkscape:window-x="0"
     inkscape:window-y="23"
     inkscape:window-maximized="0"
     inkscape:current-layer="svg38467" />
  <metadata
     id="metadata37909">
    <rdf:RDF>
      <cc:Work>
        <dc:type
           rdf:resource="http://purl.org/dc/dcmitype/StillImage" />
        <dc:date>2021-11-19T12:46:06.184036</dc:date>
        <dc:format>image/svg+xml</dc:format>
        <dc:creator>
          <cc:Agent>
            <dc:title>Matplotlib v3.3.4, https://matplotlib.org/</dc:title>
          </cc:Agent>
        </dc:creator>
        <dc:title></dc:title>
      </cc:Work>
    </rdf:RDF>
  </metadata>
  <defs
     id="defs37913">
    <marker
       style="overflow:visible;"
       id="marker40228"
       refX="0.0"
       refY="0.0"
       orient="auto"
       inkscape:stockid="Arrow2Mend"
       inkscape:isstock="true">
      <path
         transform="scale(0.6) rotate(180) translate(0,0)"
         d="M 8.7185878,4.0337352 L -2.2072895,0.016013256 L 8.7185884,-4.0017078 C 6.9730900,-1.6296469 6.9831476,1.6157441 8.7185878,4.0337352 z "
         style="fill-rule:evenodd;stroke-width:0.625;stroke-linejoin:round;stroke:#000000;stroke-opacity:1;fill:#000000;fill-opacity:1"
         id="path40226" />
    </marker>
    <marker
       style="overflow:visible;"
       id="marker40092"
       refX="0.0"
       refY="0.0"
       orient="auto"
       inkscape:stockid="Arrow2Mend"
       inkscape:isstock="true">
      <path
         transform="scale(0.6) rotate(180) translate(0,0)"
         d="M 8.7185878,4.0337352 L -2.2072895,0.016013256 L 8.7185884,-4.0017078 C 6.9730900,-1.6296469 6.9831476,1.6157441 8.7185878,4.0337352 z "
         style="fill-rule:evenodd;stroke-width:0.625;stroke-linejoin:round;stroke:#000000;stroke-opacity:1;fill:#000000;fill-opacity:1"
         id="path40090" />
    </marker>
    <marker
       style="overflow:visible;"
       id="marker40040"
       refX="0.0"
       refY="0.0"
       orient="auto"
       inkscape:stockid="Arrow2Mend"
       inkscape:isstock="true"
       inkscape:collect="always">
      <path
         transform="scale(0.6) rotate(180) translate(0,0)"
         d="M 8.7185878,4.0337352 L -2.2072895,0.016013256 L 8.7185884,-4.0017078 C 6.9730900,-1.6296469 6.9831476,1.6157441 8.7185878,4.0337352 z "
         style="fill-rule:evenodd;stroke-width:0.625;stroke-linejoin:round;stroke:#000000;stroke-opacity:1;fill:#000000;fill-opacity:1"
         id="path40038" />
    </marker>
    <marker
       style="overflow:visible;"
       id="Arrow2Mend"
       refX="0.0"
       refY="0.0"
       orient="auto"
       inkscape:stockid="Arrow2Mend"
       inkscape:isstock="true"
       inkscape:collect="always">
      <path
         transform="scale(0.6) rotate(180) translate(0,0)"
         d="M 8.7185878,4.0337352 L -2.2072895,0.016013256 L 8.7185884,-4.0017078 C 6.9730900,-1.6296469 6.9831476,1.6157441 8.7185878,4.0337352 z "
         style="fill-rule:evenodd;stroke-width:0.625;stroke-linejoin:round;stroke:#000000;stroke-opacity:1;fill:#000000;fill-opacity:1"
         id="path39773" />
    </marker>
    <style
       type="text/css"
       id="style37911">*{stroke-linecap:butt;stroke-linejoin:round;}</style>
  </defs>
  <g
     id="patch_1">
    <path
       d="M 0,288 H 432 V 0 H 0 Z"
       style="fill:none"
       id="path37915" />
  </g>
  <g
     id="PathCollection_1">
    <defs
       id="defs37922">
      <path
         d="M 0,3 C 0.795609,3 1.55874,2.683901 2.12132,2.12132 2.683901,1.55874 3,0.795609 3,0 3,-0.795609 2.683901,-1.55874 2.12132,-2.12132 1.55874,-2.683901 0.795609,-3 0,-3 -0.795609,-3 -1.55874,-2.683901 -2.12132,-2.12132 -2.683901,-1.55874 -3,-0.795609 -3,0 -3,0.795609 -2.683901,1.55874 -2.12132,2.12132 -1.55874,2.683901 -0.795609,3 0,3 Z"
         id="meba8a424ba"
         style="stroke:#ffffff;stroke-width:0.48" />
    </defs>
    <g
       clip-path="url(#p15d0672998)"
       id="g37962">
      <use
         style="fill:#ff0000;stroke:#ffffff;stroke-width:0.48"
         x="136.69038"
         xlink:href="#meba8a424ba"
         y="44.443939"
         id="use37924"
         width="100%"
         height="100%" />
      <use
         style="fill:#ff0000;stroke:#ffffff;stroke-width:0.48"
         x="329.25702"
         xlink:href="#meba8a424ba"
         y="44.443638"
         id="use37926"
         width="100%"
         height="100%" />
      <use
         style="fill:#ff0000;stroke:#ffffff;stroke-width:0.48"
         x="371.11932"
         xlink:href="#meba8a424ba"
         y="96.889282"
         id="use37928"
         width="100%"
         height="100%" />
      <use
         style="fill:#ff0000;stroke:#ffffff;stroke-width:0.48"
         x="342.06195"
         xlink:href="#meba8a424ba"
         y="44.443935"
         id="use37930"
         width="100%"
         height="100%" />
      <use
         style="fill:#ff0000;stroke:#ffffff;stroke-width:0.48"
         x="372.10434"
         xlink:href="#meba8a424ba"
         y="44.443977"
         id="use37932"
         width="100%"
         height="100%" />
      <use
         style="fill:#ff0000;stroke:#ffffff;stroke-width:0.48"
         x="288.3797"
         xlink:href="#meba8a424ba"
         y="242.03708"
         id="use37934"
         width="100%"
         height="100%" />
      <use
         style="fill:#ff0000;stroke:#ffffff;stroke-width:0.48"
         x="367.17935"
         xlink:href="#meba8a424ba"
         y="44.443935"
         id="use37936"
         width="100%"
         height="100%" />
      <use
         style="fill:#ff0000;stroke:#ffffff;stroke-width:0.48"
         x="359.79187"
         xlink:href="#meba8a424ba"
         y="44.44397"
         id="use37938"
         width="100%"
         height="100%" />
      <use
         style="fill:#ff0000;stroke:#ffffff;stroke-width:0.48"
         x="69.218185"
         xlink:href="#meba8a424ba"
         y="44.443977"
         id="use37940"
         width="100%"
         height="100%" />
      <use
         style="fill:#ff0000;stroke:#ffffff;stroke-width:0.48"
         x="373.58182"
         xlink:href="#meba8a424ba"
         y="242.11636"
         id="use37942"
         width="100%"
         height="100%" />
      <use
         style="fill:#ff0000;stroke:#ffffff;stroke-width:0.48"
         x="316.94458"
         xlink:href="#meba8a424ba"
         y="107.55399"
         id="use37944"
         width="100%"
         height="100%" />
      <use
         style="fill:#ff0000;stroke:#ffffff;stroke-width:0.48"
         x="360.28436"
         xlink:href="#meba8a424ba"
         y="240.84618"
         id="use37946"
         width="100%"
         height="100%" />
      <use
         style="fill:#ff0000;stroke:#ffffff;stroke-width:0.48"
         x="370.13434"
         xlink:href="#meba8a424ba"
         y="44.98497"
         id="use37948"
         width="100%"
         height="100%" />
      <use
         style="fill:#ff0000;stroke:#ffffff;stroke-width:0.48"
         x="356.83688"
         xlink:href="#meba8a424ba"
         y="44.443977"
         id="use37950"
         width="100%"
         height="100%" />
      <use
         style="fill:#ff0000;stroke:#ffffff;stroke-width:0.48"
         x="344.52444"
         xlink:href="#meba8a424ba"
         y="242.11636"
         id="use37952"
         width="100%"
         height="100%" />
      <use
         style="fill:#ff0000;stroke:#ffffff;stroke-width:0.48"
         x="373.58182"
         xlink:href="#meba8a424ba"
         y="44.44397"
         id="use37954"
         width="100%"
         height="100%" />
      <use
         style="fill:#ff0000;stroke:#ffffff;stroke-width:0.48"
         x="355.35941"
         xlink:href="#meba8a424ba"
         y="44.443977"
         id="use37956"
         width="100%"
         height="100%" />
      <use
         style="fill:#ff0000;stroke:#ffffff;stroke-width:0.48"
         x="364.151"
         xlink:href="#meba8a424ba"
         y="242.11636"
         id="use37958"
         width="100%"
         height="100%" />
      <use
         style="fill:#ff0000;stroke:#ffffff;stroke-width:0.48"
         x="195.21776"
         xlink:href="#meba8a424ba"
         y="44.443928"
         id="use37960"
         width="100%"
         height="100%" />
    </g>
  </g>
  <g
     id="matplotlib.axis_1">
    <g
       id="xtick_1">
      <g
         id="line2d_1">
        <defs
           id="defs37966">
          <path
             d="M 0,0 V 3.5"
             id="m155ab45f9a"
             style="stroke:#000000;stroke-width:0.8" />
        </defs>
        <g
           id="g37970">
          <use
             style="stroke:#000000;stroke-width:0.8"
             x="78.083145"
             xlink:href="#m155ab45f9a"
             y="252"
             id="use37968"
             width="100%"
             height="100%" />
        </g>
      </g>
      <g
         id="text_1">
        <!-- 0.4 -->
        <g
           transform="matrix(0.1,0,0,-0.1,71.133142,266.15781)"
           id="g37984">
          <defs
             id="defs37976">
            <path
               d="m 4.15625,35.296875 q 0,12.703125 2.609375,20.4375 2.609375,7.75 7.75,11.9375 5.15625,4.203125 12.96875,4.203125 5.765625,0 10.109375,-2.328125 4.34375,-2.3125 7.171875,-6.6875 Q 47.609375,58.5 49.21875,52.21875 q 1.609375,-6.265625 1.609375,-16.921875 0,-12.59375 -2.59375,-20.328125 Q 45.65625,7.234375 40.5,3 35.359375,-1.21875 27.484375,-1.21875 q -10.34375,0 -16.25,7.421875 -7.078125,8.9375 -7.078125,29.09375 z m 9.03125,0 q 0,-17.625 4.125,-23.46875 Q 21.4375,6 27.484375,6 q 6.0625,0 10.1875,5.859375 4.125,5.859375 4.125,23.4375 0,17.6875 -4.125,23.484375 -4.125,5.8125 -10.28125,5.8125 -6.046875,0 -9.671875,-5.125 Q 13.1875,52.9375 13.1875,35.296875 Z"
               id="ArialMT-48" />
            <path
               d="M 9.078125,0 V 10.015625 H 19.09375 V 0 Z"
               id="ArialMT-46" />
            <path
               d="m 32.328125,0 v 17.140625 h -31.0625 v 8.0625 l 32.671875,46.375 h 7.171875 v -46.375 h 9.671875 v -8.0625 H 41.109375 V 0 Z m 0,25.203125 V 57.46875 L 9.90625,25.203125 Z"
               id="ArialMT-52" />
          </defs>
          <use
             xlink:href="#ArialMT-48"
             id="use37978"
             x="0"
             y="0"
             width="100%"
             height="100%" />
          <use
             x="55.615234"
             xlink:href="#ArialMT-46"
             id="use37980"
             y="0"
             width="100%"
             height="100%" />
          <use
             x="83.398438"
             xlink:href="#ArialMT-52"
             id="use37982"
             y="0"
             width="100%"
             height="100%" />
        </g>
      </g>
    </g>
    <g
       id="xtick_2">
      <g
         id="line2d_2">
        <g
           id="g37990">
          <use
             style="stroke:#000000;stroke-width:0.8"
             x="127.33292"
             xlink:href="#m155ab45f9a"
             y="252"
             id="use37988"
             width="100%"
             height="100%" />
        </g>
      </g>
      <g
         id="text_2">
        <!-- 0.5 -->
        <g
           transform="matrix(0.1,0,0,-0.1,120.38292,266.15781)"
           id="g38002">
          <defs
             id="defs37994">
            <path
               d="M 4.15625,18.75 13.375,19.53125 Q 14.40625,12.796875 18.140625,9.390625 21.875,6 27.15625,6 33.5,6 37.890625,10.78125 42.28125,15.578125 42.28125,23.484375 42.28125,31 38.0625,35.34375 33.84375,39.703125 27,39.703125 q -4.25,0 -7.671875,-1.9375 -3.40625,-1.921875 -5.359375,-5 l -8.25,1.078125 6.921875,36.765625 H 48.25 v -8.40625 H 19.671875 L 15.828125,42.96875 q 6.4375,4.5 13.515625,4.5 9.375,0 15.8125,-6.5 6.453125,-6.5 6.453125,-16.703125 0,-9.71875 -5.65625,-16.796875 -6.890625,-8.6875 -18.796875,-8.6875 -9.765625,0 -15.953125,5.46875 Q 5.03125,9.71875 4.15625,18.75 Z"
               id="ArialMT-53" />
          </defs>
          <use
             xlink:href="#ArialMT-48"
             id="use37996"
             x="0"
             y="0"
             width="100%"
             height="100%" />
          <use
             x="55.615234"
             xlink:href="#ArialMT-46"
             id="use37998"
             y="0"
             width="100%"
             height="100%" />
          <use
             x="83.398438"
             xlink:href="#ArialMT-53"
             id="use38000"
             y="0"
             width="100%"
             height="100%" />
        </g>
      </g>
    </g>
    <g
       id="xtick_3">
      <g
         id="line2d_3">
        <g
           id="g38008">
          <use
             style="stroke:#000000;stroke-width:0.8"
             x="176.5827"
             xlink:href="#m155ab45f9a"
             y="252"
             id="use38006"
             width="100%"
             height="100%" />
        </g>
      </g>
      <g
         id="text_3">
        <!-- 0.6 -->
        <g
           transform="matrix(0.1,0,0,-0.1,169.6327,266.15781)"
           id="g38020">
          <defs
             id="defs38012">
            <path
               d="M 49.75,54.046875 41.015625,53.375 q -1.171875,5.171875 -3.3125,7.515625 -3.578125,3.765625 -8.796875,3.765625 -4.203125,0 -7.375,-2.34375 Q 17.390625,59.28125 14.984375,53.46875 12.59375,47.65625 12.5,36.921875 15.671875,41.75 20.265625,44.09375 q 4.59375,2.34375 9.625,2.34375 8.78125,0 14.953125,-6.46875 Q 51.03125,33.5 51.03125,23.25 51.03125,16.5 48.125,10.71875 45.21875,4.9375 40.140625,1.859375 35.0625,-1.21875 28.609375,-1.21875 17.625,-1.21875 10.6875,6.859375 3.765625,14.9375 3.765625,33.5 q 0,20.75 7.65625,30.171875 6.6875,8.203125 18.015625,8.203125 8.453125,0 13.84375,-4.734375 Q 48.6875,62.40625 49.75,54.046875 Z M 13.875,23.1875 q 0,-4.53125 1.921875,-8.6875 Q 17.71875,10.359375 21.1875,8.171875 24.65625,6 28.46875,6 q 5.5625,0 9.5625,4.484375 4.015625,4.5 4.015625,12.21875 0,7.421875 -3.96875,11.6875 -3.953125,4.28125 -9.953125,4.28125 -5.953125,0 -10.109375,-4.28125 Q 13.875,30.125 13.875,23.1875 Z"
               id="ArialMT-54" />
          </defs>
          <use
             xlink:href="#ArialMT-48"
             id="use38014"
             x="0"
             y="0"
             width="100%"
             height="100%" />
          <use
             x="55.615234"
             xlink:href="#ArialMT-46"
             id="use38016"
             y="0"
             width="100%"
             height="100%" />
          <use
             x="83.398438"
             xlink:href="#ArialMT-54"
             id="use38018"
             y="0"
             width="100%"
             height="100%" />
        </g>
      </g>
    </g>
    <g
       id="xtick_4">
      <g
         id="line2d_4">
        <g
           id="g38026">
          <use
             style="stroke:#000000;stroke-width:0.8"
             x="225.83247"
             xlink:href="#m155ab45f9a"
             y="252"
             id="use38024"
             width="100%"
             height="100%" />
        </g>
      </g>
      <g
         id="text_4">
        <!-- 0.7 -->
        <g
           transform="matrix(0.1,0,0,-0.1,218.88248,266.15781)"
           id="g38038">
          <defs
             id="defs38030">
            <path
               d="m 4.734375,62.203125 v 8.453125 h 46.34375 V 63.8125 Q 44.234375,56.546875 37.515625,44.484375 30.8125,32.421875 27.15625,19.671875 24.515625,10.6875 23.78125,0 H 14.75 q 0.140625,8.453125 3.3125,20.40625 3.171875,11.96875 9.109375,23.078125 5.9375,11.109375 12.625,18.71875 z"
               id="ArialMT-55" />
          </defs>
          <use
             xlink:href="#ArialMT-48"
             id="use38032"
             x="0"
             y="0"
             width="100%"
             height="100%" />
          <use
             x="55.615234"
             xlink:href="#ArialMT-46"
             id="use38034"
             y="0"
             width="100%"
             height="100%" />
          <use
             x="83.398438"
             xlink:href="#ArialMT-55"
             id="use38036"
             y="0"
             width="100%"
             height="100%" />
        </g>
      </g>
    </g>
    <g
       id="xtick_5">
      <g
         id="line2d_5">
        <g
           id="g38044">
          <use
             style="stroke:#000000;stroke-width:0.8"
             x="275.08224"
             xlink:href="#m155ab45f9a"
             y="252"
             id="use38042"
             width="100%"
             height="100%" />
        </g>
      </g>
      <g
         id="text_5">
        <!-- 0.8 -->
        <g
           transform="matrix(0.1,0,0,-0.1,268.13226,266.15781)"
           id="g38056">
          <defs
             id="defs38048">
            <path
               d="m 17.671875,38.8125 q -5.46875,2.015625 -8.109375,5.71875 -2.625,3.71875 -2.625,8.890625 0,7.8125 5.609375,13.125 5.625,5.328125 14.9375,5.328125 9.375,0 15.09375,-5.453125 5.71875,-5.4375 5.71875,-13.25 0,-4.984375 -2.625,-8.671875 Q 43.0625,40.828125 37.75,38.8125 q 6.59375,-2.140625 10.03125,-6.9375 3.4375,-4.78125 3.4375,-11.421875 0,-9.171875 -6.5,-15.421875 -6.484375,-6.25 -17.078125,-6.25 -10.59375,0 -17.09375,6.265625 -6.5,6.28125 -6.5,15.65625 0,6.984375 3.546875,11.6875 3.546875,4.71875 10.078125,6.421875 z m -1.75,14.90625 q 0,-5.078125 3.265625,-8.3125 3.28125,-3.21875 8.5,-3.21875 5.078125,0 8.328125,3.1875 3.25,3.203125 3.25,7.84375 0,4.84375 -3.359375,8.140625 -3.34375,3.296875 -8.3125,3.296875 -5.03125,0 -8.359375,-3.234375 -3.3125,-3.21875 -3.3125,-7.703125 z M 13.09375,20.65625 q 0,-3.765625 1.78125,-7.28125 Q 16.65625,9.859375 20.171875,7.921875 23.6875,6 27.734375,6 34.03125,6 38.125,10.046875 q 4.109375,4.0625 4.109375,10.3125 0,6.34375 -4.21875,10.5 -4.21875,4.15625 -10.578125,4.15625 -6.203125,0 -10.28125,-4.109375 -4.0625,-4.09375 -4.0625,-10.25 z"
               id="ArialMT-56" />
          </defs>
          <use
             xlink:href="#ArialMT-48"
             id="use38050"
             x="0"
             y="0"
             width="100%"
             height="100%" />
          <use
             x="55.615234"
             xlink:href="#ArialMT-46"
             id="use38052"
             y="0"
             width="100%"
             height="100%" />
          <use
             x="83.398438"
             xlink:href="#ArialMT-56"
             id="use38054"
             y="0"
             width="100%"
             height="100%" />
        </g>
      </g>
    </g>
    <g
       id="xtick_6">
      <g
         id="line2d_6">
        <g
           id="g38062">
          <use
             style="stroke:#000000;stroke-width:0.8"
             x="324.33203"
             xlink:href="#m155ab45f9a"
             y="252"
             id="use38060"
             width="100%"
             height="100%" />
        </g>
      </g>
      <g
         id="text_6">
        <!-- 0.9 -->
        <g
           transform="matrix(0.1,0,0,-0.1,317.38204,266.15781)"
           id="g38074">
          <defs
             id="defs38066">
            <path
               d="m 5.46875,16.546875 8.453125,0.78125 Q 14.984375,11.375 18.015625,8.6875 21.046875,6 25.78125,6 q 4.046875,0 7.09375,1.859375 3.0625,1.859375 5.015625,4.953125 1.953125,3.109375 3.265625,8.375 1.328125,5.28125 1.328125,10.75 0,0.578125 -0.04687,1.75 Q 39.79688,29.5 35.23438,26.875 q -4.5625,-2.609375 -9.890625,-2.609375 -8.890625,0 -15.046875,6.4375 -6.140625,6.453125 -6.140625,17 0,10.890625 6.421875,17.53125 Q 17,71.875 26.65625,71.875 q 6.984375,0 12.765625,-3.765625 5.796875,-3.75 8.796875,-10.71875 3,-6.953125 3,-20.140625 0,-13.71875 -2.984375,-21.84375 -2.96875,-8.125 -8.859375,-12.375 -5.875,-4.25 -13.78125,-4.25 -8.40625,0 -13.734375,4.65625 -5.3125,4.671875 -6.390625,13.109375 z m 35.984375,31.59375 q 0,7.578125 -4.03125,12.015625 -4.015625,4.4375 -9.6875,4.4375 -5.859375,0 -10.203125,-4.78125 -4.34375,-4.78125 -4.34375,-12.40625 0,-6.828125 4.125,-11.109375 4.125,-4.265625 10.171875,-4.265625 6.109375,0 10.03125,4.265625 3.9375,4.28125 3.9375,11.84375 z"
               id="ArialMT-57" />
          </defs>
          <use
             xlink:href="#ArialMT-48"
             id="use38068"
             x="0"
             y="0"
             width="100%"
             height="100%" />
          <use
             x="55.615234"
             xlink:href="#ArialMT-46"
             id="use38070"
             y="0"
             width="100%"
             height="100%" />
          <use
             x="83.398438"
             xlink:href="#ArialMT-57"
             id="use38072"
             y="0"
             width="100%"
             height="100%" />
        </g>
      </g>
    </g>
    <g
       id="xtick_7">
      <g
         id="line2d_7">
        <g
           id="g38080">
          <use
             style="stroke:#000000;stroke-width:0.8"
             x="373.58182"
             xlink:href="#m155ab45f9a"
             y="252"
             id="use38078"
             width="100%"
             height="100%" />
        </g>
      </g>
      <g
         id="text_7">
        <!-- 1.0 -->
        <g
           transform="matrix(0.1,0,0,-0.1,366.63182,266.15781)"
           id="g38092">
          <defs
             id="defs38084">
            <path
               d="m 37.25,0 h -8.78125 v 56 q -3.171875,-3.015625 -8.328125,-6.046875 -5.15625,-3.03125 -9.25,-4.546875 v 8.5 q 7.375,3.46875 12.890625,8.390625 5.515625,4.9375 7.8125,9.578125 H 37.25 Z"
               id="ArialMT-49" />
          </defs>
          <use
             xlink:href="#ArialMT-49"
             id="use38086"
             x="0"
             y="0"
             width="100%"
             height="100%" />
          <use
             x="55.615234"
             xlink:href="#ArialMT-46"
             id="use38088"
             y="0"
             width="100%"
             height="100%" />
          <use
             x="83.398438"
             xlink:href="#ArialMT-48"
             id="use38090"
             y="0"
             width="100%"
             height="100%" />
        </g>
      </g>
    </g>
    <g
       id="text_8">
      <!-- conservation (D/E) -->
      <g
         transform="matrix(0.1,0,0,-0.1,179.99844,279.425)"
         id="g38150">
        <defs
           id="defs38112">
          <path
             d="m 40.4375,19 8.640625,-1.125 Q 47.65625,8.9375 41.8125,3.875 35.984375,-1.171875 27.484375,-1.171875 16.84375,-1.171875 10.375,5.78125 3.90625,12.75 3.90625,25.734375 q 0,8.390625 2.78125,14.6875 2.78125,6.3125 8.46875,9.453125 5.6875,3.15625 12.390625,3.15625 8.4375,0 13.8125,-4.28125 5.375,-4.265625 6.890625,-12.125 l -8.546875,-1.328125 q -1.21875,5.234375 -4.328125,7.859375 -3.09375,2.640625 -7.5,2.640625 -6.640625,0 -10.796875,-4.765625 -4.140625,-4.75 -4.140625,-15.046875 0,-10.453125 4,-15.1875 Q 20.953125,6.0625 27.390625,6.0625 32.5625,6.0625 36.03125,9.234375 39.5,12.40625 40.4375,19 Z"
             id="ArialMT-99" />
          <path
             d="m 3.328125,25.921875 q 0,14.40625 8,21.34375 6.6875,5.765625 16.3125,5.765625 10.6875,0 17.46875,-7.015625 6.796875,-7 6.796875,-19.359375 0,-10 -3,-15.75 -3,-5.734375 -8.75,-8.90625 Q 34.421875,-1.171875 27.640625,-1.171875 16.75,-1.171875 10.03125,5.8125 3.328125,12.796875 3.328125,25.921875 Z m 9.03125,0 q 0,-9.953125 4.34375,-14.90625 4.34375,-4.953125 10.9375,-4.953125 6.546875,0 10.890625,4.96875 4.34375,4.984375 4.34375,15.1875 0,9.625 -4.375,14.578125 Q 34.125,45.75 27.640625,45.75 q -6.59375,0 -10.9375,-4.9375 -4.34375,-4.921875 -4.34375,-14.890625 z"
             id="ArialMT-111" />
          <path
             d="M 6.59375,0 V 51.859375 H 14.5 v -7.375 q 5.71875,8.546875 16.5,8.546875 4.6875,0 8.625,-1.6875 3.9375,-1.6875 5.890625,-4.421875 Q 47.46875,44.1875 48.25,40.4375 48.734375,37.984375 48.734375,31.890625 V 0 H 39.9375 v 31.546875 q 0,5.375 -1.03125,8.03125 -1.015625,2.65625 -3.625,4.234375 -2.609375,1.59375 -6.125,1.59375 -5.625,0 -9.703125,-3.5625 Q 15.375,38.28125 15.375,28.328125 V 0 Z"
             id="ArialMT-110" />
          <path
             d="m 3.078125,15.484375 8.6875,1.359375 Q 12.5,11.625 15.84375,8.84375 19.1875,6.0625 25.203125,6.0625 q 6.046875,0 8.96875,2.453125 2.9375,2.46875 2.9375,5.796875 0,2.96875 -2.59375,4.6875 Q 32.71875,20.171875 25.53125,21.96875 15.875,24.421875 12.140625,26.203125 8.40625,27.984375 6.46875,31.125 q -1.921875,3.15625 -1.921875,6.96875 0,3.453125 1.578125,6.40625 1.59375,2.96875 4.328125,4.921875 2.046875,1.5 5.578125,2.546875 3.546875,1.0625 7.609375,1.0625 6.09375,0 10.703125,-1.765625 4.625,-1.75 6.8125,-4.765625 2.203125,-3 3.03125,-8.015625 L 35.59375,37.3125 q -0.578125,4 -3.390625,6.234375 -2.8125,2.25 -7.9375,2.25 -6.046875,0 -8.640625,-2 -2.59375,-2 -2.59375,-4.6875 0,-1.703125 1.078125,-3.078125 1.078125,-1.40625 3.375,-2.34375 1.3125,-0.484375 7.765625,-2.234375 9.328125,-2.5 13,-4.09375 3.6875,-1.578125 5.78125,-4.609375 2.109375,-3.015625 2.109375,-7.515625 0,-4.390625 -2.5625,-8.28125 -2.5625,-3.875 -7.40625,-6 -4.828125,-2.125 -10.921875,-2.125 -10.109375,0 -15.40625,4.203125 -5.296875,4.203125 -6.765625,12.453125 z"
             id="ArialMT-115" />
          <path
             d="m 42.09375,16.703125 9.078125,-1.125 Q 49.03125,7.625 43.21875,3.21875 37.40625,-1.171875 28.375,-1.171875 q -11.375,0 -18.046875,7 -6.671875,7.015625 -6.671875,19.65625 0,13.09375 6.734375,20.3125 6.75,7.234375 17.484375,7.234375 10.40625,0 17,-7.078125 6.59375,-7.078125 6.59375,-19.921875 0,-0.78125 -0.04687,-2.34375 H 12.75 q 0.484375,-8.546875 4.828125,-13.09375 4.34375,-4.53125 10.84375,-4.53125 4.828125,0 8.25,2.53125 3.421875,2.546875 5.421875,8.109375 z M 13.234375,30.90625 H 42.1875 q -0.578125,6.546875 -3.3125,9.8125 -4.203125,5.078125 -10.890625,5.078125 -6.0625,0 -10.1875,-4.046875 -4.125,-4.046875 -4.5625,-10.84375 z"
             id="ArialMT-101" />
          <path
             d="m 6.5,0 v 51.859375 h 7.90625 V 44 Q 17.4375,49.515625 20,51.265625 q 2.5625,1.765625 5.640625,1.765625 4.4375,0 9.03125,-2.828125 l -3.03125,-8.15625 q -3.21875,1.90625 -6.4375,1.90625 -2.890625,0 -5.1875,-1.734375 -2.296875,-1.734375 -3.265625,-4.8125 -1.46875,-4.6875 -1.46875,-10.25 V 0 Z"
             id="ArialMT-114" />
          <path
             d="M 21,0 1.265625,51.859375 h 9.28125 L 21.6875,20.796875 q 1.796875,-5.03125 3.3125,-10.4375 1.171875,4.09375 3.265625,9.859375 l 11.53125,31.640625 h 9.03125 L 29.203125,0 Z"
             id="ArialMT-118" />
          <path
             d="M 40.4375,6.390625 Q 35.546875,2.25 31.03125,0.53125 q -4.515625,-1.703125 -9.6875,-1.703125 -8.546875,0 -13.140625,4.171875 -4.59375,4.171875 -4.59375,10.671875 0,3.8125 1.734375,6.953125 1.734375,3.15625 4.546875,5.0625 2.8125,1.90625 6.328125,2.875 2.578125,0.6875 7.8125,1.328125 10.640625,1.265625 15.671875,3.015625 0.04687,1.8125 0.04687,2.296875 0,5.375 -2.5,7.578125 -3.359375,2.96875 -10,2.96875 -6.203125,0 -9.15625,-2.171875 -2.953125,-2.171875 -4.375,-7.6875 L 5.125,37.0625 q 1.171875,5.515625 3.859375,8.90625 2.6875,3.390625 7.765625,5.21875 5.078125,1.84375 11.765625,1.84375 6.640625,0 10.78125,-1.5625 4.15625,-1.5625 6.109375,-3.9375 1.953125,-2.359375 2.734375,-5.984375 0.4375,-2.234375 0.4375,-8.09375 v -11.71875 q 0,-12.265625 0.5625,-15.515625 Q 49.703125,2.984375 51.375,0 h -9.1875 q -1.359375,2.734375 -1.75,6.390625 z M 39.703125,26.03125 Q 34.90625,24.078125 25.34375,22.703125 19.921875,21.921875 17.671875,20.9375 15.4375,19.96875 14.203125,18.09375 q -1.21875,-1.875 -1.21875,-4.171875 0,-3.515625 2.65625,-5.859375 2.671875,-2.34375 7.796875,-2.34375 5.078125,0 9.03125,2.21875 3.953125,2.21875 5.8125,6.078125 1.421875,2.984375 1.421875,8.78125 z"
             id="ArialMT-97" />
          <path
             d="M 25.78125,7.859375 27.046875,0.09375 Q 23.34375,-0.6875 20.40625,-0.6875 15.625,-0.6875 12.984375,0.828125 10.359375,2.34375 9.28125,4.8125 8.203125,7.28125 8.203125,15.1875 v 29.828125 h -6.4375 v 6.84375 h 6.4375 v 12.84375 L 16.9375,69.96875 V 51.859375 h 8.84375 v -6.84375 H 16.9375 v -30.3125 q 0,-3.765625 0.46875,-4.84375 0.46875,-1.0625 1.515625,-1.703125 1.046875,-0.640625 3,-0.640625 1.46875,0 3.859375,0.34375 z"
             id="ArialMT-116" />
          <path
             d="M 6.640625,61.46875 V 71.578125 H 15.4375 V 61.46875 Z M 6.640625,0 V 51.859375 H 15.4375 V 0 Z"
             id="ArialMT-105" />
          <path
             id="ArialMT-32"
             d="" />
          <path
             d="m 23.390625,-21.046875 q -7.28125,9.1875 -12.3125,21.484375 Q 6.0625,12.75 6.0625,25.921875 q 0,11.625 3.75,22.265625 4.390625,12.359375 13.578125,24.609375 H 29.6875 q -5.90625,-10.15625 -7.8125,-14.5 -2.984375,-6.734375 -4.6875,-14.0625 -2.09375,-9.125 -2.09375,-18.359375 0,-23.484375 14.59375,-46.921875 z"
             id="ArialMT-40" />
          <path
             d="M 7.71875,0 V 71.578125 H 32.375 q 8.34375,0 12.75,-1.015625 6.140625,-1.421875 10.484375,-5.125 5.671875,-4.796875 8.46875,-12.25 2.8125,-7.4375 2.8125,-17 0,-8.15625 -1.90625,-14.453125 -1.890625,-6.296875 -4.875,-10.4375 -2.984375,-4.125 -6.53125,-6.5 Q 50.046875,2.4375 45.046875,1.21875 40.046875,0 33.546875,0 Z m 9.46875,8.453125 h 15.28125 q 7.078125,0 11.109375,1.3125 4.03125,1.3125 6.421875,3.71875 3.375,3.359375 5.25,9.046875 1.875,5.6875 1.875,13.796875 0,11.234375 -3.6875,17.265625 -3.6875,6.03125 -8.953125,8.078125 -3.8125,1.46875 -12.25,1.46875 H 17.1875 Z"
             id="ArialMT-68" />
          <path
             d="m 0,-1.21875 20.75,74.015625 h 7.03125 L 7.078125,-1.21875 Z"
             id="ArialMT-47" />
          <path
             d="m 7.90625,0 v 71.578125 h 51.765625 v -8.4375 H 17.390625 V 41.21875 h 39.59375 V 32.8125 H 17.390625 V 8.453125 h 43.9375 V 0 Z"
             id="ArialMT-69" />
          <path
             d="M 12.359375,-21.046875 H 6.0625 q 14.59375,23.4375 14.59375,46.921875 0,9.1875 -2.09375,18.21875 -1.671875,7.328125 -4.640625,14.0625 -1.90625,4.390625 -7.859375,14.640625 h 6.296875 Q 21.53125,60.546875 25.921875,48.1875 29.6875,37.546875 29.6875,25.921875 29.6875,12.75 24.625,0.4375 19.578125,-11.859375 12.359375,-21.046875 Z"
             id="ArialMT-41" />
        </defs>
        <use
           xlink:href="#ArialMT-99"
           id="use38114"
           x="0"
           y="0"
           width="100%"
           height="100%" />
        <use
           x="50"
           xlink:href="#ArialMT-111"
           id="use38116"
           y="0"
           width="100%"
           height="100%" />
        <use
           x="105.61523"
           xlink:href="#ArialMT-110"
           id="use38118"
           y="0"
           width="100%"
           height="100%" />
        <use
           x="161.23047"
           xlink:href="#ArialMT-115"
           id="use38120"
           y="0"
           width="100%"
           height="100%" />
        <use
           x="211.23047"
           xlink:href="#ArialMT-101"
           id="use38122"
           y="0"
           width="100%"
           height="100%" />
        <use
           x="266.8457"
           xlink:href="#ArialMT-114"
           id="use38124"
           y="0"
           width="100%"
           height="100%" />
        <use
           x="300.14648"
           xlink:href="#ArialMT-118"
           id="use38126"
           y="0"
           width="100%"
           height="100%" />
        <use
           x="350.14648"
           xlink:href="#ArialMT-97"
           id="use38128"
           y="0"
           width="100%"
           height="100%" />
        <use
           x="405.76172"
           xlink:href="#ArialMT-116"
           id="use38130"
           y="0"
           width="100%"
           height="100%" />
        <use
           x="433.54492"
           xlink:href="#ArialMT-105"
           id="use38132"
           y="0"
           width="100%"
           height="100%" />
        <use
           x="455.76172"
           xlink:href="#ArialMT-111"
           id="use38134"
           y="0"
           width="100%"
           height="100%" />
        <use
           x="511.37695"
           xlink:href="#ArialMT-110"
           id="use38136"
           y="0"
           width="100%"
           height="100%" />
        <use
           x="566.99219"
           xlink:href="#ArialMT-32"
           id="use38138"
           y="0"
           width="100%"
           height="100%" />
        <use
           x="594.77539"
           xlink:href="#ArialMT-40"
           id="use38140"
           y="0"
           width="100%"
           height="100%" />
        <use
           x="628.07617"
           xlink:href="#ArialMT-68"
           id="use38142"
           y="0"
           width="100%"
           height="100%" />
        <use
           x="700.29297"
           xlink:href="#ArialMT-47"
           id="use38144"
           y="0"
           width="100%"
           height="100%" />
        <use
           x="728.07617"
           xlink:href="#ArialMT-69"
           id="use38146"
           y="0"
           width="100%"
           height="100%" />
        <use
           x="794.77539"
           xlink:href="#ArialMT-41"
           id="use38148"
           y="0"
           width="100%"
           height="100%" />
      </g>
    </g>
  </g>
  <g
     id="ytick_1">
    <g
       id="line2d_8">
      <defs
         id="defs38155">
        <path
           d="M 0,0 H -3.5"
           id="mfac0cf4afa"
           style="stroke:#000000;stroke-width:0.8" />
      </defs>
      <g
         id="g38159">
        <use
           style="stroke:#000000;stroke-width:0.8"
           x="54"
           xlink:href="#mfac0cf4afa"
           y="242.11636"
           id="use38157"
           width="100%"
           height="100%" />
      </g>
    </g>
    <g
       id="text_9">
      <!-- 0.0 -->
      <g
         transform="matrix(0.1,0,0,-0.1,33.1,245.69527)"
         id="g38168">
        <use
           xlink:href="#ArialMT-48"
           id="use38162"
           x="0"
           y="0"
           width="100%"
           height="100%" />
        <use
           x="55.615234"
           xlink:href="#ArialMT-46"
           id="use38164"
           y="0"
           width="100%"
           height="100%" />
        <use
           x="83.398438"
           xlink:href="#ArialMT-48"
           id="use38166"
           y="0"
           width="100%"
           height="100%" />
      </g>
    </g>
  </g>
  <g
     id="ytick_2">
    <g
       id="line2d_9">
      <g
         id="g38174">
        <use
           style="stroke:#000000;stroke-width:0.8"
           x="54"
           xlink:href="#mfac0cf4afa"
           y="202.58182"
           id="use38172"
           width="100%"
           height="100%" />
      </g>
    </g>
    <g
       id="text_10">
      <!-- 0.2 -->
      <g
         transform="matrix(0.1,0,0,-0.1,33.1,206.16072)"
         id="g38186">
        <defs
           id="defs38178">
          <path
             d="M 50.34375,8.453125 V 0 H 3.03125 Q 2.9375,3.171875 4.046875,6.109375 5.859375,10.9375 9.828125,15.625 13.8125,20.3125 21.34375,26.46875 q 11.671875,9.5625 15.765625,15.15625 4.109375,5.59375 4.109375,10.578125 0,5.21875 -3.75,8.796875 -3.734375,3.59375 -9.734375,3.59375 -6.34375,0 -10.15625,-3.8125 Q 13.765625,56.984375 13.71875,50.25 L 4.6875,51.171875 q 0.921875,10.109375 6.96875,15.40625 6.0625,5.296875 16.28125,5.296875 10.296875,0 16.296875,-5.71875 Q 50.25,60.453125 50.25,52 50.25,47.703125 48.484375,43.546875 46.734375,39.40625 42.65625,34.8125 38.578125,30.21875 29.109375,22.21875 21.1875,15.578125 18.9375,13.203125 q -2.234375,-2.359375 -3.703125,-4.75 z"
             id="ArialMT-50" />
        </defs>
        <use
           xlink:href="#ArialMT-48"
           id="use38180"
           x="0"
           y="0"
           width="100%"
           height="100%" />
        <use
           x="55.615234"
           xlink:href="#ArialMT-46"
           id="use38182"
           y="0"
           width="100%"
           height="100%" />
        <use
           x="83.398438"
           xlink:href="#ArialMT-50"
           id="use38184"
           y="0"
           width="100%"
           height="100%" />
      </g>
    </g>
  </g>
  <g
     id="ytick_3">
    <g
       id="line2d_10">
      <g
         id="g38192">
        <use
           style="stroke:#000000;stroke-width:0.8"
           x="54"
           xlink:href="#mfac0cf4afa"
           y="163.04727"
           id="use38190"
           width="100%"
           height="100%" />
      </g>
    </g>
    <g
       id="text_11">
      <!-- 0.4 -->
      <g
         transform="matrix(0.1,0,0,-0.1,33.1,166.62618)"
         id="g38201">
        <use
           xlink:href="#ArialMT-48"
           id="use38195"
           x="0"
           y="0"
           width="100%"
           height="100%" />
        <use
           x="55.615234"
           xlink:href="#ArialMT-46"
           id="use38197"
           y="0"
           width="100%"
           height="100%" />
        <use
           x="83.398438"
           xlink:href="#ArialMT-52"
           id="use38199"
           y="0"
           width="100%"
           height="100%" />
      </g>
    </g>
  </g>
  <g
     id="ytick_4">
    <g
       id="line2d_11">
      <g
         id="g38207">
        <use
           style="stroke:#000000;stroke-width:0.8"
           x="54"
           xlink:href="#mfac0cf4afa"
           y="123.51273"
           id="use38205"
           width="100%"
           height="100%" />
      </g>
    </g>
    <g
       id="text_12">
      <!-- 0.6 -->
      <g
         transform="matrix(0.1,0,0,-0.1,33.1,127.09163)"
         id="g38216">
        <use
           xlink:href="#ArialMT-48"
           id="use38210"
           x="0"
           y="0"
           width="100%"
           height="100%" />
        <use
           x="55.615234"
           xlink:href="#ArialMT-46"
           id="use38212"
           y="0"
           width="100%"
           height="100%" />
        <use
           x="83.398438"
           xlink:href="#ArialMT-54"
           id="use38214"
           y="0"
           width="100%"
           height="100%" />
      </g>
    </g>
  </g>
  <g
     id="ytick_5">
    <g
       id="line2d_12">
      <g
         id="g38222">
        <use
           style="stroke:#000000;stroke-width:0.8"
           x="54"
           xlink:href="#mfac0cf4afa"
           y="83.97818"
           id="use38220"
           width="100%"
           height="100%" />
      </g>
    </g>
    <g
       id="text_13">
      <!-- 0.8 -->
      <g
         transform="matrix(0.1,0,0,-0.1,33.1,87.557088)"
         id="g38231">
        <use
           xlink:href="#ArialMT-48"
           id="use38225"
           x="0"
           y="0"
           width="100%"
           height="100%" />
        <use
           x="55.615234"
           xlink:href="#ArialMT-46"
           id="use38227"
           y="0"
           width="100%"
           height="100%" />
        <use
           x="83.398438"
           xlink:href="#ArialMT-56"
           id="use38229"
           y="0"
           width="100%"
           height="100%" />
      </g>
    </g>
  </g>
  <g
     id="ytick_6">
    <g
       id="line2d_13">
      <g
         id="g38237">
        <use
           style="stroke:#000000;stroke-width:0.8"
           x="54"
           xlink:href="#mfac0cf4afa"
           y="44.443638"
           id="use38235"
           width="100%"
           height="100%" />
      </g>
    </g>
    <g
       id="text_14">
      <!-- 1.0 -->
      <g
         transform="matrix(0.1,0,0,-0.1,33.1,48.022543)"
         id="g38246">
        <use
           xlink:href="#ArialMT-49"
           id="use38240"
           x="0"
           y="0"
           width="100%"
           height="100%" />
        <use
           x="55.615234"
           xlink:href="#ArialMT-46"
           id="use38242"
           y="0"
           width="100%"
           height="100%" />
        <use
           x="83.398438"
           xlink:href="#ArialMT-48"
           id="use38244"
           y="0"
           width="100%"
           height="100%" />
      </g>
    </g>
  </g>
  <g
     id="patch_3">
    <path
       d="M 54,252 V 34.56"
       style="fill:none;stroke:#000000;stroke-width:0.8;stroke-linecap:square;stroke-linejoin:miter"
       id="path38290" />
  </g>
  <g
     id="patch_4">
    <path
       d="M 388.8,252 V 34.56"
       style="fill:none;stroke:#000000;stroke-width:0.8;stroke-linecap:square;stroke-linejoin:miter"
       id="path38293" />
  </g>
  <g
     id="patch_5">
    <path
       d="M 54,252 H 388.8"
       style="fill:none;stroke:#000000;stroke-width:0.8;stroke-linecap:square;stroke-linejoin:miter"
       id="path38296" />
  </g>
  <g
     id="patch_6">
    <path
       d="M 54,34.56 H 388.8"
       style="fill:none;stroke:#000000;stroke-width:0.8;stroke-linecap:square;stroke-linejoin:miter"
       id="path38299" />
  </g>
  <g
     id="text_20"
     transform="translate(-30,-9)">
    <!-- gapA -->
    <g
       transform="matrix(0.1,0,0,-0.1,289.36469,242.03708)"
       id="g38366">
      <text
         xml:space="preserve"
         style="font-size:100px;line-height:1.25;font-family:Arial;-inkscape-font-specification:'Arial, Normal';word-spacing:0px;stroke-width:7.5"
         x="32.800014"
         y="57.715931"
         id="text39703"
         transform="scale(1,-1)"><tspan
           sodipodi:role="line"
           id="tspan39701"
           x="32.800014"
           y="57.715931"
           style="font-style:italic;font-size:100px;stroke-width:7.5">gapA</tspan></text>
    </g>
  </g>
  <defs
     id="defs38465">
    <clipPath
       id="p15d0672998">
      <rect
         height="217.44"
         width="334.8"
         x="54"
         y="34.56"
         id="rect38462" />
    </clipPath>
  </defs>
  <text
     xml:space="preserve"
     style="font-size:10px;line-height:1.25;font-family:Arial;-inkscape-font-specification:'Arial, Normal';word-spacing:0px;stroke-width:0.75"
     x="320.85532"
     y="242.2717"
     id="text39711"><tspan
       sodipodi:role="line"
       id="tspan39709"
       x="320.85532"
       y="242.2717"
       style="font-style:italic;font-size:10px;stroke-width:0.75">leuB</tspan></text>
  <text
     xml:space="preserve"
     style="font-size:10px;line-height:1.25;font-family:Arial;-inkscape-font-specification:'Arial, Normal';word-spacing:0px;stroke-width:0.75"
     x="316.92926"
     y="217.17683"
     id="text39719"><tspan
       sodipodi:role="line"
       id="tspan39717"
       x="316.92926"
       y="217.17683"
       style="font-style:italic;font-size:10px;stroke-width:0.75">mdh</tspan></text>
  <text
     xml:space="preserve"
     style="font-size:10px;line-height:1.25;font-family:Arial;-inkscape-font-specification:'Arial, Normal';word-spacing:0px;stroke-width:0.75"
     x="328.50482"
     y="193.91479"
     id="text39728"><tspan
       sodipodi:role="line"
       id="tspan39726"
       x="328.50482"
       y="193.91479"
       style="font-style:italic;font-size:10px;stroke-width:0.75">fucO</tspan></text>
  <text
     xml:space="preserve"
     style="font-size:10px;line-height:1.25;font-family:Arial;-inkscape-font-specification:'Arial, Normal';word-spacing:0px;stroke-width:0.75"
     x="358.60132"
     y="196.69293"
     id="text39740"><tspan
       sodipodi:role="line"
       id="tspan39738"
       x="358.60132"
       y="196.69293"
       style="font-style:italic;font-size:10px;stroke-width:0.75">pdxB</tspan></text>
  <path
     style="fill:none;stroke:#000000;stroke-width:0.75000000000000000px;stroke-linecap:butt;stroke-linejoin:miter;stroke-opacity:1;marker-end:url(#Arrow2Mend)"
     d="m 335.69131,219.00964 20.373,18.05788"
     id="path39744" />
  <path
     style="fill:none;stroke:#000000;stroke-width:0.75px;stroke-linecap:butt;stroke-linejoin:miter;stroke-opacity:1;marker-end:url(#marker40040)"
     d="m 342.15433,197.7106 19.90998,39.35692"
     id="path40036"
     sodipodi:nodetypes="cc" />
  <path
     style="fill:none;stroke:#000000;stroke-width:0.75px;stroke-linecap:butt;stroke-linejoin:miter;stroke-opacity:1;marker-end:url(#marker40092)"
     d="m 370.86173,199.09967 2.31512,37.04181"
     id="path40088"
     sodipodi:nodetypes="cc" />
  <text
     xml:space="preserve"
     style="font-size:10px;line-height:1.25;font-family:Arial;-inkscape-font-specification:'Arial, Normal';word-spacing:0px;stroke-width:0.75"
     x="293.77814"
     y="103.16238"
     id="text40144"><tspan
       sodipodi:role="line"
       id="tspan40142"
       x="293.77814"
       y="103.16238"
       style="font-style:italic;font-size:10px;stroke-width:0.75">serA</tspan></text>
  <text
     xml:space="preserve"
     style="font-size:10px;line-height:1.25;font-family:Arial;-inkscape-font-specification:'Arial, Normal';word-spacing:0px;stroke-width:0.75"
     x="346.56271"
     y="94.364952"
     id="text40148"><tspan
       sodipodi:role="line"
       id="tspan40146"
       x="346.56271"
       y="94.364952"
       style="font-style:italic;font-size:10px;stroke-width:0.75">frmA</tspan></text>
  <text
     xml:space="preserve"
     style="font-size:10px;line-height:1.25;font-family:Arial;-inkscape-font-specification:'Arial, Normal';word-spacing:0px;stroke-width:0.75"
     x="319.94858"
     y="72.048233"
     id="text40156"><tspan
       sodipodi:role="line"
       id="tspan40154"
       x="319.94858"
       y="72.048233"
       style="font-style:italic;font-size:10px;stroke-width:0.75">maeA</tspan></text>
  <path
     style="fill:none;stroke:#000000;stroke-width:0.75px;stroke-linecap:butt;stroke-linejoin:miter;stroke-opacity:1;marker-end:url(#marker40228)"
     d="m 333.83922,64.823145 6.0193,-14.816718"
     id="path40164"
     sodipodi:nodetypes="cc" />
  <text
     xml:space="preserve"
     style="font-size:10px;line-height:1.25;font-family:Arial;-inkscape-font-specification:'Arial, Normal';word-spacing:0px;stroke-width:0.75"
     x="304.66882"
     y="49.823151"
     id="text40258"><tspan
       sodipodi:role="line"
       id="tspan40256"
       x="304.66882"
       y="49.823151"
       style="font-style:italic;font-size:10px;stroke-width:0.75">lpdA</tspan></text>
  <text
     xml:space="preserve"
     style="font-size:10px;line-height:1.25;font-family:Arial;-inkscape-font-specification:'Arial, Normal';word-spacing:0px;stroke-width:0.75"
     x="197.13667"
     y="54.453373"
     id="text40266"><tspan
       sodipodi:role="line"
       id="tspan40264"
       x="197.13667"
       y="54.453373"
       style="font-style:italic;font-size:10px;stroke-width:0.75">yiaK</tspan></text>
  <text
     xml:space="preserve"
     style="font-size:10px;line-height:1.25;font-family:Arial;-inkscape-font-specification:'Arial, Normal';word-spacing:0px;stroke-width:0.75"
     x="138.11095"
     y="54.342442"
     id="text40274"><tspan
       sodipodi:role="line"
       id="tspan40272"
       x="138.11095"
       y="54.342442"
       style="font-style:italic;font-size:10px;stroke-width:0.75">dapB</tspan></text>
  <text
     xml:space="preserve"
     style="font-size:10px;line-height:1.25;font-family:Arial;-inkscape-font-specification:'Arial, Normal';word-spacing:0px;stroke-width:0.75"
     x="70.610947"
     y="54.342442"
     id="text40284"><tspan
       sodipodi:role="line"
       id="tspan40282"
       x="70.610947"
       y="54.342442"
       style="font-style:italic;font-size:10px;stroke-width:0.75">rfbD</tspan></text>
  <text
     xml:space="preserve"
     style="font-size:10px;line-height:1.25;font-family:Arial;-inkscape-font-specification:'Arial, Normal';word-spacing:0px;stroke-width:0.75"
     x="-189.00095"
     y="25.599815"
     id="text40290"
     transform="rotate(-90)"><tspan
       sodipodi:role="line"
       id="tspan40288"
       x="-189.00095"
       y="25.599815"
       style="font-size:10px;stroke-width:0.75">minimum growth rate</tspan></text>
</svg>
