<?xml version="1.0" encoding="UTF-8" standalone="no"?>
<svg
   xmlns:dc="http://purl.org/dc/elements/1.1/"
   xmlns:cc="http://creativecommons.org/ns#"
   xmlns:rdf="http://www.w3.org/1999/02/22-rdf-syntax-ns#"
   xmlns:svg="http://www.w3.org/2000/svg"
   xmlns="http://www.w3.org/2000/svg"
   xmlns:xlink="http://www.w3.org/1999/xlink"
   xmlns:sodipodi="http://sodipodi.sourceforge.net/DTD/sodipodi-0.dtd"
   xmlns:inkscape="http://www.inkscape.org/namespaces/inkscape"
   inkscape:version="1.0 (4035a4f, 2020-05-01)"
   sodipodi:docname="siteEntropy.svg"
   id="svg54029"
   width="452.25pt"
   viewBox="0 0 452.25 360"
   version="1.1"
   height="360pt">
  <sodipodi:namedview
     inkscape:current-layer="svg54029"
     inkscape:window-maximized="0"
     inkscape:window-y="23"
     inkscape:window-x="143"
     inkscape:cy="280.05397"
     inkscape:cx="229.87562"
     inkscape:zoom="0.95387838"
     showgrid="false"
     id="namedview54031"
     inkscape:window-height="563"
     inkscape:window-width="870"
     inkscape:pageshadow="2"
     inkscape:pageopacity="0"
     guidetolerance="10"
     gridtolerance="10"
     objecttolerance="10"
     borderopacity="1"
     bordercolor="#666666"
     pagecolor="#ffffff" />
  <metadata
     id="metadata53568">
    <rdf:RDF>
      <cc:Work>
        <dc:type
           rdf:resource="http://purl.org/dc/dcmitype/StillImage" />
        <dc:date>2021-01-18T08:31:42.151311</dc:date>
        <dc:format>image/svg+xml</dc:format>
        <dc:creator>
          <cc:Agent>
            <dc:title>Matplotlib v3.3.3, https://matplotlib.org/</dc:title>
          </cc:Agent>
        </dc:creator>
        <dc:title></dc:title>
      </cc:Work>
    </rdf:RDF>
  </metadata>
  <defs
     id="defs53572">
    <style
       id="style53570"
       type="text/css">*{stroke-linecap:butt;stroke-linejoin:round;}</style>
  </defs>
  <g
     id="patch_1">
    <path
       d="M 0,360 H 452.25 V 0 H 0 Z"
       style="fill:none"
       id="path53574" />
  </g>
  <g
     id="patch_2">
    <path
       id="path53577"
       style="fill:#ffffff"
       d="M 44.675,320.2 H 340.66299 V 14.3 H 44.675 Z" />
  </g>
  <g
     id="matplotlib.axis_1">
    <g
       id="xtick_1">
      <g
         id="line2d_1">
        <defs
           id="defs53581">
          <path
             style="stroke:#000000;stroke-width:0.8"
             id="mcb627ddc9e"
             d="M 0,0 V 3.5" />
        </defs>
        <g
           id="g53585">
          <use
             height="100%"
             width="100%"
             id="use53583"
             y="320.20001"
             xlink:href="#mcb627ddc9e"
             x="58.129002"
             style="stroke:#000000;stroke-width:0.8" />
        </g>
      </g>
      <g
         id="text_1">
        <!-- 0.0 -->
        <g
           id="g53598"
           transform="matrix(0.1,0,0,-0.1,51.179,334.35781)">
          <defs
             id="defs53590">
            <path
               id="ArialMT-48"
               d="m 4.15625,35.296875 q 0,12.703125 2.609375,20.4375 2.609375,7.75 7.75,11.9375 5.15625,4.203125 12.96875,4.203125 5.765625,0 10.109375,-2.328125 4.34375,-2.3125 7.171875,-6.6875 Q 47.609375,58.5 49.21875,52.21875 q 1.609375,-6.265625 1.609375,-16.921875 0,-12.59375 -2.59375,-20.328125 Q 45.65625,7.234375 40.5,3 35.359375,-1.21875 27.484375,-1.21875 q -10.34375,0 -16.25,7.421875 -7.078125,8.9375 -7.078125,29.09375 z m 9.03125,0 q 0,-17.625 4.125,-23.46875 Q 21.4375,6 27.484375,6 q 6.0625,0 10.1875,5.859375 4.125,5.859375 4.125,23.4375 0,17.6875 -4.125,23.484375 -4.125,5.8125 -10.28125,5.8125 -6.046875,0 -9.671875,-5.125 Q 13.1875,52.9375 13.1875,35.296875 Z" />
            <path
               id="ArialMT-46"
               d="M 9.078125,0 V 10.015625 H 19.09375 V 0 Z" />
          </defs>
          <use
             height="100%"
             width="100%"
             y="0"
             x="0"
             id="use53592"
             xlink:href="#ArialMT-48" />
          <use
             height="100%"
             width="100%"
             y="0"
             id="use53594"
             xlink:href="#ArialMT-46"
             x="55.615234" />
          <use
             height="100%"
             width="100%"
             y="0"
             id="use53596"
             xlink:href="#ArialMT-48"
             x="83.398438" />
        </g>
      </g>
    </g>
    <g
       id="xtick_2">
      <g
         id="line2d_2">
        <g
           id="g53604">
          <use
             height="100%"
             width="100%"
             id="use53602"
             y="320.20001"
             xlink:href="#mcb627ddc9e"
             x="104.76123"
             style="stroke:#000000;stroke-width:0.8" />
        </g>
      </g>
      <g
         id="text_2">
        <!-- 0.5 -->
        <g
           id="g53616"
           transform="matrix(0.1,0,0,-0.1,97.811231,334.35781)">
          <defs
             id="defs53608">
            <path
               id="ArialMT-53"
               d="M 4.15625,18.75 13.375,19.53125 Q 14.40625,12.796875 18.140625,9.390625 21.875,6 27.15625,6 33.5,6 37.890625,10.78125 42.28125,15.578125 42.28125,23.484375 42.28125,31 38.0625,35.34375 33.84375,39.703125 27,39.703125 q -4.25,0 -7.671875,-1.9375 -3.40625,-1.921875 -5.359375,-5 l -8.25,1.078125 6.921875,36.765625 H 48.25 v -8.40625 H 19.671875 L 15.828125,42.96875 q 6.4375,4.5 13.515625,4.5 9.375,0 15.8125,-6.5 6.453125,-6.5 6.453125,-16.703125 0,-9.71875 -5.65625,-16.796875 -6.890625,-8.6875 -18.796875,-8.6875 -9.765625,0 -15.953125,5.46875 Q 5.03125,9.71875 4.15625,18.75 Z" />
          </defs>
          <use
             height="100%"
             width="100%"
             y="0"
             x="0"
             id="use53610"
             xlink:href="#ArialMT-48" />
          <use
             height="100%"
             width="100%"
             y="0"
             id="use53612"
             xlink:href="#ArialMT-46"
             x="55.615234" />
          <use
             height="100%"
             width="100%"
             y="0"
             id="use53614"
             xlink:href="#ArialMT-53"
             x="83.398438" />
        </g>
      </g>
    </g>
    <g
       id="xtick_3">
      <g
         id="line2d_3">
        <g
           id="g53622">
          <use
             height="100%"
             width="100%"
             id="use53620"
             y="320.20001"
             xlink:href="#mcb627ddc9e"
             x="151.39346"
             style="stroke:#000000;stroke-width:0.8" />
        </g>
      </g>
      <g
         id="text_3">
        <!-- 1.0 -->
        <g
           id="g53634"
           transform="matrix(0.1,0,0,-0.1,144.44346,334.35781)">
          <defs
             id="defs53626">
            <path
               id="ArialMT-49"
               d="m 37.25,0 h -8.78125 v 56 q -3.171875,-3.015625 -8.328125,-6.046875 -5.15625,-3.03125 -9.25,-4.546875 v 8.5 q 7.375,3.46875 12.890625,8.390625 5.515625,4.9375 7.8125,9.578125 H 37.25 Z" />
          </defs>
          <use
             height="100%"
             width="100%"
             y="0"
             x="0"
             id="use53628"
             xlink:href="#ArialMT-49" />
          <use
             height="100%"
             width="100%"
             y="0"
             id="use53630"
             xlink:href="#ArialMT-46"
             x="55.615234" />
          <use
             height="100%"
             width="100%"
             y="0"
             id="use53632"
             xlink:href="#ArialMT-48"
             x="83.398438" />
        </g>
      </g>
    </g>
    <g
       id="xtick_4">
      <g
         id="line2d_4">
        <g
           id="g53640">
          <use
             height="100%"
             width="100%"
             id="use53638"
             y="320.20001"
             xlink:href="#mcb627ddc9e"
             x="198.0257"
             style="stroke:#000000;stroke-width:0.8" />
        </g>
      </g>
      <g
         id="text_4">
        <!-- 1.5 -->
        <g
           id="g53649"
           transform="matrix(0.1,0,0,-0.1,191.07569,334.35781)">
          <use
             height="100%"
             width="100%"
             y="0"
             x="0"
             id="use53643"
             xlink:href="#ArialMT-49" />
          <use
             height="100%"
             width="100%"
             y="0"
             id="use53645"
             xlink:href="#ArialMT-46"
             x="55.615234" />
          <use
             height="100%"
             width="100%"
             y="0"
             id="use53647"
             xlink:href="#ArialMT-53"
             x="83.398438" />
        </g>
      </g>
    </g>
    <g
       id="xtick_5">
      <g
         id="line2d_5">
        <g
           id="g53655">
          <use
             height="100%"
             width="100%"
             id="use53653"
             y="320.20001"
             xlink:href="#mcb627ddc9e"
             x="244.65793"
             style="stroke:#000000;stroke-width:0.8" />
        </g>
      </g>
      <g
         id="text_5">
        <!-- 2.0 -->
        <g
           id="g53667"
           transform="matrix(0.1,0,0,-0.1,237.70792,334.35781)">
          <defs
             id="defs53659">
            <path
               id="ArialMT-50"
               d="M 50.34375,8.453125 V 0 H 3.03125 Q 2.9375,3.171875 4.046875,6.109375 5.859375,10.9375 9.828125,15.625 13.8125,20.3125 21.34375,26.46875 q 11.671875,9.5625 15.765625,15.15625 4.109375,5.59375 4.109375,10.578125 0,5.21875 -3.75,8.796875 -3.734375,3.59375 -9.734375,3.59375 -6.34375,0 -10.15625,-3.8125 Q 13.765625,56.984375 13.71875,50.25 L 4.6875,51.171875 q 0.921875,10.109375 6.96875,15.40625 6.0625,5.296875 16.28125,5.296875 10.296875,0 16.296875,-5.71875 Q 50.25,60.453125 50.25,52 50.25,47.703125 48.484375,43.546875 46.734375,39.40625 42.65625,34.8125 38.578125,30.21875 29.109375,22.21875 21.1875,15.578125 18.9375,13.203125 q -2.234375,-2.359375 -3.703125,-4.75 z" />
          </defs>
          <use
             height="100%"
             width="100%"
             y="0"
             x="0"
             id="use53661"
             xlink:href="#ArialMT-50" />
          <use
             height="100%"
             width="100%"
             y="0"
             id="use53663"
             xlink:href="#ArialMT-46"
             x="55.615234" />
          <use
             height="100%"
             width="100%"
             y="0"
             id="use53665"
             xlink:href="#ArialMT-48"
             x="83.398438" />
        </g>
      </g>
    </g>
    <g
       id="xtick_6">
      <g
         id="line2d_6">
        <g
           id="g53673">
          <use
             height="100%"
             width="100%"
             id="use53671"
             y="320.20001"
             xlink:href="#mcb627ddc9e"
             x="291.29016"
             style="stroke:#000000;stroke-width:0.8" />
        </g>
      </g>
      <g
         id="text_6">
        <!-- 2.5 -->
        <g
           id="g53682"
           transform="matrix(0.1,0,0,-0.1,284.34015,334.35781)">
          <use
             height="100%"
             width="100%"
             y="0"
             x="0"
             id="use53676"
             xlink:href="#ArialMT-50" />
          <use
             height="100%"
             width="100%"
             y="0"
             id="use53678"
             xlink:href="#ArialMT-46"
             x="55.615234" />
          <use
             height="100%"
             width="100%"
             y="0"
             id="use53680"
             xlink:href="#ArialMT-53"
             x="83.398438" />
        </g>
      </g>
    </g>
    <g
       id="xtick_7">
      <g
         id="line2d_7">
        <g
           id="g53688">
          <use
             height="100%"
             width="100%"
             id="use53686"
             y="320.20001"
             xlink:href="#mcb627ddc9e"
             x="337.92239"
             style="stroke:#000000;stroke-width:0.8" />
        </g>
      </g>
      <g
         id="text_7">
        <!-- 3.0 -->
        <g
           id="g53700"
           transform="matrix(0.1,0,0,-0.1,330.97238,334.35781)">
          <defs
             id="defs53692">
            <path
               id="ArialMT-51"
               d="m 4.203125,18.890625 8.78125,1.171875 Q 14.5,12.59375 18.140625,9.296875 21.78125,6 27,6 33.203125,6 37.46875,10.296875 41.75,14.59375 41.75,20.953125 q 0,6.046875 -3.953125,9.96875 -3.953125,3.9375 -10.0625,3.9375 -2.484375,0 -6.203125,-0.96875 l 0.984375,7.71875 Q 23.390625,41.5 23.921875,41.5 q 5.625,0 10.109375,2.921875 4.5,2.9375 4.5,9.046875 0,4.828125 -3.28125,8 -3.265625,3.1875 -8.4375,3.1875 -5.125,0 -8.546875,-3.234375 -3.421875,-3.21875 -4.390625,-9.65625 l -8.796875,1.5625 q 1.609375,8.828125 7.3125,13.6875 5.71875,4.859375 14.21875,4.859375 5.859375,0 10.78125,-2.515625 4.9375,-2.515625 7.546875,-6.859375 2.625,-4.34375 2.625,-9.234375 0,-4.625 -2.5,-8.4375 -2.484375,-3.8125 -7.359375,-6.0625 6.34375,-1.453125 9.859375,-6.078125 3.515625,-4.609375 3.515625,-11.546875 0,-9.375 -6.84375,-15.890625 -6.828125,-6.515625 -17.28125,-6.515625 -9.421875,0 -15.65625,5.609375 -6.21875,5.625 -7.09375,14.546875 z" />
          </defs>
          <use
             height="100%"
             width="100%"
             y="0"
             x="0"
             id="use53694"
             xlink:href="#ArialMT-51" />
          <use
             height="100%"
             width="100%"
             y="0"
             id="use53696"
             xlink:href="#ArialMT-46"
             x="55.615234" />
          <use
             height="100%"
             width="100%"
             y="0"
             id="use53698"
             xlink:href="#ArialMT-48"
             x="83.398438" />
        </g>
      </g>
    </g>
    <g
       id="text_8">
      <!-- residue entropy -->
      <g
         id="g53748"
         transform="matrix(0.1,0,0,-0.1,158.20649,347.50312)">
        <defs
           id="defs53716">
          <path
             id="ArialMT-114"
             d="m 6.5,0 v 51.859375 h 7.90625 V 44 Q 17.4375,49.515625 20,51.265625 q 2.5625,1.765625 5.640625,1.765625 4.4375,0 9.03125,-2.828125 l -3.03125,-8.15625 q -3.21875,1.90625 -6.4375,1.90625 -2.890625,0 -5.1875,-1.734375 -2.296875,-1.734375 -3.265625,-4.8125 -1.46875,-4.6875 -1.46875,-10.25 V 0 Z" />
          <path
             id="ArialMT-101"
             d="m 42.09375,16.703125 9.078125,-1.125 Q 49.03125,7.625 43.21875,3.21875 37.40625,-1.171875 28.375,-1.171875 q -11.375,0 -18.046875,7 -6.671875,7.015625 -6.671875,19.65625 0,13.09375 6.734375,20.3125 6.75,7.234375 17.484375,7.234375 10.40625,0 17,-7.078125 6.59375,-7.078125 6.59375,-19.921875 0,-0.78125 -0.04687,-2.34375 H 12.75 q 0.484375,-8.546875 4.828125,-13.09375 4.34375,-4.53125 10.84375,-4.53125 4.828125,0 8.25,2.53125 3.421875,2.546875 5.421875,8.109375 z M 13.234375,30.90625 H 42.1875 q -0.578125,6.546875 -3.3125,9.8125 -4.203125,5.078125 -10.890625,5.078125 -6.0625,0 -10.1875,-4.046875 -4.125,-4.046875 -4.5625,-10.84375 z" />
          <path
             id="ArialMT-115"
             d="m 3.078125,15.484375 8.6875,1.359375 Q 12.5,11.625 15.84375,8.84375 19.1875,6.0625 25.203125,6.0625 q 6.046875,0 8.96875,2.453125 2.9375,2.46875 2.9375,5.796875 0,2.96875 -2.59375,4.6875 Q 32.71875,20.171875 25.53125,21.96875 15.875,24.421875 12.140625,26.203125 8.40625,27.984375 6.46875,31.125 q -1.921875,3.15625 -1.921875,6.96875 0,3.453125 1.578125,6.40625 1.59375,2.96875 4.328125,4.921875 2.046875,1.5 5.578125,2.546875 3.546875,1.0625 7.609375,1.0625 6.09375,0 10.703125,-1.765625 4.625,-1.75 6.8125,-4.765625 2.203125,-3 3.03125,-8.015625 L 35.59375,37.3125 q -0.578125,4 -3.390625,6.234375 -2.8125,2.25 -7.9375,2.25 -6.046875,0 -8.640625,-2 -2.59375,-2 -2.59375,-4.6875 0,-1.703125 1.078125,-3.078125 1.078125,-1.40625 3.375,-2.34375 1.3125,-0.484375 7.765625,-2.234375 9.328125,-2.5 13,-4.09375 3.6875,-1.578125 5.78125,-4.609375 2.109375,-3.015625 2.109375,-7.515625 0,-4.390625 -2.5625,-8.28125 -2.5625,-3.875 -7.40625,-6 -4.828125,-2.125 -10.921875,-2.125 -10.109375,0 -15.40625,4.203125 -5.296875,4.203125 -6.765625,12.453125 z" />
          <path
             id="ArialMT-105"
             d="M 6.640625,61.46875 V 71.578125 H 15.4375 V 61.46875 Z M 6.640625,0 V 51.859375 H 15.4375 V 0 Z" />
          <path
             id="ArialMT-100"
             d="m 40.234375,0 v 6.546875 q -4.9375,-7.71875 -14.5,-7.71875 -6.203125,0 -11.40625,3.421875 -5.203125,3.421875 -8.0625,9.546875 -2.84375,6.125 -2.84375,14.078125 0,7.765625 2.578125,14.09375 2.59375,6.328125 7.765625,9.6875 5.1875,3.375 11.578125,3.375 4.6875,0 8.34375,-1.984375 3.671875,-1.96875 5.96875,-5.140625 v 25.671875 h 8.734375 V 0 Z m -27.78125,25.875 q 0,-9.953125 4.1875,-14.890625 Q 20.84375,6.0625 26.5625,6.0625 q 5.765625,0 9.78125,4.703125 4.03125,4.71875 4.03125,14.375 0,10.65625 -4.109375,15.625 Q 32.171875,45.75 26.171875,45.75 20.3125,45.75 16.375,40.96875 12.453125,36.1875 12.453125,25.875 Z" />
          <path
             id="ArialMT-117"
             d="m 40.578125,0 v 7.625 q -6.0625,-8.796875 -16.453125,-8.796875 -4.59375,0 -8.578125,1.75 Q 11.578125,2.34375 9.640625,5 7.71875,7.671875 6.9375,11.53125 6.390625,14.109375 6.390625,19.734375 v 32.125 H 15.1875 V 23.09375 q 0,-6.875 0.53125,-9.28125 0.828125,-3.453125 3.515625,-5.4375 2.6875,-1.984375 6.640625,-1.984375 3.953125,0 7.421875,2.03125 3.46875,2.03125 4.90625,5.515625 1.453125,3.5 1.453125,10.140625 v 27.78125 H 48.4375 V 0 Z" />
          <path
             d=""
             id="ArialMT-32" />
          <path
             id="ArialMT-110"
             d="M 6.59375,0 V 51.859375 H 14.5 v -7.375 q 5.71875,8.546875 16.5,8.546875 4.6875,0 8.625,-1.6875 3.9375,-1.6875 5.890625,-4.421875 Q 47.46875,44.1875 48.25,40.4375 48.734375,37.984375 48.734375,31.890625 V 0 H 39.9375 v 31.546875 q 0,5.375 -1.03125,8.03125 -1.015625,2.65625 -3.625,4.234375 -2.609375,1.59375 -6.125,1.59375 -5.625,0 -9.703125,-3.5625 Q 15.375,38.28125 15.375,28.328125 V 0 Z" />
          <path
             id="ArialMT-116"
             d="M 25.78125,7.859375 27.046875,0.09375 Q 23.34375,-0.6875 20.40625,-0.6875 15.625,-0.6875 12.984375,0.828125 10.359375,2.34375 9.28125,4.8125 8.203125,7.28125 8.203125,15.1875 v 29.828125 h -6.4375 v 6.84375 h 6.4375 v 12.84375 L 16.9375,69.96875 V 51.859375 h 8.84375 v -6.84375 H 16.9375 v -30.3125 q 0,-3.765625 0.46875,-4.84375 0.46875,-1.0625 1.515625,-1.703125 1.046875,-0.640625 3,-0.640625 1.46875,0 3.859375,0.34375 z" />
          <path
             id="ArialMT-111"
             d="m 3.328125,25.921875 q 0,14.40625 8,21.34375 6.6875,5.765625 16.3125,5.765625 10.6875,0 17.46875,-7.015625 6.796875,-7 6.796875,-19.359375 0,-10 -3,-15.75 -3,-5.734375 -8.75,-8.90625 Q 34.421875,-1.171875 27.640625,-1.171875 16.75,-1.171875 10.03125,5.8125 3.328125,12.796875 3.328125,25.921875 Z m 9.03125,0 q 0,-9.953125 4.34375,-14.90625 4.34375,-4.953125 10.9375,-4.953125 6.546875,0 10.890625,4.96875 4.34375,4.984375 4.34375,15.1875 0,9.625 -4.375,14.578125 Q 34.125,45.75 27.640625,45.75 q -6.59375,0 -10.9375,-4.9375 -4.34375,-4.921875 -4.34375,-14.890625 z" />
          <path
             id="ArialMT-112"
             d="m 6.59375,-19.875 v 71.734375 h 8 V 45.125 Q 17.4375,49.078125 21,51.046875 q 3.5625,1.984375 8.640625,1.984375 6.640625,0 11.71875,-3.421875 5.078125,-3.421875 7.65625,-9.65625 2.59375,-6.21875 2.59375,-13.640625 0,-7.953125 -2.859375,-14.328125 Q 45.90625,5.609375 40.453125,2.21875 35.015625,-1.171875 29,-1.171875 q -4.390625,0 -7.890625,1.859375 Q 17.625,2.546875 15.375,5.375 v -25.25 z m 7.953125,45.515625 q 0,-10.015625 4.046875,-14.796875 4.0625,-4.78125 9.828125,-4.78125 5.859375,0 10.03125,4.953125 Q 42.625,15.96875 42.625,26.375 q 0,9.90625 -4.078125,14.828125 -4.078125,4.9375 -9.734375,4.9375 -5.625,0 -9.953125,-5.25 -4.3125,-5.25 -4.3125,-15.25 z" />
          <path
             id="ArialMT-121"
             d="m 6.203125,-19.96875 -0.984375,8.25 Q 8.109375,-12.5 10.25,-12.5 q 2.9375,0 4.6875,0.984375 1.765625,0.96875 2.890625,2.71875 0.828125,1.328125 2.6875,6.546875 0.234375,0.734375 0.78125,2.15625 l -19.6875,51.953125 h 9.46875 L 21.875,21.828125 Q 23.96875,16.109375 25.640625,9.8125 27.15625,15.875 29.25,21.625 L 40.328125,51.859375 H 49.125 L 29.390625,-0.875 Q 26.21875,-9.421875 24.46875,-12.640625 22.125,-17 19.09375,-19.015625 q -3.03125,-2.03125 -7.234375,-2.03125 -2.53125,0 -5.65625,1.078125 z" />
        </defs>
        <use
           height="100%"
           width="100%"
           y="0"
           x="0"
           id="use53718"
           xlink:href="#ArialMT-114" />
        <use
           height="100%"
           width="100%"
           y="0"
           id="use53720"
           xlink:href="#ArialMT-101"
           x="33.300781" />
        <use
           height="100%"
           width="100%"
           y="0"
           id="use53722"
           xlink:href="#ArialMT-115"
           x="88.916016" />
        <use
           height="100%"
           width="100%"
           y="0"
           id="use53724"
           xlink:href="#ArialMT-105"
           x="138.91602" />
        <use
           height="100%"
           width="100%"
           y="0"
           id="use53726"
           xlink:href="#ArialMT-100"
           x="161.13281" />
        <use
           height="100%"
           width="100%"
           y="0"
           id="use53728"
           xlink:href="#ArialMT-117"
           x="216.74805" />
        <use
           height="100%"
           width="100%"
           y="0"
           id="use53730"
           xlink:href="#ArialMT-101"
           x="272.36328" />
        <use
           height="100%"
           width="100%"
           y="0"
           id="use53732"
           xlink:href="#ArialMT-32"
           x="327.97852" />
        <use
           height="100%"
           width="100%"
           y="0"
           id="use53734"
           xlink:href="#ArialMT-101"
           x="355.76172" />
        <use
           height="100%"
           width="100%"
           y="0"
           id="use53736"
           xlink:href="#ArialMT-110"
           x="411.37695" />
        <use
           height="100%"
           width="100%"
           y="0"
           id="use53738"
           xlink:href="#ArialMT-116"
           x="466.99219" />
        <use
           height="100%"
           width="100%"
           y="0"
           id="use53740"
           xlink:href="#ArialMT-114"
           x="494.77539" />
        <use
           height="100%"
           width="100%"
           y="0"
           id="use53742"
           xlink:href="#ArialMT-111"
           x="528.07617" />
        <use
           height="100%"
           width="100%"
           y="0"
           id="use53744"
           xlink:href="#ArialMT-112"
           x="583.69141" />
        <use
           height="100%"
           width="100%"
           y="0"
           id="use53746"
           xlink:href="#ArialMT-121"
           x="639.30664" />
      </g>
    </g>
  </g>
  <g
     id="matplotlib.axis_2">
    <g
       id="ytick_1">
      <g
         id="line2d_8">
        <defs
           id="defs53753">
          <path
             style="stroke:#000000;stroke-width:0.8"
             id="mfab0bf8a29"
             d="M 0,0 H -3.5" />
        </defs>
        <g
           id="g53757">
          <use
             height="100%"
             width="100%"
             id="use53755"
             y="320.20001"
             xlink:href="#mfab0bf8a29"
             x="44.674999"
             style="stroke:#000000;stroke-width:0.8" />
        </g>
      </g>
      <g
         id="text_9">
        <!-- 0.0 -->
        <g
           id="g53766"
           transform="matrix(0.1,0,0,-0.1,23.775,323.77891)">
          <use
             height="100%"
             width="100%"
             y="0"
             x="0"
             id="use53760"
             xlink:href="#ArialMT-48" />
          <use
             height="100%"
             width="100%"
             y="0"
             id="use53762"
             xlink:href="#ArialMT-46"
             x="55.615234" />
          <use
             height="100%"
             width="100%"
             y="0"
             id="use53764"
             xlink:href="#ArialMT-48"
             x="83.398438" />
        </g>
      </g>
    </g>
    <g
       id="ytick_2">
      <g
         id="line2d_9">
        <g
           id="g53772">
          <use
             height="100%"
             width="100%"
             id="use53770"
             y="259.01999"
             xlink:href="#mfab0bf8a29"
             x="44.674999"
             style="stroke:#000000;stroke-width:0.8" />
        </g>
      </g>
      <g
         id="text_10">
        <!-- 0.2 -->
        <g
           id="g53781"
           transform="matrix(0.1,0,0,-0.1,23.775,262.59891)">
          <use
             height="100%"
             width="100%"
             y="0"
             x="0"
             id="use53775"
             xlink:href="#ArialMT-48" />
          <use
             height="100%"
             width="100%"
             y="0"
             id="use53777"
             xlink:href="#ArialMT-46"
             x="55.615234" />
          <use
             height="100%"
             width="100%"
             y="0"
             id="use53779"
             xlink:href="#ArialMT-50"
             x="83.398438" />
        </g>
      </g>
    </g>
    <g
       id="ytick_3">
      <g
         id="line2d_10">
        <g
           id="g53787">
          <use
             height="100%"
             width="100%"
             id="use53785"
             y="197.84"
             xlink:href="#mfab0bf8a29"
             x="44.674999"
             style="stroke:#000000;stroke-width:0.8" />
        </g>
      </g>
      <g
         id="text_11">
        <!-- 0.4 -->
        <g
           id="g53799"
           transform="matrix(0.1,0,0,-0.1,23.775,201.41891)">
          <defs
             id="defs53791">
            <path
               id="ArialMT-52"
               d="m 32.328125,0 v 17.140625 h -31.0625 v 8.0625 l 32.671875,46.375 h 7.171875 v -46.375 h 9.671875 v -8.0625 H 41.109375 V 0 Z m 0,25.203125 V 57.46875 L 9.90625,25.203125 Z" />
          </defs>
          <use
             height="100%"
             width="100%"
             y="0"
             x="0"
             id="use53793"
             xlink:href="#ArialMT-48" />
          <use
             height="100%"
             width="100%"
             y="0"
             id="use53795"
             xlink:href="#ArialMT-46"
             x="55.615234" />
          <use
             height="100%"
             width="100%"
             y="0"
             id="use53797"
             xlink:href="#ArialMT-52"
             x="83.398438" />
        </g>
      </g>
    </g>
    <g
       id="ytick_4">
      <g
         id="line2d_11">
        <g
           id="g53805">
          <use
             height="100%"
             width="100%"
             id="use53803"
             y="136.66"
             xlink:href="#mfab0bf8a29"
             x="44.674999"
             style="stroke:#000000;stroke-width:0.8" />
        </g>
      </g>
      <g
         id="text_12">
        <!-- 0.6 -->
        <g
           id="g53817"
           transform="matrix(0.1,0,0,-0.1,23.775,140.23891)">
          <defs
             id="defs53809">
            <path
               id="ArialMT-54"
               d="M 49.75,54.046875 41.015625,53.375 q -1.171875,5.171875 -3.3125,7.515625 -3.578125,3.765625 -8.796875,3.765625 -4.203125,0 -7.375,-2.34375 Q 17.390625,59.28125 14.984375,53.46875 12.59375,47.65625 12.5,36.921875 15.671875,41.75 20.265625,44.09375 q 4.59375,2.34375 9.625,2.34375 8.78125,0 14.953125,-6.46875 Q 51.03125,33.5 51.03125,23.25 51.03125,16.5 48.125,10.71875 45.21875,4.9375 40.140625,1.859375 35.0625,-1.21875 28.609375,-1.21875 17.625,-1.21875 10.6875,6.859375 3.765625,14.9375 3.765625,33.5 q 0,20.75 7.65625,30.171875 6.6875,8.203125 18.015625,8.203125 8.453125,0 13.84375,-4.734375 Q 48.6875,62.40625 49.75,54.046875 Z M 13.875,23.1875 q 0,-4.53125 1.921875,-8.6875 Q 17.71875,10.359375 21.1875,8.171875 24.65625,6 28.46875,6 q 5.5625,0 9.5625,4.484375 4.015625,4.5 4.015625,12.21875 0,7.421875 -3.96875,11.6875 -3.953125,4.28125 -9.953125,4.28125 -5.953125,0 -10.109375,-4.28125 Q 13.875,30.125 13.875,23.1875 Z" />
          </defs>
          <use
             height="100%"
             width="100%"
             y="0"
             x="0"
             id="use53811"
             xlink:href="#ArialMT-48" />
          <use
             height="100%"
             width="100%"
             y="0"
             id="use53813"
             xlink:href="#ArialMT-46"
             x="55.615234" />
          <use
             height="100%"
             width="100%"
             y="0"
             id="use53815"
             xlink:href="#ArialMT-54"
             x="83.398438" />
        </g>
      </g>
    </g>
    <g
       id="ytick_5">
      <g
         id="line2d_12">
        <g
           id="g53823">
          <use
             height="100%"
             width="100%"
             id="use53821"
             y="75.480003"
             xlink:href="#mfab0bf8a29"
             x="44.674999"
             style="stroke:#000000;stroke-width:0.8" />
        </g>
      </g>
      <g
         id="text_13">
        <!-- 0.8 -->
        <g
           id="g53835"
           transform="matrix(0.1,0,0,-0.1,23.775,79.058906)">
          <defs
             id="defs53827">
            <path
               id="ArialMT-56"
               d="m 17.671875,38.8125 q -5.46875,2.015625 -8.109375,5.71875 -2.625,3.71875 -2.625,8.890625 0,7.8125 5.609375,13.125 5.625,5.328125 14.9375,5.328125 9.375,0 15.09375,-5.453125 5.71875,-5.4375 5.71875,-13.25 0,-4.984375 -2.625,-8.671875 Q 43.0625,40.828125 37.75,38.8125 q 6.59375,-2.140625 10.03125,-6.9375 3.4375,-4.78125 3.4375,-11.421875 0,-9.171875 -6.5,-15.421875 -6.484375,-6.25 -17.078125,-6.25 -10.59375,0 -17.09375,6.265625 -6.5,6.28125 -6.5,15.65625 0,6.984375 3.546875,11.6875 3.546875,4.71875 10.078125,6.421875 z m -1.75,14.90625 q 0,-5.078125 3.265625,-8.3125 3.28125,-3.21875 8.5,-3.21875 5.078125,0 8.328125,3.1875 3.25,3.203125 3.25,7.84375 0,4.84375 -3.359375,8.140625 -3.34375,3.296875 -8.3125,3.296875 -5.03125,0 -8.359375,-3.234375 -3.3125,-3.21875 -3.3125,-7.703125 z M 13.09375,20.65625 q 0,-3.765625 1.78125,-7.28125 Q 16.65625,9.859375 20.171875,7.921875 23.6875,6 27.734375,6 34.03125,6 38.125,10.046875 q 4.109375,4.0625 4.109375,10.3125 0,6.34375 -4.21875,10.5 -4.21875,4.15625 -10.578125,4.15625 -6.203125,0 -10.28125,-4.109375 -4.0625,-4.09375 -4.0625,-10.25 z" />
          </defs>
          <use
             height="100%"
             width="100%"
             y="0"
             x="0"
             id="use53829"
             xlink:href="#ArialMT-48" />
          <use
             height="100%"
             width="100%"
             y="0"
             id="use53831"
             xlink:href="#ArialMT-46"
             x="55.615234" />
          <use
             height="100%"
             width="100%"
             y="0"
             id="use53833"
             xlink:href="#ArialMT-56"
             x="83.398438" />
        </g>
      </g>
    </g>
    <g
       id="ytick_6">
      <g
         id="line2d_13">
        <g
           id="g53841">
          <use
             height="100%"
             width="100%"
             id="use53839"
             y="14.3"
             xlink:href="#mfab0bf8a29"
             x="44.674999"
             style="stroke:#000000;stroke-width:0.8" />
        </g>
      </g>
      <g
         id="text_14">
        <!-- 1.0 -->
        <g
           id="g53850"
           transform="matrix(0.1,0,0,-0.1,23.775,17.878906)">
          <use
             height="100%"
             width="100%"
             y="0"
             x="0"
             id="use53844"
             xlink:href="#ArialMT-49" />
          <use
             height="100%"
             width="100%"
             y="0"
             id="use53846"
             xlink:href="#ArialMT-46"
             x="55.615234" />
          <use
             height="100%"
             width="100%"
             y="0"
             id="use53848"
             xlink:href="#ArialMT-48"
             x="83.398438" />
        </g>
      </g>
    </g>
    <g
       id="text_15">
      <!-- empirical cumulative distribution -->
      <g
         id="g53928"
         transform="matrix(0,-0.1,-0.1,0,17.7875,238.10781)">
        <defs
           id="defs53860">
          <path
             id="ArialMT-109"
             d="m 6.59375,0 v 51.859375 h 7.859375 v -7.28125 q 2.4375,3.8125 6.484375,6.125 4.0625,2.328125 9.234375,2.328125 5.765625,0 9.453125,-2.390625 3.6875,-2.390625 5.203125,-6.6875 6.15625,9.078125 16.015625,9.078125 7.71875,0 11.859375,-4.28125 4.15625,-4.265625 4.15625,-13.15625 V 0 h -8.75 v 32.671875 q 0,5.265625 -0.859375,7.578125 -0.84375,2.328125 -3.09375,3.734375 -2.234375,1.421875 -5.265625,1.421875 -5.46875,0 -9.09375,-3.640625 Q 46.1875,38.140625 46.1875,30.125 V 0 h -8.78125 v 33.6875 q 0,5.859375 -2.15625,8.78125 -2.140625,2.9375 -7.03125,2.9375 -3.703125,0 -6.859375,-1.953125 Q 18.21875,41.5 16.796875,37.734375 15.375,33.984375 15.375,26.90625 V 0 Z" />
          <path
             id="ArialMT-99"
             d="m 40.4375,19 8.640625,-1.125 Q 47.65625,8.9375 41.8125,3.875 35.984375,-1.171875 27.484375,-1.171875 16.84375,-1.171875 10.375,5.78125 3.90625,12.75 3.90625,25.734375 q 0,8.390625 2.78125,14.6875 2.78125,6.3125 8.46875,9.453125 5.6875,3.15625 12.390625,3.15625 8.4375,0 13.8125,-4.28125 5.375,-4.265625 6.890625,-12.125 l -8.546875,-1.328125 q -1.21875,5.234375 -4.328125,7.859375 -3.09375,2.640625 -7.5,2.640625 -6.640625,0 -10.796875,-4.765625 -4.140625,-4.75 -4.140625,-15.046875 0,-10.453125 4,-15.1875 Q 20.953125,6.0625 27.390625,6.0625 32.5625,6.0625 36.03125,9.234375 39.5,12.40625 40.4375,19 Z" />
          <path
             id="ArialMT-97"
             d="M 40.4375,6.390625 Q 35.546875,2.25 31.03125,0.53125 q -4.515625,-1.703125 -9.6875,-1.703125 -8.546875,0 -13.140625,4.171875 -4.59375,4.171875 -4.59375,10.671875 0,3.8125 1.734375,6.953125 1.734375,3.15625 4.546875,5.0625 2.8125,1.90625 6.328125,2.875 2.578125,0.6875 7.8125,1.328125 10.640625,1.265625 15.671875,3.015625 0.04687,1.8125 0.04687,2.296875 0,5.375 -2.5,7.578125 -3.359375,2.96875 -10,2.96875 -6.203125,0 -9.15625,-2.171875 -2.953125,-2.171875 -4.375,-7.6875 L 5.125,37.0625 q 1.171875,5.515625 3.859375,8.90625 2.6875,3.390625 7.765625,5.21875 5.078125,1.84375 11.765625,1.84375 6.640625,0 10.78125,-1.5625 4.15625,-1.5625 6.109375,-3.9375 1.953125,-2.359375 2.734375,-5.984375 0.4375,-2.234375 0.4375,-8.09375 v -11.71875 q 0,-12.265625 0.5625,-15.515625 Q 49.703125,2.984375 51.375,0 h -9.1875 q -1.359375,2.734375 -1.75,6.390625 z M 39.703125,26.03125 Q 34.90625,24.078125 25.34375,22.703125 19.921875,21.921875 17.671875,20.9375 15.4375,19.96875 14.203125,18.09375 q -1.21875,-1.875 -1.21875,-4.171875 0,-3.515625 2.65625,-5.859375 2.671875,-2.34375 7.796875,-2.34375 5.078125,0 9.03125,2.21875 3.953125,2.21875 5.8125,6.078125 1.421875,2.984375 1.421875,8.78125 z" />
          <path
             id="ArialMT-108"
             d="M 6.390625,0 V 71.578125 H 15.1875 V 0 Z" />
          <path
             id="ArialMT-118"
             d="M 21,0 1.265625,51.859375 h 9.28125 L 21.6875,20.796875 q 1.796875,-5.03125 3.3125,-10.4375 1.171875,4.09375 3.265625,9.859375 l 11.53125,31.640625 h 9.03125 L 29.203125,0 Z" />
          <path
             id="ArialMT-98"
             d="m 14.703125,0 h -8.15625 v 71.578125 h 8.78125 v -25.53125 q 5.578125,6.984375 14.21875,6.984375 4.78125,0 9.046875,-1.9375 Q 42.875,49.171875 45.625,45.671875 48.390625,42.1875 49.953125,37.25 q 1.5625,-4.921875 1.5625,-10.546875 0,-13.328125 -6.59375,-20.609375 -6.59375,-7.265625 -15.8125,-7.265625 -9.1875,0 -14.40625,7.671875 z M 14.59375,26.3125 Q 14.59375,17 17.140625,12.84375 21.296875,6.0625 28.375,6.0625 q 5.75,0 9.953125,5 4.203125,5 4.203125,14.921875 0,10.15625 -4.03125,14.984375 -4.03125,4.828125 -9.734375,4.828125 -5.765625,0 -9.96875,-5 -4.203125,-5 -4.203125,-14.484375 z" />
        </defs>
        <use
           height="100%"
           width="100%"
           y="0"
           x="0"
           id="use53862"
           xlink:href="#ArialMT-101" />
        <use
           height="100%"
           width="100%"
           y="0"
           id="use53864"
           xlink:href="#ArialMT-109"
           x="55.615234" />
        <use
           height="100%"
           width="100%"
           y="0"
           id="use53866"
           xlink:href="#ArialMT-112"
           x="138.91602" />
        <use
           height="100%"
           width="100%"
           y="0"
           id="use53868"
           xlink:href="#ArialMT-105"
           x="194.53125" />
        <use
           height="100%"
           width="100%"
           y="0"
           id="use53870"
           xlink:href="#ArialMT-114"
           x="216.74805" />
        <use
           height="100%"
           width="100%"
           y="0"
           id="use53872"
           xlink:href="#ArialMT-105"
           x="250.04883" />
        <use
           height="100%"
           width="100%"
           y="0"
           id="use53874"
           xlink:href="#ArialMT-99"
           x="272.26562" />
        <use
           height="100%"
           width="100%"
           y="0"
           id="use53876"
           xlink:href="#ArialMT-97"
           x="322.26562" />
        <use
           height="100%"
           width="100%"
           y="0"
           id="use53878"
           xlink:href="#ArialMT-108"
           x="377.88086" />
        <use
           height="100%"
           width="100%"
           y="0"
           id="use53880"
           xlink:href="#ArialMT-32"
           x="400.09766" />
        <use
           height="100%"
           width="100%"
           y="0"
           id="use53882"
           xlink:href="#ArialMT-99"
           x="427.88086" />
        <use
           height="100%"
           width="100%"
           y="0"
           id="use53884"
           xlink:href="#ArialMT-117"
           x="477.88086" />
        <use
           height="100%"
           width="100%"
           y="0"
           id="use53886"
           xlink:href="#ArialMT-109"
           x="533.49609" />
        <use
           height="100%"
           width="100%"
           y="0"
           id="use53888"
           xlink:href="#ArialMT-117"
           x="616.79688" />
        <use
           height="100%"
           width="100%"
           y="0"
           id="use53890"
           xlink:href="#ArialMT-108"
           x="672.41211" />
        <use
           height="100%"
           width="100%"
           y="0"
           id="use53892"
           xlink:href="#ArialMT-97"
           x="694.62891" />
        <use
           height="100%"
           width="100%"
           y="0"
           id="use53894"
           xlink:href="#ArialMT-116"
           x="750.24414" />
        <use
           height="100%"
           width="100%"
           y="0"
           id="use53896"
           xlink:href="#ArialMT-105"
           x="778.02734" />
        <use
           height="100%"
           width="100%"
           y="0"
           id="use53898"
           xlink:href="#ArialMT-118"
           x="800.24414" />
        <use
           height="100%"
           width="100%"
           y="0"
           id="use53900"
           xlink:href="#ArialMT-101"
           x="850.24414" />
        <use
           height="100%"
           width="100%"
           y="0"
           id="use53902"
           xlink:href="#ArialMT-32"
           x="905.85938" />
        <use
           height="100%"
           width="100%"
           y="0"
           id="use53904"
           xlink:href="#ArialMT-100"
           x="933.64258" />
        <use
           height="100%"
           width="100%"
           y="0"
           id="use53906"
           xlink:href="#ArialMT-105"
           x="989.25781" />
        <use
           height="100%"
           width="100%"
           y="0"
           id="use53908"
           xlink:href="#ArialMT-115"
           x="1011.4746" />
        <use
           height="100%"
           width="100%"
           y="0"
           id="use53910"
           xlink:href="#ArialMT-116"
           x="1061.4746" />
        <use
           height="100%"
           width="100%"
           y="0"
           id="use53912"
           xlink:href="#ArialMT-114"
           x="1089.2578" />
        <use
           height="100%"
           width="100%"
           y="0"
           id="use53914"
           xlink:href="#ArialMT-105"
           x="1122.5586" />
        <use
           height="100%"
           width="100%"
           y="0"
           id="use53916"
           xlink:href="#ArialMT-98"
           x="1144.7754" />
        <use
           height="100%"
           width="100%"
           y="0"
           id="use53918"
           xlink:href="#ArialMT-117"
           x="1200.3906" />
        <use
           height="100%"
           width="100%"
           y="0"
           id="use53920"
           xlink:href="#ArialMT-116"
           x="1256.0059" />
        <use
           height="100%"
           width="100%"
           y="0"
           id="use53922"
           xlink:href="#ArialMT-105"
           x="1283.7891" />
        <use
           height="100%"
           width="100%"
           y="0"
           id="use53924"
           xlink:href="#ArialMT-111"
           x="1306.0059" />
        <use
           height="100%"
           width="100%"
           y="0"
           id="use53926"
           xlink:href="#ArialMT-110"
           x="1361.6211" />
      </g>
    </g>
  </g>
  <g
     id="line2d_14">
    <path
       id="path53932"
       style="fill:none;stroke:#377eb8;stroke-width:1.5;stroke-linecap:square"
       d="m 58.129,320.2 v -5.7717 h 1.413968 v -2.88585 h 0.818627 v -2.88585 h 2.533609 v -2.88585 h 1.043692 v -2.88584 h 2.123137 v -2.88585 h 1.428706 v -2.88585 h 1.480788 v -2.88585 h 2.572099 v -2.88585 h 1.693768 v -2.88585 h 3.042179 v -2.88585 h 0.497608 v -2.88585 h 0.581126 v -2.88585 h 2.267705 v -2.88585 h 0.591084 v -2.88585 h 0.874235 v -2.88584 h 0.430558 v -2.88585 h 2.584991 v -2.88585 h 2.143021 v -2.88585 h 0.290973 v -2.88585 h 1.133838 v -2.88585 h 2.796808 v -2.88585 h 0.302402 v -2.88585 h 0.734052 v -2.88585 h 0.234421 v -2.88585 h 0.949125 v -2.88585 h 3.487483 v -2.88584 h 15.128087 v -2.88585 h 4.44777 v -2.88585 h 2.57215 v -2.88585 h 1.15587 l 0.10333,-5.7717 h 3.0841 v -2.88585 h 1.75084 l 0.005,-5.7717 h 8.01511 v -2.88585 h 0.39644 v -2.88584 h 3.37916 v -2.88585 h 0.92172 v -2.88585 h 0.21547 v -2.88585 h 0.60377 v -2.88585 h 0.69103 v -2.88585 h 4.36993 v -2.88585 h 0.80943 v -2.88585 h 2.49559 v -2.88585 h 1.09425 v -2.88585 h 0.87257 v -2.88585 h 0.72375 v -2.88584 h 1.14086 v -2.88585 h 2.44598 l 0.0755,-5.7717 h 0.43309 V 167.25 h 2.97513 v -2.88585 h 3.96771 v -2.88585 h 4.67463 v -2.88585 h 1.87028 v -2.88585 h 0.41334 v -2.88585 h 2.62488 v -2.88584 h 2.76692 v -2.88585 h 3.66254 v -2.88585 h 3.52149 v -2.88585 h 0.1956 v -2.88585 h 2.56947 v -2.88585 h 0.78137 v -2.88585 h 3.35666 v -2.88585 h 0.26765 v -2.88585 h 2.64748 v -2.88585 h 0.3119 v -2.88585 h 4.152 v -2.88584 h 1.76164 v -2.88585 h 5.94237 v -2.88585 h 1.34018 v -2.88585 h 1.72499 v -2.88585 h 0.97985 l 0.0284,-5.7717 h 0.86263 v -2.885847 h 1.29901 v -2.885849 h 1.90281 v -2.885849 h 0.62749 v -2.88585 h 1.18975 v -2.885849 h 0.38818 v -2.885849 h 5.4267 v -2.885849 h 4.03626 v -2.885849 h 1.80678 V 74.90283 h 2.9652 v -2.885849 h 4.33478 v -2.885849 h 2.57057 v -2.885849 h 0.61186 v -2.885849 h 4.33387 v -2.885849 h 0.14803 v -2.885849 h 3.58351 v -2.885849 h 0.5089 v -2.885849 h 1.03402 v -2.885849 h 4.7267 V 46.04434 h 3.87409 v -2.885849 h 3.57412 v -2.885849 h 2.82431 v -2.88585 h 2.64073 v -2.885849 h 3.58984 l 0.0393,-5.771698 h 0.7337 v -2.885849 h 7.87274 v -2.885849 h 3.35291 v -2.885849 h 23.50228 v -2.885849 h 2.57304 V 14.3 v 0"
       clip-path="url(#p762eb60450)" />
  </g>
  <g
     id="line2d_15">
    <path
       id="path53935"
       style="fill:none;stroke:#e41a1c;stroke-width:1.5;stroke-linecap:square"
       d="m 58.129,320.2 v -0.41702 h 1.048532 v -0.10668 l 0.0309,-57.50536 h 0.286529 v -0.10668 l 0.09056,-1.48382 h 0.171931 v -0.10668 l 0.04743,-3.09372 h 0.328354 v -0.10668 l 0.110539,-16.89423 h 0.01722 v -0.10668 l 0.100596,-1.15409 0.22171,-0.005 v -0.10183 -0.18426 h 0.221178 v -0.10668 l 0.08581,-4.21871 0.149468,-0.0776 v -0.0291 l 0.08273,-0.0727 0.148757,-0.01 v -0.097 l 0.09247,-7.97675 h 0.02021 v -0.10668 l 0.09473,-0.24245 0.30443,-0.063 v -0.0436 l 0.07658,-3.92777 0.06529,-0.0242 v -0.0824 l 0.109922,-0.33458 0.186049,-0.10668 0.0955,-3.20525 h 0.03633 v -0.10668 l 0.0946,-2.52153 0.06794,-0.10668 0.05991,-0.0242 0.253525,-0.0727 v -0.0339 l 0.103189,-2.97735 0.03821,-0.0485 v -0.0582 l 0.09952,-0.59159 0.144428,-0.0873 v -0.0194 l 0.07614,-0.34428 h 0.07028 v -0.10668 l 0.07641,-2.21119 0.03696,-0.063 v -0.0436 l 0.107078,-1.60504 0.15822,-0.0727 v -0.0339 l 0.04006,-0.063 0.09403,-0.0388 v -0.0679 l 0.106644,-2.29847 0.03428,-0.0339 v -0.0727 l 0.10376,-0.87769 0.0591,-0.0582 v -0.0485 l 0.06747,-0.12122 0.08992,-0.0679 v -0.0388 l 0.106938,-0.91648 0.03756,-0.10183 v -0.005 l 0.109449,-1.87175 0.0043,-0.005 v -0.10183 l 0.08859,-0.26185 0.101795,-0.0388 v -0.0679 l 0.07546,-0.0679 h 0.0545 v -0.10668 l 0.110961,-1.56141 0.03315,-0.0921 v -0.0146 l 0.100596,-1.18317 0.0629,-0.0873 v -0.0194 l 0.07559,-0.11638 0.08132,-0.10668 0.106481,-0.62553 0.01097,-0.0582 v -0.0485 l 0.107599,-1.82811 0.03266,-0.0388 v -0.0679 l 0.0809,-0.44127 0.109698,-0.0679 v -0.0388 l 0.104464,-0.21336 0.02543,-0.0146 v -0.0921 l 0.106287,-0.95042 0.01075,-0.0388 v -0.0679 l 0.103504,-1.3432 0.03697,-0.0485 v -0.0582 l 0.110522,-0.20851 0.01927,-0.01 v -0.097 l 0.07647,-0.22791 0.06655,-0.0776 v -0.0291 l 0.07875,-0.55764 h 0.03566 v -0.10668 l 0.09822,-1.6002 0.01743,-0.10183 v -0.005 l 0.0887,-0.16002 0.128821,-0.10668 0.106111,-0.40732 0.02356,-0.0146 v -0.0921 l 0.09056,-1.23167 h 0.02404 v -0.10668 l 0.106375,-0.96012 0.152398,-0.10668 0.100132,-0.32004 0.04091,-0.0873 v -0.0194 l 0.108912,-0.98922 0.0304,-0.063 v -0.0436 l 0.101845,-0.76615 0.03535,-0.0242 v -0.0824 l 0.109182,-0.16487 0.07082,-0.10668 0.10898,-0.5334 0.01456,-0.097 v -0.01 l 0.109905,-0.89224 0.02662,-0.0485 v -0.0582 l 0.102946,-0.31519 0.06239,-0.0921 v -0.0145 l 0.104609,-0.24245 0.0532,-0.0776 v -0.0291 l 0.109565,-0.67402 0.02928,-0.0582 v -0.0485 l 0.103303,-0.63039 0.03848,-0.10183 v -0.005 l 0.106182,-0.20366 0.07502,-0.10183 v -0.005 l 0.109924,-0.33943 0.0095,-0.0873 v -0.0194 l 0.110641,-0.73706 0.02379,-0.0291 v -0.0776 l 0.104192,-0.37822 0.07364,-0.0921 v -0.0145 l 0.105015,-0.28125 0.04005,-0.10183 v -0.005 l 0.110216,-0.49461 0.02816,-0.0873 v -0.0194 l 0.104757,-0.57219 0.04987,-0.10668 0.106658,-0.19881 0.0496,-0.10184 v -0.005 l 0.103317,-0.25216 0.03146,-0.10668 0.107844,-0.62068 0.02298,-0.0339 v -0.0727 l 0.105644,-0.41702 0.0704,-0.10668 0.106944,-0.2764 0.04212,-0.10183 v -0.005 l 0.110166,-0.32004 0.02131,-0.10183 v -0.005 l 0.110161,-0.42672 0.02796,-0.10668 0.110339,-0.22791 0.07274,-0.10668 0.09561,-0.21821 0.04724,-0.10183 v -0.005 l 0.106904,-0.41702 0.02196,-0.10668 0.104673,-0.37823 0.03668,-0.10183 v -0.005 l 0.108349,-0.14062 0.07062,-0.10668 0.110149,-0.32489 0.02499,-0.10668 0.108868,-0.58189 0.0387,-0.10668 0.110155,-0.23276 0.08575,-0.10668 0.107415,-0.23275 0.05632,-0.10183 v -0.005 l 0.108448,-0.43642 0.0234,-0.10668 0.109038,-0.24246 0.0787,-0.10668 0.108509,-0.2279 0.04174,-0.10668 0.107074,-0.38308 0.0344,-0.10668 0.106627,-0.41217 0.0487,-0.10668 0.09467,-0.20851 0.08297,-0.10668 0.106602,-0.22791 0.04357,-0.10668 0.110596,-0.2958 0.04659,-0.10668 0.1056,-0.18911 0.02536,-0.0339 v -0.0727 l 0.110264,-0.20366 0.0522,-0.10668 0.110356,-0.2861 0.04178,-0.10668 0.110993,-0.25215 0.07484,-0.10183 v -0.005 l 0.109551,-0.18912 0.05805,-0.10183 v -0.005 l 0.105062,-0.26186 0.04545,-0.10668 0.109759,-0.32004 0.0694,-0.0921 v -0.0146 l 0.106089,-0.18426 0.06604,-0.10668 0.107188,-0.23761 0.0493,-0.10668 0.111023,-0.2764 0.05513,-0.10668 0.108252,-0.18911 0.07005,-0.10668 0.09736,-0.22306 0.06961,-0.10183 v -0.005 l 0.108206,-0.27155 0.05067,-0.10668 0.110337,-0.17456 0.09419,-0.10668 0.109356,-0.25701 0.06458,-0.10668 0.109017,-0.27639 0.07512,-0.10668 0.103856,-0.24731 0.07862,-0.10668 0.108494,-0.20851 0.05417,-0.10668 0.110274,-0.2473 0.111596,-0.10668 0.109945,-0.18427 0.05412,-0.10668 0.109702,-0.21336 0.05827,-0.10668 0.107856,-0.28609 0.0713,-0.10668 0.110392,-0.25216 0.05658,-0.10668 0.109128,-0.24245 0.06767,-0.10668 0.106133,-0.27155 0.05846,-0.10668 0.109637,-0.16972 0.04731,-0.10668 0.109545,-0.17941 0.05007,-0.10668 0.109193,-0.20367 0.09205,-0.10668 0.105436,-0.18911 0.05653,-0.10668 0.101604,-0.17942 0.06791,-0.10668 0.109404,-0.24245 0.06279,-0.10668 0.106455,-0.14547 0.06516,-0.10668 0.10688,-0.18912 0.07576,-0.10668 0.106597,-0.23276 0.113464,-0.10668 0.107479,-0.13577 0.106814,-0.10668 0.107491,-0.17457 0.07447,-0.10668 0.10637,-0.14547 0.07247,-0.10668 0.105603,-0.22306 0.05204,-0.10668 0.10866,-0.16487 0.113808,-0.10668 0.107699,-0.17941 0.08667,-0.10668 0.106434,-0.14548 0.07822,-0.10668 0.09957,-0.18426 0.08333,-0.10668 0.104586,-0.11638 0.09462,-0.10183 v -0.005 l 0.107847,-0.13092 0.06234,-0.10668 0.109951,-0.12123 0.07024,-0.10668 0.108813,-0.19397 0.06935,-0.10668 0.100913,-0.13092 0.0831,-0.10668 0.105245,-0.10668 0.08965,-0.10668 0.10742,-0.20851 0.06513,-0.10668 0.105718,-0.17457 0.07028,-0.10668 0.106297,-0.19396 0.06648,-0.10668 0.110651,-0.16002 0.07938,-0.10668 0.1074,-0.16002 0.06346,-0.10668 0.107534,-0.16972 0.08734,-0.10668 0.109347,-0.18912 0.06853,-0.10668 0.111046,-0.11637 0.08272,-0.10668 0.108428,-0.18427 0.0932,-0.10668 0.110689,-0.14547 0.07528,-0.10668 0.107821,-0.14063 0.0616,-0.10668 0.110204,-0.15517 0.09311,-0.10668 0.106662,-0.13577 0.09137,-0.10668 0.102881,-0.10183 0.103242,-0.10668 0.109545,-0.15032 0.05355,-0.10668 0.110373,-0.14063 0.08799,-0.10668 0.110996,-0.11153 0.09353,-0.10668 0.109524,-0.16486 0.122318,-0.10668 0.0992,-0.12123 0.112536,-0.10668 0.110031,-0.13578 0.119166,-0.10668 0.108532,-0.10668 0.06264,-0.10668 0.09748,-0.11152 0.128649,-0.10669 0.11045,-0.10668 0.08718,-0.10668 0.104435,-0.13577 0.0733,-0.10668 0.109369,-0.16002 0.09703,-0.10668 0.104913,-0.14547 0.175287,-0.10668 0.110891,-0.14063 0.105227,-0.10668 0.105118,-0.15517 0.110779,-0.10668 0.103314,-0.097 0.106447,-0.10668 0.103101,-0.12608 0.103385,-0.10668 0.100308,-0.0921 0.08881,-0.10668 0.102721,-0.15517 0.08628,-0.10668 0.108019,-0.14062 0.08574,-0.10668 0.103941,-0.11638 0.08924,-0.10668 0.104403,-0.11153 0.07894,-0.10668 0.109287,-0.13093 0.113429,-0.10668 0.09443,-0.13092 0.125545,-0.10668 0.110275,-0.12123 0.0874,-0.10668 0.108172,-0.11638 0.114403,-0.10668 0.110643,-0.0921 0.107029,-0.10668 0.11083,-0.14547 0.110519,-0.10668 0.101172,-0.11153 0.101555,-0.10668 0.109633,-0.11638 0.07176,-0.10668 0.101784,-0.0921 0.160984,-0.10668 0.09962,-0.11153 0.107962,-0.10668 0.107381,-0.12608 0.108049,-0.10668 0.108349,-0.13577 0.123626,-0.10668 0.09858,-0.13578 0.128008,-0.10668 0.09342,-0.12122 0.111384,-0.10668 0.110841,-0.12608 0.100507,-0.10668 0.109449,-0.14547 0.09452,-0.10668 0.110054,-0.063 0.150565,-0.10668 0.108068,-0.0824 0.141572,-0.10668 0.108942,-0.11638 0.09182,-0.10668 0.09475,-0.0776 0.08684,-0.10668 0.1054,-0.14062 0.129913,-0.10668 0.110393,-0.0873 0.127226,-0.10668 0.110354,-0.10668 0.142888,-0.10668 0.10639,-0.0873 0.07248,-0.10668 0.10063,-0.15517 0.15326,-0.10668 0.103078,-0.14062 0.164558,-0.10668 0.102487,-0.0485 0.114246,-0.10668 0.107541,-0.0776 0.139193,-0.10668 0.108029,-0.14062 0.127281,-0.10668 0.09785,-0.0921 0.147578,-0.10668 0.111018,-0.11152 0.108364,-0.10668 0.106728,-0.0679 0.124203,-0.10668 0.09827,-0.10668 0.101133,-0.10668 0.103595,-0.10183 0.134312,-0.10668 0.107755,-0.10183 0.112494,-0.10668 0.09754,-0.0824 0.16777,-0.10668 0.104057,-0.0873 0.141641,-0.10668 0.09829,-0.0727 0.11707,-0.10668 0.110886,-0.0873 0.0994,-0.10668 0.109492,-0.12123 0.161966,-0.10668 0.101313,-0.0776 0.118361,-0.10668 0.109624,-0.13093 0.09831,-0.10668 0.108825,-0.0533 0.149657,-0.10668 0.102801,-0.0921 0.13395,-0.10668 0.107385,-0.0873 0.106674,-0.10668 0.103593,-0.11153 0.123237,-0.10668 0.103072,-0.0824 0.191553,-0.10668 0.108484,-0.16487 0.114071,-0.0727 v -0.0339 l 0.111045,-0.11153 0.14712,-0.10668 0.10582,-0.0921 0.18277,-0.10668 0.11035,-0.097 0.0531,-0.10668 0.10337,-0.0679 0.0838,-0.10668 0.11002,-0.11153 0.11311,-0.10668 0.11015,-0.11153 0.1381,-0.10668 0.1079,-0.0873 0.1328,-0.10668 0.10788,-0.14062 0.12638,-0.10668 0.10906,-0.0776 0.1399,-0.10668 0.10846,-0.15517 0.14084,-0.10668 0.10884,-0.0679 0.16669,-0.10668 0.10419,-0.0727 0.1533,-0.10668 0.10596,-0.0485 0.14241,-0.10668 0.10343,-0.11152 0.14717,-0.10668 0.0825,-0.0436 0.17562,-0.10668 0.10876,-0.0921 0.17958,-0.10668 0.0958,-0.0679 0.14879,-0.10668 0.10691,-0.0921 0.10917,-0.10668 0.10395,-0.12123 0.19142,-0.10668 0.10947,-0.14062 0.15922,-0.10668 0.1104,-0.0873 0.11392,-0.10668 0.0977,-0.0679 0.20367,-0.10668 0.10749,-0.0776 0.15331,-0.10668 0.11095,-0.0921 0.15561,-0.10668 0.099,-0.0776 0.14176,-0.10668 0.1072,-0.0727 0.11668,-0.10668 0.1105,-0.0873 0.15095,-0.10668 0.10644,-0.0776 0.16615,-0.10668 0.10872,-0.0824 0.13072,-0.10668 0.0908,-0.097 0.13544,-0.10667 0.11079,-0.0776 0.16302,-0.10668 0.10835,-0.10183 0.15793,-0.10668 0.10554,-0.0824 0.17558,-0.10668 0.098,-0.12122 0.26372,-0.10668 0.10484,-0.0727 0.15362,-0.10668 0.10242,-0.10183 0.16193,-0.10668 0.1058,-0.0727 0.23893,-0.10668 0.086,-0.0485 0.19703,-0.10668 0.11072,-0.0679 0.13181,-0.10668 0.10344,-0.12123 0.14984,-0.10668 0.10023,-0.13093 0.22476,-0.10668 0.10982,-0.11153 0.13539,-0.10668 0.10674,-0.097 0.15927,-0.10668 0.10936,-0.097 0.20014,-0.10668 0.10379,-0.10183 0.27952,-0.10668 0.10174,-0.0679 0.17855,-0.10668 0.10927,-0.0776 0.15298,-0.10668 0.10786,-0.0291 0.17473,-0.10668 0.10842,-0.10183 0.0893,-0.10668 0.0986,-0.0533 0.12126,-0.10668 0.0974,-0.0436 0.19789,-0.10668 0.10233,-0.063 0.161,-0.10668 0.0897,-0.0776 0.19743,-0.10668 0.0954,-0.12123 0.17283,-0.10668 0.10965,-0.0776 0.13597,-0.10668 0.0979,-0.0727 0.20896,-0.10668 0.10685,-0.13578 0.2251,-0.10668 0.11105,-0.10183 0.12109,-0.10668 0.10988,-0.097 0.16009,-0.10668 0.10747,-0.0485 0.12939,-0.10668 0.11091,-0.0873 0.14987,-0.10669 0.10033,-0.0679 0.1417,-0.10668 0.10445,-0.10183 0.13751,-0.10668 0.10438,-0.0824 0.15839,-0.10668 0.10945,-0.10183 0.15832,-0.10668 0.10922,-0.0921 0.20043,-0.10668 0.10343,-0.0873 0.12903,-0.10668 0.10881,-0.0679 0.19891,-0.10668 0.10287,-0.097 0.13012,-0.10668 0.10614,-0.0776 0.16008,-0.10668 0.10017,-0.0776 0.16,-0.10667 0.0987,-0.063 0.14462,-0.10668 0.10725,-0.0776 0.19404,-0.10668 0.11104,-0.0921 0.18427,-0.10668 0.1,-0.0727 0.19357,-0.10668 0.10618,-0.10183 0.22249,-0.10668 0.10155,-0.0679 0.11178,-0.10668 0.10995,-0.10183 0.19033,-0.10668 0.0969,-0.063 0.20553,-0.10668 0.10203,-0.0388 0.19614,-0.10668 0.10962,-0.0824 0.22098,-0.10668 0.10942,-0.0776 0.1866,-0.10668 0.105,-0.0727 0.20829,-0.10668 0.10207,-0.0533 0.18374,-0.10668 0.0953,-0.0873 0.18211,-0.10668 0.10698,-0.0824 0.16315,-0.10668 0.10533,-0.0776 0.15633,-0.10668 0.1021,-0.0873 0.13953,-0.10668 0.1045,-0.0679 0.16097,-0.10668 0.0828,-0.0436 0.19047,-0.10668 0.11102,-0.0776 0.17163,-0.10667 0.0941,-0.0582 0.22064,-0.10668 0.10328,-0.0727 0.17922,-0.10668 0.10956,-0.0873 0.1535,-0.10668 0.10747,-0.0824 0.19326,-0.10668 0.11001,-0.10668 0.1182,-0.10668 0.10855,-0.0776 0.15375,-0.10668 0.11025,-0.0776 0.16168,-0.10668 0.10711,-0.0339 0.077,-0.10668 0.10895,-0.0582 0.10913,-0.10668 0.10815,-0.0776 0.18314,-0.10668 0.0958,-0.0873 0.1415,-0.10668 0.10429,-0.10183 0.13622,-0.10668 0.10987,-0.0727 0.21789,-0.10668 0.11029,-0.10668 0.12168,-0.10668 0.11041,-0.0824 0.13151,-0.10668 0.11004,-0.0679 0.17438,-0.10668 0.10789,-0.0921 0.13922,-0.10668 0.0944,-0.063 0.15831,-0.10668 0.10861,-0.0727 0.16885,-0.10668 0.11041,-0.0776 0.21388,-0.10668 0.10979,-0.10183 0.19405,-0.10668 0.11085,-0.0921 0.18628,-0.10668 0.0989,-0.0921 0.19034,-0.10668 0.10892,-0.0436 0.16545,-0.10668 0.10882,-0.063 0.18768,-0.10668 0.10639,-0.0533 0.13573,-0.10668 0.0871,-0.0873 0.23687,-0.10668 0.10897,-0.10668 0.19015,-0.10668 0.10945,-0.0776 0.15964,-0.10668 0.10377,-0.10183 0.14273,-0.10668 0.10912,-0.063 0.13992,-0.10668 0.1083,-0.0727 0.19286,-0.10668 0.11046,-0.0679 0.16325,-0.10668 0.0913,-0.0582 0.19696,-0.10668 0.10934,-0.097 0.21561,-0.10668 0.11018,-0.0824 0.17991,-0.10668 0.10441,-0.0679 0.24177,-0.10668 0.10711,-0.0243 0.13037,-0.10668 0.10843,-0.0533 0.21734,-0.10668 0.10669,-0.0388 0.24459,-0.10668 0.0885,-0.0679 0.22062,-0.10668 0.0781,-0.0485 0.25815,-0.10668 0.11072,-0.0727 0.1699,-0.10668 0.10601,-0.063 0.217,-0.10668 0.10442,-0.0776 0.2577,-0.10668 0.11019,-0.0873 0.20968,-0.10668 0.10963,-0.10183 0.27175,-0.10668 0.10766,-0.0533 0.22082,-0.10668 0.0689,-0.0242 0.21107,-0.10668 0.0894,-0.063 0.22745,-0.10668 0.0892,-0.0533 0.25972,-0.10668 0.0953,-0.0679 0.20434,-0.10667 0.11046,-0.0727 0.22392,-0.10668 0.10089,-0.0582 0.16536,-0.10668 0.0899,-0.0291 0.18347,-0.10668 0.10921,-0.0727 0.21515,-0.10668 0.10949,-0.0533 0.22132,-0.10668 0.0954,-0.0727 0.23254,-0.10668 0.0892,-0.0485 0.21999,-0.10668 0.10273,-0.10183 0.14835,-0.10668 0.10913,-0.0679 0.16159,-0.10668 0.0915,-0.0873 0.25968,-0.10668 0.10915,-0.10183 0.21335,-0.10668 0.11015,-0.097 0.17082,-0.10668 0.0995,-0.0776 0.17728,-0.10668 0.10477,-0.0582 0.21877,-0.10668 0.10665,-0.0921 0.2307,-0.10668 0.10597,-0.0776 0.17216,-0.10669 0.1049,-0.09213 0.18699,-0.10668 0.10913,-0.09698 0.20378,-0.10668 0.11076,-0.111529 0.21799,-0.10668 0.10589,-0.07758 0.21939,-0.10668 0.10506,-0.07274 0.18715,-0.10668 0.10088,-0.05819 0.16728,-0.10668 0.0986,-0.06789 0.20942,-0.10668 0.0741,-0.02909 0.19996,-0.10668 0.10824,-0.07274 0.17728,-0.10668 0.10069,-0.08243 0.12957,-0.10668 0.10732,-0.03394 0.19936,-0.10668 0.10372,-0.04849 0.17082,-0.10668 0.0903,-0.03879 0.19631,-0.10668 0.11108,-0.08728 0.2061,-0.10668 0.10291,-0.06304 0.14461,-0.10668 0.0903,-0.03879 0.20508,-0.10668 0.11075,-0.05819 0.19737,-0.10668 0.10987,-0.06304 0.16364,-0.10668 0.10632,-0.09698 0.24021,-0.10668 0.0866,-0.06304 0.19696,-0.10668 0.11077,-0.07758 0.18772,-0.10668 0.10049,-0.08243 0.2518,-0.10668 0.11094,-0.06304 0.17612,-0.10668 0.11099,-0.04849 0.21333,-0.10668 0.10516,-0.06789 0.20149,-0.10668 0.10995,-0.07274 0.1662,-0.10668 0.10426,-0.07758 0.15653,-0.10668 0.10877,-0.08728 0.18961,-0.10668 0.10358,-0.09698 0.1827,-0.10668 0.10813,-0.05819 0.23833,-0.10668 0.11008,-0.08728 0.15631,-0.10668 0.10833,-0.07274 0.20336,-0.10668 0.1068,-0.04849 0.12133,-0.10668 0.10149,-0.07759 0.25188,-0.10668 0.10851,-0.08728 0.14327,-0.10668 0.11018,-0.08244 0.12139,-0.10668 0.10997,-0.08243 0.18063,-0.10668 0.10684,-0.05334 0.14892,-0.10668 0.10033,-0.07759 0.18696,-0.10668 0.0947,-0.03879 0.24966,-0.10668 0.10592,-0.09213 0.14659,-0.10668 0.10634,-0.06789 0.18024,-0.10668 0.10201,-0.09698 0.16019,-0.10668 0.10463,-0.09698 0.21795,-0.10668 0.0964,-0.111529 0.24699,-0.10668 0.11013,-0.07274 0.18706,-0.10668 0.0911,-0.04849 0.16701,-0.10668 0.10179,-0.04364 0.27887,-0.10668 0.0852,-0.06789 0.19772,-0.10668 0.10785,-0.08244 0.20662,-0.10668 0.10484,-0.07758 0.21484,-0.10668 0.10803,-0.06304 0.17839,-0.10668 0.10787,-0.09213 0.17477,-0.10668 0.10387,-0.06304 0.18681,-0.10668 0.10374,-0.09213 0.22182,-0.10668 0.1027,-0.05819 0.19864,-0.10668 0.10813,-0.06789 0.18608,-0.10668 0.10505,-0.130926 0.22771,-0.10668 0.11093,-0.10183 0.16623,-0.10668 0.11033,-0.06789 0.12123,-0.10668 0.10934,-0.09213 0.22347,-0.10668 0.11026,-0.05819 0.0984,-0.10668 0.10564,-0.08728 0.14296,-0.10668 0.10485,-0.06304 0.17752,-0.10668 0.10897,-0.101831 0.14739,-0.10668 0.0779,-0.07274 0.14416,-0.10668 0.10824,-0.07759 0.17253,-0.10668 0.0997,-0.08728 0.17137,-0.10668 0.10309,-0.08728 0.251,-0.10668 0.10715,-0.06304 0.1175,-0.10668 0.10858,-0.126077 0.16003,-0.106679 0.10944,-0.07274 0.21833,-0.10668 0.0822,-0.05334 0.26438,-0.10668 0.11052,-0.101831 0.14945,-0.10668 0.10299,-0.07758 0.19939,-0.10668 0.10665,-0.06304 0.17207,-0.10668 0.10266,-0.07274 0.19936,-0.10668 0.10912,-0.07758 0.15405,-0.10668 0.11082,-0.130925 0.1559,-0.10668 0.0978,-0.04364 0.2297,-0.10668 0.10892,-0.06789 0.17512,-0.10668 0.0993,-0.06304 0.25191,-0.10668 0.0845,-0.07758 0.16498,-0.10668 0.10298,-0.08728 0.26682,-0.10668 0.0897,-0.07758 0.19006,-0.10668 0.1107,-0.03879 0.12517,-0.10668 0.10659,-0.05334 0.1658,-0.10668 0.10377,-0.07758 0.19013,-0.10668 0.10803,-0.07274 0.18865,-0.10668 0.10734,-0.06789 0.19523,-0.10668 0.10439,-0.05334 0.15276,-0.10668 0.10189,-0.06304 0.18267,-0.10668 0.10468,-0.08243 0.22978,-0.10668 0.10048,-0.09213 0.21888,-0.10668 0.0896,-0.04364 0.17723,-0.10668 0.108,-0.06789 0.22176,-0.10668 0.11068,-0.08244 0.15251,-0.10668 0.0988,-0.06789 0.15964,-0.10668 0.10333,-0.07758 0.20511,-0.10668 0.10356,-0.06789 0.13661,-0.10668 0.1092,-0.116378 0.14868,-0.10668 0.10343,-0.05819 0.14487,-0.10668 0.0894,-0.06789 0.16623,-0.10668 0.10706,-0.07274 0.1977,-0.10668 0.10922,-0.07759 0.15787,-0.10668 0.10004,-0.05334 0.14681,-0.10668 0.10978,-0.09698 0.15844,-0.10668 0.10222,-0.04364 0.18914,-0.10668 0.11092,-0.08244 0.16937,-0.10668 0.0941,-0.116378 0.17244,-0.10668 0.11057,-0.06304 0.22681,-0.10668 0.10433,-0.09213 0.14249,-0.10668 0.10939,-0.06304 0.16814,-0.10668 0.11086,-0.04849 0.23537,-0.10668 0.0891,-0.06304 0.19898,-0.10668 0.10738,-0.05334 0.16712,-0.10668 0.0902,-0.08244 0.16599,-0.106679 0.10523,-0.06789 0.2083,-0.10668 0.10896,-0.03879 0.19522,-0.10668 0.11052,-0.06789 0.14254,-0.10668 0.10298,-0.05334 0.14422,-0.10668 0.1087,-0.09698 0.28073,-0.10668 0.10568,-0.05819 0.12724,-0.10668 0.0822,-0.06304 0.19346,-0.10668 0.10942,-0.07274 0.18866,-0.10668 0.0831,-0.07758 0.23055,-0.10668 0.10749,-0.07759 0.1711,-0.10668 0.10651,-0.07758 0.20045,-0.10668 0.10098,-0.09698 0.16619,-0.10668 0.10515,-0.03879 0.19749,-0.10668 0.10395,-0.09213 0.22674,-0.10668 0.1029,-0.10668 0.2296,-0.10668 0.0958,-0.09213 0.25583,-0.10668 0.0834,-0.07274 0.19987,-0.10668 0.0989,-0.05334 0.13393,-0.10668 0.10791,-0.09213 0.17304,-0.10668 0.102,-0.07274 0.14971,-0.10668 0.0803,-0.03394 0.18657,-0.10668 0.10973,-0.07759 0.19574,-0.10668 0.10256,-0.05334 0.19185,-0.10668 0.10902,-0.09698 0.21767,-0.10668 0.10502,-0.08244 0.21238,-0.10668 0.10343,-0.07274 0.22563,-0.10668 0.1055,-0.101831 0.1363,-0.10668 0.0882,-0.04364 0.20779,-0.10668 0.10457,-0.03879 0.15269,-0.10668 0.10937,-0.07274 0.1992,-0.10668 0.0922,-0.06304 0.10962,-0.10668 0.0807,-0.05819 0.1948,-0.10668 0.10057,-0.07759 0.14129,-0.10668 0.10989,-0.04849 0.1809,-0.10668 0.10595,-0.07274 0.18563,-0.10668 0.10682,-0.08728 0.19444,-0.10668 0.10982,-0.07274 0.1453,-0.10668 0.0851,-0.06789 0.14152,-0.10668 0.11067,-0.08243 0.14402,-0.10668 0.11078,-0.09698 0.13978,-0.10668 0.11104,-0.09213 0.20315,-0.10668 0.10772,-0.05334 0.17709,-0.10668 0.1106,-0.05819 0.22319,-0.10668 0.10891,-0.04849 0.15373,-0.10668 0.1097,-0.06789 0.16898,-0.10668 0.10737,-0.101831 0.1296,-0.10668 0.10993,-0.09213 0.21572,-0.10668 0.0879,-0.05334 0.17094,-0.10668 0.0955,-0.05819 0.1783,-0.10668 0.10368,-0.08728 0.18366,-0.10668 0.11019,-0.06789 0.20015,-0.10668 0.10794,-0.05819 0.24498,-0.106679 0.10728,-0.06789 0.1053,-0.10668 0.1007,-0.04364 0.16659,-0.10668 0.10866,-0.06789 0.18679,-0.10668 0.1063,-0.09698 0.20592,-0.10668 0.11056,-0.08728 0.16984,-0.10668 0.10191,-0.03879 0.14925,-0.10668 0.10687,-0.08728 0.11946,-0.10668 0.10012,-0.05334 0.1735,-0.10668 0.0933,-0.07274 0.23556,-0.10668 0.0883,-0.07274 0.20614,-0.10668 0.10295,-0.06304 0.21817,-0.10668 0.10475,-0.08244 0.20425,-0.10668 0.092,-0.08243 0.19444,-0.10668 0.11013,-0.05334 0.13378,-0.10668 0.10786,-0.05334 0.27811,-0.10668 0.0994,-0.04364 0.15642,-0.10668 0.11048,-0.09213 0.22564,-0.10668 0.10463,-0.07274 0.19994,-0.10668 0.0999,-0.10668 0.24551,-0.10668 0.10971,-0.121227 0.2524,-0.10668 0.10244,-0.07759 0.18241,-0.10668 0.10695,-0.08243 0.16988,-0.10668 0.10145,-0.08728 0.19087,-0.10668 0.10382,-0.07274 0.19998,-0.10668 0.10627,-0.07274 0.19214,-0.10668 0.10218,-0.101831 0.19062,-0.10668 0.0897,-0.07759 0.25103,-0.10668 0.10793,-0.07758 0.20605,-0.10668 0.1107,-0.08243 0.22877,-0.10668 0.11005,-0.07274 0.17651,-0.10668 0.10057,-0.05819 0.20008,-0.10668 0.10894,-0.06789 0.2773,-0.10668 0.10787,-0.101831 0.16721,-0.10668 0.10278,-0.06789 0.1751,-0.10668 0.10513,-0.08243 0.16471,-0.10668 0.10943,-0.08728 0.24344,-0.10668 0.0943,-0.07758 0.24001,-0.10668 0.10863,-0.05334 0.15652,-0.10668 0.10357,-0.08728 0.17688,-0.10668 0.10036,-0.08728 0.19267,-0.10668 0.1079,-0.02909 0.20279,-0.10668 0.10997,-0.07274 0.1541,-0.10668 0.10746,-0.101831 0.2239,-0.10668 0.10107,-0.03394 0.17368,-0.10668 0.1101,-0.07274 0.18708,-0.10668 0.10529,-0.06789 0.1519,-0.10668 0.10311,-0.05334 0.13376,-0.10668 0.1099,-0.08244 0.17075,-0.10668 0.10792,-0.06304 0.22795,-0.10668 0.0967,-0.03879 0.19197,-0.10668 0.0898,-0.07274 0.22925,-0.10668 0.10478,-0.06304 0.1609,-0.10668 0.0701,-0.05334 0.18051,-0.10668 0.10553,-0.04364 0.20461,-0.10668 0.0864,-0.04849 0.15781,-0.10668 0.10045,-0.06304 0.24897,-0.10668 0.092,-0.07758 0.1703,-0.10668 0.10741,-0.05819 0.19343,-0.10668 0.0999,-0.05819 0.27078,-0.10668 0.10992,-0.05334 0.17603,-0.10668 0.10946,-0.121228 0.21114,-0.10668 0.10727,-0.06304 0.26208,-0.10668 0.1069,-0.05334 0.24031,-0.10668 0.10051,-0.07758 0.17516,-0.10668 0.11078,-0.08728 0.17561,-0.10668 0.10568,-0.06304 0.1645,-0.10668 0.11034,-0.07274 0.12893,-0.10668 0.11071,-0.05334 0.17292,-0.10668 0.10924,-0.06789 0.14647,-0.10668 0.10694,-0.07759 0.18652,-0.10668 0.10595,-0.04849 0.12962,-0.10668 0.1057,-0.08243 0.2154,-0.10668 0.0977,-0.06304 0.19289,-0.10668 0.10925,-0.05819 0.16695,-0.10668 0.11071,-0.09213 0.19368,-0.10668 0.11104,-0.111529 0.19866,-0.10668 0.11016,-0.06789 0.16061,-0.10668 0.10207,-0.07274 0.18605,-0.10668 0.10011,-0.06789 0.27745,-0.10668 0.10649,-0.04849 0.21723,-0.10668 0.10946,-0.06304 0.23779,-0.10668 0.1063,-0.06789 0.12699,-0.10668 0.0888,-0.06789 0.22783,-0.106679 0.0992,-0.06304 0.1551,-0.10668 0.10355,-0.101831 0.22683,-0.10668 0.10584,-0.06789 0.1849,-0.10668 0.111,-0.04849 0.18863,-0.10668 0.10256,-0.06304 0.20244,-0.10668 0.1092,-0.05819 0.2079,-0.10668 0.10901,-0.08243 0.14411,-0.10668 0.111,-0.111529 0.29413,-0.10668 0.0984,-0.09698 0.22829,-0.10668 0.11017,-0.09698 0.19586,-0.10668 0.10171,-0.06304 0.19497,-0.10668 0.11016,-0.08728 0.258,-0.10668 0.10085,-0.07274 0.2029,-0.10668 0.1098,-0.101831 0.26106,-0.10668 0.0977,-0.09698 0.14729,-0.10668 0.11032,-0.111529 0.22293,-0.10668 0.10328,-0.06304 0.20422,-0.10668 0.10839,-0.07758 0.16662,-0.10668 0.10669,-0.05819 0.14005,-0.10668 0.11048,-0.06789 0.185,-0.10668 0.1072,-0.06304 0.14251,-0.10668 0.0988,-0.07274 0.15816,-0.10668 0.10145,-0.08728 0.23725,-0.10668 0.10595,-0.08243 0.17749,-0.10668 0.0917,-0.03879 0.23641,-0.10668 0.10211,-0.04849 0.14229,-0.10668 0.10707,-0.05819 0.21302,-0.10668 0.1099,-0.05334 0.14938,-0.10668 0.10509,-0.06789 0.19168,-0.10668 0.10803,-0.07759 0.20517,-0.10668 0.10662,-0.07274 0.25561,-0.10668 0.10188,-0.04364 0.28808,-0.10668 0.0928,-0.07274 0.13897,-0.10668 0.10827,-0.06789 0.16625,-0.10668 0.11102,-0.06789 0.1564,-0.10668 0.10077,-0.10668 0.17752,-0.10668 0.0887,-0.04364 0.17086,-0.10668 0.10778,-0.05819 0.17757,-0.10668 0.0992,-0.06304 0.14265,-0.10668 0.10559,-0.09698 0.2501,-0.10668 0.10141,-0.07759 0.3335,-0.10668 0.1093,-0.09698 0.24346,-0.10668 0.11105,-0.07758 0.19771,-0.10668 0.0716,-0.07274 0.17731,-0.10668 0.1097,-0.06304 0.21693,-0.10668 0.1106,-0.05819 0.20472,-0.10668 0.097,-0.03879 0.23134,-0.10668 0.10891,-0.08244 0.19894,-0.10668 0.10334,-0.04849 0.17611,-0.10668 0.10937,-0.09213 0.12029,-0.10668 0.1016,-0.05819 0.16511,-0.10668 0.10646,-0.06304 0.20472,-0.106679 0.10773,-0.07759 0.1813,-0.10668 0.0845,-0.04364 0.1929,-0.10668 0.10265,-0.04849 0.19533,-0.10668 0.1103,-0.07274 0.20173,-0.10668 0.10324,-0.06789 0.13588,-0.10668 0.10444,-0.04364 0.18824,-0.10668 0.0957,-0.04849 0.0977,-0.10668 0.11072,-0.09698 0.14701,-0.10668 0.10631,-0.06789 0.17235,-0.10668 0.0674,-0.04364 0.14178,-0.10668 0.10325,-0.08728 0.13556,-0.10668 0.11045,-0.09213 0.15525,-0.10668 0.11031,-0.06789 0.15713,-0.10668 0.10609,-0.05819 0.186,-0.10668 0.11066,-0.07274 0.12798,-0.10668 0.0826,-0.06304 0.23525,-0.10668 0.10787,-0.08728 0.14505,-0.10668 0.10616,-0.06304 0.24884,-0.10668 0.10556,-0.08243 0.1517,-0.10668 0.0893,-0.09698 0.22902,-0.10668 0.11063,-0.04364 0.16058,-0.10668 0.10951,-0.10183 0.24327,-0.10668 0.1103,-0.05334 0.19621,-0.10668 0.11069,-0.07759 0.18128,-0.10668 0.0958,-0.08243 0.21241,-0.10668 0.1078,-0.09213 0.25764,-0.10668 0.10931,-0.09698 0.20901,-0.10668 0.10839,-0.06304 0.23678,-0.10668 0.0952,-0.04849 0.22044,-0.10668 0.10647,-0.09213 0.11877,-0.10668 0.10994,-0.10668 0.14176,-0.10668 0.10818,-0.07274 0.17482,-0.10668 0.10886,-0.08243 0.15598,-0.10668 0.10857,-0.07274 0.15592,-0.10668 0.10897,-0.04849 0.16097,-0.10668 0.1095,-0.06789 0.20669,-0.10668 0.11027,-0.06789 0.22563,-0.10668 0.0811,-0.07274 0.21326,-0.10668 0.0933,-0.04849 0.27742,-0.10668 0.10216,-0.09698 0.20441,-0.10668 0.0938,-0.08244 0.20738,-0.10668 0.10827,-0.101831 0.17528,-0.10668 0.0904,-0.06304 0.23093,-0.10668 0.10763,-0.09213 0.15101,-0.10668 0.10407,-0.08728 0.1934,-0.10668 0.10974,-0.08728 0.20678,-0.10668 0.11092,-0.08728 0.19454,-0.10668 0.10725,-0.06789 0.21168,-0.10668 0.11012,-0.09213 0.12631,-0.10668 0.0833,-0.08244 0.36165,-0.10668 0.10338,-0.05334 0.1541,-0.10668 0.10586,-0.06304 0.25526,-0.10668 0.11058,-0.08243 0.26372,-0.10668 0.11038,-0.111529 0.1582,-0.10668 0.10976,-0.06789 0.22643,-0.10668 0.10917,-0.05819 0.20986,-0.10668 0.10267,-0.08728 0.24834,-0.10668 0.111,-0.101831 0.17874,-0.10668 0.10991,-0.05819 0.14096,-0.10668 0.10868,-0.08728 0.16308,-0.10668 0.10708,-0.08728 0.19728,-0.10668 0.0999,-0.06789 0.28707,-0.10668 0.10422,-0.07274 0.1904,-0.10668 0.10949,-0.07274 0.13843,-0.10668 0.10763,-0.06304 0.19822,-0.10668 0.094,-0.06304 0.18959,-0.10668 0.0968,-0.04849 0.20974,-0.10668 0.10671,-0.09698 0.23649,-0.10668 0.11039,-0.07759 0.23058,-0.10668 0.10861,-0.05819 0.22649,-0.10668 0.10144,-0.05334 0.16524,-0.10668 0.10441,-0.07274 0.18939,-0.10668 0.11099,-0.07274 0.18991,-0.10668 0.10912,-0.05334 0.24701,-0.10668 0.11003,-0.08243 0.16643,-0.10668 0.10913,-0.06789 0.19778,-0.10668 0.0734,-0.04364 0.22209,-0.10668 0.10498,-0.06304 0.18749,-0.10668 0.0866,-0.05334 0.1861,-0.10668 0.11,-0.03879 0.16122,-0.10668 0.10356,-0.08728 0.21016,-0.10668 0.10417,-0.04364 0.22612,-0.10668 0.10585,-0.07759 0.20853,-0.10668 0.10921,-0.05334 0.29192,-0.10668 0.0572,-0.04364 0.18855,-0.10668 0.10378,-0.101831 0.22108,-0.10668 0.0922,-0.07274 0.20886,-0.10668 0.10282,-0.07758 0.18469,-0.10668 0.108,-0.09213 0.26389,-0.10668 0.10363,-0.03394 0.26416,-0.10668 0.10293,-0.08244 0.24738,-0.10668 0.0859,-0.05819 0.21412,-0.10668 0.10855,-0.06789 0.17594,-0.10668 0.10487,-0.03879 0.13435,-0.10668 0.11058,-0.05334 0.2697,-0.10668 0.0908,-0.07274 0.23187,-0.10668 0.10678,-0.05819 0.23421,-0.10668 0.10002,-0.06304 0.24315,-0.10668 0.10738,-0.06789 0.1932,-0.10668 0.10925,-0.03879 0.15421,-0.10668 0.0962,-0.03879 0.16912,-0.10668 0.11102,-0.06304 0.25131,-0.10668 0.0966,-0.06304 0.30687,-0.10668 0.1077,-0.04849 0.1556,-0.10668 0.10136,-0.06789 0.25451,-0.10668 0.10644,-0.06789 0.21615,-0.10668 0.0786,-0.06304 0.24692,-0.10668 0.0959,-0.06789 0.20661,-0.10668 0.10446,-0.05819 0.18616,-0.10668 0.0703,-0.06304 0.36562,-0.10668 0.11034,-0.08244 0.20628,-0.10668 0.11101,-0.07274 0.17995,-0.10668 0.10694,-0.05334 0.2148,-0.10668 0.088,-0.05819 0.25627,-0.10668 0.10915,-0.03879 0.35653,-0.10668 0.10203,-0.03879 0.19137,-0.10668 0.11087,-0.04849 0.23804,-0.10668 0.0902,-0.04849 0.18091,-0.10668 0.0847,-0.08244 0.23825,-0.10668 0.0996,-0.04364 0.25705,-0.10668 0.10586,-0.06789 0.18926,-0.10668 0.10765,-0.06789 0.18284,-0.10668 0.10872,-0.06789 0.22534,-0.10668 0.10068,-0.05819 0.21241,-0.10668 0.0985,-0.03879 0.28088,-0.10668 0.079,-0.06304 0.28688,-0.10668 0.10486,-0.05334 0.28355,-0.10668 0.1074,-0.03879 0.21418,-0.10668 0.11044,-0.04849 0.28796,-0.10668 0.11042,-0.05334 0.23481,-0.10668 0.10752,-0.04364 0.29517,-0.10668 0.0836,-0.07758 0.38419,-0.10668 0.10636,-0.08244 0.22076,-0.10668 0.10787,-0.07274 0.31779,-0.10668 0.10588,-0.03879 0.34717,-0.10668 0.0843,-0.04364 0.22448,-0.10668 0.10353,-0.05819 0.21834,-0.10668 0.0967,-0.05819 0.30636,-0.106679 0.11095,-0.06789 0.22079,-0.10668 0.10871,-0.05334 0.36601,-0.10668 0.10958,-0.05334 0.17041,-0.10668 0.0878,-0.04849 0.36922,-0.10668 0.086,-0.05334 0.33131,-0.10668 0.10344,-0.06304 0.28128,-0.10668 0.085,-0.02425 0.26751,-0.10668 0.10724,-0.05334 0.19583,-0.10668 0.10975,-0.06789 0.27935,-0.10668 0.10264,-0.04849 0.46593,-0.10668 0.0728,-0.03394 0.25047,-0.10668 0.095,-0.02909 0.31886,-0.10668 0.11092,-0.06304 0.24692,-0.10668 0.11098,-0.05334 0.28588,-0.106679 0.0971,-0.04849 0.50152,-0.10668 0.0708,-0.0097 0.47732,-0.10668 0.10389,-0.04849 0.2615,-0.10668 0.078,-0.02425 0.42439,-0.10668 0.10487,-0.07274 0.25629,-0.10668 0.0531,-0.02425 0.41915,-0.10668 0.0968,-0.02909 0.30913,-0.10668 0.1046,-0.03879 0.24891,-0.10668 0.068,-0.04364 0.50087,-0.10668 0.10645,-0.0194 0.21169,-0.10668 0.10486,-0.05334 0.47831,-0.10668 0.0929,-0.02909 0.29405,-0.10668 0.0898,-0.06304 0.45666,-0.10668 0.10456,-0.0194 0.30392,-0.10668 0.10755,-0.0194 0.3981,-0.10668 0.10907,-0.0194 0.24346,-0.10668 0.10333,-0.04849 0.3697,-0.10668 0.0919,-0.0194 0.42339,-0.10668 0.0714,-0.02424 0.67173,-0.10668 0.0985,-0.0194 0.51691,-0.10668 0.0509,-0.03394 0.46953,-0.10668 0.0855,-0.03394 0.47812,-0.10668 0.074,-0.02425 0.60636,-0.10668 0.045,-0.01455 0.8131,-0.10668 0.10603,-0.0194 0.64866,-0.10668 0.10931,-0.03394 0.78949,-0.10668 0.059,-0.02425 0.85298,-0.10668 0.0893,-0.0194 0.69428,-0.10668 0.083,-0.03879 0.80239,-0.10668 0.10575,-0.02425 1.15417,-0.10668 0.11089,-0.02425 1.25143,-0.10668 0.10722,-0.02425 1.17716,-0.10668 0.11057,-0.02425 1.43655,-0.10668 0.0689,-0.01455 1.09425,-0.10668 0.10595,-0.01455 1.76749,-0.10668 v -0.0048 l 2.68228,-0.10668 v -0.0048 l 4.00123,-0.10668 v -0.0048 l 5.03152,-0.10668 v -0.0049 l 8.56183,-0.0194 V 14.3"
       clip-path="url(#p762eb60450)" />
  </g>
  <g
     id="patch_3">
    <path
       id="path53938"
       style="fill:none;stroke:#000000;stroke-width:0.8;stroke-linecap:square;stroke-linejoin:miter"
       d="M 44.675,320.2 V 14.3" />
  </g>
  <g
     id="patch_4">
    <path
       id="path53941"
       style="fill:none;stroke:#000000;stroke-width:0.8;stroke-linecap:square;stroke-linejoin:miter"
       d="M 44.675,320.2 H 340.66299" />
  </g>
  <g
     transform="translate(-194.34396,85.931871)"
     id="line2d_16">
    <path
       id="path53984"
       style="fill:none;stroke:#e41a1c;stroke-width:1.5;stroke-linecap:square"
       d="m 375.05937,179.14375 h 20" />
  </g>
  <g
     id="line2d_17" />
  <g
     transform="translate(-194.85165,49.752199)"
     id="line2d_18">
    <path
       id="path54004"
       style="fill:none;stroke:#377eb8;stroke-width:1.5;stroke-linecap:square"
       d="m 375.05937,193.28906 h 20" />
  </g>
  <g
     id="line2d_19" />
  <defs
     id="defs54027">
    <clipPath
       id="p762eb60450">
      <rect
         id="rect54024"
         y="14.3"
         x="44.675"
         width="295.98799"
         height="305.9" />
    </clipPath>
  </defs>
  <text
     id="text55140"
     y="245.6044"
     x="206.07361"
     style="font-size:10px;line-height:1.25;font-family:Arial;-inkscape-font-specification:'Arial, Normal';stroke-width:0.75"
     xml:space="preserve"><tspan
       style="font-size:10px;stroke-width:0.75"
       y="245.6044"
       x="206.07361"
       id="tspan55138"
       sodipodi:role="line">residues confering NAD/NADP specificity (<tspan
   id="tspan55146"
   style="font-style:italic">n</tspan>=106) </tspan></text>
  <text
     id="text55144"
     y="268.11594"
     x="206.0011"
     style="font-size:10px;line-height:1.25;font-family:Arial;-inkscape-font-specification:'Arial, Normal';stroke-width:0.75"
     xml:space="preserve"><tspan
       style="font-size:10px;stroke-width:0.75"
       y="268.11594"
       x="206.0011"
       id="tspan55142"
       sodipodi:role="line">all other residues (<tspan
   id="tspan55148"
   style="font-style:italic">n</tspan>=63084)</tspan></text>
  <text
     id="text55152"
     y="287.77252"
     x="188.70331"
     style="font-size:8.00002px;line-height:1.25;font-family:Arial;-inkscape-font-specification:'Arial, Normal';stroke-width:0.75"
     xml:space="preserve"><tspan
       style="stroke-width:0.75"
       y="287.77252"
       x="188.70331"
       id="tspan55150"
       sodipodi:role="line" /></text>
</svg>
