<?xml version="1.0" encoding="utf-8" standalone="no"?>
<!DOCTYPE svg PUBLIC "-//W3C//DTD SVG 1.1//EN"
  "http://www.w3.org/Graphics/SVG/1.1/DTD/svg11.dtd">
<!-- Created with matplotlib (https://matplotlib.org/) -->
<svg height="1152pt" version="1.1" viewBox="0 0 216 1152" width="216pt" xmlns="http://www.w3.org/2000/svg" xmlns:xlink="http://www.w3.org/1999/xlink">
 <metadata>
  <rdf:RDF xmlns:cc="http://creativecommons.org/ns#" xmlns:dc="http://purl.org/dc/elements/1.1/" xmlns:rdf="http://www.w3.org/1999/02/22-rdf-syntax-ns#">
   <cc:Work>
    <dc:type rdf:resource="http://purl.org/dc/dcmitype/StillImage"/>
    <dc:date>2021-10-28T19:30:18.985731</dc:date>
    <dc:format>image/svg+xml</dc:format>
    <dc:creator>
     <cc:Agent>
      <dc:title>Matplotlib v3.3.4, https://matplotlib.org/</dc:title>
     </cc:Agent>
    </dc:creator>
   </cc:Work>
  </rdf:RDF>
 </metadata>
 <defs>
  <style type="text/css">*{stroke-linecap:butt;stroke-linejoin:round;}</style>
 </defs>
 <g id="figure_1">
  <g id="patch_1">
   <path d="M 0 1152 
L 216 1152 
L 216 0 
L 0 0 
z
" style="fill:none;"/>
  </g>
  <g id="axes_1">
   <g id="patch_2">
    <path d="M 27 1008 
L 194.4 1008 
L 194.4 138.24 
L 27 138.24 
z
" style="fill:#ffffff;"/>
   </g>
   <g id="patch_3">
    <path clip-path="url(#p4e4f7c83e6)" d="M 27 139.384421 
L 105.30491 139.384421 
L 105.30491 148.539789 
L 27 148.539789 
z
" style="fill:#808080;"/>
   </g>
   <g id="patch_4">
    <path clip-path="url(#p4e4f7c83e6)" d="M 27 150.828632 
L 105.305051 150.828632 
L 105.305051 159.984 
L 27 159.984 
z
" style="fill:#808080;"/>
   </g>
   <g id="patch_5">
    <path clip-path="url(#p4e4f7c83e6)" d="M 27 162.272842 
L 106.342973 162.272842 
L 106.342973 171.428211 
L 27 171.428211 
z
" style="fill:#808080;"/>
   </g>
   <g id="patch_6">
    <path clip-path="url(#p4e4f7c83e6)" d="M 27 173.717053 
L 106.419823 173.717053 
L 106.419823 182.872421 
L 27 182.872421 
z
" style="fill:#808080;"/>
   </g>
   <g id="patch_7">
    <path clip-path="url(#p4e4f7c83e6)" d="M 27 185.161263 
L 106.632877 185.161263 
L 106.632877 194.316632 
L 27 194.316632 
z
" style="fill:#808080;"/>
   </g>
   <g id="patch_8">
    <path clip-path="url(#p4e4f7c83e6)" d="M 27 196.605474 
L 106.680652 196.605474 
L 106.680652 205.760842 
L 27 205.760842 
z
" style="fill:#808080;"/>
   </g>
   <g id="patch_9">
    <path clip-path="url(#p4e4f7c83e6)" d="M 27 208.049684 
L 106.689909 208.049684 
L 106.689909 217.205053 
L 27 217.205053 
z
" style="fill:#808080;"/>
   </g>
   <g id="patch_10">
    <path clip-path="url(#p4e4f7c83e6)" d="M 27 219.493895 
L 106.707912 219.493895 
L 106.707912 228.649263 
L 27 228.649263 
z
" style="fill:#808080;"/>
   </g>
   <g id="patch_11">
    <path clip-path="url(#p4e4f7c83e6)" d="M 27 230.938105 
L 106.713201 230.938105 
L 106.713201 240.093474 
L 27 240.093474 
z
" style="fill:#808080;"/>
   </g>
   <g id="patch_12">
    <path clip-path="url(#p4e4f7c83e6)" d="M 27 242.382316 
L 106.713201 242.382316 
L 106.713201 251.537684 
L 27 251.537684 
z
" style="fill:#808080;"/>
   </g>
   <g id="patch_13">
    <path clip-path="url(#p4e4f7c83e6)" d="M 27 253.826526 
L 106.713201 253.826526 
L 106.713201 262.981895 
L 27 262.981895 
z
" style="fill:#808080;"/>
   </g>
   <g id="patch_14">
    <path clip-path="url(#p4e4f7c83e6)" d="M 27 265.270737 
L 106.713201 265.270737 
L 106.713201 274.426105 
L 27 274.426105 
z
" style="fill:#808080;"/>
   </g>
   <g id="patch_15">
    <path clip-path="url(#p4e4f7c83e6)" d="M 27 276.714947 
L 106.713385 276.714947 
L 106.713385 285.870316 
L 27 285.870316 
z
" style="fill:#808080;"/>
   </g>
   <g id="patch_16">
    <path clip-path="url(#p4e4f7c83e6)" d="M 27 288.159158 
L 106.713385 288.159158 
L 106.713385 297.314526 
L 27 297.314526 
z
" style="fill:#808080;"/>
   </g>
   <g id="patch_17">
    <path clip-path="url(#p4e4f7c83e6)" d="M 27 299.603368 
L 106.713386 299.603368 
L 106.713386 308.758737 
L 27 308.758737 
z
" style="fill:#808080;"/>
   </g>
   <g id="patch_18">
    <path clip-path="url(#p4e4f7c83e6)" d="M 27 311.047579 
L 106.713405 311.047579 
L 106.713405 320.202947 
L 27 320.202947 
z
" style="fill:#808080;"/>
   </g>
   <g id="patch_19">
    <path clip-path="url(#p4e4f7c83e6)" d="M 27 322.491789 
L 106.713409 322.491789 
L 106.713409 331.647158 
L 27 331.647158 
z
" style="fill:#808080;"/>
   </g>
   <g id="patch_20">
    <path clip-path="url(#p4e4f7c83e6)" d="M 27 333.936 
L 106.713791 333.936 
L 106.713791 343.091368 
L 27 343.091368 
z
" style="fill:#808080;"/>
   </g>
   <g id="patch_21">
    <path clip-path="url(#p4e4f7c83e6)" d="M 27 345.380211 
L 106.714079 345.380211 
L 106.714079 354.535579 
L 27 354.535579 
z
" style="fill:#808080;"/>
   </g>
   <g id="patch_22">
    <path clip-path="url(#p4e4f7c83e6)" d="M 27 356.824421 
L 106.714217 356.824421 
L 106.714217 365.979789 
L 27 365.979789 
z
" style="fill:#808080;"/>
   </g>
   <g id="patch_23">
    <path clip-path="url(#p4e4f7c83e6)" d="M 27 368.268632 
L 106.714286 368.268632 
L 106.714286 377.424 
L 27 377.424 
z
" style="fill:#808080;"/>
   </g>
   <g id="patch_24">
    <path clip-path="url(#p4e4f7c83e6)" d="M 27 379.712842 
L 106.714286 379.712842 
L 106.714286 388.868211 
L 27 388.868211 
z
" style="fill:#808080;"/>
   </g>
   <g id="patch_25">
    <path clip-path="url(#p4e4f7c83e6)" d="M 27 391.157053 
L 106.714286 391.157053 
L 106.714286 400.312421 
L 27 400.312421 
z
" style="fill:#808080;"/>
   </g>
   <g id="patch_26">
    <path clip-path="url(#p4e4f7c83e6)" d="M 27 402.601263 
L 106.714286 402.601263 
L 106.714286 411.756632 
L 27 411.756632 
z
" style="fill:#808080;"/>
   </g>
   <g id="patch_27">
    <path clip-path="url(#p4e4f7c83e6)" d="M 27 414.045474 
L 106.714286 414.045474 
L 106.714286 423.200842 
L 27 423.200842 
z
" style="fill:#808080;"/>
   </g>
   <g id="patch_28">
    <path clip-path="url(#p4e4f7c83e6)" d="M 27 425.489684 
L 106.714286 425.489684 
L 106.714286 434.645053 
L 27 434.645053 
z
" style="fill:#808080;"/>
   </g>
   <g id="patch_29">
    <path clip-path="url(#p4e4f7c83e6)" d="M 27 436.933895 
L 106.714286 436.933895 
L 106.714286 446.089263 
L 27 446.089263 
z
" style="fill:#808080;"/>
   </g>
   <g id="patch_30">
    <path clip-path="url(#p4e4f7c83e6)" d="M 27 448.378105 
L 106.714286 448.378105 
L 106.714286 457.533474 
L 27 457.533474 
z
" style="fill:#808080;"/>
   </g>
   <g id="patch_31">
    <path clip-path="url(#p4e4f7c83e6)" d="M 27 459.822316 
L 106.714286 459.822316 
L 106.714286 468.977684 
L 27 468.977684 
z
" style="fill:#808080;"/>
   </g>
   <g id="patch_32">
    <path clip-path="url(#p4e4f7c83e6)" d="M 27 471.266526 
L 106.714286 471.266526 
L 106.714286 480.421895 
L 27 480.421895 
z
" style="fill:#808080;"/>
   </g>
   <g id="patch_33">
    <path clip-path="url(#p4e4f7c83e6)" d="M 27 482.710737 
L 106.714286 482.710737 
L 106.714286 491.866105 
L 27 491.866105 
z
" style="fill:#808080;"/>
   </g>
   <g id="patch_34">
    <path clip-path="url(#p4e4f7c83e6)" d="M 27 494.154947 
L 106.71432 494.154947 
L 106.71432 503.310316 
L 27 503.310316 
z
" style="fill:#808080;"/>
   </g>
   <g id="patch_35">
    <path clip-path="url(#p4e4f7c83e6)" d="M 27 505.599158 
L 106.71432 505.599158 
L 106.71432 514.754526 
L 27 514.754526 
z
" style="fill:#808080;"/>
   </g>
   <g id="patch_36">
    <path clip-path="url(#p4e4f7c83e6)" d="M 27 517.043368 
L 106.714355 517.043368 
L 106.714355 526.198737 
L 27 526.198737 
z
" style="fill:#808080;"/>
   </g>
   <g id="patch_37">
    <path clip-path="url(#p4e4f7c83e6)" d="M 27 528.487579 
L 106.714389 528.487579 
L 106.714389 537.642947 
L 27 537.642947 
z
" style="fill:#808080;"/>
   </g>
   <g id="patch_38">
    <path clip-path="url(#p4e4f7c83e6)" d="M 27 539.931789 
L 106.71439 539.931789 
L 106.71439 549.087158 
L 27 549.087158 
z
" style="fill:#808080;"/>
   </g>
   <g id="patch_39">
    <path clip-path="url(#p4e4f7c83e6)" d="M 27 551.376 
L 106.714423 551.376 
L 106.714423 560.531368 
L 27 560.531368 
z
" style="fill:#808080;"/>
   </g>
   <g id="patch_40">
    <path clip-path="url(#p4e4f7c83e6)" d="M 27 562.820211 
L 106.714473 562.820211 
L 106.714473 571.975579 
L 27 571.975579 
z
" style="fill:#808080;"/>
   </g>
   <g id="patch_41">
    <path clip-path="url(#p4e4f7c83e6)" d="M 27 574.264421 
L 106.714473 574.264421 
L 106.714473 583.419789 
L 27 583.419789 
z
" style="fill:#808080;"/>
   </g>
   <g id="patch_42">
    <path clip-path="url(#p4e4f7c83e6)" d="M 27 585.708632 
L 106.714473 585.708632 
L 106.714473 594.864 
L 27 594.864 
z
" style="fill:#808080;"/>
   </g>
   <g id="patch_43">
    <path clip-path="url(#p4e4f7c83e6)" d="M 27 597.152842 
L 106.714473 597.152842 
L 106.714473 606.308211 
L 27 606.308211 
z
" style="fill:#808080;"/>
   </g>
   <g id="patch_44">
    <path clip-path="url(#p4e4f7c83e6)" d="M 27 608.597053 
L 106.714473 608.597053 
L 106.714473 617.752421 
L 27 617.752421 
z
" style="fill:#808080;"/>
   </g>
   <g id="patch_45">
    <path clip-path="url(#p4e4f7c83e6)" d="M 27 620.041263 
L 106.714473 620.041263 
L 106.714473 629.196632 
L 27 629.196632 
z
" style="fill:#808080;"/>
   </g>
   <g id="patch_46">
    <path clip-path="url(#p4e4f7c83e6)" d="M 27 631.485474 
L 106.714473 631.485474 
L 106.714473 640.640842 
L 27 640.640842 
z
" style="fill:#808080;"/>
   </g>
   <g id="patch_47">
    <path clip-path="url(#p4e4f7c83e6)" d="M 27 642.929684 
L 106.714473 642.929684 
L 106.714473 652.085053 
L 27 652.085053 
z
" style="fill:#808080;"/>
   </g>
   <g id="patch_48">
    <path clip-path="url(#p4e4f7c83e6)" d="M 27 654.373895 
L 106.714621 654.373895 
L 106.714621 663.529263 
L 27 663.529263 
z
" style="fill:#808080;"/>
   </g>
   <g id="patch_49">
    <path clip-path="url(#p4e4f7c83e6)" d="M 27 665.818105 
L 106.715497 665.818105 
L 106.715497 674.973474 
L 27 674.973474 
z
" style="fill:#808080;"/>
   </g>
   <g id="patch_50">
    <path clip-path="url(#p4e4f7c83e6)" d="M 27 677.262316 
L 106.718733 677.262316 
L 106.718733 686.417684 
L 27 686.417684 
z
" style="fill:#808080;"/>
   </g>
   <g id="patch_51">
    <path clip-path="url(#p4e4f7c83e6)" d="M 27 688.706526 
L 106.735022 688.706526 
L 106.735022 697.861895 
L 27 697.861895 
z
" style="fill:#808080;"/>
   </g>
   <g id="patch_52">
    <path clip-path="url(#p4e4f7c83e6)" d="M 27 700.150737 
L 106.742734 700.150737 
L 106.742734 709.306105 
L 27 709.306105 
z
" style="fill:#808080;"/>
   </g>
   <g id="patch_53">
    <path clip-path="url(#p4e4f7c83e6)" d="M 27 711.594947 
L 106.749262 711.594947 
L 106.749262 720.750316 
L 27 720.750316 
z
" style="fill:#808080;"/>
   </g>
   <g id="patch_54">
    <path clip-path="url(#p4e4f7c83e6)" d="M 27 723.039158 
L 106.760232 723.039158 
L 106.760232 732.194526 
L 27 732.194526 
z
" style="fill:#808080;"/>
   </g>
   <g id="patch_55">
    <path clip-path="url(#p4e4f7c83e6)" d="M 27 734.483368 
L 106.760232 734.483368 
L 106.760232 743.638737 
L 27 743.638737 
z
" style="fill:#808080;"/>
   </g>
   <g id="patch_56">
    <path clip-path="url(#p4e4f7c83e6)" d="M 27 745.927579 
L 106.763053 745.927579 
L 106.763053 755.082947 
L 27 755.082947 
z
" style="fill:#808080;"/>
   </g>
   <g id="patch_57">
    <path clip-path="url(#p4e4f7c83e6)" d="M 27 757.371789 
L 106.767968 757.371789 
L 106.767968 766.527158 
L 27 766.527158 
z
" style="fill:#808080;"/>
   </g>
   <g id="patch_58">
    <path clip-path="url(#p4e4f7c83e6)" d="M 27 768.816 
L 106.779805 768.816 
L 106.779805 777.971368 
L 27 777.971368 
z
" style="fill:#808080;"/>
   </g>
   <g id="patch_59">
    <path clip-path="url(#p4e4f7c83e6)" d="M 27 780.260211 
L 106.791838 780.260211 
L 106.791838 789.415579 
L 27 789.415579 
z
" style="fill:#808080;"/>
   </g>
   <g id="patch_60">
    <path clip-path="url(#p4e4f7c83e6)" d="M 27 791.704421 
L 106.805362 791.704421 
L 106.805362 800.859789 
L 27 800.859789 
z
" style="fill:#808080;"/>
   </g>
   <g id="patch_61">
    <path clip-path="url(#p4e4f7c83e6)" d="M 27 803.148632 
L 106.866702 803.148632 
L 106.866702 812.304 
L 27 812.304 
z
" style="fill:#808080;"/>
   </g>
   <g id="patch_62">
    <path clip-path="url(#p4e4f7c83e6)" d="M 27 814.592842 
L 106.885288 814.592842 
L 106.885288 823.748211 
L 27 823.748211 
z
" style="fill:#808080;"/>
   </g>
   <g id="patch_63">
    <path clip-path="url(#p4e4f7c83e6)" d="M 27 826.037053 
L 106.929131 826.037053 
L 106.929131 835.192421 
L 27 835.192421 
z
" style="fill:#808080;"/>
   </g>
   <g id="patch_64">
    <path clip-path="url(#p4e4f7c83e6)" d="M 27 837.481263 
L 106.977605 837.481263 
L 106.977605 846.636632 
L 27 846.636632 
z
" style="fill:#808080;"/>
   </g>
   <g id="patch_65">
    <path clip-path="url(#p4e4f7c83e6)" d="M 27 848.925474 
L 107.013326 848.925474 
L 107.013326 858.080842 
L 27 858.080842 
z
" style="fill:#808080;"/>
   </g>
   <g id="patch_66">
    <path clip-path="url(#p4e4f7c83e6)" d="M 27 860.369684 
L 107.148585 860.369684 
L 107.148585 869.525053 
L 27 869.525053 
z
" style="fill:#808080;"/>
   </g>
   <g id="patch_67">
    <path clip-path="url(#p4e4f7c83e6)" d="M 27 871.813895 
L 107.375862 871.813895 
L 107.375862 880.969263 
L 27 880.969263 
z
" style="fill:#808080;"/>
   </g>
   <g id="patch_68">
    <path clip-path="url(#p4e4f7c83e6)" d="M 27 883.258105 
L 108.645643 883.258105 
L 108.645643 892.413474 
L 27 892.413474 
z
" style="fill:#808080;"/>
   </g>
   <g id="patch_69">
    <path clip-path="url(#p4e4f7c83e6)" d="M 27 894.702316 
L 135.480726 894.702316 
L 135.480726 903.857684 
L 27 903.857684 
z
" style="fill:#808080;"/>
   </g>
   <g id="patch_70">
    <path clip-path="url(#p4e4f7c83e6)" d="M 27 906.146526 
L 135.482292 906.146526 
L 135.482292 915.301895 
L 27 915.301895 
z
" style="fill:#808080;"/>
   </g>
   <g id="patch_71">
    <path clip-path="url(#p4e4f7c83e6)" d="M 27 917.590737 
L 135.482292 917.590737 
L 135.482292 926.746105 
L 27 926.746105 
z
" style="fill:#808080;"/>
   </g>
   <g id="patch_72">
    <path clip-path="url(#p4e4f7c83e6)" d="M 27 929.034947 
L 135.482292 929.034947 
L 135.482292 938.190316 
L 27 938.190316 
z
" style="fill:#808080;"/>
   </g>
   <g id="patch_73">
    <path clip-path="url(#p4e4f7c83e6)" d="M 27 940.479158 
L 135.482292 940.479158 
L 135.482292 949.634526 
L 27 949.634526 
z
" style="fill:#808080;"/>
   </g>
   <g id="patch_74">
    <path clip-path="url(#p4e4f7c83e6)" d="M 27 951.923368 
L 135.482292 951.923368 
L 135.482292 961.078737 
L 27 961.078737 
z
" style="fill:#808080;"/>
   </g>
   <g id="patch_75">
    <path clip-path="url(#p4e4f7c83e6)" d="M 27 963.367579 
L 135.482292 963.367579 
L 135.482292 972.522947 
L 27 972.522947 
z
" style="fill:#808080;"/>
   </g>
   <g id="patch_76">
    <path clip-path="url(#p4e4f7c83e6)" d="M 27 974.811789 
L 135.482292 974.811789 
L 135.482292 983.967158 
L 27 983.967158 
z
" style="fill:#808080;"/>
   </g>
   <g id="patch_77">
    <path clip-path="url(#p4e4f7c83e6)" d="M 27 986.256 
L 135.482292 986.256 
L 135.482292 995.411368 
L 27 995.411368 
z
" style="fill:#808080;"/>
   </g>
   <g id="patch_78">
    <path clip-path="url(#p4e4f7c83e6)" d="M 27 997.700211 
L 186.428571 997.700211 
L 186.428571 1006.855579 
L 27 1006.855579 
z
" style="fill:#808080;"/>
   </g>
   <g id="matplotlib.axis_1">
    <g id="xtick_1">
     <g id="line2d_1">
      <defs>
       <path d="M 0 0 
L 0 3.5 
" id="m6e3ee5dab3" style="stroke:#000000;stroke-width:0.8;"/>
      </defs>
      <g>
       <use style="stroke:#000000;stroke-width:0.8;" x="27" xlink:href="#m6e3ee5dab3" y="1008"/>
      </g>
     </g>
     <g id="text_1">
      <!-- 0.0 -->
      <g transform="translate(20.05 1022.157812)scale(0.1 -0.1)">
       <defs>
        <path d="M 4.15625 35.296875 
Q 4.15625 48 6.765625 55.734375 
Q 9.375 63.484375 14.515625 67.671875 
Q 19.671875 71.875 27.484375 71.875 
Q 33.25 71.875 37.59375 69.546875 
Q 41.9375 67.234375 44.765625 62.859375 
Q 47.609375 58.5 49.21875 52.21875 
Q 50.828125 45.953125 50.828125 35.296875 
Q 50.828125 22.703125 48.234375 14.96875 
Q 45.65625 7.234375 40.5 3 
Q 35.359375 -1.21875 27.484375 -1.21875 
Q 17.140625 -1.21875 11.234375 6.203125 
Q 4.15625 15.140625 4.15625 35.296875 
z
M 13.1875 35.296875 
Q 13.1875 17.671875 17.3125 11.828125 
Q 21.4375 6 27.484375 6 
Q 33.546875 6 37.671875 11.859375 
Q 41.796875 17.71875 41.796875 35.296875 
Q 41.796875 52.984375 37.671875 58.78125 
Q 33.546875 64.59375 27.390625 64.59375 
Q 21.34375 64.59375 17.71875 59.46875 
Q 13.1875 52.9375 13.1875 35.296875 
z
" id="ArialMT-48"/>
        <path d="M 9.078125 0 
L 9.078125 10.015625 
L 19.09375 10.015625 
L 19.09375 0 
z
" id="ArialMT-46"/>
       </defs>
       <use xlink:href="#ArialMT-48"/>
       <use x="55.615234" xlink:href="#ArialMT-46"/>
       <use x="83.398438" xlink:href="#ArialMT-48"/>
      </g>
     </g>
    </g>
    <g id="xtick_2">
     <g id="line2d_2">
      <g>
       <use style="stroke:#000000;stroke-width:0.8;" x="66.857143" xlink:href="#m6e3ee5dab3" y="1008"/>
      </g>
     </g>
     <g id="text_2">
      <!-- 0.5 -->
      <g transform="translate(59.907143 1022.157812)scale(0.1 -0.1)">
       <defs>
        <path d="M 4.15625 18.75 
L 13.375 19.53125 
Q 14.40625 12.796875 18.140625 9.390625 
Q 21.875 6 27.15625 6 
Q 33.5 6 37.890625 10.78125 
Q 42.28125 15.578125 42.28125 23.484375 
Q 42.28125 31 38.0625 35.34375 
Q 33.84375 39.703125 27 39.703125 
Q 22.75 39.703125 19.328125 37.765625 
Q 15.921875 35.84375 13.96875 32.765625 
L 5.71875 33.84375 
L 12.640625 70.609375 
L 48.25 70.609375 
L 48.25 62.203125 
L 19.671875 62.203125 
L 15.828125 42.96875 
Q 22.265625 47.46875 29.34375 47.46875 
Q 38.71875 47.46875 45.15625 40.96875 
Q 51.609375 34.46875 51.609375 24.265625 
Q 51.609375 14.546875 45.953125 7.46875 
Q 39.0625 -1.21875 27.15625 -1.21875 
Q 17.390625 -1.21875 11.203125 4.25 
Q 5.03125 9.71875 4.15625 18.75 
z
" id="ArialMT-53"/>
       </defs>
       <use xlink:href="#ArialMT-48"/>
       <use x="55.615234" xlink:href="#ArialMT-46"/>
       <use x="83.398438" xlink:href="#ArialMT-53"/>
      </g>
     </g>
    </g>
    <g id="xtick_3">
     <g id="line2d_3">
      <g>
       <use style="stroke:#000000;stroke-width:0.8;" x="106.714286" xlink:href="#m6e3ee5dab3" y="1008"/>
      </g>
     </g>
     <g id="text_3">
      <!-- 1.0 -->
      <g transform="translate(99.764286 1022.157812)scale(0.1 -0.1)">
       <defs>
        <path d="M 37.25 0 
L 28.46875 0 
L 28.46875 56 
Q 25.296875 52.984375 20.140625 49.953125 
Q 14.984375 46.921875 10.890625 45.40625 
L 10.890625 53.90625 
Q 18.265625 57.375 23.78125 62.296875 
Q 29.296875 67.234375 31.59375 71.875 
L 37.25 71.875 
z
" id="ArialMT-49"/>
       </defs>
       <use xlink:href="#ArialMT-49"/>
       <use x="55.615234" xlink:href="#ArialMT-46"/>
       <use x="83.398438" xlink:href="#ArialMT-48"/>
      </g>
     </g>
    </g>
    <g id="xtick_4">
     <g id="line2d_4">
      <g>
       <use style="stroke:#000000;stroke-width:0.8;" x="146.571429" xlink:href="#m6e3ee5dab3" y="1008"/>
      </g>
     </g>
     <g id="text_4">
      <!-- 1.5 -->
      <g transform="translate(139.621429 1022.157812)scale(0.1 -0.1)">
       <use xlink:href="#ArialMT-49"/>
       <use x="55.615234" xlink:href="#ArialMT-46"/>
       <use x="83.398438" xlink:href="#ArialMT-53"/>
      </g>
     </g>
    </g>
    <g id="xtick_5">
     <g id="line2d_5">
      <g>
       <use style="stroke:#000000;stroke-width:0.8;" x="186.428571" xlink:href="#m6e3ee5dab3" y="1008"/>
      </g>
     </g>
     <g id="text_5">
      <!-- 2.0 -->
      <g transform="translate(179.478571 1022.157812)scale(0.1 -0.1)">
       <defs>
        <path d="M 50.34375 8.453125 
L 50.34375 0 
L 3.03125 0 
Q 2.9375 3.171875 4.046875 6.109375 
Q 5.859375 10.9375 9.828125 15.625 
Q 13.8125 20.3125 21.34375 26.46875 
Q 33.015625 36.03125 37.109375 41.625 
Q 41.21875 47.21875 41.21875 52.203125 
Q 41.21875 57.421875 37.46875 61 
Q 33.734375 64.59375 27.734375 64.59375 
Q 21.390625 64.59375 17.578125 60.78125 
Q 13.765625 56.984375 13.71875 50.25 
L 4.6875 51.171875 
Q 5.609375 61.28125 11.65625 66.578125 
Q 17.71875 71.875 27.9375 71.875 
Q 38.234375 71.875 44.234375 66.15625 
Q 50.25 60.453125 50.25 52 
Q 50.25 47.703125 48.484375 43.546875 
Q 46.734375 39.40625 42.65625 34.8125 
Q 38.578125 30.21875 29.109375 22.21875 
Q 21.1875 15.578125 18.9375 13.203125 
Q 16.703125 10.84375 15.234375 8.453125 
z
" id="ArialMT-50"/>
       </defs>
       <use xlink:href="#ArialMT-50"/>
       <use x="55.615234" xlink:href="#ArialMT-46"/>
       <use x="83.398438" xlink:href="#ArialMT-48"/>
      </g>
     </g>
    </g>
    <g id="text_6">
     <!-- mu (relative) -->
     <g transform="translate(82.91875 1035.425)scale(0.1 -0.1)">
      <defs>
       <path d="M 6.59375 0 
L 6.59375 51.859375 
L 14.453125 51.859375 
L 14.453125 44.578125 
Q 16.890625 48.390625 20.9375 50.703125 
Q 25 53.03125 30.171875 53.03125 
Q 35.9375 53.03125 39.625 50.640625 
Q 43.3125 48.25 44.828125 43.953125 
Q 50.984375 53.03125 60.84375 53.03125 
Q 68.5625 53.03125 72.703125 48.75 
Q 76.859375 44.484375 76.859375 35.59375 
L 76.859375 0 
L 68.109375 0 
L 68.109375 32.671875 
Q 68.109375 37.9375 67.25 40.25 
Q 66.40625 42.578125 64.15625 43.984375 
Q 61.921875 45.40625 58.890625 45.40625 
Q 53.421875 45.40625 49.796875 41.765625 
Q 46.1875 38.140625 46.1875 30.125 
L 46.1875 0 
L 37.40625 0 
L 37.40625 33.6875 
Q 37.40625 39.546875 35.25 42.46875 
Q 33.109375 45.40625 28.21875 45.40625 
Q 24.515625 45.40625 21.359375 43.453125 
Q 18.21875 41.5 16.796875 37.734375 
Q 15.375 33.984375 15.375 26.90625 
L 15.375 0 
z
" id="ArialMT-109"/>
       <path d="M 40.578125 0 
L 40.578125 7.625 
Q 34.515625 -1.171875 24.125 -1.171875 
Q 19.53125 -1.171875 15.546875 0.578125 
Q 11.578125 2.34375 9.640625 5 
Q 7.71875 7.671875 6.9375 11.53125 
Q 6.390625 14.109375 6.390625 19.734375 
L 6.390625 51.859375 
L 15.1875 51.859375 
L 15.1875 23.09375 
Q 15.1875 16.21875 15.71875 13.8125 
Q 16.546875 10.359375 19.234375 8.375 
Q 21.921875 6.390625 25.875 6.390625 
Q 29.828125 6.390625 33.296875 8.421875 
Q 36.765625 10.453125 38.203125 13.9375 
Q 39.65625 17.4375 39.65625 24.078125 
L 39.65625 51.859375 
L 48.4375 51.859375 
L 48.4375 0 
z
" id="ArialMT-117"/>
       <path id="ArialMT-32"/>
       <path d="M 23.390625 -21.046875 
Q 16.109375 -11.859375 11.078125 0.4375 
Q 6.0625 12.75 6.0625 25.921875 
Q 6.0625 37.546875 9.8125 48.1875 
Q 14.203125 60.546875 23.390625 72.796875 
L 29.6875 72.796875 
Q 23.78125 62.640625 21.875 58.296875 
Q 18.890625 51.5625 17.1875 44.234375 
Q 15.09375 35.109375 15.09375 25.875 
Q 15.09375 2.390625 29.6875 -21.046875 
z
" id="ArialMT-40"/>
       <path d="M 6.5 0 
L 6.5 51.859375 
L 14.40625 51.859375 
L 14.40625 44 
Q 17.4375 49.515625 20 51.265625 
Q 22.5625 53.03125 25.640625 53.03125 
Q 30.078125 53.03125 34.671875 50.203125 
L 31.640625 42.046875 
Q 28.421875 43.953125 25.203125 43.953125 
Q 22.3125 43.953125 20.015625 42.21875 
Q 17.71875 40.484375 16.75 37.40625 
Q 15.28125 32.71875 15.28125 27.15625 
L 15.28125 0 
z
" id="ArialMT-114"/>
       <path d="M 42.09375 16.703125 
L 51.171875 15.578125 
Q 49.03125 7.625 43.21875 3.21875 
Q 37.40625 -1.171875 28.375 -1.171875 
Q 17 -1.171875 10.328125 5.828125 
Q 3.65625 12.84375 3.65625 25.484375 
Q 3.65625 38.578125 10.390625 45.796875 
Q 17.140625 53.03125 27.875 53.03125 
Q 38.28125 53.03125 44.875 45.953125 
Q 51.46875 38.875 51.46875 26.03125 
Q 51.46875 25.25 51.421875 23.6875 
L 12.75 23.6875 
Q 13.234375 15.140625 17.578125 10.59375 
Q 21.921875 6.0625 28.421875 6.0625 
Q 33.25 6.0625 36.671875 8.59375 
Q 40.09375 11.140625 42.09375 16.703125 
z
M 13.234375 30.90625 
L 42.1875 30.90625 
Q 41.609375 37.453125 38.875 40.71875 
Q 34.671875 45.796875 27.984375 45.796875 
Q 21.921875 45.796875 17.796875 41.75 
Q 13.671875 37.703125 13.234375 30.90625 
z
" id="ArialMT-101"/>
       <path d="M 6.390625 0 
L 6.390625 71.578125 
L 15.1875 71.578125 
L 15.1875 0 
z
" id="ArialMT-108"/>
       <path d="M 40.4375 6.390625 
Q 35.546875 2.25 31.03125 0.53125 
Q 26.515625 -1.171875 21.34375 -1.171875 
Q 12.796875 -1.171875 8.203125 3 
Q 3.609375 7.171875 3.609375 13.671875 
Q 3.609375 17.484375 5.34375 20.625 
Q 7.078125 23.78125 9.890625 25.6875 
Q 12.703125 27.59375 16.21875 28.5625 
Q 18.796875 29.25 24.03125 29.890625 
Q 34.671875 31.15625 39.703125 32.90625 
Q 39.75 34.71875 39.75 35.203125 
Q 39.75 40.578125 37.25 42.78125 
Q 33.890625 45.75 27.25 45.75 
Q 21.046875 45.75 18.09375 43.578125 
Q 15.140625 41.40625 13.71875 35.890625 
L 5.125 37.0625 
Q 6.296875 42.578125 8.984375 45.96875 
Q 11.671875 49.359375 16.75 51.1875 
Q 21.828125 53.03125 28.515625 53.03125 
Q 35.15625 53.03125 39.296875 51.46875 
Q 43.453125 49.90625 45.40625 47.53125 
Q 47.359375 45.171875 48.140625 41.546875 
Q 48.578125 39.3125 48.578125 33.453125 
L 48.578125 21.734375 
Q 48.578125 9.46875 49.140625 6.21875 
Q 49.703125 2.984375 51.375 0 
L 42.1875 0 
Q 40.828125 2.734375 40.4375 6.390625 
z
M 39.703125 26.03125 
Q 34.90625 24.078125 25.34375 22.703125 
Q 19.921875 21.921875 17.671875 20.9375 
Q 15.4375 19.96875 14.203125 18.09375 
Q 12.984375 16.21875 12.984375 13.921875 
Q 12.984375 10.40625 15.640625 8.0625 
Q 18.3125 5.71875 23.4375 5.71875 
Q 28.515625 5.71875 32.46875 7.9375 
Q 36.421875 10.15625 38.28125 14.015625 
Q 39.703125 17 39.703125 22.796875 
z
" id="ArialMT-97"/>
       <path d="M 25.78125 7.859375 
L 27.046875 0.09375 
Q 23.34375 -0.6875 20.40625 -0.6875 
Q 15.625 -0.6875 12.984375 0.828125 
Q 10.359375 2.34375 9.28125 4.8125 
Q 8.203125 7.28125 8.203125 15.1875 
L 8.203125 45.015625 
L 1.765625 45.015625 
L 1.765625 51.859375 
L 8.203125 51.859375 
L 8.203125 64.703125 
L 16.9375 69.96875 
L 16.9375 51.859375 
L 25.78125 51.859375 
L 25.78125 45.015625 
L 16.9375 45.015625 
L 16.9375 14.703125 
Q 16.9375 10.9375 17.40625 9.859375 
Q 17.875 8.796875 18.921875 8.15625 
Q 19.96875 7.515625 21.921875 7.515625 
Q 23.390625 7.515625 25.78125 7.859375 
z
" id="ArialMT-116"/>
       <path d="M 6.640625 61.46875 
L 6.640625 71.578125 
L 15.4375 71.578125 
L 15.4375 61.46875 
z
M 6.640625 0 
L 6.640625 51.859375 
L 15.4375 51.859375 
L 15.4375 0 
z
" id="ArialMT-105"/>
       <path d="M 21 0 
L 1.265625 51.859375 
L 10.546875 51.859375 
L 21.6875 20.796875 
Q 23.484375 15.765625 25 10.359375 
Q 26.171875 14.453125 28.265625 20.21875 
L 39.796875 51.859375 
L 48.828125 51.859375 
L 29.203125 0 
z
" id="ArialMT-118"/>
       <path d="M 12.359375 -21.046875 
L 6.0625 -21.046875 
Q 20.65625 2.390625 20.65625 25.875 
Q 20.65625 35.0625 18.5625 44.09375 
Q 16.890625 51.421875 13.921875 58.15625 
Q 12.015625 62.546875 6.0625 72.796875 
L 12.359375 72.796875 
Q 21.53125 60.546875 25.921875 48.1875 
Q 29.6875 37.546875 29.6875 25.921875 
Q 29.6875 12.75 24.625 0.4375 
Q 19.578125 -11.859375 12.359375 -21.046875 
z
" id="ArialMT-41"/>
      </defs>
      <use xlink:href="#ArialMT-109"/>
      <use x="83.300781" xlink:href="#ArialMT-117"/>
      <use x="138.916016" xlink:href="#ArialMT-32"/>
      <use x="166.699219" xlink:href="#ArialMT-40"/>
      <use x="200" xlink:href="#ArialMT-114"/>
      <use x="233.300781" xlink:href="#ArialMT-101"/>
      <use x="288.916016" xlink:href="#ArialMT-108"/>
      <use x="311.132812" xlink:href="#ArialMT-97"/>
      <use x="366.748047" xlink:href="#ArialMT-116"/>
      <use x="394.53125" xlink:href="#ArialMT-105"/>
      <use x="416.748047" xlink:href="#ArialMT-118"/>
      <use x="466.748047" xlink:href="#ArialMT-101"/>
      <use x="522.363281" xlink:href="#ArialMT-41"/>
     </g>
    </g>
   </g>
   <g id="matplotlib.axis_2">
    <g id="ytick_1">
     <g id="line2d_6">
      <defs>
       <path d="M 0 0 
L -3.5 0 
" id="me7e0587b84" style="stroke:#000000;stroke-width:0.8;"/>
      </defs>
      <g>
       <use style="stroke:#000000;stroke-width:0.8;" x="27" xlink:href="#me7e0587b84" y="143.962105"/>
      </g>
     </g>
     <g id="text_7">
      <!-- gnd -->
      <g transform="translate(3.317187 147.541012)scale(0.1 -0.1)">
       <defs>
        <path d="M 4.984375 -4.296875 
L 13.53125 -5.5625 
Q 14.0625 -9.515625 16.5 -11.328125 
Q 19.78125 -13.765625 25.4375 -13.765625 
Q 31.546875 -13.765625 34.859375 -11.328125 
Q 38.1875 -8.890625 39.359375 -4.5 
Q 40.046875 -1.8125 39.984375 6.78125 
Q 34.234375 0 25.640625 0 
Q 14.9375 0 9.078125 7.71875 
Q 3.21875 15.4375 3.21875 26.21875 
Q 3.21875 33.640625 5.90625 39.90625 
Q 8.59375 46.1875 13.6875 49.609375 
Q 18.796875 53.03125 25.6875 53.03125 
Q 34.859375 53.03125 40.828125 45.609375 
L 40.828125 51.859375 
L 48.921875 51.859375 
L 48.921875 7.03125 
Q 48.921875 -5.078125 46.453125 -10.125 
Q 44 -15.1875 38.640625 -18.109375 
Q 33.296875 -21.046875 25.484375 -21.046875 
Q 16.21875 -21.046875 10.5 -16.875 
Q 4.78125 -12.703125 4.984375 -4.296875 
z
M 12.25 26.859375 
Q 12.25 16.65625 16.296875 11.96875 
Q 20.359375 7.28125 26.46875 7.28125 
Q 32.515625 7.28125 36.609375 11.9375 
Q 40.71875 16.609375 40.71875 26.5625 
Q 40.71875 36.078125 36.5 40.90625 
Q 32.28125 45.75 26.3125 45.75 
Q 20.453125 45.75 16.34375 40.984375 
Q 12.25 36.234375 12.25 26.859375 
z
" id="ArialMT-103"/>
        <path d="M 6.59375 0 
L 6.59375 51.859375 
L 14.5 51.859375 
L 14.5 44.484375 
Q 20.21875 53.03125 31 53.03125 
Q 35.6875 53.03125 39.625 51.34375 
Q 43.5625 49.65625 45.515625 46.921875 
Q 47.46875 44.1875 48.25 40.4375 
Q 48.734375 37.984375 48.734375 31.890625 
L 48.734375 0 
L 39.9375 0 
L 39.9375 31.546875 
Q 39.9375 36.921875 38.90625 39.578125 
Q 37.890625 42.234375 35.28125 43.8125 
Q 32.671875 45.40625 29.15625 45.40625 
Q 23.53125 45.40625 19.453125 41.84375 
Q 15.375 38.28125 15.375 28.328125 
L 15.375 0 
z
" id="ArialMT-110"/>
        <path d="M 40.234375 0 
L 40.234375 6.546875 
Q 35.296875 -1.171875 25.734375 -1.171875 
Q 19.53125 -1.171875 14.328125 2.25 
Q 9.125 5.671875 6.265625 11.796875 
Q 3.421875 17.921875 3.421875 25.875 
Q 3.421875 33.640625 6 39.96875 
Q 8.59375 46.296875 13.765625 49.65625 
Q 18.953125 53.03125 25.34375 53.03125 
Q 30.03125 53.03125 33.6875 51.046875 
Q 37.359375 49.078125 39.65625 45.90625 
L 39.65625 71.578125 
L 48.390625 71.578125 
L 48.390625 0 
z
M 12.453125 25.875 
Q 12.453125 15.921875 16.640625 10.984375 
Q 20.84375 6.0625 26.5625 6.0625 
Q 32.328125 6.0625 36.34375 10.765625 
Q 40.375 15.484375 40.375 25.140625 
Q 40.375 35.796875 36.265625 40.765625 
Q 32.171875 45.75 26.171875 45.75 
Q 20.3125 45.75 16.375 40.96875 
Q 12.453125 36.1875 12.453125 25.875 
z
" id="ArialMT-100"/>
       </defs>
       <use xlink:href="#ArialMT-103"/>
       <use x="55.615234" xlink:href="#ArialMT-110"/>
       <use x="111.230469" xlink:href="#ArialMT-100"/>
      </g>
     </g>
    </g>
    <g id="ytick_2">
     <g id="line2d_7">
      <g>
       <use style="stroke:#000000;stroke-width:0.8;" x="27" xlink:href="#me7e0587b84" y="155.406316"/>
      </g>
     </g>
     <g id="text_8">
      <!-- zwf -->
      <g transform="translate(5 158.985222)scale(0.1 -0.1)">
       <defs>
        <path d="M 1.953125 0 
L 1.953125 7.125 
L 34.96875 45.015625 
Q 29.34375 44.734375 25.046875 44.734375 
L 3.90625 44.734375 
L 3.90625 51.859375 
L 46.296875 51.859375 
L 46.296875 46.046875 
L 18.21875 13.140625 
L 12.796875 7.125 
Q 18.703125 7.5625 23.875 7.5625 
L 47.859375 7.5625 
L 47.859375 0 
z
" id="ArialMT-122"/>
        <path d="M 16.15625 0 
L 0.296875 51.859375 
L 9.375 51.859375 
L 17.625 21.921875 
L 20.703125 10.796875 
Q 20.90625 11.625 23.390625 21.484375 
L 31.640625 51.859375 
L 40.671875 51.859375 
L 48.4375 21.78125 
L 51.03125 11.859375 
L 54 21.875 
L 62.890625 51.859375 
L 71.4375 51.859375 
L 55.21875 0 
L 46.09375 0 
L 37.84375 31.0625 
L 35.84375 39.890625 
L 25.34375 0 
z
" id="ArialMT-119"/>
        <path d="M 8.6875 0 
L 8.6875 45.015625 
L 0.921875 45.015625 
L 0.921875 51.859375 
L 8.6875 51.859375 
L 8.6875 57.375 
Q 8.6875 62.59375 9.625 65.140625 
Q 10.890625 68.5625 14.078125 70.671875 
Q 17.28125 72.796875 23.046875 72.796875 
Q 26.765625 72.796875 31.25 71.921875 
L 29.9375 64.265625 
Q 27.203125 64.75 24.75 64.75 
Q 20.75 64.75 19.09375 63.03125 
Q 17.4375 61.328125 17.4375 56.640625 
L 17.4375 51.859375 
L 27.546875 51.859375 
L 27.546875 45.015625 
L 17.4375 45.015625 
L 17.4375 0 
z
" id="ArialMT-102"/>
       </defs>
       <use xlink:href="#ArialMT-122"/>
       <use x="50" xlink:href="#ArialMT-119"/>
       <use x="122.216797" xlink:href="#ArialMT-102"/>
      </g>
     </g>
    </g>
    <g id="ytick_3">
     <g id="line2d_8">
      <g>
       <use style="stroke:#000000;stroke-width:0.8;" x="27" xlink:href="#me7e0587b84" y="166.850526"/>
      </g>
     </g>
     <g id="text_9">
      <!-- maeA -->
      <g transform="translate(-6.121875 170.429433)scale(0.1 -0.1)">
       <defs>
        <path d="M -0.140625 0 
L 27.34375 71.578125 
L 37.546875 71.578125 
L 66.84375 0 
L 56.0625 0 
L 47.703125 21.6875 
L 17.78125 21.6875 
L 9.90625 0 
z
M 20.515625 29.390625 
L 44.78125 29.390625 
L 37.3125 49.21875 
Q 33.890625 58.25 32.234375 64.0625 
Q 30.859375 57.171875 28.375 50.390625 
z
" id="ArialMT-65"/>
       </defs>
       <use xlink:href="#ArialMT-109"/>
       <use x="83.300781" xlink:href="#ArialMT-97"/>
       <use x="138.916016" xlink:href="#ArialMT-101"/>
       <use x="194.53125" xlink:href="#ArialMT-65"/>
      </g>
     </g>
    </g>
    <g id="ytick_4">
     <g id="line2d_9">
      <g>
       <use style="stroke:#000000;stroke-width:0.8;" x="27" xlink:href="#me7e0587b84" y="178.294737"/>
      </g>
     </g>
     <g id="text_10">
      <!-- fre -->
      <g transform="translate(8.33125 181.873643)scale(0.1 -0.1)">
       <use xlink:href="#ArialMT-102"/>
       <use x="27.783203" xlink:href="#ArialMT-114"/>
       <use x="61.083984" xlink:href="#ArialMT-101"/>
      </g>
     </g>
    </g>
    <g id="ytick_5">
     <g id="line2d_10">
      <g>
       <use style="stroke:#000000;stroke-width:0.8;" x="27" xlink:href="#me7e0587b84" y="189.738947"/>
      </g>
     </g>
     <g id="text_11">
      <!-- tdh -->
      <g transform="translate(6.1 193.317854)scale(0.1 -0.1)">
       <defs>
        <path d="M 6.59375 0 
L 6.59375 71.578125 
L 15.375 71.578125 
L 15.375 45.90625 
Q 21.53125 53.03125 30.90625 53.03125 
Q 36.671875 53.03125 40.921875 50.75 
Q 45.171875 48.484375 47 44.484375 
Q 48.828125 40.484375 48.828125 32.859375 
L 48.828125 0 
L 40.046875 0 
L 40.046875 32.859375 
Q 40.046875 39.453125 37.1875 42.453125 
Q 34.328125 45.453125 29.109375 45.453125 
Q 25.203125 45.453125 21.75 43.421875 
Q 18.3125 41.40625 16.84375 37.9375 
Q 15.375 34.46875 15.375 28.375 
L 15.375 0 
z
" id="ArialMT-104"/>
       </defs>
       <use xlink:href="#ArialMT-116"/>
       <use x="27.783203" xlink:href="#ArialMT-100"/>
       <use x="83.398438" xlink:href="#ArialMT-104"/>
      </g>
     </g>
    </g>
    <g id="ytick_6">
     <g id="line2d_11">
      <g>
       <use style="stroke:#000000;stroke-width:0.8;" x="27" xlink:href="#me7e0587b84" y="201.183158"/>
      </g>
     </g>
     <g id="text_12">
      <!-- putA -->
      <g transform="translate(-0.570312 204.762064)scale(0.1 -0.1)">
       <defs>
        <path d="M 6.59375 -19.875 
L 6.59375 51.859375 
L 14.59375 51.859375 
L 14.59375 45.125 
Q 17.4375 49.078125 21 51.046875 
Q 24.5625 53.03125 29.640625 53.03125 
Q 36.28125 53.03125 41.359375 49.609375 
Q 46.4375 46.1875 49.015625 39.953125 
Q 51.609375 33.734375 51.609375 26.3125 
Q 51.609375 18.359375 48.75 11.984375 
Q 45.90625 5.609375 40.453125 2.21875 
Q 35.015625 -1.171875 29 -1.171875 
Q 24.609375 -1.171875 21.109375 0.6875 
Q 17.625 2.546875 15.375 5.375 
L 15.375 -19.875 
z
M 14.546875 25.640625 
Q 14.546875 15.625 18.59375 10.84375 
Q 22.65625 6.0625 28.421875 6.0625 
Q 34.28125 6.0625 38.453125 11.015625 
Q 42.625 15.96875 42.625 26.375 
Q 42.625 36.28125 38.546875 41.203125 
Q 34.46875 46.140625 28.8125 46.140625 
Q 23.1875 46.140625 18.859375 40.890625 
Q 14.546875 35.640625 14.546875 25.640625 
z
" id="ArialMT-112"/>
       </defs>
       <use xlink:href="#ArialMT-112"/>
       <use x="55.615234" xlink:href="#ArialMT-117"/>
       <use x="111.230469" xlink:href="#ArialMT-116"/>
       <use x="139.013672" xlink:href="#ArialMT-65"/>
      </g>
     </g>
    </g>
    <g id="ytick_7">
     <g id="line2d_12">
      <g>
       <use style="stroke:#000000;stroke-width:0.8;" x="27" xlink:href="#me7e0587b84" y="212.627368"/>
      </g>
     </g>
     <g id="text_13">
      <!-- metF -->
      <g transform="translate(-2.776563 216.206275)scale(0.1 -0.1)">
       <defs>
        <path d="M 8.203125 0 
L 8.203125 71.578125 
L 56.5 71.578125 
L 56.5 63.140625 
L 17.671875 63.140625 
L 17.671875 40.96875 
L 51.265625 40.96875 
L 51.265625 32.515625 
L 17.671875 32.515625 
L 17.671875 0 
z
" id="ArialMT-70"/>
       </defs>
       <use xlink:href="#ArialMT-109"/>
       <use x="83.300781" xlink:href="#ArialMT-101"/>
       <use x="138.916016" xlink:href="#ArialMT-116"/>
       <use x="166.699219" xlink:href="#ArialMT-70"/>
      </g>
     </g>
    </g>
    <g id="ytick_8">
     <g id="line2d_13">
      <g>
       <use style="stroke:#000000;stroke-width:0.8;" x="27" xlink:href="#me7e0587b84" y="224.071579"/>
      </g>
     </g>
     <g id="text_14">
      <!-- gpsA -->
      <g transform="translate(-2.792188 227.650485)scale(0.1 -0.1)">
       <defs>
        <path d="M 3.078125 15.484375 
L 11.765625 16.84375 
Q 12.5 11.625 15.84375 8.84375 
Q 19.1875 6.0625 25.203125 6.0625 
Q 31.25 6.0625 34.171875 8.515625 
Q 37.109375 10.984375 37.109375 14.3125 
Q 37.109375 17.28125 34.515625 19 
Q 32.71875 20.171875 25.53125 21.96875 
Q 15.875 24.421875 12.140625 26.203125 
Q 8.40625 27.984375 6.46875 31.125 
Q 4.546875 34.28125 4.546875 38.09375 
Q 4.546875 41.546875 6.125 44.5 
Q 7.71875 47.46875 10.453125 49.421875 
Q 12.5 50.921875 16.03125 51.96875 
Q 19.578125 53.03125 23.640625 53.03125 
Q 29.734375 53.03125 34.34375 51.265625 
Q 38.96875 49.515625 41.15625 46.5 
Q 43.359375 43.5 44.1875 38.484375 
L 35.59375 37.3125 
Q 35.015625 41.3125 32.203125 43.546875 
Q 29.390625 45.796875 24.265625 45.796875 
Q 18.21875 45.796875 15.625 43.796875 
Q 13.03125 41.796875 13.03125 39.109375 
Q 13.03125 37.40625 14.109375 36.03125 
Q 15.1875 34.625 17.484375 33.6875 
Q 18.796875 33.203125 25.25 31.453125 
Q 34.578125 28.953125 38.25 27.359375 
Q 41.9375 25.78125 44.03125 22.75 
Q 46.140625 19.734375 46.140625 15.234375 
Q 46.140625 10.84375 43.578125 6.953125 
Q 41.015625 3.078125 36.171875 0.953125 
Q 31.34375 -1.171875 25.25 -1.171875 
Q 15.140625 -1.171875 9.84375 3.03125 
Q 4.546875 7.234375 3.078125 15.484375 
z
" id="ArialMT-115"/>
       </defs>
       <use xlink:href="#ArialMT-103"/>
       <use x="55.615234" xlink:href="#ArialMT-112"/>
       <use x="111.230469" xlink:href="#ArialMT-115"/>
       <use x="161.230469" xlink:href="#ArialMT-65"/>
      </g>
     </g>
    </g>
    <g id="ytick_9">
     <g id="line2d_14">
      <g>
       <use style="stroke:#000000;stroke-width:0.8;" x="27" xlink:href="#me7e0587b84" y="235.515789"/>
      </g>
     </g>
     <g id="text_15">
      <!-- gatD -->
      <g transform="translate(-1.121875 239.094696)scale(0.1 -0.1)">
       <defs>
        <path d="M 7.71875 0 
L 7.71875 71.578125 
L 32.375 71.578125 
Q 40.71875 71.578125 45.125 70.5625 
Q 51.265625 69.140625 55.609375 65.4375 
Q 61.28125 60.640625 64.078125 53.1875 
Q 66.890625 45.75 66.890625 36.1875 
Q 66.890625 28.03125 64.984375 21.734375 
Q 63.09375 15.4375 60.109375 11.296875 
Q 57.125 7.171875 53.578125 4.796875 
Q 50.046875 2.4375 45.046875 1.21875 
Q 40.046875 0 33.546875 0 
z
M 17.1875 8.453125 
L 32.46875 8.453125 
Q 39.546875 8.453125 43.578125 9.765625 
Q 47.609375 11.078125 50 13.484375 
Q 53.375 16.84375 55.25 22.53125 
Q 57.125 28.21875 57.125 36.328125 
Q 57.125 47.5625 53.4375 53.59375 
Q 49.75 59.625 44.484375 61.671875 
Q 40.671875 63.140625 32.234375 63.140625 
L 17.1875 63.140625 
z
" id="ArialMT-68"/>
       </defs>
       <use xlink:href="#ArialMT-103"/>
       <use x="55.615234" xlink:href="#ArialMT-97"/>
       <use x="111.230469" xlink:href="#ArialMT-116"/>
       <use x="139.013672" xlink:href="#ArialMT-68"/>
      </g>
     </g>
    </g>
    <g id="ytick_10">
     <g id="line2d_15">
      <g>
       <use style="stroke:#000000;stroke-width:0.8;" x="27" xlink:href="#me7e0587b84" y="246.96"/>
      </g>
     </g>
     <g id="text_16">
      <!-- hcaD -->
      <g transform="translate(-3.34375 250.538906)scale(0.1 -0.1)">
       <defs>
        <path d="M 40.4375 19 
L 49.078125 17.875 
Q 47.65625 8.9375 41.8125 3.875 
Q 35.984375 -1.171875 27.484375 -1.171875 
Q 16.84375 -1.171875 10.375 5.78125 
Q 3.90625 12.75 3.90625 25.734375 
Q 3.90625 34.125 6.6875 40.421875 
Q 9.46875 46.734375 15.15625 49.875 
Q 20.84375 53.03125 27.546875 53.03125 
Q 35.984375 53.03125 41.359375 48.75 
Q 46.734375 44.484375 48.25 36.625 
L 39.703125 35.296875 
Q 38.484375 40.53125 35.375 43.15625 
Q 32.28125 45.796875 27.875 45.796875 
Q 21.234375 45.796875 17.078125 41.03125 
Q 12.9375 36.28125 12.9375 25.984375 
Q 12.9375 15.53125 16.9375 10.796875 
Q 20.953125 6.0625 27.390625 6.0625 
Q 32.5625 6.0625 36.03125 9.234375 
Q 39.5 12.40625 40.4375 19 
z
" id="ArialMT-99"/>
       </defs>
       <use xlink:href="#ArialMT-104"/>
       <use x="55.615234" xlink:href="#ArialMT-99"/>
       <use x="105.615234" xlink:href="#ArialMT-97"/>
       <use x="161.230469" xlink:href="#ArialMT-68"/>
      </g>
     </g>
    </g>
    <g id="ytick_11">
     <g id="line2d_16">
      <g>
       <use style="stroke:#000000;stroke-width:0.8;" x="27" xlink:href="#me7e0587b84" y="258.404211"/>
      </g>
     </g>
     <g id="text_17">
      <!-- queF -->
      <g transform="translate(-2.790625 261.983117)scale(0.1 -0.1)">
       <defs>
        <path d="M 39.65625 -19.875 
L 39.65625 5.515625 
Q 37.59375 2.640625 33.90625 0.734375 
Q 30.21875 -1.171875 26.078125 -1.171875 
Q 16.84375 -1.171875 10.171875 6.203125 
Q 3.515625 13.578125 3.515625 26.421875 
Q 3.515625 34.234375 6.21875 40.421875 
Q 8.9375 46.625 14.078125 49.828125 
Q 19.234375 53.03125 25.390625 53.03125 
Q 35.015625 53.03125 40.53125 44.921875 
L 40.53125 51.859375 
L 48.4375 51.859375 
L 48.4375 -19.875 
z
M 12.546875 26.078125 
Q 12.546875 16.0625 16.75 11.0625 
Q 20.953125 6.0625 26.8125 6.0625 
Q 32.421875 6.0625 36.46875 10.8125 
Q 40.53125 15.578125 40.53125 25.296875 
Q 40.53125 35.640625 36.25 40.859375 
Q 31.984375 46.09375 26.21875 46.09375 
Q 20.515625 46.09375 16.53125 41.234375 
Q 12.546875 36.375 12.546875 26.078125 
z
" id="ArialMT-113"/>
       </defs>
       <use xlink:href="#ArialMT-113"/>
       <use x="55.615234" xlink:href="#ArialMT-117"/>
       <use x="111.230469" xlink:href="#ArialMT-101"/>
       <use x="166.845703" xlink:href="#ArialMT-70"/>
      </g>
     </g>
    </g>
    <g id="ytick_12">
     <g id="line2d_17">
      <g>
       <use style="stroke:#000000;stroke-width:0.8;" x="27" xlink:href="#me7e0587b84" y="269.848421"/>
      </g>
     </g>
     <g id="text_18">
      <!-- uxaB -->
      <g transform="translate(-2.792188 273.427327)scale(0.1 -0.1)">
       <defs>
        <path d="M 0.734375 0 
L 19.671875 26.953125 
L 2.15625 51.859375 
L 13.140625 51.859375 
L 21.09375 39.703125 
Q 23.34375 36.234375 24.703125 33.890625 
Q 26.859375 37.109375 28.65625 39.59375 
L 37.40625 51.859375 
L 47.90625 51.859375 
L 29.984375 27.4375 
L 49.265625 0 
L 38.484375 0 
L 27.828125 16.109375 
L 25 20.453125 
L 11.375 0 
z
" id="ArialMT-120"/>
        <path d="M 7.328125 0 
L 7.328125 71.578125 
L 34.1875 71.578125 
Q 42.390625 71.578125 47.34375 69.40625 
Q 52.296875 67.234375 55.09375 62.71875 
Q 57.90625 58.203125 57.90625 53.265625 
Q 57.90625 48.6875 55.421875 44.625 
Q 52.9375 40.578125 47.90625 38.09375 
Q 54.390625 36.1875 57.875 31.59375 
Q 61.375 27 61.375 20.75 
Q 61.375 15.71875 59.25 11.390625 
Q 57.125 7.078125 54 4.734375 
Q 50.875 2.390625 46.15625 1.1875 
Q 41.453125 0 34.625 0 
z
M 16.796875 41.5 
L 32.28125 41.5 
Q 38.578125 41.5 41.3125 42.328125 
Q 44.921875 43.40625 46.75 45.890625 
Q 48.578125 48.390625 48.578125 52.15625 
Q 48.578125 55.71875 46.875 58.421875 
Q 45.171875 61.140625 41.984375 62.140625 
Q 38.8125 63.140625 31.109375 63.140625 
L 16.796875 63.140625 
z
M 16.796875 8.453125 
L 34.625 8.453125 
Q 39.203125 8.453125 41.0625 8.796875 
Q 44.34375 9.375 46.53125 10.734375 
Q 48.734375 12.109375 50.140625 14.71875 
Q 51.5625 17.328125 51.5625 20.75 
Q 51.5625 24.75 49.515625 27.703125 
Q 47.46875 30.671875 43.828125 31.859375 
Q 40.1875 33.0625 33.34375 33.0625 
L 16.796875 33.0625 
z
" id="ArialMT-66"/>
       </defs>
       <use xlink:href="#ArialMT-117"/>
       <use x="55.615234" xlink:href="#ArialMT-120"/>
       <use x="105.615234" xlink:href="#ArialMT-97"/>
       <use x="161.230469" xlink:href="#ArialMT-66"/>
      </g>
     </g>
    </g>
    <g id="ytick_13">
     <g id="line2d_18">
      <g>
       <use style="stroke:#000000;stroke-width:0.8;" x="27" xlink:href="#me7e0587b84" y="281.292632"/>
      </g>
     </g>
     <g id="text_19">
      <!-- paaZ -->
      <g transform="translate(-2.790625 284.871538)scale(0.1 -0.1)">
       <defs>
        <path d="M 2 0 
L 2 8.796875 
L 38.671875 54.640625 
Q 42.578125 59.515625 46.09375 63.140625 
L 6.15625 63.140625 
L 6.15625 71.578125 
L 57.421875 71.578125 
L 57.421875 63.140625 
L 17.234375 13.484375 
L 12.890625 8.453125 
L 58.59375 8.453125 
L 58.59375 0 
z
" id="ArialMT-90"/>
       </defs>
       <use xlink:href="#ArialMT-112"/>
       <use x="55.615234" xlink:href="#ArialMT-97"/>
       <use x="111.230469" xlink:href="#ArialMT-97"/>
       <use x="166.845703" xlink:href="#ArialMT-90"/>
      </g>
     </g>
    </g>
    <g id="ytick_14">
     <g id="line2d_19">
      <g>
       <use style="stroke:#000000;stroke-width:0.8;" x="27" xlink:href="#me7e0587b84" y="292.736842"/>
      </g>
     </g>
     <g id="text_20">
      <!-- srlD -->
      <g transform="translate(2.226562 296.315748)scale(0.1 -0.1)">
       <use xlink:href="#ArialMT-115"/>
       <use x="50" xlink:href="#ArialMT-114"/>
       <use x="83.300781" xlink:href="#ArialMT-108"/>
       <use x="105.517578" xlink:href="#ArialMT-68"/>
      </g>
     </g>
    </g>
    <g id="ytick_15">
     <g id="line2d_20">
      <g>
       <use style="stroke:#000000;stroke-width:0.8;" x="27" xlink:href="#me7e0587b84" y="304.181053"/>
      </g>
     </g>
     <g id="text_21">
      <!-- frmA -->
      <g transform="translate(-1.107813 307.759959)scale(0.1 -0.1)">
       <use xlink:href="#ArialMT-102"/>
       <use x="27.783203" xlink:href="#ArialMT-114"/>
       <use x="61.083984" xlink:href="#ArialMT-109"/>
       <use x="144.384766" xlink:href="#ArialMT-65"/>
      </g>
     </g>
    </g>
    <g id="ytick_16">
     <g id="line2d_21">
      <g>
       <use style="stroke:#000000;stroke-width:0.8;" x="27" xlink:href="#me7e0587b84" y="315.625263"/>
      </g>
     </g>
     <g id="text_22">
      <!-- proA -->
      <g transform="translate(-1.121875 319.204169)scale(0.1 -0.1)">
       <defs>
        <path d="M 3.328125 25.921875 
Q 3.328125 40.328125 11.328125 47.265625 
Q 18.015625 53.03125 27.640625 53.03125 
Q 38.328125 53.03125 45.109375 46.015625 
Q 51.90625 39.015625 51.90625 26.65625 
Q 51.90625 16.65625 48.90625 10.90625 
Q 45.90625 5.171875 40.15625 2 
Q 34.421875 -1.171875 27.640625 -1.171875 
Q 16.75 -1.171875 10.03125 5.8125 
Q 3.328125 12.796875 3.328125 25.921875 
z
M 12.359375 25.921875 
Q 12.359375 15.96875 16.703125 11.015625 
Q 21.046875 6.0625 27.640625 6.0625 
Q 34.1875 6.0625 38.53125 11.03125 
Q 42.875 16.015625 42.875 26.21875 
Q 42.875 35.84375 38.5 40.796875 
Q 34.125 45.75 27.640625 45.75 
Q 21.046875 45.75 16.703125 40.8125 
Q 12.359375 35.890625 12.359375 25.921875 
z
" id="ArialMT-111"/>
       </defs>
       <use xlink:href="#ArialMT-112"/>
       <use x="55.615234" xlink:href="#ArialMT-114"/>
       <use x="88.916016" xlink:href="#ArialMT-111"/>
       <use x="144.53125" xlink:href="#ArialMT-65"/>
      </g>
     </g>
    </g>
    <g id="ytick_17">
     <g id="line2d_22">
      <g>
       <use style="stroke:#000000;stroke-width:0.8;" x="27" xlink:href="#me7e0587b84" y="327.069474"/>
      </g>
     </g>
     <g id="text_23">
      <!-- arnA -->
      <g transform="translate(-1.121875 330.64838)scale(0.1 -0.1)">
       <use xlink:href="#ArialMT-97"/>
       <use x="55.615234" xlink:href="#ArialMT-114"/>
       <use x="88.916016" xlink:href="#ArialMT-110"/>
       <use x="144.53125" xlink:href="#ArialMT-65"/>
      </g>
     </g>
    </g>
    <g id="ytick_18">
     <g id="line2d_23">
      <g>
       <use style="stroke:#000000;stroke-width:0.8;" x="27" xlink:href="#me7e0587b84" y="338.513684"/>
      </g>
     </g>
     <g id="text_24">
      <!-- yihU -->
      <g transform="translate(-0.004688 342.09259)scale(0.1 -0.1)">
       <defs>
        <path d="M 6.203125 -19.96875 
L 5.21875 -11.71875 
Q 8.109375 -12.5 10.25 -12.5 
Q 13.1875 -12.5 14.9375 -11.515625 
Q 16.703125 -10.546875 17.828125 -8.796875 
Q 18.65625 -7.46875 20.515625 -2.25 
Q 20.75 -1.515625 21.296875 -0.09375 
L 1.609375 51.859375 
L 11.078125 51.859375 
L 21.875 21.828125 
Q 23.96875 16.109375 25.640625 9.8125 
Q 27.15625 15.875 29.25 21.625 
L 40.328125 51.859375 
L 49.125 51.859375 
L 29.390625 -0.875 
Q 26.21875 -9.421875 24.46875 -12.640625 
Q 22.125 -17 19.09375 -19.015625 
Q 16.0625 -21.046875 11.859375 -21.046875 
Q 9.328125 -21.046875 6.203125 -19.96875 
z
" id="ArialMT-121"/>
        <path d="M 54.6875 71.578125 
L 64.15625 71.578125 
L 64.15625 30.21875 
Q 64.15625 19.4375 61.71875 13.078125 
Q 59.28125 6.734375 52.90625 2.75 
Q 46.53125 -1.21875 36.1875 -1.21875 
Q 26.125 -1.21875 19.71875 2.25 
Q 13.328125 5.71875 10.59375 12.28125 
Q 7.859375 18.84375 7.859375 30.21875 
L 7.859375 71.578125 
L 17.328125 71.578125 
L 17.328125 30.28125 
Q 17.328125 20.953125 19.0625 16.53125 
Q 20.796875 12.109375 25.015625 9.71875 
Q 29.25 7.328125 35.359375 7.328125 
Q 45.796875 7.328125 50.234375 12.0625 
Q 54.6875 16.796875 54.6875 30.28125 
z
" id="ArialMT-85"/>
       </defs>
       <use xlink:href="#ArialMT-121"/>
       <use x="50" xlink:href="#ArialMT-105"/>
       <use x="72.216797" xlink:href="#ArialMT-104"/>
       <use x="127.832031" xlink:href="#ArialMT-85"/>
      </g>
     </g>
    </g>
    <g id="ytick_19">
     <g id="line2d_24">
      <g>
       <use style="stroke:#000000;stroke-width:0.8;" x="27" xlink:href="#me7e0587b84" y="349.957895"/>
      </g>
     </g>
     <g id="text_25">
      <!-- patD -->
      <g transform="translate(-1.121875 353.536801)scale(0.1 -0.1)">
       <use xlink:href="#ArialMT-112"/>
       <use x="55.615234" xlink:href="#ArialMT-97"/>
       <use x="111.230469" xlink:href="#ArialMT-116"/>
       <use x="139.013672" xlink:href="#ArialMT-68"/>
      </g>
     </g>
    </g>
    <g id="ytick_20">
     <g id="line2d_25">
      <g>
       <use style="stroke:#000000;stroke-width:0.8;" x="27" xlink:href="#me7e0587b84" y="361.402105"/>
      </g>
     </g>
     <g id="text_26">
      <!-- xdhB -->
      <g transform="translate(-2.792188 364.981012)scale(0.1 -0.1)">
       <use xlink:href="#ArialMT-120"/>
       <use x="50" xlink:href="#ArialMT-100"/>
       <use x="105.615234" xlink:href="#ArialMT-104"/>
       <use x="161.230469" xlink:href="#ArialMT-66"/>
      </g>
     </g>
    </g>
    <g id="ytick_21">
     <g id="line2d_26">
      <g>
       <use style="stroke:#000000;stroke-width:0.8;" x="27" xlink:href="#me7e0587b84" y="372.846316"/>
      </g>
     </g>
     <g id="text_27">
      <!-- yiaK -->
      <g transform="translate(0.546875 376.425222)scale(0.1 -0.1)">
       <defs>
        <path d="M 7.328125 0 
L 7.328125 71.578125 
L 16.796875 71.578125 
L 16.796875 36.078125 
L 52.34375 71.578125 
L 65.1875 71.578125 
L 35.15625 42.578125 
L 66.5 0 
L 54 0 
L 28.515625 36.234375 
L 16.796875 24.8125 
L 16.796875 0 
z
" id="ArialMT-75"/>
       </defs>
       <use xlink:href="#ArialMT-121"/>
       <use x="50" xlink:href="#ArialMT-105"/>
       <use x="72.216797" xlink:href="#ArialMT-97"/>
       <use x="127.832031" xlink:href="#ArialMT-75"/>
      </g>
     </g>
    </g>
    <g id="ytick_22">
     <g id="line2d_27">
      <g>
       <use style="stroke:#000000;stroke-width:0.8;" x="27" xlink:href="#me7e0587b84" y="384.290526"/>
      </g>
     </g>
     <g id="text_28">
      <!-- wecC -->
      <g transform="translate(-5.004688 387.869433)scale(0.1 -0.1)">
       <defs>
        <path d="M 58.796875 25.09375 
L 68.265625 22.703125 
Q 65.28125 11.03125 57.546875 4.90625 
Q 49.8125 -1.21875 38.625 -1.21875 
Q 27.046875 -1.21875 19.796875 3.484375 
Q 12.546875 8.203125 8.765625 17.140625 
Q 4.984375 26.078125 4.984375 36.328125 
Q 4.984375 47.515625 9.25 55.828125 
Q 13.53125 64.15625 21.40625 68.46875 
Q 29.296875 72.796875 38.765625 72.796875 
Q 49.515625 72.796875 56.828125 67.328125 
Q 64.15625 61.859375 67.046875 51.953125 
L 57.71875 49.75 
Q 55.21875 57.5625 50.484375 61.125 
Q 45.75 64.703125 38.578125 64.703125 
Q 30.328125 64.703125 24.78125 60.734375 
Q 19.234375 56.78125 16.984375 50.109375 
Q 14.75 43.453125 14.75 36.375 
Q 14.75 27.25 17.40625 20.4375 
Q 20.0625 13.625 25.671875 10.25 
Q 31.296875 6.890625 37.84375 6.890625 
Q 45.796875 6.890625 51.3125 11.46875 
Q 56.84375 16.0625 58.796875 25.09375 
z
" id="ArialMT-67"/>
       </defs>
       <use xlink:href="#ArialMT-119"/>
       <use x="72.216797" xlink:href="#ArialMT-101"/>
       <use x="127.832031" xlink:href="#ArialMT-99"/>
       <use x="177.832031" xlink:href="#ArialMT-67"/>
      </g>
     </g>
    </g>
    <g id="ytick_23">
     <g id="line2d_28">
      <g>
       <use style="stroke:#000000;stroke-width:0.8;" x="27" xlink:href="#me7e0587b84" y="395.734737"/>
      </g>
     </g>
     <g id="text_29">
      <!-- ugd -->
      <g transform="translate(3.317187 399.313643)scale(0.1 -0.1)">
       <use xlink:href="#ArialMT-117"/>
       <use x="55.615234" xlink:href="#ArialMT-103"/>
       <use x="111.230469" xlink:href="#ArialMT-100"/>
      </g>
     </g>
    </g>
    <g id="ytick_24">
     <g id="line2d_29">
      <g>
       <use style="stroke:#000000;stroke-width:0.8;" x="27" xlink:href="#me7e0587b84" y="407.178947"/>
      </g>
     </g>
     <g id="text_30">
      <!-- cysJ -->
      <g transform="translate(0 410.757854)scale(0.1 -0.1)">
       <defs>
        <path d="M 2.875 20.3125 
L 11.421875 21.484375 
Q 11.765625 13.28125 14.5 10.25 
Q 17.234375 7.234375 22.078125 7.234375 
Q 25.640625 7.234375 28.21875 8.859375 
Q 30.8125 10.5 31.78125 13.296875 
Q 32.765625 16.109375 32.765625 22.265625 
L 32.765625 71.578125 
L 42.234375 71.578125 
L 42.234375 22.796875 
Q 42.234375 13.8125 40.0625 8.875 
Q 37.890625 3.953125 33.171875 1.359375 
Q 28.46875 -1.21875 22.125 -1.21875 
Q 12.703125 -1.21875 7.6875 4.203125 
Q 2.6875 9.625 2.875 20.3125 
z
" id="ArialMT-74"/>
       </defs>
       <use xlink:href="#ArialMT-99"/>
       <use x="50" xlink:href="#ArialMT-121"/>
       <use x="100" xlink:href="#ArialMT-115"/>
       <use x="150" xlink:href="#ArialMT-74"/>
      </g>
     </g>
    </g>
    <g id="ytick_25">
     <g id="line2d_30">
      <g>
       <use style="stroke:#000000;stroke-width:0.8;" x="27" xlink:href="#me7e0587b84" y="418.623158"/>
      </g>
     </g>
     <g id="text_31">
      <!-- ydiB -->
      <g transform="translate(0.546875 422.202064)scale(0.1 -0.1)">
       <use xlink:href="#ArialMT-121"/>
       <use x="50" xlink:href="#ArialMT-100"/>
       <use x="105.615234" xlink:href="#ArialMT-105"/>
       <use x="127.832031" xlink:href="#ArialMT-66"/>
      </g>
     </g>
    </g>
    <g id="ytick_26">
     <g id="line2d_31">
      <g>
       <use style="stroke:#000000;stroke-width:0.8;" x="27" xlink:href="#me7e0587b84" y="430.067368"/>
      </g>
     </g>
     <g id="text_32">
      <!-- dmlA -->
      <g transform="translate(-2.782813 433.646275)scale(0.1 -0.1)">
       <use xlink:href="#ArialMT-100"/>
       <use x="55.615234" xlink:href="#ArialMT-109"/>
       <use x="138.916016" xlink:href="#ArialMT-108"/>
       <use x="161.132812" xlink:href="#ArialMT-65"/>
      </g>
     </g>
    </g>
    <g id="ytick_27">
     <g id="line2d_32">
      <g>
       <use style="stroke:#000000;stroke-width:0.8;" x="27" xlink:href="#me7e0587b84" y="441.511579"/>
      </g>
     </g>
     <g id="text_33">
      <!-- allD -->
      <g transform="translate(2.773438 445.090485)scale(0.1 -0.1)">
       <use xlink:href="#ArialMT-97"/>
       <use x="55.615234" xlink:href="#ArialMT-108"/>
       <use x="77.832031" xlink:href="#ArialMT-108"/>
       <use x="100.048828" xlink:href="#ArialMT-68"/>
      </g>
     </g>
    </g>
    <g id="ytick_28">
     <g id="line2d_33">
      <g>
       <use style="stroke:#000000;stroke-width:0.8;" x="27" xlink:href="#me7e0587b84" y="452.955789"/>
      </g>
     </g>
     <g id="text_34">
      <!-- wcaG -->
      <g transform="translate(-5.560938 456.534696)scale(0.1 -0.1)">
       <defs>
        <path d="M 41.21875 28.078125 
L 41.21875 36.46875 
L 71.53125 36.53125 
L 71.53125 9.96875 
Q 64.546875 4.390625 57.125 1.578125 
Q 49.703125 -1.21875 41.890625 -1.21875 
Q 31.34375 -1.21875 22.71875 3.296875 
Q 14.109375 7.8125 9.71875 16.359375 
Q 5.328125 24.90625 5.328125 35.453125 
Q 5.328125 45.90625 9.6875 54.953125 
Q 14.0625 64.015625 22.265625 68.40625 
Q 30.46875 72.796875 41.15625 72.796875 
Q 48.921875 72.796875 55.1875 70.28125 
Q 61.46875 67.78125 65.03125 63.28125 
Q 68.609375 58.796875 70.453125 51.5625 
L 61.921875 49.21875 
Q 60.296875 54.6875 57.90625 57.8125 
Q 55.515625 60.9375 51.0625 62.8125 
Q 46.625 64.703125 41.21875 64.703125 
Q 34.71875 64.703125 29.984375 62.71875 
Q 25.25 60.75 22.34375 57.515625 
Q 19.4375 54.296875 17.828125 50.4375 
Q 15.09375 43.796875 15.09375 36.03125 
Q 15.09375 26.46875 18.390625 20.015625 
Q 21.6875 13.578125 27.984375 10.453125 
Q 34.28125 7.328125 41.359375 7.328125 
Q 47.515625 7.328125 53.375 9.6875 
Q 59.234375 12.0625 62.25 14.75 
L 62.25 28.078125 
z
" id="ArialMT-71"/>
       </defs>
       <use xlink:href="#ArialMT-119"/>
       <use x="72.216797" xlink:href="#ArialMT-99"/>
       <use x="122.216797" xlink:href="#ArialMT-97"/>
       <use x="177.832031" xlink:href="#ArialMT-71"/>
      </g>
     </g>
    </g>
    <g id="ytick_29">
     <g id="line2d_34">
      <g>
       <use style="stroke:#000000;stroke-width:0.8;" x="27" xlink:href="#me7e0587b84" y="464.4"/>
      </g>
     </g>
     <g id="text_35">
      <!-- mtlD -->
      <g transform="translate(-0.551563 467.978906)scale(0.1 -0.1)">
       <use xlink:href="#ArialMT-109"/>
       <use x="83.300781" xlink:href="#ArialMT-116"/>
       <use x="111.083984" xlink:href="#ArialMT-108"/>
       <use x="133.300781" xlink:href="#ArialMT-68"/>
      </g>
     </g>
    </g>
    <g id="ytick_30">
     <g id="line2d_35">
      <g>
       <use style="stroke:#000000;stroke-width:0.8;" x="27" xlink:href="#me7e0587b84" y="475.844211"/>
      </g>
     </g>
     <g id="text_36">
      <!-- feaB -->
      <g transform="translate(-0.570312 479.423117)scale(0.1 -0.1)">
       <use xlink:href="#ArialMT-102"/>
       <use x="27.783203" xlink:href="#ArialMT-101"/>
       <use x="83.398438" xlink:href="#ArialMT-97"/>
       <use x="139.013672" xlink:href="#ArialMT-66"/>
      </g>
     </g>
    </g>
    <g id="ytick_31">
     <g id="line2d_36">
      <g>
       <use style="stroke:#000000;stroke-width:0.8;" x="27" xlink:href="#me7e0587b84" y="487.288421"/>
      </g>
     </g>
     <g id="text_37">
      <!-- uxuB -->
      <g transform="translate(-2.792188 490.867327)scale(0.1 -0.1)">
       <use xlink:href="#ArialMT-117"/>
       <use x="55.615234" xlink:href="#ArialMT-120"/>
       <use x="105.615234" xlink:href="#ArialMT-117"/>
       <use x="161.230469" xlink:href="#ArialMT-66"/>
      </g>
     </g>
    </g>
    <g id="ytick_32">
     <g id="line2d_37">
      <g>
       <use style="stroke:#000000;stroke-width:0.8;" x="27" xlink:href="#me7e0587b84" y="498.732632"/>
      </g>
     </g>
     <g id="text_38">
      <!-- pdxA -->
      <g transform="translate(-2.792188 502.311538)scale(0.1 -0.1)">
       <use xlink:href="#ArialMT-112"/>
       <use x="55.615234" xlink:href="#ArialMT-100"/>
       <use x="111.230469" xlink:href="#ArialMT-120"/>
       <use x="161.230469" xlink:href="#ArialMT-65"/>
      </g>
     </g>
    </g>
    <g id="ytick_33">
     <g id="line2d_38">
      <g>
       <use style="stroke:#000000;stroke-width:0.8;" x="27" xlink:href="#me7e0587b84" y="510.176842"/>
      </g>
     </g>
     <g id="text_39">
      <!-- cysG -->
      <g transform="translate(-2.778125 513.816686)scale(0.1 -0.1)">
       <use xlink:href="#ArialMT-99"/>
       <use x="50" xlink:href="#ArialMT-121"/>
       <use x="100" xlink:href="#ArialMT-115"/>
       <use x="150" xlink:href="#ArialMT-71"/>
      </g>
     </g>
    </g>
    <g id="ytick_34">
     <g id="line2d_39">
      <g>
       <use style="stroke:#000000;stroke-width:0.8;" x="27" xlink:href="#me7e0587b84" y="521.621053"/>
      </g>
     </g>
     <g id="text_40">
      <!-- ribD -->
      <g transform="translate(1.665625 525.199959)scale(0.1 -0.1)">
       <defs>
        <path d="M 14.703125 0 
L 6.546875 0 
L 6.546875 71.578125 
L 15.328125 71.578125 
L 15.328125 46.046875 
Q 20.90625 53.03125 29.546875 53.03125 
Q 34.328125 53.03125 38.59375 51.09375 
Q 42.875 49.171875 45.625 45.671875 
Q 48.390625 42.1875 49.953125 37.25 
Q 51.515625 32.328125 51.515625 26.703125 
Q 51.515625 13.375 44.921875 6.09375 
Q 38.328125 -1.171875 29.109375 -1.171875 
Q 19.921875 -1.171875 14.703125 6.5 
z
M 14.59375 26.3125 
Q 14.59375 17 17.140625 12.84375 
Q 21.296875 6.0625 28.375 6.0625 
Q 34.125 6.0625 38.328125 11.0625 
Q 42.53125 16.0625 42.53125 25.984375 
Q 42.53125 36.140625 38.5 40.96875 
Q 34.46875 45.796875 28.765625 45.796875 
Q 23 45.796875 18.796875 40.796875 
Q 14.59375 35.796875 14.59375 26.3125 
z
" id="ArialMT-98"/>
       </defs>
       <use xlink:href="#ArialMT-114"/>
       <use x="33.300781" xlink:href="#ArialMT-105"/>
       <use x="55.517578" xlink:href="#ArialMT-98"/>
       <use x="111.132812" xlink:href="#ArialMT-68"/>
      </g>
     </g>
    </g>
    <g id="ytick_35">
     <g id="line2d_40">
      <g>
       <use style="stroke:#000000;stroke-width:0.8;" x="27" xlink:href="#me7e0587b84" y="533.065263"/>
      </g>
     </g>
     <g id="text_41">
      <!-- entA -->
      <g transform="translate(-0.570312 536.644169)scale(0.1 -0.1)">
       <use xlink:href="#ArialMT-101"/>
       <use x="55.615234" xlink:href="#ArialMT-110"/>
       <use x="111.230469" xlink:href="#ArialMT-116"/>
       <use x="139.013672" xlink:href="#ArialMT-65"/>
      </g>
     </g>
    </g>
    <g id="ytick_36">
     <g id="line2d_41">
      <g>
       <use style="stroke:#000000;stroke-width:0.8;" x="27" xlink:href="#me7e0587b84" y="544.509474"/>
      </g>
     </g>
     <g id="text_42">
      <!-- pdxB -->
      <g transform="translate(-2.792188 548.08838)scale(0.1 -0.1)">
       <use xlink:href="#ArialMT-112"/>
       <use x="55.615234" xlink:href="#ArialMT-100"/>
       <use x="111.230469" xlink:href="#ArialMT-120"/>
       <use x="161.230469" xlink:href="#ArialMT-66"/>
      </g>
     </g>
    </g>
    <g id="ytick_37">
     <g id="line2d_42">
      <g>
       <use style="stroke:#000000;stroke-width:0.8;" x="27" xlink:href="#me7e0587b84" y="555.953684"/>
      </g>
     </g>
     <g id="text_43">
      <!-- aldA -->
      <g transform="translate(-0.014063 559.53259)scale(0.1 -0.1)">
       <use xlink:href="#ArialMT-97"/>
       <use x="55.615234" xlink:href="#ArialMT-108"/>
       <use x="77.832031" xlink:href="#ArialMT-100"/>
       <use x="133.447266" xlink:href="#ArialMT-65"/>
      </g>
     </g>
    </g>
    <g id="ytick_38">
     <g id="line2d_43">
      <g>
       <use style="stroke:#000000;stroke-width:0.8;" x="27" xlink:href="#me7e0587b84" y="567.397895"/>
      </g>
     </g>
     <g id="text_44">
      <!-- preT -->
      <g transform="translate(-0.559375 570.976801)scale(0.1 -0.1)">
       <defs>
        <path d="M 25.921875 0 
L 25.921875 63.140625 
L 2.34375 63.140625 
L 2.34375 71.578125 
L 59.078125 71.578125 
L 59.078125 63.140625 
L 35.40625 63.140625 
L 35.40625 0 
z
" id="ArialMT-84"/>
       </defs>
       <use xlink:href="#ArialMT-112"/>
       <use x="55.615234" xlink:href="#ArialMT-114"/>
       <use x="88.916016" xlink:href="#ArialMT-101"/>
       <use x="144.53125" xlink:href="#ArialMT-84"/>
      </g>
     </g>
    </g>
    <g id="ytick_39">
     <g id="line2d_44">
      <g>
       <use style="stroke:#000000;stroke-width:0.8;" x="27" xlink:href="#me7e0587b84" y="578.842105"/>
      </g>
     </g>
     <g id="text_45">
      <!-- hcaB -->
      <g transform="translate(-2.792188 582.421012)scale(0.1 -0.1)">
       <use xlink:href="#ArialMT-104"/>
       <use x="55.615234" xlink:href="#ArialMT-99"/>
       <use x="105.615234" xlink:href="#ArialMT-97"/>
       <use x="161.230469" xlink:href="#ArialMT-66"/>
      </g>
     </g>
    </g>
    <g id="ytick_40">
     <g id="line2d_45">
      <g>
       <use style="stroke:#000000;stroke-width:0.8;" x="27" xlink:href="#me7e0587b84" y="590.286316"/>
      </g>
     </g>
     <g id="text_46">
      <!-- paaH -->
      <g transform="translate(-3.904688 593.865222)scale(0.1 -0.1)">
       <defs>
        <path d="M 8.015625 0 
L 8.015625 71.578125 
L 17.484375 71.578125 
L 17.484375 42.1875 
L 54.6875 42.1875 
L 54.6875 71.578125 
L 64.15625 71.578125 
L 64.15625 0 
L 54.6875 0 
L 54.6875 33.734375 
L 17.484375 33.734375 
L 17.484375 0 
z
" id="ArialMT-72"/>
       </defs>
       <use xlink:href="#ArialMT-112"/>
       <use x="55.615234" xlink:href="#ArialMT-97"/>
       <use x="111.230469" xlink:href="#ArialMT-97"/>
       <use x="166.845703" xlink:href="#ArialMT-72"/>
      </g>
     </g>
    </g>
    <g id="ytick_41">
     <g id="line2d_46">
      <g>
       <use style="stroke:#000000;stroke-width:0.8;" x="27" xlink:href="#me7e0587b84" y="601.730526"/>
      </g>
     </g>
     <g id="text_47">
      <!-- ydfG -->
      <g transform="translate(-1.117188 605.37037)scale(0.1 -0.1)">
       <use xlink:href="#ArialMT-121"/>
       <use x="50" xlink:href="#ArialMT-100"/>
       <use x="105.615234" xlink:href="#ArialMT-102"/>
       <use x="133.398438" xlink:href="#ArialMT-71"/>
      </g>
     </g>
    </g>
    <g id="ytick_42">
     <g id="line2d_47">
      <g>
       <use style="stroke:#000000;stroke-width:0.8;" x="27" xlink:href="#me7e0587b84" y="613.174737"/>
      </g>
     </g>
     <g id="text_48">
      <!-- astD -->
      <g transform="translate(-0.560938 616.753643)scale(0.1 -0.1)">
       <use xlink:href="#ArialMT-97"/>
       <use x="55.615234" xlink:href="#ArialMT-115"/>
       <use x="105.615234" xlink:href="#ArialMT-116"/>
       <use x="133.398438" xlink:href="#ArialMT-68"/>
      </g>
     </g>
    </g>
    <g id="ytick_43">
     <g id="line2d_48">
      <g>
       <use style="stroke:#000000;stroke-width:0.8;" x="27" xlink:href="#me7e0587b84" y="624.618947"/>
      </g>
     </g>
     <g id="text_49">
      <!-- lgoD -->
      <g transform="translate(-0.565625 628.197854)scale(0.1 -0.1)">
       <use xlink:href="#ArialMT-108"/>
       <use x="22.216797" xlink:href="#ArialMT-103"/>
       <use x="77.832031" xlink:href="#ArialMT-111"/>
       <use x="133.447266" xlink:href="#ArialMT-68"/>
      </g>
     </g>
    </g>
    <g id="ytick_44">
     <g id="line2d_49">
      <g>
       <use style="stroke:#000000;stroke-width:0.8;" x="27" xlink:href="#me7e0587b84" y="636.063158"/>
      </g>
     </g>
     <g id="text_50">
      <!-- sad -->
      <g transform="translate(3.878125 639.642064)scale(0.1 -0.1)">
       <use xlink:href="#ArialMT-115"/>
       <use x="50" xlink:href="#ArialMT-97"/>
       <use x="105.615234" xlink:href="#ArialMT-100"/>
      </g>
     </g>
    </g>
    <g id="ytick_45">
     <g id="line2d_50">
      <g>
       <use style="stroke:#000000;stroke-width:0.8;" x="27" xlink:href="#me7e0587b84" y="647.507368"/>
      </g>
     </g>
     <g id="text_51">
      <!-- fucO -->
      <g transform="translate(-1.117188 651.086275)scale(0.1 -0.1)">
       <defs>
        <path d="M 4.828125 34.859375 
Q 4.828125 52.6875 14.390625 62.765625 
Q 23.96875 72.859375 39.109375 72.859375 
Q 49.03125 72.859375 56.984375 68.109375 
Q 64.9375 63.375 69.109375 54.90625 
Q 73.296875 46.4375 73.296875 35.6875 
Q 73.296875 24.8125 68.890625 16.21875 
Q 64.5 7.625 56.4375 3.203125 
Q 48.390625 -1.21875 39.0625 -1.21875 
Q 28.953125 -1.21875 20.984375 3.65625 
Q 13.03125 8.546875 8.921875 16.984375 
Q 4.828125 25.4375 4.828125 34.859375 
z
M 14.59375 34.71875 
Q 14.59375 21.78125 21.546875 14.328125 
Q 28.515625 6.890625 39.015625 6.890625 
Q 49.703125 6.890625 56.609375 14.40625 
Q 63.53125 21.921875 63.53125 35.75 
Q 63.53125 44.484375 60.578125 51 
Q 57.625 57.515625 51.921875 61.109375 
Q 46.234375 64.703125 39.15625 64.703125 
Q 29.109375 64.703125 21.84375 57.78125 
Q 14.59375 50.875 14.59375 34.71875 
z
" id="ArialMT-79"/>
       </defs>
       <use xlink:href="#ArialMT-102"/>
       <use x="27.783203" xlink:href="#ArialMT-117"/>
       <use x="83.398438" xlink:href="#ArialMT-99"/>
       <use x="133.398438" xlink:href="#ArialMT-79"/>
      </g>
     </g>
    </g>
    <g id="ytick_46">
     <g id="line2d_51">
      <g>
       <use style="stroke:#000000;stroke-width:0.8;" x="27" xlink:href="#me7e0587b84" y="658.951579"/>
      </g>
     </g>
     <g id="text_52">
      <!-- rfbD -->
      <g transform="translate(1.109375 662.530485)scale(0.1 -0.1)">
       <use xlink:href="#ArialMT-114"/>
       <use x="33.300781" xlink:href="#ArialMT-102"/>
       <use x="61.083984" xlink:href="#ArialMT-98"/>
       <use x="116.699219" xlink:href="#ArialMT-68"/>
      </g>
     </g>
    </g>
    <g id="ytick_47">
     <g id="line2d_52">
      <g>
       <use style="stroke:#000000;stroke-width:0.8;" x="27" xlink:href="#me7e0587b84" y="670.395789"/>
      </g>
     </g>
     <g id="text_53">
      <!-- dxr -->
      <g transform="translate(6.109375 673.974696)scale(0.1 -0.1)">
       <use xlink:href="#ArialMT-100"/>
       <use x="55.615234" xlink:href="#ArialMT-120"/>
       <use x="105.615234" xlink:href="#ArialMT-114"/>
      </g>
     </g>
    </g>
    <g id="ytick_48">
     <g id="line2d_53">
      <g>
       <use style="stroke:#000000;stroke-width:0.8;" x="27" xlink:href="#me7e0587b84" y="681.84"/>
      </g>
     </g>
     <g id="text_54">
      <!-- murB -->
      <g transform="translate(-3.890625 685.418906)scale(0.1 -0.1)">
       <use xlink:href="#ArialMT-109"/>
       <use x="83.300781" xlink:href="#ArialMT-117"/>
       <use x="138.916016" xlink:href="#ArialMT-114"/>
       <use x="172.216797" xlink:href="#ArialMT-66"/>
      </g>
     </g>
    </g>
    <g id="ytick_49">
     <g id="line2d_54">
      <g>
       <use style="stroke:#000000;stroke-width:0.8;" x="27" xlink:href="#me7e0587b84" y="693.284211"/>
      </g>
     </g>
     <g id="text_55">
      <!-- tyrA -->
      <g transform="translate(2.221875 696.863117)scale(0.1 -0.1)">
       <use xlink:href="#ArialMT-116"/>
       <use x="27.783203" xlink:href="#ArialMT-121"/>
       <use x="77.783203" xlink:href="#ArialMT-114"/>
       <use x="111.083984" xlink:href="#ArialMT-65"/>
      </g>
     </g>
    </g>
    <g id="ytick_50">
     <g id="line2d_55">
      <g>
       <use style="stroke:#000000;stroke-width:0.8;" x="27" xlink:href="#me7e0587b84" y="704.728421"/>
      </g>
     </g>
     <g id="text_56">
      <!-- hisD -->
      <g transform="translate(-0.004688 708.307327)scale(0.1 -0.1)">
       <use xlink:href="#ArialMT-104"/>
       <use x="55.615234" xlink:href="#ArialMT-105"/>
       <use x="77.832031" xlink:href="#ArialMT-115"/>
       <use x="127.832031" xlink:href="#ArialMT-68"/>
      </g>
     </g>
    </g>
    <g id="ytick_51">
     <g id="line2d_56">
      <g>
       <use style="stroke:#000000;stroke-width:0.8;" x="27" xlink:href="#me7e0587b84" y="716.172632"/>
      </g>
     </g>
     <g id="text_57">
      <!-- guaB -->
      <g transform="translate(-3.353125 719.751538)scale(0.1 -0.1)">
       <use xlink:href="#ArialMT-103"/>
       <use x="55.615234" xlink:href="#ArialMT-117"/>
       <use x="111.230469" xlink:href="#ArialMT-97"/>
       <use x="166.845703" xlink:href="#ArialMT-66"/>
      </g>
     </g>
    </g>
    <g id="ytick_52">
     <g id="line2d_57">
      <g>
       <use style="stroke:#000000;stroke-width:0.8;" x="27" xlink:href="#me7e0587b84" y="727.616842"/>
      </g>
     </g>
     <g id="text_58">
      <!-- trxB -->
      <g transform="translate(2.221875 731.195748)scale(0.1 -0.1)">
       <use xlink:href="#ArialMT-116"/>
       <use x="27.783203" xlink:href="#ArialMT-114"/>
       <use x="61.083984" xlink:href="#ArialMT-120"/>
       <use x="111.083984" xlink:href="#ArialMT-66"/>
      </g>
     </g>
    </g>
    <g id="ytick_53">
     <g id="line2d_58">
      <g>
       <use style="stroke:#000000;stroke-width:0.8;" x="27" xlink:href="#me7e0587b84" y="739.061053"/>
      </g>
     </g>
     <g id="text_59">
      <!-- gor -->
      <g transform="translate(5.548437 742.581365)scale(0.1 -0.1)">
       <use xlink:href="#ArialMT-103"/>
       <use x="55.615234" xlink:href="#ArialMT-111"/>
       <use x="111.230469" xlink:href="#ArialMT-114"/>
      </g>
     </g>
    </g>
    <g id="ytick_54">
     <g id="line2d_59">
      <g>
       <use style="stroke:#000000;stroke-width:0.8;" x="27" xlink:href="#me7e0587b84" y="750.505263"/>
      </g>
     </g>
     <g id="text_60">
      <!-- argC -->
      <g transform="translate(-1.673438 754.145107)scale(0.1 -0.1)">
       <use xlink:href="#ArialMT-97"/>
       <use x="55.615234" xlink:href="#ArialMT-114"/>
       <use x="88.916016" xlink:href="#ArialMT-103"/>
       <use x="144.53125" xlink:href="#ArialMT-67"/>
      </g>
     </g>
    </g>
    <g id="ytick_55">
     <g id="line2d_60">
      <g>
       <use style="stroke:#000000;stroke-width:0.8;" x="27" xlink:href="#me7e0587b84" y="761.949474"/>
      </g>
     </g>
     <g id="text_61">
      <!-- dapB -->
      <g transform="translate(-3.353125 765.52838)scale(0.1 -0.1)">
       <use xlink:href="#ArialMT-100"/>
       <use x="55.615234" xlink:href="#ArialMT-97"/>
       <use x="111.230469" xlink:href="#ArialMT-112"/>
       <use x="166.845703" xlink:href="#ArialMT-66"/>
      </g>
     </g>
    </g>
    <g id="ytick_56">
     <g id="line2d_61">
      <g>
       <use style="stroke:#000000;stroke-width:0.8;" x="27" xlink:href="#me7e0587b84" y="773.393684"/>
      </g>
     </g>
     <g id="text_62">
      <!-- leuB -->
      <g transform="translate(-0.014063 776.97259)scale(0.1 -0.1)">
       <use xlink:href="#ArialMT-108"/>
       <use x="22.216797" xlink:href="#ArialMT-101"/>
       <use x="77.832031" xlink:href="#ArialMT-117"/>
       <use x="133.447266" xlink:href="#ArialMT-66"/>
      </g>
     </g>
    </g>
    <g id="ytick_57">
     <g id="line2d_62">
      <g>
       <use style="stroke:#000000;stroke-width:0.8;" x="27" xlink:href="#me7e0587b84" y="784.837895"/>
      </g>
     </g>
     <g id="text_63">
      <!-- asd -->
      <g transform="translate(3.878125 788.416801)scale(0.1 -0.1)">
       <use xlink:href="#ArialMT-97"/>
       <use x="55.615234" xlink:href="#ArialMT-115"/>
       <use x="105.615234" xlink:href="#ArialMT-100"/>
      </g>
     </g>
    </g>
    <g id="ytick_58">
     <g id="line2d_63">
      <g>
       <use style="stroke:#000000;stroke-width:0.8;" x="27" xlink:href="#me7e0587b84" y="796.282105"/>
      </g>
     </g>
     <g id="text_64">
      <!-- icd -->
      <g transform="translate(7.217187 799.861012)scale(0.1 -0.1)">
       <use xlink:href="#ArialMT-105"/>
       <use x="22.216797" xlink:href="#ArialMT-99"/>
       <use x="72.216797" xlink:href="#ArialMT-100"/>
      </g>
     </g>
    </g>
    <g id="ytick_59">
     <g id="line2d_64">
      <g>
       <use style="stroke:#000000;stroke-width:0.8;" x="27" xlink:href="#me7e0587b84" y="807.726316"/>
      </g>
     </g>
     <g id="text_65">
      <!-- maeB -->
      <g transform="translate(-6.121875 811.305222)scale(0.1 -0.1)">
       <use xlink:href="#ArialMT-109"/>
       <use x="83.300781" xlink:href="#ArialMT-97"/>
       <use x="138.916016" xlink:href="#ArialMT-101"/>
       <use x="194.53125" xlink:href="#ArialMT-66"/>
      </g>
     </g>
    </g>
    <g id="ytick_60">
     <g id="line2d_65">
      <g>
       <use style="stroke:#000000;stroke-width:0.8;" x="27" xlink:href="#me7e0587b84" y="819.170526"/>
      </g>
     </g>
     <g id="text_66">
      <!-- ilvC -->
      <g transform="translate(3.334375 822.749433)scale(0.1 -0.1)">
       <use xlink:href="#ArialMT-105"/>
       <use x="22.216797" xlink:href="#ArialMT-108"/>
       <use x="44.433594" xlink:href="#ArialMT-118"/>
       <use x="94.433594" xlink:href="#ArialMT-67"/>
      </g>
     </g>
    </g>
    <g id="ytick_61">
     <g id="line2d_66">
      <g>
       <use style="stroke:#000000;stroke-width:0.8;" x="27" xlink:href="#me7e0587b84" y="830.614737"/>
      </g>
     </g>
     <g id="text_67">
      <!-- guaC -->
      <g transform="translate(-3.904688 834.254581)scale(0.1 -0.1)">
       <use xlink:href="#ArialMT-103"/>
       <use x="55.615234" xlink:href="#ArialMT-117"/>
       <use x="111.230469" xlink:href="#ArialMT-97"/>
       <use x="166.845703" xlink:href="#ArialMT-67"/>
      </g>
     </g>
    </g>
    <g id="ytick_62">
     <g id="line2d_67">
      <g>
       <use style="stroke:#000000;stroke-width:0.8;" x="27" xlink:href="#me7e0587b84" y="842.058947"/>
      </g>
     </g>
     <g id="text_68">
      <!-- gltD -->
      <g transform="translate(2.217187 845.637854)scale(0.1 -0.1)">
       <use xlink:href="#ArialMT-103"/>
       <use x="55.615234" xlink:href="#ArialMT-108"/>
       <use x="77.832031" xlink:href="#ArialMT-116"/>
       <use x="105.615234" xlink:href="#ArialMT-68"/>
      </g>
     </g>
    </g>
    <g id="ytick_63">
     <g id="line2d_68">
      <g>
       <use style="stroke:#000000;stroke-width:0.8;" x="27" xlink:href="#me7e0587b84" y="853.503158"/>
      </g>
     </g>
     <g id="text_69">
      <!-- serA -->
      <g transform="translate(-0.560938 857.082064)scale(0.1 -0.1)">
       <use xlink:href="#ArialMT-115"/>
       <use x="50" xlink:href="#ArialMT-101"/>
       <use x="105.615234" xlink:href="#ArialMT-114"/>
       <use x="138.916016" xlink:href="#ArialMT-65"/>
      </g>
     </g>
    </g>
    <g id="ytick_64">
     <g id="line2d_69">
      <g>
       <use style="stroke:#000000;stroke-width:0.8;" x="27" xlink:href="#me7e0587b84" y="864.947368"/>
      </g>
     </g>
     <g id="text_70">
      <!-- folD -->
      <g transform="translate(2.217187 868.526275)scale(0.1 -0.1)">
       <use xlink:href="#ArialMT-102"/>
       <use x="27.783203" xlink:href="#ArialMT-111"/>
       <use x="83.398438" xlink:href="#ArialMT-108"/>
       <use x="105.615234" xlink:href="#ArialMT-68"/>
      </g>
     </g>
    </g>
    <g id="ytick_65">
     <g id="line2d_70">
      <g>
       <use style="stroke:#000000;stroke-width:0.8;" x="27" xlink:href="#me7e0587b84" y="876.391579"/>
      </g>
     </g>
     <g id="text_71">
      <!-- lpd -->
      <g transform="translate(6.65625 879.970485)scale(0.1 -0.1)">
       <use xlink:href="#ArialMT-108"/>
       <use x="22.216797" xlink:href="#ArialMT-112"/>
       <use x="77.832031" xlink:href="#ArialMT-100"/>
      </g>
     </g>
    </g>
    <g id="ytick_66">
     <g id="line2d_71">
      <g>
       <use style="stroke:#000000;stroke-width:0.8;" x="27" xlink:href="#me7e0587b84" y="887.835789"/>
      </g>
     </g>
     <g id="text_72">
      <!-- gapA -->
      <g transform="translate(-3.353125 891.414696)scale(0.1 -0.1)">
       <use xlink:href="#ArialMT-103"/>
       <use x="55.615234" xlink:href="#ArialMT-97"/>
       <use x="111.230469" xlink:href="#ArialMT-112"/>
       <use x="166.845703" xlink:href="#ArialMT-65"/>
      </g>
     </g>
    </g>
    <g id="ytick_67">
     <g id="line2d_72">
      <g>
       <use style="stroke:#000000;stroke-width:0.8;" x="27" xlink:href="#me7e0587b84" y="899.28"/>
      </g>
     </g>
     <g id="text_73">
      <!-- puuC -->
      <g transform="translate(-3.904688 902.919844)scale(0.1 -0.1)">
       <use xlink:href="#ArialMT-112"/>
       <use x="55.615234" xlink:href="#ArialMT-117"/>
       <use x="111.230469" xlink:href="#ArialMT-117"/>
       <use x="166.845703" xlink:href="#ArialMT-67"/>
      </g>
     </g>
    </g>
    <g id="ytick_68">
     <g id="line2d_73">
      <g>
       <use style="stroke:#000000;stroke-width:0.8;" x="27" xlink:href="#me7e0587b84" y="910.724211"/>
      </g>
     </g>
     <g id="text_74">
      <!-- idnO -->
      <g transform="translate(-1.121875 914.303117)scale(0.1 -0.1)">
       <use xlink:href="#ArialMT-105"/>
       <use x="22.216797" xlink:href="#ArialMT-100"/>
       <use x="77.832031" xlink:href="#ArialMT-110"/>
       <use x="133.447266" xlink:href="#ArialMT-79"/>
      </g>
     </g>
    </g>
    <g id="ytick_69">
     <g id="line2d_74">
      <g>
       <use style="stroke:#000000;stroke-width:0.8;" x="27" xlink:href="#me7e0587b84" y="922.168421"/>
      </g>
     </g>
     <g id="text_75">
      <!-- idnD -->
      <g transform="translate(-0.565625 925.747327)scale(0.1 -0.1)">
       <use xlink:href="#ArialMT-105"/>
       <use x="22.216797" xlink:href="#ArialMT-100"/>
       <use x="77.832031" xlink:href="#ArialMT-110"/>
       <use x="133.447266" xlink:href="#ArialMT-68"/>
      </g>
     </g>
    </g>
    <g id="ytick_70">
     <g id="line2d_75">
      <g>
       <use style="stroke:#000000;stroke-width:0.8;" x="27" xlink:href="#me7e0587b84" y="933.612632"/>
      </g>
     </g>
     <g id="text_76">
      <!-- mdh -->
      <g transform="translate(0.548437 937.191538)scale(0.1 -0.1)">
       <use xlink:href="#ArialMT-109"/>
       <use x="83.300781" xlink:href="#ArialMT-100"/>
       <use x="138.916016" xlink:href="#ArialMT-104"/>
      </g>
     </g>
    </g>
    <g id="ytick_71">
     <g id="line2d_76">
      <g>
       <use style="stroke:#000000;stroke-width:0.8;" x="27" xlink:href="#me7e0587b84" y="945.056842"/>
      </g>
     </g>
     <g id="text_77">
      <!-- gldA -->
      <g transform="translate(-0.014063 948.635748)scale(0.1 -0.1)">
       <use xlink:href="#ArialMT-103"/>
       <use x="55.615234" xlink:href="#ArialMT-108"/>
       <use x="77.832031" xlink:href="#ArialMT-100"/>
       <use x="133.447266" xlink:href="#ArialMT-65"/>
      </g>
     </g>
    </g>
    <g id="ytick_72">
     <g id="line2d_77">
      <g>
       <use style="stroke:#000000;stroke-width:0.8;" x="27" xlink:href="#me7e0587b84" y="956.501053"/>
      </g>
     </g>
     <g id="text_78">
      <!-- gdhA -->
      <g transform="translate(-3.353125 960.079959)scale(0.1 -0.1)">
       <use xlink:href="#ArialMT-103"/>
       <use x="55.615234" xlink:href="#ArialMT-100"/>
       <use x="111.230469" xlink:href="#ArialMT-104"/>
       <use x="166.845703" xlink:href="#ArialMT-65"/>
      </g>
     </g>
    </g>
    <g id="ytick_73">
     <g id="line2d_78">
      <g>
       <use style="stroke:#000000;stroke-width:0.8;" x="27" xlink:href="#me7e0587b84" y="967.945263"/>
      </g>
     </g>
     <g id="text_79">
      <!-- betB -->
      <g transform="translate(-0.570312 971.524169)scale(0.1 -0.1)">
       <use xlink:href="#ArialMT-98"/>
       <use x="55.615234" xlink:href="#ArialMT-101"/>
       <use x="111.230469" xlink:href="#ArialMT-116"/>
       <use x="139.013672" xlink:href="#ArialMT-66"/>
      </g>
     </g>
    </g>
    <g id="ytick_74">
     <g id="line2d_79">
      <g>
       <use style="stroke:#000000;stroke-width:0.8;" x="27" xlink:href="#me7e0587b84" y="979.389474"/>
      </g>
     </g>
     <g id="text_80">
      <!-- proC -->
      <g transform="translate(-1.673438 983.029317)scale(0.1 -0.1)">
       <use xlink:href="#ArialMT-112"/>
       <use x="55.615234" xlink:href="#ArialMT-114"/>
       <use x="88.916016" xlink:href="#ArialMT-111"/>
       <use x="144.53125" xlink:href="#ArialMT-67"/>
      </g>
     </g>
    </g>
    <g id="ytick_75">
     <g id="line2d_80">
      <g>
       <use style="stroke:#000000;stroke-width:0.8;" x="27" xlink:href="#me7e0587b84" y="990.833684"/>
      </g>
     </g>
     <g id="text_81">
      <!-- ghrB -->
      <g transform="translate(-1.121875 994.41259)scale(0.1 -0.1)">
       <use xlink:href="#ArialMT-103"/>
       <use x="55.615234" xlink:href="#ArialMT-104"/>
       <use x="111.230469" xlink:href="#ArialMT-114"/>
       <use x="144.53125" xlink:href="#ArialMT-66"/>
      </g>
     </g>
    </g>
    <g id="ytick_76">
     <g id="line2d_81">
      <g>
       <use style="stroke:#000000;stroke-width:0.8;" x="27" xlink:href="#me7e0587b84" y="1002.277895"/>
      </g>
     </g>
     <g id="text_82">
      <!-- nirB -->
      <g transform="translate(2.217187 1005.856801)scale(0.1 -0.1)">
       <use xlink:href="#ArialMT-110"/>
       <use x="55.615234" xlink:href="#ArialMT-105"/>
       <use x="77.832031" xlink:href="#ArialMT-114"/>
       <use x="111.132812" xlink:href="#ArialMT-66"/>
      </g>
     </g>
    </g>
    <g id="text_83">
     <!-- gene_name -->
     <g transform="translate(-12.226563 599.528594)rotate(-90)scale(0.1 -0.1)">
      <defs>
       <path d="M -1.515625 -19.875 
L -1.515625 -13.53125 
L 56.734375 -13.53125 
L 56.734375 -19.875 
z
" id="ArialMT-95"/>
      </defs>
      <use xlink:href="#ArialMT-103"/>
      <use x="55.615234" xlink:href="#ArialMT-101"/>
      <use x="111.230469" xlink:href="#ArialMT-110"/>
      <use x="166.845703" xlink:href="#ArialMT-101"/>
      <use x="222.460938" xlink:href="#ArialMT-95"/>
      <use x="278.076172" xlink:href="#ArialMT-110"/>
      <use x="333.691406" xlink:href="#ArialMT-97"/>
      <use x="389.306641" xlink:href="#ArialMT-109"/>
      <use x="472.607422" xlink:href="#ArialMT-101"/>
     </g>
    </g>
   </g>
   <g id="line2d_82">
    <path clip-path="url(#p4e4f7c83e6)" d="M 0 0 
" style="fill:none;stroke:#424242;stroke-linecap:square;stroke-width:2.7;"/>
   </g>
   <g id="line2d_83">
    <path clip-path="url(#p4e4f7c83e6)" d="M 0 0 
" style="fill:none;stroke:#424242;stroke-linecap:square;stroke-width:2.7;"/>
   </g>
   <g id="line2d_84">
    <path clip-path="url(#p4e4f7c83e6)" d="M 0 0 
" style="fill:none;stroke:#424242;stroke-linecap:square;stroke-width:2.7;"/>
   </g>
   <g id="line2d_85">
    <path clip-path="url(#p4e4f7c83e6)" d="M 0 0 
" style="fill:none;stroke:#424242;stroke-linecap:square;stroke-width:2.7;"/>
   </g>
   <g id="line2d_86">
    <path clip-path="url(#p4e4f7c83e6)" d="M 0 0 
" style="fill:none;stroke:#424242;stroke-linecap:square;stroke-width:2.7;"/>
   </g>
   <g id="line2d_87">
    <path clip-path="url(#p4e4f7c83e6)" d="M 0 0 
" style="fill:none;stroke:#424242;stroke-linecap:square;stroke-width:2.7;"/>
   </g>
   <g id="line2d_88">
    <path clip-path="url(#p4e4f7c83e6)" d="M 0 0 
" style="fill:none;stroke:#424242;stroke-linecap:square;stroke-width:2.7;"/>
   </g>
   <g id="line2d_89">
    <path clip-path="url(#p4e4f7c83e6)" d="M 0 0 
" style="fill:none;stroke:#424242;stroke-linecap:square;stroke-width:2.7;"/>
   </g>
   <g id="line2d_90">
    <path clip-path="url(#p4e4f7c83e6)" d="M 0 0 
" style="fill:none;stroke:#424242;stroke-linecap:square;stroke-width:2.7;"/>
   </g>
   <g id="line2d_91">
    <path clip-path="url(#p4e4f7c83e6)" d="M 0 0 
" style="fill:none;stroke:#424242;stroke-linecap:square;stroke-width:2.7;"/>
   </g>
   <g id="line2d_92">
    <path clip-path="url(#p4e4f7c83e6)" d="M 0 0 
" style="fill:none;stroke:#424242;stroke-linecap:square;stroke-width:2.7;"/>
   </g>
   <g id="line2d_93">
    <path clip-path="url(#p4e4f7c83e6)" d="M 0 0 
" style="fill:none;stroke:#424242;stroke-linecap:square;stroke-width:2.7;"/>
   </g>
   <g id="line2d_94">
    <path clip-path="url(#p4e4f7c83e6)" d="M 0 0 
" style="fill:none;stroke:#424242;stroke-linecap:square;stroke-width:2.7;"/>
   </g>
   <g id="line2d_95">
    <path clip-path="url(#p4e4f7c83e6)" d="M 0 0 
" style="fill:none;stroke:#424242;stroke-linecap:square;stroke-width:2.7;"/>
   </g>
   <g id="line2d_96">
    <path clip-path="url(#p4e4f7c83e6)" d="M 0 0 
" style="fill:none;stroke:#424242;stroke-linecap:square;stroke-width:2.7;"/>
   </g>
   <g id="line2d_97">
    <path clip-path="url(#p4e4f7c83e6)" d="M 0 0 
" style="fill:none;stroke:#424242;stroke-linecap:square;stroke-width:2.7;"/>
   </g>
   <g id="line2d_98">
    <path clip-path="url(#p4e4f7c83e6)" d="M 0 0 
" style="fill:none;stroke:#424242;stroke-linecap:square;stroke-width:2.7;"/>
   </g>
   <g id="line2d_99">
    <path clip-path="url(#p4e4f7c83e6)" d="M 0 0 
" style="fill:none;stroke:#424242;stroke-linecap:square;stroke-width:2.7;"/>
   </g>
   <g id="line2d_100">
    <path clip-path="url(#p4e4f7c83e6)" d="M 0 0 
" style="fill:none;stroke:#424242;stroke-linecap:square;stroke-width:2.7;"/>
   </g>
   <g id="line2d_101">
    <path clip-path="url(#p4e4f7c83e6)" d="M 0 0 
" style="fill:none;stroke:#424242;stroke-linecap:square;stroke-width:2.7;"/>
   </g>
   <g id="line2d_102">
    <path clip-path="url(#p4e4f7c83e6)" d="M 0 0 
" style="fill:none;stroke:#424242;stroke-linecap:square;stroke-width:2.7;"/>
   </g>
   <g id="line2d_103">
    <path clip-path="url(#p4e4f7c83e6)" d="M 0 0 
" style="fill:none;stroke:#424242;stroke-linecap:square;stroke-width:2.7;"/>
   </g>
   <g id="line2d_104">
    <path clip-path="url(#p4e4f7c83e6)" d="M 0 0 
" style="fill:none;stroke:#424242;stroke-linecap:square;stroke-width:2.7;"/>
   </g>
   <g id="line2d_105">
    <path clip-path="url(#p4e4f7c83e6)" d="M 0 0 
" style="fill:none;stroke:#424242;stroke-linecap:square;stroke-width:2.7;"/>
   </g>
   <g id="line2d_106">
    <path clip-path="url(#p4e4f7c83e6)" d="M 0 0 
" style="fill:none;stroke:#424242;stroke-linecap:square;stroke-width:2.7;"/>
   </g>
   <g id="line2d_107">
    <path clip-path="url(#p4e4f7c83e6)" d="M 0 0 
" style="fill:none;stroke:#424242;stroke-linecap:square;stroke-width:2.7;"/>
   </g>
   <g id="line2d_108">
    <path clip-path="url(#p4e4f7c83e6)" d="M 0 0 
" style="fill:none;stroke:#424242;stroke-linecap:square;stroke-width:2.7;"/>
   </g>
   <g id="line2d_109">
    <path clip-path="url(#p4e4f7c83e6)" d="M 0 0 
" style="fill:none;stroke:#424242;stroke-linecap:square;stroke-width:2.7;"/>
   </g>
   <g id="line2d_110">
    <path clip-path="url(#p4e4f7c83e6)" d="M 0 0 
" style="fill:none;stroke:#424242;stroke-linecap:square;stroke-width:2.7;"/>
   </g>
   <g id="line2d_111">
    <path clip-path="url(#p4e4f7c83e6)" d="M 0 0 
" style="fill:none;stroke:#424242;stroke-linecap:square;stroke-width:2.7;"/>
   </g>
   <g id="line2d_112">
    <path clip-path="url(#p4e4f7c83e6)" d="M 0 0 
" style="fill:none;stroke:#424242;stroke-linecap:square;stroke-width:2.7;"/>
   </g>
   <g id="line2d_113">
    <path clip-path="url(#p4e4f7c83e6)" d="M 0 0 
" style="fill:none;stroke:#424242;stroke-linecap:square;stroke-width:2.7;"/>
   </g>
   <g id="line2d_114">
    <path clip-path="url(#p4e4f7c83e6)" d="M 0 0 
" style="fill:none;stroke:#424242;stroke-linecap:square;stroke-width:2.7;"/>
   </g>
   <g id="line2d_115">
    <path clip-path="url(#p4e4f7c83e6)" d="M 0 0 
" style="fill:none;stroke:#424242;stroke-linecap:square;stroke-width:2.7;"/>
   </g>
   <g id="line2d_116">
    <path clip-path="url(#p4e4f7c83e6)" d="M 0 0 
" style="fill:none;stroke:#424242;stroke-linecap:square;stroke-width:2.7;"/>
   </g>
   <g id="line2d_117">
    <path clip-path="url(#p4e4f7c83e6)" d="M 0 0 
" style="fill:none;stroke:#424242;stroke-linecap:square;stroke-width:2.7;"/>
   </g>
   <g id="line2d_118">
    <path clip-path="url(#p4e4f7c83e6)" d="M 0 0 
" style="fill:none;stroke:#424242;stroke-linecap:square;stroke-width:2.7;"/>
   </g>
   <g id="line2d_119">
    <path clip-path="url(#p4e4f7c83e6)" d="M 0 0 
" style="fill:none;stroke:#424242;stroke-linecap:square;stroke-width:2.7;"/>
   </g>
   <g id="line2d_120">
    <path clip-path="url(#p4e4f7c83e6)" d="M 0 0 
" style="fill:none;stroke:#424242;stroke-linecap:square;stroke-width:2.7;"/>
   </g>
   <g id="line2d_121">
    <path clip-path="url(#p4e4f7c83e6)" d="M 0 0 
" style="fill:none;stroke:#424242;stroke-linecap:square;stroke-width:2.7;"/>
   </g>
   <g id="line2d_122">
    <path clip-path="url(#p4e4f7c83e6)" d="M 0 0 
" style="fill:none;stroke:#424242;stroke-linecap:square;stroke-width:2.7;"/>
   </g>
   <g id="line2d_123">
    <path clip-path="url(#p4e4f7c83e6)" d="M 0 0 
" style="fill:none;stroke:#424242;stroke-linecap:square;stroke-width:2.7;"/>
   </g>
   <g id="line2d_124">
    <path clip-path="url(#p4e4f7c83e6)" d="M 0 0 
" style="fill:none;stroke:#424242;stroke-linecap:square;stroke-width:2.7;"/>
   </g>
   <g id="line2d_125">
    <path clip-path="url(#p4e4f7c83e6)" d="M 0 0 
" style="fill:none;stroke:#424242;stroke-linecap:square;stroke-width:2.7;"/>
   </g>
   <g id="line2d_126">
    <path clip-path="url(#p4e4f7c83e6)" d="M 0 0 
" style="fill:none;stroke:#424242;stroke-linecap:square;stroke-width:2.7;"/>
   </g>
   <g id="line2d_127">
    <path clip-path="url(#p4e4f7c83e6)" d="M 0 0 
" style="fill:none;stroke:#424242;stroke-linecap:square;stroke-width:2.7;"/>
   </g>
   <g id="line2d_128">
    <path clip-path="url(#p4e4f7c83e6)" d="M 0 0 
" style="fill:none;stroke:#424242;stroke-linecap:square;stroke-width:2.7;"/>
   </g>
   <g id="line2d_129">
    <path clip-path="url(#p4e4f7c83e6)" d="M 0 0 
" style="fill:none;stroke:#424242;stroke-linecap:square;stroke-width:2.7;"/>
   </g>
   <g id="line2d_130">
    <path clip-path="url(#p4e4f7c83e6)" d="M 0 0 
" style="fill:none;stroke:#424242;stroke-linecap:square;stroke-width:2.7;"/>
   </g>
   <g id="line2d_131">
    <path clip-path="url(#p4e4f7c83e6)" d="M 0 0 
" style="fill:none;stroke:#424242;stroke-linecap:square;stroke-width:2.7;"/>
   </g>
   <g id="line2d_132">
    <path clip-path="url(#p4e4f7c83e6)" d="M 0 0 
" style="fill:none;stroke:#424242;stroke-linecap:square;stroke-width:2.7;"/>
   </g>
   <g id="line2d_133">
    <path clip-path="url(#p4e4f7c83e6)" d="M 0 0 
" style="fill:none;stroke:#424242;stroke-linecap:square;stroke-width:2.7;"/>
   </g>
   <g id="line2d_134">
    <path clip-path="url(#p4e4f7c83e6)" d="M 0 0 
" style="fill:none;stroke:#424242;stroke-linecap:square;stroke-width:2.7;"/>
   </g>
   <g id="line2d_135">
    <path clip-path="url(#p4e4f7c83e6)" d="M 0 0 
" style="fill:none;stroke:#424242;stroke-linecap:square;stroke-width:2.7;"/>
   </g>
   <g id="line2d_136">
    <path clip-path="url(#p4e4f7c83e6)" d="M 0 0 
" style="fill:none;stroke:#424242;stroke-linecap:square;stroke-width:2.7;"/>
   </g>
   <g id="line2d_137">
    <path clip-path="url(#p4e4f7c83e6)" d="M 0 0 
" style="fill:none;stroke:#424242;stroke-linecap:square;stroke-width:2.7;"/>
   </g>
   <g id="line2d_138">
    <path clip-path="url(#p4e4f7c83e6)" d="M 0 0 
" style="fill:none;stroke:#424242;stroke-linecap:square;stroke-width:2.7;"/>
   </g>
   <g id="line2d_139">
    <path clip-path="url(#p4e4f7c83e6)" d="M 0 0 
" style="fill:none;stroke:#424242;stroke-linecap:square;stroke-width:2.7;"/>
   </g>
   <g id="line2d_140">
    <path clip-path="url(#p4e4f7c83e6)" d="M 0 0 
" style="fill:none;stroke:#424242;stroke-linecap:square;stroke-width:2.7;"/>
   </g>
   <g id="line2d_141">
    <path clip-path="url(#p4e4f7c83e6)" d="M 0 0 
" style="fill:none;stroke:#424242;stroke-linecap:square;stroke-width:2.7;"/>
   </g>
   <g id="line2d_142">
    <path clip-path="url(#p4e4f7c83e6)" d="M 0 0 
" style="fill:none;stroke:#424242;stroke-linecap:square;stroke-width:2.7;"/>
   </g>
   <g id="line2d_143">
    <path clip-path="url(#p4e4f7c83e6)" d="M 0 0 
" style="fill:none;stroke:#424242;stroke-linecap:square;stroke-width:2.7;"/>
   </g>
   <g id="line2d_144">
    <path clip-path="url(#p4e4f7c83e6)" d="M 0 0 
" style="fill:none;stroke:#424242;stroke-linecap:square;stroke-width:2.7;"/>
   </g>
   <g id="line2d_145">
    <path clip-path="url(#p4e4f7c83e6)" d="M 0 0 
" style="fill:none;stroke:#424242;stroke-linecap:square;stroke-width:2.7;"/>
   </g>
   <g id="line2d_146">
    <path clip-path="url(#p4e4f7c83e6)" d="M 0 0 
" style="fill:none;stroke:#424242;stroke-linecap:square;stroke-width:2.7;"/>
   </g>
   <g id="line2d_147">
    <path clip-path="url(#p4e4f7c83e6)" d="M 0 0 
" style="fill:none;stroke:#424242;stroke-linecap:square;stroke-width:2.7;"/>
   </g>
   <g id="line2d_148">
    <path clip-path="url(#p4e4f7c83e6)" d="M 0 0 
" style="fill:none;stroke:#424242;stroke-linecap:square;stroke-width:2.7;"/>
   </g>
   <g id="line2d_149">
    <path clip-path="url(#p4e4f7c83e6)" d="M 0 0 
" style="fill:none;stroke:#424242;stroke-linecap:square;stroke-width:2.7;"/>
   </g>
   <g id="line2d_150">
    <path clip-path="url(#p4e4f7c83e6)" d="M 0 0 
" style="fill:none;stroke:#424242;stroke-linecap:square;stroke-width:2.7;"/>
   </g>
   <g id="line2d_151">
    <path clip-path="url(#p4e4f7c83e6)" d="M 0 0 
" style="fill:none;stroke:#424242;stroke-linecap:square;stroke-width:2.7;"/>
   </g>
   <g id="line2d_152">
    <path clip-path="url(#p4e4f7c83e6)" d="M 0 0 
" style="fill:none;stroke:#424242;stroke-linecap:square;stroke-width:2.7;"/>
   </g>
   <g id="line2d_153">
    <path clip-path="url(#p4e4f7c83e6)" d="M 0 0 
" style="fill:none;stroke:#424242;stroke-linecap:square;stroke-width:2.7;"/>
   </g>
   <g id="line2d_154">
    <path clip-path="url(#p4e4f7c83e6)" d="M 0 0 
" style="fill:none;stroke:#424242;stroke-linecap:square;stroke-width:2.7;"/>
   </g>
   <g id="line2d_155">
    <path clip-path="url(#p4e4f7c83e6)" d="M 0 0 
" style="fill:none;stroke:#424242;stroke-linecap:square;stroke-width:2.7;"/>
   </g>
   <g id="line2d_156">
    <path clip-path="url(#p4e4f7c83e6)" d="M 0 0 
" style="fill:none;stroke:#424242;stroke-linecap:square;stroke-width:2.7;"/>
   </g>
   <g id="line2d_157">
    <path clip-path="url(#p4e4f7c83e6)" d="M 0 0 
" style="fill:none;stroke:#424242;stroke-linecap:square;stroke-width:2.7;"/>
   </g>
   <g id="patch_79">
    <path d="M 27 1008 
L 27 138.24 
" style="fill:none;stroke:#000000;stroke-linecap:square;stroke-linejoin:miter;stroke-width:0.8;"/>
   </g>
   <g id="patch_80">
    <path d="M 194.4 1008 
L 194.4 138.24 
" style="fill:none;stroke:#000000;stroke-linecap:square;stroke-linejoin:miter;stroke-width:0.8;"/>
   </g>
   <g id="patch_81">
    <path d="M 27 1008 
L 194.4 1008 
" style="fill:none;stroke:#000000;stroke-linecap:square;stroke-linejoin:miter;stroke-width:0.8;"/>
   </g>
   <g id="patch_82">
    <path d="M 27 138.24 
L 194.4 138.24 
" style="fill:none;stroke:#000000;stroke-linecap:square;stroke-linejoin:miter;stroke-width:0.8;"/>
   </g>
  </g>
 </g>
 <defs>
  <clipPath id="p4e4f7c83e6">
   <rect height="869.76" width="167.4" x="27" y="138.24"/>
  </clipPath>
 </defs>
</svg>
