<?xml version="1.0" encoding="utf-8" standalone="no"?>
<!DOCTYPE svg PUBLIC "-//W3C//DTD SVG 1.1//EN"
  "http://www.w3.org/Graphics/SVG/1.1/DTD/svg11.dtd">
<!-- Created with matplotlib (https://matplotlib.org/) -->
<svg height="216pt" version="1.1" viewBox="0 0 303 216" width="303pt" xmlns="http://www.w3.org/2000/svg" xmlns:xlink="http://www.w3.org/1999/xlink">
 <metadata>
  <rdf:RDF xmlns:cc="http://creativecommons.org/ns#" xmlns:dc="http://purl.org/dc/elements/1.1/" xmlns:rdf="http://www.w3.org/1999/02/22-rdf-syntax-ns#">
   <cc:Work>
    <dc:type rdf:resource="http://purl.org/dc/dcmitype/StillImage"/>
    <dc:date>2021-10-19T13:25:56.280561</dc:date>
    <dc:format>image/svg+xml</dc:format>
    <dc:creator>
     <cc:Agent>
      <dc:title>Matplotlib v3.3.4, https://matplotlib.org/</dc:title>
     </cc:Agent>
    </dc:creator>
   </cc:Work>
  </rdf:RDF>
 </metadata>
 <defs>
  <style type="text/css">*{stroke-linecap:butt;stroke-linejoin:round;}</style>
 </defs>
 <g id="figure_1">
  <g id="patch_1">
   <path d="M 0 216 
L 303 216 
L 303 0 
L 0 0 
z
" style="fill:none;"/>
  </g>
  <g id="axes_1">
   <g id="patch_2">
    <path d="M 44.675 176.2 
L 202.17 176.2 
L 202.17 14.3 
L 44.675 14.3 
z
" style="fill:#ffffff;"/>
   </g>
   <g id="matplotlib.axis_1">
    <g id="xtick_1">
     <g id="line2d_1">
      <defs>
       <path d="M 0 0 
L 0 3.5 
" id="ma29a9a16d8" style="stroke:#000000;stroke-width:0.8;"/>
      </defs>
      <g>
       <use style="stroke:#000000;stroke-width:0.8;" x="47.346362" xlink:href="#ma29a9a16d8" y="176.2"/>
      </g>
     </g>
     <g id="text_1">
      <!-- 0 -->
      <g transform="translate(44.565893 190.357812)scale(0.1 -0.1)">
       <defs>
        <path d="M 4.15625 35.296875 
Q 4.15625 48 6.765625 55.734375 
Q 9.375 63.484375 14.515625 67.671875 
Q 19.671875 71.875 27.484375 71.875 
Q 33.25 71.875 37.59375 69.546875 
Q 41.9375 67.234375 44.765625 62.859375 
Q 47.609375 58.5 49.21875 52.21875 
Q 50.828125 45.953125 50.828125 35.296875 
Q 50.828125 22.703125 48.234375 14.96875 
Q 45.65625 7.234375 40.5 3 
Q 35.359375 -1.21875 27.484375 -1.21875 
Q 17.140625 -1.21875 11.234375 6.203125 
Q 4.15625 15.140625 4.15625 35.296875 
z
M 13.1875 35.296875 
Q 13.1875 17.671875 17.3125 11.828125 
Q 21.4375 6 27.484375 6 
Q 33.546875 6 37.671875 11.859375 
Q 41.796875 17.71875 41.796875 35.296875 
Q 41.796875 52.984375 37.671875 58.78125 
Q 33.546875 64.59375 27.390625 64.59375 
Q 21.34375 64.59375 17.71875 59.46875 
Q 13.1875 52.9375 13.1875 35.296875 
z
" id="ArialMT-48"/>
       </defs>
       <use xlink:href="#ArialMT-48"/>
      </g>
     </g>
    </g>
    <g id="xtick_2">
     <g id="line2d_2">
      <g>
       <use style="stroke:#000000;stroke-width:0.8;" x="100.035399" xlink:href="#ma29a9a16d8" y="176.2"/>
      </g>
     </g>
     <g id="text_2">
      <!-- 1 -->
      <g transform="translate(97.25493 190.357812)scale(0.1 -0.1)">
       <defs>
        <path d="M 37.25 0 
L 28.46875 0 
L 28.46875 56 
Q 25.296875 52.984375 20.140625 49.953125 
Q 14.984375 46.921875 10.890625 45.40625 
L 10.890625 53.90625 
Q 18.265625 57.375 23.78125 62.296875 
Q 29.296875 67.234375 31.59375 71.875 
L 37.25 71.875 
z
" id="ArialMT-49"/>
       </defs>
       <use xlink:href="#ArialMT-49"/>
      </g>
     </g>
    </g>
    <g id="xtick_3">
     <g id="line2d_3">
      <g>
       <use style="stroke:#000000;stroke-width:0.8;" x="152.724436" xlink:href="#ma29a9a16d8" y="176.2"/>
      </g>
     </g>
     <g id="text_3">
      <!-- 2 -->
      <g transform="translate(149.943967 190.357812)scale(0.1 -0.1)">
       <defs>
        <path d="M 50.34375 8.453125 
L 50.34375 0 
L 3.03125 0 
Q 2.9375 3.171875 4.046875 6.109375 
Q 5.859375 10.9375 9.828125 15.625 
Q 13.8125 20.3125 21.34375 26.46875 
Q 33.015625 36.03125 37.109375 41.625 
Q 41.21875 47.21875 41.21875 52.203125 
Q 41.21875 57.421875 37.46875 61 
Q 33.734375 64.59375 27.734375 64.59375 
Q 21.390625 64.59375 17.578125 60.78125 
Q 13.765625 56.984375 13.71875 50.25 
L 4.6875 51.171875 
Q 5.609375 61.28125 11.65625 66.578125 
Q 17.71875 71.875 27.9375 71.875 
Q 38.234375 71.875 44.234375 66.15625 
Q 50.25 60.453125 50.25 52 
Q 50.25 47.703125 48.484375 43.546875 
Q 46.734375 39.40625 42.65625 34.8125 
Q 38.578125 30.21875 29.109375 22.21875 
Q 21.1875 15.578125 18.9375 13.203125 
Q 16.703125 10.84375 15.234375 8.453125 
z
" id="ArialMT-50"/>
       </defs>
       <use xlink:href="#ArialMT-50"/>
      </g>
     </g>
    </g>
    <g id="text_4">
     <!-- entropy -->
     <g transform="translate(106.746719 203.385938)scale(0.1 -0.1)">
      <defs>
       <path d="M 42.09375 16.703125 
L 51.171875 15.578125 
Q 49.03125 7.625 43.21875 3.21875 
Q 37.40625 -1.171875 28.375 -1.171875 
Q 17 -1.171875 10.328125 5.828125 
Q 3.65625 12.84375 3.65625 25.484375 
Q 3.65625 38.578125 10.390625 45.796875 
Q 17.140625 53.03125 27.875 53.03125 
Q 38.28125 53.03125 44.875 45.953125 
Q 51.46875 38.875 51.46875 26.03125 
Q 51.46875 25.25 51.421875 23.6875 
L 12.75 23.6875 
Q 13.234375 15.140625 17.578125 10.59375 
Q 21.921875 6.0625 28.421875 6.0625 
Q 33.25 6.0625 36.671875 8.59375 
Q 40.09375 11.140625 42.09375 16.703125 
z
M 13.234375 30.90625 
L 42.1875 30.90625 
Q 41.609375 37.453125 38.875 40.71875 
Q 34.671875 45.796875 27.984375 45.796875 
Q 21.921875 45.796875 17.796875 41.75 
Q 13.671875 37.703125 13.234375 30.90625 
z
" id="ArialMT-101"/>
       <path d="M 6.59375 0 
L 6.59375 51.859375 
L 14.5 51.859375 
L 14.5 44.484375 
Q 20.21875 53.03125 31 53.03125 
Q 35.6875 53.03125 39.625 51.34375 
Q 43.5625 49.65625 45.515625 46.921875 
Q 47.46875 44.1875 48.25 40.4375 
Q 48.734375 37.984375 48.734375 31.890625 
L 48.734375 0 
L 39.9375 0 
L 39.9375 31.546875 
Q 39.9375 36.921875 38.90625 39.578125 
Q 37.890625 42.234375 35.28125 43.8125 
Q 32.671875 45.40625 29.15625 45.40625 
Q 23.53125 45.40625 19.453125 41.84375 
Q 15.375 38.28125 15.375 28.328125 
L 15.375 0 
z
" id="ArialMT-110"/>
       <path d="M 25.78125 7.859375 
L 27.046875 0.09375 
Q 23.34375 -0.6875 20.40625 -0.6875 
Q 15.625 -0.6875 12.984375 0.828125 
Q 10.359375 2.34375 9.28125 4.8125 
Q 8.203125 7.28125 8.203125 15.1875 
L 8.203125 45.015625 
L 1.765625 45.015625 
L 1.765625 51.859375 
L 8.203125 51.859375 
L 8.203125 64.703125 
L 16.9375 69.96875 
L 16.9375 51.859375 
L 25.78125 51.859375 
L 25.78125 45.015625 
L 16.9375 45.015625 
L 16.9375 14.703125 
Q 16.9375 10.9375 17.40625 9.859375 
Q 17.875 8.796875 18.921875 8.15625 
Q 19.96875 7.515625 21.921875 7.515625 
Q 23.390625 7.515625 25.78125 7.859375 
z
" id="ArialMT-116"/>
       <path d="M 6.5 0 
L 6.5 51.859375 
L 14.40625 51.859375 
L 14.40625 44 
Q 17.4375 49.515625 20 51.265625 
Q 22.5625 53.03125 25.640625 53.03125 
Q 30.078125 53.03125 34.671875 50.203125 
L 31.640625 42.046875 
Q 28.421875 43.953125 25.203125 43.953125 
Q 22.3125 43.953125 20.015625 42.21875 
Q 17.71875 40.484375 16.75 37.40625 
Q 15.28125 32.71875 15.28125 27.15625 
L 15.28125 0 
z
" id="ArialMT-114"/>
       <path d="M 3.328125 25.921875 
Q 3.328125 40.328125 11.328125 47.265625 
Q 18.015625 53.03125 27.640625 53.03125 
Q 38.328125 53.03125 45.109375 46.015625 
Q 51.90625 39.015625 51.90625 26.65625 
Q 51.90625 16.65625 48.90625 10.90625 
Q 45.90625 5.171875 40.15625 2 
Q 34.421875 -1.171875 27.640625 -1.171875 
Q 16.75 -1.171875 10.03125 5.8125 
Q 3.328125 12.796875 3.328125 25.921875 
z
M 12.359375 25.921875 
Q 12.359375 15.96875 16.703125 11.015625 
Q 21.046875 6.0625 27.640625 6.0625 
Q 34.1875 6.0625 38.53125 11.03125 
Q 42.875 16.015625 42.875 26.21875 
Q 42.875 35.84375 38.5 40.796875 
Q 34.125 45.75 27.640625 45.75 
Q 21.046875 45.75 16.703125 40.8125 
Q 12.359375 35.890625 12.359375 25.921875 
z
" id="ArialMT-111"/>
       <path d="M 6.59375 -19.875 
L 6.59375 51.859375 
L 14.59375 51.859375 
L 14.59375 45.125 
Q 17.4375 49.078125 21 51.046875 
Q 24.5625 53.03125 29.640625 53.03125 
Q 36.28125 53.03125 41.359375 49.609375 
Q 46.4375 46.1875 49.015625 39.953125 
Q 51.609375 33.734375 51.609375 26.3125 
Q 51.609375 18.359375 48.75 11.984375 
Q 45.90625 5.609375 40.453125 2.21875 
Q 35.015625 -1.171875 29 -1.171875 
Q 24.609375 -1.171875 21.109375 0.6875 
Q 17.625 2.546875 15.375 5.375 
L 15.375 -19.875 
z
M 14.546875 25.640625 
Q 14.546875 15.625 18.59375 10.84375 
Q 22.65625 6.0625 28.421875 6.0625 
Q 34.28125 6.0625 38.453125 11.015625 
Q 42.625 15.96875 42.625 26.375 
Q 42.625 36.28125 38.546875 41.203125 
Q 34.46875 46.140625 28.8125 46.140625 
Q 23.1875 46.140625 18.859375 40.890625 
Q 14.546875 35.640625 14.546875 25.640625 
z
" id="ArialMT-112"/>
       <path d="M 6.203125 -19.96875 
L 5.21875 -11.71875 
Q 8.109375 -12.5 10.25 -12.5 
Q 13.1875 -12.5 14.9375 -11.515625 
Q 16.703125 -10.546875 17.828125 -8.796875 
Q 18.65625 -7.46875 20.515625 -2.25 
Q 20.75 -1.515625 21.296875 -0.09375 
L 1.609375 51.859375 
L 11.078125 51.859375 
L 21.875 21.828125 
Q 23.96875 16.109375 25.640625 9.8125 
Q 27.15625 15.875 29.25 21.625 
L 40.328125 51.859375 
L 49.125 51.859375 
L 29.390625 -0.875 
Q 26.21875 -9.421875 24.46875 -12.640625 
Q 22.125 -17 19.09375 -19.015625 
Q 16.0625 -21.046875 11.859375 -21.046875 
Q 9.328125 -21.046875 6.203125 -19.96875 
z
" id="ArialMT-121"/>
      </defs>
      <use xlink:href="#ArialMT-101"/>
      <use x="55.615234" xlink:href="#ArialMT-110"/>
      <use x="111.230469" xlink:href="#ArialMT-116"/>
      <use x="139.013672" xlink:href="#ArialMT-114"/>
      <use x="172.314453" xlink:href="#ArialMT-111"/>
      <use x="227.929688" xlink:href="#ArialMT-112"/>
      <use x="283.544922" xlink:href="#ArialMT-121"/>
     </g>
    </g>
   </g>
   <g id="matplotlib.axis_2">
    <g id="ytick_1">
     <g id="line2d_4">
      <defs>
       <path d="M 0 0 
L -3.5 0 
" id="mc46e0b7cdb" style="stroke:#000000;stroke-width:0.8;"/>
      </defs>
      <g>
       <use style="stroke:#000000;stroke-width:0.8;" x="44.675" xlink:href="#mc46e0b7cdb" y="176.2"/>
      </g>
     </g>
     <g id="text_5">
      <!-- 0.0 -->
      <g transform="translate(23.775 179.778906)scale(0.1 -0.1)">
       <defs>
        <path d="M 9.078125 0 
L 9.078125 10.015625 
L 19.09375 10.015625 
L 19.09375 0 
z
" id="ArialMT-46"/>
       </defs>
       <use xlink:href="#ArialMT-48"/>
       <use x="55.615234" xlink:href="#ArialMT-46"/>
       <use x="83.398438" xlink:href="#ArialMT-48"/>
      </g>
     </g>
    </g>
    <g id="ytick_2">
     <g id="line2d_5">
      <g>
       <use style="stroke:#000000;stroke-width:0.8;" x="44.675" xlink:href="#mc46e0b7cdb" y="143.82"/>
      </g>
     </g>
     <g id="text_6">
      <!-- 0.2 -->
      <g transform="translate(23.775 147.398906)scale(0.1 -0.1)">
       <use xlink:href="#ArialMT-48"/>
       <use x="55.615234" xlink:href="#ArialMT-46"/>
       <use x="83.398438" xlink:href="#ArialMT-50"/>
      </g>
     </g>
    </g>
    <g id="ytick_3">
     <g id="line2d_6">
      <g>
       <use style="stroke:#000000;stroke-width:0.8;" x="44.675" xlink:href="#mc46e0b7cdb" y="111.44"/>
      </g>
     </g>
     <g id="text_7">
      <!-- 0.4 -->
      <g transform="translate(23.775 115.018906)scale(0.1 -0.1)">
       <defs>
        <path d="M 32.328125 0 
L 32.328125 17.140625 
L 1.265625 17.140625 
L 1.265625 25.203125 
L 33.9375 71.578125 
L 41.109375 71.578125 
L 41.109375 25.203125 
L 50.78125 25.203125 
L 50.78125 17.140625 
L 41.109375 17.140625 
L 41.109375 0 
z
M 32.328125 25.203125 
L 32.328125 57.46875 
L 9.90625 25.203125 
z
" id="ArialMT-52"/>
       </defs>
       <use xlink:href="#ArialMT-48"/>
       <use x="55.615234" xlink:href="#ArialMT-46"/>
       <use x="83.398438" xlink:href="#ArialMT-52"/>
      </g>
     </g>
    </g>
    <g id="ytick_4">
     <g id="line2d_7">
      <g>
       <use style="stroke:#000000;stroke-width:0.8;" x="44.675" xlink:href="#mc46e0b7cdb" y="79.06"/>
      </g>
     </g>
     <g id="text_8">
      <!-- 0.6 -->
      <g transform="translate(23.775 82.638906)scale(0.1 -0.1)">
       <defs>
        <path d="M 49.75 54.046875 
L 41.015625 53.375 
Q 39.84375 58.546875 37.703125 60.890625 
Q 34.125 64.65625 28.90625 64.65625 
Q 24.703125 64.65625 21.53125 62.3125 
Q 17.390625 59.28125 14.984375 53.46875 
Q 12.59375 47.65625 12.5 36.921875 
Q 15.671875 41.75 20.265625 44.09375 
Q 24.859375 46.4375 29.890625 46.4375 
Q 38.671875 46.4375 44.84375 39.96875 
Q 51.03125 33.5 51.03125 23.25 
Q 51.03125 16.5 48.125 10.71875 
Q 45.21875 4.9375 40.140625 1.859375 
Q 35.0625 -1.21875 28.609375 -1.21875 
Q 17.625 -1.21875 10.6875 6.859375 
Q 3.765625 14.9375 3.765625 33.5 
Q 3.765625 54.25 11.421875 63.671875 
Q 18.109375 71.875 29.4375 71.875 
Q 37.890625 71.875 43.28125 67.140625 
Q 48.6875 62.40625 49.75 54.046875 
z
M 13.875 23.1875 
Q 13.875 18.65625 15.796875 14.5 
Q 17.71875 10.359375 21.1875 8.171875 
Q 24.65625 6 28.46875 6 
Q 34.03125 6 38.03125 10.484375 
Q 42.046875 14.984375 42.046875 22.703125 
Q 42.046875 30.125 38.078125 34.390625 
Q 34.125 38.671875 28.125 38.671875 
Q 22.171875 38.671875 18.015625 34.390625 
Q 13.875 30.125 13.875 23.1875 
z
" id="ArialMT-54"/>
       </defs>
       <use xlink:href="#ArialMT-48"/>
       <use x="55.615234" xlink:href="#ArialMT-46"/>
       <use x="83.398438" xlink:href="#ArialMT-54"/>
      </g>
     </g>
    </g>
    <g id="ytick_5">
     <g id="line2d_8">
      <g>
       <use style="stroke:#000000;stroke-width:0.8;" x="44.675" xlink:href="#mc46e0b7cdb" y="46.68"/>
      </g>
     </g>
     <g id="text_9">
      <!-- 0.8 -->
      <g transform="translate(23.775 50.258906)scale(0.1 -0.1)">
       <defs>
        <path d="M 17.671875 38.8125 
Q 12.203125 40.828125 9.5625 44.53125 
Q 6.9375 48.25 6.9375 53.421875 
Q 6.9375 61.234375 12.546875 66.546875 
Q 18.171875 71.875 27.484375 71.875 
Q 36.859375 71.875 42.578125 66.421875 
Q 48.296875 60.984375 48.296875 53.171875 
Q 48.296875 48.1875 45.671875 44.5 
Q 43.0625 40.828125 37.75 38.8125 
Q 44.34375 36.671875 47.78125 31.875 
Q 51.21875 27.09375 51.21875 20.453125 
Q 51.21875 11.28125 44.71875 5.03125 
Q 38.234375 -1.21875 27.640625 -1.21875 
Q 17.046875 -1.21875 10.546875 5.046875 
Q 4.046875 11.328125 4.046875 20.703125 
Q 4.046875 27.6875 7.59375 32.390625 
Q 11.140625 37.109375 17.671875 38.8125 
z
M 15.921875 53.71875 
Q 15.921875 48.640625 19.1875 45.40625 
Q 22.46875 42.1875 27.6875 42.1875 
Q 32.765625 42.1875 36.015625 45.375 
Q 39.265625 48.578125 39.265625 53.21875 
Q 39.265625 58.0625 35.90625 61.359375 
Q 32.5625 64.65625 27.59375 64.65625 
Q 22.5625 64.65625 19.234375 61.421875 
Q 15.921875 58.203125 15.921875 53.71875 
z
M 13.09375 20.65625 
Q 13.09375 16.890625 14.875 13.375 
Q 16.65625 9.859375 20.171875 7.921875 
Q 23.6875 6 27.734375 6 
Q 34.03125 6 38.125 10.046875 
Q 42.234375 14.109375 42.234375 20.359375 
Q 42.234375 26.703125 38.015625 30.859375 
Q 33.796875 35.015625 27.4375 35.015625 
Q 21.234375 35.015625 17.15625 30.90625 
Q 13.09375 26.8125 13.09375 20.65625 
z
" id="ArialMT-56"/>
       </defs>
       <use xlink:href="#ArialMT-48"/>
       <use x="55.615234" xlink:href="#ArialMT-46"/>
       <use x="83.398438" xlink:href="#ArialMT-56"/>
      </g>
     </g>
    </g>
    <g id="ytick_6">
     <g id="line2d_9">
      <g>
       <use style="stroke:#000000;stroke-width:0.8;" x="44.675" xlink:href="#mc46e0b7cdb" y="14.3"/>
      </g>
     </g>
     <g id="text_10">
      <!-- 1.0 -->
      <g transform="translate(23.775 17.878906)scale(0.1 -0.1)">
       <use xlink:href="#ArialMT-49"/>
       <use x="55.615234" xlink:href="#ArialMT-46"/>
       <use x="83.398438" xlink:href="#ArialMT-48"/>
      </g>
     </g>
    </g>
    <g id="text_11">
     <!-- Proportion -->
     <g transform="translate(17.7875 118.317187)rotate(-90)scale(0.1 -0.1)">
      <defs>
       <path d="M 7.71875 0 
L 7.71875 71.578125 
L 34.71875 71.578125 
Q 41.84375 71.578125 45.609375 70.90625 
Q 50.875 70.015625 54.4375 67.546875 
Q 58.015625 65.09375 60.1875 60.640625 
Q 62.359375 56.203125 62.359375 50.875 
Q 62.359375 41.75 56.546875 35.421875 
Q 50.734375 29.109375 35.546875 29.109375 
L 17.1875 29.109375 
L 17.1875 0 
z
M 17.1875 37.546875 
L 35.6875 37.546875 
Q 44.875 37.546875 48.734375 40.96875 
Q 52.59375 44.390625 52.59375 50.59375 
Q 52.59375 55.078125 50.3125 58.265625 
Q 48.046875 61.46875 44.34375 62.5 
Q 41.9375 63.140625 35.5 63.140625 
L 17.1875 63.140625 
z
" id="ArialMT-80"/>
       <path d="M 6.640625 61.46875 
L 6.640625 71.578125 
L 15.4375 71.578125 
L 15.4375 61.46875 
z
M 6.640625 0 
L 6.640625 51.859375 
L 15.4375 51.859375 
L 15.4375 0 
z
" id="ArialMT-105"/>
      </defs>
      <use xlink:href="#ArialMT-80"/>
      <use x="66.699219" xlink:href="#ArialMT-114"/>
      <use x="100" xlink:href="#ArialMT-111"/>
      <use x="155.615234" xlink:href="#ArialMT-112"/>
      <use x="211.230469" xlink:href="#ArialMT-111"/>
      <use x="266.845703" xlink:href="#ArialMT-114"/>
      <use x="300.146484" xlink:href="#ArialMT-116"/>
      <use x="327.929688" xlink:href="#ArialMT-105"/>
      <use x="350.146484" xlink:href="#ArialMT-111"/>
      <use x="405.761719" xlink:href="#ArialMT-110"/>
     </g>
    </g>
   </g>
   <g id="line2d_10">
    <path clip-path="url(#p5d8cffc9d4)" d="M 51.833864 176.2 
L 51.833864 176.116349 
L 51.967373 176.116349 
L 51.967373 176.008798 
L 51.967373 175.949048 
L 52.196403 175.949048 
L 52.196403 175.841497 
L 52.196403 175.578595 
L 52.340342 175.494944 
L 52.340342 175.471044 
L 52.340342 175.423243 
L 52.520944 175.423243 
L 52.520944 175.315692 
L 52.55889 175.136441 
L 52.823981 175.05279 
L 52.823981 175.02889 
L 52.921325 174.706237 
L 53.111858 174.622586 
L 53.111858 174.598686 
L 53.207815 174.287983 
L 53.245761 174.252133 
L 53.245761 174.180433 
L 53.283708 173.953381 
L 53.387999 173.84583 
L 53.474188 173.594877 
L 53.548694 173.487327 
L 53.654554 173.140774 
L 53.750277 173.104923 
L 53.750277 173.033223 
L 53.836466 172.853971 
L 53.898561 172.77032 
L 53.898561 172.74642 
L 54.008316 172.256466 
L 54.096657 172.232566 
L 54.096657 172.148915 
L 54.198692 171.742611 
L 54.235251 171.658961 
L 54.235251 171.635061 
L 54.332595 171.312408 
L 54.383583 171.216807 
L 54.383583 171.204857 
L 54.47658 170.965855 
L 54.560865 170.858304 
L 54.664946 170.631252 
L 54.739451 170.523701 
L 54.847093 170.093497 
L 54.953062 169.985946 
L 55.063573 169.675244 
L 55.143002 169.567693 
L 55.25063 169.28089 
L 55.305118 169.173339 
L 55.39835 168.982138 
L 55.475219 168.874587 
L 55.586283 168.599734 
L 55.647483 168.492183 
L 55.749604 168.205381 
L 55.827119 168.09783 
L 55.937538 167.882728 
L 55.969698 167.775177 
L 56.075966 167.548125 
L 56.161145 167.440574 
L 56.254899 167.380824 
L 56.369554 167.273273 
L 56.475534 167.141822 
L 56.5214 167.034271 
L 56.616704 166.89087 
L 56.642103 166.866969 
L 56.642103 166.783319 
L 56.751188 166.651867 
L 56.82402 166.544317 
L 56.912396 166.436766 
L 57.017327 166.329215 
L 57.110651 166.185813 
L 57.176979 166.078262 
L 57.285924 165.83926 
L 57.321504 165.77951 
L 57.321504 165.731709 
L 57.414189 165.588308 
L 57.532467 165.480757 
L 57.642401 165.265655 
L 57.706042 165.158105 
L 57.800979 164.990803 
L 57.899922 164.883252 
L 58.000671 164.62035 
L 58.111261 164.512799 
L 58.214482 164.393298 
L 58.36592 164.285747 
L 58.474887 164.106495 
L 58.545209 163.998944 
L 58.606279 163.867493 
L 58.679604 163.831643 
L 58.679604 163.759942 
L 58.779386 163.50899 
L 58.857484 163.401439 
L 58.964844 163.305839 
L 59.084717 163.198288 
L 59.194195 163.066836 
L 59.252991 162.959286 
L 59.362973 162.720283 
L 59.435405 162.612733 
L 59.492458 162.505182 
L 59.67536 162.397631 
L 59.779878 162.27813 
L 59.855748 162.170579 
L 59.964778 162.015227 
L 60.082431 161.907676 
L 60.179745 161.752325 
L 60.312155 161.644774 
L 60.421277 161.513323 
L 60.479504 161.405772 
L 60.584792 161.238471 
L 60.670963 161.13092 
L 60.777647 160.987518 
L 60.863943 160.879968 
L 60.951774 160.712666 
L 61.097392 160.605115 
L 61.205862 160.533415 
L 61.276352 160.425864 
L 61.386823 160.174911 
L 61.553125 160.06736 
L 61.663667 159.923959 
L 61.797962 159.816408 
L 61.907663 159.673007 
L 61.975916 159.565456 
L 62.086953 159.410105 
L 62.199087 159.302554 
L 62.302426 159.183053 
L 62.384405 159.075502 
L 62.482684 158.956001 
L 62.62399 158.84845 
L 62.710472 158.705049 
L 62.809212 158.597498 
L 62.918658 158.406296 
L 63.001195 158.298745 
L 63.108443 158.179244 
L 63.266437 158.071693 
L 63.354545 157.988043 
L 63.480117 157.880492 
L 63.588109 157.71319 
L 63.736286 157.605639 
L 63.833243 157.474188 
L 63.936616 157.366637 
L 64.033982 157.223236 
L 64.164978 157.115685 
L 64.272196 156.936433 
L 64.370996 156.828882 
L 64.47777 156.745232 
L 64.587182 156.637681 
L 64.68612 156.482329 
L 64.850778 156.374779 
L 64.959655 156.255278 
L 65.089113 156.147727 
L 65.187157 156.016275 
L 65.360823 155.908725 
L 65.439509 155.813124 
L 65.606598 155.705573 
L 65.706187 155.586072 
L 65.810387 155.478521 
L 65.914884 155.38292 
L 66.083991 155.275369 
L 66.185872 155.155868 
L 66.315989 155.048317 
L 66.415896 154.928816 
L 66.528342 154.821265 
L 66.607027 154.761515 
L 66.743949 154.653964 
L 66.851572 154.570313 
L 67.011711 154.462762 
L 67.117058 154.343261 
L 67.320817 154.23571 
L 67.431839 154.152059 
L 67.546913 154.044508 
L 67.59435 153.972808 
L 67.817851 153.865257 
L 67.925846 153.745756 
L 68.118392 153.638205 
L 68.226644 153.411153 
L 68.368454 153.303602 
L 68.472613 153.184101 
L 68.660856 153.07655 
L 68.734726 152.992899 
L 68.867502 152.885348 
L 68.97686 152.789748 
L 69.081398 152.682197 
L 69.183845 152.562696 
L 69.369124 152.455145 
L 69.479286 152.311743 
L 69.622258 152.204193 
L 69.726099 152.072741 
L 69.817605 151.96519 
L 69.927007 151.88154 
L 70.049041 151.773989 
L 70.155777 151.606687 
L 70.29661 151.499136 
L 70.396585 151.439386 
L 70.5381 151.331835 
L 70.631663 151.260134 
L 70.767482 151.152583 
L 70.878046 150.961382 
L 70.982765 150.853831 
L 71.072832 150.817981 
L 71.222518 150.71043 
L 71.316698 150.614829 
L 71.48144 150.507278 
L 71.588332 150.411677 
L 71.763542 150.304126 
L 71.868793 150.160725 
L 72.105659 150.053174 
L 72.213165 149.873922 
L 72.330712 149.766371 
L 72.432313 149.706621 
L 72.540944 149.59907 
L 72.651129 149.455669 
L 72.757824 149.348118 
L 72.821456 149.300317 
L 73.026781 149.192766 
L 73.125927 149.097166 
L 73.269973 148.989615 
L 73.376933 148.917914 
L 73.60042 148.810363 
L 73.68882 148.714762 
L 73.845883 148.607211 
L 73.95366 148.48771 
L 74.043479 148.380159 
L 74.128084 148.248708 
L 74.325619 148.141157 
L 74.408613 148.057507 
L 74.570668 147.949956 
L 74.678757 147.818505 
L 74.791923 147.710954 
L 74.865189 147.663153 
L 75.012937 147.555602 
L 75.122561 147.412201 
L 75.366267 147.30465 
L 75.461547 147.2449 
L 75.601887 147.137349 
L 75.695518 147.017848 
L 75.838232 146.910297 
L 75.943458 146.802746 
L 76.098362 146.695195 
L 76.204029 146.575694 
L 76.334113 146.468143 
L 76.443813 146.336692 
L 76.599202 146.229141 
L 76.694762 146.073789 
L 76.904399 145.966239 
L 77.01498 145.882588 
L 77.086 145.775037 
L 77.190133 145.619686 
L 77.309235 145.512135 
L 77.398767 145.416534 
L 77.563894 145.308983 
L 77.672016 145.177532 
L 77.834278 145.069981 
L 77.943903 144.95048 
L 78.098924 144.842929 
L 78.20252 144.699528 
L 78.347822 144.591977 
L 78.453754 144.436625 
L 78.556827 144.329074 
L 78.648765 144.197623 
L 78.773949 144.090072 
L 78.877186 143.970571 
L 79.035254 143.86302 
L 79.140742 143.743519 
L 79.261133 143.635968 
L 79.369961 143.528417 
L 79.578279 143.420867 
L 79.687547 143.337216 
L 79.784649 143.229665 
L 79.891947 143.098214 
L 79.997509 142.990663 
L 80.101748 142.871162 
L 80.258062 142.763611 
L 80.369028 142.596309 
L 80.468314 142.488758 
L 80.552496 142.393158 
L 80.6849 142.285607 
L 80.769132 142.201956 
L 80.85179 142.094405 
L 80.951041 141.903203 
L 81.052511 141.795652 
L 81.153632 141.700052 
L 81.324583 141.592501 
L 81.427875 141.425199 
L 81.571656 141.317648 
L 81.65669 141.222048 
L 81.834321 141.114497 
L 81.942035 141.018896 
L 82.070182 140.911345 
L 82.162245 140.779894 
L 82.364113 140.672343 
L 82.474779 140.528942 
L 82.572928 140.421391 
L 82.648798 140.31384 
L 82.801156 140.206289 
L 82.871609 140.146538 
L 83.043584 140.038987 
L 83.110783 139.907536 
L 83.261899 139.799985 
L 83.365419 139.668534 
L 83.495635 139.560983 
L 83.606391 139.429532 
L 83.764149 139.321981 
L 83.865788 139.21443 
L 84.007709 139.106879 
L 84.09625 138.987378 
L 84.247817 138.879827 
L 84.357884 138.784226 
L 84.497005 138.676676 
L 84.564037 138.557174 
L 84.753499 138.449624 
L 84.861542 138.306222 
L 85.003729 138.198671 
L 85.103219 138.138921 
L 85.258291 138.03137 
L 85.355401 137.923819 
L 85.537891 137.816268 
L 85.627274 137.720667 
L 85.89261 137.613116 
L 85.974663 137.553366 
L 86.156726 137.445815 
L 86.242944 137.302414 
L 86.414754 137.194863 
L 86.516393 137.051461 
L 86.633018 136.943911 
L 86.738858 136.812459 
L 86.88048 136.704908 
L 86.974541 136.561507 
L 87.113831 136.453956 
L 87.22349 136.298605 
L 87.308429 136.191054 
L 87.404049 136.071553 
L 87.486488 135.964002 
L 87.58489 135.784751 
L 87.681007 135.6772 
L 87.788689 135.497948 
L 87.916188 135.390397 
L 88.011005 135.187245 
L 88.145299 135.079694 
L 88.24084 134.960193 
L 88.319777 134.852642 
L 88.429278 134.649491 
L 88.53791 134.54194 
L 88.633822 134.386588 
L 88.742528 134.279037 
L 88.85179 134.135636 
L 88.926721 134.028085 
L 89.027103 133.848834 
L 89.12362 133.741283 
L 89.232143 133.502281 
L 89.317154 133.39473 
L 89.419914 133.251329 
L 89.544187 133.143778 
L 89.654571 132.940626 
L 89.740049 132.833075 
L 89.816517 132.701624 
L 89.918958 132.594073 
L 90.017509 132.390921 
L 90.077167 132.28337 
L 90.173613 132.163869 
L 90.300473 132.056318 
L 90.389912 131.865117 
L 90.530377 131.757566 
L 90.628924 131.673915 
L 90.791213 131.566364 
L 90.894139 131.363212 
L 90.95111 131.255661 
L 91.06052 131.07641 
L 91.174383 130.968859 
L 91.280371 130.813508 
L 91.400153 130.705957 
L 91.501 130.586456 
L 91.614922 130.478905 
L 91.713021 130.323553 
L 91.796514 130.216002 
L 91.906534 129.977 
L 91.949818 129.869449 
L 92.047028 129.654348 
L 92.154632 129.546797 
L 92.262251 129.427296 
L 92.329805 129.319745 
L 92.438285 129.152443 
L 92.514496 129.044892 
L 92.617548 128.853691 
L 92.775159 128.74614 
L 92.85796 128.626639 
L 92.954697 128.519088 
L 93.063001 128.387637 
L 93.107549 128.280086 
L 93.214723 128.160585 
L 93.319568 128.053034 
L 93.428946 127.861832 
L 93.549474 127.754281 
L 93.641298 127.62283 
L 93.768384 127.515279 
L 93.857628 127.395778 
L 93.956989 127.288227 
L 94.06735 127.108975 
L 94.232889 127.001425 
L 94.338294 126.881924 
L 94.436501 126.774373 
L 94.521858 126.678772 
L 94.714962 126.571221 
L 94.814609 126.43977 
L 94.949401 126.332219 
L 95.054508 126.188818 
L 95.15748 126.081267 
L 95.260978 125.937865 
L 95.343604 125.830314 
L 95.451526 125.698863 
L 95.494184 125.591312 
L 95.604777 125.424011 
L 95.699281 125.31646 
L 95.804782 125.196959 
L 95.883597 125.089408 
L 95.983345 124.969907 
L 96.085045 124.862356 
L 96.182894 124.718955 
L 96.292051 124.611404 
L 96.383111 124.491903 
L 96.489496 124.384352 
L 96.592438 124.229001 
L 96.778388 124.12145 
L 96.879607 123.978048 
L 96.957637 123.870497 
L 97.065042 123.715146 
L 97.183665 123.607595 
L 97.293527 123.428344 
L 97.338288 123.320793 
L 97.412296 123.177391 
L 97.524536 123.069841 
L 97.635455 122.878639 
L 97.718417 122.771088 
L 97.827304 122.579886 
L 97.916229 122.472335 
L 98.015641 122.340884 
L 98.09287 122.233333 
L 98.181855 122.089932 
L 98.316509 121.982381 
L 98.414243 121.79118 
L 98.553045 121.683629 
L 98.662713 121.540227 
L 98.762096 121.432676 
L 98.872511 121.217575 
L 98.916747 121.110024 
L 99.026508 120.871022 
L 99.100358 120.763471 
L 99.205768 120.500568 
L 99.316109 120.393017 
L 99.393588 120.285466 
L 99.486755 120.177916 
L 99.575589 120.046464 
L 99.657101 119.938913 
L 99.750585 119.711862 
L 99.901167 119.604311 
L 100.010042 119.437009 
L 100.149507 119.329458 
L 100.255554 119.162157 
L 100.345812 119.054606 
L 100.452273 118.875354 
L 100.545295 118.767803 
L 100.647595 118.588552 
L 100.776669 118.481001 
L 100.883592 118.32565 
L 100.980158 118.218099 
L 101.090666 118.098598 
L 101.183519 117.991047 
L 101.294156 117.835695 
L 101.408398 117.728144 
L 101.511483 117.572793 
L 101.632816 117.465242 
L 101.742054 117.321841 
L 101.847015 117.21429 
L 101.94327 117.082839 
L 102.006795 116.975288 
L 102.067682 116.879687 
L 102.214889 116.772136 
L 102.299141 116.664585 
L 102.429653 116.557034 
L 102.529886 116.425583 
L 102.644913 116.318032 
L 102.751622 116.126831 
L 102.810331 116.01928 
L 102.919016 115.756377 
L 103.02144 115.648826 
L 103.106456 115.517375 
L 103.246628 115.409824 
L 103.347999 115.254473 
L 103.466074 115.146922 
L 103.572219 114.87207 
L 103.628053 114.764519 
L 103.737752 114.597217 
L 103.776664 114.489666 
L 103.872052 114.429916 
L 103.948386 114.322365 
L 104.052517 114.095313 
L 104.114118 113.987762 
L 104.215029 113.844361 
L 104.337784 113.73681 
L 104.438841 113.593409 
L 104.513831 113.485858 
L 104.611754 113.294656 
L 104.741009 113.187105 
L 104.842597 113.067604 
L 104.900401 112.960053 
L 105.010699 112.768851 
L 105.059743 112.661301 
L 105.155065 112.482049 
L 105.238416 112.374498 
L 105.328901 112.207197 
L 105.443458 112.099646 
L 105.548473 111.980145 
L 105.743133 111.872594 
L 105.839518 111.657492 
L 105.946493 111.549941 
L 106.049744 111.40654 
L 106.102501 111.298989 
L 106.195651 111.155588 
L 106.303784 111.048037 
L 106.40385 110.797084 
L 106.505706 110.689534 
L 106.604264 110.617833 
L 106.727372 110.510282 
L 106.825885 110.31908 
L 106.946014 110.211529 
L 107.055082 110.008378 
L 107.167535 109.900827 
L 107.2754 109.721575 
L 107.32575 109.614024 
L 107.429563 109.470623 
L 107.530936 109.363072 
L 107.639247 109.14797 
L 107.70334 109.040419 
L 107.810879 108.861168 
L 107.863421 108.753617 
L 107.954921 108.622166 
L 108.074868 108.514615 
L 108.180185 108.347313 
L 108.262202 108.239762 
L 108.370597 108.084411 
L 108.450167 107.97686 
L 108.557988 107.845409 
L 108.656078 107.737858 
L 108.7518 107.534706 
L 108.846924 107.427155 
L 108.956198 107.259854 
L 108.997684 107.152303 
L 109.104467 106.973051 
L 109.167832 106.8655 
L 109.250426 106.710149 
L 109.342214 106.602598 
L 109.434065 106.399446 
L 109.51945 106.291895 
L 109.629409 106.112644 
L 109.698112 106.005093 
L 109.77508 105.873642 
L 109.888295 105.766091 
L 109.978692 105.69439 
L 110.124525 105.586839 
L 110.235318 105.383688 
L 110.319758 105.276137 
L 110.430682 105.108835 
L 110.522251 105.001284 
L 110.61287 104.869833 
L 110.767567 104.762282 
L 110.867722 104.642781 
L 110.979997 104.53523 
L 111.083047 104.415729 
L 111.179091 104.308178 
L 111.28487 104.128927 
L 111.339643 104.021376 
L 111.445775 103.842124 
L 111.511108 103.734573 
L 111.618607 103.650923 
L 111.768842 103.543372 
L 111.873018 103.31632 
L 112.022178 103.208769 
L 112.127892 103.029517 
L 112.229191 102.921966 
L 112.338059 102.814415 
L 112.409347 102.706864 
L 112.519749 102.408112 
L 112.630394 102.300561 
L 112.738488 102.15716 
L 112.819364 102.049609 
L 112.924807 101.894257 
L 113.0068 101.786707 
L 113.117125 101.571605 
L 113.208945 101.464054 
L 113.317751 101.248952 
L 113.34955 101.141401 
L 113.447031 100.938249 
L 113.546957 100.830698 
L 113.656254 100.603646 
L 113.734091 100.496095 
L 113.843019 100.304894 
L 113.932223 100.197343 
L 114.040612 100.041991 
L 114.076269 99.934441 
L 114.186526 99.731289 
L 114.277195 99.623738 
L 114.384313 99.432536 
L 114.429756 99.324985 
L 114.536348 99.026233 
L 114.588606 98.918682 
L 114.698827 98.76333 
L 114.75838 98.655779 
L 114.852982 98.548229 
L 114.936012 98.440678 
L 115.044183 98.261426 
L 115.142148 98.153875 
L 115.221163 98.022424 
L 115.358521 97.914873 
L 115.449406 97.783422 
L 115.55378 97.675871 
L 115.654639 97.50857 
L 115.771216 97.401019 
L 115.881689 97.245667 
L 115.992794 97.138116 
L 116.101758 96.970815 
L 116.180861 96.863264 
L 116.290796 96.636212 
L 116.37288 96.528661 
L 116.474053 96.36136 
L 116.556665 96.253809 
L 116.638786 96.194058 
L 116.751583 96.086507 
L 116.854677 95.967006 
L 116.975933 95.859455 
L 117.081662 95.728004 
L 117.182691 95.620453 
L 117.280697 95.500952 
L 117.355433 95.393401 
L 117.429792 95.28585 
L 117.554619 95.178299 
L 117.664694 95.022948 
L 117.766528 94.915397 
L 117.874301 94.724195 
L 117.936468 94.616645 
L 118.042451 94.365692 
L 118.128463 94.258141 
L 118.210377 94.07889 
L 118.338387 93.971339 
L 118.445028 93.815988 
L 118.516271 93.708437 
L 118.622913 93.469435 
L 118.705365 93.361884 
L 118.814009 93.242383 
L 118.937577 93.134832 
L 119.047166 92.95558 
L 119.149542 92.848029 
L 119.245712 92.716578 
L 119.313925 92.609027 
L 119.423439 92.417826 
L 119.544541 92.310275 
L 119.64665 92.190774 
L 119.734845 92.083223 
L 119.838061 91.951771 
L 119.885102 91.844221 
L 119.990781 91.641069 
L 120.056846 91.533518 
L 120.1671 91.342316 
L 120.291977 91.234765 
L 120.400001 91.055514 
L 120.476858 90.947963 
L 120.570214 90.780661 
L 120.645672 90.67311 
L 120.75435 90.446058 
L 120.810833 90.338508 
L 120.896774 90.254857 
L 120.996466 90.147306 
L 121.099588 89.991955 
L 121.189849 89.884404 
L 121.300679 89.681252 
L 121.374735 89.573701 
L 121.447806 89.46615 
L 121.565594 89.358599 
L 121.67322 89.191298 
L 121.727021 89.083747 
L 121.832184 88.928395 
L 121.961845 88.820844 
L 122.065554 88.629643 
L 122.136694 88.522092 
L 122.235341 88.390641 
L 122.298719 88.28309 
L 122.406511 88.115788 
L 122.48887 88.008237 
L 122.597756 87.781185 
L 122.653149 87.673634 
L 122.74527 87.542183 
L 122.83141 87.434632 
L 122.936495 87.243431 
L 123.040605 87.13588 
L 123.149858 86.896878 
L 123.215182 86.789327 
L 123.325234 86.562275 
L 123.465171 86.454724 
L 123.575918 86.263522 
L 123.650416 86.155971 
L 123.755592 86.03647 
L 123.854377 85.928919 
L 123.964356 85.749668 
L 124.030075 85.642117 
L 124.133094 85.438965 
L 124.249395 85.331414 
L 124.345949 85.164113 
L 124.467712 85.056562 
L 124.575618 84.86536 
L 124.683477 84.757809 
L 124.782524 84.518807 
L 124.904157 84.411256 
L 125.01127 84.232005 
L 125.107302 84.124454 
L 125.211092 83.981053 
L 125.279517 83.873502 
L 125.375841 83.69425 
L 125.43886 83.586699 
L 125.54405 83.514999 
L 125.629258 83.407448 
L 125.734899 83.216246 
L 125.788769 83.108695 
L 125.886959 82.941394 
L 125.952449 82.833843 
L 126.056404 82.630691 
L 126.152777 82.52314 
L 126.261164 82.367789 
L 126.329903 82.260238 
L 126.438877 82.045136 
L 126.551257 81.937585 
L 126.659937 81.841984 
L 126.709573 81.734433 
L 126.810477 81.591032 
L 126.913205 81.483481 
L 127.014705 81.292279 
L 127.093653 81.184728 
L 127.201012 81.089128 
L 127.32217 80.981577 
L 127.422233 80.874026 
L 127.501389 80.766475 
L 127.610929 80.539423 
L 127.719915 80.431872 
L 127.82784 80.22872 
L 127.921972 80.121169 
L 128.015793 79.941918 
L 128.106516 79.834367 
L 128.200034 79.714866 
L 128.276851 79.607315 
L 128.386176 79.463913 
L 128.482534 79.356363 
L 128.590169 79.129311 
L 128.660277 79.02176 
L 128.764388 78.806658 
L 128.887182 78.699107 
L 128.98851 78.543756 
L 129.088824 78.436205 
L 129.194348 78.280853 
L 129.251027 78.173302 
L 129.361678 78.029901 
L 129.499394 77.92235 
L 129.607367 77.755049 
L 129.654375 77.647498 
L 129.762718 77.444346 
L 129.831021 77.336795 
L 129.941596 77.157544 
L 129.975193 77.049993 
L 130.080022 76.846841 
L 130.207808 76.73929 
L 130.308091 76.631739 
L 130.409081 76.524188 
L 130.520065 76.392737 
L 130.622032 76.285186 
L 130.733136 76.129835 
L 130.802057 76.022284 
L 130.9089 75.819132 
L 130.975688 75.711581 
L 131.073975 75.58013 
L 131.165348 75.472579 
L 131.27165 75.317228 
L 131.407078 75.209677 
L 131.51701 75.030425 
L 131.566327 74.922874 
L 131.656159 74.827273 
L 131.741365 74.719722 
L 131.842757 74.540471 
L 131.931401 74.43292 
L 132.036615 74.217818 
L 132.127954 74.110267 
L 132.226077 73.978816 
L 132.360713 73.871265 
L 132.456377 73.751764 
L 132.58744 73.644213 
L 132.696307 73.429111 
L 132.822079 73.32156 
L 132.925749 73.130359 
L 133.019649 73.022808 
L 133.126929 72.879407 
L 133.204017 72.771856 
L 133.305132 72.580654 
L 133.409035 72.473103 
L 133.515923 72.222151 
L 133.619071 72.1146 
L 133.7268 71.959249 
L 133.787824 71.851698 
L 133.898455 71.660496 
L 134.00354 71.552945 
L 134.094511 71.397594 
L 134.234124 71.290043 
L 134.310711 71.218342 
L 134.447693 71.110791 
L 134.545922 70.91959 
L 134.643658 70.812039 
L 134.737248 70.668637 
L 134.842882 70.561087 
L 134.949279 70.334035 
L 135.077065 70.226484 
L 135.184299 70.071132 
L 135.249269 69.963581 
L 135.359311 69.712629 
L 135.458019 69.605078 
L 135.568134 69.473627 
L 135.615352 69.366076 
L 135.721547 69.150974 
L 135.832675 69.043423 
L 135.9232 68.900022 
L 136.025379 68.792471 
L 136.127967 68.541519 
L 136.227161 68.433968 
L 136.336989 68.290567 
L 136.399503 68.183016 
L 136.49057 68.099365 
L 136.553246 67.991814 
L 136.654284 67.884263 
L 136.756379 67.776712 
L 136.866173 67.54966 
L 136.938692 67.44211 
L 137.03361 67.298708 
L 137.085383 67.191157 
L 137.196245 66.964105 
L 137.24896 66.856554 
L 137.358434 66.557802 
L 137.449309 66.450251 
L 137.555453 66.28295 
L 137.662712 66.175399 
L 137.765024 65.996147 
L 137.907058 65.888596 
L 138.014027 65.721295 
L 138.111467 65.613744 
L 138.222121 65.434492 
L 138.287045 65.326941 
L 138.397197 65.15964 
L 138.473426 65.052089 
L 138.583388 64.896738 
L 138.660615 64.789187 
L 138.765764 64.633835 
L 138.845065 64.526284 
L 138.955994 64.370933 
L 139.076374 64.263382 
L 139.18659 64.08413 
L 139.298647 63.97658 
L 139.407258 63.773428 
L 139.460692 63.665877 
L 139.558694 63.486625 
L 139.670397 63.379074 
L 139.759723 63.283474 
L 139.868467 63.175923 
L 139.975 62.936921 
L 140.047584 62.82937 
L 140.151763 62.650118 
L 140.207185 62.542567 
L 140.30328 62.387216 
L 140.417238 62.279665 
L 140.524544 62.076513 
L 140.566437 61.968962 
L 140.671106 61.813611 
L 140.794985 61.70606 
L 140.899031 61.538758 
L 141.008834 61.431208 
L 141.118642 61.299756 
L 141.194504 61.192205 
L 141.297311 61.024904 
L 141.375531 60.917353 
L 141.484243 60.678351 
L 141.522879 60.5708 
L 141.602015 60.427399 
L 141.724854 60.319848 
L 141.834017 60.104746 
L 141.951862 59.997195 
L 142.059905 59.865744 
L 142.155857 59.758193 
L 142.254949 59.614792 
L 142.317384 59.507241 
L 142.427898 59.35189 
L 142.520412 59.244339 
L 142.627632 59.017287 
L 142.721406 58.909736 
L 142.819493 58.682684 
L 142.907955 58.575133 
L 143.018399 58.443682 
L 143.105218 58.336131 
L 143.207178 58.180779 
L 143.294589 58.073229 
L 143.399811 57.893977 
L 143.461846 57.786426 
L 143.56046 57.619125 
L 143.666573 57.511574 
L 143.766609 57.272572 
L 143.839144 57.165021 
L 143.945518 56.937969 
L 144.082767 56.830418 
L 144.179188 56.675066 
L 144.267881 56.567516 
L 144.369752 56.340464 
L 144.46992 56.232913 
L 144.580156 56.053661 
L 144.653148 55.94611 
L 144.760484 55.659308 
L 144.835445 55.551757 
L 144.935996 55.360555 
L 145.029294 55.253004 
L 145.103727 55.097653 
L 145.236839 54.990102 
L 145.326084 54.894501 
L 145.467275 54.78695 
L 145.548897 54.607699 
L 145.642209 54.500148 
L 145.737405 54.452347 
L 145.855553 54.344796 
L 145.963292 54.189445 
L 146.068136 54.081894 
L 146.154906 53.926543 
L 146.326014 53.818992 
L 146.435592 53.63974 
L 146.505737 53.532189 
L 146.616751 53.293187 
L 146.736033 53.185636 
L 146.843778 53.042235 
L 146.889505 52.934684 
L 147.000592 52.755433 
L 147.159353 52.647882 
L 147.256627 52.51643 
L 147.350437 52.40888 
L 147.459794 52.217678 
L 147.531482 52.110127 
L 147.640186 51.942826 
L 147.689722 51.835275 
L 147.79097 51.584322 
L 147.836353 51.476771 
L 147.941828 51.27362 
L 148.031366 51.166069 
L 148.13828 50.974867 
L 148.205881 50.867316 
L 148.303774 50.700015 
L 148.388164 50.592464 
L 148.49819 50.401262 
L 148.569411 50.293711 
L 148.671664 49.971058 
L 148.74176 49.863508 
L 148.85071 49.732056 
L 148.935962 49.624505 
L 149.037247 49.481104 
L 149.103899 49.373553 
L 149.20042 49.218202 
L 149.336487 49.110651 
L 149.445983 48.907499 
L 149.524691 48.799948 
L 149.629578 48.656547 
L 149.704195 48.548996 
L 149.814414 48.250244 
L 149.870156 48.142693 
L 149.978876 47.999291 
L 150.171944 47.89174 
L 150.2692 47.79614 
L 150.337403 47.688589 
L 150.44753 47.545187 
L 150.537501 47.437637 
L 150.645762 47.294235 
L 150.736348 47.186684 
L 150.842826 47.055233 
L 150.909098 46.947682 
L 151.019831 46.780381 
L 151.105108 46.67283 
L 151.204262 46.529429 
L 151.261204 46.421878 
L 151.363327 46.302377 
L 151.417991 46.194826 
L 151.52444 46.003624 
L 151.612204 45.896073 
L 151.708849 45.716822 
L 151.809181 45.609271 
L 151.914811 45.394169 
L 152.012013 45.286618 
L 152.122156 45.059566 
L 152.224748 44.952015 
L 152.331263 44.713013 
L 152.408133 44.605462 
L 152.496504 44.485961 
L 152.557819 44.37841 
L 152.652876 44.258909 
L 152.75407 44.151358 
L 152.852146 44.007957 
L 152.970486 43.900406 
L 153.080465 43.637504 
L 153.164176 43.529953 
L 153.269414 43.350701 
L 153.431782 43.24315 
L 153.531294 43.075849 
L 153.594774 42.968298 
L 153.696379 42.836847 
L 153.752841 42.729296 
L 153.841123 42.550044 
L 153.90576 42.442493 
L 154.000707 42.263242 
L 154.106515 42.155691 
L 154.216352 42.03619 
L 154.306174 41.928639 
L 154.40827 41.689637 
L 154.518666 41.582086 
L 154.627366 41.414784 
L 154.690873 41.307234 
L 154.751952 41.211633 
L 154.912415 41.104082 
L 155.009506 40.972631 
L 155.100093 40.86508 
L 155.196091 40.781429 
L 155.296395 40.673878 
L 155.400185 40.518527 
L 155.521958 40.410976 
L 155.632149 40.243674 
L 155.738443 40.136123 
L 155.837812 39.932972 
L 155.934923 39.825421 
L 156.045309 39.622269 
L 156.129194 39.514718 
L 156.235268 39.347417 
L 156.333977 39.239866 
L 156.439929 39.012814 
L 156.506322 38.905263 
L 156.608667 38.749911 
L 156.717828 38.64236 
L 156.819202 38.498959 
L 156.962122 38.391408 
L 157.066166 38.319708 
L 157.170864 38.212157 
L 157.277135 38.032905 
L 157.333509 37.925354 
L 157.433123 37.710252 
L 157.572007 37.602702 
L 157.639486 37.47125 
L 157.75884 37.363699 
L 157.852429 37.232248 
L 157.947863 37.124697 
L 158.046708 37.005196 
L 158.148183 36.897645 
L 158.253192 36.718394 
L 158.318551 36.610843 
L 158.417659 36.479392 
L 158.501041 36.371841 
L 158.575346 36.24039 
L 158.732493 36.132839 
L 158.823138 36.085038 
L 158.88565 35.977487 
L 158.979482 35.798236 
L 159.077392 35.690685 
L 159.173139 35.571184 
L 159.247037 35.463633 
L 159.355645 35.260481 
L 159.453573 35.15293 
L 159.554584 34.997579 
L 159.611002 34.890028 
L 159.711205 34.710776 
L 159.81031 34.603226 
L 159.909412 34.340323 
L 159.974348 34.232772 
L 160.076199 34.125221 
L 160.216446 34.017671 
L 160.325508 33.850369 
L 160.492706 33.742818 
L 160.584111 33.599417 
L 160.720259 33.491866 
L 160.826841 33.360415 
L 160.923404 33.252864 
L 161.005609 33.169213 
L 161.130102 33.061662 
L 161.238319 32.894361 
L 161.299647 32.78681 
L 161.409329 32.643409 
L 161.487701 32.535858 
L 161.58918 32.392456 
L 161.676366 32.284906 
L 161.775258 32.141504 
L 161.868056 32.033953 
L 161.966254 31.914452 
L 162.092744 31.806901 
L 162.198232 31.711301 
L 162.284818 31.60375 
L 162.382587 31.484249 
L 162.474982 31.376698 
L 162.573108 31.245247 
L 162.674224 31.137696 
L 162.73457 31.030145 
L 162.85753 30.922594 
L 162.957497 30.803093 
L 163.073801 30.695542 
L 163.181842 30.552141 
L 163.257293 30.44459 
L 163.367819 30.337039 
L 163.469499 30.229488 
L 163.575933 30.098037 
L 163.664534 29.990486 
L 163.769104 29.906835 
L 163.841465 29.799284 
L 163.930399 29.691733 
L 164.03404 29.584182 
L 164.145035 29.38103 
L 164.256894 29.273479 
L 164.35845 29.142028 
L 164.462385 29.034477 
L 164.551794 28.867176 
L 164.68501 28.759625 
L 164.779682 28.628174 
L 164.870054 28.520623 
L 164.969972 28.329421 
L 165.114736 28.22187 
L 165.215908 28.066519 
L 165.333057 27.958968 
L 165.42975 27.863367 
L 165.565373 27.755816 
L 165.660777 27.648265 
L 165.782969 27.540714 
L 165.880418 27.433164 
L 166.015326 27.325613 
L 166.122137 27.110511 
L 166.209397 27.00296 
L 166.305379 26.883459 
L 166.429928 26.775908 
L 166.536629 26.704207 
L 166.58871 26.596656 
L 166.682786 26.489105 
L 166.806895 26.381554 
L 166.913135 26.238153 
L 167.006949 26.130602 
L 167.103456 25.999151 
L 167.182638 25.8916 
L 167.283591 25.688448 
L 167.390335 25.580898 
L 167.479982 25.473347 
L 167.586336 25.365796 
L 167.690963 25.246295 
L 167.80745 25.138744 
L 167.911097 24.899742 
L 168.008597 24.792191 
L 168.113658 24.636839 
L 168.190452 24.529288 
L 168.283346 24.457588 
L 168.402533 24.350037 
L 168.500549 24.242486 
L 168.63646 24.134935 
L 168.746322 24.087135 
L 168.851057 23.979584 
L 168.951478 23.800332 
L 169.210797 23.692781 
L 169.289281 23.56133 
L 169.515482 23.453779 
L 169.626366 23.286478 
L 169.769608 23.178927 
L 169.841861 23.095276 
L 169.95706 22.987725 
L 170.051924 22.927975 
L 170.247669 22.820424 
L 170.347898 22.736773 
L 170.507077 22.629222 
L 170.605471 22.43802 
L 170.682736 22.330469 
L 170.773955 22.246819 
L 170.919527 22.139268 
L 171.01026 21.983916 
L 171.127008 21.876366 
L 171.233477 21.792715 
L 171.365717 21.685164 
L 171.472007 21.541763 
L 171.697119 21.434212 
L 171.793255 21.302761 
L 171.949465 21.19521 
L 172.047935 21.123509 
L 172.145342 21.015958 
L 172.254757 20.932307 
L 172.414326 20.824756 
L 172.522662 20.681355 
L 172.651982 20.573804 
L 172.730439 20.454303 
L 172.910652 20.346752 
L 173.005687 20.251151 
L 173.201603 20.143601 
L 173.263636 20.0719 
L 173.533942 19.964349 
L 173.636659 19.856798 
L 173.709838 19.749247 
L 173.763644 19.629746 
L 173.993507 19.522195 
L 174.032162 19.486345 
L 174.32466 19.378794 
L 174.434169 19.271243 
L 174.620484 19.163692 
L 174.666269 19.139792 
L 174.882528 19.032241 
L 174.961152 18.984441 
L 175.12672 18.87689 
L 175.225443 18.721538 
L 175.436483 18.613987 
L 175.526126 18.542287 
L 175.695466 18.434736 
L 175.776007 18.374985 
L 176.039164 18.267434 
L 176.132891 18.112083 
L 176.261497 18.004532 
L 176.366947 17.932831 
L 176.559646 17.82528 
L 176.646916 17.75358 
L 176.912038 17.646029 
L 177.006272 17.574328 
L 177.132488 17.466777 
L 177.22168 17.407027 
L 177.381613 17.299476 
L 177.485474 17.227775 
L 177.786574 17.120224 
L 177.88065 17.036574 
L 178.108502 16.929023 
L 178.20324 16.881222 
L 178.467864 16.773671 
L 178.508193 16.713921 
L 179.09101 16.60637 
L 179.175173 16.55857 
L 179.400736 16.451019 
L 179.498624 16.403218 
L 179.767183 16.295667 
L 179.869247 16.200066 
L 180.165669 16.092516 
L 180.257625 16.032765 
L 180.454889 15.925214 
L 180.548598 15.889364 
L 181.012031 15.781813 
L 181.10199 15.722062 
L 181.480351 15.614511 
L 181.568568 15.566711 
L 182.062012 15.45916 
L 182.117031 15.43526 
L 182.554554 15.327709 
L 182.640359 15.291859 
L 182.985118 15.184308 
L 183.019375 15.160407 
L 183.646717 15.052857 
L 183.722138 15.028956 
L 184.353824 14.921405 
L 184.353824 14.909455 
L 185.336951 14.801904 
L 185.44014 14.754104 
L 185.986876 14.646553 
L 185.986876 14.634603 
L 187.039747 14.527052 
L 187.039747 14.515102 
L 189.895733 14.407551 
L 189.895733 14.395601 
L 195.011136 14.31195 
L 195.011136 14.3 
" style="fill:none;stroke:#7570b3;stroke-linecap:square;stroke-width:1.5;"/>
   </g>
   <g id="line2d_11">
    <path clip-path="url(#p5d8cffc9d4)" d="M 51.833864 176.2 
L 51.833864 171.574286 
L 52.985484 171.574286 
L 52.985484 166.948571 
L 53.608092 166.948571 
L 53.608092 162.322857 
L 53.898561 162.322857 
L 53.898561 157.697143 
L 53.97037 157.697143 
L 53.97037 153.071429 
L 56.513155 153.071429 
L 56.513155 148.445714 
L 57.131193 148.445714 
L 57.131193 143.82 
L 57.234947 143.82 
L 57.234947 139.194286 
L 58.524176 139.194286 
L 58.524176 134.568571 
L 61.328842 134.568571 
L 61.328842 129.942857 
L 61.504611 129.942857 
L 61.504611 125.317143 
L 62.281442 125.317143 
L 62.281442 120.691429 
L 63.152775 120.691429 
L 63.152775 116.065714 
L 65.062496 116.065714 
L 65.062496 111.44 
L 65.995248 111.44 
L 65.995248 106.814286 
L 67.28021 106.814286 
L 67.28021 102.188571 
L 68.372477 102.188571 
L 68.372477 97.562857 
L 68.486427 97.562857 
L 68.486427 92.937143 
L 70.093382 92.937143 
L 70.093382 88.311429 
L 70.688909 88.311429 
L 70.688909 83.685714 
L 76.599202 83.685714 
L 76.599202 79.06 
L 78.646516 79.06 
L 78.646516 74.434286 
L 80.130635 74.434286 
L 80.130635 69.808571 
L 80.946242 69.808571 
L 80.946242 65.182857 
L 87.47674 65.182857 
L 87.47674 60.557143 
L 89.939407 60.557143 
L 89.939407 55.931429 
L 96.508375 55.931429 
L 96.508375 51.305714 
L 98.367277 51.305714 
L 98.367277 46.68 
L 100.726783 46.68 
L 100.726783 42.054286 
L 124.017617 42.054286 
L 124.017617 37.428571 
L 127.584013 37.428571 
L 127.584013 32.802857 
L 134.972628 32.802857 
L 134.972628 28.177143 
L 136.520606 28.177143 
L 136.520606 23.551429 
L 146.872347 23.551429 
L 146.872347 18.925714 
L 149.138295 18.925714 
L 149.138295 14.3 
" style="fill:none;stroke:#d95f02;stroke-linecap:square;stroke-width:1.5;"/>
   </g>
   <g id="line2d_12">
    <path clip-path="url(#p5d8cffc9d4)" d="M 51.833864 176.2 
L 51.833864 173.819118 
L 51.967373 173.819118 
L 51.967373 170.247794 
L 52.196403 170.247794 
L 52.196403 163.105147 
L 52.340342 163.105147 
L 52.340342 161.914706 
L 52.520944 161.914706 
L 52.55889 159.533824 
L 52.823981 159.533824 
L 52.883379 155.9625 
L 53.111858 155.9625 
L 53.111858 153.581618 
L 53.413436 153.581618 
L 53.510747 151.200735 
L 53.548694 151.200735 
L 53.608092 145.248529 
L 53.836466 145.248529 
L 53.937602 138.105882 
L 54.096657 138.105882 
L 54.198692 132.153676 
L 54.235251 132.153676 
L 54.33014 128.582353 
L 54.360109 128.582353 
L 54.46352 126.201471 
L 54.597424 126.201471 
L 54.664946 123.820588 
L 54.741073 123.820588 
L 54.847093 116.677941 
L 55.228217 116.677941 
L 55.247107 114.297059 
L 55.339841 114.297059 
L 55.339841 113.106618 
L 55.495694 113.106618 
L 55.583333 109.535294 
L 55.62423 109.535294 
L 55.701698 104.773529 
L 55.787551 104.773529 
L 55.837784 102.392647 
L 55.923551 102.392647 
L 55.99972 98.821324 
L 56.250757 98.821324 
L 56.250757 97.630882 
L 56.413973 97.630882 
L 56.413973 96.440441 
L 56.595905 96.440441 
L 56.595905 95.25 
L 57.280755 95.25 
L 57.280755 94.059559 
L 57.652717 94.059559 
L 57.652717 92.869118 
L 57.869562 92.869118 
L 57.869562 91.678676 
L 58.27084 91.678676 
L 58.27084 90.488235 
L 58.495377 90.488235 
L 58.495377 89.297794 
L 58.813682 89.297794 
L 58.813682 88.107353 
L 58.94061 88.107353 
L 58.94061 86.916912 
L 60.606332 86.916912 
L 60.606332 85.726471 
L 60.728474 85.726471 
L 60.741782 82.155147 
L 60.851196 82.155147 
L 60.851196 80.964706 
L 61.252688 80.964706 
L 61.263016 77.393382 
L 61.797962 77.393382 
L 61.907663 75.0125 
L 63.217 75.0125 
L 63.217 73.822059 
L 63.909652 73.822059 
L 63.909652 72.631618 
L 64.076988 72.631618 
L 64.130227 70.250735 
L 64.255567 70.250735 
L 64.255567 69.060294 
L 64.819926 69.060294 
L 64.819926 67.869853 
L 65.129509 67.869853 
L 65.129509 66.679412 
L 65.747046 66.679412 
L 65.814494 63.108088 
L 66.231121 63.108088 
L 66.231121 61.917647 
L 67.16444 61.917647 
L 67.16444 60.727206 
L 68.049863 60.727206 
L 68.049863 59.536765 
L 69.955189 59.536765 
L 69.955189 58.346324 
L 70.688909 58.346324 
L 70.767482 55.965441 
L 73.739956 55.965441 
L 73.739956 54.775 
L 75.618437 54.775 
L 75.618437 53.584559 
L 77.085587 53.584559 
L 77.085587 52.394118 
L 81.249656 52.394118 
L 81.249656 51.203676 
L 85.553557 51.203676 
L 85.553557 50.013235 
L 86.90267 50.013235 
L 86.90267 48.822794 
L 87.883078 48.822794 
L 87.883078 47.632353 
L 88.192872 47.632353 
L 88.192872 46.441912 
L 88.75974 46.441912 
L 88.75974 45.251471 
L 89.101852 45.251471 
L 89.204458 42.870588 
L 90.67907 42.870588 
L 90.67907 41.680147 
L 91.564599 41.680147 
L 91.564599 40.489706 
L 92.042304 40.489706 
L 92.042304 39.299265 
L 92.393784 39.299265 
L 92.393784 38.108824 
L 93.89972 38.108824 
L 93.89972 36.918382 
L 95.470252 36.918382 
L 95.494184 34.5375 
L 95.964832 34.5375 
L 95.964832 33.347059 
L 96.353737 33.347059 
L 96.353737 32.156618 
L 96.778388 32.156618 
L 96.778388 30.966176 
L 98.717812 30.966176 
L 98.717812 29.775735 
L 99.908652 29.775735 
L 99.908652 28.585294 
L 113.478368 28.585294 
L 113.478368 27.394853 
L 114.936012 27.394853 
L 114.936012 26.204412 
L 118.425019 26.204412 
L 118.425019 25.013971 
L 122.367128 25.013971 
L 122.367128 23.823529 
L 124.05604 23.823529 
L 124.05604 22.633088 
L 136.016022 22.633088 
L 136.016022 21.442647 
L 138.550614 21.442647 
L 138.550614 20.252206 
L 140.335343 20.252206 
L 140.335343 19.061765 
L 145.397586 19.061765 
L 145.397586 17.871324 
L 149.380419 17.871324 
L 149.380419 16.680882 
L 170.385387 16.680882 
L 170.385387 15.490441 
L 175.84513 15.490441 
L 175.84513 14.3 
L 175.84513 14.3 
" style="fill:none;stroke:#1b9e77;stroke-linecap:square;stroke-width:1.5;"/>
   </g>
   <g id="patch_3">
    <path d="M 44.675 176.2 
L 44.675 14.3 
" style="fill:none;stroke:#000000;stroke-linecap:square;stroke-linejoin:miter;stroke-width:0.8;"/>
   </g>
   <g id="patch_4">
    <path d="M 44.675 176.2 
L 202.17 176.2 
" style="fill:none;stroke:#000000;stroke-linecap:square;stroke-linejoin:miter;stroke-width:0.8;"/>
   </g>
  </g>
  <g id="legend_1">
   <g id="text_12">
    <!-- resid -->
    <g transform="translate(243.874219 89.308594)scale(0.1 -0.1)">
     <defs>
      <path d="M 3.078125 15.484375 
L 11.765625 16.84375 
Q 12.5 11.625 15.84375 8.84375 
Q 19.1875 6.0625 25.203125 6.0625 
Q 31.25 6.0625 34.171875 8.515625 
Q 37.109375 10.984375 37.109375 14.3125 
Q 37.109375 17.28125 34.515625 19 
Q 32.71875 20.171875 25.53125 21.96875 
Q 15.875 24.421875 12.140625 26.203125 
Q 8.40625 27.984375 6.46875 31.125 
Q 4.546875 34.28125 4.546875 38.09375 
Q 4.546875 41.546875 6.125 44.5 
Q 7.71875 47.46875 10.453125 49.421875 
Q 12.5 50.921875 16.03125 51.96875 
Q 19.578125 53.03125 23.640625 53.03125 
Q 29.734375 53.03125 34.34375 51.265625 
Q 38.96875 49.515625 41.15625 46.5 
Q 43.359375 43.5 44.1875 38.484375 
L 35.59375 37.3125 
Q 35.015625 41.3125 32.203125 43.546875 
Q 29.390625 45.796875 24.265625 45.796875 
Q 18.21875 45.796875 15.625 43.796875 
Q 13.03125 41.796875 13.03125 39.109375 
Q 13.03125 37.40625 14.109375 36.03125 
Q 15.1875 34.625 17.484375 33.6875 
Q 18.796875 33.203125 25.25 31.453125 
Q 34.578125 28.953125 38.25 27.359375 
Q 41.9375 25.78125 44.03125 22.75 
Q 46.140625 19.734375 46.140625 15.234375 
Q 46.140625 10.84375 43.578125 6.953125 
Q 41.015625 3.078125 36.171875 0.953125 
Q 31.34375 -1.171875 25.25 -1.171875 
Q 15.140625 -1.171875 9.84375 3.03125 
Q 4.546875 7.234375 3.078125 15.484375 
z
" id="ArialMT-115"/>
      <path d="M 40.234375 0 
L 40.234375 6.546875 
Q 35.296875 -1.171875 25.734375 -1.171875 
Q 19.53125 -1.171875 14.328125 2.25 
Q 9.125 5.671875 6.265625 11.796875 
Q 3.421875 17.921875 3.421875 25.875 
Q 3.421875 33.640625 6 39.96875 
Q 8.59375 46.296875 13.765625 49.65625 
Q 18.953125 53.03125 25.34375 53.03125 
Q 30.03125 53.03125 33.6875 51.046875 
Q 37.359375 49.078125 39.65625 45.90625 
L 39.65625 71.578125 
L 48.390625 71.578125 
L 48.390625 0 
z
M 12.453125 25.875 
Q 12.453125 15.921875 16.640625 10.984375 
Q 20.84375 6.0625 26.5625 6.0625 
Q 32.328125 6.0625 36.34375 10.765625 
Q 40.375 15.484375 40.375 25.140625 
Q 40.375 35.796875 36.265625 40.765625 
Q 32.171875 45.75 26.171875 45.75 
Q 20.3125 45.75 16.375 40.96875 
Q 12.453125 36.1875 12.453125 25.875 
z
" id="ArialMT-100"/>
     </defs>
     <use xlink:href="#ArialMT-114"/>
     <use x="33.300781" xlink:href="#ArialMT-101"/>
     <use x="88.916016" xlink:href="#ArialMT-115"/>
     <use x="138.916016" xlink:href="#ArialMT-105"/>
     <use x="161.132812" xlink:href="#ArialMT-100"/>
    </g>
   </g>
   <g id="line2d_13">
    <path d="M 215.421875 99.953906 
L 235.421875 99.953906 
" style="fill:none;stroke:#1b9e77;stroke-linecap:square;stroke-width:1.5;"/>
   </g>
   <g id="line2d_14"/>
   <g id="text_13">
    <!-- active site -->
    <g transform="translate(243.421875 103.453906)scale(0.1 -0.1)">
     <defs>
      <path d="M 40.4375 6.390625 
Q 35.546875 2.25 31.03125 0.53125 
Q 26.515625 -1.171875 21.34375 -1.171875 
Q 12.796875 -1.171875 8.203125 3 
Q 3.609375 7.171875 3.609375 13.671875 
Q 3.609375 17.484375 5.34375 20.625 
Q 7.078125 23.78125 9.890625 25.6875 
Q 12.703125 27.59375 16.21875 28.5625 
Q 18.796875 29.25 24.03125 29.890625 
Q 34.671875 31.15625 39.703125 32.90625 
Q 39.75 34.71875 39.75 35.203125 
Q 39.75 40.578125 37.25 42.78125 
Q 33.890625 45.75 27.25 45.75 
Q 21.046875 45.75 18.09375 43.578125 
Q 15.140625 41.40625 13.71875 35.890625 
L 5.125 37.0625 
Q 6.296875 42.578125 8.984375 45.96875 
Q 11.671875 49.359375 16.75 51.1875 
Q 21.828125 53.03125 28.515625 53.03125 
Q 35.15625 53.03125 39.296875 51.46875 
Q 43.453125 49.90625 45.40625 47.53125 
Q 47.359375 45.171875 48.140625 41.546875 
Q 48.578125 39.3125 48.578125 33.453125 
L 48.578125 21.734375 
Q 48.578125 9.46875 49.140625 6.21875 
Q 49.703125 2.984375 51.375 0 
L 42.1875 0 
Q 40.828125 2.734375 40.4375 6.390625 
z
M 39.703125 26.03125 
Q 34.90625 24.078125 25.34375 22.703125 
Q 19.921875 21.921875 17.671875 20.9375 
Q 15.4375 19.96875 14.203125 18.09375 
Q 12.984375 16.21875 12.984375 13.921875 
Q 12.984375 10.40625 15.640625 8.0625 
Q 18.3125 5.71875 23.4375 5.71875 
Q 28.515625 5.71875 32.46875 7.9375 
Q 36.421875 10.15625 38.28125 14.015625 
Q 39.703125 17 39.703125 22.796875 
z
" id="ArialMT-97"/>
      <path d="M 40.4375 19 
L 49.078125 17.875 
Q 47.65625 8.9375 41.8125 3.875 
Q 35.984375 -1.171875 27.484375 -1.171875 
Q 16.84375 -1.171875 10.375 5.78125 
Q 3.90625 12.75 3.90625 25.734375 
Q 3.90625 34.125 6.6875 40.421875 
Q 9.46875 46.734375 15.15625 49.875 
Q 20.84375 53.03125 27.546875 53.03125 
Q 35.984375 53.03125 41.359375 48.75 
Q 46.734375 44.484375 48.25 36.625 
L 39.703125 35.296875 
Q 38.484375 40.53125 35.375 43.15625 
Q 32.28125 45.796875 27.875 45.796875 
Q 21.234375 45.796875 17.078125 41.03125 
Q 12.9375 36.28125 12.9375 25.984375 
Q 12.9375 15.53125 16.9375 10.796875 
Q 20.953125 6.0625 27.390625 6.0625 
Q 32.5625 6.0625 36.03125 9.234375 
Q 39.5 12.40625 40.4375 19 
z
" id="ArialMT-99"/>
      <path d="M 21 0 
L 1.265625 51.859375 
L 10.546875 51.859375 
L 21.6875 20.796875 
Q 23.484375 15.765625 25 10.359375 
Q 26.171875 14.453125 28.265625 20.21875 
L 39.796875 51.859375 
L 48.828125 51.859375 
L 29.203125 0 
z
" id="ArialMT-118"/>
      <path id="ArialMT-32"/>
     </defs>
     <use xlink:href="#ArialMT-97"/>
     <use x="55.615234" xlink:href="#ArialMT-99"/>
     <use x="105.615234" xlink:href="#ArialMT-116"/>
     <use x="133.398438" xlink:href="#ArialMT-105"/>
     <use x="155.615234" xlink:href="#ArialMT-118"/>
     <use x="205.615234" xlink:href="#ArialMT-101"/>
     <use x="261.230469" xlink:href="#ArialMT-32"/>
     <use x="289.013672" xlink:href="#ArialMT-115"/>
     <use x="339.013672" xlink:href="#ArialMT-105"/>
     <use x="361.230469" xlink:href="#ArialMT-116"/>
     <use x="389.013672" xlink:href="#ArialMT-101"/>
    </g>
   </g>
   <g id="line2d_15">
    <path d="M 215.421875 114.099219 
L 235.421875 114.099219 
" style="fill:none;stroke:#d95f02;stroke-linecap:square;stroke-width:1.5;"/>
   </g>
   <g id="line2d_16"/>
   <g id="text_14">
    <!-- coenzyme -->
    <g transform="translate(243.421875 117.599219)scale(0.1 -0.1)">
     <defs>
      <path d="M 1.953125 0 
L 1.953125 7.125 
L 34.96875 45.015625 
Q 29.34375 44.734375 25.046875 44.734375 
L 3.90625 44.734375 
L 3.90625 51.859375 
L 46.296875 51.859375 
L 46.296875 46.046875 
L 18.21875 13.140625 
L 12.796875 7.125 
Q 18.703125 7.5625 23.875 7.5625 
L 47.859375 7.5625 
L 47.859375 0 
z
" id="ArialMT-122"/>
      <path d="M 6.59375 0 
L 6.59375 51.859375 
L 14.453125 51.859375 
L 14.453125 44.578125 
Q 16.890625 48.390625 20.9375 50.703125 
Q 25 53.03125 30.171875 53.03125 
Q 35.9375 53.03125 39.625 50.640625 
Q 43.3125 48.25 44.828125 43.953125 
Q 50.984375 53.03125 60.84375 53.03125 
Q 68.5625 53.03125 72.703125 48.75 
Q 76.859375 44.484375 76.859375 35.59375 
L 76.859375 0 
L 68.109375 0 
L 68.109375 32.671875 
Q 68.109375 37.9375 67.25 40.25 
Q 66.40625 42.578125 64.15625 43.984375 
Q 61.921875 45.40625 58.890625 45.40625 
Q 53.421875 45.40625 49.796875 41.765625 
Q 46.1875 38.140625 46.1875 30.125 
L 46.1875 0 
L 37.40625 0 
L 37.40625 33.6875 
Q 37.40625 39.546875 35.25 42.46875 
Q 33.109375 45.40625 28.21875 45.40625 
Q 24.515625 45.40625 21.359375 43.453125 
Q 18.21875 41.5 16.796875 37.734375 
Q 15.375 33.984375 15.375 26.90625 
L 15.375 0 
z
" id="ArialMT-109"/>
     </defs>
     <use xlink:href="#ArialMT-99"/>
     <use x="50" xlink:href="#ArialMT-111"/>
     <use x="105.615234" xlink:href="#ArialMT-101"/>
     <use x="161.230469" xlink:href="#ArialMT-110"/>
     <use x="216.845703" xlink:href="#ArialMT-122"/>
     <use x="266.845703" xlink:href="#ArialMT-121"/>
     <use x="316.845703" xlink:href="#ArialMT-109"/>
     <use x="400.146484" xlink:href="#ArialMT-101"/>
    </g>
   </g>
   <g id="line2d_17">
    <path d="M 215.421875 128.361719 
L 235.421875 128.361719 
" style="fill:none;stroke:#7570b3;stroke-linecap:square;stroke-width:1.5;"/>
   </g>
   <g id="line2d_18"/>
   <g id="text_15">
    <!-- all residues -->
    <g transform="translate(243.421875 131.861719)scale(0.1 -0.1)">
     <defs>
      <path d="M 6.390625 0 
L 6.390625 71.578125 
L 15.1875 71.578125 
L 15.1875 0 
z
" id="ArialMT-108"/>
      <path d="M 40.578125 0 
L 40.578125 7.625 
Q 34.515625 -1.171875 24.125 -1.171875 
Q 19.53125 -1.171875 15.546875 0.578125 
Q 11.578125 2.34375 9.640625 5 
Q 7.71875 7.671875 6.9375 11.53125 
Q 6.390625 14.109375 6.390625 19.734375 
L 6.390625 51.859375 
L 15.1875 51.859375 
L 15.1875 23.09375 
Q 15.1875 16.21875 15.71875 13.8125 
Q 16.546875 10.359375 19.234375 8.375 
Q 21.921875 6.390625 25.875 6.390625 
Q 29.828125 6.390625 33.296875 8.421875 
Q 36.765625 10.453125 38.203125 13.9375 
Q 39.65625 17.4375 39.65625 24.078125 
L 39.65625 51.859375 
L 48.4375 51.859375 
L 48.4375 0 
z
" id="ArialMT-117"/>
     </defs>
     <use xlink:href="#ArialMT-97"/>
     <use x="55.615234" xlink:href="#ArialMT-108"/>
     <use x="77.832031" xlink:href="#ArialMT-108"/>
     <use x="100.048828" xlink:href="#ArialMT-32"/>
     <use x="127.832031" xlink:href="#ArialMT-114"/>
     <use x="161.132812" xlink:href="#ArialMT-101"/>
     <use x="216.748047" xlink:href="#ArialMT-115"/>
     <use x="266.748047" xlink:href="#ArialMT-105"/>
     <use x="288.964844" xlink:href="#ArialMT-100"/>
     <use x="344.580078" xlink:href="#ArialMT-117"/>
     <use x="400.195312" xlink:href="#ArialMT-101"/>
     <use x="455.810547" xlink:href="#ArialMT-115"/>
    </g>
   </g>
  </g>
 </g>
 <defs>
  <clipPath id="p5d8cffc9d4">
   <rect height="161.9" width="157.495" x="44.675" y="14.3"/>
  </clipPath>
 </defs>
</svg>
