<?xml version="1.0" encoding="utf-8" standalone="no"?>
<!DOCTYPE svg PUBLIC "-//W3C//DTD SVG 1.1//EN"
  "http://www.w3.org/Graphics/SVG/1.1/DTD/svg11.dtd">
<!-- Created with matplotlib (https://matplotlib.org/) -->
<svg height="216pt" version="1.1" viewBox="0 0 303 216" width="303pt" xmlns="http://www.w3.org/2000/svg" xmlns:xlink="http://www.w3.org/1999/xlink">
 <metadata>
  <rdf:RDF xmlns:cc="http://creativecommons.org/ns#" xmlns:dc="http://purl.org/dc/elements/1.1/" xmlns:rdf="http://www.w3.org/1999/02/22-rdf-syntax-ns#">
   <cc:Work>
    <dc:type rdf:resource="http://purl.org/dc/dcmitype/StillImage"/>
    <dc:date>2021-10-19T13:26:00.048678</dc:date>
    <dc:format>image/svg+xml</dc:format>
    <dc:creator>
     <cc:Agent>
      <dc:title>Matplotlib v3.3.4, https://matplotlib.org/</dc:title>
     </cc:Agent>
    </dc:creator>
   </cc:Work>
  </rdf:RDF>
 </metadata>
 <defs>
  <style type="text/css">*{stroke-linecap:butt;stroke-linejoin:round;}</style>
 </defs>
 <g id="figure_1">
  <g id="patch_1">
   <path d="M 0 216 
L 303 216 
L 303 0 
L 0 0 
z
" style="fill:none;"/>
  </g>
  <g id="axes_1">
   <g id="patch_2">
    <path d="M 44.675 176.2 
L 200.732455 176.2 
L 200.732455 14.3 
L 44.675 14.3 
z
" style="fill:#ffffff;"/>
   </g>
   <g id="matplotlib.axis_1">
    <g id="xtick_1">
     <g id="line2d_1">
      <defs>
       <path d="M 0 0 
L 0 3.5 
" id="m822a020767" style="stroke:#000000;stroke-width:0.8;"/>
      </defs>
      <g>
       <use style="stroke:#000000;stroke-width:0.8;" x="47.453087" xlink:href="#m822a020767" y="176.2"/>
      </g>
     </g>
     <g id="text_1">
      <!-- 0 -->
      <g transform="translate(44.672618 190.357812)scale(0.1 -0.1)">
       <defs>
        <path d="M 4.15625 35.296875 
Q 4.15625 48 6.765625 55.734375 
Q 9.375 63.484375 14.515625 67.671875 
Q 19.671875 71.875 27.484375 71.875 
Q 33.25 71.875 37.59375 69.546875 
Q 41.9375 67.234375 44.765625 62.859375 
Q 47.609375 58.5 49.21875 52.21875 
Q 50.828125 45.953125 50.828125 35.296875 
Q 50.828125 22.703125 48.234375 14.96875 
Q 45.65625 7.234375 40.5 3 
Q 35.359375 -1.21875 27.484375 -1.21875 
Q 17.140625 -1.21875 11.234375 6.203125 
Q 4.15625 15.140625 4.15625 35.296875 
z
M 13.1875 35.296875 
Q 13.1875 17.671875 17.3125 11.828125 
Q 21.4375 6 27.484375 6 
Q 33.546875 6 37.671875 11.859375 
Q 41.796875 17.71875 41.796875 35.296875 
Q 41.796875 52.984375 37.671875 58.78125 
Q 33.546875 64.59375 27.390625 64.59375 
Q 21.34375 64.59375 17.71875 59.46875 
Q 13.1875 52.9375 13.1875 35.296875 
z
" id="ArialMT-48"/>
       </defs>
       <use xlink:href="#ArialMT-48"/>
      </g>
     </g>
    </g>
    <g id="xtick_2">
     <g id="line2d_2">
      <g>
       <use style="stroke:#000000;stroke-width:0.8;" x="98.121828" xlink:href="#m822a020767" y="176.2"/>
      </g>
     </g>
     <g id="text_2">
      <!-- 1 -->
      <g transform="translate(95.341359 190.357812)scale(0.1 -0.1)">
       <defs>
        <path d="M 37.25 0 
L 28.46875 0 
L 28.46875 56 
Q 25.296875 52.984375 20.140625 49.953125 
Q 14.984375 46.921875 10.890625 45.40625 
L 10.890625 53.90625 
Q 18.265625 57.375 23.78125 62.296875 
Q 29.296875 67.234375 31.59375 71.875 
L 37.25 71.875 
z
" id="ArialMT-49"/>
       </defs>
       <use xlink:href="#ArialMT-49"/>
      </g>
     </g>
    </g>
    <g id="xtick_3">
     <g id="line2d_3">
      <g>
       <use style="stroke:#000000;stroke-width:0.8;" x="148.790569" xlink:href="#m822a020767" y="176.2"/>
      </g>
     </g>
     <g id="text_3">
      <!-- 2 -->
      <g transform="translate(146.0101 190.357812)scale(0.1 -0.1)">
       <defs>
        <path d="M 50.34375 8.453125 
L 50.34375 0 
L 3.03125 0 
Q 2.9375 3.171875 4.046875 6.109375 
Q 5.859375 10.9375 9.828125 15.625 
Q 13.8125 20.3125 21.34375 26.46875 
Q 33.015625 36.03125 37.109375 41.625 
Q 41.21875 47.21875 41.21875 52.203125 
Q 41.21875 57.421875 37.46875 61 
Q 33.734375 64.59375 27.734375 64.59375 
Q 21.390625 64.59375 17.578125 60.78125 
Q 13.765625 56.984375 13.71875 50.25 
L 4.6875 51.171875 
Q 5.609375 61.28125 11.65625 66.578125 
Q 17.71875 71.875 27.9375 71.875 
Q 38.234375 71.875 44.234375 66.15625 
Q 50.25 60.453125 50.25 52 
Q 50.25 47.703125 48.484375 43.546875 
Q 46.734375 39.40625 42.65625 34.8125 
Q 38.578125 30.21875 29.109375 22.21875 
Q 21.1875 15.578125 18.9375 13.203125 
Q 16.703125 10.84375 15.234375 8.453125 
z
" id="ArialMT-50"/>
       </defs>
       <use xlink:href="#ArialMT-50"/>
      </g>
     </g>
    </g>
    <g id="xtick_4">
     <g id="line2d_4">
      <g>
       <use style="stroke:#000000;stroke-width:0.8;" x="199.45931" xlink:href="#m822a020767" y="176.2"/>
      </g>
     </g>
     <g id="text_4">
      <!-- 3 -->
      <g transform="translate(196.678842 190.357812)scale(0.1 -0.1)">
       <defs>
        <path d="M 4.203125 18.890625 
L 12.984375 20.0625 
Q 14.5 12.59375 18.140625 9.296875 
Q 21.78125 6 27 6 
Q 33.203125 6 37.46875 10.296875 
Q 41.75 14.59375 41.75 20.953125 
Q 41.75 27 37.796875 30.921875 
Q 33.84375 34.859375 27.734375 34.859375 
Q 25.25 34.859375 21.53125 33.890625 
L 22.515625 41.609375 
Q 23.390625 41.5 23.921875 41.5 
Q 29.546875 41.5 34.03125 44.421875 
Q 38.53125 47.359375 38.53125 53.46875 
Q 38.53125 58.296875 35.25 61.46875 
Q 31.984375 64.65625 26.8125 64.65625 
Q 21.6875 64.65625 18.265625 61.421875 
Q 14.84375 58.203125 13.875 51.765625 
L 5.078125 53.328125 
Q 6.6875 62.15625 12.390625 67.015625 
Q 18.109375 71.875 26.609375 71.875 
Q 32.46875 71.875 37.390625 69.359375 
Q 42.328125 66.84375 44.9375 62.5 
Q 47.5625 58.15625 47.5625 53.265625 
Q 47.5625 48.640625 45.0625 44.828125 
Q 42.578125 41.015625 37.703125 38.765625 
Q 44.046875 37.3125 47.5625 32.6875 
Q 51.078125 28.078125 51.078125 21.140625 
Q 51.078125 11.765625 44.234375 5.25 
Q 37.40625 -1.265625 26.953125 -1.265625 
Q 17.53125 -1.265625 11.296875 4.34375 
Q 5.078125 9.96875 4.203125 18.890625 
z
" id="ArialMT-51"/>
       </defs>
       <use xlink:href="#ArialMT-51"/>
      </g>
     </g>
    </g>
    <g id="text_5">
     <!-- entropy -->
     <g transform="translate(106.027946 203.385938)scale(0.1 -0.1)">
      <defs>
       <path d="M 42.09375 16.703125 
L 51.171875 15.578125 
Q 49.03125 7.625 43.21875 3.21875 
Q 37.40625 -1.171875 28.375 -1.171875 
Q 17 -1.171875 10.328125 5.828125 
Q 3.65625 12.84375 3.65625 25.484375 
Q 3.65625 38.578125 10.390625 45.796875 
Q 17.140625 53.03125 27.875 53.03125 
Q 38.28125 53.03125 44.875 45.953125 
Q 51.46875 38.875 51.46875 26.03125 
Q 51.46875 25.25 51.421875 23.6875 
L 12.75 23.6875 
Q 13.234375 15.140625 17.578125 10.59375 
Q 21.921875 6.0625 28.421875 6.0625 
Q 33.25 6.0625 36.671875 8.59375 
Q 40.09375 11.140625 42.09375 16.703125 
z
M 13.234375 30.90625 
L 42.1875 30.90625 
Q 41.609375 37.453125 38.875 40.71875 
Q 34.671875 45.796875 27.984375 45.796875 
Q 21.921875 45.796875 17.796875 41.75 
Q 13.671875 37.703125 13.234375 30.90625 
z
" id="ArialMT-101"/>
       <path d="M 6.59375 0 
L 6.59375 51.859375 
L 14.5 51.859375 
L 14.5 44.484375 
Q 20.21875 53.03125 31 53.03125 
Q 35.6875 53.03125 39.625 51.34375 
Q 43.5625 49.65625 45.515625 46.921875 
Q 47.46875 44.1875 48.25 40.4375 
Q 48.734375 37.984375 48.734375 31.890625 
L 48.734375 0 
L 39.9375 0 
L 39.9375 31.546875 
Q 39.9375 36.921875 38.90625 39.578125 
Q 37.890625 42.234375 35.28125 43.8125 
Q 32.671875 45.40625 29.15625 45.40625 
Q 23.53125 45.40625 19.453125 41.84375 
Q 15.375 38.28125 15.375 28.328125 
L 15.375 0 
z
" id="ArialMT-110"/>
       <path d="M 25.78125 7.859375 
L 27.046875 0.09375 
Q 23.34375 -0.6875 20.40625 -0.6875 
Q 15.625 -0.6875 12.984375 0.828125 
Q 10.359375 2.34375 9.28125 4.8125 
Q 8.203125 7.28125 8.203125 15.1875 
L 8.203125 45.015625 
L 1.765625 45.015625 
L 1.765625 51.859375 
L 8.203125 51.859375 
L 8.203125 64.703125 
L 16.9375 69.96875 
L 16.9375 51.859375 
L 25.78125 51.859375 
L 25.78125 45.015625 
L 16.9375 45.015625 
L 16.9375 14.703125 
Q 16.9375 10.9375 17.40625 9.859375 
Q 17.875 8.796875 18.921875 8.15625 
Q 19.96875 7.515625 21.921875 7.515625 
Q 23.390625 7.515625 25.78125 7.859375 
z
" id="ArialMT-116"/>
       <path d="M 6.5 0 
L 6.5 51.859375 
L 14.40625 51.859375 
L 14.40625 44 
Q 17.4375 49.515625 20 51.265625 
Q 22.5625 53.03125 25.640625 53.03125 
Q 30.078125 53.03125 34.671875 50.203125 
L 31.640625 42.046875 
Q 28.421875 43.953125 25.203125 43.953125 
Q 22.3125 43.953125 20.015625 42.21875 
Q 17.71875 40.484375 16.75 37.40625 
Q 15.28125 32.71875 15.28125 27.15625 
L 15.28125 0 
z
" id="ArialMT-114"/>
       <path d="M 3.328125 25.921875 
Q 3.328125 40.328125 11.328125 47.265625 
Q 18.015625 53.03125 27.640625 53.03125 
Q 38.328125 53.03125 45.109375 46.015625 
Q 51.90625 39.015625 51.90625 26.65625 
Q 51.90625 16.65625 48.90625 10.90625 
Q 45.90625 5.171875 40.15625 2 
Q 34.421875 -1.171875 27.640625 -1.171875 
Q 16.75 -1.171875 10.03125 5.8125 
Q 3.328125 12.796875 3.328125 25.921875 
z
M 12.359375 25.921875 
Q 12.359375 15.96875 16.703125 11.015625 
Q 21.046875 6.0625 27.640625 6.0625 
Q 34.1875 6.0625 38.53125 11.03125 
Q 42.875 16.015625 42.875 26.21875 
Q 42.875 35.84375 38.5 40.796875 
Q 34.125 45.75 27.640625 45.75 
Q 21.046875 45.75 16.703125 40.8125 
Q 12.359375 35.890625 12.359375 25.921875 
z
" id="ArialMT-111"/>
       <path d="M 6.59375 -19.875 
L 6.59375 51.859375 
L 14.59375 51.859375 
L 14.59375 45.125 
Q 17.4375 49.078125 21 51.046875 
Q 24.5625 53.03125 29.640625 53.03125 
Q 36.28125 53.03125 41.359375 49.609375 
Q 46.4375 46.1875 49.015625 39.953125 
Q 51.609375 33.734375 51.609375 26.3125 
Q 51.609375 18.359375 48.75 11.984375 
Q 45.90625 5.609375 40.453125 2.21875 
Q 35.015625 -1.171875 29 -1.171875 
Q 24.609375 -1.171875 21.109375 0.6875 
Q 17.625 2.546875 15.375 5.375 
L 15.375 -19.875 
z
M 14.546875 25.640625 
Q 14.546875 15.625 18.59375 10.84375 
Q 22.65625 6.0625 28.421875 6.0625 
Q 34.28125 6.0625 38.453125 11.015625 
Q 42.625 15.96875 42.625 26.375 
Q 42.625 36.28125 38.546875 41.203125 
Q 34.46875 46.140625 28.8125 46.140625 
Q 23.1875 46.140625 18.859375 40.890625 
Q 14.546875 35.640625 14.546875 25.640625 
z
" id="ArialMT-112"/>
       <path d="M 6.203125 -19.96875 
L 5.21875 -11.71875 
Q 8.109375 -12.5 10.25 -12.5 
Q 13.1875 -12.5 14.9375 -11.515625 
Q 16.703125 -10.546875 17.828125 -8.796875 
Q 18.65625 -7.46875 20.515625 -2.25 
Q 20.75 -1.515625 21.296875 -0.09375 
L 1.609375 51.859375 
L 11.078125 51.859375 
L 21.875 21.828125 
Q 23.96875 16.109375 25.640625 9.8125 
Q 27.15625 15.875 29.25 21.625 
L 40.328125 51.859375 
L 49.125 51.859375 
L 29.390625 -0.875 
Q 26.21875 -9.421875 24.46875 -12.640625 
Q 22.125 -17 19.09375 -19.015625 
Q 16.0625 -21.046875 11.859375 -21.046875 
Q 9.328125 -21.046875 6.203125 -19.96875 
z
" id="ArialMT-121"/>
      </defs>
      <use xlink:href="#ArialMT-101"/>
      <use x="55.615234" xlink:href="#ArialMT-110"/>
      <use x="111.230469" xlink:href="#ArialMT-116"/>
      <use x="139.013672" xlink:href="#ArialMT-114"/>
      <use x="172.314453" xlink:href="#ArialMT-111"/>
      <use x="227.929688" xlink:href="#ArialMT-112"/>
      <use x="283.544922" xlink:href="#ArialMT-121"/>
     </g>
    </g>
   </g>
   <g id="matplotlib.axis_2">
    <g id="ytick_1">
     <g id="line2d_5">
      <defs>
       <path d="M 0 0 
L -3.5 0 
" id="mb9b0a473d7" style="stroke:#000000;stroke-width:0.8;"/>
      </defs>
      <g>
       <use style="stroke:#000000;stroke-width:0.8;" x="44.675" xlink:href="#mb9b0a473d7" y="176.2"/>
      </g>
     </g>
     <g id="text_6">
      <!-- 0.0 -->
      <g transform="translate(23.775 179.778906)scale(0.1 -0.1)">
       <defs>
        <path d="M 9.078125 0 
L 9.078125 10.015625 
L 19.09375 10.015625 
L 19.09375 0 
z
" id="ArialMT-46"/>
       </defs>
       <use xlink:href="#ArialMT-48"/>
       <use x="55.615234" xlink:href="#ArialMT-46"/>
       <use x="83.398438" xlink:href="#ArialMT-48"/>
      </g>
     </g>
    </g>
    <g id="ytick_2">
     <g id="line2d_6">
      <g>
       <use style="stroke:#000000;stroke-width:0.8;" x="44.675" xlink:href="#mb9b0a473d7" y="143.82"/>
      </g>
     </g>
     <g id="text_7">
      <!-- 0.2 -->
      <g transform="translate(23.775 147.398906)scale(0.1 -0.1)">
       <use xlink:href="#ArialMT-48"/>
       <use x="55.615234" xlink:href="#ArialMT-46"/>
       <use x="83.398438" xlink:href="#ArialMT-50"/>
      </g>
     </g>
    </g>
    <g id="ytick_3">
     <g id="line2d_7">
      <g>
       <use style="stroke:#000000;stroke-width:0.8;" x="44.675" xlink:href="#mb9b0a473d7" y="111.44"/>
      </g>
     </g>
     <g id="text_8">
      <!-- 0.4 -->
      <g transform="translate(23.775 115.018906)scale(0.1 -0.1)">
       <defs>
        <path d="M 32.328125 0 
L 32.328125 17.140625 
L 1.265625 17.140625 
L 1.265625 25.203125 
L 33.9375 71.578125 
L 41.109375 71.578125 
L 41.109375 25.203125 
L 50.78125 25.203125 
L 50.78125 17.140625 
L 41.109375 17.140625 
L 41.109375 0 
z
M 32.328125 25.203125 
L 32.328125 57.46875 
L 9.90625 25.203125 
z
" id="ArialMT-52"/>
       </defs>
       <use xlink:href="#ArialMT-48"/>
       <use x="55.615234" xlink:href="#ArialMT-46"/>
       <use x="83.398438" xlink:href="#ArialMT-52"/>
      </g>
     </g>
    </g>
    <g id="ytick_4">
     <g id="line2d_8">
      <g>
       <use style="stroke:#000000;stroke-width:0.8;" x="44.675" xlink:href="#mb9b0a473d7" y="79.06"/>
      </g>
     </g>
     <g id="text_9">
      <!-- 0.6 -->
      <g transform="translate(23.775 82.638906)scale(0.1 -0.1)">
       <defs>
        <path d="M 49.75 54.046875 
L 41.015625 53.375 
Q 39.84375 58.546875 37.703125 60.890625 
Q 34.125 64.65625 28.90625 64.65625 
Q 24.703125 64.65625 21.53125 62.3125 
Q 17.390625 59.28125 14.984375 53.46875 
Q 12.59375 47.65625 12.5 36.921875 
Q 15.671875 41.75 20.265625 44.09375 
Q 24.859375 46.4375 29.890625 46.4375 
Q 38.671875 46.4375 44.84375 39.96875 
Q 51.03125 33.5 51.03125 23.25 
Q 51.03125 16.5 48.125 10.71875 
Q 45.21875 4.9375 40.140625 1.859375 
Q 35.0625 -1.21875 28.609375 -1.21875 
Q 17.625 -1.21875 10.6875 6.859375 
Q 3.765625 14.9375 3.765625 33.5 
Q 3.765625 54.25 11.421875 63.671875 
Q 18.109375 71.875 29.4375 71.875 
Q 37.890625 71.875 43.28125 67.140625 
Q 48.6875 62.40625 49.75 54.046875 
z
M 13.875 23.1875 
Q 13.875 18.65625 15.796875 14.5 
Q 17.71875 10.359375 21.1875 8.171875 
Q 24.65625 6 28.46875 6 
Q 34.03125 6 38.03125 10.484375 
Q 42.046875 14.984375 42.046875 22.703125 
Q 42.046875 30.125 38.078125 34.390625 
Q 34.125 38.671875 28.125 38.671875 
Q 22.171875 38.671875 18.015625 34.390625 
Q 13.875 30.125 13.875 23.1875 
z
" id="ArialMT-54"/>
       </defs>
       <use xlink:href="#ArialMT-48"/>
       <use x="55.615234" xlink:href="#ArialMT-46"/>
       <use x="83.398438" xlink:href="#ArialMT-54"/>
      </g>
     </g>
    </g>
    <g id="ytick_5">
     <g id="line2d_9">
      <g>
       <use style="stroke:#000000;stroke-width:0.8;" x="44.675" xlink:href="#mb9b0a473d7" y="46.68"/>
      </g>
     </g>
     <g id="text_10">
      <!-- 0.8 -->
      <g transform="translate(23.775 50.258906)scale(0.1 -0.1)">
       <defs>
        <path d="M 17.671875 38.8125 
Q 12.203125 40.828125 9.5625 44.53125 
Q 6.9375 48.25 6.9375 53.421875 
Q 6.9375 61.234375 12.546875 66.546875 
Q 18.171875 71.875 27.484375 71.875 
Q 36.859375 71.875 42.578125 66.421875 
Q 48.296875 60.984375 48.296875 53.171875 
Q 48.296875 48.1875 45.671875 44.5 
Q 43.0625 40.828125 37.75 38.8125 
Q 44.34375 36.671875 47.78125 31.875 
Q 51.21875 27.09375 51.21875 20.453125 
Q 51.21875 11.28125 44.71875 5.03125 
Q 38.234375 -1.21875 27.640625 -1.21875 
Q 17.046875 -1.21875 10.546875 5.046875 
Q 4.046875 11.328125 4.046875 20.703125 
Q 4.046875 27.6875 7.59375 32.390625 
Q 11.140625 37.109375 17.671875 38.8125 
z
M 15.921875 53.71875 
Q 15.921875 48.640625 19.1875 45.40625 
Q 22.46875 42.1875 27.6875 42.1875 
Q 32.765625 42.1875 36.015625 45.375 
Q 39.265625 48.578125 39.265625 53.21875 
Q 39.265625 58.0625 35.90625 61.359375 
Q 32.5625 64.65625 27.59375 64.65625 
Q 22.5625 64.65625 19.234375 61.421875 
Q 15.921875 58.203125 15.921875 53.71875 
z
M 13.09375 20.65625 
Q 13.09375 16.890625 14.875 13.375 
Q 16.65625 9.859375 20.171875 7.921875 
Q 23.6875 6 27.734375 6 
Q 34.03125 6 38.125 10.046875 
Q 42.234375 14.109375 42.234375 20.359375 
Q 42.234375 26.703125 38.015625 30.859375 
Q 33.796875 35.015625 27.4375 35.015625 
Q 21.234375 35.015625 17.15625 30.90625 
Q 13.09375 26.8125 13.09375 20.65625 
z
" id="ArialMT-56"/>
       </defs>
       <use xlink:href="#ArialMT-48"/>
       <use x="55.615234" xlink:href="#ArialMT-46"/>
       <use x="83.398438" xlink:href="#ArialMT-56"/>
      </g>
     </g>
    </g>
    <g id="ytick_6">
     <g id="line2d_10">
      <g>
       <use style="stroke:#000000;stroke-width:0.8;" x="44.675" xlink:href="#mb9b0a473d7" y="14.3"/>
      </g>
     </g>
     <g id="text_11">
      <!-- 1.0 -->
      <g transform="translate(23.775 17.878906)scale(0.1 -0.1)">
       <use xlink:href="#ArialMT-49"/>
       <use x="55.615234" xlink:href="#ArialMT-46"/>
       <use x="83.398438" xlink:href="#ArialMT-48"/>
      </g>
     </g>
    </g>
    <g id="text_12">
     <!-- Proportion -->
     <g transform="translate(17.7875 118.317187)rotate(-90)scale(0.1 -0.1)">
      <defs>
       <path d="M 7.71875 0 
L 7.71875 71.578125 
L 34.71875 71.578125 
Q 41.84375 71.578125 45.609375 70.90625 
Q 50.875 70.015625 54.4375 67.546875 
Q 58.015625 65.09375 60.1875 60.640625 
Q 62.359375 56.203125 62.359375 50.875 
Q 62.359375 41.75 56.546875 35.421875 
Q 50.734375 29.109375 35.546875 29.109375 
L 17.1875 29.109375 
L 17.1875 0 
z
M 17.1875 37.546875 
L 35.6875 37.546875 
Q 44.875 37.546875 48.734375 40.96875 
Q 52.59375 44.390625 52.59375 50.59375 
Q 52.59375 55.078125 50.3125 58.265625 
Q 48.046875 61.46875 44.34375 62.5 
Q 41.9375 63.140625 35.5 63.140625 
L 17.1875 63.140625 
z
" id="ArialMT-80"/>
       <path d="M 6.640625 61.46875 
L 6.640625 71.578125 
L 15.4375 71.578125 
L 15.4375 61.46875 
z
M 6.640625 0 
L 6.640625 51.859375 
L 15.4375 51.859375 
L 15.4375 0 
z
" id="ArialMT-105"/>
      </defs>
      <use xlink:href="#ArialMT-80"/>
      <use x="66.699219" xlink:href="#ArialMT-114"/>
      <use x="100" xlink:href="#ArialMT-111"/>
      <use x="155.615234" xlink:href="#ArialMT-112"/>
      <use x="211.230469" xlink:href="#ArialMT-111"/>
      <use x="266.845703" xlink:href="#ArialMT-114"/>
      <use x="300.146484" xlink:href="#ArialMT-116"/>
      <use x="327.929688" xlink:href="#ArialMT-105"/>
      <use x="350.146484" xlink:href="#ArialMT-111"/>
      <use x="405.761719" xlink:href="#ArialMT-110"/>
     </g>
    </g>
   </g>
   <g id="line2d_11">
    <path clip-path="url(#pc8f53a5d27)" d="M 51.768521 176.2 
L 51.768521 175.839165 
L 52.117159 175.839165 
L 52.117159 175.740756 
L 52.121229 175.248708 
L 52.429256 175.248708 
L 52.429256 175.150299 
L 52.465747 174.740259 
L 52.720673 174.740259 
L 52.720673 174.64185 
L 52.814285 174.166204 
L 53.06916 174.116999 
L 53.06916 174.067795 
L 53.162772 173.362527 
L 53.345949 173.264117 
L 53.438227 172.903282 
L 53.51121 172.804873 
L 53.611451 172.476841 
L 53.694336 172.394833 
L 53.694336 172.378432 
L 53.786614 172.165211 
L 53.867735 172.066802 
L 53.965381 171.869983 
L 54.006181 171.787975 
L 54.006181 171.771573 
L 54.116224 171.52555 
L 54.214462 171.42714 
L 54.308074 171.246723 
L 54.427968 171.148313 
L 54.527765 170.918691 
L 54.656309 170.820282 
L 54.765193 170.623463 
L 54.812644 170.541455 
L 54.812644 170.525053 
L 54.922118 170.311833 
L 54.968003 170.213423 
L 55.049753 169.901793 
L 55.160778 169.819785 
L 55.160778 169.803384 
L 55.270934 169.590163 
L 55.332827 169.55736 
L 55.332827 169.491754 
L 55.441839 169.114517 
L 55.47237 169.016108 
L 55.572168 168.753683 
L 55.709276 168.655273 
L 55.789872 168.409249 
L 55.908007 168.31084 
L 55.96827 168.114021 
L 56.1952 168.015611 
L 56.293935 167.835194 
L 56.465552 167.736785 
L 56.570344 167.654777 
L 56.733931 167.556367 
L 56.828197 167.474359 
L 56.915217 167.37595 
L 57.017794 167.179131 
L 57.143157 167.080721 
L 57.248859 166.818296 
L 57.311699 166.719887 
L 57.373925 166.687083 
L 57.645451 166.588674 
L 57.726052 166.457461 
L 57.842069 166.359052 
L 57.949174 166.326249 
L 58.039013 166.227839 
L 58.145935 166.096626 
L 58.210281 165.998217 
L 58.303376 165.916209 
L 58.461907 165.8178 
L 58.549501 165.71939 
L 58.65782 165.620981 
L 58.727832 165.555374 
L 58.864121 165.456965 
L 58.963912 165.358555 
L 59.127015 165.260146 
L 59.214466 165.19454 
L 59.422891 165.09613 
L 59.533042 164.964917 
L 59.659107 164.866508 
L 59.766722 164.718894 
L 59.925451 164.620484 
L 60.008828 164.538476 
L 60.139805 164.440067 
L 60.249148 164.292453 
L 60.346483 164.194043 
L 60.409165 164.112035 
L 60.663423 164.013626 
L 60.769569 163.898815 
L 60.947467 163.800405 
L 61.054574 163.718397 
L 61.206384 163.619988 
L 61.315464 163.505177 
L 61.414709 163.406767 
L 61.492071 163.324759 
L 61.672826 163.22635 
L 61.776285 163.12794 
L 62.001246 163.029531 
L 62.061559 162.980326 
L 62.247832 162.881917 
L 62.326259 162.799909 
L 62.481793 162.701499 
L 62.588762 162.668696 
L 62.666868 162.570287 
L 62.767684 162.439074 
L 62.900708 162.340665 
L 63.011205 162.160247 
L 63.17152 162.061838 
L 63.278627 161.97983 
L 63.437713 161.88142 
L 63.518801 161.815814 
L 63.646023 161.717405 
L 63.745166 161.635397 
L 63.870468 161.536987 
L 63.959425 161.405774 
L 64.074787 161.307365 
L 64.166914 161.143349 
L 64.303203 161.04494 
L 64.380192 160.913727 
L 64.526942 160.815318 
L 64.618714 160.766113 
L 64.883701 160.667703 
L 64.94155 160.602097 
L 65.195079 160.503688 
L 65.268318 160.405278 
L 65.408161 160.306869 
L 65.448832 160.224861 
L 65.695276 160.126451 
L 65.787344 160.01164 
L 66.010005 159.913231 
L 66.071224 159.782018 
L 66.252934 159.683609 
L 66.355463 159.552396 
L 66.426362 159.453986 
L 66.517956 159.371979 
L 66.628314 159.273569 
L 66.72811 159.109553 
L 66.838963 159.011144 
L 66.936259 158.830726 
L 67.059484 158.732317 
L 67.163564 158.5519 
L 67.234268 158.45349 
L 67.314864 158.404285 
L 67.426306 158.305876 
L 67.520096 158.207466 
L 67.64374 158.109057 
L 67.749139 158.010647 
L 67.922809 157.912238 
L 68.016958 157.846632 
L 68.198722 157.748222 
L 68.276692 157.666214 
L 68.480495 157.567805 
L 68.574915 157.452994 
L 68.790408 157.354584 
L 68.898222 157.239773 
L 69.019959 157.141364 
L 69.10353 157.059356 
L 69.251616 156.960946 
L 69.339264 156.878938 
L 69.484764 156.780529 
L 69.590307 156.600111 
L 69.706568 156.501702 
L 69.786551 156.370489 
L 69.988092 156.27208 
L 70.088556 156.17367 
L 70.371754 156.075261 
L 70.469311 156.026056 
L 70.640329 155.927647 
L 70.741185 155.812836 
L 70.896738 155.714426 
L 71.001355 155.665221 
L 71.137755 155.566812 
L 71.164709 155.517607 
L 71.377552 155.419198 
L 71.488398 155.304387 
L 71.70952 155.205977 
L 71.799163 155.123969 
L 72.020535 155.02556 
L 72.109454 154.976355 
L 72.225797 154.877945 
L 72.333596 154.779536 
L 72.459069 154.681127 
L 72.55428 154.61552 
L 72.715318 154.517111 
L 72.813547 154.467906 
L 72.95564 154.369497 
L 73.066592 154.254685 
L 73.19765 154.156276 
L 73.293568 154.041465 
L 73.510247 153.943055 
L 73.60592 153.828244 
L 73.752255 153.729835 
L 73.86157 153.647827 
L 73.978324 153.615024 
L 73.978324 153.549417 
L 74.077373 153.106575 
L 74.168434 153.008165 
L 74.236311 152.84415 
L 74.374537 152.74574 
L 74.477542 152.663732 
L 74.539476 152.565323 
L 74.648454 152.417708 
L 74.790603 152.319299 
L 74.797155 152.253693 
L 74.976002 152.155283 
L 75.081909 152.007669 
L 75.264629 151.909259 
L 75.366348 151.761645 
L 75.561863 151.663236 
L 75.662703 151.532023 
L 75.825109 151.433614 
L 75.930155 151.351606 
L 76.134557 151.253196 
L 76.239541 151.121984 
L 76.305763 151.023574 
L 76.374751 150.974369 
L 76.508959 150.87596 
L 76.614805 150.77755 
L 76.772652 150.679141 
L 76.88176 150.498724 
L 77.062502 150.400314 
L 77.124832 150.334708 
L 77.267193 150.236298 
L 77.360778 150.088684 
L 77.486601 149.990275 
L 77.581078 149.859062 
L 77.793323 149.760652 
L 77.856416 149.695046 
L 78.033652 149.596637 
L 78.120509 149.481826 
L 78.263157 149.383416 
L 78.336247 149.301408 
L 78.527446 149.202999 
L 78.623085 149.071786 
L 78.850588 148.973377 
L 78.959539 148.858565 
L 79.065622 148.760156 
L 79.175913 148.612542 
L 79.310087 148.514132 
L 79.421077 148.366518 
L 79.625311 148.268109 
L 79.660898 148.218904 
L 79.876746 148.120494 
L 79.97679 147.97288 
L 80.095829 147.874471 
L 80.186973 147.808864 
L 80.355561 147.710455 
L 80.463386 147.579242 
L 80.54353 147.480833 
L 80.622135 147.34962 
L 80.76005 147.251211 
L 80.840057 147.152801 
L 80.927046 147.054392 
L 80.932976 147.005187 
L 81.198002 146.906777 
L 81.281187 146.775565 
L 81.412501 146.677155 
L 81.519234 146.611549 
L 81.594098 146.513139 
L 81.699848 146.398328 
L 81.801486 146.299919 
L 81.895411 146.152305 
L 82.036167 146.053895 
L 82.140795 145.889879 
L 82.253356 145.79147 
L 82.344405 145.742265 
L 82.591975 145.643856 
L 82.698276 145.47984 
L 82.768625 145.38143 
L 82.877847 145.201013 
L 83.005727 145.102604 
L 83.105865 145.020596 
L 83.226483 144.922186 
L 83.337104 144.790974 
L 83.51336 144.692564 
L 83.619943 144.528548 
L 83.654642 144.430139 
L 83.760049 144.266123 
L 83.847636 144.167714 
L 83.950802 144.069304 
L 84.100817 143.970895 
L 84.206763 143.839682 
L 84.332231 143.741272 
L 84.443288 143.51165 
L 84.551218 143.413241 
L 84.655496 143.249225 
L 84.846568 143.150816 
L 84.948276 142.970398 
L 85.055437 142.871989 
L 85.159966 142.707973 
L 85.311106 142.609563 
L 85.391211 142.543957 
L 85.514097 142.445548 
L 85.619779 142.330737 
L 85.715738 142.232327 
L 85.818112 142.166721 
L 85.919736 142.068311 
L 86.025153 141.969902 
L 86.176228 141.871492 
L 86.264413 141.723878 
L 86.342803 141.625469 
L 86.449587 141.477854 
L 86.5735 141.379445 
L 86.649113 141.215429 
L 86.764924 141.11702 
L 86.845386 141.002208 
L 86.947968 140.903799 
L 87.058276 140.723382 
L 87.104341 140.624972 
L 87.208705 140.411752 
L 87.359473 140.313342 
L 87.468734 140.132925 
L 87.581745 140.034515 
L 87.67849 139.870499 
L 87.764427 139.77209 
L 87.851931 139.608074 
L 87.949856 139.509665 
L 88.031381 139.345649 
L 88.171967 139.247239 
L 88.256133 139.198035 
L 88.378704 139.099625 
L 88.484368 138.870003 
L 88.629645 138.771594 
L 88.739078 138.656782 
L 88.833721 138.558373 
L 88.943084 138.42716 
L 89.019538 138.328751 
L 89.128311 138.11553 
L 89.188202 138.017121 
L 89.298806 137.90231 
L 89.38645 137.8039 
L 89.484 137.705491 
L 89.58531 137.607081 
L 89.673022 137.574278 
L 89.773938 137.475869 
L 89.851843 137.328254 
L 90.010599 137.229845 
L 90.119374 137.033026 
L 90.31505 136.934617 
L 90.421416 136.721396 
L 90.518435 136.622987 
L 90.619173 136.458971 
L 90.723993 136.360561 
L 90.823285 136.229349 
L 90.930172 136.130939 
L 91.035477 136.016128 
L 91.24994 135.917719 
L 91.34412 135.7209 
L 91.397942 135.62249 
L 91.499974 135.491277 
L 91.616885 135.392868 
L 91.667629 135.261655 
L 91.855082 135.163246 
L 91.943281 135.032033 
L 92.018694 134.933624 
L 92.102673 134.851616 
L 92.198637 134.753206 
L 92.275163 134.654797 
L 92.380917 134.556387 
L 92.470564 134.359568 
L 92.571695 134.261159 
L 92.682654 134.047938 
L 92.77638 133.949529 
L 92.869744 133.867521 
L 93.005474 133.769112 
L 93.104943 133.6543 
L 93.287883 133.555891 
L 93.397907 133.457482 
L 93.516452 133.359072 
L 93.622938 133.244261 
L 93.795044 133.145851 
L 93.875468 133.03104 
L 94.054765 132.932631 
L 94.131822 132.834221 
L 94.254919 132.735812 
L 94.345908 132.637402 
L 94.532692 132.538993 
L 94.613402 132.440584 
L 94.73173 132.342174 
L 94.828111 132.19456 
L 94.900163 132.09615 
L 94.982429 131.899331 
L 95.055289 131.800922 
L 95.150408 131.718914 
L 95.309591 131.620505 
L 95.417964 131.374481 
L 95.537856 131.276071 
L 95.646456 131.095654 
L 95.71853 130.997244 
L 95.798632 130.931638 
L 95.963413 130.833229 
L 96.055018 130.685614 
L 96.118351 130.587205 
L 96.222857 130.505197 
L 96.369127 130.406788 
L 96.47417 130.32478 
L 96.516326 130.22637 
L 96.596756 130.160764 
L 96.731327 130.062354 
L 96.819184 129.947543 
L 96.949621 129.849134 
L 97.003242 129.783528 
L 97.116134 129.685118 
L 97.207282 129.553905 
L 97.374204 129.455496 
L 97.466646 129.340685 
L 97.579562 129.242275 
L 97.649174 129.143866 
L 97.771997 129.045456 
L 97.880158 128.733826 
L 98.007004 128.635417 
L 98.084107 128.537007 
L 98.144602 128.438598 
L 98.22977 128.307385 
L 98.359956 128.208976 
L 98.452283 128.126968 
L 98.599124 128.028558 
L 98.709107 127.848141 
L 98.7945 127.749732 
L 98.902536 127.651322 
L 99.00325 127.552913 
L 99.111655 127.306889 
L 99.198316 127.208479 
L 99.304548 127.01166 
L 99.377399 126.913251 
L 99.484105 126.716432 
L 99.562559 126.618022 
L 99.672824 126.519613 
L 99.730297 126.421204 
L 99.839214 126.240786 
L 99.961175 126.142377 
L 100.046572 126.060369 
L 100.150623 125.961959 
L 100.252889 125.814345 
L 100.343947 125.715936 
L 100.444723 125.55192 
L 100.541494 125.45351 
L 100.641792 125.338699 
L 100.81895 125.24029 
L 100.92765 125.109077 
L 101.015511 125.010668 
L 101.115783 124.83025 
L 101.194537 124.731841 
L 101.287776 124.51862 
L 101.395539 124.420211 
L 101.504336 124.223392 
L 101.581783 124.124982 
L 101.680593 123.960966 
L 101.78747 123.862557 
L 101.886186 123.68214 
L 102.001405 123.58373 
L 102.108497 123.501722 
L 102.169305 123.403313 
L 102.269077 123.288502 
L 102.383773 123.190092 
L 102.475795 123.108084 
L 102.617065 123.009675 
L 102.716735 122.878462 
L 102.809315 122.780053 
L 102.915547 122.566832 
L 103.010676 122.468423 
L 103.117624 122.353612 
L 103.155712 122.255202 
L 103.251987 122.140391 
L 103.331214 122.041982 
L 103.432146 121.92717 
L 103.55754 121.828761 
L 103.664744 121.730352 
L 103.787154 121.631942 
L 103.893105 121.500729 
L 103.983215 121.40232 
L 104.08903 121.254706 
L 104.17353 121.156296 
L 104.270397 121.025084 
L 104.309184 120.926674 
L 104.384868 120.844666 
L 104.520641 120.746257 
L 104.613358 120.647847 
L 104.782995 120.549438 
L 104.863803 120.483831 
L 104.924164 120.385422 
L 104.995453 120.319816 
L 105.12103 120.221406 
L 105.213764 119.975382 
L 105.314713 119.876973 
L 105.420544 119.712957 
L 105.446084 119.614548 
L 105.54369 119.384926 
L 105.611964 119.286516 
L 105.720308 119.138902 
L 105.741993 119.040492 
L 105.846556 118.827272 
L 105.95272 118.728862 
L 106.060642 118.564847 
L 106.132235 118.466437 
L 106.240025 118.253216 
L 106.307896 118.154807 
L 106.412614 117.925185 
L 106.539836 117.826775 
L 106.61981 117.695563 
L 106.765976 117.597153 
L 106.861172 117.416736 
L 106.934991 117.318326 
L 107.025524 117.121507 
L 107.100713 117.023098 
L 107.207911 116.842681 
L 107.282106 116.744271 
L 107.36371 116.596657 
L 107.52909 116.498247 
L 107.637605 116.252224 
L 107.678057 116.153814 
L 107.774174 116.0062 
L 107.856966 115.90779 
L 107.966926 115.727373 
L 108.049301 115.628964 
L 108.155418 115.415743 
L 108.297874 115.317334 
L 108.397969 115.120515 
L 108.486748 115.022105 
L 108.596 114.776081 
L 108.731699 114.677672 
L 108.817932 114.513656 
L 108.942412 114.415247 
L 109.039552 114.300436 
L 109.16318 114.202026 
L 109.268887 114.005207 
L 109.455028 113.906798 
L 109.560452 113.759183 
L 109.625792 113.660774 
L 109.72146 113.529561 
L 109.821587 113.431152 
L 109.920987 113.283538 
L 110.006458 113.185128 
L 110.074545 112.988309 
L 110.176914 112.8899 
L 110.287715 112.758687 
L 110.39941 112.660278 
L 110.430919 112.57827 
L 110.551065 112.47986 
L 110.649134 112.283041 
L 110.699704 112.184632 
L 110.799834 112.119025 
L 110.888303 112.020616 
L 110.994273 111.8566 
L 111.10228 111.758191 
L 111.209764 111.626978 
L 111.290289 111.528569 
L 111.391971 111.33175 
L 111.475652 111.23334 
L 111.574431 110.970915 
L 111.665518 110.872505 
L 111.768806 110.659285 
L 111.823581 110.560875 
L 111.928182 110.331253 
L 111.975373 110.232844 
L 112.0759 110.019623 
L 112.189334 109.921214 
L 112.274729 109.724395 
L 112.380669 109.625985 
L 112.473881 109.527576 
L 112.593772 109.429166 
L 112.687723 109.347158 
L 112.768609 109.248749 
L 112.868177 109.133938 
L 112.961968 109.035528 
L 113.058467 108.838709 
L 113.139093 108.7403 
L 113.242656 108.527079 
L 113.309354 108.42867 
L 113.409833 108.199048 
L 113.473834 108.100638 
L 113.562582 107.953024 
L 113.702221 107.854615 
L 113.806021 107.641394 
L 113.920704 107.542985 
L 114.027087 107.362567 
L 114.138765 107.264158 
L 114.233641 107.165748 
L 114.336479 107.067339 
L 114.440673 106.903323 
L 114.53339 106.804913 
L 114.643657 106.55889 
L 114.723287 106.46048 
L 114.818111 106.24726 
L 114.940914 106.14885 
L 115.049313 105.952031 
L 115.133996 105.853622 
L 115.238482 105.656803 
L 115.304009 105.558393 
L 115.407485 105.394377 
L 115.47329 105.295968 
L 115.563332 105.148354 
L 115.643102 105.049944 
L 115.730731 104.90233 
L 115.836703 104.803921 
L 115.914801 104.639905 
L 116.093028 104.541495 
L 116.198039 104.344676 
L 116.251101 104.246267 
L 116.352911 104.065849 
L 116.414692 103.96744 
L 116.515874 103.737818 
L 116.591227 103.639408 
L 116.695336 103.491794 
L 116.799814 103.393385 
L 116.902702 103.163763 
L 116.955226 103.065353 
L 117.023755 102.93414 
L 117.153862 102.835731 
L 117.264687 102.737321 
L 117.297706 102.638912 
L 117.408232 102.442093 
L 117.484232 102.343684 
L 117.574731 102.114061 
L 117.691682 102.015652 
L 117.788528 101.851636 
L 117.890559 101.753227 
L 117.999402 101.556408 
L 118.071744 101.457998 
L 118.164563 101.293982 
L 118.26222 101.195573 
L 118.371548 101.047959 
L 118.458207 100.949549 
L 118.558762 100.75273 
L 118.680487 100.654321 
L 118.783614 100.375494 
L 118.861885 100.277084 
L 118.953482 100.080265 
L 119.053866 99.981856 
L 119.142071 99.768635 
L 119.258041 99.670226 
L 119.365949 99.539013 
L 119.431599 99.440604 
L 119.53632 99.260186 
L 119.634475 99.161777 
L 119.72241 98.98136 
L 119.782414 98.88295 
L 119.885443 98.784541 
L 120.011112 98.686131 
L 120.120737 98.57132 
L 120.228089 98.472911 
L 120.329478 98.226887 
L 120.429194 98.128477 
L 120.531012 97.980863 
L 120.582267 97.882454 
L 120.672096 97.63643 
L 120.782042 97.53802 
L 120.883329 97.3248 
L 120.949967 97.22639 
L 121.060967 96.996768 
L 121.148573 96.898359 
L 121.25293 96.652335 
L 121.321926 96.553926 
L 121.419405 96.471918 
L 121.499399 96.373508 
L 121.606034 96.176689 
L 121.681131 96.07828 
L 121.788731 95.947067 
L 121.897742 95.848658 
L 122.008209 95.651839 
L 122.114202 95.553429 
L 122.203773 95.35661 
L 122.301778 95.258201 
L 122.411263 95.077783 
L 122.485792 94.979374 
L 122.59364 94.716949 
L 122.661079 94.618539 
L 122.725239 94.438122 
L 122.855645 94.339712 
L 122.964247 94.077287 
L 123.009623 93.978878 
L 123.112768 93.749255 
L 123.199772 93.650846 
L 123.30658 93.48683 
L 123.377652 93.388421 
L 123.476989 93.158799 
L 123.549578 93.060389 
L 123.65084 92.879972 
L 123.773737 92.781562 
L 123.882636 92.584743 
L 124.033767 92.486334 
L 124.110982 92.305916 
L 124.237318 92.207507 
L 124.343818 91.961483 
L 124.461274 91.863074 
L 124.561927 91.666255 
L 124.676956 91.567845 
L 124.783372 91.436633 
L 124.88907 91.338223 
L 124.972027 91.157806 
L 125.097275 91.059396 
L 125.200131 90.764168 
L 125.274415 90.665758 
L 125.384116 90.419735 
L 125.494712 90.321325 
L 125.556791 90.222916 
L 125.654877 90.124506 
L 125.683773 90.0589 
L 125.806592 89.96049 
L 125.889232 89.780073 
L 125.969266 89.681663 
L 126.06472 89.566852 
L 126.114208 89.468443 
L 126.220021 89.320829 
L 126.290263 89.222419 
L 126.354355 89.107608 
L 126.457387 89.009199 
L 126.549584 88.910789 
L 126.624136 88.81238 
L 126.71993 88.566356 
L 126.86442 88.467947 
L 126.961119 88.303931 
L 127.032205 88.205521 
L 127.142649 88.074309 
L 127.191001 87.975899 
L 127.293858 87.762679 
L 127.331239 87.664269 
L 127.418529 87.401844 
L 127.498268 87.303434 
L 127.608891 87.106615 
L 127.651134 87.008206 
L 127.754351 86.827788 
L 127.898605 86.729379 
L 127.995861 86.548962 
L 128.070956 86.450552 
L 128.174777 86.286536 
L 128.25308 86.188127 
L 128.363492 85.958505 
L 128.486838 85.860095 
L 128.594195 85.59767 
L 128.6713 85.49926 
L 128.766247 85.302441 
L 128.883598 85.204032 
L 128.982966 85.056418 
L 129.077082 84.958008 
L 129.181598 84.761189 
L 129.262609 84.66278 
L 129.370538 84.515166 
L 129.423727 84.416756 
L 129.520217 84.301945 
L 129.67777 84.203536 
L 129.786504 84.072323 
L 129.881312 83.973913 
L 129.976345 83.744291 
L 130.040351 83.645882 
L 130.14637 83.547472 
L 130.183901 83.449063 
L 130.294648 83.170236 
L 130.363407 83.071827 
L 130.447815 82.973417 
L 130.542236 82.875008 
L 130.649754 82.727393 
L 130.727434 82.628984 
L 130.83175 82.415763 
L 130.947953 82.317354 
L 131.041774 82.104133 
L 131.135171 82.005724 
L 131.244382 81.85811 
L 131.318466 81.7597 
L 131.425375 81.415267 
L 131.490028 81.316857 
L 131.59785 81.13644 
L 131.694608 81.038031 
L 131.791914 80.857613 
L 131.910709 80.759204 
L 132.014956 80.61159 
L 132.174811 80.51318 
L 132.247036 80.398369 
L 132.33606 80.299959 
L 132.446394 80.103141 
L 132.544954 80.004731 
L 132.637381 79.824314 
L 132.750114 79.725904 
L 132.856877 79.512684 
L 132.910103 79.414274 
L 133.006044 79.217455 
L 133.073625 79.119046 
L 133.167615 78.971431 
L 133.222826 78.873022 
L 133.333456 78.6434 
L 133.416234 78.54499 
L 133.504646 78.446581 
L 133.603786 78.348171 
L 133.713572 78.151352 
L 133.803602 78.052943 
L 133.913253 77.905329 
L 134.044656 77.806919 
L 134.151837 77.6101 
L 134.287845 77.511691 
L 134.393591 77.347675 
L 134.42817 77.249266 
L 134.535149 77.036045 
L 134.625757 76.937635 
L 134.731388 76.691612 
L 134.838882 76.593202 
L 134.935734 76.412785 
L 135.024966 76.314375 
L 135.114534 76.166761 
L 135.206255 76.068352 
L 135.310139 75.855131 
L 135.394309 75.756722 
L 135.501519 75.592706 
L 135.549979 75.494296 
L 135.650587 75.248273 
L 135.759721 75.149863 
L 135.870092 74.936643 
L 135.935725 74.838233 
L 136.031889 74.707021 
L 136.08966 74.608611 
L 136.200005 74.362587 
L 136.240477 74.264178 
L 136.333931 74.050957 
L 136.396078 73.952548 
L 136.500902 73.77213 
L 136.588466 73.673721 
L 136.697141 73.4605 
L 136.803509 73.362091 
L 136.909847 73.198075 
L 137.008933 73.099666 
L 137.114142 72.886445 
L 137.182886 72.788036 
L 137.288271 72.640421 
L 137.367764 72.542012 
L 137.470239 72.460004 
L 137.522711 72.361595 
L 137.629193 72.246784 
L 137.670277 72.148374 
L 137.781327 71.869547 
L 137.831755 71.771138 
L 137.931701 71.59072 
L 138.0048 71.492311 
L 138.105198 71.295492 
L 138.155197 71.197082 
L 138.255317 71.000263 
L 138.348135 70.901854 
L 138.458792 70.75424 
L 138.606193 70.65583 
L 138.712476 70.541019 
L 138.780165 70.44261 
L 138.868809 70.294995 
L 138.963555 70.196586 
L 139.063353 69.983365 
L 139.173088 69.884956 
L 139.282316 69.638932 
L 139.453088 69.540523 
L 139.564008 69.360105 
L 139.668681 69.261696 
L 139.778377 69.032074 
L 139.927986 68.933664 
L 140.033123 68.720444 
L 140.118637 68.622034 
L 140.22316 68.408814 
L 140.310496 68.310404 
L 140.409386 68.080782 
L 140.464714 67.982373 
L 140.570096 67.75275 
L 140.62256 67.654341 
L 140.723307 67.555932 
L 140.783082 67.457522 
L 140.878039 67.342711 
L 140.998173 67.244301 
L 141.107278 67.063884 
L 141.168777 66.965475 
L 141.271084 66.867065 
L 141.345395 66.768656 
L 141.455136 66.571837 
L 141.494682 66.473427 
L 141.590325 66.227404 
L 141.646457 66.128994 
L 141.756955 66.014183 
L 141.800884 65.915773 
L 141.891151 65.784561 
L 141.95994 65.686151 
L 142.053355 65.554939 
L 142.117558 65.456529 
L 142.222885 65.292513 
L 142.294054 65.194104 
L 142.402117 64.997285 
L 142.452114 64.898875 
L 142.544041 64.73486 
L 142.63747 64.63645 
L 142.738462 64.538041 
L 142.824765 64.439631 
L 142.935739 64.177206 
L 143.000157 64.078796 
L 143.106853 63.865576 
L 143.165618 63.767166 
L 143.275944 63.504741 
L 143.326068 63.406332 
L 143.422059 63.193111 
L 143.522151 63.094702 
L 143.631019 62.914284 
L 143.701466 62.815875 
L 143.80936 62.586253 
L 143.87403 62.487843 
L 143.976314 62.241819 
L 144.096515 62.14341 
L 144.192722 61.913788 
L 144.297394 61.815378 
L 144.406106 61.52015 
L 144.471328 61.42174 
L 144.576484 61.274126 
L 144.678113 61.175717 
L 144.788973 60.913291 
L 144.856341 60.814882 
L 144.966087 60.618063 
L 145.016584 60.519654 
L 145.127386 60.355638 
L 145.18892 60.257228 
L 145.286181 60.093212 
L 145.328024 59.994803 
L 145.426047 59.847189 
L 145.498262 59.748779 
L 145.606079 59.469952 
L 145.687579 59.371543 
L 145.779171 59.191126 
L 145.839586 59.092716 
L 145.902098 58.912299 
L 146.028859 58.813889 
L 146.129477 58.699078 
L 146.183597 58.600669 
L 146.294308 58.40385 
L 146.406889 58.30544 
L 146.514044 58.075818 
L 146.574322 57.977409 
L 146.680789 57.878999 
L 146.757505 57.78059 
L 146.848822 57.600172 
L 146.957601 57.501763 
L 147.063202 57.239337 
L 147.100186 57.140928 
L 147.205765 56.927707 
L 147.269316 56.829298 
L 147.380081 56.583274 
L 147.429008 56.484865 
L 147.537423 56.288046 
L 147.671398 56.189636 
L 147.782489 55.927211 
L 147.824504 55.828802 
L 147.933812 55.599179 
L 147.997223 55.50077 
L 148.085574 55.336754 
L 148.170354 55.238345 
L 148.279629 54.975919 
L 148.350721 54.87751 
L 148.457346 54.697092 
L 148.529196 54.598683 
L 148.624733 54.385462 
L 148.698266 54.287053 
L 148.806378 54.106636 
L 148.922332 54.008226 
L 149.030506 53.877013 
L 149.072449 53.778604 
L 149.181468 53.581785 
L 149.223283 53.483376 
L 149.325974 53.31936 
L 149.489957 53.22095 
L 149.594868 53.024131 
L 149.648946 52.925722 
L 149.755158 52.663297 
L 149.804386 52.564887 
L 149.886325 52.368068 
L 149.964667 52.269659 
L 150.070154 52.056438 
L 150.124768 51.958029 
L 150.221979 51.695603 
L 150.322776 51.597194 
L 150.428002 51.44958 
L 150.485983 51.35117 
L 150.57042 51.236359 
L 150.635991 51.13795 
L 150.712216 50.990335 
L 150.841435 50.891926 
L 150.932447 50.662304 
L 151.072102 50.563894 
L 151.180875 50.350674 
L 151.231933 50.252264 
L 151.332863 50.10465 
L 151.389506 50.006241 
L 151.499477 49.809422 
L 151.549583 49.711012 
L 151.651624 49.464988 
L 151.751352 49.366579 
L 151.854744 49.186161 
L 151.949967 49.087752 
L 152.052477 48.923736 
L 152.110735 48.825327 
L 152.201215 48.628508 
L 152.27985 48.530098 
L 152.367989 48.333279 
L 152.492536 48.23487 
L 152.603169 48.038051 
L 152.660803 47.939641 
L 152.768587 47.742822 
L 152.826103 47.644413 
L 152.933382 47.529602 
L 153.040148 47.431192 
L 153.142903 47.119562 
L 153.197955 47.021153 
L 153.272251 46.791531 
L 153.369736 46.693121 
L 153.478107 46.463499 
L 153.546278 46.36509 
L 153.644985 46.151869 
L 153.702194 46.05346 
L 153.803774 45.856641 
L 153.899431 45.758231 
L 154.006334 45.545011 
L 154.09583 45.446601 
L 154.170434 45.348192 
L 154.304882 45.249782 
L 154.391455 45.102168 
L 154.473015 45.003758 
L 154.576305 44.790538 
L 154.621425 44.692128 
L 154.726221 44.495309 
L 154.783879 44.3969 
L 154.887095 44.265687 
L 154.972906 44.167278 
L 155.070266 43.986861 
L 155.129272 43.888451 
L 155.232367 43.691632 
L 155.310618 43.593223 
L 155.418116 43.412805 
L 155.48316 43.314396 
L 155.593634 43.183183 
L 155.725812 43.084774 
L 155.835876 42.887955 
L 155.94046 42.789545 
L 156.033004 42.52712 
L 156.101574 42.42871 
L 156.193295 42.330301 
L 156.326124 42.231891 
L 156.413743 42.084277 
L 156.533667 41.985868 
L 156.636738 41.674238 
L 156.694084 41.575828 
L 156.77606 41.346206 
L 156.902748 41.247797 
L 157.009579 40.985371 
L 157.12627 40.886962 
L 157.223605 40.690143 
L 157.315682 40.591733 
L 157.417743 40.411316 
L 157.455681 40.312906 
L 157.560079 40.198095 
L 157.593693 40.099686 
L 157.691076 39.93567 
L 157.786284 39.837261 
L 157.894198 39.689646 
L 157.980724 39.591237 
L 158.08149 39.328812 
L 158.173138 39.230402 
L 158.282311 39.017182 
L 158.383311 38.918772 
L 158.490523 38.721953 
L 158.579237 38.623544 
L 158.688075 38.459528 
L 158.744239 38.361118 
L 158.829526 38.197103 
L 158.922879 38.098693 
L 159.030706 37.869071 
L 159.098119 37.770662 
L 159.201076 37.606646 
L 159.366235 37.508236 
L 159.468979 37.311417 
L 159.54829 37.213008 
L 159.649909 37.081795 
L 159.708476 36.983386 
L 159.808963 36.704559 
L 159.977698 36.606149 
L 160.088402 36.376527 
L 160.131671 36.278118 
L 160.223679 36.114102 
L 160.416279 36.015692 
L 160.524745 35.835275 
L 160.603914 35.736866 
L 160.678098 35.589251 
L 160.748644 35.490842 
L 160.832587 35.277621 
L 160.903556 35.179212 
L 161.001721 34.883983 
L 161.08606 34.785574 
L 161.188379 34.670763 
L 161.304515 34.572353 
L 161.407964 34.375534 
L 161.469004 34.277125 
L 161.57617 34.0147 
L 161.67867 33.91629 
L 161.763588 33.785077 
L 161.889621 33.686668 
L 161.985711 33.60466 
L 162.101792 33.506251 
L 162.190949 33.194621 
L 162.298052 33.096211 
L 162.390101 32.997802 
L 162.568406 32.899392 
L 162.668647 32.751778 
L 162.791474 32.653368 
L 162.901139 32.423746 
L 162.946078 32.325337 
L 163.056398 32.177723 
L 163.099852 32.079313 
L 163.188337 31.9481 
L 163.28604 31.849691 
L 163.388995 31.669274 
L 163.482927 31.570864 
L 163.581476 31.308439 
L 163.704884 31.210029 
L 163.815745 31.11162 
L 163.923481 31.01321 
L 164.021048 30.865596 
L 164.110092 30.767187 
L 164.208674 30.603171 
L 164.340934 30.504761 
L 164.451919 30.291541 
L 164.562304 30.193131 
L 164.658989 30.045517 
L 164.786064 29.947108 
L 164.874499 29.733887 
L 164.996437 29.635478 
L 165.082435 29.520667 
L 165.166809 29.422257 
L 165.275087 29.176233 
L 165.374653 29.077824 
L 165.444735 28.881005 
L 165.587616 28.782595 
L 165.691584 28.61858 
L 165.745284 28.52017 
L 165.844788 28.454564 
L 165.947314 28.356154 
L 166.050508 28.110131 
L 166.151903 28.011721 
L 166.248137 27.847705 
L 166.39228 27.749296 
L 166.484412 27.58528 
L 166.588843 27.486871 
L 166.693727 27.257249 
L 166.823284 27.158839 
L 166.92935 26.929217 
L 167.044124 26.830807 
L 167.149791 26.699595 
L 167.315787 26.601185 
L 167.419276 26.420768 
L 167.455899 26.322358 
L 167.551189 26.174744 
L 167.682913 26.076335 
L 167.783704 25.92872 
L 167.847663 25.830311 
L 167.945701 25.649894 
L 168.01845 25.551484 
L 168.129502 25.371067 
L 168.24576 25.272657 
L 168.325744 25.174248 
L 168.491248 25.075838 
L 168.601693 24.928224 
L 168.679622 24.829815 
L 168.750468 24.731405 
L 168.85505 24.632996 
L 168.961762 24.518185 
L 169.047624 24.419775 
L 169.157993 24.288562 
L 169.197654 24.190153 
L 169.290054 24.091743 
L 169.508314 23.993334 
L 169.60336 23.878523 
L 169.731022 23.780113 
L 169.831677 23.681704 
L 169.954313 23.583294 
L 170.037782 23.468483 
L 170.103903 23.370074 
L 170.196304 23.206058 
L 170.287208 23.107649 
L 170.373687 22.992838 
L 170.488834 22.894428 
L 170.589501 22.81242 
L 170.680085 22.714011 
L 170.772008 22.632003 
L 170.958065 22.533593 
L 171.057828 22.369578 
L 171.16973 22.271168 
L 171.260213 22.123554 
L 171.399887 22.025144 
L 171.510459 21.87753 
L 171.571228 21.779121 
L 171.681274 21.66431 
L 171.7702 21.5659 
L 171.828957 21.500294 
L 172.019524 21.401884 
L 172.044324 21.35268 
L 172.197167 21.25427 
L 172.302307 21.123057 
L 172.44475 21.024648 
L 172.543926 20.877034 
L 172.691798 20.778624 
L 172.787879 20.647412 
L 172.910037 20.549002 
L 172.997731 20.368585 
L 173.082942 20.270175 
L 173.179691 20.122561 
L 173.291044 20.024152 
L 173.391267 19.90934 
L 173.52779 19.810931 
L 173.636191 19.712522 
L 173.804135 19.614112 
L 173.90434 19.482899 
L 173.983025 19.38449 
L 174.063024 19.269679 
L 174.353863 19.171269 
L 174.453156 19.07286 
L 174.600028 18.97445 
L 174.693543 18.859639 
L 174.839778 18.76123 
L 174.900364 18.695624 
L 175.112056 18.597214 
L 175.17748 18.482403 
L 175.462323 18.383994 
L 175.573421 18.252781 
L 175.803315 18.154371 
L 175.90768 18.088765 
L 176.249568 17.990356 
L 176.332814 17.859143 
L 176.576097 17.760733 
L 176.59637 17.72793 
L 176.880265 17.629521 
L 176.957327 17.531111 
L 177.260004 17.432702 
L 177.329369 17.367096 
L 177.512327 17.268686 
L 177.616113 17.153875 
L 177.889192 17.055466 
L 177.970959 17.006261 
L 178.161553 16.907851 
L 178.224812 16.842245 
L 178.364529 16.743835 
L 178.454773 16.694631 
L 178.925848 16.596221 
L 179.011474 16.514213 
L 179.386284 16.415804 
L 179.444544 16.383001 
L 179.67537 16.284591 
L 179.785583 16.202583 
L 180.317049 16.104174 
L 180.317049 16.087772 
L 180.686873 15.989363 
L 180.723309 15.940158 
L 181.160434 15.841749 
L 181.22836 15.792544 
L 181.506787 15.694134 
L 181.605114 15.612126 
L 181.881428 15.513717 
L 181.881428 15.497315 
L 182.199979 15.398906 
L 182.300352 15.366103 
L 182.740592 15.267693 
L 182.846371 15.23489 
L 183.324388 15.136481 
L 183.324388 15.120079 
L 183.91222 15.02167 
L 183.91222 15.005268 
L 184.640298 14.906858 
L 184.71796 14.874055 
L 185.944136 14.775646 
L 185.99338 14.742843 
L 186.573095 14.644433 
L 186.596706 14.595228 
L 187.707391 14.496819 
L 187.814922 14.447614 
L 190.194065 14.349205 
L 190.194065 14.332803 
L 193.638935 14.316402 
L 193.638935 14.3 
" style="fill:none;stroke:#7570b3;stroke-linecap:square;stroke-width:1.5;"/>
   </g>
   <g id="line2d_12">
    <path clip-path="url(#pc8f53a5d27)" d="M 54.968003 176.2 
L 54.968003 173.982192 
L 55.520272 173.982192 
L 55.520272 171.764384 
L 57.711831 171.764384 
L 57.711831 169.546575 
L 60.324707 169.546575 
L 60.324707 167.328767 
L 62.643773 167.328767 
L 62.702187 162.893151 
L 63.095272 162.893151 
L 63.095272 160.675342 
L 63.403899 160.675342 
L 63.403899 158.457534 
L 64.99528 158.457534 
L 64.99528 156.239726 
L 65.437945 156.239726 
L 65.437945 154.021918 
L 68.337778 154.021918 
L 68.337778 151.80411 
L 70.797532 151.80411 
L 70.797532 149.586301 
L 78.984072 149.586301 
L 78.984072 147.368493 
L 80.362925 147.368493 
L 80.362925 145.150685 
L 80.756565 145.150685 
L 80.756565 142.932877 
L 82.037604 142.932877 
L 82.037604 140.715068 
L 84.89877 140.715068 
L 84.89877 138.49726 
L 86.833793 138.49726 
L 86.833793 136.279452 
L 92.019659 136.279452 
L 92.019659 134.061644 
L 92.557164 134.061644 
L 92.557164 131.843836 
L 93.101193 131.843836 
L 93.101193 129.626027 
L 93.348917 129.626027 
L 93.348917 127.408219 
L 96.819184 127.408219 
L 96.819184 125.190411 
L 97.786258 125.190411 
L 97.880158 120.754795 
L 101.032611 120.754795 
L 101.103639 114.10137 
L 102.115967 114.10137 
L 102.115967 111.883562 
L 103.956734 111.883562 
L 103.956734 109.665753 
L 105.740062 109.665753 
L 105.740062 107.447945 
L 106.941852 107.447945 
L 106.941852 105.230137 
L 108.163118 105.230137 
L 108.163118 103.012329 
L 108.590004 103.012329 
L 108.658398 98.576712 
L 109.590765 98.576712 
L 109.590765 96.358904 
L 110.176914 96.358904 
L 110.176914 94.141096 
L 113.357951 94.141096 
L 113.357951 91.923288 
L 114.411881 91.923288 
L 114.411881 89.705479 
L 114.643657 89.705479 
L 114.643657 87.487671 
L 115.911984 87.487671 
L 115.911984 85.269863 
L 116.505171 85.269863 
L 116.505171 83.052055 
L 117.277234 83.052055 
L 117.277234 80.834247 
L 118.42187 80.834247 
L 118.42187 78.616438 
L 118.744561 78.616438 
L 118.744561 76.39863 
L 119.103272 76.39863 
L 119.103272 74.180822 
L 121.497229 74.180822 
L 121.497229 71.963014 
L 124.401081 71.963014 
L 124.401081 69.745205 
L 126.624136 69.745205 
L 126.642054 65.309589 
L 128.300945 65.309589 
L 128.300945 63.091781 
L 129.999775 63.091781 
L 129.999775 60.873973 
L 130.679804 60.873973 
L 130.679804 58.656164 
L 131.490028 58.656164 
L 131.490028 56.438356 
L 132.223962 56.438356 
L 132.223962 54.220548 
L 134.642884 54.220548 
L 134.642884 52.00274 
L 136.487417 52.00274 
L 136.487417 49.784932 
L 138.153938 49.784932 
L 138.153938 47.567123 
L 139.248068 47.567123 
L 139.248068 45.349315 
L 141.43004 45.349315 
L 141.43004 43.131507 
L 143.663274 43.131507 
L 143.663274 40.913699 
L 146.092179 40.913699 
L 146.092179 38.69589 
L 147.157273 38.69589 
L 147.157273 36.478082 
L 147.867728 36.478082 
L 147.867728 34.260274 
L 148.337863 34.260274 
L 148.337863 32.042466 
L 148.538225 32.042466 
L 148.538225 29.824658 
L 151.991212 29.824658 
L 151.991212 27.606849 
L 154.378794 27.606849 
L 154.378794 25.389041 
L 158.107435 25.389041 
L 158.107435 23.171233 
L 160.076166 23.171233 
L 160.076166 20.953425 
L 164.902984 20.953425 
L 164.902984 18.735616 
L 179.011474 18.735616 
L 179.011474 16.517808 
L 180.258485 16.517808 
L 180.258485 14.3 
L 180.258485 14.3 
" style="fill:none;stroke:#d95f02;stroke-linecap:square;stroke-width:1.5;"/>
   </g>
   <g id="line2d_13">
    <path clip-path="url(#pc8f53a5d27)" d="M 52.777793 176.2 
L 52.814285 169.359155 
L 52.997512 169.359155 
L 52.997512 167.078873 
L 53.162772 167.078873 
L 53.263064 157.957746 
L 53.345949 157.957746 
L 53.438227 146.556338 
L 53.729493 146.556338 
L 53.823105 137.435211 
L 54.006181 137.435211 
L 54.020709 132.874648 
L 54.271582 132.874648 
L 54.354467 126.033803 
L 54.739194 126.033803 
L 54.739194 123.753521 
L 55.332827 123.753521 
L 55.361294 119.192958 
L 55.457434 119.192958 
L 55.457434 116.912676 
L 55.7834 116.912676 
L 55.86308 110.071831 
L 56.049274 110.071831 
L 56.049274 107.791549 
L 56.23388 107.791549 
L 56.23388 105.511268 
L 57.064205 105.511268 
L 57.064205 100.950704 
L 57.190154 100.950704 
L 57.286093 96.390141 
L 57.465397 96.390141 
L 57.465397 94.109859 
L 58.864121 94.109859 
L 58.864121 91.829577 
L 59.476147 91.829577 
L 59.51664 87.269014 
L 59.60023 87.269014 
L 59.692829 82.708451 
L 60.062674 82.708451 
L 60.139805 78.147887 
L 61.926484 78.147887 
L 61.926484 75.867606 
L 62.643773 75.867606 
L 62.676627 71.307042 
L 64.850195 71.307042 
L 64.850195 69.026761 
L 65.605801 69.026761 
L 65.605801 66.746479 
L 69.373834 66.746479 
L 69.373834 64.466197 
L 70.088556 64.466197 
L 70.088556 62.185915 
L 71.986234 62.185915 
L 71.986234 59.905634 
L 72.469251 59.905634 
L 72.469251 57.625352 
L 74.592003 57.625352 
L 74.592003 55.34507 
L 76.463752 55.34507 
L 76.463752 53.064789 
L 80.060532 53.064789 
L 80.060532 50.784507 
L 81.890262 50.784507 
L 81.890262 48.504225 
L 86.183451 48.504225 
L 86.183451 46.223944 
L 86.892493 46.223944 
L 86.892493 43.943662 
L 91.366921 43.943662 
L 91.366921 41.66338 
L 91.635238 41.66338 
L 91.635238 39.383099 
L 95.904693 39.383099 
L 95.904693 37.102817 
L 100.906947 37.102817 
L 100.906947 34.822535 
L 102.342972 34.822535 
L 102.342972 32.542254 
L 102.937941 32.542254 
L 102.937941 30.261972 
L 108.518696 30.261972 
L 108.518696 27.98169 
L 130.679804 27.98169 
L 130.679804 25.701408 
L 137.110321 25.701408 
L 137.110321 23.421127 
L 165.067191 23.421127 
L 165.067191 21.140845 
L 167.811449 21.140845 
L 167.811449 18.860563 
L 170.287208 18.860563 
L 170.287208 16.580282 
L 174.898202 16.580282 
L 174.898202 14.3 
L 174.898202 14.3 
" style="fill:none;stroke:#1b9e77;stroke-linecap:square;stroke-width:1.5;"/>
   </g>
   <g id="patch_3">
    <path d="M 44.675 176.2 
L 44.675 14.3 
" style="fill:none;stroke:#000000;stroke-linecap:square;stroke-linejoin:miter;stroke-width:0.8;"/>
   </g>
   <g id="patch_4">
    <path d="M 44.675 176.2 
L 200.732455 176.2 
" style="fill:none;stroke:#000000;stroke-linecap:square;stroke-linejoin:miter;stroke-width:0.8;"/>
   </g>
  </g>
  <g id="legend_1">
   <g id="text_13">
    <!-- resid -->
    <g transform="translate(243.874219 89.308594)scale(0.1 -0.1)">
     <defs>
      <path d="M 3.078125 15.484375 
L 11.765625 16.84375 
Q 12.5 11.625 15.84375 8.84375 
Q 19.1875 6.0625 25.203125 6.0625 
Q 31.25 6.0625 34.171875 8.515625 
Q 37.109375 10.984375 37.109375 14.3125 
Q 37.109375 17.28125 34.515625 19 
Q 32.71875 20.171875 25.53125 21.96875 
Q 15.875 24.421875 12.140625 26.203125 
Q 8.40625 27.984375 6.46875 31.125 
Q 4.546875 34.28125 4.546875 38.09375 
Q 4.546875 41.546875 6.125 44.5 
Q 7.71875 47.46875 10.453125 49.421875 
Q 12.5 50.921875 16.03125 51.96875 
Q 19.578125 53.03125 23.640625 53.03125 
Q 29.734375 53.03125 34.34375 51.265625 
Q 38.96875 49.515625 41.15625 46.5 
Q 43.359375 43.5 44.1875 38.484375 
L 35.59375 37.3125 
Q 35.015625 41.3125 32.203125 43.546875 
Q 29.390625 45.796875 24.265625 45.796875 
Q 18.21875 45.796875 15.625 43.796875 
Q 13.03125 41.796875 13.03125 39.109375 
Q 13.03125 37.40625 14.109375 36.03125 
Q 15.1875 34.625 17.484375 33.6875 
Q 18.796875 33.203125 25.25 31.453125 
Q 34.578125 28.953125 38.25 27.359375 
Q 41.9375 25.78125 44.03125 22.75 
Q 46.140625 19.734375 46.140625 15.234375 
Q 46.140625 10.84375 43.578125 6.953125 
Q 41.015625 3.078125 36.171875 0.953125 
Q 31.34375 -1.171875 25.25 -1.171875 
Q 15.140625 -1.171875 9.84375 3.03125 
Q 4.546875 7.234375 3.078125 15.484375 
z
" id="ArialMT-115"/>
      <path d="M 40.234375 0 
L 40.234375 6.546875 
Q 35.296875 -1.171875 25.734375 -1.171875 
Q 19.53125 -1.171875 14.328125 2.25 
Q 9.125 5.671875 6.265625 11.796875 
Q 3.421875 17.921875 3.421875 25.875 
Q 3.421875 33.640625 6 39.96875 
Q 8.59375 46.296875 13.765625 49.65625 
Q 18.953125 53.03125 25.34375 53.03125 
Q 30.03125 53.03125 33.6875 51.046875 
Q 37.359375 49.078125 39.65625 45.90625 
L 39.65625 71.578125 
L 48.390625 71.578125 
L 48.390625 0 
z
M 12.453125 25.875 
Q 12.453125 15.921875 16.640625 10.984375 
Q 20.84375 6.0625 26.5625 6.0625 
Q 32.328125 6.0625 36.34375 10.765625 
Q 40.375 15.484375 40.375 25.140625 
Q 40.375 35.796875 36.265625 40.765625 
Q 32.171875 45.75 26.171875 45.75 
Q 20.3125 45.75 16.375 40.96875 
Q 12.453125 36.1875 12.453125 25.875 
z
" id="ArialMT-100"/>
     </defs>
     <use xlink:href="#ArialMT-114"/>
     <use x="33.300781" xlink:href="#ArialMT-101"/>
     <use x="88.916016" xlink:href="#ArialMT-115"/>
     <use x="138.916016" xlink:href="#ArialMT-105"/>
     <use x="161.132812" xlink:href="#ArialMT-100"/>
    </g>
   </g>
   <g id="line2d_14">
    <path d="M 215.421875 99.953906 
L 235.421875 99.953906 
" style="fill:none;stroke:#1b9e77;stroke-linecap:square;stroke-width:1.5;"/>
   </g>
   <g id="line2d_15"/>
   <g id="text_14">
    <!-- active site -->
    <g transform="translate(243.421875 103.453906)scale(0.1 -0.1)">
     <defs>
      <path d="M 40.4375 6.390625 
Q 35.546875 2.25 31.03125 0.53125 
Q 26.515625 -1.171875 21.34375 -1.171875 
Q 12.796875 -1.171875 8.203125 3 
Q 3.609375 7.171875 3.609375 13.671875 
Q 3.609375 17.484375 5.34375 20.625 
Q 7.078125 23.78125 9.890625 25.6875 
Q 12.703125 27.59375 16.21875 28.5625 
Q 18.796875 29.25 24.03125 29.890625 
Q 34.671875 31.15625 39.703125 32.90625 
Q 39.75 34.71875 39.75 35.203125 
Q 39.75 40.578125 37.25 42.78125 
Q 33.890625 45.75 27.25 45.75 
Q 21.046875 45.75 18.09375 43.578125 
Q 15.140625 41.40625 13.71875 35.890625 
L 5.125 37.0625 
Q 6.296875 42.578125 8.984375 45.96875 
Q 11.671875 49.359375 16.75 51.1875 
Q 21.828125 53.03125 28.515625 53.03125 
Q 35.15625 53.03125 39.296875 51.46875 
Q 43.453125 49.90625 45.40625 47.53125 
Q 47.359375 45.171875 48.140625 41.546875 
Q 48.578125 39.3125 48.578125 33.453125 
L 48.578125 21.734375 
Q 48.578125 9.46875 49.140625 6.21875 
Q 49.703125 2.984375 51.375 0 
L 42.1875 0 
Q 40.828125 2.734375 40.4375 6.390625 
z
M 39.703125 26.03125 
Q 34.90625 24.078125 25.34375 22.703125 
Q 19.921875 21.921875 17.671875 20.9375 
Q 15.4375 19.96875 14.203125 18.09375 
Q 12.984375 16.21875 12.984375 13.921875 
Q 12.984375 10.40625 15.640625 8.0625 
Q 18.3125 5.71875 23.4375 5.71875 
Q 28.515625 5.71875 32.46875 7.9375 
Q 36.421875 10.15625 38.28125 14.015625 
Q 39.703125 17 39.703125 22.796875 
z
" id="ArialMT-97"/>
      <path d="M 40.4375 19 
L 49.078125 17.875 
Q 47.65625 8.9375 41.8125 3.875 
Q 35.984375 -1.171875 27.484375 -1.171875 
Q 16.84375 -1.171875 10.375 5.78125 
Q 3.90625 12.75 3.90625 25.734375 
Q 3.90625 34.125 6.6875 40.421875 
Q 9.46875 46.734375 15.15625 49.875 
Q 20.84375 53.03125 27.546875 53.03125 
Q 35.984375 53.03125 41.359375 48.75 
Q 46.734375 44.484375 48.25 36.625 
L 39.703125 35.296875 
Q 38.484375 40.53125 35.375 43.15625 
Q 32.28125 45.796875 27.875 45.796875 
Q 21.234375 45.796875 17.078125 41.03125 
Q 12.9375 36.28125 12.9375 25.984375 
Q 12.9375 15.53125 16.9375 10.796875 
Q 20.953125 6.0625 27.390625 6.0625 
Q 32.5625 6.0625 36.03125 9.234375 
Q 39.5 12.40625 40.4375 19 
z
" id="ArialMT-99"/>
      <path d="M 21 0 
L 1.265625 51.859375 
L 10.546875 51.859375 
L 21.6875 20.796875 
Q 23.484375 15.765625 25 10.359375 
Q 26.171875 14.453125 28.265625 20.21875 
L 39.796875 51.859375 
L 48.828125 51.859375 
L 29.203125 0 
z
" id="ArialMT-118"/>
      <path id="ArialMT-32"/>
     </defs>
     <use xlink:href="#ArialMT-97"/>
     <use x="55.615234" xlink:href="#ArialMT-99"/>
     <use x="105.615234" xlink:href="#ArialMT-116"/>
     <use x="133.398438" xlink:href="#ArialMT-105"/>
     <use x="155.615234" xlink:href="#ArialMT-118"/>
     <use x="205.615234" xlink:href="#ArialMT-101"/>
     <use x="261.230469" xlink:href="#ArialMT-32"/>
     <use x="289.013672" xlink:href="#ArialMT-115"/>
     <use x="339.013672" xlink:href="#ArialMT-105"/>
     <use x="361.230469" xlink:href="#ArialMT-116"/>
     <use x="389.013672" xlink:href="#ArialMT-101"/>
    </g>
   </g>
   <g id="line2d_16">
    <path d="M 215.421875 114.099219 
L 235.421875 114.099219 
" style="fill:none;stroke:#d95f02;stroke-linecap:square;stroke-width:1.5;"/>
   </g>
   <g id="line2d_17"/>
   <g id="text_15">
    <!-- coenzyme -->
    <g transform="translate(243.421875 117.599219)scale(0.1 -0.1)">
     <defs>
      <path d="M 1.953125 0 
L 1.953125 7.125 
L 34.96875 45.015625 
Q 29.34375 44.734375 25.046875 44.734375 
L 3.90625 44.734375 
L 3.90625 51.859375 
L 46.296875 51.859375 
L 46.296875 46.046875 
L 18.21875 13.140625 
L 12.796875 7.125 
Q 18.703125 7.5625 23.875 7.5625 
L 47.859375 7.5625 
L 47.859375 0 
z
" id="ArialMT-122"/>
      <path d="M 6.59375 0 
L 6.59375 51.859375 
L 14.453125 51.859375 
L 14.453125 44.578125 
Q 16.890625 48.390625 20.9375 50.703125 
Q 25 53.03125 30.171875 53.03125 
Q 35.9375 53.03125 39.625 50.640625 
Q 43.3125 48.25 44.828125 43.953125 
Q 50.984375 53.03125 60.84375 53.03125 
Q 68.5625 53.03125 72.703125 48.75 
Q 76.859375 44.484375 76.859375 35.59375 
L 76.859375 0 
L 68.109375 0 
L 68.109375 32.671875 
Q 68.109375 37.9375 67.25 40.25 
Q 66.40625 42.578125 64.15625 43.984375 
Q 61.921875 45.40625 58.890625 45.40625 
Q 53.421875 45.40625 49.796875 41.765625 
Q 46.1875 38.140625 46.1875 30.125 
L 46.1875 0 
L 37.40625 0 
L 37.40625 33.6875 
Q 37.40625 39.546875 35.25 42.46875 
Q 33.109375 45.40625 28.21875 45.40625 
Q 24.515625 45.40625 21.359375 43.453125 
Q 18.21875 41.5 16.796875 37.734375 
Q 15.375 33.984375 15.375 26.90625 
L 15.375 0 
z
" id="ArialMT-109"/>
     </defs>
     <use xlink:href="#ArialMT-99"/>
     <use x="50" xlink:href="#ArialMT-111"/>
     <use x="105.615234" xlink:href="#ArialMT-101"/>
     <use x="161.230469" xlink:href="#ArialMT-110"/>
     <use x="216.845703" xlink:href="#ArialMT-122"/>
     <use x="266.845703" xlink:href="#ArialMT-121"/>
     <use x="316.845703" xlink:href="#ArialMT-109"/>
     <use x="400.146484" xlink:href="#ArialMT-101"/>
    </g>
   </g>
   <g id="line2d_18">
    <path d="M 215.421875 128.361719 
L 235.421875 128.361719 
" style="fill:none;stroke:#7570b3;stroke-linecap:square;stroke-width:1.5;"/>
   </g>
   <g id="line2d_19"/>
   <g id="text_16">
    <!-- all residues -->
    <g transform="translate(243.421875 131.861719)scale(0.1 -0.1)">
     <defs>
      <path d="M 6.390625 0 
L 6.390625 71.578125 
L 15.1875 71.578125 
L 15.1875 0 
z
" id="ArialMT-108"/>
      <path d="M 40.578125 0 
L 40.578125 7.625 
Q 34.515625 -1.171875 24.125 -1.171875 
Q 19.53125 -1.171875 15.546875 0.578125 
Q 11.578125 2.34375 9.640625 5 
Q 7.71875 7.671875 6.9375 11.53125 
Q 6.390625 14.109375 6.390625 19.734375 
L 6.390625 51.859375 
L 15.1875 51.859375 
L 15.1875 23.09375 
Q 15.1875 16.21875 15.71875 13.8125 
Q 16.546875 10.359375 19.234375 8.375 
Q 21.921875 6.390625 25.875 6.390625 
Q 29.828125 6.390625 33.296875 8.421875 
Q 36.765625 10.453125 38.203125 13.9375 
Q 39.65625 17.4375 39.65625 24.078125 
L 39.65625 51.859375 
L 48.4375 51.859375 
L 48.4375 0 
z
" id="ArialMT-117"/>
     </defs>
     <use xlink:href="#ArialMT-97"/>
     <use x="55.615234" xlink:href="#ArialMT-108"/>
     <use x="77.832031" xlink:href="#ArialMT-108"/>
     <use x="100.048828" xlink:href="#ArialMT-32"/>
     <use x="127.832031" xlink:href="#ArialMT-114"/>
     <use x="161.132812" xlink:href="#ArialMT-101"/>
     <use x="216.748047" xlink:href="#ArialMT-115"/>
     <use x="266.748047" xlink:href="#ArialMT-105"/>
     <use x="288.964844" xlink:href="#ArialMT-100"/>
     <use x="344.580078" xlink:href="#ArialMT-117"/>
     <use x="400.195312" xlink:href="#ArialMT-101"/>
     <use x="455.810547" xlink:href="#ArialMT-115"/>
    </g>
   </g>
  </g>
 </g>
 <defs>
  <clipPath id="pc8f53a5d27">
   <rect height="161.9" width="156.057455" x="44.675" y="14.3"/>
  </clipPath>
 </defs>
</svg>
